<?xml version="1.0" encoding="UTF-8" standalone="no"?><svg xmlns="http://www.w3.org/2000/svg" xmlns:xlink="http://www.w3.org/1999/xlink" contentScriptType="application/ecmascript" contentStyleType="text/css" height="320px" preserveAspectRatio="none" style="width:486px;height:320px;" version="1.1" viewBox="0 0 486 320" width="486px" zoomAndPan="magnify"><defs><filter height="300%" id="fkfv85br1jl91" width="300%" x="-1" y="-1"><feGaussianBlur result="blurOut" stdDeviation="2.0"/><feColorMatrix in="blurOut" result="blurOut2" type="matrix" values="0 0 0 0 0 0 0 0 0 0 0 0 0 0 0 0 0 0 .4 0"/><feOffset dx="4.0" dy="4.0" in="blurOut2" result="blurOut3"/><feBlend in="SourceGraphic" in2="blurOut3" mode="normal"/></filter></defs><g><!--class Person--><rect fill="#FEFECE" filter="url(#fkfv85br1jl91)" height="124.8281" id="Person" style="stroke: #A80036; stroke-width: 1.5;" width="152" x="6" y="8"/><ellipse cx="53.75" cy="24" fill="#ADD1B2" rx="11" ry="11" style="stroke: #A80036; stroke-width: 1.0;"/><path d="M56.0938,19.6719 L56.2656,19.75 C56.4844,19.4375 56.6875,19.3438 56.9844,19.3438 C57.2813,19.3438 57.5625,19.4844 57.7188,19.75 C57.8125,19.9063 57.8281,20.0313 57.8281,20.4688 L57.8281,21.8906 C57.8281,22.3125 57.7969,22.5 57.6875,22.6563 C57.5156,22.875 57.25,23.0156 56.9844,23.0156 C56.7656,23.0156 56.5313,22.9063 56.3906,22.7656 C56.25,22.6406 56.2188,22.5156 56.1563,22.1094 C56.0625,21.7031 55.8906,21.4844 55.4063,21.2031 C54.9375,20.9531 54.3281,20.7969 53.75,20.7969 C52.0156,20.7969 50.7656,22.1094 50.7656,23.8906 L50.7656,24.9844 C50.7656,26.6875 52.0625,27.7813 54.1094,27.7813 C54.875,27.7813 55.5625,27.6563 55.9844,27.3906 C56.1719,27.2969 56.1719,27.2969 56.625,26.8125 C56.8125,26.625 57.0156,26.5469 57.2344,26.5469 C57.7031,26.5469 58.0938,26.9375 58.0938,27.3906 C58.0938,27.7813 57.7656,28.2344 57.1875,28.6406 C56.4375,29.1875 55.2813,29.4844 54.0625,29.4844 C51.1719,29.4844 49.0625,27.5938 49.0625,25.0156 L49.0625,23.8906 C49.0625,21.1719 51.0625,19.0938 53.6875,19.0938 C54.5625,19.0938 55.1563,19.2344 56.0938,19.6719 Z "/><text fill="#000000" font-family="sans-serif" font-size="12" lengthAdjust="spacingAndGlyphs" textLength="44" x="74.25" y="28.1543">Person</text><line style="stroke: #A80036; stroke-width: 1.5;" x1="7" x2="157" y1="40" y2="40"/><text fill="#000000" font-family="sans-serif" font-size="11" lengthAdjust="spacingAndGlyphs" textLength="140" x="12" y="54.2104">FirstName: Maybe String</text><text fill="#000000" font-family="sans-serif" font-size="11" lengthAdjust="spacingAndGlyphs" textLength="99" x="12" y="67.0151">LastName: String</text><text fill="#000000" font-family="sans-serif" font-size="11" lengthAdjust="spacingAndGlyphs" textLength="102" x="12" y="79.8198">Address: Address</text><text fill="#000000" font-family="sans-serif" font-size="11" lengthAdjust="spacingAndGlyphs" textLength="92" x="12" y="92.6245">Gender: Gender</text><line style="stroke: #A80036; stroke-width: 1.0;" x1="7" x2="157" y1="99.2188" y2="99.2188"/><text fill="#000000" font-family="sans-serif" font-size="11" font-weight="bold" lengthAdjust="spacingAndGlyphs" textLength="66" x="12" y="113.4292">aggregate</text><text fill="#000000" font-family="sans-serif" font-size="11" lengthAdjust="spacingAndGlyphs" textLength="48" x="78" y="113.4292">: Person</text><text fill="#000000" font-family="sans-serif" font-size="11" lengthAdjust="spacingAndGlyphs" textLength="0" x="16" y="126.2339"/><!--class MyAPI--><rect fill="#FEFECE" filter="url(#fkfv85br1jl91)" height="99.2188" id="MyAPI" style="stroke: #A80036; stroke-width: 1.5;" width="152" x="193" y="21"/><ellipse cx="247.25" cy="37" fill="#ADD1B2" rx="11" ry="11" style="stroke: #A80036; stroke-width: 1.0;"/><path d="M249.5938,32.6719 L249.7656,32.75 C249.9844,32.4375 250.1875,32.3438 250.4844,32.3438 C250.7813,32.3438 251.0625,32.4844 251.2188,32.75 C251.3125,32.9063 251.3281,33.0313 251.3281,33.4688 L251.3281,34.8906 C251.3281,35.3125 251.2969,35.5 251.1875,35.6563 C251.0156,35.875 250.75,36.0156 250.4844,36.0156 C250.2656,36.0156 250.0313,35.9063 249.8906,35.7656 C249.75,35.6406 249.7188,35.5156 249.6563,35.1094 C249.5625,34.7031 249.3906,34.4844 248.9063,34.2031 C248.4375,33.9531 247.8281,33.7969 247.25,33.7969 C245.5156,33.7969 244.2656,35.1094 244.2656,36.8906 L244.2656,37.9844 C244.2656,39.6875 245.5625,40.7813 247.6094,40.7813 C248.375,40.7813 249.0625,40.6563 249.4844,40.3906 C249.6719,40.2969 249.6719,40.2969 250.125,39.8125 C250.3125,39.625 250.5156,39.5469 250.7344,39.5469 C251.2031,39.5469 251.5938,39.9375 251.5938,40.3906 C251.5938,40.7813 251.2656,41.2344 250.6875,41.6406 C249.9375,42.1875 248.7813,42.4844 247.5625,42.4844 C244.6719,42.4844 242.5625,40.5938 242.5625,38.0156 L242.5625,36.8906 C242.5625,34.1719 244.5625,32.0938 247.1875,32.0938 C248.0625,32.0938 248.6563,32.2344 249.5938,32.6719 Z "/><text fill="#000000" font-family="sans-serif" font-size="12" lengthAdjust="spacingAndGlyphs" textLength="35" x="267.75" y="41.1543">MyAPI</text><line style="stroke: #A80036; stroke-width: 1.5;" x1="194" x2="344" y1="53" y2="53"/><text fill="#000000" font-family="sans-serif" font-size="11" lengthAdjust="spacingAndGlyphs" textLength="140" x="199" y="67.2104">FirstName: Maybe String</text><text fill="#000000" font-family="sans-serif" font-size="11" lengthAdjust="spacingAndGlyphs" textLength="99" x="199" y="80.0151">LastName: String</text><line style="stroke: #A80036; stroke-width: 1.0;" x1="194" x2="344" y1="86.6094" y2="86.6094"/><text fill="#000000" font-family="sans-serif" font-size="11" font-weight="bold" lengthAdjust="spacingAndGlyphs" textLength="20" x="199" y="100.8198">api</text><text fill="#000000" font-family="sans-serif" font-size="11" lengthAdjust="spacingAndGlyphs" textLength="46" x="219" y="100.8198">: /myapi</text><text fill="#000000" font-family="sans-serif" font-size="11" lengthAdjust="spacingAndGlyphs" textLength="0" x="203" y="113.6245"/><!--class Base--><rect fill="#FEFECE" filter="url(#fkfv85br1jl91)" height="60.8047" id="Base" style="stroke: #A80036; stroke-width: 1.5;" width="85" x="380.5" y="40"/><ellipse cx="405.4" cy="56" fill="#ADD1B2" rx="11" ry="11" style="stroke: #A80036; stroke-width: 1.0;"/><path d="M407.7438,51.6719 L407.9156,51.75 C408.1344,51.4375 408.3375,51.3438 408.6344,51.3438 C408.9313,51.3438 409.2125,51.4844 409.3688,51.75 C409.4625,51.9063 409.4781,52.0313 409.4781,52.4688 L409.4781,53.8906 C409.4781,54.3125 409.4469,54.5 409.3375,54.6563 C409.1656,54.875 408.9,55.0156 408.6344,55.0156 C408.4156,55.0156 408.1813,54.9063 408.0406,54.7656 C407.9,54.6406 407.8688,54.5156 407.8063,54.1094 C407.7125,53.7031 407.5406,53.4844 407.0563,53.2031 C406.5875,52.9531 405.9781,52.7969 405.4,52.7969 C403.6656,52.7969 402.4156,54.1094 402.4156,55.8906 L402.4156,56.9844 C402.4156,58.6875 403.7125,59.7813 405.7594,59.7813 C406.525,59.7813 407.2125,59.6563 407.6344,59.3906 C407.8219,59.2969 407.8219,59.2969 408.275,58.8125 C408.4625,58.625 408.6656,58.5469 408.8844,58.5469 C409.3531,58.5469 409.7438,58.9375 409.7438,59.3906 C409.7438,59.7813 409.4156,60.2344 408.8375,60.6406 C408.0875,61.1875 406.9313,61.4844 405.7125,61.4844 C402.8219,61.4844 400.7125,59.5938 400.7125,57.0156 L400.7125,55.8906 C400.7125,53.1719 402.7125,51.0938 405.3375,51.0938 C406.2125,51.0938 406.8063,51.2344 407.7438,51.6719 Z "/><text fill="#000000" font-family="sans-serif" font-size="12" lengthAdjust="spacingAndGlyphs" textLength="31" x="421.6" y="60.1543">Base</text><line style="stroke: #A80036; stroke-width: 1.5;" x1="381.5" x2="464.5" y1="72" y2="72"/><text fill="#000000" font-family="sans-serif" font-size="11" lengthAdjust="spacingAndGlyphs" textLength="73" x="386.5" y="86.2104">Bar: Number</text><line style="stroke: #A80036; stroke-width: 1.5;" x1="381.5" x2="464.5" y1="92.8047" y2="92.8047"/><!--class Response--><rect fill="#FEFECE" filter="url(#fkfv85br1jl91)" height="99.2188" id="Response" style="stroke: #A80036; stroke-width: 1.5;" width="104" x="371" y="210"/><ellipse cx="390.5" cy="226" fill="#ADD1B2" rx="11" ry="11" style="stroke: #A80036; stroke-width: 1.0;"/><path d="M392.8438,221.6719 L393.0156,221.75 C393.2344,221.4375 393.4375,221.3438 393.7344,221.3438 C394.0313,221.3438 394.3125,221.4844 394.4688,221.75 C394.5625,221.9063 394.5781,222.0313 394.5781,222.4688 L394.5781,223.8906 C394.5781,224.3125 394.5469,224.5 394.4375,224.6563 C394.2656,224.875 394,225.0156 393.7344,225.0156 C393.5156,225.0156 393.2813,224.9063 393.1406,224.7656 C393,224.6406 392.9688,224.5156 392.9063,224.1094 C392.8125,223.7031 392.6406,223.4844 392.1563,223.2031 C391.6875,222.9531 391.0781,222.7969 390.5,222.7969 C388.7656,222.7969 387.5156,224.1094 387.5156,225.8906 L387.5156,226.9844 C387.5156,228.6875 388.8125,229.7813 390.8594,229.7813 C391.625,229.7813 392.3125,229.6563 392.7344,229.3906 C392.9219,229.2969 392.9219,229.2969 393.375,228.8125 C393.5625,228.625 393.7656,228.5469 393.9844,228.5469 C394.4531,228.5469 394.8438,228.9375 394.8438,229.3906 C394.8438,229.7813 394.5156,230.2344 393.9375,230.6406 C393.1875,231.1875 392.0313,231.4844 390.8125,231.4844 C387.9219,231.4844 385.8125,229.5938 385.8125,227.0156 L385.8125,225.8906 C385.8125,223.1719 387.8125,221.0938 390.4375,221.0938 C391.3125,221.0938 391.9063,221.2344 392.8438,221.6719 Z "/><text fill="#000000" font-family="sans-serif" font-size="12" lengthAdjust="spacingAndGlyphs" textLength="62" x="405.5" y="230.1543">Response</text><line style="stroke: #A80036; stroke-width: 1.5;" x1="372" x2="474" y1="242" y2="242"/><text fill="#000000" font-family="sans-serif" font-size="11" lengthAdjust="spacingAndGlyphs" textLength="62" x="377" y="256.2104">Foo: String</text><text fill="#000000" font-family="sans-serif" font-size="11" lengthAdjust="spacingAndGlyphs" textLength="57" x="377" y="269.0151">Bar: Base</text><line style="stroke: #A80036; stroke-width: 1.0;" x1="372" x2="474" y1="275.6094" y2="275.6094"/><text fill="#000000" font-family="sans-serif" font-size="11" font-weight="bold" lengthAdjust="spacingAndGlyphs" textLength="20" x="377" y="289.8198">api</text><text fill="#000000" font-family="sans-serif" font-size="11" lengthAdjust="spacingAndGlyphs" textLength="72" x="397" y="289.8198">: /something</text><text fill="#000000" font-family="sans-serif" font-size="11" lengthAdjust="spacingAndGlyphs" textLength="0" x="381" y="302.6245"/><!--link Base to Response--><path d="M423,106.412 C423,135.513 423,177.298 423,209.7085 " fill="none" id="Base-Response" style="stroke: #A80036; stroke-width: 1.0;"/><polygon fill="#A80036" points="423,101.131,419,110.131,423,106.131,427,110.131,423,101.131" style="stroke: #A80036; stroke-width: 1.0;"/><text fill="#000000" font-family="sans-serif" font-size="13" lengthAdjust="spacingAndGlyphs" textLength="22" x="424" y="176.0669">Bar</text><!--
@startuml
class "Person " as Person  {
	FirstName: Maybe String
	LastName: String 
	Address: Address 
	Gender: Gender 
- -
  <b>aggregate</b>: Person
    
}
class "MyAPI" as MyAPI  {
	FirstName: Maybe String
	LastName: String 
- -
  <b>api</b>: /myapi
    
}
class "Base" as Base  {
	Bar: Number 
}
class "Response" as Response  {
	Foo: String 
	Bar: Base 
- -
  <b>api</b>: /something
    
}
Base <- - Response : Bar
@enduml

PlantUML version 1.2019.05beta2(Unknown compile time)
(GPL source distribution)
Java Runtime: Java(TM) SE Runtime Environment
JVM: Java HotSpot(TM) 64-Bit Server VM
Java Version: 1.7.0_25-b15
Operating System: Linux
Default Encoding: UTF-8
Language: en
Country: US
--></g></svg>