<?xml version="1.0" encoding="UTF-8" standalone="no"?><svg xmlns="http://www.w3.org/2000/svg" xmlns:xlink="http://www.w3.org/1999/xlink" contentScriptType="application/ecmascript" contentStyleType="text/css" height="294px" preserveAspectRatio="none" style="width:486px;height:294px;" version="1.1" viewBox="0 0 486 294" width="486px" zoomAndPan="magnify"><defs><filter height="300%" id="f6a2qkzx9c1nd" width="300%" x="-1" y="-1"><feGaussianBlur result="blurOut" stdDeviation="2.0"/><feColorMatrix in="blurOut" result="blurOut2" type="matrix" values="0 0 0 0 0 0 0 0 0 0 0 0 0 0 0 0 0 0 .4 0"/><feOffset dx="4.0" dy="4.0" in="blurOut2" result="blurOut3"/><feBlend in="SourceGraphic" in2="blurOut3" mode="normal"/></filter></defs><g><!--class Person--><rect fill="#FEFECE" filter="url(#f6a2qkzx9c1nd)" height="99.2188" id="Person" style="stroke: #A80036; stroke-width: 1.5;" width="152" x="6" y="8"/><ellipse cx="25.05" cy="24" fill="#ADD1B2" rx="11" ry="11" style="stroke: #A80036; stroke-width: 1.0;"/><path d="M27.3938,19.6719 L27.5656,19.75 C27.7844,19.4375 27.9875,19.3438 28.2844,19.3438 C28.5813,19.3438 28.8625,19.4844 29.0188,19.75 C29.1125,19.9063 29.1281,20.0313 29.1281,20.4688 L29.1281,21.8906 C29.1281,22.3125 29.0969,22.5 28.9875,22.6563 C28.8156,22.875 28.55,23.0156 28.2844,23.0156 C28.0656,23.0156 27.8313,22.9063 27.6906,22.7656 C27.55,22.6406 27.5188,22.5156 27.4563,22.1094 C27.3625,21.7031 27.1906,21.4844 26.7063,21.2031 C26.2375,20.9531 25.6281,20.7969 25.05,20.7969 C23.3156,20.7969 22.0656,22.1094 22.0656,23.8906 L22.0656,24.9844 C22.0656,26.6875 23.3625,27.7813 25.4094,27.7813 C26.175,27.7813 26.8625,27.6563 27.2844,27.3906 C27.4719,27.2969 27.4719,27.2969 27.925,26.8125 C28.1125,26.625 28.3156,26.5469 28.5344,26.5469 C29.0031,26.5469 29.3938,26.9375 29.3938,27.3906 C29.3938,27.7813 29.0656,28.2344 28.4875,28.6406 C27.7375,29.1875 26.5813,29.4844 25.3625,29.4844 C22.4719,29.4844 20.3625,27.5938 20.3625,25.0156 L20.3625,23.8906 C20.3625,21.1719 22.3625,19.0938 24.9875,19.0938 C25.8625,19.0938 26.4563,19.2344 27.3938,19.6719 Z "/><text fill="#000000" font-family="sans-serif" font-size="12" lengthAdjust="spacingAndGlyphs" textLength="44" x="39.95" y="28.1543">Person</text><rect fill="#FFFFFF" height="15.9688" style="stroke: #000000; stroke-width: 1.0; stroke-dasharray: 2.0,2.0;" width="61" x="100" y="5"/><text fill="#000000" font-family="sans-serif" font-size="12" font-style="italic" lengthAdjust="spacingAndGlyphs" textLength="59" x="101" y="17.1387">Customer</text><line style="stroke: #A80036; stroke-width: 1.5;" x1="7" x2="157" y1="40" y2="40"/><text fill="#000000" font-family="sans-serif" font-size="11" lengthAdjust="spacingAndGlyphs" textLength="140" x="12" y="54.2104">FirstName: Maybe String</text><text fill="#000000" font-family="sans-serif" font-size="11" lengthAdjust="spacingAndGlyphs" textLength="99" x="12" y="67.0151">LastName: String</text><text fill="#000000" font-family="sans-serif" font-size="11" lengthAdjust="spacingAndGlyphs" textLength="102" x="12" y="79.8198">Address: Address</text><text fill="#000000" font-family="sans-serif" font-size="11" lengthAdjust="spacingAndGlyphs" textLength="92" x="12" y="92.6245">Gender: Gender</text><line style="stroke: #A80036; stroke-width: 1.5;" x1="7" x2="157" y1="99.2188" y2="99.2188"/><!--class MyAPI--><rect fill="#FEFECE" filter="url(#f6a2qkzx9c1nd)" height="99.2188" id="MyAPI" style="stroke: #A80036; stroke-width: 1.5;" width="152" x="193" y="8"/><ellipse cx="247.25" cy="24" fill="#ADD1B2" rx="11" ry="11" style="stroke: #A80036; stroke-width: 1.0;"/><path d="M249.5938,19.6719 L249.7656,19.75 C249.9844,19.4375 250.1875,19.3438 250.4844,19.3438 C250.7813,19.3438 251.0625,19.4844 251.2188,19.75 C251.3125,19.9063 251.3281,20.0313 251.3281,20.4688 L251.3281,21.8906 C251.3281,22.3125 251.2969,22.5 251.1875,22.6563 C251.0156,22.875 250.75,23.0156 250.4844,23.0156 C250.2656,23.0156 250.0313,22.9063 249.8906,22.7656 C249.75,22.6406 249.7188,22.5156 249.6563,22.1094 C249.5625,21.7031 249.3906,21.4844 248.9063,21.2031 C248.4375,20.9531 247.8281,20.7969 247.25,20.7969 C245.5156,20.7969 244.2656,22.1094 244.2656,23.8906 L244.2656,24.9844 C244.2656,26.6875 245.5625,27.7813 247.6094,27.7813 C248.375,27.7813 249.0625,27.6563 249.4844,27.3906 C249.6719,27.2969 249.6719,27.2969 250.125,26.8125 C250.3125,26.625 250.5156,26.5469 250.7344,26.5469 C251.2031,26.5469 251.5938,26.9375 251.5938,27.3906 C251.5938,27.7813 251.2656,28.2344 250.6875,28.6406 C249.9375,29.1875 248.7813,29.4844 247.5625,29.4844 C244.6719,29.4844 242.5625,27.5938 242.5625,25.0156 L242.5625,23.8906 C242.5625,21.1719 244.5625,19.0938 247.1875,19.0938 C248.0625,19.0938 248.6563,19.2344 249.5938,19.6719 Z "/><text fill="#000000" font-family="sans-serif" font-size="12" lengthAdjust="spacingAndGlyphs" textLength="35" x="267.75" y="28.1543">MyAPI</text><line style="stroke: #A80036; stroke-width: 1.5;" x1="194" x2="344" y1="40" y2="40"/><text fill="#000000" font-family="sans-serif" font-size="11" lengthAdjust="spacingAndGlyphs" textLength="140" x="199" y="54.2104">FirstName: Maybe String</text><text fill="#000000" font-family="sans-serif" font-size="11" lengthAdjust="spacingAndGlyphs" textLength="99" x="199" y="67.0151">LastName: String</text><line style="stroke: #A80036; stroke-width: 1.0;" x1="194" x2="344" y1="73.6094" y2="73.6094"/><text fill="#000000" font-family="sans-serif" font-size="11" font-weight="bold" lengthAdjust="spacingAndGlyphs" textLength="20" x="199" y="87.8198">api</text><text fill="#000000" font-family="sans-serif" font-size="11" lengthAdjust="spacingAndGlyphs" textLength="46" x="219" y="87.8198">: /myapi</text><text fill="#000000" font-family="sans-serif" font-size="11" lengthAdjust="spacingAndGlyphs" textLength="0" x="203" y="100.6245"/><!--class Base--><rect fill="#FEFECE" filter="url(#f6a2qkzx9c1nd)" height="60.8047" id="Base" style="stroke: #A80036; stroke-width: 1.5;" width="85" x="380.5" y="27"/><ellipse cx="405.4" cy="43" fill="#ADD1B2" rx="11" ry="11" style="stroke: #A80036; stroke-width: 1.0;"/><path d="M407.7438,38.6719 L407.9156,38.75 C408.1344,38.4375 408.3375,38.3438 408.6344,38.3438 C408.9313,38.3438 409.2125,38.4844 409.3688,38.75 C409.4625,38.9063 409.4781,39.0313 409.4781,39.4688 L409.4781,40.8906 C409.4781,41.3125 409.4469,41.5 409.3375,41.6563 C409.1656,41.875 408.9,42.0156 408.6344,42.0156 C408.4156,42.0156 408.1813,41.9063 408.0406,41.7656 C407.9,41.6406 407.8688,41.5156 407.8063,41.1094 C407.7125,40.7031 407.5406,40.4844 407.0563,40.2031 C406.5875,39.9531 405.9781,39.7969 405.4,39.7969 C403.6656,39.7969 402.4156,41.1094 402.4156,42.8906 L402.4156,43.9844 C402.4156,45.6875 403.7125,46.7813 405.7594,46.7813 C406.525,46.7813 407.2125,46.6563 407.6344,46.3906 C407.8219,46.2969 407.8219,46.2969 408.275,45.8125 C408.4625,45.625 408.6656,45.5469 408.8844,45.5469 C409.3531,45.5469 409.7438,45.9375 409.7438,46.3906 C409.7438,46.7813 409.4156,47.2344 408.8375,47.6406 C408.0875,48.1875 406.9313,48.4844 405.7125,48.4844 C402.8219,48.4844 400.7125,46.5938 400.7125,44.0156 L400.7125,42.8906 C400.7125,40.1719 402.7125,38.0938 405.3375,38.0938 C406.2125,38.0938 406.8063,38.2344 407.7438,38.6719 Z "/><text fill="#000000" font-family="sans-serif" font-size="12" lengthAdjust="spacingAndGlyphs" textLength="31" x="421.6" y="47.1543">Base</text><line style="stroke: #A80036; stroke-width: 1.5;" x1="381.5" x2="464.5" y1="59" y2="59"/><text fill="#000000" font-family="sans-serif" font-size="11" lengthAdjust="spacingAndGlyphs" textLength="73" x="386.5" y="73.2104">Bar: Number</text><line style="stroke: #A80036; stroke-width: 1.5;" x1="381.5" x2="464.5" y1="79.8047" y2="79.8047"/><!--class Response--><rect fill="#FEFECE" filter="url(#f6a2qkzx9c1nd)" height="99.2188" id="Response" style="stroke: #A80036; stroke-width: 1.5;" width="104" x="371" y="184"/><ellipse cx="390.5" cy="200" fill="#ADD1B2" rx="11" ry="11" style="stroke: #A80036; stroke-width: 1.0;"/><path d="M392.8438,195.6719 L393.0156,195.75 C393.2344,195.4375 393.4375,195.3438 393.7344,195.3438 C394.0313,195.3438 394.3125,195.4844 394.4688,195.75 C394.5625,195.9063 394.5781,196.0313 394.5781,196.4688 L394.5781,197.8906 C394.5781,198.3125 394.5469,198.5 394.4375,198.6563 C394.2656,198.875 394,199.0156 393.7344,199.0156 C393.5156,199.0156 393.2813,198.9063 393.1406,198.7656 C393,198.6406 392.9688,198.5156 392.9063,198.1094 C392.8125,197.7031 392.6406,197.4844 392.1563,197.2031 C391.6875,196.9531 391.0781,196.7969 390.5,196.7969 C388.7656,196.7969 387.5156,198.1094 387.5156,199.8906 L387.5156,200.9844 C387.5156,202.6875 388.8125,203.7813 390.8594,203.7813 C391.625,203.7813 392.3125,203.6563 392.7344,203.3906 C392.9219,203.2969 392.9219,203.2969 393.375,202.8125 C393.5625,202.625 393.7656,202.5469 393.9844,202.5469 C394.4531,202.5469 394.8438,202.9375 394.8438,203.3906 C394.8438,203.7813 394.5156,204.2344 393.9375,204.6406 C393.1875,205.1875 392.0313,205.4844 390.8125,205.4844 C387.9219,205.4844 385.8125,203.5938 385.8125,201.0156 L385.8125,199.8906 C385.8125,197.1719 387.8125,195.0938 390.4375,195.0938 C391.3125,195.0938 391.9063,195.2344 392.8438,195.6719 Z "/><text fill="#000000" font-family="sans-serif" font-size="12" lengthAdjust="spacingAndGlyphs" textLength="62" x="405.5" y="204.1543">Response</text><line style="stroke: #A80036; stroke-width: 1.5;" x1="372" x2="474" y1="216" y2="216"/><text fill="#000000" font-family="sans-serif" font-size="11" lengthAdjust="spacingAndGlyphs" textLength="62" x="377" y="230.2104">Foo: String</text><text fill="#000000" font-family="sans-serif" font-size="11" lengthAdjust="spacingAndGlyphs" textLength="57" x="377" y="243.0151">Bar: Base</text><line style="stroke: #A80036; stroke-width: 1.0;" x1="372" x2="474" y1="249.6094" y2="249.6094"/><text fill="#000000" font-family="sans-serif" font-size="11" font-weight="bold" lengthAdjust="spacingAndGlyphs" textLength="20" x="377" y="263.8198">api</text><text fill="#000000" font-family="sans-serif" font-size="11" lengthAdjust="spacingAndGlyphs" textLength="72" x="397" y="263.8198">: /something</text><text fill="#000000" font-family="sans-serif" font-size="11" lengthAdjust="spacingAndGlyphs" textLength="0" x="381" y="276.6245"/><!--link Base to Response--><path d="M423,93.068 C423,119.008 423,154.867 423,183.7239 " fill="none" id="Base-Response" style="stroke: #A80036; stroke-width: 1.0;"/><polygon fill="#A80036" points="423,88.017,419,97.017,423,93.017,427,97.017,423,88.017" style="stroke: #A80036; stroke-width: 1.0;"/><text fill="#000000" font-family="sans-serif" font-size="13" lengthAdjust="spacingAndGlyphs" textLength="22" x="424" y="150.0669">Bar</text><!--
@startuml
class "Person " as Person <Customer> {
	FirstName: Maybe String
	LastName: String 
	Address: Address 
	Gender: Gender 
}
class "MyAPI" as MyAPI  {
	FirstName: Maybe String
	LastName: String 
- -
  <b>api</b>: /myapi
    
}
class "Base" as Base  {
	Bar: Number 
}
class "Response" as Response  {
	Foo: String 
	Bar: Base 
- -
  <b>api</b>: /something
    
}
Base <- - Response : Bar
@enduml

PlantUML version 1.2019.05beta2(Unknown compile time)
(GPL source distribution)
Java Runtime: Java(TM) SE Runtime Environment
JVM: Java HotSpot(TM) 64-Bit Server VM
Java Version: 1.7.0_25-b15
Operating System: Linux
Default Encoding: UTF-8
Language: en
Country: US
--></g></svg>