<?xml version="1.0" encoding="UTF-8" standalone="no"?><svg xmlns="http://www.w3.org/2000/svg" xmlns:xlink="http://www.w3.org/1999/xlink" contentScriptType="application/ecmascript" contentStyleType="text/css" height="268px" preserveAspectRatio="none" style="width:481px;height:268px;" version="1.1" viewBox="0 0 481 268" width="481px" zoomAndPan="magnify"><defs><filter height="300%" id="f1ms4w52pj06kv" width="300%" x="-1" y="-1"><feGaussianBlur result="blurOut" stdDeviation="2.0"/><feColorMatrix in="blurOut" result="blurOut2" type="matrix" values="0 0 0 0 0 0 0 0 0 0 0 0 0 0 0 0 0 0 .4 0"/><feOffset dx="4.0" dy="4.0" in="blurOut2" result="blurOut3"/><feBlend in="SourceGraphic" in2="blurOut3" mode="normal"/></filter></defs><g><!--class Person--><rect fill="#FEFECE" filter="url(#f1ms4w52pj06kv)" height="99.2188" id="Person" style="stroke: #A80036; stroke-width: 1.5;" width="152" x="6" y="8"/><ellipse cx="53.75" cy="24" fill="#ADD1B2" rx="11" ry="11" style="stroke: #A80036; stroke-width: 1.0;"/><path d="M56.0938,19.6719 L56.2656,19.75 C56.4844,19.4375 56.6875,19.3438 56.9844,19.3438 C57.2813,19.3438 57.5625,19.4844 57.7188,19.75 C57.8125,19.9063 57.8281,20.0313 57.8281,20.4688 L57.8281,21.8906 C57.8281,22.3125 57.7969,22.5 57.6875,22.6563 C57.5156,22.875 57.25,23.0156 56.9844,23.0156 C56.7656,23.0156 56.5313,22.9063 56.3906,22.7656 C56.25,22.6406 56.2188,22.5156 56.1563,22.1094 C56.0625,21.7031 55.8906,21.4844 55.4063,21.2031 C54.9375,20.9531 54.3281,20.7969 53.75,20.7969 C52.0156,20.7969 50.7656,22.1094 50.7656,23.8906 L50.7656,24.9844 C50.7656,26.6875 52.0625,27.7813 54.1094,27.7813 C54.875,27.7813 55.5625,27.6563 55.9844,27.3906 C56.1719,27.2969 56.1719,27.2969 56.625,26.8125 C56.8125,26.625 57.0156,26.5469 57.2344,26.5469 C57.7031,26.5469 58.0938,26.9375 58.0938,27.3906 C58.0938,27.7813 57.7656,28.2344 57.1875,28.6406 C56.4375,29.1875 55.2813,29.4844 54.0625,29.4844 C51.1719,29.4844 49.0625,27.5938 49.0625,25.0156 L49.0625,23.8906 C49.0625,21.1719 51.0625,19.0938 53.6875,19.0938 C54.5625,19.0938 55.1563,19.2344 56.0938,19.6719 Z "/><text fill="#000000" font-family="sans-serif" font-size="12" lengthAdjust="spacingAndGlyphs" textLength="44" x="74.25" y="28.1543">Person</text><line style="stroke: #A80036; stroke-width: 1.5;" x1="7" x2="157" y1="40" y2="40"/><text fill="#000000" font-family="sans-serif" font-size="11" lengthAdjust="spacingAndGlyphs" textLength="140" x="12" y="54.2104">FirstName: Maybe String</text><text fill="#000000" font-family="sans-serif" font-size="11" lengthAdjust="spacingAndGlyphs" textLength="99" x="12" y="67.0151">LastName: String</text><text fill="#000000" font-family="sans-serif" font-size="11" lengthAdjust="spacingAndGlyphs" textLength="102" x="12" y="79.8198">Address: Address</text><text fill="#000000" font-family="sans-serif" font-size="11" lengthAdjust="spacingAndGlyphs" textLength="92" x="12" y="92.6245">Gender: Gender</text><line style="stroke: #A80036; stroke-width: 1.5;" x1="7" x2="157" y1="99.2188" y2="99.2188"/><!--class MyAPI--><rect fill="#FEFECE" filter="url(#f1ms4w52pj06kv)" height="73.6094" id="MyAPI" style="stroke: #A80036; stroke-width: 1.5;" width="152" x="193" y="20.5"/><ellipse cx="247.25" cy="36.5" fill="#ADD1B2" rx="11" ry="11" style="stroke: #A80036; stroke-width: 1.0;"/><path d="M249.5938,32.1719 L249.7656,32.25 C249.9844,31.9375 250.1875,31.8438 250.4844,31.8438 C250.7813,31.8438 251.0625,31.9844 251.2188,32.25 C251.3125,32.4063 251.3281,32.5313 251.3281,32.9688 L251.3281,34.3906 C251.3281,34.8125 251.2969,35 251.1875,35.1563 C251.0156,35.375 250.75,35.5156 250.4844,35.5156 C250.2656,35.5156 250.0313,35.4063 249.8906,35.2656 C249.75,35.1406 249.7188,35.0156 249.6563,34.6094 C249.5625,34.2031 249.3906,33.9844 248.9063,33.7031 C248.4375,33.4531 247.8281,33.2969 247.25,33.2969 C245.5156,33.2969 244.2656,34.6094 244.2656,36.3906 L244.2656,37.4844 C244.2656,39.1875 245.5625,40.2813 247.6094,40.2813 C248.375,40.2813 249.0625,40.1563 249.4844,39.8906 C249.6719,39.7969 249.6719,39.7969 250.125,39.3125 C250.3125,39.125 250.5156,39.0469 250.7344,39.0469 C251.2031,39.0469 251.5938,39.4375 251.5938,39.8906 C251.5938,40.2813 251.2656,40.7344 250.6875,41.1406 C249.9375,41.6875 248.7813,41.9844 247.5625,41.9844 C244.6719,41.9844 242.5625,40.0938 242.5625,37.5156 L242.5625,36.3906 C242.5625,33.6719 244.5625,31.5938 247.1875,31.5938 C248.0625,31.5938 248.6563,31.7344 249.5938,32.1719 Z "/><text fill="#000000" font-family="sans-serif" font-size="12" lengthAdjust="spacingAndGlyphs" textLength="35" x="267.75" y="40.6543">MyAPI</text><line style="stroke: #A80036; stroke-width: 1.5;" x1="194" x2="344" y1="52.5" y2="52.5"/><text fill="#000000" font-family="sans-serif" font-size="11" lengthAdjust="spacingAndGlyphs" textLength="140" x="199" y="66.7104">FirstName: Maybe String</text><text fill="#000000" font-family="sans-serif" font-size="11" lengthAdjust="spacingAndGlyphs" textLength="99" x="199" y="79.5151">LastName: String</text><line style="stroke: #A80036; stroke-width: 1.5;" x1="194" x2="344" y1="86.1094" y2="86.1094"/><!--class Base--><rect fill="#FEFECE" filter="url(#f1ms4w52pj06kv)" height="60.8047" id="Base" style="stroke: #A80036; stroke-width: 1.5;" width="85" x="380.5" y="27"/><ellipse cx="405.4" cy="43" fill="#ADD1B2" rx="11" ry="11" style="stroke: #A80036; stroke-width: 1.0;"/><path d="M407.7438,38.6719 L407.9156,38.75 C408.1344,38.4375 408.3375,38.3438 408.6344,38.3438 C408.9313,38.3438 409.2125,38.4844 409.3688,38.75 C409.4625,38.9063 409.4781,39.0313 409.4781,39.4688 L409.4781,40.8906 C409.4781,41.3125 409.4469,41.5 409.3375,41.6563 C409.1656,41.875 408.9,42.0156 408.6344,42.0156 C408.4156,42.0156 408.1813,41.9063 408.0406,41.7656 C407.9,41.6406 407.8688,41.5156 407.8063,41.1094 C407.7125,40.7031 407.5406,40.4844 407.0563,40.2031 C406.5875,39.9531 405.9781,39.7969 405.4,39.7969 C403.6656,39.7969 402.4156,41.1094 402.4156,42.8906 L402.4156,43.9844 C402.4156,45.6875 403.7125,46.7813 405.7594,46.7813 C406.525,46.7813 407.2125,46.6563 407.6344,46.3906 C407.8219,46.2969 407.8219,46.2969 408.275,45.8125 C408.4625,45.625 408.6656,45.5469 408.8844,45.5469 C409.3531,45.5469 409.7438,45.9375 409.7438,46.3906 C409.7438,46.7813 409.4156,47.2344 408.8375,47.6406 C408.0875,48.1875 406.9313,48.4844 405.7125,48.4844 C402.8219,48.4844 400.7125,46.5938 400.7125,44.0156 L400.7125,42.8906 C400.7125,40.1719 402.7125,38.0938 405.3375,38.0938 C406.2125,38.0938 406.8063,38.2344 407.7438,38.6719 Z "/><text fill="#000000" font-family="sans-serif" font-size="12" lengthAdjust="spacingAndGlyphs" textLength="31" x="421.6" y="47.1543">Base</text><line style="stroke: #A80036; stroke-width: 1.5;" x1="381.5" x2="464.5" y1="59" y2="59"/><text fill="#000000" font-family="sans-serif" font-size="11" lengthAdjust="spacingAndGlyphs" textLength="73" x="386.5" y="73.2104">Bar: Number</text><line style="stroke: #A80036; stroke-width: 1.5;" x1="381.5" x2="464.5" y1="79.8047" y2="79.8047"/><!--class Response--><rect fill="#FEFECE" filter="url(#f1ms4w52pj06kv)" height="73.6094" id="Response" style="stroke: #A80036; stroke-width: 1.5;" width="94" x="376" y="184"/><ellipse cx="391" cy="200" fill="#ADD1B2" rx="11" ry="11" style="stroke: #A80036; stroke-width: 1.0;"/><path d="M393.3438,195.6719 L393.5156,195.75 C393.7344,195.4375 393.9375,195.3438 394.2344,195.3438 C394.5313,195.3438 394.8125,195.4844 394.9688,195.75 C395.0625,195.9063 395.0781,196.0313 395.0781,196.4688 L395.0781,197.8906 C395.0781,198.3125 395.0469,198.5 394.9375,198.6563 C394.7656,198.875 394.5,199.0156 394.2344,199.0156 C394.0156,199.0156 393.7813,198.9063 393.6406,198.7656 C393.5,198.6406 393.4688,198.5156 393.4063,198.1094 C393.3125,197.7031 393.1406,197.4844 392.6563,197.2031 C392.1875,196.9531 391.5781,196.7969 391,196.7969 C389.2656,196.7969 388.0156,198.1094 388.0156,199.8906 L388.0156,200.9844 C388.0156,202.6875 389.3125,203.7813 391.3594,203.7813 C392.125,203.7813 392.8125,203.6563 393.2344,203.3906 C393.4219,203.2969 393.4219,203.2969 393.875,202.8125 C394.0625,202.625 394.2656,202.5469 394.4844,202.5469 C394.9531,202.5469 395.3438,202.9375 395.3438,203.3906 C395.3438,203.7813 395.0156,204.2344 394.4375,204.6406 C393.6875,205.1875 392.5313,205.4844 391.3125,205.4844 C388.4219,205.4844 386.3125,203.5938 386.3125,201.0156 L386.3125,199.8906 C386.3125,197.1719 388.3125,195.0938 390.9375,195.0938 C391.8125,195.0938 392.4063,195.2344 393.3438,195.6719 Z "/><text fill="#000000" font-family="sans-serif" font-size="12" lengthAdjust="spacingAndGlyphs" textLength="62" x="405" y="204.1543">Response</text><line style="stroke: #A80036; stroke-width: 1.5;" x1="377" x2="469" y1="216" y2="216"/><text fill="#000000" font-family="sans-serif" font-size="11" lengthAdjust="spacingAndGlyphs" textLength="62" x="382" y="230.2104">Foo: String</text><text fill="#000000" font-family="sans-serif" font-size="11" lengthAdjust="spacingAndGlyphs" textLength="57" x="382" y="243.0151">Bar: Base</text><line style="stroke: #A80036; stroke-width: 1.5;" x1="377" x2="469" y1="249.6094" y2="249.6094"/><!--link Base to Response--><path d="M423,93.321 C423,120.016 423,156.744 423,183.7814 " fill="none" id="Base-Response" style="stroke: #A80036; stroke-width: 1.0;"/><polygon fill="#A80036" points="423,88.122,419,97.122,423,93.122,427,97.122,423,88.122" style="stroke: #A80036; stroke-width: 1.0;"/><text fill="#000000" font-family="sans-serif" font-size="13" lengthAdjust="spacingAndGlyphs" textLength="22" x="424" y="150.0669">Bar</text><!--
@startuml
class "Person " as Person  {
	FirstName: Maybe String
	LastName: String 
	Address: Address 
	Gender: Gender 
}
class "MyAPI" as MyAPI  {
	FirstName: Maybe String
	LastName: String 
}
class "Base" as Base  {
	Bar: Number 
}
class "Response" as Response  {
	Foo: String 
	Bar: Base 
}
Base <- - Response : Bar
@enduml

PlantUML version 1.2019.05beta2(Unknown compile time)
(GPL source distribution)
Java Runtime: Java(TM) SE Runtime Environment
JVM: Java HotSpot(TM) 64-Bit Server VM
Java Version: 1.7.0_25-b15
Operating System: Linux
Default Encoding: UTF-8
Language: en
Country: US
--></g></svg>