<?xml version="1.0" encoding="UTF-8" standalone="no"?><svg xmlns="http://www.w3.org/2000/svg" xmlns:xlink="http://www.w3.org/1999/xlink" contentScriptType="application/ecmascript" contentStyleType="text/css" height="422px" preserveAspectRatio="none" style="width:580px;height:422px;" version="1.1" viewBox="0 0 580 422" width="580px" zoomAndPan="magnify"><defs><filter height="300%" id="fb5qfwk06rkz5" width="300%" x="-1" y="-1"><feGaussianBlur result="blurOut" stdDeviation="2.0"/><feColorMatrix in="blurOut" result="blurOut2" type="matrix" values="0 0 0 0 0 0 0 0 0 0 0 0 0 0 0 0 0 0 .4 0"/><feOffset dx="4.0" dy="4.0" in="blurOut2" result="blurOut3"/><feBlend in="SourceGraphic" in2="blurOut3" mode="normal"/></filter></defs><g><!--class undefined--><rect fill="#FEFECE" filter="url(#fb5qfwk06rkz5)" height="86.4141" id="undefined" style="stroke: #A80036; stroke-width: 1.5;" width="95" x="6" y="72"/><ellipse cx="21" cy="88" fill="#EB937F" rx="11" ry="11" style="stroke: #A80036; stroke-width: 1.0;"/><path d="M19.2969,88.875 L19.2969,91.2969 L23.6563,91.2969 L23.6563,90.4219 C23.6563,89.9375 23.6875,89.7969 23.7969,89.6406 C23.9688,89.3906 24.2344,89.2813 24.5,89.2813 C24.7813,89.2813 25.0625,89.4375 25.2344,89.6875 C25.3125,89.8438 25.3438,89.9844 25.3438,90.4219 L25.3438,93 L17.3438,93 C16.9531,93 16.7188,92.9531 16.5781,92.8281 C16.3594,92.6719 16.2188,92.4219 16.2188,92.1563 C16.2188,91.8594 16.375,91.5938 16.625,91.4219 C16.7813,91.3125 16.9375,91.2969 17.3438,91.2969 L17.5938,91.2969 L17.5938,84.7813 L17.3438,84.7813 C16.9219,84.7813 16.7344,84.75 16.5781,84.6406 C16.3594,84.4688 16.2188,84.2188 16.2188,83.9375 C16.2188,83.6563 16.375,83.3594 16.625,83.2031 C16.7813,83.1094 16.9063,83.0938 17.3438,83.0938 L24.9688,83.0938 L24.9688,85.6406 C24.9688,86.1094 24.9375,86.25 24.8281,86.4219 C24.6563,86.6406 24.3906,86.7813 24.125,86.7813 C23.8438,86.7813 23.5625,86.625 23.3906,86.375 C23.3125,86.2188 23.2813,86.0469 23.2813,85.6406 L23.2813,84.7813 L19.2969,84.7813 L19.2969,87.1875 L20.75,87.1875 L20.75,87.0625 C20.75,86.6094 20.7813,86.4531 20.8906,86.2813 C21.0625,86.0625 21.3281,85.9219 21.5781,85.9219 C22.0313,85.9219 22.3438,86.2344 22.4063,86.7031 C22.4219,86.8594 22.4219,86.9063 22.4219,87.0625 L22.4219,88.9844 C22.4219,89.4375 22.3906,89.5938 22.2656,89.75 C22.1094,89.9688 21.8438,90.1094 21.5938,90.1094 C21.2969,90.1094 21.0156,89.9531 20.8594,89.7031 C20.7813,89.5469 20.75,89.3906 20.75,88.9844 L20.75,88.875 Z "/><text fill="#000000" font-family="sans-serif" font-size="12" lengthAdjust="spacingAndGlyphs" textLength="63" x="35" y="92.1543">undefined</text><line style="stroke: #A80036; stroke-width: 1.5;" x1="7" x2="100" y1="104" y2="104"/><text fill="#000000" font-family="sans-serif" font-size="11" lengthAdjust="spacingAndGlyphs" textLength="26" x="12" y="118.2104">Male</text><text fill="#000000" font-family="sans-serif" font-size="11" lengthAdjust="spacingAndGlyphs" textLength="41" x="12" y="131.0151">Female</text><text fill="#000000" font-family="sans-serif" font-size="11" lengthAdjust="spacingAndGlyphs" textLength="32" x="12" y="143.8198">Other</text><line style="stroke: #A80036; stroke-width: 1.5;" x1="7" x2="100" y1="150.4141" y2="150.4141"/><!--class Address--><rect fill="#FEFECE" filter="url(#fb5qfwk06rkz5)" height="214.4609" id="Address" style="stroke: #A80036; stroke-width: 1.5;" width="227" x="136" y="8"/><ellipse cx="219.75" cy="24" fill="#ADD1B2" rx="11" ry="11" style="stroke: #A80036; stroke-width: 1.0;"/><path d="M222.0938,19.6719 L222.2656,19.75 C222.4844,19.4375 222.6875,19.3438 222.9844,19.3438 C223.2813,19.3438 223.5625,19.4844 223.7188,19.75 C223.8125,19.9063 223.8281,20.0313 223.8281,20.4688 L223.8281,21.8906 C223.8281,22.3125 223.7969,22.5 223.6875,22.6563 C223.5156,22.875 223.25,23.0156 222.9844,23.0156 C222.7656,23.0156 222.5313,22.9063 222.3906,22.7656 C222.25,22.6406 222.2188,22.5156 222.1563,22.1094 C222.0625,21.7031 221.8906,21.4844 221.4063,21.2031 C220.9375,20.9531 220.3281,20.7969 219.75,20.7969 C218.0156,20.7969 216.7656,22.1094 216.7656,23.8906 L216.7656,24.9844 C216.7656,26.6875 218.0625,27.7813 220.1094,27.7813 C220.875,27.7813 221.5625,27.6563 221.9844,27.3906 C222.1719,27.2969 222.1719,27.2969 222.625,26.8125 C222.8125,26.625 223.0156,26.5469 223.2344,26.5469 C223.7031,26.5469 224.0938,26.9375 224.0938,27.3906 C224.0938,27.7813 223.7656,28.2344 223.1875,28.6406 C222.4375,29.1875 221.2813,29.4844 220.0625,29.4844 C217.1719,29.4844 215.0625,27.5938 215.0625,25.0156 L215.0625,23.8906 C215.0625,21.1719 217.0625,19.0938 219.6875,19.0938 C220.5625,19.0938 221.1563,19.2344 222.0938,19.6719 Z "/><text fill="#000000" font-family="sans-serif" font-size="12" lengthAdjust="spacingAndGlyphs" textLength="51" x="240.25" y="28.1543">Address</text><line style="stroke: #A80036; stroke-width: 1.5;" x1="137" x2="362" y1="40" y2="40"/><text fill="#000000" font-family="sans-serif" font-size="11" lengthAdjust="spacingAndGlyphs" textLength="77" x="142" y="54.2104">Street: String</text><text fill="#000000" font-family="sans-serif" font-size="11" lengthAdjust="spacingAndGlyphs" textLength="106" x="142" y="67.0151">PostalCode: String</text><text fill="#000000" font-family="sans-serif" font-size="11" lengthAdjust="spacingAndGlyphs" textLength="134" x="142" y="79.8198">HouseNumber: Number</text><text fill="#000000" font-family="sans-serif" font-size="11" lengthAdjust="spacingAndGlyphs" textLength="178" x="142" y="92.6245">HouseNumberExtension: String</text><text fill="#000000" font-family="sans-serif" font-size="11" lengthAdjust="spacingAndGlyphs" textLength="63" x="142" y="105.4292">City: String</text><text fill="#000000" font-family="sans-serif" font-size="11" lengthAdjust="spacingAndGlyphs" textLength="115" x="142" y="118.2339">CountryCode: String</text><text fill="#000000" font-family="sans-serif" font-size="11" lengthAdjust="spacingAndGlyphs" textLength="126" x="142" y="131.0386">Country: Maybe String</text><line style="stroke: #A80036; stroke-width: 1.0;" x1="137" x2="362" y1="137.6328" y2="137.6328"/><text fill="#000000" font-family="sans-serif" font-size="11" font-weight="bold" lengthAdjust="spacingAndGlyphs" textLength="72" x="142" y="151.8433">description</text><text fill="#000000" font-family="sans-serif" font-size="11" lengthAdjust="spacingAndGlyphs" textLength="106" x="214" y="151.8433">: The address of a</text><text fill="#000000" font-family="sans-serif" font-size="11" lengthAdjust="spacingAndGlyphs" textLength="167" x="142" y="164.6479">person. This is the functional</text><text fill="#000000" font-family="sans-serif" font-size="11" lengthAdjust="spacingAndGlyphs" textLength="215" x="142" y="177.4526">location of where a person lives. This</text><text fill="#000000" font-family="sans-serif" font-size="11" lengthAdjust="spacingAndGlyphs" textLength="194" x="142" y="190.2573">type is of course designed for the</text><text fill="#000000" font-family="sans-serif" font-size="11" lengthAdjust="spacingAndGlyphs" textLength="133" x="142" y="203.062">Dutch address system.</text><text fill="#000000" font-family="sans-serif" font-size="11" lengthAdjust="spacingAndGlyphs" textLength="0" x="146" y="215.8667"/><!--class Person--><rect fill="#FEFECE" filter="url(#fb5qfwk06rkz5)" height="112.0234" id="Person" style="stroke: #A80036; stroke-width: 1.5;" width="190" x="154.5" y="299"/><ellipse cx="221.25" cy="315" fill="#ADD1B2" rx="11" ry="11" style="stroke: #A80036; stroke-width: 1.0;"/><path d="M223.5938,310.6719 L223.7656,310.75 C223.9844,310.4375 224.1875,310.3438 224.4844,310.3438 C224.7813,310.3438 225.0625,310.4844 225.2188,310.75 C225.3125,310.9063 225.3281,311.0313 225.3281,311.4688 L225.3281,312.8906 C225.3281,313.3125 225.2969,313.5 225.1875,313.6563 C225.0156,313.875 224.75,314.0156 224.4844,314.0156 C224.2656,314.0156 224.0313,313.9063 223.8906,313.7656 C223.75,313.6406 223.7188,313.5156 223.6563,313.1094 C223.5625,312.7031 223.3906,312.4844 222.9063,312.2031 C222.4375,311.9531 221.8281,311.7969 221.25,311.7969 C219.5156,311.7969 218.2656,313.1094 218.2656,314.8906 L218.2656,315.9844 C218.2656,317.6875 219.5625,318.7813 221.6094,318.7813 C222.375,318.7813 223.0625,318.6563 223.4844,318.3906 C223.6719,318.2969 223.6719,318.2969 224.125,317.8125 C224.3125,317.625 224.5156,317.5469 224.7344,317.5469 C225.2031,317.5469 225.5938,317.9375 225.5938,318.3906 C225.5938,318.7813 225.2656,319.2344 224.6875,319.6406 C223.9375,320.1875 222.7813,320.4844 221.5625,320.4844 C218.6719,320.4844 216.5625,318.5938 216.5625,316.0156 L216.5625,314.8906 C216.5625,312.1719 218.5625,310.0938 221.1875,310.0938 C222.0625,310.0938 222.6563,310.2344 223.5938,310.6719 Z "/><text fill="#000000" font-family="sans-serif" font-size="12" lengthAdjust="spacingAndGlyphs" textLength="44" x="241.75" y="319.1543">Person</text><line style="stroke: #A80036; stroke-width: 1.5;" x1="155.5" x2="343.5" y1="331" y2="331"/><text fill="#000000" font-family="sans-serif" font-size="11" lengthAdjust="spacingAndGlyphs" textLength="140" x="160.5" y="345.2104">FirstName: Maybe String</text><text fill="#000000" font-family="sans-serif" font-size="11" lengthAdjust="spacingAndGlyphs" textLength="99" x="160.5" y="358.0151">LastName: String</text><text fill="#000000" font-family="sans-serif" font-size="11" lengthAdjust="spacingAndGlyphs" textLength="102" x="160.5" y="370.8198">Address: Address</text><text fill="#000000" font-family="sans-serif" font-size="11" lengthAdjust="spacingAndGlyphs" textLength="92" x="160.5" y="383.6245">Gender: Gender</text><text fill="#000000" font-family="sans-serif" font-size="11" lengthAdjust="spacingAndGlyphs" textLength="84" x="160.5" y="396.4292">CustomerId: Id</text><text fill="#000000" font-family="sans-serif" font-size="11" font-style="italic" lengthAdjust="spacingAndGlyphs" textLength="86" x="252.5" y="396.4292">from Customer</text><line style="stroke: #A80036; stroke-width: 1.5;" x1="155.5" x2="343.5" y1="403.0234" y2="403.0234"/><!--class Customer--><rect fill="#FEFECE" filter="url(#fb5qfwk06rkz5)" height="60.8047" id="Customer" style="stroke: #A80036; stroke-width: 1.5;" width="96" x="412.5" y="84.5"/><ellipse cx="429.3" cy="100.5" fill="#ADD1B2" rx="11" ry="11" style="stroke: #A80036; stroke-width: 1.0;"/><path d="M431.6438,96.1719 L431.8156,96.25 C432.0344,95.9375 432.2375,95.8438 432.5344,95.8438 C432.8313,95.8438 433.1125,95.9844 433.2688,96.25 C433.3625,96.4063 433.3781,96.5313 433.3781,96.9688 L433.3781,98.3906 C433.3781,98.8125 433.3469,99 433.2375,99.1563 C433.0656,99.375 432.8,99.5156 432.5344,99.5156 C432.3156,99.5156 432.0813,99.4063 431.9406,99.2656 C431.8,99.1406 431.7688,99.0156 431.7063,98.6094 C431.6125,98.2031 431.4406,97.9844 430.9563,97.7031 C430.4875,97.4531 429.8781,97.2969 429.3,97.2969 C427.5656,97.2969 426.3156,98.6094 426.3156,100.3906 L426.3156,101.4844 C426.3156,103.1875 427.6125,104.2813 429.6594,104.2813 C430.425,104.2813 431.1125,104.1563 431.5344,103.8906 C431.7219,103.7969 431.7219,103.7969 432.175,103.3125 C432.3625,103.125 432.5656,103.0469 432.7844,103.0469 C433.2531,103.0469 433.6438,103.4375 433.6438,103.8906 C433.6438,104.2813 433.3156,104.7344 432.7375,105.1406 C431.9875,105.6875 430.8313,105.9844 429.6125,105.9844 C426.7219,105.9844 424.6125,104.0938 424.6125,101.5156 L424.6125,100.3906 C424.6125,97.6719 426.6125,95.5938 429.2375,95.5938 C430.1125,95.5938 430.7063,95.7344 431.6438,96.1719 Z "/><text fill="#000000" font-family="sans-serif" font-size="12" lengthAdjust="spacingAndGlyphs" textLength="60" x="443.7" y="104.6543">Customer</text><line style="stroke: #A80036; stroke-width: 1.5;" x1="413.5" x2="507.5" y1="116.5" y2="116.5"/><text fill="#000000" font-family="sans-serif" font-size="11" lengthAdjust="spacingAndGlyphs" textLength="84" x="418.5" y="130.7104">CustomerId: Id</text><line style="stroke: #A80036; stroke-width: 1.5;" x1="413.5" x2="507.5" y1="137.3047" y2="137.3047"/><!--class Company--><rect fill="#FEFECE" filter="url(#fb5qfwk06rkz5)" height="73.6094" id="Company" style="stroke: #A80036; stroke-width: 1.5;" width="190" x="379.5" y="318"/><ellipse cx="439.75" cy="334" fill="#ADD1B2" rx="11" ry="11" style="stroke: #A80036; stroke-width: 1.0;"/><path d="M442.0938,329.6719 L442.2656,329.75 C442.4844,329.4375 442.6875,329.3438 442.9844,329.3438 C443.2813,329.3438 443.5625,329.4844 443.7188,329.75 C443.8125,329.9063 443.8281,330.0313 443.8281,330.4688 L443.8281,331.8906 C443.8281,332.3125 443.7969,332.5 443.6875,332.6563 C443.5156,332.875 443.25,333.0156 442.9844,333.0156 C442.7656,333.0156 442.5313,332.9063 442.3906,332.7656 C442.25,332.6406 442.2188,332.5156 442.1563,332.1094 C442.0625,331.7031 441.8906,331.4844 441.4063,331.2031 C440.9375,330.9531 440.3281,330.7969 439.75,330.7969 C438.0156,330.7969 436.7656,332.1094 436.7656,333.8906 L436.7656,334.9844 C436.7656,336.6875 438.0625,337.7813 440.1094,337.7813 C440.875,337.7813 441.5625,337.6563 441.9844,337.3906 C442.1719,337.2969 442.1719,337.2969 442.625,336.8125 C442.8125,336.625 443.0156,336.5469 443.2344,336.5469 C443.7031,336.5469 444.0938,336.9375 444.0938,337.3906 C444.0938,337.7813 443.7656,338.2344 443.1875,338.6406 C442.4375,339.1875 441.2813,339.4844 440.0625,339.4844 C437.1719,339.4844 435.0625,337.5938 435.0625,335.0156 L435.0625,333.8906 C435.0625,331.1719 437.0625,329.0938 439.6875,329.0938 C440.5625,329.0938 441.1563,329.2344 442.0938,329.6719 Z "/><text fill="#000000" font-family="sans-serif" font-size="12" lengthAdjust="spacingAndGlyphs" textLength="57" x="460.25" y="338.1543">Company</text><line style="stroke: #A80036; stroke-width: 1.5;" x1="380.5" x2="568.5" y1="350" y2="350"/><text fill="#000000" font-family="sans-serif" font-size="11" lengthAdjust="spacingAndGlyphs" textLength="148" x="385.5" y="364.2104">OrganisationName: String</text><text fill="#000000" font-family="sans-serif" font-size="11" lengthAdjust="spacingAndGlyphs" textLength="84" x="385.5" y="377.0151">CustomerId: Id</text><text fill="#000000" font-family="sans-serif" font-size="11" font-style="italic" lengthAdjust="spacingAndGlyphs" textLength="86" x="477.5" y="377.0151">from Customer</text><line style="stroke: #A80036; stroke-width: 1.5;" x1="380.5" x2="568.5" y1="383.6094" y2="383.6094"/><!--link Address to Person--><path d="M249.5,222.123 C249.5,246.681 249.5,271.98 249.5,293.769 " fill="none" id="Address-Person" style="stroke: #A80036; stroke-width: 1.0;"/><polygon fill="#A80036" points="249.5,298.939,253.5,289.939,249.5,293.939,245.5,289.939,249.5,298.939" style="stroke: #A80036; stroke-width: 1.0;"/><text fill="#000000" font-family="sans-serif" font-size="13" lengthAdjust="spacingAndGlyphs" textLength="52" x="250.5" y="265.0669">Address</text><!--link Customer to Person--><path d="M439.792,145.621 C424.21,167.351 401.941,197.259 380.5,222 C362.298,243.004 341.525,264.808 321.967,284.499 " fill="none" id="Customer-Person" style="stroke: #A80036; stroke-width: 1.0;"/><polygon fill="none" points="326.764,289.601,307.655,298.758,316.883,279.683,326.764,289.601" style="stroke: #A80036; stroke-width: 1.0;"/><!--link Customer to Company--><path d="M462.245,145.662 C464.475,183.568 468.381,249.975 471.184,297.634 " fill="none" id="Customer-Company" style="stroke: #A80036; stroke-width: 1.0;"/><polygon fill="none" points="478.18,297.349,472.366,317.7255,464.204,298.171,478.18,297.349" style="stroke: #A80036; stroke-width: 1.0;"/><!--
@startuml
enum undefined {
	Male
	Female
	Other
}
class "Address" as Address  {
	Street: String 
	PostalCode: String 
	HouseNumber: Number 
	HouseNumberExtension: String 
	City: String 
	CountryCode: String 
	Country: Maybe String
- -
  <b>description</b>: The address of a
 person. This is the functional
 location of where a person lives. This
 type is of course designed for the
 Dutch address system.
    
}
class "Person " as Person  {
	FirstName: Maybe String
	LastName: String 
	Address: Address 
	Gender: Gender 
	CustomerId: Id  <i>from Customer</i>
}
Address - -> Person : Address
Customer - -|> Person
class "Company " as Company  {
	OrganisationName: String 
	CustomerId: Id  <i>from Customer</i>
}
Customer - -|> Company
class "Customer" as Customer  {
	CustomerId: Id 
}
@enduml

PlantUML version 1.2019.05beta2(Unknown compile time)
(GPL source distribution)
Java Runtime: Java(TM) SE Runtime Environment
JVM: Java HotSpot(TM) 64-Bit Server VM
Java Version: 1.7.0_25-b15
Operating System: Linux
Default Encoding: UTF-8
Language: en
Country: US
--></g></svg>