<?xml version="1.0" encoding="UTF-8" standalone="no"?><svg xmlns="http://www.w3.org/2000/svg" xmlns:xlink="http://www.w3.org/1999/xlink" contentScriptType="application/ecmascript" contentStyleType="text/css" height="422px" preserveAspectRatio="none" style="width:557px;height:422px;" version="1.1" viewBox="0 0 557 422" width="557px" zoomAndPan="magnify"><defs><filter height="300%" id="f39dglcv4gwhy" width="300%" x="-1" y="-1"><feGaussianBlur result="blurOut" stdDeviation="2.0"/><feColorMatrix in="blurOut" result="blurOut2" type="matrix" values="0 0 0 0 0 0 0 0 0 0 0 0 0 0 0 0 0 0 .4 0"/><feOffset dx="4.0" dy="4.0" in="blurOut2" result="blurOut3"/><feBlend in="SourceGraphic" in2="blurOut3" mode="normal"/></filter></defs><g><!--class Gender--><rect fill="#FEFECE" filter="url(#f39dglcv4gwhy)" height="86.4141" id="Gender" style="stroke: #A80036; stroke-width: 1.5;" width="78" x="6" y="72"/><ellipse cx="21" cy="88" fill="#EB937F" rx="11" ry="11" style="stroke: #A80036; stroke-width: 1.0;"/><path d="M19.2969,88.875 L19.2969,91.2969 L23.6563,91.2969 L23.6563,90.4219 C23.6563,89.9375 23.6875,89.7969 23.7969,89.6406 C23.9688,89.3906 24.2344,89.2813 24.5,89.2813 C24.7813,89.2813 25.0625,89.4375 25.2344,89.6875 C25.3125,89.8438 25.3438,89.9844 25.3438,90.4219 L25.3438,93 L17.3438,93 C16.9531,93 16.7188,92.9531 16.5781,92.8281 C16.3594,92.6719 16.2188,92.4219 16.2188,92.1563 C16.2188,91.8594 16.375,91.5938 16.625,91.4219 C16.7813,91.3125 16.9375,91.2969 17.3438,91.2969 L17.5938,91.2969 L17.5938,84.7813 L17.3438,84.7813 C16.9219,84.7813 16.7344,84.75 16.5781,84.6406 C16.3594,84.4688 16.2188,84.2188 16.2188,83.9375 C16.2188,83.6563 16.375,83.3594 16.625,83.2031 C16.7813,83.1094 16.9063,83.0938 17.3438,83.0938 L24.9688,83.0938 L24.9688,85.6406 C24.9688,86.1094 24.9375,86.25 24.8281,86.4219 C24.6563,86.6406 24.3906,86.7813 24.125,86.7813 C23.8438,86.7813 23.5625,86.625 23.3906,86.375 C23.3125,86.2188 23.2813,86.0469 23.2813,85.6406 L23.2813,84.7813 L19.2969,84.7813 L19.2969,87.1875 L20.75,87.1875 L20.75,87.0625 C20.75,86.6094 20.7813,86.4531 20.8906,86.2813 C21.0625,86.0625 21.3281,85.9219 21.5781,85.9219 C22.0313,85.9219 22.3438,86.2344 22.4063,86.7031 C22.4219,86.8594 22.4219,86.9063 22.4219,87.0625 L22.4219,88.9844 C22.4219,89.4375 22.3906,89.5938 22.2656,89.75 C22.1094,89.9688 21.8438,90.1094 21.5938,90.1094 C21.2969,90.1094 21.0156,89.9531 20.8594,89.7031 C20.7813,89.5469 20.75,89.3906 20.75,88.9844 L20.75,88.875 Z "/><text fill="#000000" font-family="sans-serif" font-size="12" lengthAdjust="spacingAndGlyphs" textLength="46" x="35" y="92.1543">Gender</text><line style="stroke: #A80036; stroke-width: 1.5;" x1="7" x2="83" y1="104" y2="104"/><text fill="#000000" font-family="sans-serif" font-size="11" lengthAdjust="spacingAndGlyphs" textLength="26" x="12" y="118.2104">Male</text><text fill="#000000" font-family="sans-serif" font-size="11" lengthAdjust="spacingAndGlyphs" textLength="41" x="12" y="131.0151">Female</text><text fill="#000000" font-family="sans-serif" font-size="11" lengthAdjust="spacingAndGlyphs" textLength="32" x="12" y="143.8198">Other</text><line style="stroke: #A80036; stroke-width: 1.5;" x1="7" x2="83" y1="150.4141" y2="150.4141"/><!--class Address--><rect fill="#FEFECE" filter="url(#f39dglcv4gwhy)" height="214.4609" id="Address" style="stroke: #A80036; stroke-width: 1.5;" width="227" x="119.5" y="8"/><ellipse cx="203.25" cy="24" fill="#ADD1B2" rx="11" ry="11" style="stroke: #A80036; stroke-width: 1.0;"/><path d="M205.5938,19.6719 L205.7656,19.75 C205.9844,19.4375 206.1875,19.3438 206.4844,19.3438 C206.7813,19.3438 207.0625,19.4844 207.2188,19.75 C207.3125,19.9063 207.3281,20.0313 207.3281,20.4688 L207.3281,21.8906 C207.3281,22.3125 207.2969,22.5 207.1875,22.6563 C207.0156,22.875 206.75,23.0156 206.4844,23.0156 C206.2656,23.0156 206.0313,22.9063 205.8906,22.7656 C205.75,22.6406 205.7188,22.5156 205.6563,22.1094 C205.5625,21.7031 205.3906,21.4844 204.9063,21.2031 C204.4375,20.9531 203.8281,20.7969 203.25,20.7969 C201.5156,20.7969 200.2656,22.1094 200.2656,23.8906 L200.2656,24.9844 C200.2656,26.6875 201.5625,27.7813 203.6094,27.7813 C204.375,27.7813 205.0625,27.6563 205.4844,27.3906 C205.6719,27.2969 205.6719,27.2969 206.125,26.8125 C206.3125,26.625 206.5156,26.5469 206.7344,26.5469 C207.2031,26.5469 207.5938,26.9375 207.5938,27.3906 C207.5938,27.7813 207.2656,28.2344 206.6875,28.6406 C205.9375,29.1875 204.7813,29.4844 203.5625,29.4844 C200.6719,29.4844 198.5625,27.5938 198.5625,25.0156 L198.5625,23.8906 C198.5625,21.1719 200.5625,19.0938 203.1875,19.0938 C204.0625,19.0938 204.6563,19.2344 205.5938,19.6719 Z "/><text fill="#000000" font-family="sans-serif" font-size="12" lengthAdjust="spacingAndGlyphs" textLength="51" x="223.75" y="28.1543">Address</text><line style="stroke: #A80036; stroke-width: 1.5;" x1="120.5" x2="345.5" y1="40" y2="40"/><text fill="#000000" font-family="sans-serif" font-size="11" lengthAdjust="spacingAndGlyphs" textLength="77" x="125.5" y="54.2104">Street: String</text><text fill="#000000" font-family="sans-serif" font-size="11" lengthAdjust="spacingAndGlyphs" textLength="106" x="125.5" y="67.0151">PostalCode: String</text><text fill="#000000" font-family="sans-serif" font-size="11" lengthAdjust="spacingAndGlyphs" textLength="134" x="125.5" y="79.8198">HouseNumber: Number</text><text fill="#000000" font-family="sans-serif" font-size="11" lengthAdjust="spacingAndGlyphs" textLength="178" x="125.5" y="92.6245">HouseNumberExtension: String</text><text fill="#000000" font-family="sans-serif" font-size="11" lengthAdjust="spacingAndGlyphs" textLength="63" x="125.5" y="105.4292">City: String</text><text fill="#000000" font-family="sans-serif" font-size="11" lengthAdjust="spacingAndGlyphs" textLength="115" x="125.5" y="118.2339">CountryCode: String</text><text fill="#000000" font-family="sans-serif" font-size="11" lengthAdjust="spacingAndGlyphs" textLength="126" x="125.5" y="131.0386">Country: Maybe String</text><line style="stroke: #A80036; stroke-width: 1.0;" x1="120.5" x2="345.5" y1="137.6328" y2="137.6328"/><text fill="#000000" font-family="sans-serif" font-size="11" font-weight="bold" lengthAdjust="spacingAndGlyphs" textLength="72" x="125.5" y="151.8433">description</text><text fill="#000000" font-family="sans-serif" font-size="11" lengthAdjust="spacingAndGlyphs" textLength="106" x="197.5" y="151.8433">: The address of a</text><text fill="#000000" font-family="sans-serif" font-size="11" lengthAdjust="spacingAndGlyphs" textLength="167" x="125.5" y="164.6479">person. This is the functional</text><text fill="#000000" font-family="sans-serif" font-size="11" lengthAdjust="spacingAndGlyphs" textLength="215" x="125.5" y="177.4526">location of where a person lives. This</text><text fill="#000000" font-family="sans-serif" font-size="11" lengthAdjust="spacingAndGlyphs" textLength="194" x="125.5" y="190.2573">type is of course designed for the</text><text fill="#000000" font-family="sans-serif" font-size="11" lengthAdjust="spacingAndGlyphs" textLength="133" x="125.5" y="203.062">Dutch address system.</text><text fill="#000000" font-family="sans-serif" font-size="11" lengthAdjust="spacingAndGlyphs" textLength="0" x="129.5" y="215.8667"/><!--class Person--><rect fill="#FEFECE" filter="url(#f39dglcv4gwhy)" height="112.0234" id="Person" style="stroke: #A80036; stroke-width: 1.5;" width="190" x="131" y="299"/><ellipse cx="197.75" cy="315" fill="#ADD1B2" rx="11" ry="11" style="stroke: #A80036; stroke-width: 1.0;"/><path d="M200.0938,310.6719 L200.2656,310.75 C200.4844,310.4375 200.6875,310.3438 200.9844,310.3438 C201.2813,310.3438 201.5625,310.4844 201.7188,310.75 C201.8125,310.9063 201.8281,311.0313 201.8281,311.4688 L201.8281,312.8906 C201.8281,313.3125 201.7969,313.5 201.6875,313.6563 C201.5156,313.875 201.25,314.0156 200.9844,314.0156 C200.7656,314.0156 200.5313,313.9063 200.3906,313.7656 C200.25,313.6406 200.2188,313.5156 200.1563,313.1094 C200.0625,312.7031 199.8906,312.4844 199.4063,312.2031 C198.9375,311.9531 198.3281,311.7969 197.75,311.7969 C196.0156,311.7969 194.7656,313.1094 194.7656,314.8906 L194.7656,315.9844 C194.7656,317.6875 196.0625,318.7813 198.1094,318.7813 C198.875,318.7813 199.5625,318.6563 199.9844,318.3906 C200.1719,318.2969 200.1719,318.2969 200.625,317.8125 C200.8125,317.625 201.0156,317.5469 201.2344,317.5469 C201.7031,317.5469 202.0938,317.9375 202.0938,318.3906 C202.0938,318.7813 201.7656,319.2344 201.1875,319.6406 C200.4375,320.1875 199.2813,320.4844 198.0625,320.4844 C195.1719,320.4844 193.0625,318.5938 193.0625,316.0156 L193.0625,314.8906 C193.0625,312.1719 195.0625,310.0938 197.6875,310.0938 C198.5625,310.0938 199.1563,310.2344 200.0938,310.6719 Z "/><text fill="#000000" font-family="sans-serif" font-size="12" lengthAdjust="spacingAndGlyphs" textLength="44" x="218.25" y="319.1543">Person</text><line style="stroke: #A80036; stroke-width: 1.5;" x1="132" x2="320" y1="331" y2="331"/><text fill="#000000" font-family="sans-serif" font-size="11" lengthAdjust="spacingAndGlyphs" textLength="140" x="137" y="345.2104">FirstName: Maybe String</text><text fill="#000000" font-family="sans-serif" font-size="11" lengthAdjust="spacingAndGlyphs" textLength="99" x="137" y="358.0151">LastName: String</text><text fill="#000000" font-family="sans-serif" font-size="11" lengthAdjust="spacingAndGlyphs" textLength="102" x="137" y="370.8198">Address: Address</text><text fill="#000000" font-family="sans-serif" font-size="11" lengthAdjust="spacingAndGlyphs" textLength="92" x="137" y="383.6245">Gender: Gender</text><text fill="#000000" font-family="sans-serif" font-size="11" lengthAdjust="spacingAndGlyphs" textLength="84" x="137" y="396.4292">CustomerId: Id</text><text fill="#000000" font-family="sans-serif" font-size="11" font-style="italic" lengthAdjust="spacingAndGlyphs" textLength="86" x="229" y="396.4292">from Customer</text><line style="stroke: #A80036; stroke-width: 1.5;" x1="132" x2="320" y1="403.0234" y2="403.0234"/><!--class Customer--><rect fill="#FEFECE" filter="url(#f39dglcv4gwhy)" height="60.8047" id="Customer" style="stroke: #A80036; stroke-width: 1.5;" width="96" x="396" y="84.5"/><ellipse cx="412.8" cy="100.5" fill="#ADD1B2" rx="11" ry="11" style="stroke: #A80036; stroke-width: 1.0;"/><path d="M415.1438,96.1719 L415.3156,96.25 C415.5344,95.9375 415.7375,95.8438 416.0344,95.8438 C416.3313,95.8438 416.6125,95.9844 416.7688,96.25 C416.8625,96.4063 416.8781,96.5313 416.8781,96.9688 L416.8781,98.3906 C416.8781,98.8125 416.8469,99 416.7375,99.1563 C416.5656,99.375 416.3,99.5156 416.0344,99.5156 C415.8156,99.5156 415.5813,99.4063 415.4406,99.2656 C415.3,99.1406 415.2688,99.0156 415.2063,98.6094 C415.1125,98.2031 414.9406,97.9844 414.4563,97.7031 C413.9875,97.4531 413.3781,97.2969 412.8,97.2969 C411.0656,97.2969 409.8156,98.6094 409.8156,100.3906 L409.8156,101.4844 C409.8156,103.1875 411.1125,104.2813 413.1594,104.2813 C413.925,104.2813 414.6125,104.1563 415.0344,103.8906 C415.2219,103.7969 415.2219,103.7969 415.675,103.3125 C415.8625,103.125 416.0656,103.0469 416.2844,103.0469 C416.7531,103.0469 417.1438,103.4375 417.1438,103.8906 C417.1438,104.2813 416.8156,104.7344 416.2375,105.1406 C415.4875,105.6875 414.3313,105.9844 413.1125,105.9844 C410.2219,105.9844 408.1125,104.0938 408.1125,101.5156 L408.1125,100.3906 C408.1125,97.6719 410.1125,95.5938 412.7375,95.5938 C413.6125,95.5938 414.2063,95.7344 415.1438,96.1719 Z "/><text fill="#000000" font-family="sans-serif" font-size="12" lengthAdjust="spacingAndGlyphs" textLength="60" x="427.2" y="104.6543">Customer</text><line style="stroke: #A80036; stroke-width: 1.5;" x1="397" x2="491" y1="116.5" y2="116.5"/><text fill="#000000" font-family="sans-serif" font-size="11" lengthAdjust="spacingAndGlyphs" textLength="84" x="402" y="130.7104">CustomerId: Id</text><line style="stroke: #A80036; stroke-width: 1.5;" x1="397" x2="491" y1="137.3047" y2="137.3047"/><!--class Company--><rect fill="#FEFECE" filter="url(#f39dglcv4gwhy)" height="73.6094" id="Company" style="stroke: #A80036; stroke-width: 1.5;" width="190" x="356" y="318"/><ellipse cx="416.25" cy="334" fill="#ADD1B2" rx="11" ry="11" style="stroke: #A80036; stroke-width: 1.0;"/><path d="M418.5938,329.6719 L418.7656,329.75 C418.9844,329.4375 419.1875,329.3438 419.4844,329.3438 C419.7813,329.3438 420.0625,329.4844 420.2188,329.75 C420.3125,329.9063 420.3281,330.0313 420.3281,330.4688 L420.3281,331.8906 C420.3281,332.3125 420.2969,332.5 420.1875,332.6563 C420.0156,332.875 419.75,333.0156 419.4844,333.0156 C419.2656,333.0156 419.0313,332.9063 418.8906,332.7656 C418.75,332.6406 418.7188,332.5156 418.6563,332.1094 C418.5625,331.7031 418.3906,331.4844 417.9063,331.2031 C417.4375,330.9531 416.8281,330.7969 416.25,330.7969 C414.5156,330.7969 413.2656,332.1094 413.2656,333.8906 L413.2656,334.9844 C413.2656,336.6875 414.5625,337.7813 416.6094,337.7813 C417.375,337.7813 418.0625,337.6563 418.4844,337.3906 C418.6719,337.2969 418.6719,337.2969 419.125,336.8125 C419.3125,336.625 419.5156,336.5469 419.7344,336.5469 C420.2031,336.5469 420.5938,336.9375 420.5938,337.3906 C420.5938,337.7813 420.2656,338.2344 419.6875,338.6406 C418.9375,339.1875 417.7813,339.4844 416.5625,339.4844 C413.6719,339.4844 411.5625,337.5938 411.5625,335.0156 L411.5625,333.8906 C411.5625,331.1719 413.5625,329.0938 416.1875,329.0938 C417.0625,329.0938 417.6563,329.2344 418.5938,329.6719 Z "/><text fill="#000000" font-family="sans-serif" font-size="12" lengthAdjust="spacingAndGlyphs" textLength="57" x="436.75" y="338.1543">Company</text><line style="stroke: #A80036; stroke-width: 1.5;" x1="357" x2="545" y1="350" y2="350"/><text fill="#000000" font-family="sans-serif" font-size="11" lengthAdjust="spacingAndGlyphs" textLength="148" x="362" y="364.2104">OrganisationName: String</text><text fill="#000000" font-family="sans-serif" font-size="11" lengthAdjust="spacingAndGlyphs" textLength="84" x="362" y="377.0151">CustomerId: Id</text><text fill="#000000" font-family="sans-serif" font-size="11" font-style="italic" lengthAdjust="spacingAndGlyphs" textLength="86" x="454" y="377.0151">from Customer</text><line style="stroke: #A80036; stroke-width: 1.5;" x1="357" x2="545" y1="383.6094" y2="383.6094"/><!--link Address to Person--><path d="M229.879,222.123 C229.156,246.681 228.412,271.98 227.772,293.769 " fill="none" id="Address-Person" style="stroke: #A80036; stroke-width: 1.0;"/><polygon fill="#A80036" points="227.619,298.939,231.8821,290.0606,227.7661,293.9412,223.8856,289.8252,227.619,298.939" style="stroke: #A80036; stroke-width: 1.0;"/><text fill="#000000" font-family="sans-serif" font-size="13" lengthAdjust="spacingAndGlyphs" textLength="52" x="230" y="265.0669">Address</text><!--link Gender to Person--><path d="M64.4068,158.008 C74.4753,178.107 87.6596,202.072 102,222 C120.316,247.452 143.18,273.107 164.269,294.943 " fill="none" id="Gender-Person" style="stroke: #A80036; stroke-width: 1.0;"/><polygon fill="#A80036" points="167.91,298.694,164.5104,289.4505,164.427,295.1067,158.7708,295.0233,167.91,298.694" style="stroke: #A80036; stroke-width: 1.0;"/><text fill="#000000" font-family="sans-serif" font-size="13" lengthAdjust="spacingAndGlyphs" textLength="47" x="141" y="265.0669">Gender</text><!--link Customer to Person--><path d="M423.482,145.788 C407.995,167.601 385.761,197.54 364,222 C345.026,243.327 323.205,265.241 302.598,284.933 " fill="none" id="Customer-Person" style="stroke: #A80036; stroke-width: 1.0;"/><polygon fill="none" points="307.214,290.201,287.865,298.839,297.604,280.02,307.214,290.201" style="stroke: #A80036; stroke-width: 1.0;"/><!--link Customer to Company--><path d="M444.872,145.662 C445.987,183.568 447.94,249.975 449.342,297.634 " fill="none" id="Customer-Company" style="stroke: #A80036; stroke-width: 1.0;"/><polygon fill="none" points="456.342,297.528,449.933,317.7255,442.348,297.94,456.342,297.528" style="stroke: #A80036; stroke-width: 1.0;"/><!--
@startuml
enum Gender {
	Male
	Female
	Other
}
class "Address" as Address  {
	Street: String 
	PostalCode: String 
	HouseNumber: Number 
	HouseNumberExtension: String 
	City: String 
	CountryCode: String 
	Country: Maybe String
- -
  <b>description</b>: The address of a
 person. This is the functional
 location of where a person lives. This
 type is of course designed for the
 Dutch address system.
    
}
class "Person " as Person  {
	FirstName: Maybe String
	LastName: String 
	Address: Address 
	Gender: Gender 
	CustomerId: Id  <i>from Customer</i>
}
Address - -> Person : Address
Gender - -> Person : Gender
Customer - -|> Person
class "Company " as Company  {
	OrganisationName: String 
	CustomerId: Id  <i>from Customer</i>
}
Customer - -|> Company
class "Customer" as Customer  {
	CustomerId: Id 
}
@enduml

PlantUML version 1.2019.05beta2(Unknown compile time)
(GPL source distribution)
Java Runtime: Java(TM) SE Runtime Environment
JVM: Java HotSpot(TM) 64-Bit Server VM
Java Version: 1.7.0_25-b15
Operating System: Linux
Default Encoding: UTF-8
Language: en
Country: US
--></g></svg>