<?xml version="1.0" encoding="UTF-8" standalone="no"?><svg xmlns="http://www.w3.org/2000/svg" xmlns:xlink="http://www.w3.org/1999/xlink" contentScriptType="application/ecmascript" contentStyleType="text/css" height="422px" preserveAspectRatio="none" style="width:560px;height:422px;" version="1.1" viewBox="0 0 560 422" width="560px" zoomAndPan="magnify"><defs><filter height="300%" id="fxqcy63vr1qjh" width="300%" x="-1" y="-1"><feGaussianBlur result="blurOut" stdDeviation="2.0"/><feColorMatrix in="blurOut" result="blurOut2" type="matrix" values="0 0 0 0 0 0 0 0 0 0 0 0 0 0 0 0 0 0 .4 0"/><feOffset dx="4.0" dy="4.0" in="blurOut2" result="blurOut3"/><feBlend in="SourceGraphic" in2="blurOut3" mode="normal"/></filter></defs><g><!--class Gender--><rect fill="#FEFECE" filter="url(#fxqcy63vr1qjh)" height="86.4141" id="Gender" style="stroke: #A80036; stroke-width: 1.5;" width="78" x="6" y="72"/><ellipse cx="21" cy="88" fill="#EB937F" rx="11" ry="11" style="stroke: #A80036; stroke-width: 1.0;"/><path d="M19.2969,88.875 L19.2969,91.2969 L23.6563,91.2969 L23.6563,90.4219 C23.6563,89.9375 23.6875,89.7969 23.7969,89.6406 C23.9688,89.3906 24.2344,89.2813 24.5,89.2813 C24.7813,89.2813 25.0625,89.4375 25.2344,89.6875 C25.3125,89.8438 25.3438,89.9844 25.3438,90.4219 L25.3438,93 L17.3438,93 C16.9531,93 16.7188,92.9531 16.5781,92.8281 C16.3594,92.6719 16.2188,92.4219 16.2188,92.1563 C16.2188,91.8594 16.375,91.5938 16.625,91.4219 C16.7813,91.3125 16.9375,91.2969 17.3438,91.2969 L17.5938,91.2969 L17.5938,84.7813 L17.3438,84.7813 C16.9219,84.7813 16.7344,84.75 16.5781,84.6406 C16.3594,84.4688 16.2188,84.2188 16.2188,83.9375 C16.2188,83.6563 16.375,83.3594 16.625,83.2031 C16.7813,83.1094 16.9063,83.0938 17.3438,83.0938 L24.9688,83.0938 L24.9688,85.6406 C24.9688,86.1094 24.9375,86.25 24.8281,86.4219 C24.6563,86.6406 24.3906,86.7813 24.125,86.7813 C23.8438,86.7813 23.5625,86.625 23.3906,86.375 C23.3125,86.2188 23.2813,86.0469 23.2813,85.6406 L23.2813,84.7813 L19.2969,84.7813 L19.2969,87.1875 L20.75,87.1875 L20.75,87.0625 C20.75,86.6094 20.7813,86.4531 20.8906,86.2813 C21.0625,86.0625 21.3281,85.9219 21.5781,85.9219 C22.0313,85.9219 22.3438,86.2344 22.4063,86.7031 C22.4219,86.8594 22.4219,86.9063 22.4219,87.0625 L22.4219,88.9844 C22.4219,89.4375 22.3906,89.5938 22.2656,89.75 C22.1094,89.9688 21.8438,90.1094 21.5938,90.1094 C21.2969,90.1094 21.0156,89.9531 20.8594,89.7031 C20.7813,89.5469 20.75,89.3906 20.75,88.9844 L20.75,88.875 Z "/><text fill="#000000" font-family="sans-serif" font-size="12" lengthAdjust="spacingAndGlyphs" textLength="46" x="35" y="92.1543">Gender</text><line style="stroke: #A80036; stroke-width: 1.5;" x1="7" x2="83" y1="104" y2="104"/><text fill="#000000" font-family="sans-serif" font-size="11" lengthAdjust="spacingAndGlyphs" textLength="26" x="12" y="118.2104">Male</text><text fill="#000000" font-family="sans-serif" font-size="11" lengthAdjust="spacingAndGlyphs" textLength="41" x="12" y="131.0151">Female</text><text fill="#000000" font-family="sans-serif" font-size="11" lengthAdjust="spacingAndGlyphs" textLength="32" x="12" y="143.8198">Other</text><line style="stroke: #A80036; stroke-width: 1.5;" x1="7" x2="83" y1="150.4141" y2="150.4141"/><!--class Address--><rect fill="#FEFECE" filter="url(#fxqcy63vr1qjh)" height="214.4609" id="Address" style="stroke: #A80036; stroke-width: 1.5;" width="227" x="119.5" y="8"/><ellipse cx="203.25" cy="24" fill="#ADD1B2" rx="11" ry="11" style="stroke: #A80036; stroke-width: 1.0;"/><path d="M205.5938,19.6719 L205.7656,19.75 C205.9844,19.4375 206.1875,19.3438 206.4844,19.3438 C206.7813,19.3438 207.0625,19.4844 207.2188,19.75 C207.3125,19.9063 207.3281,20.0313 207.3281,20.4688 L207.3281,21.8906 C207.3281,22.3125 207.2969,22.5 207.1875,22.6563 C207.0156,22.875 206.75,23.0156 206.4844,23.0156 C206.2656,23.0156 206.0313,22.9063 205.8906,22.7656 C205.75,22.6406 205.7188,22.5156 205.6563,22.1094 C205.5625,21.7031 205.3906,21.4844 204.9063,21.2031 C204.4375,20.9531 203.8281,20.7969 203.25,20.7969 C201.5156,20.7969 200.2656,22.1094 200.2656,23.8906 L200.2656,24.9844 C200.2656,26.6875 201.5625,27.7813 203.6094,27.7813 C204.375,27.7813 205.0625,27.6563 205.4844,27.3906 C205.6719,27.2969 205.6719,27.2969 206.125,26.8125 C206.3125,26.625 206.5156,26.5469 206.7344,26.5469 C207.2031,26.5469 207.5938,26.9375 207.5938,27.3906 C207.5938,27.7813 207.2656,28.2344 206.6875,28.6406 C205.9375,29.1875 204.7813,29.4844 203.5625,29.4844 C200.6719,29.4844 198.5625,27.5938 198.5625,25.0156 L198.5625,23.8906 C198.5625,21.1719 200.5625,19.0938 203.1875,19.0938 C204.0625,19.0938 204.6563,19.2344 205.5938,19.6719 Z "/><text fill="#000000" font-family="sans-serif" font-size="12" lengthAdjust="spacingAndGlyphs" textLength="51" x="223.75" y="28.1543">Address</text><line style="stroke: #A80036; stroke-width: 1.5;" x1="120.5" x2="345.5" y1="40" y2="40"/><text fill="#000000" font-family="sans-serif" font-size="11" lengthAdjust="spacingAndGlyphs" textLength="77" x="125.5" y="54.2104">Street: String</text><text fill="#000000" font-family="sans-serif" font-size="11" lengthAdjust="spacingAndGlyphs" textLength="106" x="125.5" y="67.0151">PostalCode: String</text><text fill="#000000" font-family="sans-serif" font-size="11" lengthAdjust="spacingAndGlyphs" textLength="134" x="125.5" y="79.8198">HouseNumber: Number</text><text fill="#000000" font-family="sans-serif" font-size="11" lengthAdjust="spacingAndGlyphs" textLength="178" x="125.5" y="92.6245">HouseNumberExtension: String</text><text fill="#000000" font-family="sans-serif" font-size="11" lengthAdjust="spacingAndGlyphs" textLength="63" x="125.5" y="105.4292">City: String</text><text fill="#000000" font-family="sans-serif" font-size="11" lengthAdjust="spacingAndGlyphs" textLength="115" x="125.5" y="118.2339">CountryCode: String</text><text fill="#000000" font-family="sans-serif" font-size="11" lengthAdjust="spacingAndGlyphs" textLength="126" x="125.5" y="131.0386">Country: Maybe String</text><line style="stroke: #A80036; stroke-width: 1.0;" x1="120.5" x2="345.5" y1="137.6328" y2="137.6328"/><text fill="#000000" font-family="sans-serif" font-size="11" font-weight="bold" lengthAdjust="spacingAndGlyphs" textLength="72" x="125.5" y="151.8433">description</text><text fill="#000000" font-family="sans-serif" font-size="11" lengthAdjust="spacingAndGlyphs" textLength="106" x="197.5" y="151.8433">: The address of a</text><text fill="#000000" font-family="sans-serif" font-size="11" lengthAdjust="spacingAndGlyphs" textLength="167" x="125.5" y="164.6479">person. This is the functional</text><text fill="#000000" font-family="sans-serif" font-size="11" lengthAdjust="spacingAndGlyphs" textLength="215" x="125.5" y="177.4526">location of where a person lives. This</text><text fill="#000000" font-family="sans-serif" font-size="11" lengthAdjust="spacingAndGlyphs" textLength="194" x="125.5" y="190.2573">type is of course designed for the</text><text fill="#000000" font-family="sans-serif" font-size="11" lengthAdjust="spacingAndGlyphs" textLength="133" x="125.5" y="203.062">Dutch address system.</text><text fill="#000000" font-family="sans-serif" font-size="11" lengthAdjust="spacingAndGlyphs" textLength="0" x="129.5" y="215.8667"/><!--class Person--><rect fill="#FEFECE" filter="url(#fxqcy63vr1qjh)" height="112.0234" id="Person" style="stroke: #A80036; stroke-width: 1.5;" width="190" x="131" y="299"/><ellipse cx="167.15" cy="315" fill="#ADD1B2" rx="11" ry="11" style="stroke: #A80036; stroke-width: 1.0;"/><path d="M169.4938,310.6719 L169.6656,310.75 C169.8844,310.4375 170.0875,310.3438 170.3844,310.3438 C170.6813,310.3438 170.9625,310.4844 171.1188,310.75 C171.2125,310.9063 171.2281,311.0313 171.2281,311.4688 L171.2281,312.8906 C171.2281,313.3125 171.1969,313.5 171.0875,313.6563 C170.9156,313.875 170.65,314.0156 170.3844,314.0156 C170.1656,314.0156 169.9313,313.9063 169.7906,313.7656 C169.65,313.6406 169.6188,313.5156 169.5563,313.1094 C169.4625,312.7031 169.2906,312.4844 168.8063,312.2031 C168.3375,311.9531 167.7281,311.7969 167.15,311.7969 C165.4156,311.7969 164.1656,313.1094 164.1656,314.8906 L164.1656,315.9844 C164.1656,317.6875 165.4625,318.7813 167.5094,318.7813 C168.275,318.7813 168.9625,318.6563 169.3844,318.3906 C169.5719,318.2969 169.5719,318.2969 170.025,317.8125 C170.2125,317.625 170.4156,317.5469 170.6344,317.5469 C171.1031,317.5469 171.4938,317.9375 171.4938,318.3906 C171.4938,318.7813 171.1656,319.2344 170.5875,319.6406 C169.8375,320.1875 168.6813,320.4844 167.4625,320.4844 C164.5719,320.4844 162.4625,318.5938 162.4625,316.0156 L162.4625,314.8906 C162.4625,312.1719 164.4625,310.0938 167.0875,310.0938 C167.9625,310.0938 168.5563,310.2344 169.4938,310.6719 Z "/><text fill="#000000" font-family="sans-serif" font-size="12" lengthAdjust="spacingAndGlyphs" textLength="44" x="185.85" y="319.1543">Person</text><rect fill="#FFFFFF" height="15.9688" style="stroke: #000000; stroke-width: 1.0; stroke-dasharray: 2.0,2.0;" width="61" x="263" y="296"/><text fill="#000000" font-family="sans-serif" font-size="12" font-style="italic" lengthAdjust="spacingAndGlyphs" textLength="59" x="264" y="308.1387">Customer</text><line style="stroke: #A80036; stroke-width: 1.5;" x1="132" x2="320" y1="331" y2="331"/><text fill="#000000" font-family="sans-serif" font-size="11" lengthAdjust="spacingAndGlyphs" textLength="140" x="137" y="345.2104">FirstName: Maybe String</text><text fill="#000000" font-family="sans-serif" font-size="11" lengthAdjust="spacingAndGlyphs" textLength="99" x="137" y="358.0151">LastName: String</text><text fill="#000000" font-family="sans-serif" font-size="11" lengthAdjust="spacingAndGlyphs" textLength="102" x="137" y="370.8198">Address: Address</text><text fill="#000000" font-family="sans-serif" font-size="11" lengthAdjust="spacingAndGlyphs" textLength="92" x="137" y="383.6245">Gender: Gender</text><text fill="#000000" font-family="sans-serif" font-size="11" lengthAdjust="spacingAndGlyphs" textLength="84" x="137" y="396.4292">CustomerId: Id</text><text fill="#000000" font-family="sans-serif" font-size="11" font-style="italic" lengthAdjust="spacingAndGlyphs" textLength="86" x="229" y="396.4292">from Customer</text><line style="stroke: #A80036; stroke-width: 1.5;" x1="132" x2="320" y1="403.0234" y2="403.0234"/><!--class Customer--><rect fill="#FEFECE" filter="url(#fxqcy63vr1qjh)" height="60.8047" id="Customer" style="stroke: #A80036; stroke-width: 1.5;" width="96" x="396" y="84.5"/><ellipse cx="412.8" cy="100.5" fill="#ADD1B2" rx="11" ry="11" style="stroke: #A80036; stroke-width: 1.0;"/><path d="M415.1438,96.1719 L415.3156,96.25 C415.5344,95.9375 415.7375,95.8438 416.0344,95.8438 C416.3313,95.8438 416.6125,95.9844 416.7688,96.25 C416.8625,96.4063 416.8781,96.5313 416.8781,96.9688 L416.8781,98.3906 C416.8781,98.8125 416.8469,99 416.7375,99.1563 C416.5656,99.375 416.3,99.5156 416.0344,99.5156 C415.8156,99.5156 415.5813,99.4063 415.4406,99.2656 C415.3,99.1406 415.2688,99.0156 415.2063,98.6094 C415.1125,98.2031 414.9406,97.9844 414.4563,97.7031 C413.9875,97.4531 413.3781,97.2969 412.8,97.2969 C411.0656,97.2969 409.8156,98.6094 409.8156,100.3906 L409.8156,101.4844 C409.8156,103.1875 411.1125,104.2813 413.1594,104.2813 C413.925,104.2813 414.6125,104.1563 415.0344,103.8906 C415.2219,103.7969 415.2219,103.7969 415.675,103.3125 C415.8625,103.125 416.0656,103.0469 416.2844,103.0469 C416.7531,103.0469 417.1438,103.4375 417.1438,103.8906 C417.1438,104.2813 416.8156,104.7344 416.2375,105.1406 C415.4875,105.6875 414.3313,105.9844 413.1125,105.9844 C410.2219,105.9844 408.1125,104.0938 408.1125,101.5156 L408.1125,100.3906 C408.1125,97.6719 410.1125,95.5938 412.7375,95.5938 C413.6125,95.5938 414.2063,95.7344 415.1438,96.1719 Z "/><text fill="#000000" font-family="sans-serif" font-size="12" lengthAdjust="spacingAndGlyphs" textLength="60" x="427.2" y="104.6543">Customer</text><line style="stroke: #A80036; stroke-width: 1.5;" x1="397" x2="491" y1="116.5" y2="116.5"/><text fill="#000000" font-family="sans-serif" font-size="11" lengthAdjust="spacingAndGlyphs" textLength="84" x="402" y="130.7104">CustomerId: Id</text><line style="stroke: #A80036; stroke-width: 1.5;" x1="397" x2="491" y1="137.3047" y2="137.3047"/><!--class Company--><rect fill="#FEFECE" filter="url(#fxqcy63vr1qjh)" height="73.6094" id="Company" style="stroke: #A80036; stroke-width: 1.5;" width="190" x="356" y="318"/><ellipse cx="386.3" cy="334" fill="#ADD1B2" rx="11" ry="11" style="stroke: #A80036; stroke-width: 1.0;"/><path d="M388.6438,329.6719 L388.8156,329.75 C389.0344,329.4375 389.2375,329.3438 389.5344,329.3438 C389.8313,329.3438 390.1125,329.4844 390.2688,329.75 C390.3625,329.9063 390.3781,330.0313 390.3781,330.4688 L390.3781,331.8906 C390.3781,332.3125 390.3469,332.5 390.2375,332.6563 C390.0656,332.875 389.8,333.0156 389.5344,333.0156 C389.3156,333.0156 389.0813,332.9063 388.9406,332.7656 C388.8,332.6406 388.7688,332.5156 388.7063,332.1094 C388.6125,331.7031 388.4406,331.4844 387.9563,331.2031 C387.4875,330.9531 386.8781,330.7969 386.3,330.7969 C384.5656,330.7969 383.3156,332.1094 383.3156,333.8906 L383.3156,334.9844 C383.3156,336.6875 384.6125,337.7813 386.6594,337.7813 C387.425,337.7813 388.1125,337.6563 388.5344,337.3906 C388.7219,337.2969 388.7219,337.2969 389.175,336.8125 C389.3625,336.625 389.5656,336.5469 389.7844,336.5469 C390.2531,336.5469 390.6438,336.9375 390.6438,337.3906 C390.6438,337.7813 390.3156,338.2344 389.7375,338.6406 C388.9875,339.1875 387.8313,339.4844 386.6125,339.4844 C383.7219,339.4844 381.6125,337.5938 381.6125,335.0156 L381.6125,333.8906 C381.6125,331.1719 383.6125,329.0938 386.2375,329.0938 C387.1125,329.0938 387.7063,329.2344 388.6438,329.6719 Z "/><text fill="#000000" font-family="sans-serif" font-size="12" lengthAdjust="spacingAndGlyphs" textLength="57" x="403.7" y="338.1543">Company</text><rect fill="#FFFFFF" height="15.9688" style="stroke: #000000; stroke-width: 1.0; stroke-dasharray: 2.0,2.0;" width="61" x="488" y="315"/><text fill="#000000" font-family="sans-serif" font-size="12" font-style="italic" lengthAdjust="spacingAndGlyphs" textLength="59" x="489" y="327.1387">Customer</text><line style="stroke: #A80036; stroke-width: 1.5;" x1="357" x2="545" y1="350" y2="350"/><text fill="#000000" font-family="sans-serif" font-size="11" lengthAdjust="spacingAndGlyphs" textLength="148" x="362" y="364.2104">OrganisationName: String</text><text fill="#000000" font-family="sans-serif" font-size="11" lengthAdjust="spacingAndGlyphs" textLength="84" x="362" y="377.0151">CustomerId: Id</text><text fill="#000000" font-family="sans-serif" font-size="11" font-style="italic" lengthAdjust="spacingAndGlyphs" textLength="86" x="454" y="377.0151">from Customer</text><line style="stroke: #A80036; stroke-width: 1.5;" x1="357" x2="545" y1="383.6094" y2="383.6094"/><!--link Address to Person--><path d="M229.723,227.418 C228.992,252.268 228.248,277.561 227.619,298.939 " fill="none" id="Address-Person" style="stroke: #A80036; stroke-width: 1.0;"/><polygon fill="#A80036" points="229.879,222.123,225.6159,231.0014,229.7319,227.1208,233.6124,231.2368,229.879,222.123" style="stroke: #A80036; stroke-width: 1.0;"/><text fill="#000000" font-family="sans-serif" font-size="13" lengthAdjust="spacingAndGlyphs" textLength="52" x="230" y="265.0669">Address</text><!--link Gender to Person--><path d="M66.8227,162.786 C76.5424,181.827 88.78,203.629 102,222 C121.375,248.925 145.841,276.076 167.91,298.694 " fill="none" id="Gender-Person" style="stroke: #A80036; stroke-width: 1.0;"/><polygon fill="#A80036" points="64.4068,158.008,64.8975,167.8446,66.6626,162.4702,72.037,164.2353,64.4068,158.008" style="stroke: #A80036; stroke-width: 1.0;"/><text fill="#000000" font-family="sans-serif" font-size="13" lengthAdjust="spacingAndGlyphs" textLength="47" x="141" y="265.0669">Gender</text><!--link Customer to Person--><path d="M411.574,162.289 C397.599,181.334 380.661,203.273 364,222 C340.421,248.504 312.444,275.913 287.865,298.839 " fill="none" id="Customer-Person" style="stroke: #A80036; stroke-width: 1.0;"/><polygon fill="none" points="406.102,157.909,423.482,145.788,417.455,166.102,406.102,157.909" style="stroke: #A80036; stroke-width: 1.0;"/><!--link Customer to Company--><path d="M445.464,165.79 C446.799,211.176 448.74,277.15 449.933,317.7255 " fill="none" id="Customer-Company" style="stroke: #A80036; stroke-width: 1.0;"/><polygon fill="none" points="438.464,165.859,444.872,145.662,452.457,165.447,438.464,165.859" style="stroke: #A80036; stroke-width: 1.0;"/><!--
@startuml
enum Gender {
	Male
	Female
	Other

}
class "Address" as Address  {
	Street: String 
	PostalCode: String 
	HouseNumber: Number 
	HouseNumberExtension: String 
	City: String 
	CountryCode: String 
	Country: Maybe String
- -
  <b>description</b>: The address of a
 person. This is the functional
 location of where a person lives. This
 type is of course designed for the
 Dutch address system.
    
}
class "Person " as Person <Customer> {
	FirstName: Maybe String
	LastName: String 
	Address: Address 
	Gender: Gender 
	CustomerId: Id  <i>from Customer</i>
}
Address <- - Person : Address
Gender <- - Person : Gender
Customer <|- - Person
class "Company " as Company <Customer> {
	OrganisationName: String 
	CustomerId: Id  <i>from Customer</i>
}
Customer <|- - Company
class "Customer" as Customer  {
	CustomerId: Id 
}
@enduml

PlantUML version 1.2019.05beta2(Unknown compile time)
(GPL source distribution)
Java Runtime: Java(TM) SE Runtime Environment
JVM: Java HotSpot(TM) 64-Bit Server VM
Java Version: 1.7.0_25-b15
Operating System: Linux
Default Encoding: UTF-8
Language: en
Country: US
--></g></svg>