<?xml version="1.0" encoding="UTF-8" standalone="no"?><svg xmlns="http://www.w3.org/2000/svg" xmlns:xlink="http://www.w3.org/1999/xlink" contentScriptType="application/ecmascript" contentStyleType="text/css" height="410px" preserveAspectRatio="none" style="width:789px;height:410px;" version="1.1" viewBox="0 0 789 410" width="789px" zoomAndPan="magnify"><defs><filter height="300%" id="fltn0k43tp52f" width="300%" x="-1" y="-1"><feGaussianBlur result="blurOut" stdDeviation="2.0"/><feColorMatrix in="blurOut" result="blurOut2" type="matrix" values="0 0 0 0 0 0 0 0 0 0 0 0 0 0 0 0 0 0 .4 0"/><feOffset dx="4.0" dy="4.0" in="blurOut2" result="blurOut3"/><feBlend in="SourceGraphic" in2="blurOut3" mode="normal"/></filter></defs><g><!--class CreditCard--><rect fill="#FEFECE" filter="url(#fltn0k43tp52f)" height="73.6094" id="CreditCard" style="stroke: #A80036; stroke-width: 1.5;" width="128" x="13" y="72"/><ellipse cx="41.5" cy="88" fill="#ADD1B2" rx="11" ry="11" style="stroke: #A80036; stroke-width: 1.0;"/><path d="M43.8438,83.6719 L44.0156,83.75 C44.2344,83.4375 44.4375,83.3438 44.7344,83.3438 C45.0313,83.3438 45.3125,83.4844 45.4688,83.75 C45.5625,83.9063 45.5781,84.0313 45.5781,84.4688 L45.5781,85.8906 C45.5781,86.3125 45.5469,86.5 45.4375,86.6563 C45.2656,86.875 45,87.0156 44.7344,87.0156 C44.5156,87.0156 44.2813,86.9063 44.1406,86.7656 C44,86.6406 43.9688,86.5156 43.9063,86.1094 C43.8125,85.7031 43.6406,85.4844 43.1563,85.2031 C42.6875,84.9531 42.0781,84.7969 41.5,84.7969 C39.7656,84.7969 38.5156,86.1094 38.5156,87.8906 L38.5156,88.9844 C38.5156,90.6875 39.8125,91.7813 41.8594,91.7813 C42.625,91.7813 43.3125,91.6563 43.7344,91.3906 C43.9219,91.2969 43.9219,91.2969 44.375,90.8125 C44.5625,90.625 44.7656,90.5469 44.9844,90.5469 C45.4531,90.5469 45.8438,90.9375 45.8438,91.3906 C45.8438,91.7813 45.5156,92.2344 44.9375,92.6406 C44.1875,93.1875 43.0313,93.4844 41.8125,93.4844 C38.9219,93.4844 36.8125,91.5938 36.8125,89.0156 L36.8125,87.8906 C36.8125,85.1719 38.8125,83.0938 41.4375,83.0938 C42.3125,83.0938 42.9063,83.2344 43.8438,83.6719 Z "/><text fill="#000000" font-family="sans-serif" font-size="12" lengthAdjust="spacingAndGlyphs" textLength="66" x="58.5" y="92.1543">CreditCard</text><line style="stroke: #A80036; stroke-width: 1.5;" x1="14" x2="140" y1="104" y2="104"/><text fill="#000000" font-family="sans-serif" font-size="11" lengthAdjust="spacingAndGlyphs" textLength="87" x="19" y="118.2104">Number: String</text><text fill="#000000" font-family="sans-serif" font-size="11" lengthAdjust="spacingAndGlyphs" textLength="116" x="19" y="131.0151">ExpirationDate: Date</text><line style="stroke: #A80036; stroke-width: 1.5;" x1="14" x2="140" y1="137.6094" y2="137.6094"/><!--class Gender--><rect fill="#FEFECE" filter="url(#fltn0k43tp52f)" height="86.4141" id="Gender" style="stroke: #A80036; stroke-width: 1.5;" width="78" x="438" y="66"/><ellipse cx="453" cy="82" fill="#EB937F" rx="11" ry="11" style="stroke: #A80036; stroke-width: 1.0;"/><path d="M451.2969,82.875 L451.2969,85.2969 L455.6563,85.2969 L455.6563,84.4219 C455.6563,83.9375 455.6875,83.7969 455.7969,83.6406 C455.9688,83.3906 456.2344,83.2813 456.5,83.2813 C456.7813,83.2813 457.0625,83.4375 457.2344,83.6875 C457.3125,83.8438 457.3438,83.9844 457.3438,84.4219 L457.3438,87 L449.3438,87 C448.9531,87 448.7188,86.9531 448.5781,86.8281 C448.3594,86.6719 448.2188,86.4219 448.2188,86.1563 C448.2188,85.8594 448.375,85.5938 448.625,85.4219 C448.7813,85.3125 448.9375,85.2969 449.3438,85.2969 L449.5938,85.2969 L449.5938,78.7813 L449.3438,78.7813 C448.9219,78.7813 448.7344,78.75 448.5781,78.6406 C448.3594,78.4688 448.2188,78.2188 448.2188,77.9375 C448.2188,77.6563 448.375,77.3594 448.625,77.2031 C448.7813,77.1094 448.9063,77.0938 449.3438,77.0938 L456.9688,77.0938 L456.9688,79.6406 C456.9688,80.1094 456.9375,80.25 456.8281,80.4219 C456.6563,80.6406 456.3906,80.7813 456.125,80.7813 C455.8438,80.7813 455.5625,80.625 455.3906,80.375 C455.3125,80.2188 455.2813,80.0469 455.2813,79.6406 L455.2813,78.7813 L451.2969,78.7813 L451.2969,81.1875 L452.75,81.1875 L452.75,81.0625 C452.75,80.6094 452.7813,80.4531 452.8906,80.2813 C453.0625,80.0625 453.3281,79.9219 453.5781,79.9219 C454.0313,79.9219 454.3438,80.2344 454.4063,80.7031 C454.4219,80.8594 454.4219,80.9063 454.4219,81.0625 L454.4219,82.9844 C454.4219,83.4375 454.3906,83.5938 454.2656,83.75 C454.1094,83.9688 453.8438,84.1094 453.5938,84.1094 C453.2969,84.1094 453.0156,83.9531 452.8594,83.7031 C452.7813,83.5469 452.75,83.3906 452.75,82.9844 L452.75,82.875 Z "/><text fill="#000000" font-family="sans-serif" font-size="12" lengthAdjust="spacingAndGlyphs" textLength="46" x="467" y="86.1543">Gender</text><line style="stroke: #A80036; stroke-width: 1.5;" x1="439" x2="515" y1="98" y2="98"/><text fill="#000000" font-family="sans-serif" font-size="11" lengthAdjust="spacingAndGlyphs" textLength="26" x="444" y="112.2104">Male</text><text fill="#000000" font-family="sans-serif" font-size="11" lengthAdjust="spacingAndGlyphs" textLength="41" x="444" y="125.0151">Female</text><text fill="#000000" font-family="sans-serif" font-size="11" lengthAdjust="spacingAndGlyphs" textLength="32" x="444" y="137.8198">Other</text><line style="stroke: #A80036; stroke-width: 1.5;" x1="439" x2="515" y1="144.4141" y2="144.4141"/><!--class Address--><rect fill="#FEFECE" filter="url(#fltn0k43tp52f)" height="201.6563" id="Address" style="stroke: #A80036; stroke-width: 1.5;" width="227" x="551.5" y="8"/><ellipse cx="635.25" cy="24" fill="#ADD1B2" rx="11" ry="11" style="stroke: #A80036; stroke-width: 1.0;"/><path d="M637.5938,19.6719 L637.7656,19.75 C637.9844,19.4375 638.1875,19.3438 638.4844,19.3438 C638.7813,19.3438 639.0625,19.4844 639.2188,19.75 C639.3125,19.9063 639.3281,20.0313 639.3281,20.4688 L639.3281,21.8906 C639.3281,22.3125 639.2969,22.5 639.1875,22.6563 C639.0156,22.875 638.75,23.0156 638.4844,23.0156 C638.2656,23.0156 638.0313,22.9063 637.8906,22.7656 C637.75,22.6406 637.7188,22.5156 637.6563,22.1094 C637.5625,21.7031 637.3906,21.4844 636.9063,21.2031 C636.4375,20.9531 635.8281,20.7969 635.25,20.7969 C633.5156,20.7969 632.2656,22.1094 632.2656,23.8906 L632.2656,24.9844 C632.2656,26.6875 633.5625,27.7813 635.6094,27.7813 C636.375,27.7813 637.0625,27.6563 637.4844,27.3906 C637.6719,27.2969 637.6719,27.2969 638.125,26.8125 C638.3125,26.625 638.5156,26.5469 638.7344,26.5469 C639.2031,26.5469 639.5938,26.9375 639.5938,27.3906 C639.5938,27.7813 639.2656,28.2344 638.6875,28.6406 C637.9375,29.1875 636.7813,29.4844 635.5625,29.4844 C632.6719,29.4844 630.5625,27.5938 630.5625,25.0156 L630.5625,23.8906 C630.5625,21.1719 632.5625,19.0938 635.1875,19.0938 C636.0625,19.0938 636.6563,19.2344 637.5938,19.6719 Z "/><text fill="#000000" font-family="sans-serif" font-size="12" lengthAdjust="spacingAndGlyphs" textLength="51" x="655.75" y="28.1543">Address</text><line style="stroke: #A80036; stroke-width: 1.5;" x1="552.5" x2="777.5" y1="40" y2="40"/><text fill="#000000" font-family="sans-serif" font-size="11" lengthAdjust="spacingAndGlyphs" textLength="77" x="557.5" y="54.2104">Street: String</text><text fill="#000000" font-family="sans-serif" font-size="11" lengthAdjust="spacingAndGlyphs" textLength="106" x="557.5" y="67.0151">PostalCode: String</text><text fill="#000000" font-family="sans-serif" font-size="11" lengthAdjust="spacingAndGlyphs" textLength="134" x="557.5" y="79.8198">HouseNumber: Number</text><text fill="#000000" font-family="sans-serif" font-size="11" lengthAdjust="spacingAndGlyphs" textLength="178" x="557.5" y="92.6245">HouseNumberExtension: String</text><text fill="#000000" font-family="sans-serif" font-size="11" lengthAdjust="spacingAndGlyphs" textLength="63" x="557.5" y="105.4292">City: String</text><text fill="#000000" font-family="sans-serif" font-size="11" lengthAdjust="spacingAndGlyphs" textLength="115" x="557.5" y="118.2339">CountryCode: String</text><text fill="#000000" font-family="sans-serif" font-size="11" lengthAdjust="spacingAndGlyphs" textLength="126" x="557.5" y="131.0386">Country: Maybe String</text><line style="stroke: #A80036; stroke-width: 1.0;" x1="552.5" x2="777.5" y1="137.6328" y2="137.6328"/><line style="stroke: #A80036; stroke-width: 1.0;" x1="552.5" x2="777.5" y1="139.6328" y2="139.6328"/><text fill="#000000" font-family="sans-serif" font-size="11" font-weight="bold" lengthAdjust="spacingAndGlyphs" textLength="72" x="557.5" y="151.8433">description</text><text fill="#000000" font-family="sans-serif" font-size="11" lengthAdjust="spacingAndGlyphs" textLength="106" x="629.5" y="151.8433">: The address of a</text><text fill="#000000" font-family="sans-serif" font-size="11" lengthAdjust="spacingAndGlyphs" textLength="167" x="557.5" y="164.6479">person. This is the functional</text><text fill="#000000" font-family="sans-serif" font-size="11" lengthAdjust="spacingAndGlyphs" textLength="215" x="557.5" y="177.4526">location of where a person lives. This</text><text fill="#000000" font-family="sans-serif" font-size="11" lengthAdjust="spacingAndGlyphs" textLength="194" x="557.5" y="190.2573">type is of course designed for the</text><text fill="#000000" font-family="sans-serif" font-size="11" lengthAdjust="spacingAndGlyphs" textLength="133" x="557.5" y="203.062">Dutch address system.</text><!--class Person--><rect fill="#FEFECE" filter="url(#fltn0k43tp52f)" height="112.0234" id="Person" style="stroke: #A80036; stroke-width: 1.5;" width="190" x="408" y="287"/><ellipse cx="444.15" cy="303" fill="#ADD1B2" rx="11" ry="11" style="stroke: #A80036; stroke-width: 1.0;"/><path d="M446.4938,298.6719 L446.6656,298.75 C446.8844,298.4375 447.0875,298.3438 447.3844,298.3438 C447.6813,298.3438 447.9625,298.4844 448.1188,298.75 C448.2125,298.9063 448.2281,299.0313 448.2281,299.4688 L448.2281,300.8906 C448.2281,301.3125 448.1969,301.5 448.0875,301.6563 C447.9156,301.875 447.65,302.0156 447.3844,302.0156 C447.1656,302.0156 446.9313,301.9063 446.7906,301.7656 C446.65,301.6406 446.6188,301.5156 446.5563,301.1094 C446.4625,300.7031 446.2906,300.4844 445.8063,300.2031 C445.3375,299.9531 444.7281,299.7969 444.15,299.7969 C442.4156,299.7969 441.1656,301.1094 441.1656,302.8906 L441.1656,303.9844 C441.1656,305.6875 442.4625,306.7813 444.5094,306.7813 C445.275,306.7813 445.9625,306.6563 446.3844,306.3906 C446.5719,306.2969 446.5719,306.2969 447.025,305.8125 C447.2125,305.625 447.4156,305.5469 447.6344,305.5469 C448.1031,305.5469 448.4938,305.9375 448.4938,306.3906 C448.4938,306.7813 448.1656,307.2344 447.5875,307.6406 C446.8375,308.1875 445.6813,308.4844 444.4625,308.4844 C441.5719,308.4844 439.4625,306.5938 439.4625,304.0156 L439.4625,302.8906 C439.4625,300.1719 441.4625,298.0938 444.0875,298.0938 C444.9625,298.0938 445.5563,298.2344 446.4938,298.6719 Z "/><text fill="#000000" font-family="sans-serif" font-size="12" lengthAdjust="spacingAndGlyphs" textLength="44" x="462.85" y="307.1543">Person</text><rect fill="#FFFFFF" height="15.9688" style="stroke: #000000; stroke-width: 1.0; stroke-dasharray: 2.0,2.0;" width="61" x="540" y="284"/><text fill="#000000" font-family="sans-serif" font-size="12" font-style="italic" lengthAdjust="spacingAndGlyphs" textLength="59" x="541" y="296.1387">Customer</text><line style="stroke: #A80036; stroke-width: 1.5;" x1="409" x2="597" y1="319" y2="319"/><text fill="#000000" font-family="sans-serif" font-size="11" lengthAdjust="spacingAndGlyphs" textLength="140" x="414" y="333.2104">FirstName: Maybe String</text><text fill="#000000" font-family="sans-serif" font-size="11" lengthAdjust="spacingAndGlyphs" textLength="99" x="414" y="346.0151">LastName: String</text><text fill="#000000" font-family="sans-serif" font-size="11" lengthAdjust="spacingAndGlyphs" textLength="102" x="414" y="358.8198">Address: Address</text><text fill="#000000" font-family="sans-serif" font-size="11" lengthAdjust="spacingAndGlyphs" textLength="92" x="414" y="371.6245">Gender: Gender</text><text fill="#000000" font-family="sans-serif" font-size="11" lengthAdjust="spacingAndGlyphs" textLength="84" x="414" y="384.4292">CustomerId: Id</text><text fill="#000000" font-family="sans-serif" font-size="11" font-style="italic" lengthAdjust="spacingAndGlyphs" textLength="86" x="506" y="384.4292">from Customer</text><line style="stroke: #A80036; stroke-width: 1.5;" x1="409" x2="597" y1="391.0234" y2="391.0234"/><!--class Customer--><rect fill="#FEFECE" filter="url(#fltn0k43tp52f)" height="86.4141" id="Customer" style="stroke: #A80036; stroke-width: 1.5;" width="198" x="179" y="66"/><ellipse cx="243.75" cy="82" fill="#ADD1B2" rx="11" ry="11" style="stroke: #A80036; stroke-width: 1.0;"/><path d="M246.0938,77.6719 L246.2656,77.75 C246.4844,77.4375 246.6875,77.3438 246.9844,77.3438 C247.2813,77.3438 247.5625,77.4844 247.7188,77.75 C247.8125,77.9063 247.8281,78.0313 247.8281,78.4688 L247.8281,79.8906 C247.8281,80.3125 247.7969,80.5 247.6875,80.6563 C247.5156,80.875 247.25,81.0156 246.9844,81.0156 C246.7656,81.0156 246.5313,80.9063 246.3906,80.7656 C246.25,80.6406 246.2188,80.5156 246.1563,80.1094 C246.0625,79.7031 245.8906,79.4844 245.4063,79.2031 C244.9375,78.9531 244.3281,78.7969 243.75,78.7969 C242.0156,78.7969 240.7656,80.1094 240.7656,81.8906 L240.7656,82.9844 C240.7656,84.6875 242.0625,85.7813 244.1094,85.7813 C244.875,85.7813 245.5625,85.6563 245.9844,85.3906 C246.1719,85.2969 246.1719,85.2969 246.625,84.8125 C246.8125,84.625 247.0156,84.5469 247.2344,84.5469 C247.7031,84.5469 248.0938,84.9375 248.0938,85.3906 C248.0938,85.7813 247.7656,86.2344 247.1875,86.6406 C246.4375,87.1875 245.2813,87.4844 244.0625,87.4844 C241.1719,87.4844 239.0625,85.5938 239.0625,83.0156 L239.0625,81.8906 C239.0625,79.1719 241.0625,77.0938 243.6875,77.0938 C244.5625,77.0938 245.1563,77.2344 246.0938,77.6719 Z "/><text fill="#000000" font-family="sans-serif" font-size="12" lengthAdjust="spacingAndGlyphs" textLength="60" x="264.25" y="86.1543">Customer</text><line style="stroke: #A80036; stroke-width: 1.5;" x1="180" x2="376" y1="98" y2="98"/><text fill="#000000" font-family="sans-serif" font-size="11" lengthAdjust="spacingAndGlyphs" textLength="84" x="185" y="112.2104">CustomerId: Id</text><line style="stroke: #A80036; stroke-width: 1.0;" x1="180" x2="376" y1="118.8047" y2="118.8047"/><line style="stroke: #A80036; stroke-width: 1.0;" x1="180" x2="376" y1="120.8047" y2="120.8047"/><text fill="#000000" font-family="sans-serif" font-size="11" font-weight="bold" lengthAdjust="spacingAndGlyphs" textLength="72" x="185" y="133.0151">description</text><text fill="#000000" font-family="sans-serif" font-size="11" lengthAdjust="spacingAndGlyphs" textLength="114" x="257" y="133.0151">: Someone or some</text><text fill="#000000" font-family="sans-serif" font-size="11" lengthAdjust="spacingAndGlyphs" textLength="148" x="185" y="145.8198">company who buys things</text><!--class PaymentMethod--><rect fill="#FEFECE" filter="url(#fltn0k43tp52f)" height="73.6094" id="PaymentMethod" style="stroke: #A80036; stroke-width: 1.5;" width="142" x="6" y="306"/><ellipse cx="25.05" cy="322" fill="#ADD1B2" rx="11" ry="11" style="stroke: #A80036; stroke-width: 1.0;"/><path d="M27.3938,317.6719 L27.5656,317.75 C27.7844,317.4375 27.9875,317.3438 28.2844,317.3438 C28.5813,317.3438 28.8625,317.4844 29.0188,317.75 C29.1125,317.9063 29.1281,318.0313 29.1281,318.4688 L29.1281,319.8906 C29.1281,320.3125 29.0969,320.5 28.9875,320.6563 C28.8156,320.875 28.55,321.0156 28.2844,321.0156 C28.0656,321.0156 27.8313,320.9063 27.6906,320.7656 C27.55,320.6406 27.5188,320.5156 27.4563,320.1094 C27.3625,319.7031 27.1906,319.4844 26.7063,319.2031 C26.2375,318.9531 25.6281,318.7969 25.05,318.7969 C23.3156,318.7969 22.0656,320.1094 22.0656,321.8906 L22.0656,322.9844 C22.0656,324.6875 23.3625,325.7813 25.4094,325.7813 C26.175,325.7813 26.8625,325.6563 27.2844,325.3906 C27.4719,325.2969 27.4719,325.2969 27.925,324.8125 C28.1125,324.625 28.3156,324.5469 28.5344,324.5469 C29.0031,324.5469 29.3938,324.9375 29.3938,325.3906 C29.3938,325.7813 29.0656,326.2344 28.4875,326.6406 C27.7375,327.1875 26.5813,327.4844 25.3625,327.4844 C22.4719,327.4844 20.3625,325.5938 20.3625,323.0156 L20.3625,321.8906 C20.3625,319.1719 22.3625,317.0938 24.9875,317.0938 C25.8625,317.0938 26.4563,317.2344 27.3938,317.6719 Z "/><text fill="#000000" font-family="sans-serif" font-size="12" lengthAdjust="spacingAndGlyphs" textLength="101" x="39.95" y="326.1543">PaymentMethod</text><line style="stroke: #A80036; stroke-width: 1.5;" x1="7" x2="147" y1="338" y2="338"/><text fill="#000000" font-family="sans-serif" font-size="11" lengthAdjust="spacingAndGlyphs" textLength="120" x="12" y="352.2104">Customer: Customer</text><text fill="#000000" font-family="sans-serif" font-size="11" lengthAdjust="spacingAndGlyphs" textLength="130" x="12" y="365.0151">CreditCard: CreditCard</text><line style="stroke: #A80036; stroke-width: 1.5;" x1="7" x2="147" y1="371.6094" y2="371.6094"/><!--class Company--><rect fill="#FEFECE" filter="url(#fltn0k43tp52f)" height="73.6094" id="Company" style="stroke: #A80036; stroke-width: 1.5;" width="190" x="183" y="306"/><ellipse cx="213.3" cy="322" fill="#ADD1B2" rx="11" ry="11" style="stroke: #A80036; stroke-width: 1.0;"/><path d="M215.6438,317.6719 L215.8156,317.75 C216.0344,317.4375 216.2375,317.3438 216.5344,317.3438 C216.8313,317.3438 217.1125,317.4844 217.2688,317.75 C217.3625,317.9063 217.3781,318.0313 217.3781,318.4688 L217.3781,319.8906 C217.3781,320.3125 217.3469,320.5 217.2375,320.6563 C217.0656,320.875 216.8,321.0156 216.5344,321.0156 C216.3156,321.0156 216.0813,320.9063 215.9406,320.7656 C215.8,320.6406 215.7688,320.5156 215.7063,320.1094 C215.6125,319.7031 215.4406,319.4844 214.9563,319.2031 C214.4875,318.9531 213.8781,318.7969 213.3,318.7969 C211.5656,318.7969 210.3156,320.1094 210.3156,321.8906 L210.3156,322.9844 C210.3156,324.6875 211.6125,325.7813 213.6594,325.7813 C214.425,325.7813 215.1125,325.6563 215.5344,325.3906 C215.7219,325.2969 215.7219,325.2969 216.175,324.8125 C216.3625,324.625 216.5656,324.5469 216.7844,324.5469 C217.2531,324.5469 217.6438,324.9375 217.6438,325.3906 C217.6438,325.7813 217.3156,326.2344 216.7375,326.6406 C215.9875,327.1875 214.8313,327.4844 213.6125,327.4844 C210.7219,327.4844 208.6125,325.5938 208.6125,323.0156 L208.6125,321.8906 C208.6125,319.1719 210.6125,317.0938 213.2375,317.0938 C214.1125,317.0938 214.7063,317.2344 215.6438,317.6719 Z "/><text fill="#000000" font-family="sans-serif" font-size="12" lengthAdjust="spacingAndGlyphs" textLength="57" x="230.7" y="326.1543">Company</text><rect fill="#FFFFFF" height="15.9688" style="stroke: #000000; stroke-width: 1.0; stroke-dasharray: 2.0,2.0;" width="61" x="315" y="303"/><text fill="#000000" font-family="sans-serif" font-size="12" font-style="italic" lengthAdjust="spacingAndGlyphs" textLength="59" x="316" y="315.1387">Customer</text><line style="stroke: #A80036; stroke-width: 1.5;" x1="184" x2="372" y1="338" y2="338"/><text fill="#000000" font-family="sans-serif" font-size="11" lengthAdjust="spacingAndGlyphs" textLength="148" x="189" y="352.2104">OrganisationName: String</text><text fill="#000000" font-family="sans-serif" font-size="11" lengthAdjust="spacingAndGlyphs" textLength="84" x="189" y="365.0151">CustomerId: Id</text><text fill="#000000" font-family="sans-serif" font-size="11" font-style="italic" lengthAdjust="spacingAndGlyphs" textLength="86" x="281" y="365.0151">from Customer</text><line style="stroke: #A80036; stroke-width: 1.5;" x1="184" x2="372" y1="371.6094" y2="371.6094"/><!--link Address to Person--><path d="M595.122,210.072 C577.861,234.791 559.914,260.494 544.495,282.575 " fill="none" id="Address-Person" style="stroke: #A80036; stroke-width: 1.0;"/><polygon fill="#A80036" points="541.446,286.942,549.879,281.8543,544.3092,282.843,543.3205,277.2732,541.446,286.942" style="stroke: #A80036; stroke-width: 1.0;"/><text fill="#000000" font-family="sans-serif" font-size="13" lengthAdjust="spacingAndGlyphs" textLength="52" x="570" y="253.0669">Address</text><!--link Gender to Person--><path d="M481.708,152.013 C485.756,188.129 491.644,240.666 496.202,281.344 " fill="none" id="Gender-Person" style="stroke: #A80036; stroke-width: 1.0;"/><polygon fill="#A80036" points="496.808,286.749,499.7802,277.3593,496.2508,281.7801,491.83,278.2508,496.808,286.749" style="stroke: #A80036; stroke-width: 1.0;"/><text fill="#000000" font-family="sans-serif" font-size="13" lengthAdjust="spacingAndGlyphs" textLength="47" x="494" y="253.0669">Gender</text><!--link Customer to Person--><path d="M318.746,152.013 C351.198,185.476 397.323,233.035 435.304,272.198 " fill="none" id="Customer-Person" style="stroke: #A80036; stroke-width: 1.0;"/><polygon fill="none" points="440.517,267.519,449.416,286.749,430.467,277.265,440.517,267.519" style="stroke: #A80036; stroke-width: 1.0;"/><!--link Customer to PaymentMethod--><path d="M241.6,152.013 C204.777,194.517 148.247,259.764 111.951,301.6586 " fill="none" id="Customer-PaymentMethod" style="stroke: #A80036; stroke-width: 1.0;"/><polygon fill="#A80036" points="108.503,305.6384,117.4189,301.4542,111.7765,301.859,111.3718,296.2166,108.503,305.6384" style="stroke: #A80036; stroke-width: 1.0;"/><text fill="#000000" font-family="sans-serif" font-size="13" lengthAdjust="spacingAndGlyphs" textLength="63" x="161" y="253.0669">Customer</text><!--link CreditCard to PaymentMethod--><path d="M75.9952,146.246 C75.2936,175.999 74.5557,219.228 75,257 C75.167,271.197 75.4909,286.726 75.8301,300.5806 " fill="none" id="CreditCard-PaymentMethod" style="stroke: #A80036; stroke-width: 1.0;"/><polygon fill="#A80036" points="75.9555,305.6037,79.7295,296.5066,75.8306,300.6053,71.732,296.7064,75.9555,305.6037" style="stroke: #A80036; stroke-width: 1.0;"/><text fill="#000000" font-family="sans-serif" font-size="13" lengthAdjust="spacingAndGlyphs" textLength="68" x="76" y="253.0669">CreditCard</text><!--link Customer to Company--><path d="M278,152.013 C278,189.375 278,244.311 278,285.511 " fill="none" id="Customer-Company" style="stroke: #A80036; stroke-width: 1.0;"/><polygon fill="none" points="285,285.638,278,305.6384,271,285.638,285,285.638" style="stroke: #A80036; stroke-width: 1.0;"/><!--
@startuml
class "CreditCard" as CreditCard  {
	Number: String 
	ExpirationDate: Date 
}
enum Gender {
	Male
	Female
	Other

}
class "Address" as Address  {
	Street: String 
	PostalCode: String 
	HouseNumber: Number 
	HouseNumberExtension: String 
	City: String 
	CountryCode: String 
	Country: Maybe String
===
  <b>description</b>: The address of a
 person. This is the functional
 location of where a person lives. This
 type is of course designed for the
 Dutch address system.
}
class "Person " as Person <Customer> {
	FirstName: Maybe String
	LastName: String 
	Address: Address 
	Gender: Gender 
	CustomerId: Id  <i>from Customer</i>
}
Address - -> Person : Address
Gender - -> Person : Gender
Customer - -|> Person
class "PaymentMethod" as PaymentMethod  {
	Customer: Customer 
	CreditCard: CreditCard 
}
Customer - -> PaymentMethod : Customer
CreditCard - -> PaymentMethod : CreditCard
class "Company " as Company <Customer> {
	OrganisationName: String 
	CustomerId: Id  <i>from Customer</i>
}
Customer - -|> Company
class "Customer" as Customer  {
	CustomerId: Id 
===
  <b>description</b>: Someone or some
 company who buys things
}
@enduml

PlantUML version 1.2019.05beta2(Unknown compile time)
(GPL source distribution)
Java Runtime: Java(TM) SE Runtime Environment
JVM: Java HotSpot(TM) 64-Bit Server VM
Java Version: 1.7.0_25-b15
Operating System: Linux
Default Encoding: UTF-8
Language: en
Country: US
--></g></svg>