<?xml version="1.0" encoding="UTF-8" standalone="no"?><svg xmlns="http://www.w3.org/2000/svg" xmlns:xlink="http://www.w3.org/1999/xlink" contentScriptType="application/ecmascript" contentStyleType="text/css" height="346px" preserveAspectRatio="none" style="width:533px;height:346px;" version="1.1" viewBox="0 0 533 346" width="533px" zoomAndPan="magnify"><defs><filter height="300%" id="f16e0un3itmb30" width="300%" x="-1" y="-1"><feGaussianBlur result="blurOut" stdDeviation="2.0"/><feColorMatrix in="blurOut" result="blurOut2" type="matrix" values="0 0 0 0 0 0 0 0 0 0 0 0 0 0 0 0 0 0 .4 0"/><feOffset dx="4.0" dy="4.0" in="blurOut2" result="blurOut3"/><feBlend in="SourceGraphic" in2="blurOut3" mode="normal"/></filter></defs><g><!--class Gender--><rect fill="#FEFECE" filter="url(#f16e0un3itmb30)" height="86.4141" id="Gender" style="stroke: #A80036; stroke-width: 1.5;" width="78" x="6" y="34"/><ellipse cx="21" cy="50" fill="#EB937F" rx="11" ry="11" style="stroke: #A80036; stroke-width: 1.0;"/><path d="M19.2969,50.875 L19.2969,53.2969 L23.6563,53.2969 L23.6563,52.4219 C23.6563,51.9375 23.6875,51.7969 23.7969,51.6406 C23.9688,51.3906 24.2344,51.2813 24.5,51.2813 C24.7813,51.2813 25.0625,51.4375 25.2344,51.6875 C25.3125,51.8438 25.3438,51.9844 25.3438,52.4219 L25.3438,55 L17.3438,55 C16.9531,55 16.7188,54.9531 16.5781,54.8281 C16.3594,54.6719 16.2188,54.4219 16.2188,54.1563 C16.2188,53.8594 16.375,53.5938 16.625,53.4219 C16.7813,53.3125 16.9375,53.2969 17.3438,53.2969 L17.5938,53.2969 L17.5938,46.7813 L17.3438,46.7813 C16.9219,46.7813 16.7344,46.75 16.5781,46.6406 C16.3594,46.4688 16.2188,46.2188 16.2188,45.9375 C16.2188,45.6563 16.375,45.3594 16.625,45.2031 C16.7813,45.1094 16.9063,45.0938 17.3438,45.0938 L24.9688,45.0938 L24.9688,47.6406 C24.9688,48.1094 24.9375,48.25 24.8281,48.4219 C24.6563,48.6406 24.3906,48.7813 24.125,48.7813 C23.8438,48.7813 23.5625,48.625 23.3906,48.375 C23.3125,48.2188 23.2813,48.0469 23.2813,47.6406 L23.2813,46.7813 L19.2969,46.7813 L19.2969,49.1875 L20.75,49.1875 L20.75,49.0625 C20.75,48.6094 20.7813,48.4531 20.8906,48.2813 C21.0625,48.0625 21.3281,47.9219 21.5781,47.9219 C22.0313,47.9219 22.3438,48.2344 22.4063,48.7031 C22.4219,48.8594 22.4219,48.9063 22.4219,49.0625 L22.4219,50.9844 C22.4219,51.4375 22.3906,51.5938 22.2656,51.75 C22.1094,51.9688 21.8438,52.1094 21.5938,52.1094 C21.2969,52.1094 21.0156,51.9531 20.8594,51.7031 C20.7813,51.5469 20.75,51.3906 20.75,50.9844 L20.75,50.875 Z "/><text fill="#000000" font-family="sans-serif" font-size="12" lengthAdjust="spacingAndGlyphs" textLength="46" x="35" y="54.1543">Gender</text><line style="stroke: #A80036; stroke-width: 1.5;" x1="7" x2="83" y1="66" y2="66"/><text fill="#000000" font-family="sans-serif" font-size="11" lengthAdjust="spacingAndGlyphs" textLength="26" x="12" y="80.2104">Male</text><text fill="#000000" font-family="sans-serif" font-size="11" lengthAdjust="spacingAndGlyphs" textLength="41" x="12" y="93.0151">Female</text><text fill="#000000" font-family="sans-serif" font-size="11" lengthAdjust="spacingAndGlyphs" textLength="32" x="12" y="105.8198">Other</text><line style="stroke: #A80036; stroke-width: 1.5;" x1="7" x2="83" y1="112.4141" y2="112.4141"/><!--class Address--><rect fill="#FEFECE" filter="url(#f16e0un3itmb30)" height="137.6328" id="Address" style="stroke: #A80036; stroke-width: 1.5;" width="190" x="119" y="8"/><ellipse cx="184.25" cy="24" fill="#ADD1B2" rx="11" ry="11" style="stroke: #A80036; stroke-width: 1.0;"/><path d="M186.5938,19.6719 L186.7656,19.75 C186.9844,19.4375 187.1875,19.3438 187.4844,19.3438 C187.7813,19.3438 188.0625,19.4844 188.2188,19.75 C188.3125,19.9063 188.3281,20.0313 188.3281,20.4688 L188.3281,21.8906 C188.3281,22.3125 188.2969,22.5 188.1875,22.6563 C188.0156,22.875 187.75,23.0156 187.4844,23.0156 C187.2656,23.0156 187.0313,22.9063 186.8906,22.7656 C186.75,22.6406 186.7188,22.5156 186.6563,22.1094 C186.5625,21.7031 186.3906,21.4844 185.9063,21.2031 C185.4375,20.9531 184.8281,20.7969 184.25,20.7969 C182.5156,20.7969 181.2656,22.1094 181.2656,23.8906 L181.2656,24.9844 C181.2656,26.6875 182.5625,27.7813 184.6094,27.7813 C185.375,27.7813 186.0625,27.6563 186.4844,27.3906 C186.6719,27.2969 186.6719,27.2969 187.125,26.8125 C187.3125,26.625 187.5156,26.5469 187.7344,26.5469 C188.2031,26.5469 188.5938,26.9375 188.5938,27.3906 C188.5938,27.7813 188.2656,28.2344 187.6875,28.6406 C186.9375,29.1875 185.7813,29.4844 184.5625,29.4844 C181.6719,29.4844 179.5625,27.5938 179.5625,25.0156 L179.5625,23.8906 C179.5625,21.1719 181.5625,19.0938 184.1875,19.0938 C185.0625,19.0938 185.6563,19.2344 186.5938,19.6719 Z "/><text fill="#000000" font-family="sans-serif" font-size="12" lengthAdjust="spacingAndGlyphs" textLength="51" x="204.75" y="28.1543">Address</text><line style="stroke: #A80036; stroke-width: 1.5;" x1="120" x2="308" y1="40" y2="40"/><text fill="#000000" font-family="sans-serif" font-size="11" lengthAdjust="spacingAndGlyphs" textLength="77" x="125" y="54.2104">Street: String</text><text fill="#000000" font-family="sans-serif" font-size="11" lengthAdjust="spacingAndGlyphs" textLength="106" x="125" y="67.0151">PostalCode: String</text><text fill="#000000" font-family="sans-serif" font-size="11" lengthAdjust="spacingAndGlyphs" textLength="134" x="125" y="79.8198">HouseNumber: Number</text><text fill="#000000" font-family="sans-serif" font-size="11" lengthAdjust="spacingAndGlyphs" textLength="178" x="125" y="92.6245">HouseNumberExtension: String</text><text fill="#000000" font-family="sans-serif" font-size="11" lengthAdjust="spacingAndGlyphs" textLength="63" x="125" y="105.4292">City: String</text><text fill="#000000" font-family="sans-serif" font-size="11" lengthAdjust="spacingAndGlyphs" textLength="115" x="125" y="118.2339">CountryCode: String</text><text fill="#000000" font-family="sans-serif" font-size="11" lengthAdjust="spacingAndGlyphs" textLength="126" x="125" y="131.0386">Country: Maybe String</text><line style="stroke: #A80036; stroke-width: 1.5;" x1="120" x2="308" y1="137.6328" y2="137.6328"/><!--class Person--><rect fill="#FEFECE" filter="url(#f16e0un3itmb30)" height="112.0234" id="Person" style="stroke: #A80036; stroke-width: 1.5;" width="190" x="107" y="223"/><ellipse cx="173.75" cy="239" fill="#ADD1B2" rx="11" ry="11" style="stroke: #A80036; stroke-width: 1.0;"/><path d="M176.0938,234.6719 L176.2656,234.75 C176.4844,234.4375 176.6875,234.3438 176.9844,234.3438 C177.2813,234.3438 177.5625,234.4844 177.7188,234.75 C177.8125,234.9063 177.8281,235.0313 177.8281,235.4688 L177.8281,236.8906 C177.8281,237.3125 177.7969,237.5 177.6875,237.6563 C177.5156,237.875 177.25,238.0156 176.9844,238.0156 C176.7656,238.0156 176.5313,237.9063 176.3906,237.7656 C176.25,237.6406 176.2188,237.5156 176.1563,237.1094 C176.0625,236.7031 175.8906,236.4844 175.4063,236.2031 C174.9375,235.9531 174.3281,235.7969 173.75,235.7969 C172.0156,235.7969 170.7656,237.1094 170.7656,238.8906 L170.7656,239.9844 C170.7656,241.6875 172.0625,242.7813 174.1094,242.7813 C174.875,242.7813 175.5625,242.6563 175.9844,242.3906 C176.1719,242.2969 176.1719,242.2969 176.625,241.8125 C176.8125,241.625 177.0156,241.5469 177.2344,241.5469 C177.7031,241.5469 178.0938,241.9375 178.0938,242.3906 C178.0938,242.7813 177.7656,243.2344 177.1875,243.6406 C176.4375,244.1875 175.2813,244.4844 174.0625,244.4844 C171.1719,244.4844 169.0625,242.5938 169.0625,240.0156 L169.0625,238.8906 C169.0625,236.1719 171.0625,234.0938 173.6875,234.0938 C174.5625,234.0938 175.1563,234.2344 176.0938,234.6719 Z "/><text fill="#000000" font-family="sans-serif" font-size="12" lengthAdjust="spacingAndGlyphs" textLength="44" x="194.25" y="243.1543">Person</text><line style="stroke: #A80036; stroke-width: 1.5;" x1="108" x2="296" y1="255" y2="255"/><text fill="#000000" font-family="sans-serif" font-size="11" lengthAdjust="spacingAndGlyphs" textLength="140" x="113" y="269.2104">FirstName: Maybe String</text><text fill="#000000" font-family="sans-serif" font-size="11" lengthAdjust="spacingAndGlyphs" textLength="99" x="113" y="282.0151">LastName: String</text><text fill="#000000" font-family="sans-serif" font-size="11" lengthAdjust="spacingAndGlyphs" textLength="102" x="113" y="294.8198">Address: Address</text><text fill="#000000" font-family="sans-serif" font-size="11" lengthAdjust="spacingAndGlyphs" textLength="92" x="113" y="307.6245">Gender: Gender</text><text fill="#000000" font-family="sans-serif" font-size="11" lengthAdjust="spacingAndGlyphs" textLength="84" x="113" y="320.4292">CustomerId: Id</text><text fill="#000000" font-family="sans-serif" font-size="11" font-style="italic" lengthAdjust="spacingAndGlyphs" textLength="86" x="205" y="320.4292">from Customer</text><line style="stroke: #A80036; stroke-width: 1.5;" x1="108" x2="296" y1="327.0234" y2="327.0234"/><!--class Customer--><rect fill="#FEFECE" filter="url(#f16e0un3itmb30)" height="60.8047" id="Customer" style="stroke: #A80036; stroke-width: 1.5;" width="96" x="367" y="46.5"/><ellipse cx="383.8" cy="62.5" fill="#ADD1B2" rx="11" ry="11" style="stroke: #A80036; stroke-width: 1.0;"/><path d="M386.1438,58.1719 L386.3156,58.25 C386.5344,57.9375 386.7375,57.8438 387.0344,57.8438 C387.3313,57.8438 387.6125,57.9844 387.7688,58.25 C387.8625,58.4063 387.8781,58.5313 387.8781,58.9688 L387.8781,60.3906 C387.8781,60.8125 387.8469,61 387.7375,61.1563 C387.5656,61.375 387.3,61.5156 387.0344,61.5156 C386.8156,61.5156 386.5813,61.4063 386.4406,61.2656 C386.3,61.1406 386.2688,61.0156 386.2063,60.6094 C386.1125,60.2031 385.9406,59.9844 385.4563,59.7031 C384.9875,59.4531 384.3781,59.2969 383.8,59.2969 C382.0656,59.2969 380.8156,60.6094 380.8156,62.3906 L380.8156,63.4844 C380.8156,65.1875 382.1125,66.2813 384.1594,66.2813 C384.925,66.2813 385.6125,66.1563 386.0344,65.8906 C386.2219,65.7969 386.2219,65.7969 386.675,65.3125 C386.8625,65.125 387.0656,65.0469 387.2844,65.0469 C387.7531,65.0469 388.1438,65.4375 388.1438,65.8906 C388.1438,66.2813 387.8156,66.7344 387.2375,67.1406 C386.4875,67.6875 385.3313,67.9844 384.1125,67.9844 C381.2219,67.9844 379.1125,66.0938 379.1125,63.5156 L379.1125,62.3906 C379.1125,59.6719 381.1125,57.5938 383.7375,57.5938 C384.6125,57.5938 385.2063,57.7344 386.1438,58.1719 Z "/><text fill="#000000" font-family="sans-serif" font-size="12" lengthAdjust="spacingAndGlyphs" textLength="60" x="398.2" y="66.6543">Customer</text><line style="stroke: #A80036; stroke-width: 1.5;" x1="368" x2="462" y1="78.5" y2="78.5"/><text fill="#000000" font-family="sans-serif" font-size="11" lengthAdjust="spacingAndGlyphs" textLength="84" x="373" y="92.7104">CustomerId: Id</text><line style="stroke: #A80036; stroke-width: 1.5;" x1="368" x2="462" y1="99.3047" y2="99.3047"/><!--class Company--><rect fill="#FEFECE" filter="url(#f16e0un3itmb30)" height="73.6094" id="Company" style="stroke: #A80036; stroke-width: 1.5;" width="190" x="332" y="242"/><ellipse cx="392.25" cy="258" fill="#ADD1B2" rx="11" ry="11" style="stroke: #A80036; stroke-width: 1.0;"/><path d="M394.5938,253.6719 L394.7656,253.75 C394.9844,253.4375 395.1875,253.3438 395.4844,253.3438 C395.7813,253.3438 396.0625,253.4844 396.2188,253.75 C396.3125,253.9063 396.3281,254.0313 396.3281,254.4688 L396.3281,255.8906 C396.3281,256.3125 396.2969,256.5 396.1875,256.6563 C396.0156,256.875 395.75,257.0156 395.4844,257.0156 C395.2656,257.0156 395.0313,256.9063 394.8906,256.7656 C394.75,256.6406 394.7188,256.5156 394.6563,256.1094 C394.5625,255.7031 394.3906,255.4844 393.9063,255.2031 C393.4375,254.9531 392.8281,254.7969 392.25,254.7969 C390.5156,254.7969 389.2656,256.1094 389.2656,257.8906 L389.2656,258.9844 C389.2656,260.6875 390.5625,261.7813 392.6094,261.7813 C393.375,261.7813 394.0625,261.6563 394.4844,261.3906 C394.6719,261.2969 394.6719,261.2969 395.125,260.8125 C395.3125,260.625 395.5156,260.5469 395.7344,260.5469 C396.2031,260.5469 396.5938,260.9375 396.5938,261.3906 C396.5938,261.7813 396.2656,262.2344 395.6875,262.6406 C394.9375,263.1875 393.7813,263.4844 392.5625,263.4844 C389.6719,263.4844 387.5625,261.5938 387.5625,259.0156 L387.5625,257.8906 C387.5625,255.1719 389.5625,253.0938 392.1875,253.0938 C393.0625,253.0938 393.6563,253.2344 394.5938,253.6719 Z "/><text fill="#000000" font-family="sans-serif" font-size="12" lengthAdjust="spacingAndGlyphs" textLength="57" x="412.75" y="262.1543">Company</text><line style="stroke: #A80036; stroke-width: 1.5;" x1="333" x2="521" y1="274" y2="274"/><text fill="#000000" font-family="sans-serif" font-size="11" lengthAdjust="spacingAndGlyphs" textLength="148" x="338" y="288.2104">OrganisationName: String</text><text fill="#000000" font-family="sans-serif" font-size="11" lengthAdjust="spacingAndGlyphs" textLength="84" x="338" y="301.0151">CustomerId: Id</text><text fill="#000000" font-family="sans-serif" font-size="11" font-style="italic" lengthAdjust="spacingAndGlyphs" textLength="86" x="430" y="301.0151">from Customer</text><line style="stroke: #A80036; stroke-width: 1.5;" x1="333" x2="521" y1="307.6094" y2="307.6094"/><!--link Address to Person--><path d="M209.603,151.288 C208.182,174.973 206.631,200.815 205.303,222.947 " fill="none" id="Address-Person" style="stroke: #A80036; stroke-width: 1.0;"/><polygon fill="#A80036" points="209.904,146.269,205.3713,155.0128,209.604,151.26,213.3568,155.4928,209.904,146.269" style="stroke: #A80036; stroke-width: 1.0;"/><text fill="#000000" font-family="sans-serif" font-size="13" lengthAdjust="spacingAndGlyphs" textLength="52" x="209" y="189.0669">Address</text><!--link Gender to Person--><path d="M81.6388,124.674 C104.6415,153.976 134.422,191.914 158.605,222.72 " fill="none" id="Gender-Person" style="stroke: #A80036; stroke-width: 1.0;"/><polygon fill="#A80036" points="78.2957,120.415,80.7062,129.9643,81.3829,124.3481,86.9991,125.0248,78.2957,120.415" style="stroke: #A80036; stroke-width: 1.0;"/><text fill="#000000" font-family="sans-serif" font-size="13" lengthAdjust="spacingAndGlyphs" textLength="47" x="134" y="189.0669">Gender</text><!--link Customer to Person--><path d="M368.979,121.213 C337.342,150.918 295.055,190.625 260.952,222.646 " fill="none" id="Customer-Person" style="stroke: #A80036; stroke-width: 1.0;"/><polygon fill="none" points="364.199,116.098,383.571,107.511,373.783,126.304,364.199,116.098" style="stroke: #A80036; stroke-width: 1.0;"/><!--link Customer to Company--><path d="M417.993,127.876 C420.119,163.312 422.924,210.073 424.836,241.9299 " fill="none" id="Customer-Company" style="stroke: #A80036; stroke-width: 1.0;"/><polygon fill="none" points="410.981,127.894,416.771,107.511,424.956,127.056,410.981,127.894" style="stroke: #A80036; stroke-width: 1.0;"/><!--
@startuml
enum Gender {
	Male
	Female
	Other
}
class "Address" as Address  {
	Street: String 
	PostalCode: String 
	HouseNumber: Number 
	HouseNumberExtension: String 
	City: String 
	CountryCode: String 
	Country: Maybe String
}
class "Person " as Person  {
	FirstName: Maybe String
	LastName: String 
	Address: Address 
	Gender: Gender 
	CustomerId: Id  <i>from Customer</i>
}
Address <- - Person : Address
Gender <- - Person : Gender
Customer <|- - Person
class "Company " as Company  {
	OrganisationName: String 
	CustomerId: Id  <i>from Customer</i>
}
Customer <|- - Company
class "Customer" as Customer  {
	CustomerId: Id 
}
@enduml

PlantUML version 1.2019.05beta2(Unknown compile time)
(GPL source distribution)
Java Runtime: Java(TM) SE Runtime Environment
JVM: Java HotSpot(TM) 64-Bit Server VM
Java Version: 1.7.0_25-b15
Operating System: Linux
Default Encoding: UTF-8
Language: en
Country: US
--></g></svg>