<?xml version="1.0" encoding="UTF-8" standalone="no"?><svg xmlns="http://www.w3.org/2000/svg" xmlns:xlink="http://www.w3.org/1999/xlink" contentScriptType="application/ecmascript" contentStyleType="text/css" height="460px" preserveAspectRatio="none" style="width:562px;height:460px;" version="1.1" viewBox="0 0 562 460" width="562px" zoomAndPan="magnify"><defs><filter height="300%" id="flpnhtrwldn13" width="300%" x="-1" y="-1"><feGaussianBlur result="blurOut" stdDeviation="2.0"/><feColorMatrix in="blurOut" result="blurOut2" type="matrix" values="0 0 0 0 0 0 0 0 0 0 0 0 0 0 0 0 0 0 .4 0"/><feOffset dx="4.0" dy="4.0" in="blurOut2" result="blurOut3"/><feBlend in="SourceGraphic" in2="blurOut3" mode="normal"/></filter></defs><g><!--class Gender--><rect fill="#FEFECE" filter="url(#flpnhtrwldn13)" height="86.4141" id="Gender" style="stroke: #A80036; stroke-width: 1.5;" width="78" x="6" y="78.5"/><ellipse cx="21" cy="94.5" fill="#EB937F" rx="11" ry="11" style="stroke: #A80036; stroke-width: 1.0;"/><path d="M19.2969,95.375 L19.2969,97.7969 L23.6563,97.7969 L23.6563,96.9219 C23.6563,96.4375 23.6875,96.2969 23.7969,96.1406 C23.9688,95.8906 24.2344,95.7813 24.5,95.7813 C24.7813,95.7813 25.0625,95.9375 25.2344,96.1875 C25.3125,96.3438 25.3438,96.4844 25.3438,96.9219 L25.3438,99.5 L17.3438,99.5 C16.9531,99.5 16.7188,99.4531 16.5781,99.3281 C16.3594,99.1719 16.2188,98.9219 16.2188,98.6563 C16.2188,98.3594 16.375,98.0938 16.625,97.9219 C16.7813,97.8125 16.9375,97.7969 17.3438,97.7969 L17.5938,97.7969 L17.5938,91.2813 L17.3438,91.2813 C16.9219,91.2813 16.7344,91.25 16.5781,91.1406 C16.3594,90.9688 16.2188,90.7188 16.2188,90.4375 C16.2188,90.1563 16.375,89.8594 16.625,89.7031 C16.7813,89.6094 16.9063,89.5938 17.3438,89.5938 L24.9688,89.5938 L24.9688,92.1406 C24.9688,92.6094 24.9375,92.75 24.8281,92.9219 C24.6563,93.1406 24.3906,93.2813 24.125,93.2813 C23.8438,93.2813 23.5625,93.125 23.3906,92.875 C23.3125,92.7188 23.2813,92.5469 23.2813,92.1406 L23.2813,91.2813 L19.2969,91.2813 L19.2969,93.6875 L20.75,93.6875 L20.75,93.5625 C20.75,93.1094 20.7813,92.9531 20.8906,92.7813 C21.0625,92.5625 21.3281,92.4219 21.5781,92.4219 C22.0313,92.4219 22.3438,92.7344 22.4063,93.2031 C22.4219,93.3594 22.4219,93.4063 22.4219,93.5625 L22.4219,95.4844 C22.4219,95.9375 22.3906,96.0938 22.2656,96.25 C22.1094,96.4688 21.8438,96.6094 21.5938,96.6094 C21.2969,96.6094 21.0156,96.4531 20.8594,96.2031 C20.7813,96.0469 20.75,95.8906 20.75,95.4844 L20.75,95.375 Z "/><text fill="#000000" font-family="sans-serif" font-size="12" lengthAdjust="spacingAndGlyphs" textLength="46" x="35" y="98.6543">Gender</text><line style="stroke: #A80036; stroke-width: 1.5;" x1="7" x2="83" y1="110.5" y2="110.5"/><text fill="#000000" font-family="sans-serif" font-size="11" lengthAdjust="spacingAndGlyphs" textLength="26" x="12" y="124.7104">Male</text><text fill="#000000" font-family="sans-serif" font-size="11" lengthAdjust="spacingAndGlyphs" textLength="41" x="12" y="137.5151">Female</text><text fill="#000000" font-family="sans-serif" font-size="11" lengthAdjust="spacingAndGlyphs" textLength="32" x="12" y="150.3198">Other</text><line style="stroke: #A80036; stroke-width: 1.5;" x1="7" x2="83" y1="156.9141" y2="156.9141"/><!--class Address--><rect fill="#FEFECE" filter="url(#flpnhtrwldn13)" height="227.2656" id="Address" style="stroke: #A80036; stroke-width: 1.5;" width="227" x="119.5" y="8"/><ellipse cx="203.25" cy="24" fill="#ADD1B2" rx="11" ry="11" style="stroke: #A80036; stroke-width: 1.0;"/><path d="M205.5938,19.6719 L205.7656,19.75 C205.9844,19.4375 206.1875,19.3438 206.4844,19.3438 C206.7813,19.3438 207.0625,19.4844 207.2188,19.75 C207.3125,19.9063 207.3281,20.0313 207.3281,20.4688 L207.3281,21.8906 C207.3281,22.3125 207.2969,22.5 207.1875,22.6563 C207.0156,22.875 206.75,23.0156 206.4844,23.0156 C206.2656,23.0156 206.0313,22.9063 205.8906,22.7656 C205.75,22.6406 205.7188,22.5156 205.6563,22.1094 C205.5625,21.7031 205.3906,21.4844 204.9063,21.2031 C204.4375,20.9531 203.8281,20.7969 203.25,20.7969 C201.5156,20.7969 200.2656,22.1094 200.2656,23.8906 L200.2656,24.9844 C200.2656,26.6875 201.5625,27.7813 203.6094,27.7813 C204.375,27.7813 205.0625,27.6563 205.4844,27.3906 C205.6719,27.2969 205.6719,27.2969 206.125,26.8125 C206.3125,26.625 206.5156,26.5469 206.7344,26.5469 C207.2031,26.5469 207.5938,26.9375 207.5938,27.3906 C207.5938,27.7813 207.2656,28.2344 206.6875,28.6406 C205.9375,29.1875 204.7813,29.4844 203.5625,29.4844 C200.6719,29.4844 198.5625,27.5938 198.5625,25.0156 L198.5625,23.8906 C198.5625,21.1719 200.5625,19.0938 203.1875,19.0938 C204.0625,19.0938 204.6563,19.2344 205.5938,19.6719 Z "/><text fill="#000000" font-family="sans-serif" font-size="12" lengthAdjust="spacingAndGlyphs" textLength="51" x="223.75" y="28.1543">Address</text><line style="stroke: #A80036; stroke-width: 1.5;" x1="120.5" x2="345.5" y1="40" y2="40"/><text fill="#000000" font-family="sans-serif" font-size="11" lengthAdjust="spacingAndGlyphs" textLength="77" x="125.5" y="54.2104">Street: String</text><text fill="#000000" font-family="sans-serif" font-size="11" lengthAdjust="spacingAndGlyphs" textLength="106" x="125.5" y="67.0151">PostalCode: String</text><text fill="#000000" font-family="sans-serif" font-size="11" lengthAdjust="spacingAndGlyphs" textLength="134" x="125.5" y="79.8198">HouseNumber: Number</text><text fill="#000000" font-family="sans-serif" font-size="11" lengthAdjust="spacingAndGlyphs" textLength="178" x="125.5" y="92.6245">HouseNumberExtension: String</text><text fill="#000000" font-family="sans-serif" font-size="11" lengthAdjust="spacingAndGlyphs" textLength="63" x="125.5" y="105.4292">City: String</text><text fill="#000000" font-family="sans-serif" font-size="11" lengthAdjust="spacingAndGlyphs" textLength="115" x="125.5" y="118.2339">CountryCode: String</text><text fill="#000000" font-family="sans-serif" font-size="11" lengthAdjust="spacingAndGlyphs" textLength="126" x="125.5" y="131.0386">Country: Maybe String</text><line style="stroke: #A80036; stroke-width: 1.0;" x1="120.5" x2="345.5" y1="137.6328" y2="137.6328"/><text fill="#000000" font-family="sans-serif" font-size="11" font-weight="bold" lengthAdjust="spacingAndGlyphs" textLength="72" x="125.5" y="151.8433">description</text><text fill="#000000" font-family="sans-serif" font-size="11" lengthAdjust="spacingAndGlyphs" textLength="106" x="197.5" y="151.8433">: The address of a</text><text fill="#000000" font-family="sans-serif" font-size="11" lengthAdjust="spacingAndGlyphs" textLength="167" x="125.5" y="164.6479">person. This is the functional</text><text fill="#000000" font-family="sans-serif" font-size="11" lengthAdjust="spacingAndGlyphs" textLength="215" x="125.5" y="177.4526">location of where a person lives. This</text><text fill="#000000" font-family="sans-serif" font-size="11" lengthAdjust="spacingAndGlyphs" textLength="194" x="125.5" y="190.2573">type is of course designed for the</text><text fill="#000000" font-family="sans-serif" font-size="11" lengthAdjust="spacingAndGlyphs" textLength="133" x="125.5" y="203.062">Dutch address system.</text><text fill="#000000" font-family="sans-serif" font-size="11" font-weight="bold" lengthAdjust="spacingAndGlyphs" textLength="66" x="125.5" y="215.8667">aggregate</text><text fill="#000000" font-family="sans-serif" font-size="11" lengthAdjust="spacingAndGlyphs" textLength="48" x="191.5" y="215.8667">: Person</text><text fill="#000000" font-family="sans-serif" font-size="11" lengthAdjust="spacingAndGlyphs" textLength="0" x="129.5" y="228.6714"/><!--class Person--><rect fill="#FEFECE" filter="url(#flpnhtrwldn13)" height="137.6328" id="Person" style="stroke: #A80036; stroke-width: 1.5;" width="190" x="136" y="312"/><ellipse cx="202.75" cy="328" fill="#ADD1B2" rx="11" ry="11" style="stroke: #A80036; stroke-width: 1.0;"/><path d="M205.0938,323.6719 L205.2656,323.75 C205.4844,323.4375 205.6875,323.3438 205.9844,323.3438 C206.2813,323.3438 206.5625,323.4844 206.7188,323.75 C206.8125,323.9063 206.8281,324.0313 206.8281,324.4688 L206.8281,325.8906 C206.8281,326.3125 206.7969,326.5 206.6875,326.6563 C206.5156,326.875 206.25,327.0156 205.9844,327.0156 C205.7656,327.0156 205.5313,326.9063 205.3906,326.7656 C205.25,326.6406 205.2188,326.5156 205.1563,326.1094 C205.0625,325.7031 204.8906,325.4844 204.4063,325.2031 C203.9375,324.9531 203.3281,324.7969 202.75,324.7969 C201.0156,324.7969 199.7656,326.1094 199.7656,327.8906 L199.7656,328.9844 C199.7656,330.6875 201.0625,331.7813 203.1094,331.7813 C203.875,331.7813 204.5625,331.6563 204.9844,331.3906 C205.1719,331.2969 205.1719,331.2969 205.625,330.8125 C205.8125,330.625 206.0156,330.5469 206.2344,330.5469 C206.7031,330.5469 207.0938,330.9375 207.0938,331.3906 C207.0938,331.7813 206.7656,332.2344 206.1875,332.6406 C205.4375,333.1875 204.2813,333.4844 203.0625,333.4844 C200.1719,333.4844 198.0625,331.5938 198.0625,329.0156 L198.0625,327.8906 C198.0625,325.1719 200.0625,323.0938 202.6875,323.0938 C203.5625,323.0938 204.1563,323.2344 205.0938,323.6719 Z "/><text fill="#000000" font-family="sans-serif" font-size="12" lengthAdjust="spacingAndGlyphs" textLength="44" x="223.25" y="332.1543">Person</text><line style="stroke: #A80036; stroke-width: 1.5;" x1="137" x2="325" y1="344" y2="344"/><text fill="#000000" font-family="sans-serif" font-size="11" lengthAdjust="spacingAndGlyphs" textLength="140" x="142" y="358.2104">FirstName: Maybe String</text><text fill="#000000" font-family="sans-serif" font-size="11" lengthAdjust="spacingAndGlyphs" textLength="99" x="142" y="371.0151">LastName: String</text><text fill="#000000" font-family="sans-serif" font-size="11" lengthAdjust="spacingAndGlyphs" textLength="102" x="142" y="383.8198">Address: Address</text><text fill="#000000" font-family="sans-serif" font-size="11" lengthAdjust="spacingAndGlyphs" textLength="92" x="142" y="396.6245">Gender: Gender</text><text fill="#000000" font-family="sans-serif" font-size="11" lengthAdjust="spacingAndGlyphs" textLength="84" x="142" y="409.4292">CustomerId: Id</text><text fill="#000000" font-family="sans-serif" font-size="11" font-style="italic" lengthAdjust="spacingAndGlyphs" textLength="86" x="234" y="409.4292">from Customer</text><line style="stroke: #A80036; stroke-width: 1.0;" x1="137" x2="325" y1="416.0234" y2="416.0234"/><text fill="#000000" font-family="sans-serif" font-size="11" font-weight="bold" lengthAdjust="spacingAndGlyphs" textLength="66" x="142" y="430.2339">aggregate</text><text fill="#000000" font-family="sans-serif" font-size="11" lengthAdjust="spacingAndGlyphs" textLength="48" x="208" y="430.2339">: Person</text><text fill="#000000" font-family="sans-serif" font-size="11" lengthAdjust="spacingAndGlyphs" textLength="0" x="146" y="443.0386"/><!--class Customer--><rect fill="#FEFECE" filter="url(#flpnhtrwldn13)" height="86.4141" id="Customer" style="stroke: #A80036; stroke-width: 1.5;" width="142" x="384" y="78.5"/><ellipse cx="421.5" cy="94.5" fill="#ADD1B2" rx="11" ry="11" style="stroke: #A80036; stroke-width: 1.0;"/><path d="M423.8438,90.1719 L424.0156,90.25 C424.2344,89.9375 424.4375,89.8438 424.7344,89.8438 C425.0313,89.8438 425.3125,89.9844 425.4688,90.25 C425.5625,90.4063 425.5781,90.5313 425.5781,90.9688 L425.5781,92.3906 C425.5781,92.8125 425.5469,93 425.4375,93.1563 C425.2656,93.375 425,93.5156 424.7344,93.5156 C424.5156,93.5156 424.2813,93.4063 424.1406,93.2656 C424,93.1406 423.9688,93.0156 423.9063,92.6094 C423.8125,92.2031 423.6406,91.9844 423.1563,91.7031 C422.6875,91.4531 422.0781,91.2969 421.5,91.2969 C419.7656,91.2969 418.5156,92.6094 418.5156,94.3906 L418.5156,95.4844 C418.5156,97.1875 419.8125,98.2813 421.8594,98.2813 C422.625,98.2813 423.3125,98.1563 423.7344,97.8906 C423.9219,97.7969 423.9219,97.7969 424.375,97.3125 C424.5625,97.125 424.7656,97.0469 424.9844,97.0469 C425.4531,97.0469 425.8438,97.4375 425.8438,97.8906 C425.8438,98.2813 425.5156,98.7344 424.9375,99.1406 C424.1875,99.6875 423.0313,99.9844 421.8125,99.9844 C418.9219,99.9844 416.8125,98.0938 416.8125,95.5156 L416.8125,94.3906 C416.8125,91.6719 418.8125,89.5938 421.4375,89.5938 C422.3125,89.5938 422.9063,89.7344 423.8438,90.1719 Z "/><text fill="#000000" font-family="sans-serif" font-size="12" lengthAdjust="spacingAndGlyphs" textLength="60" x="440.5" y="98.6543">Customer</text><line style="stroke: #A80036; stroke-width: 1.5;" x1="385" x2="525" y1="110.5" y2="110.5"/><text fill="#000000" font-family="sans-serif" font-size="11" lengthAdjust="spacingAndGlyphs" textLength="84" x="390" y="124.7104">CustomerId: Id</text><line style="stroke: #A80036; stroke-width: 1.0;" x1="385" x2="525" y1="131.3047" y2="131.3047"/><text fill="#000000" font-family="sans-serif" font-size="11" font-weight="bold" lengthAdjust="spacingAndGlyphs" textLength="66" x="390" y="145.5151">aggregate</text><text fill="#000000" font-family="sans-serif" font-size="11" lengthAdjust="spacingAndGlyphs" textLength="64" x="456" y="145.5151">: Customer</text><text fill="#000000" font-family="sans-serif" font-size="11" lengthAdjust="spacingAndGlyphs" textLength="0" x="394" y="158.3198"/><!--class Company--><rect fill="#FEFECE" filter="url(#flpnhtrwldn13)" height="99.2188" id="Company" style="stroke: #A80036; stroke-width: 1.5;" width="190" x="361" y="331.5"/><ellipse cx="421.25" cy="347.5" fill="#ADD1B2" rx="11" ry="11" style="stroke: #A80036; stroke-width: 1.0;"/><path d="M423.5938,343.1719 L423.7656,343.25 C423.9844,342.9375 424.1875,342.8438 424.4844,342.8438 C424.7813,342.8438 425.0625,342.9844 425.2188,343.25 C425.3125,343.4063 425.3281,343.5313 425.3281,343.9688 L425.3281,345.3906 C425.3281,345.8125 425.2969,346 425.1875,346.1563 C425.0156,346.375 424.75,346.5156 424.4844,346.5156 C424.2656,346.5156 424.0313,346.4063 423.8906,346.2656 C423.75,346.1406 423.7188,346.0156 423.6563,345.6094 C423.5625,345.2031 423.3906,344.9844 422.9063,344.7031 C422.4375,344.4531 421.8281,344.2969 421.25,344.2969 C419.5156,344.2969 418.2656,345.6094 418.2656,347.3906 L418.2656,348.4844 C418.2656,350.1875 419.5625,351.2813 421.6094,351.2813 C422.375,351.2813 423.0625,351.1563 423.4844,350.8906 C423.6719,350.7969 423.6719,350.7969 424.125,350.3125 C424.3125,350.125 424.5156,350.0469 424.7344,350.0469 C425.2031,350.0469 425.5938,350.4375 425.5938,350.8906 C425.5938,351.2813 425.2656,351.7344 424.6875,352.1406 C423.9375,352.6875 422.7813,352.9844 421.5625,352.9844 C418.6719,352.9844 416.5625,351.0938 416.5625,348.5156 L416.5625,347.3906 C416.5625,344.6719 418.5625,342.5938 421.1875,342.5938 C422.0625,342.5938 422.6563,342.7344 423.5938,343.1719 Z "/><text fill="#000000" font-family="sans-serif" font-size="12" lengthAdjust="spacingAndGlyphs" textLength="57" x="441.75" y="351.6543">Company</text><line style="stroke: #A80036; stroke-width: 1.5;" x1="362" x2="550" y1="363.5" y2="363.5"/><text fill="#000000" font-family="sans-serif" font-size="11" lengthAdjust="spacingAndGlyphs" textLength="148" x="367" y="377.7104">OrganisationName: String</text><text fill="#000000" font-family="sans-serif" font-size="11" lengthAdjust="spacingAndGlyphs" textLength="84" x="367" y="390.5151">CustomerId: Id</text><text fill="#000000" font-family="sans-serif" font-size="11" font-style="italic" lengthAdjust="spacingAndGlyphs" textLength="86" x="459" y="390.5151">from Customer</text><line style="stroke: #A80036; stroke-width: 1.0;" x1="362" x2="550" y1="397.1094" y2="397.1094"/><text fill="#000000" font-family="sans-serif" font-size="11" font-weight="bold" lengthAdjust="spacingAndGlyphs" textLength="66" x="367" y="411.3198">aggregate</text><text fill="#000000" font-family="sans-serif" font-size="11" lengthAdjust="spacingAndGlyphs" textLength="61" x="433" y="411.3198">: Company</text><text fill="#000000" font-family="sans-serif" font-size="11" lengthAdjust="spacingAndGlyphs" textLength="0" x="371" y="424.1245"/><!--link Address to Person--><path d="M232.085,240.283 C231.895,264.761 231.701,289.772 231.53,311.741 " fill="none" id="Address-Person" style="stroke: #A80036; stroke-width: 1.0;"/><polygon fill="#A80036" points="232.126,235.069,228.0567,244.0379,232.0874,240.0689,236.0565,244.0996,232.126,235.069" style="stroke: #A80036; stroke-width: 1.0;"/><text fill="#000000" font-family="sans-serif" font-size="13" lengthAdjust="spacingAndGlyphs" textLength="52" x="233" y="278.0669">Address</text><!--link Gender to Person--><path d="M65.337,169.219 C75.2371,190.055 88.0184,214.476 102,235 C120.116,261.593 142.668,288.524 163.825,311.84 " fill="none" id="Gender-Person" style="stroke: #A80036; stroke-width: 1.0;"/><polygon fill="#A80036" points="63.1409,164.556,63.3562,174.4025,65.271,169.0796,70.5939,170.9944,63.1409,164.556" style="stroke: #A80036; stroke-width: 1.0;"/><text fill="#000000" font-family="sans-serif" font-size="13" lengthAdjust="spacingAndGlyphs" textLength="47" x="139" y="278.0669">Gender</text><!--link Customer to Person--><path d="M409.326,180.37 C395.038,198.09 379.065,217.515 364,235 C342.037,260.49 317.285,287.832 295.142,311.826 " fill="none" id="Customer-Person" style="stroke: #A80036; stroke-width: 1.0;"/><polygon fill="none" points="403.93,175.91,421.9,164.681,414.855,184.665,403.93,175.91" style="stroke: #A80036; stroke-width: 1.0;"/><!--link Customer to Company--><path d="M455.242,184.842 C455.417,229.802 455.649,289.639 455.81,331.15 " fill="none" id="Customer-Company" style="stroke: #A80036; stroke-width: 1.0;"/><polygon fill="none" points="448.242,184.76,455.164,164.733,462.242,184.705,448.242,184.76" style="stroke: #A80036; stroke-width: 1.0;"/><!--
@startuml
enum Gender {
	Male
	Female
	Other
}
class "Address" as Address  {
	Street: String 
	PostalCode: String 
	HouseNumber: Number 
	HouseNumberExtension: String 
	City: String 
	CountryCode: String 
	Country: Maybe String
- -
  <b>description</b>: The address of a
 person. This is the functional
 location of where a person lives. This
 type is of course designed for the
 Dutch address system.
<b>aggregate</b>: Person
    
}
class "Person " as Person  {
	FirstName: Maybe String
	LastName: String 
	Address: Address 
	Gender: Gender 
	CustomerId: Id  <i>from Customer</i>
- -
  <b>aggregate</b>: Person
    
}
Address <- - Person : Address
Gender <- - Person : Gender
Customer <|- - Person
class "Company " as Company  {
	OrganisationName: String 
	CustomerId: Id  <i>from Customer</i>
- -
  <b>aggregate</b>: Company
    
}
Customer <|- - Company
class "Customer" as Customer  {
	CustomerId: Id 
- -
  <b>aggregate</b>: Customer
    
}
@enduml

PlantUML version 1.2019.05beta2(Unknown compile time)
(GPL source distribution)
Java Runtime: Java(TM) SE Runtime Environment
JVM: Java HotSpot(TM) 64-Bit Server VM
Java Version: 1.7.0_25-b15
Operating System: Linux
Default Encoding: UTF-8
Language: en
Country: US
--></g></svg>