<?xml version="1.0" encoding="UTF-8" standalone="no"?><svg xmlns="http://www.w3.org/2000/svg" xmlns:xlink="http://www.w3.org/1999/xlink" contentScriptType="application/ecmascript" contentStyleType="text/css" height="422px" preserveAspectRatio="none" style="width:763px;height:422px;" version="1.1" viewBox="0 0 763 422" width="763px" zoomAndPan="magnify"><defs><filter height="300%" id="f1074b01felqfe" width="300%" x="-1" y="-1"><feGaussianBlur result="blurOut" stdDeviation="2.0"/><feColorMatrix in="blurOut" result="blurOut2" type="matrix" values="0 0 0 0 0 0 0 0 0 0 0 0 0 0 0 0 0 0 .4 0"/><feOffset dx="4.0" dy="4.0" in="blurOut2" result="blurOut3"/><feBlend in="SourceGraphic" in2="blurOut3" mode="normal"/></filter></defs><g><!--class CreditCard--><rect fill="#FEFECE" filter="url(#f1074b01felqfe)" height="73.6094" id="CreditCard" style="stroke: #A80036; stroke-width: 1.5;" width="128" x="13" y="78"/><ellipse cx="41.5" cy="94" fill="#ADD1B2" rx="11" ry="11" style="stroke: #A80036; stroke-width: 1.0;"/><path d="M43.8438,89.6719 L44.0156,89.75 C44.2344,89.4375 44.4375,89.3438 44.7344,89.3438 C45.0313,89.3438 45.3125,89.4844 45.4688,89.75 C45.5625,89.9063 45.5781,90.0313 45.5781,90.4688 L45.5781,91.8906 C45.5781,92.3125 45.5469,92.5 45.4375,92.6563 C45.2656,92.875 45,93.0156 44.7344,93.0156 C44.5156,93.0156 44.2813,92.9063 44.1406,92.7656 C44,92.6406 43.9688,92.5156 43.9063,92.1094 C43.8125,91.7031 43.6406,91.4844 43.1563,91.2031 C42.6875,90.9531 42.0781,90.7969 41.5,90.7969 C39.7656,90.7969 38.5156,92.1094 38.5156,93.8906 L38.5156,94.9844 C38.5156,96.6875 39.8125,97.7813 41.8594,97.7813 C42.625,97.7813 43.3125,97.6563 43.7344,97.3906 C43.9219,97.2969 43.9219,97.2969 44.375,96.8125 C44.5625,96.625 44.7656,96.5469 44.9844,96.5469 C45.4531,96.5469 45.8438,96.9375 45.8438,97.3906 C45.8438,97.7813 45.5156,98.2344 44.9375,98.6406 C44.1875,99.1875 43.0313,99.4844 41.8125,99.4844 C38.9219,99.4844 36.8125,97.5938 36.8125,95.0156 L36.8125,93.8906 C36.8125,91.1719 38.8125,89.0938 41.4375,89.0938 C42.3125,89.0938 42.9063,89.2344 43.8438,89.6719 Z "/><text fill="#000000" font-family="sans-serif" font-size="12" lengthAdjust="spacingAndGlyphs" textLength="66" x="58.5" y="98.1543">CreditCard</text><line style="stroke: #A80036; stroke-width: 1.5;" x1="14" x2="140" y1="110" y2="110"/><text fill="#000000" font-family="sans-serif" font-size="11" lengthAdjust="spacingAndGlyphs" textLength="87" x="19" y="124.2104">Number: String</text><text fill="#000000" font-family="sans-serif" font-size="11" lengthAdjust="spacingAndGlyphs" textLength="116" x="19" y="137.0151">ExpirationDate: Date</text><line style="stroke: #A80036; stroke-width: 1.5;" x1="14" x2="140" y1="143.6094" y2="143.6094"/><!--class Gender--><rect fill="#FEFECE" filter="url(#f1074b01felqfe)" height="86.4141" id="Gender" style="stroke: #A80036; stroke-width: 1.5;" width="78" x="412" y="72"/><ellipse cx="427" cy="88" fill="#EB937F" rx="11" ry="11" style="stroke: #A80036; stroke-width: 1.0;"/><path d="M425.2969,88.875 L425.2969,91.2969 L429.6563,91.2969 L429.6563,90.4219 C429.6563,89.9375 429.6875,89.7969 429.7969,89.6406 C429.9688,89.3906 430.2344,89.2813 430.5,89.2813 C430.7813,89.2813 431.0625,89.4375 431.2344,89.6875 C431.3125,89.8438 431.3438,89.9844 431.3438,90.4219 L431.3438,93 L423.3438,93 C422.9531,93 422.7188,92.9531 422.5781,92.8281 C422.3594,92.6719 422.2188,92.4219 422.2188,92.1563 C422.2188,91.8594 422.375,91.5938 422.625,91.4219 C422.7813,91.3125 422.9375,91.2969 423.3438,91.2969 L423.5938,91.2969 L423.5938,84.7813 L423.3438,84.7813 C422.9219,84.7813 422.7344,84.75 422.5781,84.6406 C422.3594,84.4688 422.2188,84.2188 422.2188,83.9375 C422.2188,83.6563 422.375,83.3594 422.625,83.2031 C422.7813,83.1094 422.9063,83.0938 423.3438,83.0938 L430.9688,83.0938 L430.9688,85.6406 C430.9688,86.1094 430.9375,86.25 430.8281,86.4219 C430.6563,86.6406 430.3906,86.7813 430.125,86.7813 C429.8438,86.7813 429.5625,86.625 429.3906,86.375 C429.3125,86.2188 429.2813,86.0469 429.2813,85.6406 L429.2813,84.7813 L425.2969,84.7813 L425.2969,87.1875 L426.75,87.1875 L426.75,87.0625 C426.75,86.6094 426.7813,86.4531 426.8906,86.2813 C427.0625,86.0625 427.3281,85.9219 427.5781,85.9219 C428.0313,85.9219 428.3438,86.2344 428.4063,86.7031 C428.4219,86.8594 428.4219,86.9063 428.4219,87.0625 L428.4219,88.9844 C428.4219,89.4375 428.3906,89.5938 428.2656,89.75 C428.1094,89.9688 427.8438,90.1094 427.5938,90.1094 C427.2969,90.1094 427.0156,89.9531 426.8594,89.7031 C426.7813,89.5469 426.75,89.3906 426.75,88.9844 L426.75,88.875 Z "/><text fill="#000000" font-family="sans-serif" font-size="12" lengthAdjust="spacingAndGlyphs" textLength="46" x="441" y="92.1543">Gender</text><line style="stroke: #A80036; stroke-width: 1.5;" x1="413" x2="489" y1="104" y2="104"/><text fill="#000000" font-family="sans-serif" font-size="11" lengthAdjust="spacingAndGlyphs" textLength="26" x="418" y="118.2104">Male</text><text fill="#000000" font-family="sans-serif" font-size="11" lengthAdjust="spacingAndGlyphs" textLength="41" x="418" y="131.0151">Female</text><text fill="#000000" font-family="sans-serif" font-size="11" lengthAdjust="spacingAndGlyphs" textLength="32" x="418" y="143.8198">Other</text><line style="stroke: #A80036; stroke-width: 1.5;" x1="413" x2="489" y1="150.4141" y2="150.4141"/><!--class Address--><rect fill="#FEFECE" filter="url(#f1074b01felqfe)" height="214.4609" id="Address" style="stroke: #A80036; stroke-width: 1.5;" width="227" x="525.5" y="8"/><ellipse cx="609.25" cy="24" fill="#ADD1B2" rx="11" ry="11" style="stroke: #A80036; stroke-width: 1.0;"/><path d="M611.5938,19.6719 L611.7656,19.75 C611.9844,19.4375 612.1875,19.3438 612.4844,19.3438 C612.7813,19.3438 613.0625,19.4844 613.2188,19.75 C613.3125,19.9063 613.3281,20.0313 613.3281,20.4688 L613.3281,21.8906 C613.3281,22.3125 613.2969,22.5 613.1875,22.6563 C613.0156,22.875 612.75,23.0156 612.4844,23.0156 C612.2656,23.0156 612.0313,22.9063 611.8906,22.7656 C611.75,22.6406 611.7188,22.5156 611.6563,22.1094 C611.5625,21.7031 611.3906,21.4844 610.9063,21.2031 C610.4375,20.9531 609.8281,20.7969 609.25,20.7969 C607.5156,20.7969 606.2656,22.1094 606.2656,23.8906 L606.2656,24.9844 C606.2656,26.6875 607.5625,27.7813 609.6094,27.7813 C610.375,27.7813 611.0625,27.6563 611.4844,27.3906 C611.6719,27.2969 611.6719,27.2969 612.125,26.8125 C612.3125,26.625 612.5156,26.5469 612.7344,26.5469 C613.2031,26.5469 613.5938,26.9375 613.5938,27.3906 C613.5938,27.7813 613.2656,28.2344 612.6875,28.6406 C611.9375,29.1875 610.7813,29.4844 609.5625,29.4844 C606.6719,29.4844 604.5625,27.5938 604.5625,25.0156 L604.5625,23.8906 C604.5625,21.1719 606.5625,19.0938 609.1875,19.0938 C610.0625,19.0938 610.6563,19.2344 611.5938,19.6719 Z "/><text fill="#000000" font-family="sans-serif" font-size="12" lengthAdjust="spacingAndGlyphs" textLength="51" x="629.75" y="28.1543">Address</text><line style="stroke: #A80036; stroke-width: 1.5;" x1="526.5" x2="751.5" y1="40" y2="40"/><text fill="#000000" font-family="sans-serif" font-size="11" lengthAdjust="spacingAndGlyphs" textLength="77" x="531.5" y="54.2104">Street: String</text><text fill="#000000" font-family="sans-serif" font-size="11" lengthAdjust="spacingAndGlyphs" textLength="106" x="531.5" y="67.0151">PostalCode: String</text><text fill="#000000" font-family="sans-serif" font-size="11" lengthAdjust="spacingAndGlyphs" textLength="134" x="531.5" y="79.8198">HouseNumber: Number</text><text fill="#000000" font-family="sans-serif" font-size="11" lengthAdjust="spacingAndGlyphs" textLength="178" x="531.5" y="92.6245">HouseNumberExtension: String</text><text fill="#000000" font-family="sans-serif" font-size="11" lengthAdjust="spacingAndGlyphs" textLength="63" x="531.5" y="105.4292">City: String</text><text fill="#000000" font-family="sans-serif" font-size="11" lengthAdjust="spacingAndGlyphs" textLength="115" x="531.5" y="118.2339">CountryCode: String</text><text fill="#000000" font-family="sans-serif" font-size="11" lengthAdjust="spacingAndGlyphs" textLength="126" x="531.5" y="131.0386">Country: Maybe String</text><line style="stroke: #A80036; stroke-width: 1.0;" x1="526.5" x2="751.5" y1="137.6328" y2="137.6328"/><text fill="#000000" font-family="sans-serif" font-size="11" font-weight="bold" lengthAdjust="spacingAndGlyphs" textLength="72" x="531.5" y="151.8433">description</text><text fill="#000000" font-family="sans-serif" font-size="11" lengthAdjust="spacingAndGlyphs" textLength="106" x="603.5" y="151.8433">: The address of a</text><text fill="#000000" font-family="sans-serif" font-size="11" lengthAdjust="spacingAndGlyphs" textLength="167" x="531.5" y="164.6479">person. This is the functional</text><text fill="#000000" font-family="sans-serif" font-size="11" lengthAdjust="spacingAndGlyphs" textLength="215" x="531.5" y="177.4526">location of where a person lives. This</text><text fill="#000000" font-family="sans-serif" font-size="11" lengthAdjust="spacingAndGlyphs" textLength="194" x="531.5" y="190.2573">type is of course designed for the</text><text fill="#000000" font-family="sans-serif" font-size="11" lengthAdjust="spacingAndGlyphs" textLength="133" x="531.5" y="203.062">Dutch address system.</text><text fill="#000000" font-family="sans-serif" font-size="11" lengthAdjust="spacingAndGlyphs" textLength="0" x="535.5" y="215.8667"/><!--class Person--><rect fill="#FEFECE" filter="url(#f1074b01felqfe)" height="112.0234" id="Person" style="stroke: #A80036; stroke-width: 1.5;" width="190" x="408" y="299"/><ellipse cx="444.15" cy="315" fill="#ADD1B2" rx="11" ry="11" style="stroke: #A80036; stroke-width: 1.0;"/><path d="M446.4938,310.6719 L446.6656,310.75 C446.8844,310.4375 447.0875,310.3438 447.3844,310.3438 C447.6813,310.3438 447.9625,310.4844 448.1188,310.75 C448.2125,310.9063 448.2281,311.0313 448.2281,311.4688 L448.2281,312.8906 C448.2281,313.3125 448.1969,313.5 448.0875,313.6563 C447.9156,313.875 447.65,314.0156 447.3844,314.0156 C447.1656,314.0156 446.9313,313.9063 446.7906,313.7656 C446.65,313.6406 446.6188,313.5156 446.5563,313.1094 C446.4625,312.7031 446.2906,312.4844 445.8063,312.2031 C445.3375,311.9531 444.7281,311.7969 444.15,311.7969 C442.4156,311.7969 441.1656,313.1094 441.1656,314.8906 L441.1656,315.9844 C441.1656,317.6875 442.4625,318.7813 444.5094,318.7813 C445.275,318.7813 445.9625,318.6563 446.3844,318.3906 C446.5719,318.2969 446.5719,318.2969 447.025,317.8125 C447.2125,317.625 447.4156,317.5469 447.6344,317.5469 C448.1031,317.5469 448.4938,317.9375 448.4938,318.3906 C448.4938,318.7813 448.1656,319.2344 447.5875,319.6406 C446.8375,320.1875 445.6813,320.4844 444.4625,320.4844 C441.5719,320.4844 439.4625,318.5938 439.4625,316.0156 L439.4625,314.8906 C439.4625,312.1719 441.4625,310.0938 444.0875,310.0938 C444.9625,310.0938 445.5563,310.2344 446.4938,310.6719 Z "/><text fill="#000000" font-family="sans-serif" font-size="12" lengthAdjust="spacingAndGlyphs" textLength="44" x="462.85" y="319.1543">Person</text><rect fill="#FFFFFF" height="15.9688" style="stroke: #000000; stroke-width: 1.0; stroke-dasharray: 2.0,2.0;" width="61" x="540" y="296"/><text fill="#000000" font-family="sans-serif" font-size="12" font-style="italic" lengthAdjust="spacingAndGlyphs" textLength="59" x="541" y="308.1387">Customer</text><line style="stroke: #A80036; stroke-width: 1.5;" x1="409" x2="597" y1="331" y2="331"/><text fill="#000000" font-family="sans-serif" font-size="11" lengthAdjust="spacingAndGlyphs" textLength="140" x="414" y="345.2104">FirstName: Maybe String</text><text fill="#000000" font-family="sans-serif" font-size="11" lengthAdjust="spacingAndGlyphs" textLength="99" x="414" y="358.0151">LastName: String</text><text fill="#000000" font-family="sans-serif" font-size="11" lengthAdjust="spacingAndGlyphs" textLength="102" x="414" y="370.8198">Address: Address</text><text fill="#000000" font-family="sans-serif" font-size="11" lengthAdjust="spacingAndGlyphs" textLength="92" x="414" y="383.6245">Gender: Gender</text><text fill="#000000" font-family="sans-serif" font-size="11" lengthAdjust="spacingAndGlyphs" textLength="84" x="414" y="396.4292">CustomerId: Id</text><text fill="#000000" font-family="sans-serif" font-size="11" font-style="italic" lengthAdjust="spacingAndGlyphs" textLength="86" x="506" y="396.4292">from Customer</text><line style="stroke: #A80036; stroke-width: 1.5;" x1="409" x2="597" y1="403.0234" y2="403.0234"/><!--class Customer--><rect fill="#FEFECE" filter="url(#f1074b01felqfe)" height="60.8047" id="Customer" style="stroke: #A80036; stroke-width: 1.5;" width="96" x="230" y="84.5"/><ellipse cx="246.8" cy="100.5" fill="#ADD1B2" rx="11" ry="11" style="stroke: #A80036; stroke-width: 1.0;"/><path d="M249.1438,96.1719 L249.3156,96.25 C249.5344,95.9375 249.7375,95.8438 250.0344,95.8438 C250.3313,95.8438 250.6125,95.9844 250.7688,96.25 C250.8625,96.4063 250.8781,96.5313 250.8781,96.9688 L250.8781,98.3906 C250.8781,98.8125 250.8469,99 250.7375,99.1563 C250.5656,99.375 250.3,99.5156 250.0344,99.5156 C249.8156,99.5156 249.5813,99.4063 249.4406,99.2656 C249.3,99.1406 249.2688,99.0156 249.2063,98.6094 C249.1125,98.2031 248.9406,97.9844 248.4563,97.7031 C247.9875,97.4531 247.3781,97.2969 246.8,97.2969 C245.0656,97.2969 243.8156,98.6094 243.8156,100.3906 L243.8156,101.4844 C243.8156,103.1875 245.1125,104.2813 247.1594,104.2813 C247.925,104.2813 248.6125,104.1563 249.0344,103.8906 C249.2219,103.7969 249.2219,103.7969 249.675,103.3125 C249.8625,103.125 250.0656,103.0469 250.2844,103.0469 C250.7531,103.0469 251.1438,103.4375 251.1438,103.8906 C251.1438,104.2813 250.8156,104.7344 250.2375,105.1406 C249.4875,105.6875 248.3313,105.9844 247.1125,105.9844 C244.2219,105.9844 242.1125,104.0938 242.1125,101.5156 L242.1125,100.3906 C242.1125,97.6719 244.1125,95.5938 246.7375,95.5938 C247.6125,95.5938 248.2063,95.7344 249.1438,96.1719 Z "/><text fill="#000000" font-family="sans-serif" font-size="12" lengthAdjust="spacingAndGlyphs" textLength="60" x="261.2" y="104.6543">Customer</text><line style="stroke: #A80036; stroke-width: 1.5;" x1="231" x2="325" y1="116.5" y2="116.5"/><text fill="#000000" font-family="sans-serif" font-size="11" lengthAdjust="spacingAndGlyphs" textLength="84" x="236" y="130.7104">CustomerId: Id</text><line style="stroke: #A80036; stroke-width: 1.5;" x1="231" x2="325" y1="137.3047" y2="137.3047"/><!--class PaymentMethod--><rect fill="#FEFECE" filter="url(#f1074b01felqfe)" height="73.6094" id="PaymentMethod" style="stroke: #A80036; stroke-width: 1.5;" width="142" x="6" y="318"/><ellipse cx="25.05" cy="334" fill="#ADD1B2" rx="11" ry="11" style="stroke: #A80036; stroke-width: 1.0;"/><path d="M27.3938,329.6719 L27.5656,329.75 C27.7844,329.4375 27.9875,329.3438 28.2844,329.3438 C28.5813,329.3438 28.8625,329.4844 29.0188,329.75 C29.1125,329.9063 29.1281,330.0313 29.1281,330.4688 L29.1281,331.8906 C29.1281,332.3125 29.0969,332.5 28.9875,332.6563 C28.8156,332.875 28.55,333.0156 28.2844,333.0156 C28.0656,333.0156 27.8313,332.9063 27.6906,332.7656 C27.55,332.6406 27.5188,332.5156 27.4563,332.1094 C27.3625,331.7031 27.1906,331.4844 26.7063,331.2031 C26.2375,330.9531 25.6281,330.7969 25.05,330.7969 C23.3156,330.7969 22.0656,332.1094 22.0656,333.8906 L22.0656,334.9844 C22.0656,336.6875 23.3625,337.7813 25.4094,337.7813 C26.175,337.7813 26.8625,337.6563 27.2844,337.3906 C27.4719,337.2969 27.4719,337.2969 27.925,336.8125 C28.1125,336.625 28.3156,336.5469 28.5344,336.5469 C29.0031,336.5469 29.3938,336.9375 29.3938,337.3906 C29.3938,337.7813 29.0656,338.2344 28.4875,338.6406 C27.7375,339.1875 26.5813,339.4844 25.3625,339.4844 C22.4719,339.4844 20.3625,337.5938 20.3625,335.0156 L20.3625,333.8906 C20.3625,331.1719 22.3625,329.0938 24.9875,329.0938 C25.8625,329.0938 26.4563,329.2344 27.3938,329.6719 Z "/><text fill="#000000" font-family="sans-serif" font-size="12" lengthAdjust="spacingAndGlyphs" textLength="101" x="39.95" y="338.1543">PaymentMethod</text><line style="stroke: #A80036; stroke-width: 1.5;" x1="7" x2="147" y1="350" y2="350"/><text fill="#000000" font-family="sans-serif" font-size="11" lengthAdjust="spacingAndGlyphs" textLength="120" x="12" y="364.2104">Customer: Customer</text><text fill="#000000" font-family="sans-serif" font-size="11" lengthAdjust="spacingAndGlyphs" textLength="130" x="12" y="377.0151">CreditCard: CreditCard</text><line style="stroke: #A80036; stroke-width: 1.5;" x1="7" x2="147" y1="383.6094" y2="383.6094"/><!--class Company--><rect fill="#FEFECE" filter="url(#f1074b01felqfe)" height="73.6094" id="Company" style="stroke: #A80036; stroke-width: 1.5;" width="190" x="183" y="318"/><ellipse cx="213.3" cy="334" fill="#ADD1B2" rx="11" ry="11" style="stroke: #A80036; stroke-width: 1.0;"/><path d="M215.6438,329.6719 L215.8156,329.75 C216.0344,329.4375 216.2375,329.3438 216.5344,329.3438 C216.8313,329.3438 217.1125,329.4844 217.2688,329.75 C217.3625,329.9063 217.3781,330.0313 217.3781,330.4688 L217.3781,331.8906 C217.3781,332.3125 217.3469,332.5 217.2375,332.6563 C217.0656,332.875 216.8,333.0156 216.5344,333.0156 C216.3156,333.0156 216.0813,332.9063 215.9406,332.7656 C215.8,332.6406 215.7688,332.5156 215.7063,332.1094 C215.6125,331.7031 215.4406,331.4844 214.9563,331.2031 C214.4875,330.9531 213.8781,330.7969 213.3,330.7969 C211.5656,330.7969 210.3156,332.1094 210.3156,333.8906 L210.3156,334.9844 C210.3156,336.6875 211.6125,337.7813 213.6594,337.7813 C214.425,337.7813 215.1125,337.6563 215.5344,337.3906 C215.7219,337.2969 215.7219,337.2969 216.175,336.8125 C216.3625,336.625 216.5656,336.5469 216.7844,336.5469 C217.2531,336.5469 217.6438,336.9375 217.6438,337.3906 C217.6438,337.7813 217.3156,338.2344 216.7375,338.6406 C215.9875,339.1875 214.8313,339.4844 213.6125,339.4844 C210.7219,339.4844 208.6125,337.5938 208.6125,335.0156 L208.6125,333.8906 C208.6125,331.1719 210.6125,329.0938 213.2375,329.0938 C214.1125,329.0938 214.7063,329.2344 215.6438,329.6719 Z "/><text fill="#000000" font-family="sans-serif" font-size="12" lengthAdjust="spacingAndGlyphs" textLength="57" x="230.7" y="338.1543">Company</text><rect fill="#FFFFFF" height="15.9688" style="stroke: #000000; stroke-width: 1.0; stroke-dasharray: 2.0,2.0;" width="61" x="315" y="315"/><text fill="#000000" font-family="sans-serif" font-size="12" font-style="italic" lengthAdjust="spacingAndGlyphs" textLength="59" x="316" y="327.1387">Customer</text><line style="stroke: #A80036; stroke-width: 1.5;" x1="184" x2="372" y1="350" y2="350"/><text fill="#000000" font-family="sans-serif" font-size="11" lengthAdjust="spacingAndGlyphs" textLength="148" x="189" y="364.2104">OrganisationName: String</text><text fill="#000000" font-family="sans-serif" font-size="11" lengthAdjust="spacingAndGlyphs" textLength="84" x="189" y="377.0151">CustomerId: Id</text><text fill="#000000" font-family="sans-serif" font-size="11" font-style="italic" lengthAdjust="spacingAndGlyphs" textLength="86" x="281" y="377.0151">from Customer</text><line style="stroke: #A80036; stroke-width: 1.5;" x1="184" x2="372" y1="383.6094" y2="383.6094"/><!--link Address to Person--><path d="M578.358,222.123 C564.147,246.992 549.503,272.62 536.946,294.594 " fill="none" id="Address-Person" style="stroke: #A80036; stroke-width: 1.0;"/><polygon fill="#A80036" points="534.463,298.939,542.4004,293.1082,536.9431,294.5974,535.4539,289.1401,534.463,298.939" style="stroke: #A80036; stroke-width: 1.0;"/><text fill="#000000" font-family="sans-serif" font-size="13" lengthAdjust="spacingAndGlyphs" textLength="52" x="559" y="265.0669">Address</text><!--link Gender to Person--><path d="M460.177,158.002 C468.414,195.703 480.599,251.473 489.868,293.894 " fill="none" id="Gender-Person" style="stroke: #A80036; stroke-width: 1.0;"/><polygon fill="#A80036" points="490.983,298.999,492.9698,289.3526,489.9158,294.1142,485.1541,291.0602,490.983,298.999" style="stroke: #A80036; stroke-width: 1.0;"/><text fill="#000000" font-family="sans-serif" font-size="13" lengthAdjust="spacingAndGlyphs" textLength="47" x="484" y="265.0669">Gender</text><!--link Customer to Person--><path d="M306.041,145.662 C338.605,180.106 393.415,238.084 436.96,284.145 " fill="none" id="Customer-Person" style="stroke: #A80036; stroke-width: 1.0;"/><polygon fill="none" points="442.3,279.604,450.953,298.946,432.127,289.221,442.3,279.604" style="stroke: #A80036; stroke-width: 1.0;"/><!--link Customer to PaymentMethod--><path d="M253.049,145.634 C227.079,176.468 185.218,226.143 149,269 C136.677,283.582 123.151,299.557 111.183,313.6834 " fill="none" id="Customer-PaymentMethod" style="stroke: #A80036; stroke-width: 1.0;"/><polygon fill="#A80036" points="107.851,317.6159,116.7212,313.3357,111.0835,313.8013,110.6179,308.1637,107.851,317.6159" style="stroke: #A80036; stroke-width: 1.0;"/><text fill="#000000" font-family="sans-serif" font-size="13" lengthAdjust="spacingAndGlyphs" textLength="63" x="165" y="265.0669">Customer</text><!--link CreditCard to PaymentMethod--><path d="M76.0214,152.168 C75.3036,183.171 74.5297,229.023 75,269 C75.167,283.197 75.4909,298.726 75.8301,312.5806 " fill="none" id="CreditCard-PaymentMethod" style="stroke: #A80036; stroke-width: 1.0;"/><polygon fill="#A80036" points="75.9555,317.6037,79.7295,308.5066,75.8306,312.6053,71.732,308.7064,75.9555,317.6037" style="stroke: #A80036; stroke-width: 1.0;"/><text fill="#000000" font-family="sans-serif" font-size="13" lengthAdjust="spacingAndGlyphs" textLength="68" x="76" y="265.0669">CreditCard</text><!--link Customer to Company--><path d="M278,145.662 C278,183.568 278,249.975 278,297.634 " fill="none" id="Customer-Company" style="stroke: #A80036; stroke-width: 1.0;"/><polygon fill="none" points="285,297.726,278,317.7255,271,297.725,285,297.726" style="stroke: #A80036; stroke-width: 1.0;"/><!--
@startuml
class "CreditCard" as CreditCard  {
	Number: String 
	ExpirationDate: Date 
}
enum Gender {
	Male
	Female
	Other

}
class "Address" as Address  {
	Street: String 
	PostalCode: String 
	HouseNumber: Number 
	HouseNumberExtension: String 
	City: String 
	CountryCode: String 
	Country: Maybe String
- -
  <b>description</b>: The address of a
 person. This is the functional
 location of where a person lives. This
 type is of course designed for the
 Dutch address system.
    
}
class "Person " as Person <Customer> {
	FirstName: Maybe String
	LastName: String 
	Address: Address 
	Gender: Gender 
	CustomerId: Id  <i>from Customer</i>
}
Address - -> Person : Address
Gender - -> Person : Gender
Customer - -|> Person
class "PaymentMethod" as PaymentMethod  {
	Customer: Customer 
	CreditCard: CreditCard 
}
Customer - -> PaymentMethod : Customer
CreditCard - -> PaymentMethod : CreditCard
class "Company " as Company <Customer> {
	OrganisationName: String 
	CustomerId: Id  <i>from Customer</i>
}
Customer - -|> Company
class "Customer" as Customer  {
	CustomerId: Id 
}
@enduml

PlantUML version 1.2019.05beta2(Unknown compile time)
(GPL source distribution)
Java Runtime: Java(TM) SE Runtime Environment
JVM: Java HotSpot(TM) 64-Bit Server VM
Java Version: 1.7.0_25-b15
Operating System: Linux
Default Encoding: UTF-8
Language: en
Country: US
--></g></svg>