<?xml version="1.0" encoding="UTF-8" standalone="no"?><svg xmlns="http://www.w3.org/2000/svg" xmlns:xlink="http://www.w3.org/1999/xlink" contentScriptType="application/ecmascript" contentStyleType="text/css" height="380px" preserveAspectRatio="none" style="width:307px;height:380px;" version="1.1" viewBox="0 0 307 380" width="307px" zoomAndPan="magnify"><defs><filter height="300%" id="fphd7lean4iz0" width="300%" x="-1" y="-1"><feGaussianBlur result="blurOut" stdDeviation="2.0"/><feColorMatrix in="blurOut" result="blurOut2" type="matrix" values="0 0 0 0 0 0 0 0 0 0 0 0 0 0 0 0 0 0 .4 0"/><feOffset dx="4.0" dy="4.0" in="blurOut2" result="blurOut3"/><feBlend in="SourceGraphic" in2="blurOut3" mode="normal"/></filter></defs><g><!--class Skill--><rect fill="#FEFECE" filter="url(#fphd7lean4iz0)" height="176.0469" id="Skill" style="stroke: #A80036; stroke-width: 1.5;" width="222" x="35" y="193"/><ellipse cx="72.05" cy="209" fill="#ADD1B2" rx="11" ry="11" style="stroke: #A80036; stroke-width: 1.0;"/><path d="M74.3938,204.6719 L74.5656,204.75 C74.7844,204.4375 74.9875,204.3438 75.2844,204.3438 C75.5813,204.3438 75.8625,204.4844 76.0188,204.75 C76.1125,204.9063 76.1281,205.0313 76.1281,205.4688 L76.1281,206.8906 C76.1281,207.3125 76.0969,207.5 75.9875,207.6563 C75.8156,207.875 75.55,208.0156 75.2844,208.0156 C75.0656,208.0156 74.8313,207.9063 74.6906,207.7656 C74.55,207.6406 74.5188,207.5156 74.4563,207.1094 C74.3625,206.7031 74.1906,206.4844 73.7063,206.2031 C73.2375,205.9531 72.6281,205.7969 72.05,205.7969 C70.3156,205.7969 69.0656,207.1094 69.0656,208.8906 L69.0656,209.9844 C69.0656,211.6875 70.3625,212.7813 72.4094,212.7813 C73.175,212.7813 73.8625,212.6563 74.2844,212.3906 C74.4719,212.2969 74.4719,212.2969 74.925,211.8125 C75.1125,211.625 75.3156,211.5469 75.5344,211.5469 C76.0031,211.5469 76.3938,211.9375 76.3938,212.3906 C76.3938,212.7813 76.0656,213.2344 75.4875,213.6406 C74.7375,214.1875 73.5813,214.4844 72.3625,214.4844 C69.4719,214.4844 67.3625,212.5938 67.3625,210.0156 L67.3625,208.8906 C67.3625,206.1719 69.3625,204.0938 71.9875,204.0938 C72.8625,204.0938 73.4563,204.2344 74.3938,204.6719 Z "/><text fill="#000000" font-family="sans-serif" font-size="12" lengthAdjust="spacingAndGlyphs" textLength="24" x="90.95" y="213.1543">Skill</text><rect fill="#FFFFFF" height="15.9688" style="stroke: #000000; stroke-width: 1.0; stroke-dasharray: 2.0,2.0;" width="111" x="149" y="190"/><text fill="#000000" font-family="sans-serif" font-size="12" font-style="italic" lengthAdjust="spacingAndGlyphs" textLength="109" x="150" y="202.1387">Namable,Buyable</text><line style="stroke: #A80036; stroke-width: 1.5;" x1="36" x2="256" y1="225" y2="225"/><text fill="#000000" font-family="sans-serif" font-size="11" lengthAdjust="spacingAndGlyphs" textLength="75" x="41" y="239.2104">Name: String</text><text fill="#000000" font-family="sans-serif" font-size="11" font-style="italic" lengthAdjust="spacingAndGlyphs" textLength="81" x="124" y="239.2104">from Namable</text><text fill="#000000" font-family="sans-serif" font-size="11" lengthAdjust="spacingAndGlyphs" textLength="106" x="41" y="252.0151">Description: String</text><text fill="#000000" font-family="sans-serif" font-size="11" font-style="italic" lengthAdjust="spacingAndGlyphs" textLength="81" x="155" y="252.0151">from Namable</text><text fill="#000000" font-family="sans-serif" font-size="11" lengthAdjust="spacingAndGlyphs" textLength="117" x="41" y="264.8198">Source: BoughtFrom</text><text fill="#000000" font-family="sans-serif" font-size="11" font-style="italic" lengthAdjust="spacingAndGlyphs" textLength="77" x="166" y="264.8198">from Buyable</text><text fill="#000000" font-family="sans-serif" font-size="11" lengthAdjust="spacingAndGlyphs" textLength="54" x="41" y="277.6245">Stat: Stat</text><text fill="#000000" font-family="sans-serif" font-size="11" font-style="italic" lengthAdjust="spacingAndGlyphs" textLength="77" x="103" y="277.6245">from Buyable</text><text fill="#000000" font-family="sans-serif" font-size="11" lengthAdjust="spacingAndGlyphs" textLength="94" x="41" y="290.4292">Bought: Boolean</text><text fill="#000000" font-family="sans-serif" font-size="11" font-style="italic" lengthAdjust="spacingAndGlyphs" textLength="77" x="143" y="290.4292">from Buyable</text><text fill="#000000" font-family="sans-serif" font-size="11" lengthAdjust="spacingAndGlyphs" textLength="91" x="41" y="303.2339">Skilled: Boolean</text><text fill="#000000" font-family="sans-serif" font-size="11" font-style="italic" lengthAdjust="spacingAndGlyphs" textLength="77" x="140" y="303.2339">from Buyable</text><text fill="#000000" font-family="sans-serif" font-size="11" lengthAdjust="spacingAndGlyphs" textLength="125" x="41" y="316.0386">Professional: Boolean</text><text fill="#000000" font-family="sans-serif" font-size="11" font-style="italic" lengthAdjust="spacingAndGlyphs" textLength="77" x="174" y="316.0386">from Buyable</text><text fill="#000000" font-family="sans-serif" font-size="11" lengthAdjust="spacingAndGlyphs" textLength="93" x="41" y="328.8433">Master: Boolean</text><text fill="#000000" font-family="sans-serif" font-size="11" font-style="italic" lengthAdjust="spacingAndGlyphs" textLength="77" x="142" y="328.8433">from Buyable</text><line style="stroke: #A80036; stroke-width: 1.0;" x1="36" x2="256" y1="335.4375" y2="335.4375"/><line style="stroke: #A80036; stroke-width: 1.0;" x1="36" x2="256" y1="337.4375" y2="337.4375"/><text fill="#000000" font-family="sans-serif" font-size="11" font-weight="bold" lengthAdjust="spacingAndGlyphs" textLength="72" x="41" y="349.6479">description</text><text fill="#000000" font-family="sans-serif" font-size="11" lengthAdjust="spacingAndGlyphs" textLength="55" x="113" y="349.6479">: A skill is</text><text fill="#000000" font-family="sans-serif" font-size="11" lengthAdjust="spacingAndGlyphs" textLength="171" x="41" y="362.4526">something a character can do</text><!--class Namable--><rect fill="#FEFECE" filter="url(#fphd7lean4iz0)" height="73.6094" id="Namable" style="stroke: #A80036; stroke-width: 1.5;" width="118" x="6" y="33.5"/><ellipse cx="34.95" cy="49.5" fill="#ADD1B2" rx="11" ry="11" style="stroke: #A80036; stroke-width: 1.0;"/><path d="M37.2938,45.1719 L37.4656,45.25 C37.6844,44.9375 37.8875,44.8438 38.1844,44.8438 C38.4813,44.8438 38.7625,44.9844 38.9188,45.25 C39.0125,45.4063 39.0281,45.5313 39.0281,45.9688 L39.0281,47.3906 C39.0281,47.8125 38.9969,48 38.8875,48.1563 C38.7156,48.375 38.45,48.5156 38.1844,48.5156 C37.9656,48.5156 37.7313,48.4063 37.5906,48.2656 C37.45,48.1406 37.4188,48.0156 37.3563,47.6094 C37.2625,47.2031 37.0906,46.9844 36.6063,46.7031 C36.1375,46.4531 35.5281,46.2969 34.95,46.2969 C33.2156,46.2969 31.9656,47.6094 31.9656,49.3906 L31.9656,50.4844 C31.9656,52.1875 33.2625,53.2813 35.3094,53.2813 C36.075,53.2813 36.7625,53.1563 37.1844,52.8906 C37.3719,52.7969 37.3719,52.7969 37.825,52.3125 C38.0125,52.125 38.2156,52.0469 38.4344,52.0469 C38.9031,52.0469 39.2938,52.4375 39.2938,52.8906 C39.2938,53.2813 38.9656,53.7344 38.3875,54.1406 C37.6375,54.6875 36.4813,54.9844 35.2625,54.9844 C32.3719,54.9844 30.2625,53.0938 30.2625,50.5156 L30.2625,49.3906 C30.2625,46.6719 32.2625,44.5938 34.8875,44.5938 C35.7625,44.5938 36.3563,44.7344 37.2938,45.1719 Z "/><text fill="#000000" font-family="sans-serif" font-size="12" lengthAdjust="spacingAndGlyphs" textLength="55" x="52.05" y="53.6543">Namable</text><line style="stroke: #A80036; stroke-width: 1.5;" x1="7" x2="123" y1="65.5" y2="65.5"/><text fill="#000000" font-family="sans-serif" font-size="11" lengthAdjust="spacingAndGlyphs" textLength="75" x="12" y="79.7104">Name: String</text><text fill="#000000" font-family="sans-serif" font-size="11" lengthAdjust="spacingAndGlyphs" textLength="106" x="12" y="92.5151">Description: String</text><line style="stroke: #A80036; stroke-width: 1.5;" x1="7" x2="123" y1="99.1094" y2="99.1094"/><!--class Buyable--><rect fill="#FEFECE" filter="url(#fphd7lean4iz0)" height="124.8281" id="Buyable" style="stroke: #A80036; stroke-width: 1.5;" width="137" x="159.5" y="8"/><ellipse cx="199.7" cy="24" fill="#ADD1B2" rx="11" ry="11" style="stroke: #A80036; stroke-width: 1.0;"/><path d="M202.0438,19.6719 L202.2156,19.75 C202.4344,19.4375 202.6375,19.3438 202.9344,19.3438 C203.2313,19.3438 203.5125,19.4844 203.6688,19.75 C203.7625,19.9063 203.7781,20.0313 203.7781,20.4688 L203.7781,21.8906 C203.7781,22.3125 203.7469,22.5 203.6375,22.6563 C203.4656,22.875 203.2,23.0156 202.9344,23.0156 C202.7156,23.0156 202.4813,22.9063 202.3406,22.7656 C202.2,22.6406 202.1688,22.5156 202.1063,22.1094 C202.0125,21.7031 201.8406,21.4844 201.3563,21.2031 C200.8875,20.9531 200.2781,20.7969 199.7,20.7969 C197.9656,20.7969 196.7156,22.1094 196.7156,23.8906 L196.7156,24.9844 C196.7156,26.6875 198.0125,27.7813 200.0594,27.7813 C200.825,27.7813 201.5125,27.6563 201.9344,27.3906 C202.1219,27.2969 202.1219,27.2969 202.575,26.8125 C202.7625,26.625 202.9656,26.5469 203.1844,26.5469 C203.6531,26.5469 204.0438,26.9375 204.0438,27.3906 C204.0438,27.7813 203.7156,28.2344 203.1375,28.6406 C202.3875,29.1875 201.2313,29.4844 200.0125,29.4844 C197.1219,29.4844 195.0125,27.5938 195.0125,25.0156 L195.0125,23.8906 C195.0125,21.1719 197.0125,19.0938 199.6375,19.0938 C200.5125,19.0938 201.1063,19.2344 202.0438,19.6719 Z "/><text fill="#000000" font-family="sans-serif" font-size="12" lengthAdjust="spacingAndGlyphs" textLength="49" x="219.3" y="28.1543">Buyable</text><line style="stroke: #A80036; stroke-width: 1.5;" x1="160.5" x2="295.5" y1="40" y2="40"/><text fill="#000000" font-family="sans-serif" font-size="11" lengthAdjust="spacingAndGlyphs" textLength="117" x="165.5" y="54.2104">Source: BoughtFrom</text><text fill="#000000" font-family="sans-serif" font-size="11" lengthAdjust="spacingAndGlyphs" textLength="54" x="165.5" y="67.0151">Stat: Stat</text><text fill="#000000" font-family="sans-serif" font-size="11" lengthAdjust="spacingAndGlyphs" textLength="94" x="165.5" y="79.8198">Bought: Boolean</text><text fill="#000000" font-family="sans-serif" font-size="11" lengthAdjust="spacingAndGlyphs" textLength="91" x="165.5" y="92.6245">Skilled: Boolean</text><text fill="#000000" font-family="sans-serif" font-size="11" lengthAdjust="spacingAndGlyphs" textLength="125" x="165.5" y="105.4292">Professional: Boolean</text><text fill="#000000" font-family="sans-serif" font-size="11" lengthAdjust="spacingAndGlyphs" textLength="93" x="165.5" y="118.2339">Master: Boolean</text><line style="stroke: #A80036; stroke-width: 1.5;" x1="160.5" x2="295.5" y1="124.8281" y2="124.8281"/><!--link Namable to Skill--><path d="M79.1091,107.818 C86.3695,126.507 95.634,150.354 104.9381,174.304 " fill="none" id="Namable-Skill" style="stroke: #A80036; stroke-width: 1.0;"/><polygon fill="none" points="111.481,171.815,112.199,192.993,98.4312,176.885,111.481,171.815" style="stroke: #A80036; stroke-width: 1.0;"/><!--link Buyable to Skill--><path d="M203.73,133.211 C198.665,146.089 193.189,160.013 187.696,173.98 " fill="none" id="Buyable-Skill" style="stroke: #A80036; stroke-width: 1.0;"/><polygon fill="none" points="194.067,176.907,180.233,192.957,181.038,171.783,194.067,176.907" style="stroke: #A80036; stroke-width: 1.0;"/><!--
@startuml
class "Skill " as Skill <Namable,Buyable> {
	Name: String  <i>from Namable</i>
	Description: String  <i>from Namable</i>
	Source: BoughtFrom  <i>from Buyable</i>
	Stat: Stat  <i>from Buyable</i>
	Bought: Boolean  <i>from Buyable</i>
	Skilled: Boolean  <i>from Buyable</i>
	Professional: Boolean  <i>from Buyable</i>
	Master: Boolean  <i>from Buyable</i>
===
  <b>description</b>: A skill is
 something a character can do
}
Namable - -|> Skill
Buyable - -|> Skill
class "Namable" as Namable  {
	Name: String 
	Description: String 
}
class "Buyable" as Buyable  {
	Source: BoughtFrom 
	Stat: Stat 
	Bought: Boolean 
	Skilled: Boolean 
	Professional: Boolean 
	Master: Boolean 
}
@enduml

PlantUML version 1.2019.05(Sat Apr 20 16:45:36 UTC 2019)
(GPL source distribution)
Java Runtime: Java(TM) SE Runtime Environment
JVM: Java HotSpot(TM) 64-Bit Server VM
Java Version: 1.7.0_25-b15
Operating System: Linux
Default Encoding: UTF-8
Language: en
Country: US
--></g></svg>