<?xml version="1.0" encoding="UTF-8" standalone="no"?><svg xmlns="http://www.w3.org/2000/svg" xmlns:xlink="http://www.w3.org/1999/xlink" contentScriptType="application/ecmascript" contentStyleType="text/css" height="409px" preserveAspectRatio="none" style="width:753px;height:409px;" version="1.1" viewBox="0 0 753 409" width="753px" zoomAndPan="magnify"><defs><filter height="300%" id="fmovza8jzmxwr" width="300%" x="-1" y="-1"><feGaussianBlur result="blurOut" stdDeviation="2.0"/><feColorMatrix in="blurOut" result="blurOut2" type="matrix" values="0 0 0 0 0 0 0 0 0 0 0 0 0 0 0 0 0 0 .4 0"/><feOffset dx="4.0" dy="4.0" in="blurOut2" result="blurOut3"/><feBlend in="SourceGraphic" in2="blurOut3" mode="normal"/></filter></defs><g><!--class Statistic--><rect fill="#FEFECE" filter="url(#fmovza8jzmxwr)" height="150.4375" id="Statistic" style="stroke: #A80036; stroke-width: 1.5;" width="226" x="82.9763" y="8"/><ellipse cx="166.2263" cy="24" fill="#ADD1B2" rx="11" ry="11" style="stroke: #A80036; stroke-width: 1.0;"/><path d="M168.57,19.6719 L168.7419,19.75 C168.9607,19.4375 169.1638,19.3438 169.4607,19.3438 C169.7575,19.3438 170.0388,19.4844 170.195,19.75 C170.2888,19.9063 170.3044,20.0313 170.3044,20.4688 L170.3044,21.8906 C170.3044,22.3125 170.2732,22.5 170.1638,22.6563 C169.9919,22.875 169.7263,23.0156 169.4607,23.0156 C169.2419,23.0156 169.0075,22.9063 168.8669,22.7656 C168.7263,22.6406 168.695,22.5156 168.6325,22.1094 C168.5388,21.7031 168.3669,21.4844 167.8825,21.2031 C167.4138,20.9531 166.8044,20.7969 166.2263,20.7969 C164.4919,20.7969 163.2419,22.1094 163.2419,23.8906 L163.2419,24.9844 C163.2419,26.6875 164.5388,27.7813 166.5857,27.7813 C167.3513,27.7813 168.0388,27.6563 168.4607,27.3906 C168.6482,27.2969 168.6482,27.2969 169.1013,26.8125 C169.2888,26.625 169.4919,26.5469 169.7107,26.5469 C170.1794,26.5469 170.57,26.9375 170.57,27.3906 C170.57,27.7813 170.2419,28.2344 169.6638,28.6406 C168.9138,29.1875 167.7575,29.4844 166.5388,29.4844 C163.6482,29.4844 161.5388,27.5938 161.5388,25.0156 L161.5388,23.8906 C161.5388,21.1719 163.5388,19.0938 166.1638,19.0938 C167.0388,19.0938 167.6325,19.2344 168.57,19.6719 Z "/><text fill="#000000" font-family="sans-serif" font-size="12" lengthAdjust="spacingAndGlyphs" textLength="51" x="186.7263" y="28.1543">Statistic</text><line style="stroke: #A80036; stroke-width: 1.5;" x1="83.9763" x2="307.9763" y1="40" y2="40"/><text fill="#000000" font-family="sans-serif" font-size="11" lengthAdjust="spacingAndGlyphs" textLength="54" x="88.9763" y="54.2104">Stat: Stat</text><text fill="#000000" font-family="sans-serif" font-size="11" lengthAdjust="spacingAndGlyphs" textLength="106" x="88.9763" y="67.0151">Description: String</text><text fill="#000000" font-family="sans-serif" font-size="11" lengthAdjust="spacingAndGlyphs" textLength="36" x="88.9763" y="79.8198">XP: XP</text><text fill="#000000" font-family="sans-serif" font-size="11" lengthAdjust="spacingAndGlyphs" textLength="84" x="88.9763" y="92.6245">Value: Number</text><line style="stroke: #A80036; stroke-width: 1.0;" x1="83.9763" x2="307.9763" y1="99.2188" y2="99.2188"/><line style="stroke: #A80036; stroke-width: 1.0;" x1="83.9763" x2="307.9763" y1="101.2188" y2="101.2188"/><text fill="#000000" font-family="sans-serif" font-size="11" font-weight="bold" lengthAdjust="spacingAndGlyphs" textLength="72" x="88.9763" y="113.4292">description</text><text fill="#000000" font-family="sans-serif" font-size="11" lengthAdjust="spacingAndGlyphs" textLength="89" x="160.9763" y="113.4292">: A statistic is a</text><text fill="#000000" font-family="sans-serif" font-size="11" lengthAdjust="spacingAndGlyphs" textLength="214" x="88.9763" y="126.2339">base value for a character's potential</text><text fill="#000000" font-family="sans-serif" font-size="11" lengthAdjust="spacingAndGlyphs" textLength="209" x="88.9763" y="139.0386">Statistics serve as a base bonus for</text><text fill="#000000" font-family="sans-serif" font-size="11" lengthAdjust="spacingAndGlyphs" textLength="91" x="88.9763" y="151.8433">certain abilities.</text><!--class Character--><rect fill="#FEFECE" filter="url(#fmovza8jzmxwr)" height="163.2422" id="Character" style="stroke: #A80036; stroke-width: 1.5;" width="133" x="277.476" y="235"/><ellipse cx="310.026" cy="251" fill="#ADD1B2" rx="11" ry="11" style="stroke: #A80036; stroke-width: 1.0;"/><path d="M312.3698,246.6719 L312.5416,246.75 C312.7604,246.4375 312.9635,246.3438 313.2604,246.3438 C313.5573,246.3438 313.8385,246.4844 313.9948,246.75 C314.0885,246.9063 314.1041,247.0313 314.1041,247.4688 L314.1041,248.8906 C314.1041,249.3125 314.0729,249.5 313.9635,249.6563 C313.7916,249.875 313.526,250.0156 313.2604,250.0156 C313.0416,250.0156 312.8073,249.9063 312.6666,249.7656 C312.526,249.6406 312.4948,249.5156 312.4323,249.1094 C312.3385,248.7031 312.1666,248.4844 311.6823,248.2031 C311.2135,247.9531 310.6041,247.7969 310.026,247.7969 C308.2916,247.7969 307.0416,249.1094 307.0416,250.8906 L307.0416,251.9844 C307.0416,253.6875 308.3385,254.7813 310.3854,254.7813 C311.151,254.7813 311.8385,254.6563 312.2604,254.3906 C312.4479,254.2969 312.4479,254.2969 312.901,253.8125 C313.0885,253.625 313.2916,253.5469 313.5104,253.5469 C313.9791,253.5469 314.3698,253.9375 314.3698,254.3906 C314.3698,254.7813 314.0416,255.2344 313.4635,255.6406 C312.7135,256.1875 311.5573,256.4844 310.3385,256.4844 C307.4479,256.4844 305.3385,254.5938 305.3385,252.0156 L305.3385,250.8906 C305.3385,248.1719 307.3385,246.0938 309.9635,246.0938 C310.8385,246.0938 311.4323,246.2344 312.3698,246.6719 Z "/><text fill="#000000" font-family="sans-serif" font-size="12" lengthAdjust="spacingAndGlyphs" textLength="62" x="327.926" y="255.1543">Character</text><line style="stroke: #A80036; stroke-width: 1.5;" x1="278.476" x2="409.476" y1="267" y2="267"/><text fill="#000000" font-family="sans-serif" font-size="11" lengthAdjust="spacingAndGlyphs" textLength="75" x="283.476" y="281.2104">Name: String</text><text fill="#000000" font-family="sans-serif" font-size="11" lengthAdjust="spacingAndGlyphs" textLength="85" x="283.476" y="294.0151">Skills: List Skill</text><text fill="#000000" font-family="sans-serif" font-size="11" lengthAdjust="spacingAndGlyphs" textLength="121" x="283.476" y="306.8198">Specials: List Special</text><text fill="#000000" font-family="sans-serif" font-size="11" lengthAdjust="spacingAndGlyphs" textLength="87" x="283.476" y="319.6245">Feats: List Feat</text><text fill="#000000" font-family="sans-serif" font-size="11" lengthAdjust="spacingAndGlyphs" textLength="103" x="283.476" y="332.4292">Strength: Statistic</text><text fill="#000000" font-family="sans-serif" font-size="11" lengthAdjust="spacingAndGlyphs" textLength="87" x="283.476" y="345.2339">Agility: Statistic</text><text fill="#000000" font-family="sans-serif" font-size="11" lengthAdjust="spacingAndGlyphs" textLength="99" x="283.476" y="358.0386">Intuition: Statistic</text><text fill="#000000" font-family="sans-serif" font-size="11" lengthAdjust="spacingAndGlyphs" textLength="114" x="283.476" y="370.8433">Perception: Statistic</text><text fill="#000000" font-family="sans-serif" font-size="11" lengthAdjust="spacingAndGlyphs" textLength="109" x="283.476" y="383.6479">Charisma: Statistic</text><line style="stroke: #A80036; stroke-width: 1.5;" x1="278.476" x2="409.476" y1="390.2422" y2="390.2422"/><!--class Skill--><rect fill="#FEFECE" filter="url(#fmovza8jzmxwr)" height="48" id="Skill" style="stroke: #A80036; stroke-width: 1.5;" width="56" x="470.976" y="59"/><ellipse cx="485.976" cy="75" fill="#ADD1B2" rx="11" ry="11" style="stroke: #A80036; stroke-width: 1.0;"/><path d="M488.3198,70.6719 L488.4916,70.75 C488.7104,70.4375 488.9135,70.3438 489.2104,70.3438 C489.5073,70.3438 489.7885,70.4844 489.9448,70.75 C490.0385,70.9063 490.0541,71.0313 490.0541,71.4688 L490.0541,72.8906 C490.0541,73.3125 490.0229,73.5 489.9135,73.6563 C489.7416,73.875 489.476,74.0156 489.2104,74.0156 C488.9916,74.0156 488.7573,73.9063 488.6166,73.7656 C488.476,73.6406 488.4448,73.5156 488.3823,73.1094 C488.2885,72.7031 488.1166,72.4844 487.6323,72.2031 C487.1635,71.9531 486.5541,71.7969 485.976,71.7969 C484.2416,71.7969 482.9916,73.1094 482.9916,74.8906 L482.9916,75.9844 C482.9916,77.6875 484.2885,78.7813 486.3354,78.7813 C487.101,78.7813 487.7885,78.6563 488.2104,78.3906 C488.3979,78.2969 488.3979,78.2969 488.851,77.8125 C489.0385,77.625 489.2416,77.5469 489.4604,77.5469 C489.9291,77.5469 490.3198,77.9375 490.3198,78.3906 C490.3198,78.7813 489.9916,79.2344 489.4135,79.6406 C488.6635,80.1875 487.5073,80.4844 486.2885,80.4844 C483.3979,80.4844 481.2885,78.5938 481.2885,76.0156 L481.2885,74.8906 C481.2885,72.1719 483.2885,70.0938 485.9135,70.0938 C486.7885,70.0938 487.3823,70.2344 488.3198,70.6719 Z "/><text fill="#000000" font-family="sans-serif" font-size="12" lengthAdjust="spacingAndGlyphs" textLength="24" x="499.976" y="79.1543">Skill</text><line style="stroke: #A80036; stroke-width: 1.5;" x1="471.976" x2="525.976" y1="91" y2="91"/><line style="stroke: #A80036; stroke-width: 1.5;" x1="471.976" x2="525.976" y1="99" y2="99"/><!--class Special--><rect fill="#FEFECE" filter="url(#fmovza8jzmxwr)" height="48" id="Special" style="stroke: #A80036; stroke-width: 1.5;" width="77" x="562.476" y="59"/><ellipse cx="577.476" cy="75" fill="#ADD1B2" rx="11" ry="11" style="stroke: #A80036; stroke-width: 1.0;"/><path d="M579.8198,70.6719 L579.9916,70.75 C580.2104,70.4375 580.4135,70.3438 580.7104,70.3438 C581.0073,70.3438 581.2885,70.4844 581.4448,70.75 C581.5385,70.9063 581.5541,71.0313 581.5541,71.4688 L581.5541,72.8906 C581.5541,73.3125 581.5229,73.5 581.4135,73.6563 C581.2416,73.875 580.976,74.0156 580.7104,74.0156 C580.4916,74.0156 580.2573,73.9063 580.1166,73.7656 C579.976,73.6406 579.9448,73.5156 579.8823,73.1094 C579.7885,72.7031 579.6166,72.4844 579.1323,72.2031 C578.6635,71.9531 578.0541,71.7969 577.476,71.7969 C575.7416,71.7969 574.4916,73.1094 574.4916,74.8906 L574.4916,75.9844 C574.4916,77.6875 575.7885,78.7813 577.8354,78.7813 C578.601,78.7813 579.2885,78.6563 579.7104,78.3906 C579.8979,78.2969 579.8979,78.2969 580.351,77.8125 C580.5385,77.625 580.7416,77.5469 580.9604,77.5469 C581.4291,77.5469 581.8198,77.9375 581.8198,78.3906 C581.8198,78.7813 581.4916,79.2344 580.9135,79.6406 C580.1635,80.1875 579.0073,80.4844 577.7885,80.4844 C574.8979,80.4844 572.7885,78.5938 572.7885,76.0156 L572.7885,74.8906 C572.7885,72.1719 574.7885,70.0938 577.4135,70.0938 C578.2885,70.0938 578.8823,70.2344 579.8198,70.6719 Z "/><text fill="#000000" font-family="sans-serif" font-size="12" lengthAdjust="spacingAndGlyphs" textLength="45" x="591.476" y="79.1543">Special</text><line style="stroke: #A80036; stroke-width: 1.5;" x1="563.476" x2="638.476" y1="91" y2="91"/><line style="stroke: #A80036; stroke-width: 1.5;" x1="563.476" x2="638.476" y1="99" y2="99"/><!--class Feat--><rect fill="#FEFECE" filter="url(#fmovza8jzmxwr)" height="48" id="Feat" style="stroke: #A80036; stroke-width: 1.5;" width="60" x="682.976" y="59"/><ellipse cx="697.976" cy="75" fill="#ADD1B2" rx="11" ry="11" style="stroke: #A80036; stroke-width: 1.0;"/><path d="M700.3198,70.6719 L700.4916,70.75 C700.7104,70.4375 700.9135,70.3438 701.2104,70.3438 C701.5073,70.3438 701.7885,70.4844 701.9448,70.75 C702.0385,70.9063 702.0541,71.0313 702.0541,71.4688 L702.0541,72.8906 C702.0541,73.3125 702.0229,73.5 701.9135,73.6563 C701.7416,73.875 701.476,74.0156 701.2104,74.0156 C700.9916,74.0156 700.7573,73.9063 700.6166,73.7656 C700.476,73.6406 700.4448,73.5156 700.3823,73.1094 C700.2885,72.7031 700.1166,72.4844 699.6323,72.2031 C699.1635,71.9531 698.5541,71.7969 697.976,71.7969 C696.2416,71.7969 694.9916,73.1094 694.9916,74.8906 L694.9916,75.9844 C694.9916,77.6875 696.2885,78.7813 698.3354,78.7813 C699.101,78.7813 699.7885,78.6563 700.2104,78.3906 C700.3979,78.2969 700.3979,78.2969 700.851,77.8125 C701.0385,77.625 701.2416,77.5469 701.4604,77.5469 C701.9291,77.5469 702.3198,77.9375 702.3198,78.3906 C702.3198,78.7813 701.9916,79.2344 701.4135,79.6406 C700.6635,80.1875 699.5073,80.4844 698.2885,80.4844 C695.3979,80.4844 693.2885,78.5938 693.2885,76.0156 L693.2885,74.8906 C693.2885,72.1719 695.2885,70.0938 697.9135,70.0938 C698.7885,70.0938 699.3823,70.2344 700.3198,70.6719 Z "/><text fill="#000000" font-family="sans-serif" font-size="12" lengthAdjust="spacingAndGlyphs" textLength="28" x="711.976" y="79.1543">Feat</text><line style="stroke: #A80036; stroke-width: 1.5;" x1="683.976" x2="741.976" y1="91" y2="91"/><line style="stroke: #A80036; stroke-width: 1.5;" x1="683.976" x2="741.976" y1="99" y2="99"/><!--link Statistic to Character--><path d="M82.7622,115.64 C31.1047,136.06 -12.9927,166.102 14.9763,205 C73.4034,286.258 194.518,308.589 272.374,314.2522 " fill="none" id="Statistic-Character" style="stroke: #A80036; stroke-width: 1.0;"/><polygon fill="#A80036" points="277.438,314.6016,268.7348,309.9914,272.4499,314.2573,268.1839,317.9724,277.438,314.6016" style="stroke: #A80036; stroke-width: 1.0;"/><text fill="#000000" font-family="sans-serif" font-size="13" lengthAdjust="spacingAndGlyphs" textLength="56" x="15.9763" y="201.0669">Strength</text><!--link Statistic to Character--><path d="M113.481,158.268 C105.4239,173.577 103.3336,189.698 112.976,205 C147.717,260.129 218.404,288.354 272.485,302.4096 " fill="none" id="Statistic-Character-1" style="stroke: #A80036; stroke-width: 1.0;"/><polygon fill="#A80036" points="277.334,303.6439,269.5982,297.5482,272.4884,302.411,267.6256,305.3012,277.334,303.6439" style="stroke: #A80036; stroke-width: 1.0;"/><text fill="#000000" font-family="sans-serif" font-size="13" lengthAdjust="spacingAndGlyphs" textLength="38" x="113.976" y="201.0669">Agility</text><!--link Statistic to Character--><path d="M182.895,158.216 C183.079,174.308 185.75,190.758 192.976,205 C209.928,238.41 242.251,264.144 272.657,282.337 " fill="none" id="Statistic-Character-2" style="stroke: #A80036; stroke-width: 1.0;"/><polygon fill="#A80036" points="277.127,284.966,271.3974,276.9552,272.8173,282.431,267.3415,283.8508,277.127,284.966" style="stroke: #A80036; stroke-width: 1.0;"/><text fill="#000000" font-family="sans-serif" font-size="13" lengthAdjust="spacingAndGlyphs" textLength="51" x="193.976" y="201.0669">Intuition</text><!--link Statistic to Character--><path d="M243.415,158.203 C258.14,181.236 274.483,206.8 289.64,230.507 " fill="none" id="Statistic-Character-3" style="stroke: #A80036; stroke-width: 1.0;"/><polygon fill="#A80036" points="292.455,234.911,290.9781,225.1735,289.7621,230.6981,284.2375,229.4821,292.455,234.911" style="stroke: #A80036; stroke-width: 1.0;"/><text fill="#000000" font-family="sans-serif" font-size="13" lengthAdjust="spacingAndGlyphs" textLength="68" x="270.976" y="201.0669">Perception</text><!--link Statistic to Character--><path d="M309.24,142.134 C324.822,155.08 338.653,170.324 347.976,188 C354.648,200.648 357.699,215.028 358.533,229.46 " fill="none" id="Statistic-Character-4" style="stroke: #A80036; stroke-width: 1.0;"/><polygon fill="#A80036" points="358.742,234.776,362.3841,225.6253,358.5449,229.7799,354.3903,225.9407,358.742,234.776" style="stroke: #A80036; stroke-width: 1.0;"/><text fill="#000000" font-family="sans-serif" font-size="13" lengthAdjust="spacingAndGlyphs" textLength="61" x="355.976" y="201.0669">Charisma</text><!--link Skill to Character--><path d="M485.891,107.153 C471.752,131.812 448.246,171.785 425.976,205 C420.317,213.441 414.274,222.127 408.132,230.745 " fill="none" id="Skill-Character" style="stroke: #A80036; stroke-width: 1.0;"/><polygon fill="#A80036" points="405.11,234.969,413.6001,229.9771,408.0194,230.9027,407.0939,225.322,405.11,234.969" style="stroke: #A80036; stroke-width: 1.0;"/><text fill="#000000" font-family="sans-serif" font-size="13" lengthAdjust="spacingAndGlyphs" textLength="51" x="437.976" y="201.0669">List Skill</text><text fill="#000000" font-family="sans-serif" font-size="13" lengthAdjust="spacingAndGlyphs" textLength="23" x="456.8984" y="126.9515">0..*</text><text fill="#000000" font-family="sans-serif" font-size="13" lengthAdjust="spacingAndGlyphs" textLength="8" x="402.377" y="223.8233">1</text><!--link Special to Character--><path d="M584.191,107.226 C573.18,122.092 558.231,141.599 543.976,158 C524.802,180.061 520.156,185.964 497.976,205 C472.022,227.276 441.757,249.679 414.96,268.433 " fill="none" id="Special-Character" style="stroke: #A80036; stroke-width: 1.0;"/><polygon fill="#A80036" points="410.69,271.411,420.36,269.5426,414.7909,268.5504,415.7831,262.9812,410.69,271.411" style="stroke: #A80036; stroke-width: 1.0;"/><text fill="#000000" font-family="sans-serif" font-size="13" lengthAdjust="spacingAndGlyphs" textLength="72" x="517.976" y="201.0669">List Special</text><text fill="#000000" font-family="sans-serif" font-size="13" lengthAdjust="spacingAndGlyphs" textLength="23" x="554.2965" y="127.0423">0..*</text><text fill="#000000" font-family="sans-serif" font-size="13" lengthAdjust="spacingAndGlyphs" textLength="8" x="418.4243" y="262.72">1</text><!--link Feat to Character--><path d="M697.64,107.155 C687.063,122.351 672.211,142.251 656.976,158 C589.652,227.598 485.036,271.539 415.534,294.821 " fill="none" id="Feat-Character" style="stroke: #A80036; stroke-width: 1.0;"/><polygon fill="#A80036" points="410.592,296.461,420.3937,297.4239,415.3377,294.8867,417.8748,289.8307,410.592,296.461" style="stroke: #A80036; stroke-width: 1.0;"/><text fill="#000000" font-family="sans-serif" font-size="13" lengthAdjust="spacingAndGlyphs" textLength="54" x="622.976" y="201.0669">List Feat</text><text fill="#000000" font-family="sans-serif" font-size="13" lengthAdjust="spacingAndGlyphs" textLength="23" x="668.0987" y="126.954">0..*</text><text fill="#000000" font-family="sans-serif" font-size="13" lengthAdjust="spacingAndGlyphs" textLength="8" x="418.3156" y="290.5098">1</text><!--
@startuml
class "Statistic" as Statistic  {
	Stat: Stat 
	Description: String 
	XP: XP 
	Value: Number 
===
  <b>description</b>: A statistic is a
 base value for a character's potential
 Statistics serve as a base bonus for
 certain abilities.
}
class "Character" as Character  {
	Name: String 
	Skills: List Skill
	Specials: List Special
	Feats: List Feat
	Strength: Statistic 
	Agility: Statistic 
	Intuition: Statistic 
	Perception: Statistic 
	Charisma: Statistic 
}
Statistic - -> Character : Strength
Statistic - -> Character : Agility
Statistic - -> Character : Intuition
Statistic - -> Character : Perception
Statistic - -> Character : Charisma
Skill "0..*" - -> "1" Character : List Skill
Special "0..*" - -> "1" Character : List Special
Feat "0..*" - -> "1" Character : List Feat
@enduml

PlantUML version 1.2019.08(Sat Jul 13 19:25:14 UTC 2019)
(GPL source distribution)
Java Runtime: Java(TM) SE Runtime Environment
JVM: Java HotSpot(TM) 64-Bit Server VM
Java Version: 1.7.0_25-b15
Operating System: Linux
Default Encoding: UTF-8
Language: en
Country: US
--></g></svg>