<?xml version="1.0" encoding="UTF-8" standalone="no"?><svg xmlns="http://www.w3.org/2000/svg" xmlns:xlink="http://www.w3.org/1999/xlink" contentScriptType="application/ecmascript" contentStyleType="text/css" height="823px" preserveAspectRatio="none" style="width:1489px;height:823px;" version="1.1" viewBox="0 0 1489 823" width="1489px" zoomAndPan="magnify"><defs><filter height="300%" id="f11iijs5a57ur2" width="300%" x="-1" y="-1"><feGaussianBlur result="blurOut" stdDeviation="2.0"/><feColorMatrix in="blurOut" result="blurOut2" type="matrix" values="0 0 0 0 0 0 0 0 0 0 0 0 0 0 0 0 0 0 .4 0"/><feOffset dx="4.0" dy="4.0" in="blurOut2" result="blurOut3"/><feBlend in="SourceGraphic" in2="blurOut3" mode="normal"/></filter></defs><g><!--class List--><rect fill="#FEFECE" filter="url(#f11iijs5a57ur2)" height="48" id="List" style="stroke: #A80036; stroke-width: 1.5;" width="53" x="31" y="46.5"/><ellipse cx="46" cy="62.5" fill="#ADD1B2" rx="11" ry="11" style="stroke: #A80036; stroke-width: 1.0;"/><path d="M48.3438,58.1719 L48.5156,58.25 C48.7344,57.9375 48.9375,57.8438 49.2344,57.8438 C49.5313,57.8438 49.8125,57.9844 49.9688,58.25 C50.0625,58.4063 50.0781,58.5313 50.0781,58.9688 L50.0781,60.3906 C50.0781,60.8125 50.0469,61 49.9375,61.1563 C49.7656,61.375 49.5,61.5156 49.2344,61.5156 C49.0156,61.5156 48.7813,61.4063 48.6406,61.2656 C48.5,61.1406 48.4688,61.0156 48.4063,60.6094 C48.3125,60.2031 48.1406,59.9844 47.6563,59.7031 C47.1875,59.4531 46.5781,59.2969 46,59.2969 C44.2656,59.2969 43.0156,60.6094 43.0156,62.3906 L43.0156,63.4844 C43.0156,65.1875 44.3125,66.2813 46.3594,66.2813 C47.125,66.2813 47.8125,66.1563 48.2344,65.8906 C48.4219,65.7969 48.4219,65.7969 48.875,65.3125 C49.0625,65.125 49.2656,65.0469 49.4844,65.0469 C49.9531,65.0469 50.3438,65.4375 50.3438,65.8906 C50.3438,66.2813 50.0156,66.7344 49.4375,67.1406 C48.6875,67.6875 47.5313,67.9844 46.3125,67.9844 C43.4219,67.9844 41.3125,66.0938 41.3125,63.5156 L41.3125,62.3906 C41.3125,59.6719 43.3125,57.5938 45.9375,57.5938 C46.8125,57.5938 47.4063,57.7344 48.3438,58.1719 Z "/><text fill="#000000" font-family="sans-serif" font-size="12" lengthAdjust="spacingAndGlyphs" textLength="21" x="60" y="66.6543">List</text><line style="stroke: #A80036; stroke-width: 1.5;" x1="32" x2="83" y1="78.5" y2="78.5"/><line style="stroke: #A80036; stroke-width: 1.5;" x1="32" x2="83" y1="86.5" y2="86.5"/><!--class BoughtFrom--><rect fill="#FEFECE" filter="url(#f11iijs5a57ur2)" height="112.0234" id="BoughtFrom" style="stroke: #A80036; stroke-width: 1.5;" width="134" x="369.5" y="14.5"/><ellipse cx="396.2" cy="30.5" fill="#EB937F" rx="11" ry="11" style="stroke: #A80036; stroke-width: 1.0;"/><path d="M394.4969,31.375 L394.4969,33.7969 L398.8563,33.7969 L398.8563,32.9219 C398.8563,32.4375 398.8875,32.2969 398.9969,32.1406 C399.1688,31.8906 399.4344,31.7813 399.7,31.7813 C399.9813,31.7813 400.2625,31.9375 400.4344,32.1875 C400.5125,32.3438 400.5438,32.4844 400.5438,32.9219 L400.5438,35.5 L392.5438,35.5 C392.1531,35.5 391.9188,35.4531 391.7781,35.3281 C391.5594,35.1719 391.4188,34.9219 391.4188,34.6563 C391.4188,34.3594 391.575,34.0938 391.825,33.9219 C391.9813,33.8125 392.1375,33.7969 392.5438,33.7969 L392.7938,33.7969 L392.7938,27.2813 L392.5438,27.2813 C392.1219,27.2813 391.9344,27.25 391.7781,27.1406 C391.5594,26.9688 391.4188,26.7188 391.4188,26.4375 C391.4188,26.1563 391.575,25.8594 391.825,25.7031 C391.9813,25.6094 392.1063,25.5938 392.5438,25.5938 L400.1688,25.5938 L400.1688,28.1406 C400.1688,28.6094 400.1375,28.75 400.0281,28.9219 C399.8563,29.1406 399.5906,29.2813 399.325,29.2813 C399.0438,29.2813 398.7625,29.125 398.5906,28.875 C398.5125,28.7188 398.4813,28.5469 398.4813,28.1406 L398.4813,27.2813 L394.4969,27.2813 L394.4969,29.6875 L395.95,29.6875 L395.95,29.5625 C395.95,29.1094 395.9813,28.9531 396.0906,28.7813 C396.2625,28.5625 396.5281,28.4219 396.7781,28.4219 C397.2313,28.4219 397.5438,28.7344 397.6063,29.2031 C397.6219,29.3594 397.6219,29.4063 397.6219,29.5625 L397.6219,31.4844 C397.6219,31.9375 397.5906,32.0938 397.4656,32.25 C397.3094,32.4688 397.0438,32.6094 396.7938,32.6094 C396.4969,32.6094 396.2156,32.4531 396.0594,32.2031 C395.9813,32.0469 395.95,31.8906 395.95,31.4844 L395.95,31.375 Z "/><text fill="#000000" font-family="sans-serif" font-size="12" lengthAdjust="spacingAndGlyphs" textLength="76" x="412.8" y="34.6543">BoughtFrom</text><line style="stroke: #A80036; stroke-width: 1.5;" x1="370.5" x2="502.5" y1="46.5" y2="46.5"/><text fill="#000000" font-family="sans-serif" font-size="11" lengthAdjust="spacingAndGlyphs" textLength="84" x="375.5" y="60.7104">Racial Package</text><text fill="#000000" font-family="sans-serif" font-size="11" lengthAdjust="spacingAndGlyphs" textLength="122" x="375.5" y="73.5151">Professional Package</text><text fill="#000000" font-family="sans-serif" font-size="11" lengthAdjust="spacingAndGlyphs" textLength="14" x="375.5" y="86.3198">XP</text><text fill="#000000" font-family="sans-serif" font-size="11" lengthAdjust="spacingAndGlyphs" textLength="20" x="375.5" y="99.1245">Gift</text><text fill="#000000" font-family="sans-serif" font-size="11" lengthAdjust="spacingAndGlyphs" textLength="32" x="375.5" y="111.9292">Other</text><line style="stroke: #A80036; stroke-width: 1.5;" x1="370.5" x2="502.5" y1="118.5234" y2="118.5234"/><!--class Stat--><rect fill="#FEFECE" filter="url(#f11iijs5a57ur2)" height="124.8281" id="Stat" style="stroke: #A80036; stroke-width: 1.5;" width="72" x="833.5" y="8"/><ellipse cx="854.8" cy="24" fill="#A9DCDF" rx="11" ry="11" style="stroke: #A80036; stroke-width: 1.0;"/><path d="M856.3781,25.8125 L852.3313,25.8125 L851.9406,26.7969 L852.3313,26.7969 C852.7844,26.7969 852.925,26.8281 853.0969,26.9531 C853.3156,27.125 853.4406,27.375 853.4406,27.6563 C853.4406,27.9375 853.3,28.2344 853.0344,28.375 C852.9094,28.4688 852.6906,28.5 852.3313,28.5 L850.0656,28.5 C849.3156,28.5 848.9406,28.2188 848.9406,27.6563 C848.9406,27.3594 849.0969,27.0781 849.3469,26.9219 C849.5031,26.8125 849.6594,26.7969 850.0813,26.7969 L852.7219,20.2813 L851.6438,20.2813 C851.2063,20.2813 851.0344,20.25 850.8625,20.1406 C850.6438,19.9688 850.5031,19.7188 850.5031,19.4375 C850.5031,19.1563 850.6594,18.875 850.9094,18.7031 C851.0656,18.6094 851.1906,18.5938 851.6438,18.5938 L855.3156,18.5938 L858.7063,26.7969 C859.175,26.7969 859.3313,26.8281 859.5031,26.9688 C859.7219,27.125 859.8625,27.375 859.8625,27.6563 C859.8625,27.9375 859.7063,28.2344 859.4563,28.375 C859.3156,28.4688 859.0969,28.5 858.7375,28.5 L856.3781,28.5 C855.9563,28.5 855.7531,28.4531 855.6125,28.3281 C855.3938,28.1719 855.2531,27.9219 855.2531,27.6563 C855.2531,27.3594 855.4094,27.0781 855.6594,26.9219 C855.8156,26.8125 855.925,26.7969 856.3781,26.7969 L856.7688,26.7969 Z M855.675,24.1094 L854.3469,20.8438 L853.0031,24.1094 Z "/><text fill="#000000" font-family="sans-serif" font-size="12" font-style="italic" lengthAdjust="spacingAndGlyphs" textLength="26" x="870.2" y="28.1543">Stat</text><line style="stroke: #A80036; stroke-width: 1.5;" x1="834.5" x2="904.5" y1="40" y2="40"/><text fill="#000000" font-family="sans-serif" font-size="11" lengthAdjust="spacingAndGlyphs" textLength="49" x="839.5" y="54.2104">Strength</text><text fill="#000000" font-family="sans-serif" font-size="11" lengthAdjust="spacingAndGlyphs" textLength="33" x="839.5" y="67.0151">Agility</text><text fill="#000000" font-family="sans-serif" font-size="11" lengthAdjust="spacingAndGlyphs" textLength="45" x="839.5" y="79.8198">Intuition</text><text fill="#000000" font-family="sans-serif" font-size="11" lengthAdjust="spacingAndGlyphs" textLength="60" x="839.5" y="92.6245">Perception</text><text fill="#000000" font-family="sans-serif" font-size="11" lengthAdjust="spacingAndGlyphs" textLength="55" x="839.5" y="105.4292">Charisma</text><text fill="#000000" font-family="sans-serif" font-size="11" lengthAdjust="spacingAndGlyphs" textLength="29" x="839.5" y="118.2339">None</text><line style="stroke: #A80036; stroke-width: 1.5;" x1="834.5" x2="904.5" y1="124.8281" y2="124.8281"/><!--class Namable--><rect fill="#FEFECE" filter="url(#f11iijs5a57ur2)" height="73.6094" id="Namable" style="stroke: #A80036; stroke-width: 1.5;" width="118" x="749.5" y="235.5"/><ellipse cx="778.45" cy="251.5" fill="#ADD1B2" rx="11" ry="11" style="stroke: #A80036; stroke-width: 1.0;"/><path d="M780.7938,247.1719 L780.9656,247.25 C781.1844,246.9375 781.3875,246.8438 781.6844,246.8438 C781.9813,246.8438 782.2625,246.9844 782.4188,247.25 C782.5125,247.4063 782.5281,247.5313 782.5281,247.9688 L782.5281,249.3906 C782.5281,249.8125 782.4969,250 782.3875,250.1563 C782.2156,250.375 781.95,250.5156 781.6844,250.5156 C781.4656,250.5156 781.2313,250.4063 781.0906,250.2656 C780.95,250.1406 780.9188,250.0156 780.8563,249.6094 C780.7625,249.2031 780.5906,248.9844 780.1063,248.7031 C779.6375,248.4531 779.0281,248.2969 778.45,248.2969 C776.7156,248.2969 775.4656,249.6094 775.4656,251.3906 L775.4656,252.4844 C775.4656,254.1875 776.7625,255.2813 778.8094,255.2813 C779.575,255.2813 780.2625,255.1563 780.6844,254.8906 C780.8719,254.7969 780.8719,254.7969 781.325,254.3125 C781.5125,254.125 781.7156,254.0469 781.9344,254.0469 C782.4031,254.0469 782.7938,254.4375 782.7938,254.8906 C782.7938,255.2813 782.4656,255.7344 781.8875,256.1406 C781.1375,256.6875 779.9813,256.9844 778.7625,256.9844 C775.8719,256.9844 773.7625,255.0938 773.7625,252.5156 L773.7625,251.3906 C773.7625,248.6719 775.7625,246.5938 778.3875,246.5938 C779.2625,246.5938 779.8563,246.7344 780.7938,247.1719 Z "/><text fill="#000000" font-family="sans-serif" font-size="12" lengthAdjust="spacingAndGlyphs" textLength="55" x="795.55" y="255.6543">Namable</text><line style="stroke: #A80036; stroke-width: 1.5;" x1="750.5" x2="866.5" y1="267.5" y2="267.5"/><text fill="#000000" font-family="sans-serif" font-size="11" lengthAdjust="spacingAndGlyphs" textLength="75" x="755.5" y="281.7104">Name: String</text><text fill="#000000" font-family="sans-serif" font-size="11" lengthAdjust="spacingAndGlyphs" textLength="106" x="755.5" y="294.5151">Description: String</text><line style="stroke: #A80036; stroke-width: 1.5;" x1="750.5" x2="866.5" y1="301.1094" y2="301.1094"/><!--class Buyable--><rect fill="#FEFECE" filter="url(#f11iijs5a57ur2)" height="124.8281" id="Buyable" style="stroke: #A80036; stroke-width: 1.5;" width="137" x="478" y="210"/><ellipse cx="518.2" cy="226" fill="#ADD1B2" rx="11" ry="11" style="stroke: #A80036; stroke-width: 1.0;"/><path d="M520.5438,221.6719 L520.7156,221.75 C520.9344,221.4375 521.1375,221.3438 521.4344,221.3438 C521.7313,221.3438 522.0125,221.4844 522.1688,221.75 C522.2625,221.9063 522.2781,222.0313 522.2781,222.4688 L522.2781,223.8906 C522.2781,224.3125 522.2469,224.5 522.1375,224.6563 C521.9656,224.875 521.7,225.0156 521.4344,225.0156 C521.2156,225.0156 520.9813,224.9063 520.8406,224.7656 C520.7,224.6406 520.6688,224.5156 520.6063,224.1094 C520.5125,223.7031 520.3406,223.4844 519.8563,223.2031 C519.3875,222.9531 518.7781,222.7969 518.2,222.7969 C516.4656,222.7969 515.2156,224.1094 515.2156,225.8906 L515.2156,226.9844 C515.2156,228.6875 516.5125,229.7813 518.5594,229.7813 C519.325,229.7813 520.0125,229.6563 520.4344,229.3906 C520.6219,229.2969 520.6219,229.2969 521.075,228.8125 C521.2625,228.625 521.4656,228.5469 521.6844,228.5469 C522.1531,228.5469 522.5438,228.9375 522.5438,229.3906 C522.5438,229.7813 522.2156,230.2344 521.6375,230.6406 C520.8875,231.1875 519.7313,231.4844 518.5125,231.4844 C515.6219,231.4844 513.5125,229.5938 513.5125,227.0156 L513.5125,225.8906 C513.5125,223.1719 515.5125,221.0938 518.1375,221.0938 C519.0125,221.0938 519.6063,221.2344 520.5438,221.6719 Z "/><text fill="#000000" font-family="sans-serif" font-size="12" lengthAdjust="spacingAndGlyphs" textLength="49" x="537.8" y="230.1543">Buyable</text><line style="stroke: #A80036; stroke-width: 1.5;" x1="479" x2="614" y1="242" y2="242"/><text fill="#000000" font-family="sans-serif" font-size="11" lengthAdjust="spacingAndGlyphs" textLength="117" x="484" y="256.2104">Source: BoughtFrom</text><text fill="#000000" font-family="sans-serif" font-size="11" lengthAdjust="spacingAndGlyphs" textLength="54" x="484" y="269.0151">Stat: Stat</text><text fill="#000000" font-family="sans-serif" font-size="11" lengthAdjust="spacingAndGlyphs" textLength="94" x="484" y="281.8198">Bought: Boolean</text><text fill="#000000" font-family="sans-serif" font-size="11" lengthAdjust="spacingAndGlyphs" textLength="91" x="484" y="294.6245">Skilled: Boolean</text><text fill="#000000" font-family="sans-serif" font-size="11" lengthAdjust="spacingAndGlyphs" textLength="125" x="484" y="307.4292">Professional: Boolean</text><text fill="#000000" font-family="sans-serif" font-size="11" lengthAdjust="spacingAndGlyphs" textLength="93" x="484" y="320.2339">Master: Boolean</text><line style="stroke: #A80036; stroke-width: 1.5;" x1="479" x2="614" y1="326.8281" y2="326.8281"/><!--class Skill--><rect fill="#FEFECE" filter="url(#f11iijs5a57ur2)" height="176.0469" id="Skill" style="stroke: #A80036; stroke-width: 1.5;" width="222" x="220.5" y="396"/><ellipse cx="257.55" cy="412" fill="#ADD1B2" rx="11" ry="11" style="stroke: #A80036; stroke-width: 1.0;"/><path d="M259.8938,407.6719 L260.0656,407.75 C260.2844,407.4375 260.4875,407.3438 260.7844,407.3438 C261.0813,407.3438 261.3625,407.4844 261.5188,407.75 C261.6125,407.9063 261.6281,408.0313 261.6281,408.4688 L261.6281,409.8906 C261.6281,410.3125 261.5969,410.5 261.4875,410.6563 C261.3156,410.875 261.05,411.0156 260.7844,411.0156 C260.5656,411.0156 260.3313,410.9063 260.1906,410.7656 C260.05,410.6406 260.0188,410.5156 259.9563,410.1094 C259.8625,409.7031 259.6906,409.4844 259.2063,409.2031 C258.7375,408.9531 258.1281,408.7969 257.55,408.7969 C255.8156,408.7969 254.5656,410.1094 254.5656,411.8906 L254.5656,412.9844 C254.5656,414.6875 255.8625,415.7813 257.9094,415.7813 C258.675,415.7813 259.3625,415.6563 259.7844,415.3906 C259.9719,415.2969 259.9719,415.2969 260.425,414.8125 C260.6125,414.625 260.8156,414.5469 261.0344,414.5469 C261.5031,414.5469 261.8938,414.9375 261.8938,415.3906 C261.8938,415.7813 261.5656,416.2344 260.9875,416.6406 C260.2375,417.1875 259.0813,417.4844 257.8625,417.4844 C254.9719,417.4844 252.8625,415.5938 252.8625,413.0156 L252.8625,411.8906 C252.8625,409.1719 254.8625,407.0938 257.4875,407.0938 C258.3625,407.0938 258.9563,407.2344 259.8938,407.6719 Z "/><text fill="#000000" font-family="sans-serif" font-size="12" lengthAdjust="spacingAndGlyphs" textLength="24" x="276.45" y="416.1543">Skill</text><rect fill="#FFFFFF" height="15.9688" style="stroke: #000000; stroke-width: 1.0; stroke-dasharray: 2.0,2.0;" width="111" x="334.5" y="393"/><text fill="#000000" font-family="sans-serif" font-size="12" font-style="italic" lengthAdjust="spacingAndGlyphs" textLength="109" x="335.5" y="405.1387">Namable,Buyable</text><line style="stroke: #A80036; stroke-width: 1.5;" x1="221.5" x2="441.5" y1="428" y2="428"/><text fill="#000000" font-family="sans-serif" font-size="11" lengthAdjust="spacingAndGlyphs" textLength="75" x="226.5" y="442.2104">Name: String</text><text fill="#000000" font-family="sans-serif" font-size="11" font-style="italic" lengthAdjust="spacingAndGlyphs" textLength="81" x="309.5" y="442.2104">from Namable</text><text fill="#000000" font-family="sans-serif" font-size="11" lengthAdjust="spacingAndGlyphs" textLength="106" x="226.5" y="455.0151">Description: String</text><text fill="#000000" font-family="sans-serif" font-size="11" font-style="italic" lengthAdjust="spacingAndGlyphs" textLength="81" x="340.5" y="455.0151">from Namable</text><text fill="#000000" font-family="sans-serif" font-size="11" lengthAdjust="spacingAndGlyphs" textLength="117" x="226.5" y="467.8198">Source: BoughtFrom</text><text fill="#000000" font-family="sans-serif" font-size="11" font-style="italic" lengthAdjust="spacingAndGlyphs" textLength="77" x="351.5" y="467.8198">from Buyable</text><text fill="#000000" font-family="sans-serif" font-size="11" lengthAdjust="spacingAndGlyphs" textLength="54" x="226.5" y="480.6245">Stat: Stat</text><text fill="#000000" font-family="sans-serif" font-size="11" font-style="italic" lengthAdjust="spacingAndGlyphs" textLength="77" x="288.5" y="480.6245">from Buyable</text><text fill="#000000" font-family="sans-serif" font-size="11" lengthAdjust="spacingAndGlyphs" textLength="94" x="226.5" y="493.4292">Bought: Boolean</text><text fill="#000000" font-family="sans-serif" font-size="11" font-style="italic" lengthAdjust="spacingAndGlyphs" textLength="77" x="328.5" y="493.4292">from Buyable</text><text fill="#000000" font-family="sans-serif" font-size="11" lengthAdjust="spacingAndGlyphs" textLength="91" x="226.5" y="506.2339">Skilled: Boolean</text><text fill="#000000" font-family="sans-serif" font-size="11" font-style="italic" lengthAdjust="spacingAndGlyphs" textLength="77" x="325.5" y="506.2339">from Buyable</text><text fill="#000000" font-family="sans-serif" font-size="11" lengthAdjust="spacingAndGlyphs" textLength="125" x="226.5" y="519.0386">Professional: Boolean</text><text fill="#000000" font-family="sans-serif" font-size="11" font-style="italic" lengthAdjust="spacingAndGlyphs" textLength="77" x="359.5" y="519.0386">from Buyable</text><text fill="#000000" font-family="sans-serif" font-size="11" lengthAdjust="spacingAndGlyphs" textLength="93" x="226.5" y="531.8433">Master: Boolean</text><text fill="#000000" font-family="sans-serif" font-size="11" font-style="italic" lengthAdjust="spacingAndGlyphs" textLength="77" x="327.5" y="531.8433">from Buyable</text><line style="stroke: #A80036; stroke-width: 1.0;" x1="221.5" x2="441.5" y1="538.4375" y2="538.4375"/><line style="stroke: #A80036; stroke-width: 1.0;" x1="221.5" x2="441.5" y1="540.4375" y2="540.4375"/><text fill="#000000" font-family="sans-serif" font-size="11" font-weight="bold" lengthAdjust="spacingAndGlyphs" textLength="72" x="226.5" y="552.6479">description</text><text fill="#000000" font-family="sans-serif" font-size="11" lengthAdjust="spacingAndGlyphs" textLength="55" x="298.5" y="552.6479">: A skill is</text><text fill="#000000" font-family="sans-serif" font-size="11" lengthAdjust="spacingAndGlyphs" textLength="171" x="226.5" y="565.4526">something a character can do</text><!--class Resistance--><rect fill="#FEFECE" filter="url(#f11iijs5a57ur2)" height="150.4375" id="Resistance" style="stroke: #A80036; stroke-width: 1.5;" width="222" x="734.5" y="409"/><ellipse cx="751.3" cy="425" fill="#ADD1B2" rx="11" ry="11" style="stroke: #A80036; stroke-width: 1.0;"/><path d="M753.6438,420.6719 L753.8156,420.75 C754.0344,420.4375 754.2375,420.3438 754.5344,420.3438 C754.8313,420.3438 755.1125,420.4844 755.2688,420.75 C755.3625,420.9063 755.3781,421.0313 755.3781,421.4688 L755.3781,422.8906 C755.3781,423.3125 755.3469,423.5 755.2375,423.6563 C755.0656,423.875 754.8,424.0156 754.5344,424.0156 C754.3156,424.0156 754.0813,423.9063 753.9406,423.7656 C753.8,423.6406 753.7688,423.5156 753.7063,423.1094 C753.6125,422.7031 753.4406,422.4844 752.9563,422.2031 C752.4875,421.9531 751.8781,421.7969 751.3,421.7969 C749.5656,421.7969 748.3156,423.1094 748.3156,424.8906 L748.3156,425.9844 C748.3156,427.6875 749.6125,428.7813 751.6594,428.7813 C752.425,428.7813 753.1125,428.6563 753.5344,428.3906 C753.7219,428.2969 753.7219,428.2969 754.175,427.8125 C754.3625,427.625 754.5656,427.5469 754.7844,427.5469 C755.2531,427.5469 755.6438,427.9375 755.6438,428.3906 C755.6438,428.7813 755.3156,429.2344 754.7375,429.6406 C753.9875,430.1875 752.8313,430.4844 751.6125,430.4844 C748.7219,430.4844 746.6125,428.5938 746.6125,426.0156 L746.6125,424.8906 C746.6125,422.1719 748.6125,420.0938 751.2375,420.0938 C752.1125,420.0938 752.7063,420.2344 753.6438,420.6719 Z "/><text fill="#000000" font-family="sans-serif" font-size="12" lengthAdjust="spacingAndGlyphs" textLength="69" x="765.7" y="429.1543">Resistance</text><rect fill="#FFFFFF" height="15.9688" style="stroke: #000000; stroke-width: 1.0; stroke-dasharray: 2.0,2.0;" width="111" x="848.5" y="406"/><text fill="#000000" font-family="sans-serif" font-size="12" font-style="italic" lengthAdjust="spacingAndGlyphs" textLength="109" x="849.5" y="418.1387">Namable,Buyable</text><line style="stroke: #A80036; stroke-width: 1.5;" x1="735.5" x2="955.5" y1="441" y2="441"/><text fill="#000000" font-family="sans-serif" font-size="11" lengthAdjust="spacingAndGlyphs" textLength="75" x="740.5" y="455.2104">Name: String</text><text fill="#000000" font-family="sans-serif" font-size="11" font-style="italic" lengthAdjust="spacingAndGlyphs" textLength="81" x="823.5" y="455.2104">from Namable</text><text fill="#000000" font-family="sans-serif" font-size="11" lengthAdjust="spacingAndGlyphs" textLength="106" x="740.5" y="468.0151">Description: String</text><text fill="#000000" font-family="sans-serif" font-size="11" font-style="italic" lengthAdjust="spacingAndGlyphs" textLength="81" x="854.5" y="468.0151">from Namable</text><text fill="#000000" font-family="sans-serif" font-size="11" lengthAdjust="spacingAndGlyphs" textLength="117" x="740.5" y="480.8198">Source: BoughtFrom</text><text fill="#000000" font-family="sans-serif" font-size="11" font-style="italic" lengthAdjust="spacingAndGlyphs" textLength="77" x="865.5" y="480.8198">from Buyable</text><text fill="#000000" font-family="sans-serif" font-size="11" lengthAdjust="spacingAndGlyphs" textLength="54" x="740.5" y="493.6245">Stat: Stat</text><text fill="#000000" font-family="sans-serif" font-size="11" font-style="italic" lengthAdjust="spacingAndGlyphs" textLength="77" x="802.5" y="493.6245">from Buyable</text><text fill="#000000" font-family="sans-serif" font-size="11" lengthAdjust="spacingAndGlyphs" textLength="94" x="740.5" y="506.4292">Bought: Boolean</text><text fill="#000000" font-family="sans-serif" font-size="11" font-style="italic" lengthAdjust="spacingAndGlyphs" textLength="77" x="842.5" y="506.4292">from Buyable</text><text fill="#000000" font-family="sans-serif" font-size="11" lengthAdjust="spacingAndGlyphs" textLength="91" x="740.5" y="519.2339">Skilled: Boolean</text><text fill="#000000" font-family="sans-serif" font-size="11" font-style="italic" lengthAdjust="spacingAndGlyphs" textLength="77" x="839.5" y="519.2339">from Buyable</text><text fill="#000000" font-family="sans-serif" font-size="11" lengthAdjust="spacingAndGlyphs" textLength="125" x="740.5" y="532.0386">Professional: Boolean</text><text fill="#000000" font-family="sans-serif" font-size="11" font-style="italic" lengthAdjust="spacingAndGlyphs" textLength="77" x="873.5" y="532.0386">from Buyable</text><text fill="#000000" font-family="sans-serif" font-size="11" lengthAdjust="spacingAndGlyphs" textLength="93" x="740.5" y="544.8433">Master: Boolean</text><text fill="#000000" font-family="sans-serif" font-size="11" font-style="italic" lengthAdjust="spacingAndGlyphs" textLength="77" x="841.5" y="544.8433">from Buyable</text><line style="stroke: #A80036; stroke-width: 1.5;" x1="735.5" x2="955.5" y1="551.4375" y2="551.4375"/><!--class Special--><rect fill="#FEFECE" filter="url(#f11iijs5a57ur2)" height="150.4375" id="Special" style="stroke: #A80036; stroke-width: 1.5;" width="222" x="477.5" y="409"/><ellipse cx="505.1" cy="425" fill="#ADD1B2" rx="11" ry="11" style="stroke: #A80036; stroke-width: 1.0;"/><path d="M507.4438,420.6719 L507.6156,420.75 C507.8344,420.4375 508.0375,420.3438 508.3344,420.3438 C508.6313,420.3438 508.9125,420.4844 509.0688,420.75 C509.1625,420.9063 509.1781,421.0313 509.1781,421.4688 L509.1781,422.8906 C509.1781,423.3125 509.1469,423.5 509.0375,423.6563 C508.8656,423.875 508.6,424.0156 508.3344,424.0156 C508.1156,424.0156 507.8813,423.9063 507.7406,423.7656 C507.6,423.6406 507.5688,423.5156 507.5063,423.1094 C507.4125,422.7031 507.2406,422.4844 506.7563,422.2031 C506.2875,421.9531 505.6781,421.7969 505.1,421.7969 C503.3656,421.7969 502.1156,423.1094 502.1156,424.8906 L502.1156,425.9844 C502.1156,427.6875 503.4125,428.7813 505.4594,428.7813 C506.225,428.7813 506.9125,428.6563 507.3344,428.3906 C507.5219,428.2969 507.5219,428.2969 507.975,427.8125 C508.1625,427.625 508.3656,427.5469 508.5844,427.5469 C509.0531,427.5469 509.4438,427.9375 509.4438,428.3906 C509.4438,428.7813 509.1156,429.2344 508.5375,429.6406 C507.7875,430.1875 506.6313,430.4844 505.4125,430.4844 C502.5219,430.4844 500.4125,428.5938 500.4125,426.0156 L500.4125,424.8906 C500.4125,422.1719 502.4125,420.0938 505.0375,420.0938 C505.9125,420.0938 506.5063,420.2344 507.4438,420.6719 Z "/><text fill="#000000" font-family="sans-serif" font-size="12" lengthAdjust="spacingAndGlyphs" textLength="45" x="521.9" y="429.1543">Special</text><rect fill="#FFFFFF" height="15.9688" style="stroke: #000000; stroke-width: 1.0; stroke-dasharray: 2.0,2.0;" width="111" x="591.5" y="406"/><text fill="#000000" font-family="sans-serif" font-size="12" font-style="italic" lengthAdjust="spacingAndGlyphs" textLength="109" x="592.5" y="418.1387">Namable,Buyable</text><line style="stroke: #A80036; stroke-width: 1.5;" x1="478.5" x2="698.5" y1="441" y2="441"/><text fill="#000000" font-family="sans-serif" font-size="11" lengthAdjust="spacingAndGlyphs" textLength="75" x="483.5" y="455.2104">Name: String</text><text fill="#000000" font-family="sans-serif" font-size="11" font-style="italic" lengthAdjust="spacingAndGlyphs" textLength="81" x="566.5" y="455.2104">from Namable</text><text fill="#000000" font-family="sans-serif" font-size="11" lengthAdjust="spacingAndGlyphs" textLength="106" x="483.5" y="468.0151">Description: String</text><text fill="#000000" font-family="sans-serif" font-size="11" font-style="italic" lengthAdjust="spacingAndGlyphs" textLength="81" x="597.5" y="468.0151">from Namable</text><text fill="#000000" font-family="sans-serif" font-size="11" lengthAdjust="spacingAndGlyphs" textLength="117" x="483.5" y="480.8198">Source: BoughtFrom</text><text fill="#000000" font-family="sans-serif" font-size="11" font-style="italic" lengthAdjust="spacingAndGlyphs" textLength="77" x="608.5" y="480.8198">from Buyable</text><text fill="#000000" font-family="sans-serif" font-size="11" lengthAdjust="spacingAndGlyphs" textLength="54" x="483.5" y="493.6245">Stat: Stat</text><text fill="#000000" font-family="sans-serif" font-size="11" font-style="italic" lengthAdjust="spacingAndGlyphs" textLength="77" x="545.5" y="493.6245">from Buyable</text><text fill="#000000" font-family="sans-serif" font-size="11" lengthAdjust="spacingAndGlyphs" textLength="94" x="483.5" y="506.4292">Bought: Boolean</text><text fill="#000000" font-family="sans-serif" font-size="11" font-style="italic" lengthAdjust="spacingAndGlyphs" textLength="77" x="585.5" y="506.4292">from Buyable</text><text fill="#000000" font-family="sans-serif" font-size="11" lengthAdjust="spacingAndGlyphs" textLength="91" x="483.5" y="519.2339">Skilled: Boolean</text><text fill="#000000" font-family="sans-serif" font-size="11" font-style="italic" lengthAdjust="spacingAndGlyphs" textLength="77" x="582.5" y="519.2339">from Buyable</text><text fill="#000000" font-family="sans-serif" font-size="11" lengthAdjust="spacingAndGlyphs" textLength="125" x="483.5" y="532.0386">Professional: Boolean</text><text fill="#000000" font-family="sans-serif" font-size="11" font-style="italic" lengthAdjust="spacingAndGlyphs" textLength="77" x="616.5" y="532.0386">from Buyable</text><text fill="#000000" font-family="sans-serif" font-size="11" lengthAdjust="spacingAndGlyphs" textLength="93" x="483.5" y="544.8433">Master: Boolean</text><text fill="#000000" font-family="sans-serif" font-size="11" font-style="italic" lengthAdjust="spacingAndGlyphs" textLength="77" x="584.5" y="544.8433">from Buyable</text><line style="stroke: #A80036; stroke-width: 1.5;" x1="478.5" x2="698.5" y1="551.4375" y2="551.4375"/><!--class Feat--><rect fill="#FEFECE" filter="url(#f11iijs5a57ur2)" height="112.0234" id="Feat" style="stroke: #A80036; stroke-width: 1.5;" width="207" x="992" y="428"/><ellipse cx="1045.75" cy="444" fill="#ADD1B2" rx="11" ry="11" style="stroke: #A80036; stroke-width: 1.0;"/><path d="M1048.0938,439.6719 L1048.2656,439.75 C1048.4844,439.4375 1048.6875,439.3438 1048.9844,439.3438 C1049.2813,439.3438 1049.5625,439.4844 1049.7188,439.75 C1049.8125,439.9063 1049.8281,440.0313 1049.8281,440.4688 L1049.8281,441.8906 C1049.8281,442.3125 1049.7969,442.5 1049.6875,442.6563 C1049.5156,442.875 1049.25,443.0156 1048.9844,443.0156 C1048.7656,443.0156 1048.5313,442.9063 1048.3906,442.7656 C1048.25,442.6406 1048.2188,442.5156 1048.1563,442.1094 C1048.0625,441.7031 1047.8906,441.4844 1047.4063,441.2031 C1046.9375,440.9531 1046.3281,440.7969 1045.75,440.7969 C1044.0156,440.7969 1042.7656,442.1094 1042.7656,443.8906 L1042.7656,444.9844 C1042.7656,446.6875 1044.0625,447.7813 1046.1094,447.7813 C1046.875,447.7813 1047.5625,447.6563 1047.9844,447.3906 C1048.1719,447.2969 1048.1719,447.2969 1048.625,446.8125 C1048.8125,446.625 1049.0156,446.5469 1049.2344,446.5469 C1049.7031,446.5469 1050.0938,446.9375 1050.0938,447.3906 C1050.0938,447.7813 1049.7656,448.2344 1049.1875,448.6406 C1048.4375,449.1875 1047.2813,449.4844 1046.0625,449.4844 C1043.1719,449.4844 1041.0625,447.5938 1041.0625,445.0156 L1041.0625,443.8906 C1041.0625,441.1719 1043.0625,439.0938 1045.6875,439.0938 C1046.5625,439.0938 1047.1563,439.2344 1048.0938,439.6719 Z "/><text fill="#000000" font-family="sans-serif" font-size="12" lengthAdjust="spacingAndGlyphs" textLength="28" x="1066.25" y="448.1543">Feat</text><rect fill="#FFFFFF" height="15.9688" style="stroke: #000000; stroke-width: 1.0; stroke-dasharray: 2.0,2.0;" width="57" x="1145" y="425"/><text fill="#000000" font-family="sans-serif" font-size="12" font-style="italic" lengthAdjust="spacingAndGlyphs" textLength="55" x="1146" y="437.1387">Namable</text><line style="stroke: #A80036; stroke-width: 1.5;" x1="993" x2="1198" y1="460" y2="460"/><text fill="#000000" font-family="sans-serif" font-size="11" lengthAdjust="spacingAndGlyphs" textLength="80" x="998" y="474.2104">Rank: Number</text><text fill="#000000" font-family="sans-serif" font-size="11" lengthAdjust="spacingAndGlyphs" textLength="67" x="998" y="487.0151">XP: Number</text><text fill="#000000" font-family="sans-serif" font-size="11" lengthAdjust="spacingAndGlyphs" textLength="54" x="998" y="499.8198">Stat: Stat</text><text fill="#000000" font-family="sans-serif" font-size="11" lengthAdjust="spacingAndGlyphs" textLength="75" x="998" y="512.6245">Name: String</text><text fill="#000000" font-family="sans-serif" font-size="11" font-style="italic" lengthAdjust="spacingAndGlyphs" textLength="81" x="1081" y="512.6245">from Namable</text><text fill="#000000" font-family="sans-serif" font-size="11" lengthAdjust="spacingAndGlyphs" textLength="106" x="998" y="525.4292">Description: String</text><text fill="#000000" font-family="sans-serif" font-size="11" font-style="italic" lengthAdjust="spacingAndGlyphs" textLength="81" x="1112" y="525.4292">from Namable</text><line style="stroke: #A80036; stroke-width: 1.5;" x1="993" x2="1198" y1="532.0234" y2="532.0234"/><!--class Something--><rect fill="#FEFECE" filter="url(#f11iijs5a57ur2)" height="48" id="Something" style="stroke: #A80036; stroke-width: 1.5;" width="103" x="6" y="248.5"/><ellipse cx="21" cy="264.5" fill="#ADD1B2" rx="11" ry="11" style="stroke: #A80036; stroke-width: 1.0;"/><path d="M23.3438,260.1719 L23.5156,260.25 C23.7344,259.9375 23.9375,259.8438 24.2344,259.8438 C24.5313,259.8438 24.8125,259.9844 24.9688,260.25 C25.0625,260.4063 25.0781,260.5313 25.0781,260.9688 L25.0781,262.3906 C25.0781,262.8125 25.0469,263 24.9375,263.1563 C24.7656,263.375 24.5,263.5156 24.2344,263.5156 C24.0156,263.5156 23.7813,263.4063 23.6406,263.2656 C23.5,263.1406 23.4688,263.0156 23.4063,262.6094 C23.3125,262.2031 23.1406,261.9844 22.6563,261.7031 C22.1875,261.4531 21.5781,261.2969 21,261.2969 C19.2656,261.2969 18.0156,262.6094 18.0156,264.3906 L18.0156,265.4844 C18.0156,267.1875 19.3125,268.2813 21.3594,268.2813 C22.125,268.2813 22.8125,268.1563 23.2344,267.8906 C23.4219,267.7969 23.4219,267.7969 23.875,267.3125 C24.0625,267.125 24.2656,267.0469 24.4844,267.0469 C24.9531,267.0469 25.3438,267.4375 25.3438,267.8906 C25.3438,268.2813 25.0156,268.7344 24.4375,269.1406 C23.6875,269.6875 22.5313,269.9844 21.3125,269.9844 C18.4219,269.9844 16.3125,268.0938 16.3125,265.5156 L16.3125,264.3906 C16.3125,261.6719 18.3125,259.5938 20.9375,259.5938 C21.8125,259.5938 22.4063,259.7344 23.3438,260.1719 Z "/><text fill="#000000" font-family="sans-serif" font-size="12" lengthAdjust="spacingAndGlyphs" textLength="67" x="35" y="268.6543">Something</text><line style="stroke: #A80036; stroke-width: 1.5;" x1="7" x2="108" y1="280.5" y2="280.5"/><line style="stroke: #A80036; stroke-width: 1.5;" x1="7" x2="108" y1="288.5" y2="288.5"/><!--class Statistic--><rect fill="#FEFECE" filter="url(#f11iijs5a57ur2)" height="150.4375" id="Statistic" style="stroke: #A80036; stroke-width: 1.5;" width="226" x="1234.5" y="409"/><ellipse cx="1317.75" cy="425" fill="#ADD1B2" rx="11" ry="11" style="stroke: #A80036; stroke-width: 1.0;"/><path d="M1320.0938,420.6719 L1320.2656,420.75 C1320.4844,420.4375 1320.6875,420.3438 1320.9844,420.3438 C1321.2813,420.3438 1321.5625,420.4844 1321.7188,420.75 C1321.8125,420.9063 1321.8281,421.0313 1321.8281,421.4688 L1321.8281,422.8906 C1321.8281,423.3125 1321.7969,423.5 1321.6875,423.6563 C1321.5156,423.875 1321.25,424.0156 1320.9844,424.0156 C1320.7656,424.0156 1320.5313,423.9063 1320.3906,423.7656 C1320.25,423.6406 1320.2188,423.5156 1320.1563,423.1094 C1320.0625,422.7031 1319.8906,422.4844 1319.4063,422.2031 C1318.9375,421.9531 1318.3281,421.7969 1317.75,421.7969 C1316.0156,421.7969 1314.7656,423.1094 1314.7656,424.8906 L1314.7656,425.9844 C1314.7656,427.6875 1316.0625,428.7813 1318.1094,428.7813 C1318.875,428.7813 1319.5625,428.6563 1319.9844,428.3906 C1320.1719,428.2969 1320.1719,428.2969 1320.625,427.8125 C1320.8125,427.625 1321.0156,427.5469 1321.2344,427.5469 C1321.7031,427.5469 1322.0938,427.9375 1322.0938,428.3906 C1322.0938,428.7813 1321.7656,429.2344 1321.1875,429.6406 C1320.4375,430.1875 1319.2813,430.4844 1318.0625,430.4844 C1315.1719,430.4844 1313.0625,428.5938 1313.0625,426.0156 L1313.0625,424.8906 C1313.0625,422.1719 1315.0625,420.0938 1317.6875,420.0938 C1318.5625,420.0938 1319.1563,420.2344 1320.0938,420.6719 Z "/><text fill="#000000" font-family="sans-serif" font-size="12" lengthAdjust="spacingAndGlyphs" textLength="51" x="1338.25" y="429.1543">Statistic</text><line style="stroke: #A80036; stroke-width: 1.5;" x1="1235.5" x2="1459.5" y1="441" y2="441"/><text fill="#000000" font-family="sans-serif" font-size="11" lengthAdjust="spacingAndGlyphs" textLength="54" x="1240.5" y="455.2104">Stat: Stat</text><text fill="#000000" font-family="sans-serif" font-size="11" lengthAdjust="spacingAndGlyphs" textLength="106" x="1240.5" y="468.0151">Description: String</text><text fill="#000000" font-family="sans-serif" font-size="11" lengthAdjust="spacingAndGlyphs" textLength="36" x="1240.5" y="480.8198">XP: XP</text><text fill="#000000" font-family="sans-serif" font-size="11" lengthAdjust="spacingAndGlyphs" textLength="84" x="1240.5" y="493.6245">Value: Number</text><line style="stroke: #A80036; stroke-width: 1.0;" x1="1235.5" x2="1459.5" y1="500.2188" y2="500.2188"/><line style="stroke: #A80036; stroke-width: 1.0;" x1="1235.5" x2="1459.5" y1="502.2188" y2="502.2188"/><text fill="#000000" font-family="sans-serif" font-size="11" font-weight="bold" lengthAdjust="spacingAndGlyphs" textLength="72" x="1240.5" y="514.4292">description</text><text fill="#000000" font-family="sans-serif" font-size="11" lengthAdjust="spacingAndGlyphs" textLength="89" x="1312.5" y="514.4292">: A statistic is a</text><text fill="#000000" font-family="sans-serif" font-size="11" lengthAdjust="spacingAndGlyphs" textLength="214" x="1240.5" y="527.2339">base value for a character's potential</text><text fill="#000000" font-family="sans-serif" font-size="11" lengthAdjust="spacingAndGlyphs" textLength="209" x="1240.5" y="540.0386">Statistics serve as a base bonus for</text><text fill="#000000" font-family="sans-serif" font-size="11" lengthAdjust="spacingAndGlyphs" textLength="91" x="1240.5" y="552.8433">certain abilities.</text><!--class Character--><rect fill="#FEFECE" filter="url(#f11iijs5a57ur2)" height="163.2422" id="Character" style="stroke: #A80036; stroke-width: 1.5;" width="133" x="1072" y="649"/><ellipse cx="1104.55" cy="665" fill="#ADD1B2" rx="11" ry="11" style="stroke: #A80036; stroke-width: 1.0;"/><path d="M1106.8938,660.6719 L1107.0656,660.75 C1107.2844,660.4375 1107.4875,660.3438 1107.7844,660.3438 C1108.0813,660.3438 1108.3625,660.4844 1108.5188,660.75 C1108.6125,660.9063 1108.6281,661.0313 1108.6281,661.4688 L1108.6281,662.8906 C1108.6281,663.3125 1108.5969,663.5 1108.4875,663.6563 C1108.3156,663.875 1108.05,664.0156 1107.7844,664.0156 C1107.5656,664.0156 1107.3313,663.9063 1107.1906,663.7656 C1107.05,663.6406 1107.0188,663.5156 1106.9563,663.1094 C1106.8625,662.7031 1106.6906,662.4844 1106.2063,662.2031 C1105.7375,661.9531 1105.1281,661.7969 1104.55,661.7969 C1102.8156,661.7969 1101.5656,663.1094 1101.5656,664.8906 L1101.5656,665.9844 C1101.5656,667.6875 1102.8625,668.7813 1104.9094,668.7813 C1105.675,668.7813 1106.3625,668.6563 1106.7844,668.3906 C1106.9719,668.2969 1106.9719,668.2969 1107.425,667.8125 C1107.6125,667.625 1107.8156,667.5469 1108.0344,667.5469 C1108.5031,667.5469 1108.8938,667.9375 1108.8938,668.3906 C1108.8938,668.7813 1108.5656,669.2344 1107.9875,669.6406 C1107.2375,670.1875 1106.0813,670.4844 1104.8625,670.4844 C1101.9719,670.4844 1099.8625,668.5938 1099.8625,666.0156 L1099.8625,664.8906 C1099.8625,662.1719 1101.8625,660.0938 1104.4875,660.0938 C1105.3625,660.0938 1105.9563,660.2344 1106.8938,660.6719 Z "/><text fill="#000000" font-family="sans-serif" font-size="12" lengthAdjust="spacingAndGlyphs" textLength="62" x="1122.45" y="669.1543">Character</text><line style="stroke: #A80036; stroke-width: 1.5;" x1="1073" x2="1204" y1="681" y2="681"/><text fill="#000000" font-family="sans-serif" font-size="11" lengthAdjust="spacingAndGlyphs" textLength="75" x="1078" y="695.2104">Name: String</text><text fill="#000000" font-family="sans-serif" font-size="11" lengthAdjust="spacingAndGlyphs" textLength="85" x="1078" y="708.0151">Skills: List Skill</text><text fill="#000000" font-family="sans-serif" font-size="11" lengthAdjust="spacingAndGlyphs" textLength="121" x="1078" y="720.8198">Specials: List Special</text><text fill="#000000" font-family="sans-serif" font-size="11" lengthAdjust="spacingAndGlyphs" textLength="87" x="1078" y="733.6245">Feats: List Feat</text><text fill="#000000" font-family="sans-serif" font-size="11" lengthAdjust="spacingAndGlyphs" textLength="103" x="1078" y="746.4292">Strength: Statistic</text><text fill="#000000" font-family="sans-serif" font-size="11" lengthAdjust="spacingAndGlyphs" textLength="87" x="1078" y="759.2339">Agility: Statistic</text><text fill="#000000" font-family="sans-serif" font-size="11" lengthAdjust="spacingAndGlyphs" textLength="99" x="1078" y="772.0386">Intuition: Statistic</text><text fill="#000000" font-family="sans-serif" font-size="11" lengthAdjust="spacingAndGlyphs" textLength="114" x="1078" y="784.8433">Perception: Statistic</text><text fill="#000000" font-family="sans-serif" font-size="11" lengthAdjust="spacingAndGlyphs" textLength="109" x="1078" y="797.6479">Charisma: Statistic</text><line style="stroke: #A80036; stroke-width: 1.5;" x1="1073" x2="1204" y1="804.2422" y2="804.2422"/><!--link BoughtFrom to Buyable--><path d="M466.849,126.68 C480.255,151.054 496.124,179.907 510.155,205.419 " fill="none" id="BoughtFrom-Buyable" style="stroke: #A80036; stroke-width: 1.0;"/><polygon fill="#A80036" points="512.571,209.811,511.7382,199.9974,510.1612,205.43,504.7286,203.853,512.571,209.811" style="stroke: #A80036; stroke-width: 1.0;"/><text fill="#000000" font-family="sans-serif" font-size="13" lengthAdjust="spacingAndGlyphs" textLength="45" x="496.5" y="176.0669">Source</text><!--link Stat to Buyable--><path d="M833.304,78.867 C783.717,90.32 693.633,116.111 630.5,163 C614.633,174.785 600.227,190.327 588.003,205.954 " fill="none" id="Stat-Buyable" style="stroke: #A80036; stroke-width: 1.0;"/><polygon fill="#A80036" points="584.942,209.927,593.603,205.238,587.9932,205.9659,587.2652,200.3561,584.942,209.927" style="stroke: #A80036; stroke-width: 1.0;"/><text fill="#000000" font-family="sans-serif" font-size="13" lengthAdjust="spacingAndGlyphs" textLength="27" x="631.5" y="176.0669">Stat</text><!--link BoughtFrom to Skill--><path d="M369.31,90.206 C313.587,109.816 238.504,146.791 206.5,210 C181.405,259.565 187.415,282.825 206.5,335 C213.796,354.946 225.099,374.057 237.987,391.532 " fill="none" id="BoughtFrom-Skill" style="stroke: #A80036; stroke-width: 1.0;"/><polygon fill="#A80036" points="241.297,395.939,239.0915,386.3403,238.2947,391.9407,232.6943,391.1439,241.297,395.939" style="stroke: #A80036; stroke-width: 1.0;"/><text fill="#000000" font-family="sans-serif" font-size="13" lengthAdjust="spacingAndGlyphs" textLength="45" x="207.5" y="277.0669">Source</text><!--link Stat to Skill--><path d="M833.204,75.698 C726.59,88.848 418.176,133.017 359.5,210 C320.811,260.76 314.945,333.148 318.145,390.631 " fill="none" id="Stat-Skill" style="stroke: #A80036; stroke-width: 1.0;"/><polygon fill="#A80036" points="318.459,395.794,321.9066,386.5683,318.1562,390.8032,313.9213,387.0528,318.459,395.794" style="stroke: #A80036; stroke-width: 1.0;"/><text fill="#000000" font-family="sans-serif" font-size="13" lengthAdjust="spacingAndGlyphs" textLength="27" x="360.5" y="277.0669">Stat</text><!--link Namable to Skill--><path d="M748.395,320.856 C739.995,326.152 731.24,331.051 722.5,335 C613.151,384.405 569.43,347.902 459.5,396 C453.838,398.477 448.161,401.212 442.516,404.137 " fill="none" id="Namable-Skill" style="stroke: #A80036; stroke-width: 1.0;"/><polygon fill="none" points="744.532,315.017,765.018,309.602,752.38,326.611,744.532,315.017" style="stroke: #A80036; stroke-width: 1.0;"/><!--link Buyable to Skill--><path d="M468.662,349.347 C453.213,364.4 436.878,380.318 421.074,395.718 " fill="none" id="Buyable-Skill" style="stroke: #A80036; stroke-width: 1.0;"/><polygon fill="none" points="463.946,344.168,483.156,335.224,473.717,354.195,463.946,344.168" style="stroke: #A80036; stroke-width: 1.0;"/><!--link BoughtFrom to Resistance--><path d="M503.711,82.328 C617.396,102.164 839.784,148.056 885.5,210 C926.517,265.576 908.636,345.158 885.194,404.07 " fill="none" id="BoughtFrom-Resistance" style="stroke: #A80036; stroke-width: 1.0;"/><polygon fill="#A80036" points="883.205,408.989,890.2887,402.1464,885.0804,404.354,882.8728,399.1457,883.205,408.989" style="stroke: #A80036; stroke-width: 1.0;"/><text fill="#000000" font-family="sans-serif" font-size="13" lengthAdjust="spacingAndGlyphs" textLength="45" x="910.5" y="277.0669">Source</text><!--link Stat to Resistance--><path d="M905.516,102.647 C923.956,119.526 946.119,141.323 963.5,163 C1012,223.481 1020.97,262.893 992.5,335 C982.296,360.844 965.004,384.491 945.79,404.936 " fill="none" id="Stat-Resistance" style="stroke: #A80036; stroke-width: 1.0;"/><polygon fill="#A80036" points="942.181,408.716,951.2888,404.9679,945.6334,405.0993,945.502,399.444,942.181,408.716" style="stroke: #A80036; stroke-width: 1.0;"/><text fill="#000000" font-family="sans-serif" font-size="13" lengthAdjust="spacingAndGlyphs" textLength="27" x="1009.5" y="277.0669">Stat</text><!--link Namable to Resistance--><path d="M818.403,329.571 C822.704,353.924 827.802,382.793 832.41,408.881 " fill="none" id="Namable-Resistance" style="stroke: #A80036; stroke-width: 1.0;"/><polygon fill="none" points="811.446,330.427,814.861,309.514,825.232,327.992,811.446,330.427" style="stroke: #A80036; stroke-width: 1.0;"/><!--link Buyable to Resistance--><path d="M631.641,333.156 C665.275,356.722 704.281,384.052 739.699,408.869 " fill="none" id="Buyable-Resistance" style="stroke: #A80036; stroke-width: 1.0;"/><polygon fill="none" points="627.459,338.773,615.097,321.564,635.493,327.307,627.459,338.773" style="stroke: #A80036; stroke-width: 1.0;"/><!--link BoughtFrom to Special--><path d="M416.177,126.756 C399.293,182.084 382.578,268.351 413.5,335 C421.874,353.049 450.413,379.583 482.084,405.219 " fill="none" id="BoughtFrom-Special" style="stroke: #A80036; stroke-width: 1.0;"/><polygon fill="#A80036" points="486.367,408.665,481.8622,399.9068,482.4713,405.5307,476.8473,406.1399,486.367,408.665" style="stroke: #A80036; stroke-width: 1.0;"/><text fill="#000000" font-family="sans-serif" font-size="13" lengthAdjust="spacingAndGlyphs" textLength="45" x="414.5" y="277.0669">Source</text><!--link Stat to Special--><path d="M833.422,94.038 C796.536,118.644 739.669,161.124 703.5,210 C659.982,268.808 629.319,346.554 610.661,404.033 " fill="none" id="Stat-Special" style="stroke: #A80036; stroke-width: 1.0;"/><polygon fill="#A80036" points="609.116,408.832,615.6822,401.4914,610.6486,404.0727,608.0673,399.0391,609.116,408.832" style="stroke: #A80036; stroke-width: 1.0;"/><text fill="#000000" font-family="sans-serif" font-size="13" lengthAdjust="spacingAndGlyphs" textLength="27" x="704.5" y="277.0669">Stat</text><!--link Namable to Special--><path d="M756.204,323.393 C741.727,337.198 726.007,352.183 711.5,366 C696.988,379.822 681.507,394.556 666.595,408.742 " fill="none" id="Namable-Special" style="stroke: #A80036; stroke-width: 1.0;"/><polygon fill="none" points="751.433,318.27,770.737,309.532,761.095,328.401,751.433,318.27" style="stroke: #A80036; stroke-width: 1.0;"/><!--link Buyable to Special--><path d="M562.851,355.059 C566.397,372.75 570.13,391.37 573.617,408.76 " fill="none" id="Buyable-Special" style="stroke: #A80036; stroke-width: 1.0;"/><polygon fill="none" points="555.942,356.21,558.874,335.224,569.669,353.458,555.942,356.21" style="stroke: #A80036; stroke-width: 1.0;"/><!--link Stat to Feat--><path d="M905.676,88.675 C947.242,110.524 1013.79,152.449 1045.5,210 C1082.18,276.567 1092.64,364.749 1095.27,422.636 " fill="none" id="Stat-Feat" style="stroke: #A80036; stroke-width: 1.0;"/><polygon fill="#A80036" points="1095.49,427.793,1099.1077,418.6326,1095.2796,422.7974,1091.1148,418.9693,1095.49,427.793" style="stroke: #A80036; stroke-width: 1.0;"/><text fill="#000000" font-family="sans-serif" font-size="13" lengthAdjust="spacingAndGlyphs" textLength="27" x="1086.5" y="277.0669">Stat</text><!--link Namable to Feat--><path d="M874.078,321.37 C917.573,353.12 974.777,394.876 1020.14,427.993 " fill="none" id="Namable-Feat" style="stroke: #A80036; stroke-width: 1.0;"/><polygon fill="none" points="869.864,326.96,857.837,309.514,878.118,315.652,869.864,326.96" style="stroke: #A80036; stroke-width: 1.0;"/><!--link List to Something--><path d="M57.5,107.938 C57.5,148.802 57.5,213.854 57.5,248.315 " fill="none" id="List-Something" style="stroke: #A80036; stroke-width: 1.0;"/><polygon fill="#A80036" points="57.5,94.834,53.5,100.834,57.5,106.834,61.5,100.834,57.5,94.834" style="stroke: #A80036; stroke-width: 1.0;"/><text fill="#000000" font-family="sans-serif" font-size="13" lengthAdjust="spacingAndGlyphs" textLength="37" x="58.5" y="176.0669">ALIAS</text><!--link Stat to Statistic--><path d="M905.535,89.963 C940.706,108.123 995.618,136.847 1042.5,163 C1078.51,183.089 1091.13,183.235 1122.5,210 C1189.69,267.323 1252.39,346.386 1294.44,404.678 " fill="none" id="Stat-Statistic" style="stroke: #A80036; stroke-width: 1.0;"/><polygon fill="#A80036" points="1297.43,408.839,1295.4375,399.1938,1294.5169,404.7753,1288.9355,403.8547,1297.43,408.839" style="stroke: #A80036; stroke-width: 1.0;"/><text fill="#000000" font-family="sans-serif" font-size="13" lengthAdjust="spacingAndGlyphs" textLength="27" x="1241.5" y="277.0669">Stat</text><!--link Statistic to Character--><path d="M1370.11,559.098 C1372.31,579.733 1370.43,601.317 1359.5,619 C1327.11,671.406 1261.51,699.789 1210.15,714.61 " fill="none" id="Statistic-Character" style="stroke: #A80036; stroke-width: 1.0;"/><polygon fill="#A80036" points="1205.23,716.0023,1214.9817,717.382,1210.0385,714.6317,1212.7888,709.6885,1205.23,716.0023" style="stroke: #A80036; stroke-width: 1.0;"/><text fill="#000000" font-family="sans-serif" font-size="13" lengthAdjust="spacingAndGlyphs" textLength="56" x="1367.5" y="615.0669">Strength</text><!--link Statistic to Character--><path d="M1428.67,559.071 C1441,578.757 1445.75,599.861 1432.5,619 C1382.71,690.906 1279.89,716.0853 1210.05,724.863 " fill="none" id="Statistic-Character-1" style="stroke: #A80036; stroke-width: 1.0;"/><polygon fill="#A80036" points="1205.08,725.467,1214.495,728.358,1210.0439,724.867,1213.5349,720.4158,1205.08,725.467" style="stroke: #A80036; stroke-width: 1.0;"/><text fill="#000000" font-family="sans-serif" font-size="13" lengthAdjust="spacingAndGlyphs" textLength="38" x="1439.5" y="615.0669">Agility</text><!--link Statistic to Character--><path d="M1242.78,559.068 C1234.09,563.811 1225.27,568.199 1216.5,572 C1163.29,595.071 1125.49,556.519 1089.5,602 C1079.72,614.363 1078.32,628.905 1081.61,643.659 " fill="none" id="Statistic-Character-2" style="stroke: #A80036; stroke-width: 1.0;"/><polygon fill="#A80036" points="1082.9,648.667,1084.5265,638.9534,1081.6517,643.8253,1076.7798,640.9506,1082.9,648.667" style="stroke: #A80036; stroke-width: 1.0;"/><text fill="#000000" font-family="sans-serif" font-size="13" lengthAdjust="spacingAndGlyphs" textLength="51" x="1090.5" y="615.0669">Intuition</text><!--link Statistic to Character--><path d="M1237.52,559.261 C1210.26,578.424 1187.37,595.502 1182.5,602 C1173.16,614.458 1165.71,629.044 1159.79,643.814 " fill="none" id="Statistic-Character-3" style="stroke: #A80036; stroke-width: 1.0;"/><polygon fill="#A80036" points="1157.84,648.827,1164.8323,641.891,1159.6537,644.1676,1157.3772,638.989,1157.84,648.827" style="stroke: #A80036; stroke-width: 1.0;"/><text fill="#000000" font-family="sans-serif" font-size="13" lengthAdjust="spacingAndGlyphs" textLength="68" x="1183.5" y="615.0669">Perception</text><!--link Statistic to Character--><path d="M1301.44,559.127 C1287.82,579.218 1272.31,600.512 1256.5,619 C1242,635.956 1225.13,653.036 1208.76,668.528 " fill="none" id="Statistic-Character-4" style="stroke: #A80036; stroke-width: 1.0;"/><polygon fill="#A80036" points="1205.05,672.015,1214.3514,668.7771,1208.6975,668.5951,1208.8795,662.9411,1205.05,672.015" style="stroke: #A80036; stroke-width: 1.0;"/><text fill="#000000" font-family="sans-serif" font-size="13" lengthAdjust="spacingAndGlyphs" textLength="61" x="1268.5" y="615.0669">Charisma</text><!--link Skill to Character--><path d="M442.516,563.863 C448.161,566.788 453.838,569.523 459.5,572 C669.175,663.742 939.64,705.893 1066.63,721.6536 " fill="none" id="Skill-Character" style="stroke: #A80036; stroke-width: 1.0;"/><polygon fill="#A80036" points="1071.83,722.2939,1063.3896,717.2186,1066.8679,721.6797,1062.4068,725.158,1071.83,722.2939" style="stroke: #A80036; stroke-width: 1.0;"/><text fill="#000000" font-family="sans-serif" font-size="13" lengthAdjust="spacingAndGlyphs" textLength="51" x="585.5" y="615.0669">List Skill</text><text fill="#000000" font-family="sans-serif" font-size="13" lengthAdjust="spacingAndGlyphs" textLength="23" x="446.6052" y="567.8499">0..*</text><text fill="#000000" font-family="sans-serif" font-size="13" lengthAdjust="spacingAndGlyphs" textLength="8" x="1056.1005" y="717.6371">1</text><!--link Special to Character--><path d="M694.307,559.17 C702.036,563.713 709.815,568.042 717.5,572 C835.121,632.589 981.604,682.006 1067.13,708.474 " fill="none" id="Special-Character" style="stroke: #A80036; stroke-width: 1.0;"/><polygon fill="#A80036" points="1071.91,709.951,1064.4862,703.4789,1067.1315,708.4792,1062.1313,711.1245,1071.91,709.951" style="stroke: #A80036; stroke-width: 1.0;"/><text fill="#000000" font-family="sans-serif" font-size="13" lengthAdjust="spacingAndGlyphs" textLength="72" x="818.5" y="615.0669">List Special</text><text fill="#000000" font-family="sans-serif" font-size="13" lengthAdjust="spacingAndGlyphs" textLength="23" x="681.0324" y="579.7465">0..*</text><text fill="#000000" font-family="sans-serif" font-size="13" lengthAdjust="spacingAndGlyphs" textLength="8" x="1056.1892" y="703.9441">1</text><!--link Feat to Character--><path d="M1017.63,540.174 C995.014,563.219 979.682,591.097 993.5,619 C1009.23,650.769 1038.96,675.891 1067.42,694.102 " fill="none" id="Feat-Character" style="stroke: #A80036; stroke-width: 1.0;"/><polygon fill="#A80036" points="1071.97,696.965,1066.4741,688.7922,1067.7352,694.3067,1062.2208,695.5678,1071.97,696.965" style="stroke: #A80036; stroke-width: 1.0;"/><text fill="#000000" font-family="sans-serif" font-size="13" lengthAdjust="spacingAndGlyphs" textLength="54" x="994.5" y="615.0669">List Feat</text><text fill="#000000" font-family="sans-serif" font-size="13" lengthAdjust="spacingAndGlyphs" textLength="23" x="983.7425" y="560.0078">0..*</text><text fill="#000000" font-family="sans-serif" font-size="13" lengthAdjust="spacingAndGlyphs" textLength="8" x="1055.815" y="689.2809">1</text><!--
@startuml
class "List" as List  {
}
enum BoughtFrom {
	Racial Package
	Professional Package
	XP
	Gift
	Other

}
abstract "Stat" as Stat {
	Strength 
	Agility 
	Intuition 
	Perception 
	Charisma 
	None 
}
class "Namable" as Namable  {
	Name: String 
	Description: String 
}
class "Buyable" as Buyable  {
	Source: BoughtFrom 
	Stat: Stat 
	Bought: Boolean 
	Skilled: Boolean 
	Professional: Boolean 
	Master: Boolean 
}
BoughtFrom - -> Buyable : Source
Stat - -> Buyable : Stat
class "Skill " as Skill <Namable,Buyable> {
	Name: String  <i>from Namable</i>
	Description: String  <i>from Namable</i>
	Source: BoughtFrom  <i>from Buyable</i>
	Stat: Stat  <i>from Buyable</i>
	Bought: Boolean  <i>from Buyable</i>
	Skilled: Boolean  <i>from Buyable</i>
	Professional: Boolean  <i>from Buyable</i>
	Master: Boolean  <i>from Buyable</i>
===
  <b>description</b>: A skill is
 something a character can do
}
BoughtFrom - -> Skill : Source
Stat - -> Skill : Stat
Namable <|- - Skill
Buyable <|- - Skill
class "Resistance " as Resistance <Namable,Buyable> {
	Name: String  <i>from Namable</i>
	Description: String  <i>from Namable</i>
	Source: BoughtFrom  <i>from Buyable</i>
	Stat: Stat  <i>from Buyable</i>
	Bought: Boolean  <i>from Buyable</i>
	Skilled: Boolean  <i>from Buyable</i>
	Professional: Boolean  <i>from Buyable</i>
	Master: Boolean  <i>from Buyable</i>
}
BoughtFrom - -> Resistance : Source
Stat - -> Resistance : Stat
Namable <|- - Resistance
Buyable <|- - Resistance
class "Special " as Special <Namable,Buyable> {
	Name: String  <i>from Namable</i>
	Description: String  <i>from Namable</i>
	Source: BoughtFrom  <i>from Buyable</i>
	Stat: Stat  <i>from Buyable</i>
	Bought: Boolean  <i>from Buyable</i>
	Skilled: Boolean  <i>from Buyable</i>
	Professional: Boolean  <i>from Buyable</i>
	Master: Boolean  <i>from Buyable</i>
}
BoughtFrom - -> Special : Source
Stat - -> Special : Stat
Namable <|- - Special
Buyable <|- - Special
class "Feat " as Feat <Namable> {
	Rank: Number 
	XP: Number 
	Stat: Stat 
	Name: String  <i>from Namable</i>
	Description: String  <i>from Namable</i>
}
Stat - -> Feat : Stat
Namable <|- - Feat
class "Something " as Something  {
}
List *- - Something: ALIAS
class "Statistic" as Statistic  {
	Stat: Stat 
	Description: String 
	XP: XP 
	Value: Number 
===
  <b>description</b>: A statistic is a
 base value for a character's potential
 Statistics serve as a base bonus for
 certain abilities.
}
Stat - -> Statistic : Stat
class "Character" as Character  {
	Name: String 
	Skills: List Skill
	Specials: List Special
	Feats: List Feat
	Strength: Statistic 
	Agility: Statistic 
	Intuition: Statistic 
	Perception: Statistic 
	Charisma: Statistic 
}
Statistic - -> Character : Strength
Statistic - -> Character : Agility
Statistic - -> Character : Intuition
Statistic - -> Character : Perception
Statistic - -> Character : Charisma
Skill "0..*" - -> "1" Character : List Skill
Special "0..*" - -> "1" Character : List Special
Feat "0..*" - -> "1" Character : List Feat
@enduml

PlantUML version 1.2019.08(Sat Jul 13 19:25:14 UTC 2019)
(GPL source distribution)
Java Runtime: Java(TM) SE Runtime Environment
JVM: Java HotSpot(TM) 64-Bit Server VM
Java Version: 1.7.0_25-b15
Operating System: Linux
Default Encoding: UTF-8
Language: en
Country: US
--></g></svg>