<?xml version="1.0" encoding="UTF-8" standalone="no"?><svg xmlns="http://www.w3.org/2000/svg" xmlns:xlink="http://www.w3.org/1999/xlink" contentScriptType="application/ecmascript" contentStyleType="text/css" height="268px" preserveAspectRatio="none" style="width:586px;height:268px;" version="1.1" viewBox="0 0 586 268" width="586px" zoomAndPan="magnify"><defs><filter height="300%" id="f7ix0jhtsokhw" width="300%" x="-1" y="-1"><feGaussianBlur result="blurOut" stdDeviation="2.0"/><feColorMatrix in="blurOut" result="blurOut2" type="matrix" values="0 0 0 0 0 0 0 0 0 0 0 0 0 0 0 0 0 0 .4 0"/><feOffset dx="4.0" dy="4.0" in="blurOut2" result="blurOut3"/><feBlend in="SourceGraphic" in2="blurOut3" mode="normal"/></filter></defs><g><!--class Currency--><rect fill="#FEFECE" filter="url(#f7ix0jhtsokhw)" height="99.2188" id="Currency" style="stroke: #A80036; stroke-width: 1.5;" width="185" x="6" y="8"/><ellipse cx="34.95" cy="24" fill="#DA70D6" rx="11" ry="11" style="stroke: #A80036; stroke-width: 1.0;"/><path d="M35.3875,21.5313 L35.3875,28.0469 L36.5125,28.0469 C36.9656,28.0469 37.1063,28.0781 37.2625,28.2031 C37.4969,28.375 37.6219,28.625 37.6219,28.9063 C37.6219,29.1875 37.4813,29.4844 37.2156,29.625 C37.1063,29.7031 36.8406,29.75 36.5125,29.75 L32.575,29.75 C32.1844,29.75 31.9656,29.7031 31.8094,29.5781 C31.5906,29.4219 31.45,29.1563 31.45,28.9063 C31.45,28.6094 31.6063,28.3281 31.8563,28.1719 C32.0125,28.0625 32.1375,28.0469 32.575,28.0469 L33.6844,28.0469 L33.6844,21.5313 L31.8563,21.5313 L31.8563,23.125 C31.8563,23.5781 31.825,23.7188 31.7156,23.8906 C31.5438,24.1094 31.2938,24.2344 31.0125,24.2344 C30.7313,24.2344 30.4344,24.0938 30.2781,23.8281 C30.2,23.6875 30.1688,23.5156 30.1688,23.125 L30.1688,19.8438 L38.9344,19.8438 L38.9344,23.125 C38.9344,23.5938 38.9188,23.7188 38.7781,23.8906 C38.6063,24.1094 38.3563,24.2344 38.0906,24.2344 C37.7938,24.2344 37.5125,24.0781 37.3563,23.8281 C37.2625,23.6875 37.2313,23.5156 37.2313,23.125 L37.2313,21.5313 Z "/><text fill="#000000" font-family="sans-serif" font-size="12" lengthAdjust="spacingAndGlyphs" textLength="122" x="52.05" y="28.1543">Currency sign value</text><line style="stroke: #A80036; stroke-width: 1.5;" x1="7" x2="190" y1="40" y2="40"/><text fill="#000000" font-family="sans-serif" font-size="11" lengthAdjust="spacingAndGlyphs" textLength="67" x="12" y="54.2104">Sign: String</text><text fill="#000000" font-family="sans-serif" font-size="11" lengthAdjust="spacingAndGlyphs" textLength="84" x="12" y="67.0151">Value: Number</text><line style="stroke: #A80036; stroke-width: 1.0;" x1="7" x2="190" y1="73.6094" y2="73.6094"/><line style="stroke: #A80036; stroke-width: 1.0;" x1="7" x2="190" y1="75.6094" y2="75.6094"/><text fill="#000000" font-family="sans-serif" font-size="11" font-weight="bold" lengthAdjust="spacingAndGlyphs" textLength="169" x="12" y="87.8198">Currency is expressen like</text><text fill="#000000" font-family="sans-serif" font-size="11" lengthAdjust="spacingAndGlyphs" textLength="4" x="181" y="87.8198">:</text><text fill="#000000" font-family="sans-serif" font-size="11" lengthAdjust="spacingAndGlyphs" textLength="39" x="12" y="100.6245">$12,00</text><!--class CreditCard--><rect fill="#FEFECE" filter="url(#f7ix0jhtsokhw)" height="73.6094" id="CreditCard" style="stroke: #A80036; stroke-width: 1.5;" width="128" x="226.5" y="20.5"/><ellipse cx="255" cy="36.5" fill="#ADD1B2" rx="11" ry="11" style="stroke: #A80036; stroke-width: 1.0;"/><path d="M257.3438,32.1719 L257.5156,32.25 C257.7344,31.9375 257.9375,31.8438 258.2344,31.8438 C258.5313,31.8438 258.8125,31.9844 258.9688,32.25 C259.0625,32.4063 259.0781,32.5313 259.0781,32.9688 L259.0781,34.3906 C259.0781,34.8125 259.0469,35 258.9375,35.1563 C258.7656,35.375 258.5,35.5156 258.2344,35.5156 C258.0156,35.5156 257.7813,35.4063 257.6406,35.2656 C257.5,35.1406 257.4688,35.0156 257.4063,34.6094 C257.3125,34.2031 257.1406,33.9844 256.6563,33.7031 C256.1875,33.4531 255.5781,33.2969 255,33.2969 C253.2656,33.2969 252.0156,34.6094 252.0156,36.3906 L252.0156,37.4844 C252.0156,39.1875 253.3125,40.2813 255.3594,40.2813 C256.125,40.2813 256.8125,40.1563 257.2344,39.8906 C257.4219,39.7969 257.4219,39.7969 257.875,39.3125 C258.0625,39.125 258.2656,39.0469 258.4844,39.0469 C258.9531,39.0469 259.3438,39.4375 259.3438,39.8906 C259.3438,40.2813 259.0156,40.7344 258.4375,41.1406 C257.6875,41.6875 256.5313,41.9844 255.3125,41.9844 C252.4219,41.9844 250.3125,40.0938 250.3125,37.5156 L250.3125,36.3906 C250.3125,33.6719 252.3125,31.5938 254.9375,31.5938 C255.8125,31.5938 256.4063,31.7344 257.3438,32.1719 Z "/><text fill="#000000" font-family="sans-serif" font-size="12" lengthAdjust="spacingAndGlyphs" textLength="66" x="272" y="40.6543">CreditCard</text><line style="stroke: #A80036; stroke-width: 1.5;" x1="227.5" x2="353.5" y1="52.5" y2="52.5"/><text fill="#000000" font-family="sans-serif" font-size="11" lengthAdjust="spacingAndGlyphs" textLength="87" x="232.5" y="66.7104">Number: String</text><text fill="#000000" font-family="sans-serif" font-size="11" lengthAdjust="spacingAndGlyphs" textLength="116" x="232.5" y="79.5151">ExpirationDate: Date</text><line style="stroke: #A80036; stroke-width: 1.5;" x1="227.5" x2="353.5" y1="86.1094" y2="86.1094"/><!--class DirectDebit--><rect fill="#FEFECE" filter="url(#f7ix0jhtsokhw)" height="86.4141" id="DirectDebit" style="stroke: #A80036; stroke-width: 1.5;" width="186" x="389.5" y="14.5"/><ellipse cx="443.25" cy="30.5" fill="#ADD1B2" rx="11" ry="11" style="stroke: #A80036; stroke-width: 1.0;"/><path d="M445.5938,26.1719 L445.7656,26.25 C445.9844,25.9375 446.1875,25.8438 446.4844,25.8438 C446.7813,25.8438 447.0625,25.9844 447.2188,26.25 C447.3125,26.4063 447.3281,26.5313 447.3281,26.9688 L447.3281,28.3906 C447.3281,28.8125 447.2969,29 447.1875,29.1563 C447.0156,29.375 446.75,29.5156 446.4844,29.5156 C446.2656,29.5156 446.0313,29.4063 445.8906,29.2656 C445.75,29.1406 445.7188,29.0156 445.6563,28.6094 C445.5625,28.2031 445.3906,27.9844 444.9063,27.7031 C444.4375,27.4531 443.8281,27.2969 443.25,27.2969 C441.5156,27.2969 440.2656,28.6094 440.2656,30.3906 L440.2656,31.4844 C440.2656,33.1875 441.5625,34.2813 443.6094,34.2813 C444.375,34.2813 445.0625,34.1563 445.4844,33.8906 C445.6719,33.7969 445.6719,33.7969 446.125,33.3125 C446.3125,33.125 446.5156,33.0469 446.7344,33.0469 C447.2031,33.0469 447.5938,33.4375 447.5938,33.8906 C447.5938,34.2813 447.2656,34.7344 446.6875,35.1406 C445.9375,35.6875 444.7813,35.9844 443.5625,35.9844 C440.6719,35.9844 438.5625,34.0938 438.5625,31.5156 L438.5625,30.3906 C438.5625,27.6719 440.5625,25.5938 443.1875,25.5938 C444.0625,25.5938 444.6563,25.7344 445.5938,26.1719 Z "/><text fill="#000000" font-family="sans-serif" font-size="12" lengthAdjust="spacingAndGlyphs" textLength="70" x="463.75" y="34.6543">DirectDebit</text><line style="stroke: #A80036; stroke-width: 1.5;" x1="390.5" x2="574.5" y1="46.5" y2="46.5"/><text fill="#000000" font-family="sans-serif" font-size="11" lengthAdjust="spacingAndGlyphs" textLength="159" x="395.5" y="60.7104">BankAccountNumber: String</text><line style="stroke: #A80036; stroke-width: 1.0;" x1="390.5" x2="574.5" y1="67.3047" y2="67.3047"/><line style="stroke: #A80036; stroke-width: 1.0;" x1="390.5" x2="574.5" y1="69.3047" y2="69.3047"/><text fill="#000000" font-family="sans-serif" font-size="11" font-weight="bold" lengthAdjust="spacingAndGlyphs" textLength="72" x="395.5" y="81.5151">description</text><text fill="#000000" font-family="sans-serif" font-size="11" lengthAdjust="spacingAndGlyphs" textLength="102" x="467.5" y="81.5151">: Pay from a debit</text><text fill="#000000" font-family="sans-serif" font-size="11" lengthAdjust="spacingAndGlyphs" textLength="44" x="395.5" y="94.3198">account</text><!--class PaymentMethod--><rect fill="#FEFECE" filter="url(#f7ix0jhtsokhw)" height="73.6094" id="PaymentMethod" style="stroke: #A80036; stroke-width: 1.5;" width="133" x="320" y="184"/><ellipse cx="335" cy="200" fill="#A9DCDF" rx="11" ry="11" style="stroke: #A80036; stroke-width: 1.0;"/><path d="M336.5781,201.8125 L332.5313,201.8125 L332.1406,202.7969 L332.5313,202.7969 C332.9844,202.7969 333.125,202.8281 333.2969,202.9531 C333.5156,203.125 333.6406,203.375 333.6406,203.6563 C333.6406,203.9375 333.5,204.2344 333.2344,204.375 C333.1094,204.4688 332.8906,204.5 332.5313,204.5 L330.2656,204.5 C329.5156,204.5 329.1406,204.2188 329.1406,203.6563 C329.1406,203.3594 329.2969,203.0781 329.5469,202.9219 C329.7031,202.8125 329.8594,202.7969 330.2813,202.7969 L332.9219,196.2813 L331.8438,196.2813 C331.4063,196.2813 331.2344,196.25 331.0625,196.1406 C330.8438,195.9688 330.7031,195.7188 330.7031,195.4375 C330.7031,195.1563 330.8594,194.875 331.1094,194.7031 C331.2656,194.6094 331.3906,194.5938 331.8438,194.5938 L335.5156,194.5938 L338.9063,202.7969 C339.375,202.7969 339.5313,202.8281 339.7031,202.9688 C339.9219,203.125 340.0625,203.375 340.0625,203.6563 C340.0625,203.9375 339.9063,204.2344 339.6563,204.375 C339.5156,204.4688 339.2969,204.5 338.9375,204.5 L336.5781,204.5 C336.1563,204.5 335.9531,204.4531 335.8125,204.3281 C335.5938,204.1719 335.4531,203.9219 335.4531,203.6563 C335.4531,203.3594 335.6094,203.0781 335.8594,202.9219 C336.0156,202.8125 336.125,202.7969 336.5781,202.7969 L336.9688,202.7969 Z M335.875,200.1094 L334.5469,196.8438 L333.2031,200.1094 Z "/><text fill="#000000" font-family="sans-serif" font-size="12" font-style="italic" lengthAdjust="spacingAndGlyphs" textLength="101" x="349" y="204.1543">PaymentMethod</text><line style="stroke: #A80036; stroke-width: 1.5;" x1="321" x2="452" y1="216" y2="216"/><text fill="#000000" font-family="sans-serif" font-size="11" lengthAdjust="spacingAndGlyphs" textLength="61" x="326" y="230.2104">CreditCard</text><text fill="#000000" font-family="sans-serif" font-size="11" lengthAdjust="spacingAndGlyphs" textLength="62" x="326" y="243.0151">DirectDebit</text><line style="stroke: #A80036; stroke-width: 1.5;" x1="321" x2="452" y1="249.6094" y2="249.6094"/><!--link CreditCard to PaymentMethod--><path d="M312.044,94.744 C326.99,119.887 346.912,153.402 362.388,179.4369 " fill="none" id="CreditCard-PaymentMethod" style="stroke: #A80036; stroke-width: 1.0;"/><polygon fill="#A80036" points="365.028,183.8772,363.8682,174.0969,362.4734,179.5791,356.9912,178.1842,365.028,183.8772" style="stroke: #A80036; stroke-width: 1.0;"/><text fill="#000000" font-family="sans-serif" font-size="13" lengthAdjust="spacingAndGlyphs" textLength="68" x="347.5" y="150.0669">CreditCard</text><!--link DirectDebit to PaymentMethod--><path d="M457.528,100.511 C443.041,124.882 424.886,155.424 410.557,179.5287 " fill="none" id="DirectDebit-PaymentMethod" style="stroke: #A80036; stroke-width: 1.0;"/><polygon fill="#A80036" points="407.928,183.9518,415.9658,178.2602,410.4833,179.6541,409.0894,174.1717,407.928,183.9518" style="stroke: #A80036; stroke-width: 1.0;"/><text fill="#000000" font-family="sans-serif" font-size="13" lengthAdjust="spacingAndGlyphs" textLength="72" x="435.5" y="150.0669">DirectDebit</text><!--
@startuml
class "Currency sign value" as Currency << (T,orchid) >> {
	Sign: String 
	Value: Number 
===
  <b>Currency is expressen like</b>:
 $12,00
}
class "CreditCard" as CreditCard  {
	Number: String 
	ExpirationDate: Date 
}
class "DirectDebit" as DirectDebit  {
	BankAccountNumber: String 
===
  <b>description</b>: Pay from a debit
 account
}
abstract "PaymentMethod" as PaymentMethod {
	CreditCard 
	DirectDebit 
}
CreditCard - -> PaymentMethod : CreditCard
DirectDebit - -> PaymentMethod : DirectDebit
@enduml

PlantUML version 1.2019.05beta2(Unknown compile time)
(GPL source distribution)
Java Runtime: Java(TM) SE Runtime Environment
JVM: Java HotSpot(TM) 64-Bit Server VM
Java Version: 1.7.0_25-b15
Operating System: Linux
Default Encoding: UTF-8
Language: en
Country: US
--></g></svg>