<?xml version="1.0" encoding="UTF-8" standalone="no"?><svg xmlns="http://www.w3.org/2000/svg" xmlns:xlink="http://www.w3.org/1999/xlink" contentScriptType="application/ecmascript" contentStyleType="text/css" height="243px" preserveAspectRatio="none" style="width:540px;height:243px;" version="1.1" viewBox="0 0 540 243" width="540px" zoomAndPan="magnify"><defs><filter height="300%" id="f11g6caxk6cay8" width="300%" x="-1" y="-1"><feGaussianBlur result="blurOut" stdDeviation="2.0"/><feColorMatrix in="blurOut" result="blurOut2" type="matrix" values="0 0 0 0 0 0 0 0 0 0 0 0 0 0 0 0 0 0 .4 0"/><feOffset dx="4.0" dy="4.0" in="blurOut2" result="blurOut3"/><feBlend in="SourceGraphic" in2="blurOut3" mode="normal"/></filter></defs><g><!--class Currency--><rect fill="#FEFECE" filter="url(#f11g6caxk6cay8)" height="73.6094" id="Currency" style="stroke: #A80036; stroke-width: 1.5;" width="154" x="6" y="8"/><ellipse cx="21" cy="24" fill="#DA70D6" rx="11" ry="11" style="stroke: #A80036; stroke-width: 1.0;"/><path d="M21.4375,21.5313 L21.4375,28.0469 L22.5625,28.0469 C23.0156,28.0469 23.1563,28.0781 23.3125,28.2031 C23.5469,28.375 23.6719,28.625 23.6719,28.9063 C23.6719,29.1875 23.5313,29.4844 23.2656,29.625 C23.1563,29.7031 22.8906,29.75 22.5625,29.75 L18.625,29.75 C18.2344,29.75 18.0156,29.7031 17.8594,29.5781 C17.6406,29.4219 17.5,29.1563 17.5,28.9063 C17.5,28.6094 17.6563,28.3281 17.9063,28.1719 C18.0625,28.0625 18.1875,28.0469 18.625,28.0469 L19.7344,28.0469 L19.7344,21.5313 L17.9063,21.5313 L17.9063,23.125 C17.9063,23.5781 17.875,23.7188 17.7656,23.8906 C17.5938,24.1094 17.3438,24.2344 17.0625,24.2344 C16.7813,24.2344 16.4844,24.0938 16.3281,23.8281 C16.25,23.6875 16.2188,23.5156 16.2188,23.125 L16.2188,19.8438 L24.9844,19.8438 L24.9844,23.125 C24.9844,23.5938 24.9688,23.7188 24.8281,23.8906 C24.6563,24.1094 24.4063,24.2344 24.1406,24.2344 C23.8438,24.2344 23.5625,24.0781 23.4063,23.8281 C23.3125,23.6875 23.2813,23.5156 23.2813,23.125 L23.2813,21.5313 Z "/><text fill="#000000" font-family="sans-serif" font-size="12" lengthAdjust="spacingAndGlyphs" textLength="122" x="35" y="28.1543">Currency sign value</text><line style="stroke: #A80036; stroke-width: 1.5;" x1="7" x2="159" y1="40" y2="40"/><text fill="#000000" font-family="sans-serif" font-size="11" lengthAdjust="spacingAndGlyphs" textLength="67" x="12" y="54.2104">Sign: String</text><text fill="#000000" font-family="sans-serif" font-size="11" lengthAdjust="spacingAndGlyphs" textLength="84" x="12" y="67.0151">Value: Number</text><line style="stroke: #A80036; stroke-width: 1.5;" x1="7" x2="159" y1="73.6094" y2="73.6094"/><!--class CreditCard--><rect fill="#FEFECE" filter="url(#f11g6caxk6cay8)" height="73.6094" id="CreditCard" style="stroke: #A80036; stroke-width: 1.5;" width="128" x="195" y="8"/><ellipse cx="223.5" cy="24" fill="#ADD1B2" rx="11" ry="11" style="stroke: #A80036; stroke-width: 1.0;"/><path d="M225.8438,19.6719 L226.0156,19.75 C226.2344,19.4375 226.4375,19.3438 226.7344,19.3438 C227.0313,19.3438 227.3125,19.4844 227.4688,19.75 C227.5625,19.9063 227.5781,20.0313 227.5781,20.4688 L227.5781,21.8906 C227.5781,22.3125 227.5469,22.5 227.4375,22.6563 C227.2656,22.875 227,23.0156 226.7344,23.0156 C226.5156,23.0156 226.2813,22.9063 226.1406,22.7656 C226,22.6406 225.9688,22.5156 225.9063,22.1094 C225.8125,21.7031 225.6406,21.4844 225.1563,21.2031 C224.6875,20.9531 224.0781,20.7969 223.5,20.7969 C221.7656,20.7969 220.5156,22.1094 220.5156,23.8906 L220.5156,24.9844 C220.5156,26.6875 221.8125,27.7813 223.8594,27.7813 C224.625,27.7813 225.3125,27.6563 225.7344,27.3906 C225.9219,27.2969 225.9219,27.2969 226.375,26.8125 C226.5625,26.625 226.7656,26.5469 226.9844,26.5469 C227.4531,26.5469 227.8438,26.9375 227.8438,27.3906 C227.8438,27.7813 227.5156,28.2344 226.9375,28.6406 C226.1875,29.1875 225.0313,29.4844 223.8125,29.4844 C220.9219,29.4844 218.8125,27.5938 218.8125,25.0156 L218.8125,23.8906 C218.8125,21.1719 220.8125,19.0938 223.4375,19.0938 C224.3125,19.0938 224.9063,19.2344 225.8438,19.6719 Z "/><text fill="#000000" font-family="sans-serif" font-size="12" lengthAdjust="spacingAndGlyphs" textLength="66" x="240.5" y="28.1543">CreditCard</text><line style="stroke: #A80036; stroke-width: 1.5;" x1="196" x2="322" y1="40" y2="40"/><text fill="#000000" font-family="sans-serif" font-size="11" lengthAdjust="spacingAndGlyphs" textLength="87" x="201" y="54.2104">Number: String</text><text fill="#000000" font-family="sans-serif" font-size="11" lengthAdjust="spacingAndGlyphs" textLength="116" x="201" y="67.0151">ExpirationDate: Date</text><line style="stroke: #A80036; stroke-width: 1.5;" x1="196" x2="322" y1="73.6094" y2="73.6094"/><!--class DirectDebit--><rect fill="#FEFECE" filter="url(#f11g6caxk6cay8)" height="60.8047" id="DirectDebit" style="stroke: #A80036; stroke-width: 1.5;" width="171" x="358.5" y="14.5"/><ellipse cx="404.75" cy="30.5" fill="#ADD1B2" rx="11" ry="11" style="stroke: #A80036; stroke-width: 1.0;"/><path d="M407.0938,26.1719 L407.2656,26.25 C407.4844,25.9375 407.6875,25.8438 407.9844,25.8438 C408.2813,25.8438 408.5625,25.9844 408.7188,26.25 C408.8125,26.4063 408.8281,26.5313 408.8281,26.9688 L408.8281,28.3906 C408.8281,28.8125 408.7969,29 408.6875,29.1563 C408.5156,29.375 408.25,29.5156 407.9844,29.5156 C407.7656,29.5156 407.5313,29.4063 407.3906,29.2656 C407.25,29.1406 407.2188,29.0156 407.1563,28.6094 C407.0625,28.2031 406.8906,27.9844 406.4063,27.7031 C405.9375,27.4531 405.3281,27.2969 404.75,27.2969 C403.0156,27.2969 401.7656,28.6094 401.7656,30.3906 L401.7656,31.4844 C401.7656,33.1875 403.0625,34.2813 405.1094,34.2813 C405.875,34.2813 406.5625,34.1563 406.9844,33.8906 C407.1719,33.7969 407.1719,33.7969 407.625,33.3125 C407.8125,33.125 408.0156,33.0469 408.2344,33.0469 C408.7031,33.0469 409.0938,33.4375 409.0938,33.8906 C409.0938,34.2813 408.7656,34.7344 408.1875,35.1406 C407.4375,35.6875 406.2813,35.9844 405.0625,35.9844 C402.1719,35.9844 400.0625,34.0938 400.0625,31.5156 L400.0625,30.3906 C400.0625,27.6719 402.0625,25.5938 404.6875,25.5938 C405.5625,25.5938 406.1563,25.7344 407.0938,26.1719 Z "/><text fill="#000000" font-family="sans-serif" font-size="12" lengthAdjust="spacingAndGlyphs" textLength="70" x="425.25" y="34.6543">DirectDebit</text><line style="stroke: #A80036; stroke-width: 1.5;" x1="359.5" x2="528.5" y1="46.5" y2="46.5"/><text fill="#000000" font-family="sans-serif" font-size="11" lengthAdjust="spacingAndGlyphs" textLength="159" x="364.5" y="60.7104">BankAccountNumber: String</text><line style="stroke: #A80036; stroke-width: 1.5;" x1="359.5" x2="528.5" y1="67.3047" y2="67.3047"/><!--class PaymentMethod--><rect fill="#FEFECE" filter="url(#f11g6caxk6cay8)" height="73.6094" id="PaymentMethod" style="stroke: #A80036; stroke-width: 1.5;" width="133" x="284.5" y="159"/><ellipse cx="299.5" cy="175" fill="#A9DCDF" rx="11" ry="11" style="stroke: #A80036; stroke-width: 1.0;"/><path d="M301.0781,176.8125 L297.0313,176.8125 L296.6406,177.7969 L297.0313,177.7969 C297.4844,177.7969 297.625,177.8281 297.7969,177.9531 C298.0156,178.125 298.1406,178.375 298.1406,178.6563 C298.1406,178.9375 298,179.2344 297.7344,179.375 C297.6094,179.4688 297.3906,179.5 297.0313,179.5 L294.7656,179.5 C294.0156,179.5 293.6406,179.2188 293.6406,178.6563 C293.6406,178.3594 293.7969,178.0781 294.0469,177.9219 C294.2031,177.8125 294.3594,177.7969 294.7813,177.7969 L297.4219,171.2813 L296.3438,171.2813 C295.9063,171.2813 295.7344,171.25 295.5625,171.1406 C295.3438,170.9688 295.2031,170.7188 295.2031,170.4375 C295.2031,170.1563 295.3594,169.875 295.6094,169.7031 C295.7656,169.6094 295.8906,169.5938 296.3438,169.5938 L300.0156,169.5938 L303.4063,177.7969 C303.875,177.7969 304.0313,177.8281 304.2031,177.9688 C304.4219,178.125 304.5625,178.375 304.5625,178.6563 C304.5625,178.9375 304.4063,179.2344 304.1563,179.375 C304.0156,179.4688 303.7969,179.5 303.4375,179.5 L301.0781,179.5 C300.6563,179.5 300.4531,179.4531 300.3125,179.3281 C300.0938,179.1719 299.9531,178.9219 299.9531,178.6563 C299.9531,178.3594 300.1094,178.0781 300.3594,177.9219 C300.5156,177.8125 300.625,177.7969 301.0781,177.7969 L301.4688,177.7969 Z M300.375,175.1094 L299.0469,171.8438 L297.7031,175.1094 Z "/><text fill="#000000" font-family="sans-serif" font-size="12" font-style="italic" lengthAdjust="spacingAndGlyphs" textLength="101" x="313.5" y="179.1543">PaymentMethod</text><line style="stroke: #A80036; stroke-width: 1.5;" x1="285.5" x2="416.5" y1="191" y2="191"/><text fill="#000000" font-family="sans-serif" font-size="11" lengthAdjust="spacingAndGlyphs" textLength="61" x="290.5" y="205.2104">CreditCard</text><text fill="#000000" font-family="sans-serif" font-size="11" lengthAdjust="spacingAndGlyphs" textLength="62" x="290.5" y="218.0151">DirectDebit</text><line style="stroke: #A80036; stroke-width: 1.5;" x1="285.5" x2="416.5" y1="224.6094" y2="224.6094"/><!--link CreditCard to PaymentMethod--><path d="M284.011,86.506 C297.938,109.063 315.134,136.9122 328.616,158.747 " fill="none" id="CreditCard-PaymentMethod" style="stroke: #A80036; stroke-width: 1.0;"/><polygon fill="#A80036" points="281.271,82.069,282.5964,91.8283,283.8981,86.3232,289.4032,87.6249,281.271,82.069" style="stroke: #A80036; stroke-width: 1.0;"/><text fill="#000000" font-family="sans-serif" font-size="13" lengthAdjust="spacingAndGlyphs" textLength="68" x="308" y="125.0669">CreditCard</text><!--link DirectDebit to PaymentMethod--><path d="M422.715,80.101 C408.006,103.668 388.471,134.9657 373.504,158.9446 " fill="none" id="DirectDebit-PaymentMethod" style="stroke: #A80036; stroke-width: 1.0;"/><polygon fill="#A80036" points="425.404,75.794,417.2455,81.3112,422.7567,80.0357,424.0322,85.5469,425.404,75.794" style="stroke: #A80036; stroke-width: 1.0;"/><text fill="#000000" font-family="sans-serif" font-size="13" lengthAdjust="spacingAndGlyphs" textLength="72" x="401" y="125.0669">DirectDebit</text><!--
@startuml
class "Currency sign value" as Currency << (T,orchid) >> {
	Sign: String 
	Value: Number 
}
class "CreditCard" as CreditCard  {
	Number: String 
	ExpirationDate: Date 
}
class "DirectDebit" as DirectDebit  {
	BankAccountNumber: String 
}
abstract "PaymentMethod" as PaymentMethod {
	CreditCard 
	DirectDebit 
}
CreditCard <- - PaymentMethod : CreditCard
DirectDebit <- - PaymentMethod : DirectDebit
@enduml

PlantUML version 1.2019.05beta2(Unknown compile time)
(GPL source distribution)
Java Runtime: Java(TM) SE Runtime Environment
JVM: Java HotSpot(TM) 64-Bit Server VM
Java Version: 1.7.0_25-b15
Operating System: Linux
Default Encoding: UTF-8
Language: en
Country: US
--></g></svg>