<?xml version="1.0" encoding="UTF-8" standalone="no"?><svg xmlns="http://www.w3.org/2000/svg" xmlns:xlink="http://www.w3.org/1999/xlink" contentScriptType="application/ecmascript" contentStyleType="text/css" height="135px" preserveAspectRatio="none" style="width:271px;height:135px;" version="1.1" viewBox="0 0 271 135" width="271px" zoomAndPan="magnify"><defs><filter height="300%" id="fha7t8fxhkvw1" width="300%" x="-1" y="-1"><feGaussianBlur result="blurOut" stdDeviation="2.0"/><feColorMatrix in="blurOut" result="blurOut2" type="matrix" values="0 0 0 0 0 0 0 0 0 0 0 0 0 0 0 0 0 0 .4 0"/><feOffset dx="4.0" dy="4.0" in="blurOut2" result="blurOut3"/><feBlend in="SourceGraphic" in2="blurOut3" mode="normal"/></filter></defs><g><!--cluster Person--><polygon fill="#FFFFFF" filter="url(#fha7t8fxhkvw1)" points="22,24,84,24,91,46.2969,249,46.2969,249,123,22,123,22,24" style="stroke: #000000; stroke-width: 1.5;"/><line style="stroke: #000000; stroke-width: 1.5;" x1="22" x2="91" y1="46.2969" y2="46.2969"/><text fill="#000000" font-family="sans-serif" font-size="14" font-weight="bold" lengthAdjust="spacingAndGlyphs" textLength="56" x="26" y="38.9951">Person</text><!--class Person.Person--><rect fill="#FEFECE" filter="url(#fha7t8fxhkvw1)" height="48" id="Person.Person" style="stroke: #A80036; stroke-width: 1.5;" width="76" x="157" y="59"/><ellipse cx="172" cy="75" fill="#ADD1B2" rx="11" ry="11" style="stroke: #A80036; stroke-width: 1.0;"/><path d="M174.3438,70.6719 L174.5156,70.75 C174.7344,70.4375 174.9375,70.3438 175.2344,70.3438 C175.5313,70.3438 175.8125,70.4844 175.9688,70.75 C176.0625,70.9063 176.0781,71.0313 176.0781,71.4688 L176.0781,72.8906 C176.0781,73.3125 176.0469,73.5 175.9375,73.6563 C175.7656,73.875 175.5,74.0156 175.2344,74.0156 C175.0156,74.0156 174.7813,73.9063 174.6406,73.7656 C174.5,73.6406 174.4688,73.5156 174.4063,73.1094 C174.3125,72.7031 174.1406,72.4844 173.6563,72.2031 C173.1875,71.9531 172.5781,71.7969 172,71.7969 C170.2656,71.7969 169.0156,73.1094 169.0156,74.8906 L169.0156,75.9844 C169.0156,77.6875 170.3125,78.7813 172.3594,78.7813 C173.125,78.7813 173.8125,78.6563 174.2344,78.3906 C174.4219,78.2969 174.4219,78.2969 174.875,77.8125 C175.0625,77.625 175.2656,77.5469 175.4844,77.5469 C175.9531,77.5469 176.3438,77.9375 176.3438,78.3906 C176.3438,78.7813 176.0156,79.2344 175.4375,79.6406 C174.6875,80.1875 173.5313,80.4844 172.3125,80.4844 C169.4219,80.4844 167.3125,78.5938 167.3125,76.0156 L167.3125,74.8906 C167.3125,72.1719 169.3125,70.0938 171.9375,70.0938 C172.8125,70.0938 173.4063,70.2344 174.3438,70.6719 Z "/><text fill="#000000" font-family="sans-serif" font-size="12" lengthAdjust="spacingAndGlyphs" textLength="44" x="186" y="79.1543">Person</text><line style="stroke: #A80036; stroke-width: 1.5;" x1="158" x2="232" y1="91" y2="91"/><line style="stroke: #A80036; stroke-width: 1.5;" x1="158" x2="232" y1="99" y2="99"/><!--class Person.Address--><rect fill="#FEFECE" filter="url(#fha7t8fxhkvw1)" height="48" id="Person.Address" style="stroke: #A80036; stroke-width: 1.5;" width="83" x="38.5" y="59"/><ellipse cx="53.5" cy="75" fill="#ADD1B2" rx="11" ry="11" style="stroke: #A80036; stroke-width: 1.0;"/><path d="M55.8438,70.6719 L56.0156,70.75 C56.2344,70.4375 56.4375,70.3438 56.7344,70.3438 C57.0313,70.3438 57.3125,70.4844 57.4688,70.75 C57.5625,70.9063 57.5781,71.0313 57.5781,71.4688 L57.5781,72.8906 C57.5781,73.3125 57.5469,73.5 57.4375,73.6563 C57.2656,73.875 57,74.0156 56.7344,74.0156 C56.5156,74.0156 56.2813,73.9063 56.1406,73.7656 C56,73.6406 55.9688,73.5156 55.9063,73.1094 C55.8125,72.7031 55.6406,72.4844 55.1563,72.2031 C54.6875,71.9531 54.0781,71.7969 53.5,71.7969 C51.7656,71.7969 50.5156,73.1094 50.5156,74.8906 L50.5156,75.9844 C50.5156,77.6875 51.8125,78.7813 53.8594,78.7813 C54.625,78.7813 55.3125,78.6563 55.7344,78.3906 C55.9219,78.2969 55.9219,78.2969 56.375,77.8125 C56.5625,77.625 56.7656,77.5469 56.9844,77.5469 C57.4531,77.5469 57.8438,77.9375 57.8438,78.3906 C57.8438,78.7813 57.5156,79.2344 56.9375,79.6406 C56.1875,80.1875 55.0313,80.4844 53.8125,80.4844 C50.9219,80.4844 48.8125,78.5938 48.8125,76.0156 L48.8125,74.8906 C48.8125,72.1719 50.8125,70.0938 53.4375,70.0938 C54.3125,70.0938 54.9063,70.2344 55.8438,70.6719 Z "/><text fill="#000000" font-family="sans-serif" font-size="12" lengthAdjust="spacingAndGlyphs" textLength="51" x="67.5" y="79.1543">Address</text><line style="stroke: #A80036; stroke-width: 1.5;" x1="39.5" x2="120.5" y1="91" y2="91"/><line style="stroke: #A80036; stroke-width: 1.5;" x1="39.5" x2="120.5" y1="99" y2="99"/><!--
@startuml
namespace Person {
    class Person
    class Address
}
@enduml

PlantUML version 1.2019.07beta1(Unknown compile time)
(GPL source distribution)
Java Runtime: Java(TM) SE Runtime Environment
JVM: Java HotSpot(TM) 64-Bit Server VM
Java Version: 1.7.0_25-b15
Operating System: Linux
Default Encoding: UTF-8
Language: en
Country: US
--></g></svg>