<?xml version="1.0" encoding="UTF-8" standalone="no"?><svg xmlns="http://www.w3.org/2000/svg" xmlns:xlink="http://www.w3.org/1999/xlink" contentScriptType="application/ecmascript" contentStyleType="text/css" height="273px" preserveAspectRatio="none" style="width:190px;height:273px;" version="1.1" viewBox="0 0 190 273" width="190px" zoomAndPan="magnify"><defs><filter height="300%" id="f1vrciq1iju66c" width="300%" x="-1" y="-1"><feGaussianBlur result="blurOut" stdDeviation="2.0"/><feColorMatrix in="blurOut" result="blurOut2" type="matrix" values="0 0 0 0 0 0 0 0 0 0 0 0 0 0 0 0 0 0 .4 0"/><feOffset dx="4.0" dy="4.0" in="blurOut2" result="blurOut3"/><feBlend in="SourceGraphic" in2="blurOut3" mode="normal"/></filter></defs><g><!--cluster Person--><polygon fill="#FFFFFF" filter="url(#f1vrciq1iju66c)" points="22,24,84,24,91,46.2969,168,46.2969,168,261,22,261,22,24" style="stroke: #000000; stroke-width: 1.5;"/><line style="stroke: #000000; stroke-width: 1.5;" x1="22" x2="91" y1="46.2969" y2="46.2969"/><text fill="#000000" font-family="sans-serif" font-size="14" font-weight="bold" lengthAdjust="spacingAndGlyphs" textLength="56" x="26" y="38.9951">Person</text><!--class Person.Person--><rect fill="#FEFECE" filter="url(#f1vrciq1iju66c)" height="60.8047" id="Person.Person" style="stroke: #A80036; stroke-width: 1.5;" width="114" x="38" y="184"/><ellipse cx="70.1" cy="200" fill="#ADD1B2" rx="11" ry="11" style="stroke: #A80036; stroke-width: 1.0;"/><path d="M72.4438,195.6719 L72.6156,195.75 C72.8344,195.4375 73.0375,195.3438 73.3344,195.3438 C73.6313,195.3438 73.9125,195.4844 74.0688,195.75 C74.1625,195.9063 74.1781,196.0313 74.1781,196.4688 L74.1781,197.8906 C74.1781,198.3125 74.1469,198.5 74.0375,198.6563 C73.8656,198.875 73.6,199.0156 73.3344,199.0156 C73.1156,199.0156 72.8813,198.9063 72.7406,198.7656 C72.6,198.6406 72.5688,198.5156 72.5063,198.1094 C72.4125,197.7031 72.2406,197.4844 71.7563,197.2031 C71.2875,196.9531 70.6781,196.7969 70.1,196.7969 C68.3656,196.7969 67.1156,198.1094 67.1156,199.8906 L67.1156,200.9844 C67.1156,202.6875 68.4125,203.7813 70.4594,203.7813 C71.225,203.7813 71.9125,203.6563 72.3344,203.3906 C72.5219,203.2969 72.5219,203.2969 72.975,202.8125 C73.1625,202.625 73.3656,202.5469 73.5844,202.5469 C74.0531,202.5469 74.4438,202.9375 74.4438,203.3906 C74.4438,203.7813 74.1156,204.2344 73.5375,204.6406 C72.7875,205.1875 71.6313,205.4844 70.4125,205.4844 C67.5219,205.4844 65.4125,203.5938 65.4125,201.0156 L65.4125,199.8906 C65.4125,197.1719 67.4125,195.0938 70.0375,195.0938 C70.9125,195.0938 71.5063,195.2344 72.4438,195.6719 Z "/><text fill="#000000" font-family="sans-serif" font-size="12" lengthAdjust="spacingAndGlyphs" textLength="44" x="87.9" y="204.1543">Person</text><line style="stroke: #A80036; stroke-width: 1.5;" x1="39" x2="151" y1="216" y2="216"/><text fill="#000000" font-family="sans-serif" font-size="11" lengthAdjust="spacingAndGlyphs" textLength="102" x="44" y="230.2104">Address: Address</text><line style="stroke: #A80036; stroke-width: 1.5;" x1="39" x2="151" y1="236.8047" y2="236.8047"/><!--class Person.Address--><rect fill="#FEFECE" filter="url(#f1vrciq1iju66c)" height="48" id="Person.Address" style="stroke: #A80036; stroke-width: 1.5;" width="83" x="53.5" y="59"/><ellipse cx="68.5" cy="75" fill="#ADD1B2" rx="11" ry="11" style="stroke: #A80036; stroke-width: 1.0;"/><path d="M70.8438,70.6719 L71.0156,70.75 C71.2344,70.4375 71.4375,70.3438 71.7344,70.3438 C72.0313,70.3438 72.3125,70.4844 72.4688,70.75 C72.5625,70.9063 72.5781,71.0313 72.5781,71.4688 L72.5781,72.8906 C72.5781,73.3125 72.5469,73.5 72.4375,73.6563 C72.2656,73.875 72,74.0156 71.7344,74.0156 C71.5156,74.0156 71.2813,73.9063 71.1406,73.7656 C71,73.6406 70.9688,73.5156 70.9063,73.1094 C70.8125,72.7031 70.6406,72.4844 70.1563,72.2031 C69.6875,71.9531 69.0781,71.7969 68.5,71.7969 C66.7656,71.7969 65.5156,73.1094 65.5156,74.8906 L65.5156,75.9844 C65.5156,77.6875 66.8125,78.7813 68.8594,78.7813 C69.625,78.7813 70.3125,78.6563 70.7344,78.3906 C70.9219,78.2969 70.9219,78.2969 71.375,77.8125 C71.5625,77.625 71.7656,77.5469 71.9844,77.5469 C72.4531,77.5469 72.8438,77.9375 72.8438,78.3906 C72.8438,78.7813 72.5156,79.2344 71.9375,79.6406 C71.1875,80.1875 70.0313,80.4844 68.8125,80.4844 C65.9219,80.4844 63.8125,78.5938 63.8125,76.0156 L63.8125,74.8906 C63.8125,72.1719 65.8125,70.0938 68.4375,70.0938 C69.3125,70.0938 69.9063,70.2344 70.8438,70.6719 Z "/><text fill="#000000" font-family="sans-serif" font-size="12" lengthAdjust="spacingAndGlyphs" textLength="51" x="82.5" y="79.1543">Address</text><line style="stroke: #A80036; stroke-width: 1.5;" x1="54.5" x2="135.5" y1="91" y2="91"/><line style="stroke: #A80036; stroke-width: 1.5;" x1="54.5" x2="135.5" y1="99" y2="99"/><!--link Person.Address to Person.Person--><path d="M95,107.152 C95,127.037 95,155.999 95,178.6798 " fill="none" id="Person.Address-Person.Person" style="stroke: #A80036; stroke-width: 1.0;"/><polygon fill="#A80036" points="95,183.7114,99,174.7114,95,178.7114,91,174.7114,95,183.7114" style="stroke: #A80036; stroke-width: 1.0;"/><text fill="#000000" font-family="sans-serif" font-size="13" lengthAdjust="spacingAndGlyphs" textLength="52" x="96" y="150.0669">Address</text><!--
@startuml
namespace Person {
    class "Person" as Person  {
	Address: Address 
}
Address - -> Person : Address
class "Address" as Address  {
}
}
@enduml

PlantUML version 1.2019.07beta1(Unknown compile time)
(GPL source distribution)
Java Runtime: Java(TM) SE Runtime Environment
JVM: Java HotSpot(TM) 64-Bit Server VM
Java Version: 1.7.0_25-b15
Operating System: Linux
Default Encoding: UTF-8
Language: en
Country: US
--></g></svg>