<?xml version="1.0" encoding="UTF-8" standalone="no"?><svg xmlns="http://www.w3.org/2000/svg" xmlns:xlink="http://www.w3.org/1999/xlink" contentScriptType="application/ecmascript" contentStyleType="text/css" height="285px" preserveAspectRatio="none" style="width:247px;height:285px;" version="1.1" viewBox="0 0 247 285" width="247px" zoomAndPan="magnify"><defs><filter height="300%" id="f1cw0a728cf5vr" width="300%" x="-1" y="-1"><feGaussianBlur result="blurOut" stdDeviation="2.0"/><feColorMatrix in="blurOut" result="blurOut2" type="matrix" values="0 0 0 0 0 0 0 0 0 0 0 0 0 0 0 0 0 0 .4 0"/><feOffset dx="4.0" dy="4.0" in="blurOut2" result="blurOut3"/><feBlend in="SourceGraphic" in2="blurOut3" mode="normal"/></filter></defs><g><!--cluster Aggregate: Person--><rect fill="#FFFFFF" filter="url(#f1cw0a728cf5vr)" height="250" style="stroke: #000000; stroke-width: 1.5;" width="214" x="22" y="24"/><path d="M182,25 L182,33.2969 L172,43.2969 L22,43.2969 " fill="none" style="stroke: #000000; stroke-width: 1.5;"/><text fill="#000000" font-family="sans-serif" font-size="14" font-weight="bold" lengthAdjust="spacingAndGlyphs" textLength="150" x="25" y="37.9951">Aggregate: Person</text><!--class Person--><rect fill="#FEFECE" filter="url(#f1cw0a728cf5vr)" height="73.6094" id="Person" style="stroke: #A80036; stroke-width: 1.5;" width="114" x="106" y="184"/><ellipse cx="138.1" cy="200" fill="#ADD1B2" rx="11" ry="11" style="stroke: #A80036; stroke-width: 1.0;"/><path d="M140.4438,195.6719 L140.6156,195.75 C140.8344,195.4375 141.0375,195.3438 141.3344,195.3438 C141.6313,195.3438 141.9125,195.4844 142.0688,195.75 C142.1625,195.9063 142.1781,196.0313 142.1781,196.4688 L142.1781,197.8906 C142.1781,198.3125 142.1469,198.5 142.0375,198.6563 C141.8656,198.875 141.6,199.0156 141.3344,199.0156 C141.1156,199.0156 140.8813,198.9063 140.7406,198.7656 C140.6,198.6406 140.5688,198.5156 140.5063,198.1094 C140.4125,197.7031 140.2406,197.4844 139.7563,197.2031 C139.2875,196.9531 138.6781,196.7969 138.1,196.7969 C136.3656,196.7969 135.1156,198.1094 135.1156,199.8906 L135.1156,200.9844 C135.1156,202.6875 136.4125,203.7813 138.4594,203.7813 C139.225,203.7813 139.9125,203.6563 140.3344,203.3906 C140.5219,203.2969 140.5219,203.2969 140.975,202.8125 C141.1625,202.625 141.3656,202.5469 141.5844,202.5469 C142.0531,202.5469 142.4438,202.9375 142.4438,203.3906 C142.4438,203.7813 142.1156,204.2344 141.5375,204.6406 C140.7875,205.1875 139.6313,205.4844 138.4125,205.4844 C135.5219,205.4844 133.4125,203.5938 133.4125,201.0156 L133.4125,199.8906 C133.4125,197.1719 135.4125,195.0938 138.0375,195.0938 C138.9125,195.0938 139.5063,195.2344 140.4438,195.6719 Z "/><text fill="#000000" font-family="sans-serif" font-size="12" lengthAdjust="spacingAndGlyphs" textLength="44" x="155.9" y="204.1543">Person</text><line style="stroke: #A80036; stroke-width: 1.5;" x1="107" x2="219" y1="216" y2="216"/><text fill="#000000" font-family="sans-serif" font-size="11" lengthAdjust="spacingAndGlyphs" textLength="75" x="112" y="230.2104">Name: String</text><text fill="#000000" font-family="sans-serif" font-size="11" lengthAdjust="spacingAndGlyphs" textLength="102" x="112" y="243.0151">Address: Address</text><line style="stroke: #A80036; stroke-width: 1.5;" x1="107" x2="219" y1="249.6094" y2="249.6094"/><!--class Address--><rect fill="#FEFECE" filter="url(#f1cw0a728cf5vr)" height="48" id="Address" style="stroke: #A80036; stroke-width: 1.5;" width="83" x="136.5" y="59"/><ellipse cx="151.5" cy="75" fill="#ADD1B2" rx="11" ry="11" style="stroke: #A80036; stroke-width: 1.0;"/><path d="M153.8438,70.6719 L154.0156,70.75 C154.2344,70.4375 154.4375,70.3438 154.7344,70.3438 C155.0313,70.3438 155.3125,70.4844 155.4688,70.75 C155.5625,70.9063 155.5781,71.0313 155.5781,71.4688 L155.5781,72.8906 C155.5781,73.3125 155.5469,73.5 155.4375,73.6563 C155.2656,73.875 155,74.0156 154.7344,74.0156 C154.5156,74.0156 154.2813,73.9063 154.1406,73.7656 C154,73.6406 153.9688,73.5156 153.9063,73.1094 C153.8125,72.7031 153.6406,72.4844 153.1563,72.2031 C152.6875,71.9531 152.0781,71.7969 151.5,71.7969 C149.7656,71.7969 148.5156,73.1094 148.5156,74.8906 L148.5156,75.9844 C148.5156,77.6875 149.8125,78.7813 151.8594,78.7813 C152.625,78.7813 153.3125,78.6563 153.7344,78.3906 C153.9219,78.2969 153.9219,78.2969 154.375,77.8125 C154.5625,77.625 154.7656,77.5469 154.9844,77.5469 C155.4531,77.5469 155.8438,77.9375 155.8438,78.3906 C155.8438,78.7813 155.5156,79.2344 154.9375,79.6406 C154.1875,80.1875 153.0313,80.4844 151.8125,80.4844 C148.9219,80.4844 146.8125,78.5938 146.8125,76.0156 L146.8125,74.8906 C146.8125,72.1719 148.8125,70.0938 151.4375,70.0938 C152.3125,70.0938 152.9063,70.2344 153.8438,70.6719 Z "/><text fill="#000000" font-family="sans-serif" font-size="12" lengthAdjust="spacingAndGlyphs" textLength="51" x="165.5" y="79.1543">Address</text><line style="stroke: #A80036; stroke-width: 1.5;" x1="137.5" x2="218.5" y1="91" y2="91"/><line style="stroke: #A80036; stroke-width: 1.5;" x1="137.5" x2="218.5" y1="99" y2="99"/><!--class Food--><rect fill="#FEFECE" filter="url(#f1cw0a728cf5vr)" height="48" id="Food" style="stroke: #A80036; stroke-width: 1.5;" width="63" x="38.5" y="59"/><ellipse cx="53.5" cy="75" fill="#ADD1B2" rx="11" ry="11" style="stroke: #A80036; stroke-width: 1.0;"/><path d="M55.8438,70.6719 L56.0156,70.75 C56.2344,70.4375 56.4375,70.3438 56.7344,70.3438 C57.0313,70.3438 57.3125,70.4844 57.4688,70.75 C57.5625,70.9063 57.5781,71.0313 57.5781,71.4688 L57.5781,72.8906 C57.5781,73.3125 57.5469,73.5 57.4375,73.6563 C57.2656,73.875 57,74.0156 56.7344,74.0156 C56.5156,74.0156 56.2813,73.9063 56.1406,73.7656 C56,73.6406 55.9688,73.5156 55.9063,73.1094 C55.8125,72.7031 55.6406,72.4844 55.1563,72.2031 C54.6875,71.9531 54.0781,71.7969 53.5,71.7969 C51.7656,71.7969 50.5156,73.1094 50.5156,74.8906 L50.5156,75.9844 C50.5156,77.6875 51.8125,78.7813 53.8594,78.7813 C54.625,78.7813 55.3125,78.6563 55.7344,78.3906 C55.9219,78.2969 55.9219,78.2969 56.375,77.8125 C56.5625,77.625 56.7656,77.5469 56.9844,77.5469 C57.4531,77.5469 57.8438,77.9375 57.8438,78.3906 C57.8438,78.7813 57.5156,79.2344 56.9375,79.6406 C56.1875,80.1875 55.0313,80.4844 53.8125,80.4844 C50.9219,80.4844 48.8125,78.5938 48.8125,76.0156 L48.8125,74.8906 C48.8125,72.1719 50.8125,70.0938 53.4375,70.0938 C54.3125,70.0938 54.9063,70.2344 55.8438,70.6719 Z "/><text fill="#000000" font-family="sans-serif" font-size="12" lengthAdjust="spacingAndGlyphs" textLength="31" x="67.5" y="79.1543">Food</text><line style="stroke: #A80036; stroke-width: 1.5;" x1="39.5" x2="100.5" y1="91" y2="91"/><line style="stroke: #A80036; stroke-width: 1.5;" x1="39.5" x2="100.5" y1="99" y2="99"/><!--link Address to Person--><path d="M175.455,107.071 C173.295,126.657 170.142,155.245 167.549,178.757 " fill="none" id="Address-Person" style="stroke: #A80036; stroke-width: 1.0;"/><polygon fill="#A80036" points="166.971,183.998,171.9342,175.4912,167.5196,179.0282,163.9825,174.6135,166.971,183.998" style="stroke: #A80036; stroke-width: 1.0;"/><text fill="#000000" font-family="sans-serif" font-size="13" lengthAdjust="spacingAndGlyphs" textLength="52" x="172" y="150.0669">Address</text><!--
@startuml
package "Aggregate: Person" <<frame>> {
    class "Person" as Person  {
	Name: String 
	Address: Address 
}
Address - -> Person : Address
class "Address" as Address  {
}
class "Food" as Food  {
}
}
@enduml

PlantUML version 1.2019.07beta1(Unknown compile time)
(GPL source distribution)
Java Runtime: Java(TM) SE Runtime Environment
JVM: Java HotSpot(TM) 64-Bit Server VM
Java Version: 1.7.0_25-b15
Operating System: Linux
Default Encoding: UTF-8
Language: en
Country: US
--></g></svg>