<?xml version="1.0" encoding="UTF-8" standalone="no"?><svg xmlns="http://www.w3.org/2000/svg" xmlns:xlink="http://www.w3.org/1999/xlink" contentScriptType="application/ecmascript" contentStyleType="text/css" height="217px" preserveAspectRatio="none" style="width:213px;height:217px;" version="1.1" viewBox="0 0 213 217" width="213px" zoomAndPan="magnify"><defs><filter height="300%" id="f1gyggf0jt7csm" width="300%" x="-1" y="-1"><feGaussianBlur result="blurOut" stdDeviation="2.0"/><feColorMatrix in="blurOut" result="blurOut2" type="matrix" values="0 0 0 0 0 0 0 0 0 0 0 0 0 0 0 0 0 0 .4 0"/><feOffset dx="4.0" dy="4.0" in="blurOut2" result="blurOut3"/><feBlend in="SourceGraphic" in2="blurOut3" mode="normal"/></filter></defs><g><!--class Person--><rect fill="#FEFECE" filter="url(#f1gyggf0jt7csm)" height="73.6094" id="Person" style="stroke: #A80036; stroke-width: 1.5;" width="114" x="6" y="133"/><ellipse cx="38.1" cy="149" fill="#ADD1B2" rx="11" ry="11" style="stroke: #A80036; stroke-width: 1.0;"/><path d="M40.4438,144.6719 L40.6156,144.75 C40.8344,144.4375 41.0375,144.3438 41.3344,144.3438 C41.6313,144.3438 41.9125,144.4844 42.0688,144.75 C42.1625,144.9063 42.1781,145.0313 42.1781,145.4688 L42.1781,146.8906 C42.1781,147.3125 42.1469,147.5 42.0375,147.6563 C41.8656,147.875 41.6,148.0156 41.3344,148.0156 C41.1156,148.0156 40.8813,147.9063 40.7406,147.7656 C40.6,147.6406 40.5688,147.5156 40.5063,147.1094 C40.4125,146.7031 40.2406,146.4844 39.7563,146.2031 C39.2875,145.9531 38.6781,145.7969 38.1,145.7969 C36.3656,145.7969 35.1156,147.1094 35.1156,148.8906 L35.1156,149.9844 C35.1156,151.6875 36.4125,152.7813 38.4594,152.7813 C39.225,152.7813 39.9125,152.6563 40.3344,152.3906 C40.5219,152.2969 40.5219,152.2969 40.975,151.8125 C41.1625,151.625 41.3656,151.5469 41.5844,151.5469 C42.0531,151.5469 42.4438,151.9375 42.4438,152.3906 C42.4438,152.7813 42.1156,153.2344 41.5375,153.6406 C40.7875,154.1875 39.6313,154.4844 38.4125,154.4844 C35.5219,154.4844 33.4125,152.5938 33.4125,150.0156 L33.4125,148.8906 C33.4125,146.1719 35.4125,144.0938 38.0375,144.0938 C38.9125,144.0938 39.5063,144.2344 40.4438,144.6719 Z "/><text fill="#000000" font-family="sans-serif" font-size="12" lengthAdjust="spacingAndGlyphs" textLength="44" x="55.9" y="153.1543">Person</text><line style="stroke: #A80036; stroke-width: 1.5;" x1="7" x2="119" y1="165" y2="165"/><text fill="#000000" font-family="sans-serif" font-size="11" lengthAdjust="spacingAndGlyphs" textLength="75" x="12" y="179.2104">Name: String</text><text fill="#000000" font-family="sans-serif" font-size="11" lengthAdjust="spacingAndGlyphs" textLength="102" x="12" y="192.0151">Address: Address</text><line style="stroke: #A80036; stroke-width: 1.5;" x1="7" x2="119" y1="198.6094" y2="198.6094"/><!--class Address--><rect fill="#FEFECE" filter="url(#f1gyggf0jt7csm)" height="48" id="Address" style="stroke: #A80036; stroke-width: 1.5;" width="83" x="21.5" y="8"/><ellipse cx="36.5" cy="24" fill="#ADD1B2" rx="11" ry="11" style="stroke: #A80036; stroke-width: 1.0;"/><path d="M38.8438,19.6719 L39.0156,19.75 C39.2344,19.4375 39.4375,19.3438 39.7344,19.3438 C40.0313,19.3438 40.3125,19.4844 40.4688,19.75 C40.5625,19.9063 40.5781,20.0313 40.5781,20.4688 L40.5781,21.8906 C40.5781,22.3125 40.5469,22.5 40.4375,22.6563 C40.2656,22.875 40,23.0156 39.7344,23.0156 C39.5156,23.0156 39.2813,22.9063 39.1406,22.7656 C39,22.6406 38.9688,22.5156 38.9063,22.1094 C38.8125,21.7031 38.6406,21.4844 38.1563,21.2031 C37.6875,20.9531 37.0781,20.7969 36.5,20.7969 C34.7656,20.7969 33.5156,22.1094 33.5156,23.8906 L33.5156,24.9844 C33.5156,26.6875 34.8125,27.7813 36.8594,27.7813 C37.625,27.7813 38.3125,27.6563 38.7344,27.3906 C38.9219,27.2969 38.9219,27.2969 39.375,26.8125 C39.5625,26.625 39.7656,26.5469 39.9844,26.5469 C40.4531,26.5469 40.8438,26.9375 40.8438,27.3906 C40.8438,27.7813 40.5156,28.2344 39.9375,28.6406 C39.1875,29.1875 38.0313,29.4844 36.8125,29.4844 C33.9219,29.4844 31.8125,27.5938 31.8125,25.0156 L31.8125,23.8906 C31.8125,21.1719 33.8125,19.0938 36.4375,19.0938 C37.3125,19.0938 37.9063,19.2344 38.8438,19.6719 Z "/><text fill="#000000" font-family="sans-serif" font-size="12" lengthAdjust="spacingAndGlyphs" textLength="51" x="50.5" y="28.1543">Address</text><line style="stroke: #A80036; stroke-width: 1.5;" x1="22.5" x2="103.5" y1="40" y2="40"/><line style="stroke: #A80036; stroke-width: 1.5;" x1="22.5" x2="103.5" y1="48" y2="48"/><!--class Food--><rect fill="#FEFECE" filter="url(#f1gyggf0jt7csm)" height="48" id="Food" style="stroke: #A80036; stroke-width: 1.5;" width="63" x="139.5" y="8"/><ellipse cx="154.5" cy="24" fill="#ADD1B2" rx="11" ry="11" style="stroke: #A80036; stroke-width: 1.0;"/><path d="M156.8438,19.6719 L157.0156,19.75 C157.2344,19.4375 157.4375,19.3438 157.7344,19.3438 C158.0313,19.3438 158.3125,19.4844 158.4688,19.75 C158.5625,19.9063 158.5781,20.0313 158.5781,20.4688 L158.5781,21.8906 C158.5781,22.3125 158.5469,22.5 158.4375,22.6563 C158.2656,22.875 158,23.0156 157.7344,23.0156 C157.5156,23.0156 157.2813,22.9063 157.1406,22.7656 C157,22.6406 156.9688,22.5156 156.9063,22.1094 C156.8125,21.7031 156.6406,21.4844 156.1563,21.2031 C155.6875,20.9531 155.0781,20.7969 154.5,20.7969 C152.7656,20.7969 151.5156,22.1094 151.5156,23.8906 L151.5156,24.9844 C151.5156,26.6875 152.8125,27.7813 154.8594,27.7813 C155.625,27.7813 156.3125,27.6563 156.7344,27.3906 C156.9219,27.2969 156.9219,27.2969 157.375,26.8125 C157.5625,26.625 157.7656,26.5469 157.9844,26.5469 C158.4531,26.5469 158.8438,26.9375 158.8438,27.3906 C158.8438,27.7813 158.5156,28.2344 157.9375,28.6406 C157.1875,29.1875 156.0313,29.4844 154.8125,29.4844 C151.9219,29.4844 149.8125,27.5938 149.8125,25.0156 L149.8125,23.8906 C149.8125,21.1719 151.8125,19.0938 154.4375,19.0938 C155.3125,19.0938 155.9063,19.2344 156.8438,19.6719 Z "/><text fill="#000000" font-family="sans-serif" font-size="12" lengthAdjust="spacingAndGlyphs" textLength="31" x="168.5" y="28.1543">Food</text><line style="stroke: #A80036; stroke-width: 1.5;" x1="140.5" x2="201.5" y1="40" y2="40"/><line style="stroke: #A80036; stroke-width: 1.5;" x1="140.5" x2="201.5" y1="48" y2="48"/><!--link Address to Person--><path d="M63,56.071 C63,75.657 63,104.245 63,127.7566 " fill="none" id="Address-Person" style="stroke: #A80036; stroke-width: 1.0;"/><polygon fill="#A80036" points="63,132.9979,67,123.9979,63,127.9979,59,123.9979,63,132.9979" style="stroke: #A80036; stroke-width: 1.0;"/><text fill="#000000" font-family="sans-serif" font-size="13" lengthAdjust="spacingAndGlyphs" textLength="52" x="64" y="99.0669">Address</text><!--
@startuml
class "Person" as Person  {
	Name: String 
	Address: Address 
}
Address - -> Person : Address
class "Address" as Address  {
}
class "Food" as Food  {
}
@enduml

PlantUML version 1.2019.07beta1(Unknown compile time)
(GPL source distribution)
Java Runtime: Java(TM) SE Runtime Environment
JVM: Java HotSpot(TM) 64-Bit Server VM
Java Version: 1.7.0_25-b15
Operating System: Linux
Default Encoding: UTF-8
Language: en
Country: US
--></g></svg>