<?xml version="1.0" encoding="UTF-8" standalone="no"?><svg xmlns="http://www.w3.org/2000/svg" xmlns:xlink="http://www.w3.org/1999/xlink" contentScriptType="application/ecmascript" contentStyleType="text/css" height="217px" preserveAspectRatio="none" style="width:169px;height:217px;" version="1.1" viewBox="0 0 169 217" width="169px" zoomAndPan="magnify"><defs><filter height="300%" id="fbxlogh1cm0r4" width="300%" x="-1" y="-1"><feGaussianBlur result="blurOut" stdDeviation="2.0"/><feColorMatrix in="blurOut" result="blurOut2" type="matrix" values="0 0 0 0 0 0 0 0 0 0 0 0 0 0 0 0 0 0 .4 0"/><feOffset dx="4.0" dy="4.0" in="blurOut2" result="blurOut3"/><feBlend in="SourceGraphic" in2="blurOut3" mode="normal"/></filter></defs><g><!--class Klas--><rect fill="#FEFECE" filter="url(#fbxlogh1cm0r4)" height="73.6094" id="Klas" style="stroke: #A80036; stroke-width: 1.5;" width="146" x="6" y="133"/><ellipse cx="62.25" cy="149" fill="#ADD1B2" rx="11" ry="11" style="stroke: #A80036; stroke-width: 1.0;"/><path d="M64.5938,144.6719 L64.7656,144.75 C64.9844,144.4375 65.1875,144.3438 65.4844,144.3438 C65.7813,144.3438 66.0625,144.4844 66.2188,144.75 C66.3125,144.9063 66.3281,145.0313 66.3281,145.4688 L66.3281,146.8906 C66.3281,147.3125 66.2969,147.5 66.1875,147.6563 C66.0156,147.875 65.75,148.0156 65.4844,148.0156 C65.2656,148.0156 65.0313,147.9063 64.8906,147.7656 C64.75,147.6406 64.7188,147.5156 64.6563,147.1094 C64.5625,146.7031 64.3906,146.4844 63.9063,146.2031 C63.4375,145.9531 62.8281,145.7969 62.25,145.7969 C60.5156,145.7969 59.2656,147.1094 59.2656,148.8906 L59.2656,149.9844 C59.2656,151.6875 60.5625,152.7813 62.6094,152.7813 C63.375,152.7813 64.0625,152.6563 64.4844,152.3906 C64.6719,152.2969 64.6719,152.2969 65.125,151.8125 C65.3125,151.625 65.5156,151.5469 65.7344,151.5469 C66.2031,151.5469 66.5938,151.9375 66.5938,152.3906 C66.5938,152.7813 66.2656,153.2344 65.6875,153.6406 C64.9375,154.1875 63.7813,154.4844 62.5625,154.4844 C59.6719,154.4844 57.5625,152.5938 57.5625,150.0156 L57.5625,148.8906 C57.5625,146.1719 59.5625,144.0938 62.1875,144.0938 C63.0625,144.0938 63.6563,144.2344 64.5938,144.6719 Z "/><text fill="#000000" font-family="sans-serif" font-size="12" lengthAdjust="spacingAndGlyphs" textLength="25" x="82.75" y="153.1543">Klas</text><line style="stroke: #A80036; stroke-width: 1.5;" x1="7" x2="151" y1="165" y2="165"/><text fill="#000000" font-family="sans-serif" font-size="11" lengthAdjust="spacingAndGlyphs" textLength="134" x="12" y="179.2104">Studenten: List Student</text><line style="stroke: #A80036; stroke-width: 1.0;" x1="7" x2="151" y1="185.8047" y2="185.8047"/><line style="stroke: #A80036; stroke-width: 1.0;" x1="7" x2="151" y1="187.8047" y2="187.8047"/><text fill="#000000" font-family="sans-serif" font-size="11" font-weight="bold" lengthAdjust="spacingAndGlyphs" textLength="20" x="12" y="200.0151">api</text><text fill="#000000" font-family="sans-serif" font-size="11" lengthAdjust="spacingAndGlyphs" textLength="31" x="32" y="200.0151">: klas</text><!--class Student--><rect fill="#FEFECE" filter="url(#fbxlogh1cm0r4)" height="48" id="Student" style="stroke: #A80036; stroke-width: 1.5;" width="82" x="38" y="8"/><ellipse cx="53" cy="24" fill="#ADD1B2" rx="11" ry="11" style="stroke: #A80036; stroke-width: 1.0;"/><path d="M55.3438,19.6719 L55.5156,19.75 C55.7344,19.4375 55.9375,19.3438 56.2344,19.3438 C56.5313,19.3438 56.8125,19.4844 56.9688,19.75 C57.0625,19.9063 57.0781,20.0313 57.0781,20.4688 L57.0781,21.8906 C57.0781,22.3125 57.0469,22.5 56.9375,22.6563 C56.7656,22.875 56.5,23.0156 56.2344,23.0156 C56.0156,23.0156 55.7813,22.9063 55.6406,22.7656 C55.5,22.6406 55.4688,22.5156 55.4063,22.1094 C55.3125,21.7031 55.1406,21.4844 54.6563,21.2031 C54.1875,20.9531 53.5781,20.7969 53,20.7969 C51.2656,20.7969 50.0156,22.1094 50.0156,23.8906 L50.0156,24.9844 C50.0156,26.6875 51.3125,27.7813 53.3594,27.7813 C54.125,27.7813 54.8125,27.6563 55.2344,27.3906 C55.4219,27.2969 55.4219,27.2969 55.875,26.8125 C56.0625,26.625 56.2656,26.5469 56.4844,26.5469 C56.9531,26.5469 57.3438,26.9375 57.3438,27.3906 C57.3438,27.7813 57.0156,28.2344 56.4375,28.6406 C55.6875,29.1875 54.5313,29.4844 53.3125,29.4844 C50.4219,29.4844 48.3125,27.5938 48.3125,25.0156 L48.3125,23.8906 C48.3125,21.1719 50.3125,19.0938 52.9375,19.0938 C53.8125,19.0938 54.4063,19.2344 55.3438,19.6719 Z "/><text fill="#000000" font-family="sans-serif" font-size="12" lengthAdjust="spacingAndGlyphs" textLength="50" x="67" y="28.1543">Student</text><line style="stroke: #A80036; stroke-width: 1.5;" x1="39" x2="119" y1="40" y2="40"/><line style="stroke: #A80036; stroke-width: 1.5;" x1="39" x2="119" y1="48" y2="48"/><!--link Student to Klas--><path d="M79,56.071 C79,75.657 79,104.245 79,127.7566 " fill="none" id="Student-Klas" style="stroke: #A80036; stroke-width: 1.0;"/><polygon fill="#A80036" points="79,132.9979,83,123.9979,79,127.9979,75,123.9979,79,132.9979" style="stroke: #A80036; stroke-width: 1.0;"/><text fill="#000000" font-family="sans-serif" font-size="13" lengthAdjust="spacingAndGlyphs" textLength="77" x="80" y="99.0669">List Student</text><text fill="#000000" font-family="sans-serif" font-size="13" lengthAdjust="spacingAndGlyphs" textLength="8" x="69.975" y="76.245">1</text><text fill="#000000" font-family="sans-serif" font-size="13" lengthAdjust="spacingAndGlyphs" textLength="16" x="61.525" y="121.908">32</text><!--
@startuml
class "Klas" as Klas  {
	Studenten: List Student
===
  <b>api</b>: klas
}
Student "1" - -> "32" Klas : List Student
@enduml

PlantUML version 1.2019.07beta1(Unknown compile time)
(GPL source distribution)
Java Runtime: Java(TM) SE Runtime Environment
JVM: Java HotSpot(TM) 64-Bit Server VM
Java Version: 1.7.0_25-b15
Operating System: Linux
Default Encoding: UTF-8
Language: en
Country: US
--></g></svg>