<?xml version="1.0" encoding="UTF-8" standalone="no"?><svg xmlns="http://www.w3.org/2000/svg" xmlns:xlink="http://www.w3.org/1999/xlink" contentScriptType="application/ecmascript" contentStyleType="text/css" height="419px" preserveAspectRatio="none" style="width:469px;height:419px;" version="1.1" viewBox="0 0 469 419" width="469px" zoomAndPan="magnify"><defs><filter height="300%" id="fycazijgt71lz" width="300%" x="-1" y="-1"><feGaussianBlur result="blurOut" stdDeviation="2.0"/><feColorMatrix in="blurOut" result="blurOut2" type="matrix" values="0 0 0 0 0 0 0 0 0 0 0 0 0 0 0 0 0 0 .4 0"/><feOffset dx="4.0" dy="4.0" in="blurOut2" result="blurOut3"/><feBlend in="SourceGraphic" in2="blurOut3" mode="normal"/></filter></defs><g><!--class Klas--><rect fill="#FEFECE" filter="url(#fycazijgt71lz)" height="86.4141" id="Klas" style="stroke: #A80036; stroke-width: 1.5;" width="146" x="126.5" y="322"/><ellipse cx="182.75" cy="338" fill="#ADD1B2" rx="11" ry="11" style="stroke: #A80036; stroke-width: 1.0;"/><path d="M185.0938,333.6719 L185.2656,333.75 C185.4844,333.4375 185.6875,333.3438 185.9844,333.3438 C186.2813,333.3438 186.5625,333.4844 186.7188,333.75 C186.8125,333.9063 186.8281,334.0313 186.8281,334.4688 L186.8281,335.8906 C186.8281,336.3125 186.7969,336.5 186.6875,336.6563 C186.5156,336.875 186.25,337.0156 185.9844,337.0156 C185.7656,337.0156 185.5313,336.9063 185.3906,336.7656 C185.25,336.6406 185.2188,336.5156 185.1563,336.1094 C185.0625,335.7031 184.8906,335.4844 184.4063,335.2031 C183.9375,334.9531 183.3281,334.7969 182.75,334.7969 C181.0156,334.7969 179.7656,336.1094 179.7656,337.8906 L179.7656,338.9844 C179.7656,340.6875 181.0625,341.7813 183.1094,341.7813 C183.875,341.7813 184.5625,341.6563 184.9844,341.3906 C185.1719,341.2969 185.1719,341.2969 185.625,340.8125 C185.8125,340.625 186.0156,340.5469 186.2344,340.5469 C186.7031,340.5469 187.0938,340.9375 187.0938,341.3906 C187.0938,341.7813 186.7656,342.2344 186.1875,342.6406 C185.4375,343.1875 184.2813,343.4844 183.0625,343.4844 C180.1719,343.4844 178.0625,341.5938 178.0625,339.0156 L178.0625,337.8906 C178.0625,335.1719 180.0625,333.0938 182.6875,333.0938 C183.5625,333.0938 184.1563,333.2344 185.0938,333.6719 Z "/><text fill="#000000" font-family="sans-serif" font-size="12" lengthAdjust="spacingAndGlyphs" textLength="25" x="203.25" y="342.1543">Klas</text><line style="stroke: #A80036; stroke-width: 1.5;" x1="127.5" x2="271.5" y1="354" y2="354"/><text fill="#000000" font-family="sans-serif" font-size="11" lengthAdjust="spacingAndGlyphs" textLength="134" x="132.5" y="368.2104">Studenten: List Student</text><text fill="#000000" font-family="sans-serif" font-size="11" lengthAdjust="spacingAndGlyphs" textLength="124" x="132.5" y="381.0151">Docenten: List Docent</text><line style="stroke: #A80036; stroke-width: 1.0;" x1="127.5" x2="271.5" y1="387.6094" y2="387.6094"/><line style="stroke: #A80036; stroke-width: 1.0;" x1="127.5" x2="271.5" y1="389.6094" y2="389.6094"/><text fill="#000000" font-family="sans-serif" font-size="11" font-weight="bold" lengthAdjust="spacingAndGlyphs" textLength="20" x="132.5" y="401.8198">api</text><text fill="#000000" font-family="sans-serif" font-size="11" lengthAdjust="spacingAndGlyphs" textLength="31" x="152.5" y="401.8198">: klas</text><!--class Student--><rect fill="#FEFECE" filter="url(#fycazijgt71lz)" height="112.0234" id="Student" style="stroke: #A80036; stroke-width: 1.5;" width="207" x="6" y="133"/><ellipse cx="53.25" cy="149" fill="#ADD1B2" rx="11" ry="11" style="stroke: #A80036; stroke-width: 1.0;"/><path d="M55.5938,144.6719 L55.7656,144.75 C55.9844,144.4375 56.1875,144.3438 56.4844,144.3438 C56.7813,144.3438 57.0625,144.4844 57.2188,144.75 C57.3125,144.9063 57.3281,145.0313 57.3281,145.4688 L57.3281,146.8906 C57.3281,147.3125 57.2969,147.5 57.1875,147.6563 C57.0156,147.875 56.75,148.0156 56.4844,148.0156 C56.2656,148.0156 56.0313,147.9063 55.8906,147.7656 C55.75,147.6406 55.7188,147.5156 55.6563,147.1094 C55.5625,146.7031 55.3906,146.4844 54.9063,146.2031 C54.4375,145.9531 53.8281,145.7969 53.25,145.7969 C51.5156,145.7969 50.2656,147.1094 50.2656,148.8906 L50.2656,149.9844 C50.2656,151.6875 51.5625,152.7813 53.6094,152.7813 C54.375,152.7813 55.0625,152.6563 55.4844,152.3906 C55.6719,152.2969 55.6719,152.2969 56.125,151.8125 C56.3125,151.625 56.5156,151.5469 56.7344,151.5469 C57.2031,151.5469 57.5938,151.9375 57.5938,152.3906 C57.5938,152.7813 57.2656,153.2344 56.6875,153.6406 C55.9375,154.1875 54.7813,154.4844 53.5625,154.4844 C50.6719,154.4844 48.5625,152.5938 48.5625,150.0156 L48.5625,148.8906 C48.5625,146.1719 50.5625,144.0938 53.1875,144.0938 C54.0625,144.0938 54.6563,144.2344 55.5938,144.6719 Z "/><text fill="#000000" font-family="sans-serif" font-size="12" lengthAdjust="spacingAndGlyphs" textLength="50" x="73.75" y="153.1543">Student</text><rect fill="#FFFFFF" height="15.9688" style="stroke: #000000; stroke-width: 1.0; stroke-dasharray: 2.0,2.0;" width="52" x="164" y="130"/><text fill="#000000" font-family="sans-serif" font-size="12" font-style="italic" lengthAdjust="spacingAndGlyphs" textLength="50" x="165" y="142.1387">Persoon</text><line style="stroke: #A80036; stroke-width: 1.5;" x1="7" x2="212" y1="165" y2="165"/><text fill="#000000" font-family="sans-serif" font-size="11" lengthAdjust="spacingAndGlyphs" textLength="91" x="12" y="179.2104">Nummer: String</text><text fill="#000000" font-family="sans-serif" font-size="11" lengthAdjust="spacingAndGlyphs" textLength="122" x="12" y="192.0151">HeeftVakken: List Vak</text><text fill="#000000" font-family="sans-serif" font-size="11" lengthAdjust="spacingAndGlyphs" textLength="100" x="12" y="204.8198">Voornaam: String</text><text fill="#000000" font-family="sans-serif" font-size="11" font-style="italic" lengthAdjust="spacingAndGlyphs" textLength="77" x="120" y="204.8198">from Persoon</text><text fill="#000000" font-family="sans-serif" font-size="11" lengthAdjust="spacingAndGlyphs" textLength="110" x="12" y="217.6245">Achternaam: String</text><text fill="#000000" font-family="sans-serif" font-size="11" font-style="italic" lengthAdjust="spacingAndGlyphs" textLength="77" x="130" y="217.6245">from Persoon</text><text fill="#000000" font-family="sans-serif" font-size="11" lengthAdjust="spacingAndGlyphs" textLength="105" x="12" y="230.4292">ActiefAdres: Adres</text><text fill="#000000" font-family="sans-serif" font-size="11" font-style="italic" lengthAdjust="spacingAndGlyphs" textLength="77" x="125" y="230.4292">from Persoon</text><line style="stroke: #A80036; stroke-width: 1.5;" x1="7" x2="212" y1="237.0234" y2="237.0234"/><!--class Docent--><rect fill="#FEFECE" filter="url(#fycazijgt71lz)" height="112.0234" id="Docent" style="stroke: #A80036; stroke-width: 1.5;" width="207" x="248" y="133"/><ellipse cx="297.75" cy="149" fill="#ADD1B2" rx="11" ry="11" style="stroke: #A80036; stroke-width: 1.0;"/><path d="M300.0938,144.6719 L300.2656,144.75 C300.4844,144.4375 300.6875,144.3438 300.9844,144.3438 C301.2813,144.3438 301.5625,144.4844 301.7188,144.75 C301.8125,144.9063 301.8281,145.0313 301.8281,145.4688 L301.8281,146.8906 C301.8281,147.3125 301.7969,147.5 301.6875,147.6563 C301.5156,147.875 301.25,148.0156 300.9844,148.0156 C300.7656,148.0156 300.5313,147.9063 300.3906,147.7656 C300.25,147.6406 300.2188,147.5156 300.1563,147.1094 C300.0625,146.7031 299.8906,146.4844 299.4063,146.2031 C298.9375,145.9531 298.3281,145.7969 297.75,145.7969 C296.0156,145.7969 294.7656,147.1094 294.7656,148.8906 L294.7656,149.9844 C294.7656,151.6875 296.0625,152.7813 298.1094,152.7813 C298.875,152.7813 299.5625,152.6563 299.9844,152.3906 C300.1719,152.2969 300.1719,152.2969 300.625,151.8125 C300.8125,151.625 301.0156,151.5469 301.2344,151.5469 C301.7031,151.5469 302.0938,151.9375 302.0938,152.3906 C302.0938,152.7813 301.7656,153.2344 301.1875,153.6406 C300.4375,154.1875 299.2813,154.4844 298.0625,154.4844 C295.1719,154.4844 293.0625,152.5938 293.0625,150.0156 L293.0625,148.8906 C293.0625,146.1719 295.0625,144.0938 297.6875,144.0938 C298.5625,144.0938 299.1563,144.2344 300.0938,144.6719 Z "/><text fill="#000000" font-family="sans-serif" font-size="12" lengthAdjust="spacingAndGlyphs" textLength="45" x="318.25" y="153.1543">Docent</text><rect fill="#FFFFFF" height="15.9688" style="stroke: #000000; stroke-width: 1.0; stroke-dasharray: 2.0,2.0;" width="52" x="406" y="130"/><text fill="#000000" font-family="sans-serif" font-size="12" font-style="italic" lengthAdjust="spacingAndGlyphs" textLength="50" x="407" y="142.1387">Persoon</text><line style="stroke: #A80036; stroke-width: 1.5;" x1="249" x2="454" y1="165" y2="165"/><text fill="#000000" font-family="sans-serif" font-size="11" lengthAdjust="spacingAndGlyphs" textLength="144" x="254" y="179.2104">DocentenNummer: String</text><text fill="#000000" font-family="sans-serif" font-size="11" lengthAdjust="spacingAndGlyphs" textLength="127" x="254" y="192.0151">BevoegdVoor: List Vak</text><text fill="#000000" font-family="sans-serif" font-size="11" lengthAdjust="spacingAndGlyphs" textLength="100" x="254" y="204.8198">Voornaam: String</text><text fill="#000000" font-family="sans-serif" font-size="11" font-style="italic" lengthAdjust="spacingAndGlyphs" textLength="77" x="362" y="204.8198">from Persoon</text><text fill="#000000" font-family="sans-serif" font-size="11" lengthAdjust="spacingAndGlyphs" textLength="110" x="254" y="217.6245">Achternaam: String</text><text fill="#000000" font-family="sans-serif" font-size="11" font-style="italic" lengthAdjust="spacingAndGlyphs" textLength="77" x="372" y="217.6245">from Persoon</text><text fill="#000000" font-family="sans-serif" font-size="11" lengthAdjust="spacingAndGlyphs" textLength="105" x="254" y="230.4292">ActiefAdres: Adres</text><text fill="#000000" font-family="sans-serif" font-size="11" font-style="italic" lengthAdjust="spacingAndGlyphs" textLength="77" x="367" y="230.4292">from Persoon</text><line style="stroke: #A80036; stroke-width: 1.5;" x1="249" x2="454" y1="237.0234" y2="237.0234"/><!--class Vak--><rect fill="#FEFECE" filter="url(#fycazijgt71lz)" height="48" id="Vak" style="stroke: #A80036; stroke-width: 1.5;" width="55" x="221" y="8"/><ellipse cx="236" cy="24" fill="#ADD1B2" rx="11" ry="11" style="stroke: #A80036; stroke-width: 1.0;"/><path d="M238.3438,19.6719 L238.5156,19.75 C238.7344,19.4375 238.9375,19.3438 239.2344,19.3438 C239.5313,19.3438 239.8125,19.4844 239.9688,19.75 C240.0625,19.9063 240.0781,20.0313 240.0781,20.4688 L240.0781,21.8906 C240.0781,22.3125 240.0469,22.5 239.9375,22.6563 C239.7656,22.875 239.5,23.0156 239.2344,23.0156 C239.0156,23.0156 238.7813,22.9063 238.6406,22.7656 C238.5,22.6406 238.4688,22.5156 238.4063,22.1094 C238.3125,21.7031 238.1406,21.4844 237.6563,21.2031 C237.1875,20.9531 236.5781,20.7969 236,20.7969 C234.2656,20.7969 233.0156,22.1094 233.0156,23.8906 L233.0156,24.9844 C233.0156,26.6875 234.3125,27.7813 236.3594,27.7813 C237.125,27.7813 237.8125,27.6563 238.2344,27.3906 C238.4219,27.2969 238.4219,27.2969 238.875,26.8125 C239.0625,26.625 239.2656,26.5469 239.4844,26.5469 C239.9531,26.5469 240.3438,26.9375 240.3438,27.3906 C240.3438,27.7813 240.0156,28.2344 239.4375,28.6406 C238.6875,29.1875 237.5313,29.4844 236.3125,29.4844 C233.4219,29.4844 231.3125,27.5938 231.3125,25.0156 L231.3125,23.8906 C231.3125,21.1719 233.3125,19.0938 235.9375,19.0938 C236.8125,19.0938 237.4063,19.2344 238.3438,19.6719 Z "/><text fill="#000000" font-family="sans-serif" font-size="12" lengthAdjust="spacingAndGlyphs" textLength="23" x="250" y="28.1543">Vak</text><line style="stroke: #A80036; stroke-width: 1.5;" x1="222" x2="275" y1="40" y2="40"/><line style="stroke: #A80036; stroke-width: 1.5;" x1="222" x2="275" y1="48" y2="48"/><!--link Student to Klas--><path d="M137.977,245.055 C149.996,268.293 163.842,295.062 175.352,317.3136 " fill="none" id="Student-Klas" style="stroke: #A80036; stroke-width: 1.0;"/><polygon fill="#A80036" points="177.771,321.9904,177.1893,312.1587,175.474,317.5493,170.0835,315.8339,177.771,321.9904" style="stroke: #A80036; stroke-width: 1.0;"/><text fill="#000000" font-family="sans-serif" font-size="13" lengthAdjust="spacingAndGlyphs" textLength="77" x="161.5" y="288.0669">List Student</text><text fill="#000000" font-family="sans-serif" font-size="13" lengthAdjust="spacingAndGlyphs" textLength="32" x="107.5752" y="265.2719">1..32</text><text fill="#000000" font-family="sans-serif" font-size="13" lengthAdjust="spacingAndGlyphs" textLength="8" x="165.6704" y="310.9845">1</text><!--link Docent to Klas--><path d="M303.406,245.055 C282.852,268.584 259.134,295.734 239.553,318.1493 " fill="none" id="Docent-Klas" style="stroke: #A80036; stroke-width: 1.0;"/><polygon fill="#A80036" points="236.198,321.9904,245.1322,317.8454,239.4881,318.2254,239.1081,312.5813,236.198,321.9904" style="stroke: #A80036; stroke-width: 1.0;"/><text fill="#000000" font-family="sans-serif" font-size="13" lengthAdjust="spacingAndGlyphs" textLength="72" x="276.5" y="288.0669">List Docent</text><text fill="#000000" font-family="sans-serif" font-size="13" lengthAdjust="spacingAndGlyphs" textLength="32" x="263.194" y="265.2719">7..25</text><text fill="#000000" font-family="sans-serif" font-size="13" lengthAdjust="spacingAndGlyphs" textLength="8" x="233.4092" y="310.9845">1</text><!--link Vak to Student--><path d="M227.69,56.205 C210.438,75.443 185.142,103.651 162.374,129.04 " fill="none" id="Vak-Student" style="stroke: #A80036; stroke-width: 1.0;"/><polygon fill="#A80036" points="159.035,132.764,168.0217,128.7342,162.3732,129.0416,162.0658,123.3931,159.035,132.764" style="stroke: #A80036; stroke-width: 1.0;"/><text fill="#000000" font-family="sans-serif" font-size="13" lengthAdjust="spacingAndGlyphs" textLength="50" x="200.5" y="99.0669">List Vak</text><text fill="#000000" font-family="sans-serif" font-size="13" lengthAdjust="spacingAndGlyphs" textLength="32" x="186.7176" y="76.0162">7..13</text><text fill="#000000" font-family="sans-serif" font-size="13" lengthAdjust="spacingAndGlyphs" textLength="8" x="156.5846" y="122.0697">1</text><!--link Vak to Docent--><path d="M263.92,56.205 C276.599,75.285 295.142,103.19 311.905,128.415 " fill="none" id="Vak-Docent" style="stroke: #A80036; stroke-width: 1.0;"/><polygon fill="#A80036" points="314.795,132.764,313.1455,123.0543,312.0278,128.5996,306.4824,127.4818,314.795,132.764" style="stroke: #A80036; stroke-width: 1.0;"/><text fill="#000000" font-family="sans-serif" font-size="13" lengthAdjust="spacingAndGlyphs" textLength="50" x="294.5" y="99.0669">List Vak</text><text fill="#000000" font-family="sans-serif" font-size="13" lengthAdjust="spacingAndGlyphs" textLength="32" x="231.7786" y="76.0162">1..20</text><text fill="#000000" font-family="sans-serif" font-size="13" lengthAdjust="spacingAndGlyphs" textLength="8" x="301.8341" y="122.0697">1</text><!--
@startuml
class "Klas" as Klas  {
	Studenten: List Student
	Docenten: List Docent
===
  <b>api</b>: klas
}
Student "1..32" - -> "1" Klas : List Student
Docent "7..25" - -> "1" Klas : List Docent
class "Student " as Student <Persoon> {
	Nummer: String 
	HeeftVakken: List Vak
	Voornaam: String  <i>from Persoon</i>
	Achternaam: String  <i>from Persoon</i>
	ActiefAdres: Adres  <i>from Persoon</i>
}
Vak "7..13" - -> "1" Student : List Vak
class "Docent " as Docent <Persoon> {
	DocentenNummer: String 
	BevoegdVoor: List Vak
	Voornaam: String  <i>from Persoon</i>
	Achternaam: String  <i>from Persoon</i>
	ActiefAdres: Adres  <i>from Persoon</i>
}
Vak "1..20" - -> "1" Docent : List Vak
@enduml

PlantUML version 1.2019.07beta1(Unknown compile time)
(GPL source distribution)
Java Runtime: Java(TM) SE Runtime Environment
JVM: Java HotSpot(TM) 64-Bit Server VM
Java Version: 1.7.0_25-b15
Operating System: Linux
Default Encoding: UTF-8
Language: en
Country: US
--></g></svg>