<?xml version="1.0" encoding="UTF-8" standalone="no"?><svg xmlns="http://www.w3.org/2000/svg" xmlns:xlink="http://www.w3.org/1999/xlink" contentScriptType="application/ecmascript" contentStyleType="text/css" height="282px" preserveAspectRatio="none" style="width:227px;height:282px;" version="1.1" viewBox="0 0 227 282" width="227px" zoomAndPan="magnify"><defs><filter height="300%" id="fipx3osnb7nmc" width="300%" x="-1" y="-1"><feGaussianBlur result="blurOut" stdDeviation="2.0"/><feColorMatrix in="blurOut" result="blurOut2" type="matrix" values="0 0 0 0 0 0 0 0 0 0 0 0 0 0 0 0 0 0 .4 0"/><feOffset dx="4.0" dy="4.0" in="blurOut2" result="blurOut3"/><feBlend in="SourceGraphic" in2="blurOut3" mode="normal"/></filter></defs><g><!--class Docent--><rect fill="#FEFECE" filter="url(#fipx3osnb7nmc)" height="112.0234" id="Docent" style="stroke: #A80036; stroke-width: 1.5;" width="207" x="6" y="159"/><ellipse cx="53.75" cy="175" fill="#ADD1B2" rx="11" ry="11" style="stroke: #A80036; stroke-width: 1.0;"/><path d="M56.0938,170.6719 L56.2656,170.75 C56.4844,170.4375 56.6875,170.3438 56.9844,170.3438 C57.2813,170.3438 57.5625,170.4844 57.7188,170.75 C57.8125,170.9063 57.8281,171.0313 57.8281,171.4688 L57.8281,172.8906 C57.8281,173.3125 57.7969,173.5 57.6875,173.6563 C57.5156,173.875 57.25,174.0156 56.9844,174.0156 C56.7656,174.0156 56.5313,173.9063 56.3906,173.7656 C56.25,173.6406 56.2188,173.5156 56.1563,173.1094 C56.0625,172.7031 55.8906,172.4844 55.4063,172.2031 C54.9375,171.9531 54.3281,171.7969 53.75,171.7969 C52.0156,171.7969 50.7656,173.1094 50.7656,174.8906 L50.7656,175.9844 C50.7656,177.6875 52.0625,178.7813 54.1094,178.7813 C54.875,178.7813 55.5625,178.6563 55.9844,178.3906 C56.1719,178.2969 56.1719,178.2969 56.625,177.8125 C56.8125,177.625 57.0156,177.5469 57.2344,177.5469 C57.7031,177.5469 58.0938,177.9375 58.0938,178.3906 C58.0938,178.7813 57.7656,179.2344 57.1875,179.6406 C56.4375,180.1875 55.2813,180.4844 54.0625,180.4844 C51.1719,180.4844 49.0625,178.5938 49.0625,176.0156 L49.0625,174.8906 C49.0625,172.1719 51.0625,170.0938 53.6875,170.0938 C54.5625,170.0938 55.1563,170.2344 56.0938,170.6719 Z "/><text fill="#000000" font-family="sans-serif" font-size="12" lengthAdjust="spacingAndGlyphs" textLength="45" x="74.25" y="179.1543">Docent</text><rect fill="#FFFFFF" height="15.9688" style="stroke: #000000; stroke-width: 1.0; stroke-dasharray: 2.0,2.0;" width="52" x="164" y="156"/><text fill="#000000" font-family="sans-serif" font-size="12" font-style="italic" lengthAdjust="spacingAndGlyphs" textLength="50" x="165" y="168.1387">Persoon</text><line style="stroke: #A80036; stroke-width: 1.5;" x1="7" x2="212" y1="191" y2="191"/><text fill="#000000" font-family="sans-serif" font-size="11" lengthAdjust="spacingAndGlyphs" textLength="144" x="12" y="205.2104">DocentenNummer: String</text><text fill="#000000" font-family="sans-serif" font-size="11" lengthAdjust="spacingAndGlyphs" textLength="127" x="12" y="218.0151">BevoegdVoor: List Vak</text><text fill="#000000" font-family="sans-serif" font-size="11" lengthAdjust="spacingAndGlyphs" textLength="100" x="12" y="230.8198">Voornaam: String</text><text fill="#000000" font-family="sans-serif" font-size="11" font-style="italic" lengthAdjust="spacingAndGlyphs" textLength="77" x="120" y="230.8198">from Persoon</text><text fill="#000000" font-family="sans-serif" font-size="11" lengthAdjust="spacingAndGlyphs" textLength="110" x="12" y="243.6245">Achternaam: String</text><text fill="#000000" font-family="sans-serif" font-size="11" font-style="italic" lengthAdjust="spacingAndGlyphs" textLength="77" x="130" y="243.6245">from Persoon</text><text fill="#000000" font-family="sans-serif" font-size="11" lengthAdjust="spacingAndGlyphs" textLength="105" x="12" y="256.4292">ActiefAdres: Adres</text><text fill="#000000" font-family="sans-serif" font-size="11" font-style="italic" lengthAdjust="spacingAndGlyphs" textLength="77" x="125" y="256.4292">from Persoon</text><line style="stroke: #A80036; stroke-width: 1.5;" x1="7" x2="212" y1="263.0234" y2="263.0234"/><!--class Vak--><rect fill="#FEFECE" filter="url(#fipx3osnb7nmc)" height="73.6094" id="Vak" style="stroke: #A80036; stroke-width: 1.5;" width="132" x="43.5" y="8"/><ellipse cx="93.75" cy="24" fill="#ADD1B2" rx="11" ry="11" style="stroke: #A80036; stroke-width: 1.0;"/><path d="M96.0938,19.6719 L96.2656,19.75 C96.4844,19.4375 96.6875,19.3438 96.9844,19.3438 C97.2813,19.3438 97.5625,19.4844 97.7188,19.75 C97.8125,19.9063 97.8281,20.0313 97.8281,20.4688 L97.8281,21.8906 C97.8281,22.3125 97.7969,22.5 97.6875,22.6563 C97.5156,22.875 97.25,23.0156 96.9844,23.0156 C96.7656,23.0156 96.5313,22.9063 96.3906,22.7656 C96.25,22.6406 96.2188,22.5156 96.1563,22.1094 C96.0625,21.7031 95.8906,21.4844 95.4063,21.2031 C94.9375,20.9531 94.3281,20.7969 93.75,20.7969 C92.0156,20.7969 90.7656,22.1094 90.7656,23.8906 L90.7656,24.9844 C90.7656,26.6875 92.0625,27.7813 94.1094,27.7813 C94.875,27.7813 95.5625,27.6563 95.9844,27.3906 C96.1719,27.2969 96.1719,27.2969 96.625,26.8125 C96.8125,26.625 97.0156,26.5469 97.2344,26.5469 C97.7031,26.5469 98.0938,26.9375 98.0938,27.3906 C98.0938,27.7813 97.7656,28.2344 97.1875,28.6406 C96.4375,29.1875 95.2813,29.4844 94.0625,29.4844 C91.1719,29.4844 89.0625,27.5938 89.0625,25.0156 L89.0625,23.8906 C89.0625,21.1719 91.0625,19.0938 93.6875,19.0938 C94.5625,19.0938 95.1563,19.2344 96.0938,19.6719 Z "/><text fill="#000000" font-family="sans-serif" font-size="12" lengthAdjust="spacingAndGlyphs" textLength="23" x="114.25" y="28.1543">Vak</text><line style="stroke: #A80036; stroke-width: 1.5;" x1="44.5" x2="174.5" y1="40" y2="40"/><text fill="#000000" font-family="sans-serif" font-size="11" lengthAdjust="spacingAndGlyphs" textLength="75" x="49.5" y="54.2104">Naam: String</text><text fill="#000000" font-family="sans-serif" font-size="11" lengthAdjust="spacingAndGlyphs" textLength="120" x="49.5" y="67.0151">IsBelangrijk: Boolean</text><line style="stroke: #A80036; stroke-width: 1.5;" x1="44.5" x2="174.5" y1="73.6094" y2="73.6094"/><!--link Vak to Docent--><path d="M109.5,82.04 C109.5,102.923 109.5,129.753 109.5,153.761 " fill="none" id="Vak-Docent" style="stroke: #A80036; stroke-width: 1.0;"/><polygon fill="#A80036" points="109.5,158.838,113.5,149.838,109.5,153.838,105.5,149.838,109.5,158.838" style="stroke: #A80036; stroke-width: 1.0;"/><text fill="#000000" font-family="sans-serif" font-size="13" lengthAdjust="spacingAndGlyphs" textLength="50" x="110.5" y="125.0669">List Vak</text><text fill="#000000" font-family="sans-serif" font-size="13" lengthAdjust="spacingAndGlyphs" textLength="32" x="74.75" y="101.8072">1..20</text><text fill="#000000" font-family="sans-serif" font-size="13" lengthAdjust="spacingAndGlyphs" textLength="8" x="100.9875" y="147.7552">1</text><!--
@startuml
class "Docent " as Docent <Persoon> {
	DocentenNummer: String 
	BevoegdVoor: List Vak
	Voornaam: String  <i>from Persoon</i>
	Achternaam: String  <i>from Persoon</i>
	ActiefAdres: Adres  <i>from Persoon</i>
}
Vak "1..20" - -> "1" Docent : List Vak
class "Vak" as Vak  {
	Naam: String 
	IsBelangrijk: Boolean 
}
@enduml

PlantUML version 1.2019.07beta1(Unknown compile time)
(GPL source distribution)
Java Runtime: Java(TM) SE Runtime Environment
JVM: Java HotSpot(TM) 64-Bit Server VM
Java Version: 1.7.0_25-b15
Operating System: Linux
Default Encoding: UTF-8
Language: en
Country: US
--></g></svg>