<?xml version="1.0" encoding="UTF-8" standalone="no"?><svg xmlns="http://www.w3.org/2000/svg" xmlns:xlink="http://www.w3.org/1999/xlink" contentScriptType="application/ecmascript" contentStyleType="text/css" height="432px" preserveAspectRatio="none" style="width:469px;height:432px;" version="1.1" viewBox="0 0 469 432" width="469px" zoomAndPan="magnify"><defs><filter height="300%" id="f1j6wd6v1lw2ps" width="300%" x="-1" y="-1"><feGaussianBlur result="blurOut" stdDeviation="2.0"/><feColorMatrix in="blurOut" result="blurOut2" type="matrix" values="0 0 0 0 0 0 0 0 0 0 0 0 0 0 0 0 0 0 .4 0"/><feOffset dx="4.0" dy="4.0" in="blurOut2" result="blurOut3"/><feBlend in="SourceGraphic" in2="blurOut3" mode="normal"/></filter></defs><g><!--class Klas--><rect fill="#FEFECE" filter="url(#f1j6wd6v1lw2ps)" height="86.4141" id="Klas" style="stroke: #A80036; stroke-width: 1.5;" width="146" x="126.5" y="335"/><ellipse cx="182.75" cy="351" fill="#ADD1B2" rx="11" ry="11" style="stroke: #A80036; stroke-width: 1.0;"/><path d="M185.0938,346.6719 L185.2656,346.75 C185.4844,346.4375 185.6875,346.3438 185.9844,346.3438 C186.2813,346.3438 186.5625,346.4844 186.7188,346.75 C186.8125,346.9063 186.8281,347.0313 186.8281,347.4688 L186.8281,348.8906 C186.8281,349.3125 186.7969,349.5 186.6875,349.6563 C186.5156,349.875 186.25,350.0156 185.9844,350.0156 C185.7656,350.0156 185.5313,349.9063 185.3906,349.7656 C185.25,349.6406 185.2188,349.5156 185.1563,349.1094 C185.0625,348.7031 184.8906,348.4844 184.4063,348.2031 C183.9375,347.9531 183.3281,347.7969 182.75,347.7969 C181.0156,347.7969 179.7656,349.1094 179.7656,350.8906 L179.7656,351.9844 C179.7656,353.6875 181.0625,354.7813 183.1094,354.7813 C183.875,354.7813 184.5625,354.6563 184.9844,354.3906 C185.1719,354.2969 185.1719,354.2969 185.625,353.8125 C185.8125,353.625 186.0156,353.5469 186.2344,353.5469 C186.7031,353.5469 187.0938,353.9375 187.0938,354.3906 C187.0938,354.7813 186.7656,355.2344 186.1875,355.6406 C185.4375,356.1875 184.2813,356.4844 183.0625,356.4844 C180.1719,356.4844 178.0625,354.5938 178.0625,352.0156 L178.0625,350.8906 C178.0625,348.1719 180.0625,346.0938 182.6875,346.0938 C183.5625,346.0938 184.1563,346.2344 185.0938,346.6719 Z "/><text fill="#000000" font-family="sans-serif" font-size="12" lengthAdjust="spacingAndGlyphs" textLength="25" x="203.25" y="355.1543">Klas</text><line style="stroke: #A80036; stroke-width: 1.5;" x1="127.5" x2="271.5" y1="367" y2="367"/><text fill="#000000" font-family="sans-serif" font-size="11" lengthAdjust="spacingAndGlyphs" textLength="134" x="132.5" y="381.2104">Studenten: List Student</text><text fill="#000000" font-family="sans-serif" font-size="11" lengthAdjust="spacingAndGlyphs" textLength="124" x="132.5" y="394.0151">Docenten: List Docent</text><line style="stroke: #A80036; stroke-width: 1.0;" x1="127.5" x2="271.5" y1="400.6094" y2="400.6094"/><line style="stroke: #A80036; stroke-width: 1.0;" x1="127.5" x2="271.5" y1="402.6094" y2="402.6094"/><text fill="#000000" font-family="sans-serif" font-size="11" font-weight="bold" lengthAdjust="spacingAndGlyphs" textLength="20" x="132.5" y="414.8198">api</text><text fill="#000000" font-family="sans-serif" font-size="11" lengthAdjust="spacingAndGlyphs" textLength="31" x="152.5" y="414.8198">: klas</text><!--class Student--><rect fill="#FEFECE" filter="url(#f1j6wd6v1lw2ps)" height="124.8281" id="Student" style="stroke: #A80036; stroke-width: 1.5;" width="207" x="6" y="133"/><ellipse cx="53.25" cy="149" fill="#ADD1B2" rx="11" ry="11" style="stroke: #A80036; stroke-width: 1.0;"/><path d="M55.5938,144.6719 L55.7656,144.75 C55.9844,144.4375 56.1875,144.3438 56.4844,144.3438 C56.7813,144.3438 57.0625,144.4844 57.2188,144.75 C57.3125,144.9063 57.3281,145.0313 57.3281,145.4688 L57.3281,146.8906 C57.3281,147.3125 57.2969,147.5 57.1875,147.6563 C57.0156,147.875 56.75,148.0156 56.4844,148.0156 C56.2656,148.0156 56.0313,147.9063 55.8906,147.7656 C55.75,147.6406 55.7188,147.5156 55.6563,147.1094 C55.5625,146.7031 55.3906,146.4844 54.9063,146.2031 C54.4375,145.9531 53.8281,145.7969 53.25,145.7969 C51.5156,145.7969 50.2656,147.1094 50.2656,148.8906 L50.2656,149.9844 C50.2656,151.6875 51.5625,152.7813 53.6094,152.7813 C54.375,152.7813 55.0625,152.6563 55.4844,152.3906 C55.6719,152.2969 55.6719,152.2969 56.125,151.8125 C56.3125,151.625 56.5156,151.5469 56.7344,151.5469 C57.2031,151.5469 57.5938,151.9375 57.5938,152.3906 C57.5938,152.7813 57.2656,153.2344 56.6875,153.6406 C55.9375,154.1875 54.7813,154.4844 53.5625,154.4844 C50.6719,154.4844 48.5625,152.5938 48.5625,150.0156 L48.5625,148.8906 C48.5625,146.1719 50.5625,144.0938 53.1875,144.0938 C54.0625,144.0938 54.6563,144.2344 55.5938,144.6719 Z "/><text fill="#000000" font-family="sans-serif" font-size="12" lengthAdjust="spacingAndGlyphs" textLength="50" x="73.75" y="153.1543">Student</text><rect fill="#FFFFFF" height="15.9688" style="stroke: #000000; stroke-width: 1.0; stroke-dasharray: 2.0,2.0;" width="52" x="164" y="130"/><text fill="#000000" font-family="sans-serif" font-size="12" font-style="italic" lengthAdjust="spacingAndGlyphs" textLength="50" x="165" y="142.1387">Persoon</text><line style="stroke: #A80036; stroke-width: 1.5;" x1="7" x2="212" y1="165" y2="165"/><text fill="#000000" font-family="sans-serif" font-size="11" lengthAdjust="spacingAndGlyphs" textLength="91" x="12" y="179.2104">Nummer: String</text><text fill="#000000" font-family="sans-serif" font-size="11" lengthAdjust="spacingAndGlyphs" textLength="122" x="12" y="192.0151">HeeftVakken: List Vak</text><text fill="#000000" font-family="sans-serif" font-size="11" lengthAdjust="spacingAndGlyphs" textLength="100" x="12" y="204.8198">Voornaam: String</text><text fill="#000000" font-family="sans-serif" font-size="11" font-style="italic" lengthAdjust="spacingAndGlyphs" textLength="77" x="120" y="204.8198">from Persoon</text><text fill="#000000" font-family="sans-serif" font-size="11" lengthAdjust="spacingAndGlyphs" textLength="110" x="12" y="217.6245">Achternaam: String</text><text fill="#000000" font-family="sans-serif" font-size="11" font-style="italic" lengthAdjust="spacingAndGlyphs" textLength="77" x="130" y="217.6245">from Persoon</text><text fill="#000000" font-family="sans-serif" font-size="11" lengthAdjust="spacingAndGlyphs" textLength="105" x="12" y="230.4292">ActiefAdres: Adres</text><text fill="#000000" font-family="sans-serif" font-size="11" font-style="italic" lengthAdjust="spacingAndGlyphs" textLength="77" x="125" y="230.4292">from Persoon</text><line style="stroke: #A80036; stroke-width: 1.0;" x1="7" x2="212" y1="237.0234" y2="237.0234"/><line style="stroke: #A80036; stroke-width: 1.0;" x1="7" x2="212" y1="239.0234" y2="239.0234"/><text fill="#000000" font-family="sans-serif" font-size="11" font-weight="bold" lengthAdjust="spacingAndGlyphs" textLength="20" x="12" y="251.2339">api</text><text fill="#000000" font-family="sans-serif" font-size="11" lengthAdjust="spacingAndGlyphs" textLength="51" x="32" y="251.2339">: student</text><!--class Docent--><rect fill="#FEFECE" filter="url(#f1j6wd6v1lw2ps)" height="112.0234" id="Docent" style="stroke: #A80036; stroke-width: 1.5;" width="207" x="248" y="139.5"/><ellipse cx="297.75" cy="155.5" fill="#ADD1B2" rx="11" ry="11" style="stroke: #A80036; stroke-width: 1.0;"/><path d="M300.0938,151.1719 L300.2656,151.25 C300.4844,150.9375 300.6875,150.8438 300.9844,150.8438 C301.2813,150.8438 301.5625,150.9844 301.7188,151.25 C301.8125,151.4063 301.8281,151.5313 301.8281,151.9688 L301.8281,153.3906 C301.8281,153.8125 301.7969,154 301.6875,154.1563 C301.5156,154.375 301.25,154.5156 300.9844,154.5156 C300.7656,154.5156 300.5313,154.4063 300.3906,154.2656 C300.25,154.1406 300.2188,154.0156 300.1563,153.6094 C300.0625,153.2031 299.8906,152.9844 299.4063,152.7031 C298.9375,152.4531 298.3281,152.2969 297.75,152.2969 C296.0156,152.2969 294.7656,153.6094 294.7656,155.3906 L294.7656,156.4844 C294.7656,158.1875 296.0625,159.2813 298.1094,159.2813 C298.875,159.2813 299.5625,159.1563 299.9844,158.8906 C300.1719,158.7969 300.1719,158.7969 300.625,158.3125 C300.8125,158.125 301.0156,158.0469 301.2344,158.0469 C301.7031,158.0469 302.0938,158.4375 302.0938,158.8906 C302.0938,159.2813 301.7656,159.7344 301.1875,160.1406 C300.4375,160.6875 299.2813,160.9844 298.0625,160.9844 C295.1719,160.9844 293.0625,159.0938 293.0625,156.5156 L293.0625,155.3906 C293.0625,152.6719 295.0625,150.5938 297.6875,150.5938 C298.5625,150.5938 299.1563,150.7344 300.0938,151.1719 Z "/><text fill="#000000" font-family="sans-serif" font-size="12" lengthAdjust="spacingAndGlyphs" textLength="45" x="318.25" y="159.6543">Docent</text><rect fill="#FFFFFF" height="15.9688" style="stroke: #000000; stroke-width: 1.0; stroke-dasharray: 2.0,2.0;" width="52" x="406" y="136.5"/><text fill="#000000" font-family="sans-serif" font-size="12" font-style="italic" lengthAdjust="spacingAndGlyphs" textLength="50" x="407" y="148.6387">Persoon</text><line style="stroke: #A80036; stroke-width: 1.5;" x1="249" x2="454" y1="171.5" y2="171.5"/><text fill="#000000" font-family="sans-serif" font-size="11" lengthAdjust="spacingAndGlyphs" textLength="144" x="254" y="185.7104">DocentenNummer: String</text><text fill="#000000" font-family="sans-serif" font-size="11" lengthAdjust="spacingAndGlyphs" textLength="127" x="254" y="198.5151">BevoegdVoor: List Vak</text><text fill="#000000" font-family="sans-serif" font-size="11" lengthAdjust="spacingAndGlyphs" textLength="100" x="254" y="211.3198">Voornaam: String</text><text fill="#000000" font-family="sans-serif" font-size="11" font-style="italic" lengthAdjust="spacingAndGlyphs" textLength="77" x="362" y="211.3198">from Persoon</text><text fill="#000000" font-family="sans-serif" font-size="11" lengthAdjust="spacingAndGlyphs" textLength="110" x="254" y="224.1245">Achternaam: String</text><text fill="#000000" font-family="sans-serif" font-size="11" font-style="italic" lengthAdjust="spacingAndGlyphs" textLength="77" x="372" y="224.1245">from Persoon</text><text fill="#000000" font-family="sans-serif" font-size="11" lengthAdjust="spacingAndGlyphs" textLength="105" x="254" y="236.9292">ActiefAdres: Adres</text><text fill="#000000" font-family="sans-serif" font-size="11" font-style="italic" lengthAdjust="spacingAndGlyphs" textLength="77" x="367" y="236.9292">from Persoon</text><line style="stroke: #A80036; stroke-width: 1.5;" x1="249" x2="454" y1="243.5234" y2="243.5234"/><!--class Vak--><rect fill="#FEFECE" filter="url(#f1j6wd6v1lw2ps)" height="48" id="Vak" style="stroke: #A80036; stroke-width: 1.5;" width="55" x="221" y="8"/><ellipse cx="236" cy="24" fill="#ADD1B2" rx="11" ry="11" style="stroke: #A80036; stroke-width: 1.0;"/><path d="M238.3438,19.6719 L238.5156,19.75 C238.7344,19.4375 238.9375,19.3438 239.2344,19.3438 C239.5313,19.3438 239.8125,19.4844 239.9688,19.75 C240.0625,19.9063 240.0781,20.0313 240.0781,20.4688 L240.0781,21.8906 C240.0781,22.3125 240.0469,22.5 239.9375,22.6563 C239.7656,22.875 239.5,23.0156 239.2344,23.0156 C239.0156,23.0156 238.7813,22.9063 238.6406,22.7656 C238.5,22.6406 238.4688,22.5156 238.4063,22.1094 C238.3125,21.7031 238.1406,21.4844 237.6563,21.2031 C237.1875,20.9531 236.5781,20.7969 236,20.7969 C234.2656,20.7969 233.0156,22.1094 233.0156,23.8906 L233.0156,24.9844 C233.0156,26.6875 234.3125,27.7813 236.3594,27.7813 C237.125,27.7813 237.8125,27.6563 238.2344,27.3906 C238.4219,27.2969 238.4219,27.2969 238.875,26.8125 C239.0625,26.625 239.2656,26.5469 239.4844,26.5469 C239.9531,26.5469 240.3438,26.9375 240.3438,27.3906 C240.3438,27.7813 240.0156,28.2344 239.4375,28.6406 C238.6875,29.1875 237.5313,29.4844 236.3125,29.4844 C233.4219,29.4844 231.3125,27.5938 231.3125,25.0156 L231.3125,23.8906 C231.3125,21.1719 233.3125,19.0938 235.9375,19.0938 C236.8125,19.0938 237.4063,19.2344 238.3438,19.6719 Z "/><text fill="#000000" font-family="sans-serif" font-size="12" lengthAdjust="spacingAndGlyphs" textLength="23" x="250" y="28.1543">Vak</text><line style="stroke: #A80036; stroke-width: 1.5;" x1="222" x2="275" y1="40" y2="40"/><line style="stroke: #A80036; stroke-width: 1.5;" x1="222" x2="275" y1="48" y2="48"/><!--link Student to Klas--><path d="M140.221,258.113 C152.011,281.759 165.26,308.331 176.238,330.3464 " fill="none" id="Student-Klas" style="stroke: #A80036; stroke-width: 1.0;"/><polygon fill="#A80036" points="178.544,334.9726,178.1071,325.1334,176.3126,330.4981,170.9479,328.7036,178.544,334.9726" style="stroke: #A80036; stroke-width: 1.0;"/><text fill="#000000" font-family="sans-serif" font-size="13" lengthAdjust="spacingAndGlyphs" textLength="77" x="164.5" y="301.0669">List Student</text><text fill="#000000" font-family="sans-serif" font-size="13" lengthAdjust="spacingAndGlyphs" textLength="32" x="109.8311" y="277.8652">1..32</text><text fill="#000000" font-family="sans-serif" font-size="13" lengthAdjust="spacingAndGlyphs" textLength="8" x="166.5666" y="323.9647">1</text><!--link Docent to Klas--><path d="M305.069,251.637 C283.688,277.027 258.608,306.809 238.259,330.9734 " fill="none" id="Docent-Klas" style="stroke: #A80036; stroke-width: 1.0;"/><polygon fill="#A80036" points="235.035,334.8018,243.8912,330.4929,238.2551,330.9768,237.7712,325.3407,235.035,334.8018" style="stroke: #A80036; stroke-width: 1.0;"/><text fill="#000000" font-family="sans-serif" font-size="13" lengthAdjust="spacingAndGlyphs" textLength="72" x="271.5" y="301.0669">List Docent</text><text fill="#000000" font-family="sans-serif" font-size="13" lengthAdjust="spacingAndGlyphs" textLength="32" x="265.4602" y="271.4663">7..25</text><text fill="#000000" font-family="sans-serif" font-size="13" lengthAdjust="spacingAndGlyphs" textLength="8" x="231.8638" y="324.0842">1</text><!--link Vak to Student--><path d="M228.585,56.139 C212.2,75.176 188.143,103.127 165.934,128.931 " fill="none" id="Vak-Student" style="stroke: #A80036; stroke-width: 1.0;"/><polygon fill="#A80036" points="162.671,132.722,171.5742,128.5109,165.9331,128.9327,165.5113,123.2916,162.671,132.722" style="stroke: #A80036; stroke-width: 1.0;"/><text fill="#000000" font-family="sans-serif" font-size="13" lengthAdjust="spacingAndGlyphs" textLength="50" x="200.5" y="99.0669">List Vak</text><text fill="#000000" font-family="sans-serif" font-size="13" lengthAdjust="spacingAndGlyphs" textLength="32" x="187.8307" y="75.9341">7..13</text><text fill="#000000" font-family="sans-serif" font-size="13" lengthAdjust="spacingAndGlyphs" textLength="8" x="160.0491" y="122.1189">1</text><!--link Vak to Docent--><path d="M263.257,56.139 C276.352,76.671 296.06,107.572 313.531,134.966 " fill="none" id="Vak-Docent" style="stroke: #A80036; stroke-width: 1.0;"/><polygon fill="#A80036" points="316.314,139.33,314.8472,129.591,313.6255,135.1143,308.1021,133.8926,316.314,139.33" style="stroke: #A80036; stroke-width: 1.0;"/><text fill="#000000" font-family="sans-serif" font-size="13" lengthAdjust="spacingAndGlyphs" textLength="50" x="291.5" y="99.0669">List Vak</text><text fill="#000000" font-family="sans-serif" font-size="13" lengthAdjust="spacingAndGlyphs" textLength="32" x="230.954" y="75.9341">1..20</text><text fill="#000000" font-family="sans-serif" font-size="13" lengthAdjust="spacingAndGlyphs" textLength="8" x="303.2933" y="128.2462">1</text><!--
@startuml
class "Klas" as Klas  {
	Studenten: List Student
	Docenten: List Docent
===
  <b>api</b>: klas
}
Student "1..32" - -> "1" Klas : List Student
Docent "7..25" - -> "1" Klas : List Docent
class "Student " as Student <Persoon> {
	Nummer: String 
	HeeftVakken: List Vak
	Voornaam: String  <i>from Persoon</i>
	Achternaam: String  <i>from Persoon</i>
	ActiefAdres: Adres  <i>from Persoon</i>
===
  <b>api</b>: student
}
Vak "7..13" - -> "1" Student : List Vak
class "Docent " as Docent <Persoon> {
	DocentenNummer: String 
	BevoegdVoor: List Vak
	Voornaam: String  <i>from Persoon</i>
	Achternaam: String  <i>from Persoon</i>
	ActiefAdres: Adres  <i>from Persoon</i>
}
Vak "1..20" - -> "1" Docent : List Vak
@enduml

PlantUML version 1.2019.07beta1(Unknown compile time)
(GPL source distribution)
Java Runtime: Java(TM) SE Runtime Environment
JVM: Java HotSpot(TM) 64-Bit Server VM
Java Version: 1.7.0_25-b15
Operating System: Linux
Default Encoding: UTF-8
Language: en
Country: US
--></g></svg>