<?xml version="1.0" encoding="UTF-8" standalone="no"?><svg xmlns="http://www.w3.org/2000/svg" xmlns:xlink="http://www.w3.org/1999/xlink" contentScriptType="application/ecmascript" contentStyleType="text/css" height="566px" preserveAspectRatio="none" style="width:484px;height:566px;" version="1.1" viewBox="0 0 484 566" width="484px" zoomAndPan="magnify"><defs><filter height="300%" id="f10lqoftxb0634" width="300%" x="-1" y="-1"><feGaussianBlur result="blurOut" stdDeviation="2.0"/><feColorMatrix in="blurOut" result="blurOut2" type="matrix" values="0 0 0 0 0 0 0 0 0 0 0 0 0 0 0 0 0 0 .4 0"/><feOffset dx="4.0" dy="4.0" in="blurOut2" result="blurOut3"/><feBlend in="SourceGraphic" in2="blurOut3" mode="normal"/></filter></defs><g><!--class Klas--><rect fill="#FEFECE" filter="url(#f10lqoftxb0634)" height="73.6094" id="Klas" style="stroke: #A80036; stroke-width: 1.5;" width="146" x="36.5" y="482"/><ellipse cx="92.75" cy="498" fill="#ADD1B2" rx="11" ry="11" style="stroke: #A80036; stroke-width: 1.0;"/><path d="M95.0938,493.6719 L95.2656,493.75 C95.4844,493.4375 95.6875,493.3438 95.9844,493.3438 C96.2813,493.3438 96.5625,493.4844 96.7188,493.75 C96.8125,493.9063 96.8281,494.0313 96.8281,494.4688 L96.8281,495.8906 C96.8281,496.3125 96.7969,496.5 96.6875,496.6563 C96.5156,496.875 96.25,497.0156 95.9844,497.0156 C95.7656,497.0156 95.5313,496.9063 95.3906,496.7656 C95.25,496.6406 95.2188,496.5156 95.1563,496.1094 C95.0625,495.7031 94.8906,495.4844 94.4063,495.2031 C93.9375,494.9531 93.3281,494.7969 92.75,494.7969 C91.0156,494.7969 89.7656,496.1094 89.7656,497.8906 L89.7656,498.9844 C89.7656,500.6875 91.0625,501.7813 93.1094,501.7813 C93.875,501.7813 94.5625,501.6563 94.9844,501.3906 C95.1719,501.2969 95.1719,501.2969 95.625,500.8125 C95.8125,500.625 96.0156,500.5469 96.2344,500.5469 C96.7031,500.5469 97.0938,500.9375 97.0938,501.3906 C97.0938,501.7813 96.7656,502.2344 96.1875,502.6406 C95.4375,503.1875 94.2813,503.4844 93.0625,503.4844 C90.1719,503.4844 88.0625,501.5938 88.0625,499.0156 L88.0625,497.8906 C88.0625,495.1719 90.0625,493.0938 92.6875,493.0938 C93.5625,493.0938 94.1563,493.2344 95.0938,493.6719 Z "/><text fill="#000000" font-family="sans-serif" font-size="12" lengthAdjust="spacingAndGlyphs" textLength="25" x="113.25" y="502.1543">Klas</text><line style="stroke: #A80036; stroke-width: 1.5;" x1="37.5" x2="181.5" y1="514" y2="514"/><text fill="#000000" font-family="sans-serif" font-size="11" lengthAdjust="spacingAndGlyphs" textLength="134" x="42.5" y="528.2104">Studenten: List Student</text><line style="stroke: #A80036; stroke-width: 1.0;" x1="37.5" x2="181.5" y1="534.8047" y2="534.8047"/><line style="stroke: #A80036; stroke-width: 1.0;" x1="37.5" x2="181.5" y1="536.8047" y2="536.8047"/><text fill="#000000" font-family="sans-serif" font-size="11" font-weight="bold" lengthAdjust="spacingAndGlyphs" textLength="20" x="42.5" y="549.0151">api</text><text fill="#000000" font-family="sans-serif" font-size="11" lengthAdjust="spacingAndGlyphs" textLength="31" x="62.5" y="549.0151">: klas</text><!--class Student--><rect fill="#FEFECE" filter="url(#f10lqoftxb0634)" height="99.2188" id="Student" style="stroke: #A80036; stroke-width: 1.5;" width="207" x="6" y="306"/><ellipse cx="53.25" cy="322" fill="#ADD1B2" rx="11" ry="11" style="stroke: #A80036; stroke-width: 1.0;"/><path d="M55.5938,317.6719 L55.7656,317.75 C55.9844,317.4375 56.1875,317.3438 56.4844,317.3438 C56.7813,317.3438 57.0625,317.4844 57.2188,317.75 C57.3125,317.9063 57.3281,318.0313 57.3281,318.4688 L57.3281,319.8906 C57.3281,320.3125 57.2969,320.5 57.1875,320.6563 C57.0156,320.875 56.75,321.0156 56.4844,321.0156 C56.2656,321.0156 56.0313,320.9063 55.8906,320.7656 C55.75,320.6406 55.7188,320.5156 55.6563,320.1094 C55.5625,319.7031 55.3906,319.4844 54.9063,319.2031 C54.4375,318.9531 53.8281,318.7969 53.25,318.7969 C51.5156,318.7969 50.2656,320.1094 50.2656,321.8906 L50.2656,322.9844 C50.2656,324.6875 51.5625,325.7813 53.6094,325.7813 C54.375,325.7813 55.0625,325.6563 55.4844,325.3906 C55.6719,325.2969 55.6719,325.2969 56.125,324.8125 C56.3125,324.625 56.5156,324.5469 56.7344,324.5469 C57.2031,324.5469 57.5938,324.9375 57.5938,325.3906 C57.5938,325.7813 57.2656,326.2344 56.6875,326.6406 C55.9375,327.1875 54.7813,327.4844 53.5625,327.4844 C50.6719,327.4844 48.5625,325.5938 48.5625,323.0156 L48.5625,321.8906 C48.5625,319.1719 50.5625,317.0938 53.1875,317.0938 C54.0625,317.0938 54.6563,317.2344 55.5938,317.6719 Z "/><text fill="#000000" font-family="sans-serif" font-size="12" lengthAdjust="spacingAndGlyphs" textLength="50" x="73.75" y="326.1543">Student</text><rect fill="#FFFFFF" height="15.9688" style="stroke: #000000; stroke-width: 1.0; stroke-dasharray: 2.0,2.0;" width="52" x="164" y="303"/><text fill="#000000" font-family="sans-serif" font-size="12" font-style="italic" lengthAdjust="spacingAndGlyphs" textLength="50" x="165" y="315.1387">Persoon</text><line style="stroke: #A80036; stroke-width: 1.5;" x1="7" x2="212" y1="338" y2="338"/><text fill="#000000" font-family="sans-serif" font-size="11" lengthAdjust="spacingAndGlyphs" textLength="91" x="12" y="352.2104">Nummer: String</text><text fill="#000000" font-family="sans-serif" font-size="11" lengthAdjust="spacingAndGlyphs" textLength="100" x="12" y="365.0151">Voornaam: String</text><text fill="#000000" font-family="sans-serif" font-size="11" font-style="italic" lengthAdjust="spacingAndGlyphs" textLength="77" x="120" y="365.0151">from Persoon</text><text fill="#000000" font-family="sans-serif" font-size="11" lengthAdjust="spacingAndGlyphs" textLength="110" x="12" y="377.8198">Achternaam: String</text><text fill="#000000" font-family="sans-serif" font-size="11" font-style="italic" lengthAdjust="spacingAndGlyphs" textLength="77" x="130" y="377.8198">from Persoon</text><text fill="#000000" font-family="sans-serif" font-size="11" lengthAdjust="spacingAndGlyphs" textLength="105" x="12" y="390.6245">ActiefAdres: Adres</text><text fill="#000000" font-family="sans-serif" font-size="11" font-style="italic" lengthAdjust="spacingAndGlyphs" textLength="77" x="125" y="390.6245">from Persoon</text><line style="stroke: #A80036; stroke-width: 1.5;" x1="7" x2="212" y1="397.2188" y2="397.2188"/><!--class Adres--><rect fill="#FEFECE" filter="url(#f10lqoftxb0634)" height="73.6094" id="Adres" style="stroke: #A80036; stroke-width: 1.5;" width="127" x="187" y="8"/><ellipse cx="228.55" cy="24" fill="#ADD1B2" rx="11" ry="11" style="stroke: #A80036; stroke-width: 1.0;"/><path d="M230.8938,19.6719 L231.0656,19.75 C231.2844,19.4375 231.4875,19.3438 231.7844,19.3438 C232.0813,19.3438 232.3625,19.4844 232.5188,19.75 C232.6125,19.9063 232.6281,20.0313 232.6281,20.4688 L232.6281,21.8906 C232.6281,22.3125 232.5969,22.5 232.4875,22.6563 C232.3156,22.875 232.05,23.0156 231.7844,23.0156 C231.5656,23.0156 231.3313,22.9063 231.1906,22.7656 C231.05,22.6406 231.0188,22.5156 230.9563,22.1094 C230.8625,21.7031 230.6906,21.4844 230.2063,21.2031 C229.7375,20.9531 229.1281,20.7969 228.55,20.7969 C226.8156,20.7969 225.5656,22.1094 225.5656,23.8906 L225.5656,24.9844 C225.5656,26.6875 226.8625,27.7813 228.9094,27.7813 C229.675,27.7813 230.3625,27.6563 230.7844,27.3906 C230.9719,27.2969 230.9719,27.2969 231.425,26.8125 C231.6125,26.625 231.8156,26.5469 232.0344,26.5469 C232.5031,26.5469 232.8938,26.9375 232.8938,27.3906 C232.8938,27.7813 232.5656,28.2344 231.9875,28.6406 C231.2375,29.1875 230.0813,29.4844 228.8625,29.4844 C225.9719,29.4844 223.8625,27.5938 223.8625,25.0156 L223.8625,23.8906 C223.8625,21.1719 225.8625,19.0938 228.4875,19.0938 C229.3625,19.0938 229.9563,19.2344 230.8938,19.6719 Z "/><text fill="#000000" font-family="sans-serif" font-size="12" lengthAdjust="spacingAndGlyphs" textLength="36" x="248.45" y="28.1543">Adres</text><line style="stroke: #A80036; stroke-width: 1.5;" x1="188" x2="313" y1="40" y2="40"/><text fill="#000000" font-family="sans-serif" font-size="11" lengthAdjust="spacingAndGlyphs" textLength="77" x="193" y="54.2104">Straat: String</text><text fill="#000000" font-family="sans-serif" font-size="11" lengthAdjust="spacingAndGlyphs" textLength="115" x="193" y="67.0151">Huisnummer: String</text><line style="stroke: #A80036; stroke-width: 1.5;" x1="188" x2="313" y1="73.6094" y2="73.6094"/><!--class Persoon--><rect fill="#FEFECE" filter="url(#f10lqoftxb0634)" height="86.4141" id="Persoon" style="stroke: #A80036; stroke-width: 1.5;" width="122" x="189.5" y="159"/><ellipse cx="221.6" cy="175" fill="#ADD1B2" rx="11" ry="11" style="stroke: #A80036; stroke-width: 1.0;"/><path d="M223.9438,170.6719 L224.1156,170.75 C224.3344,170.4375 224.5375,170.3438 224.8344,170.3438 C225.1313,170.3438 225.4125,170.4844 225.5688,170.75 C225.6625,170.9063 225.6781,171.0313 225.6781,171.4688 L225.6781,172.8906 C225.6781,173.3125 225.6469,173.5 225.5375,173.6563 C225.3656,173.875 225.1,174.0156 224.8344,174.0156 C224.6156,174.0156 224.3813,173.9063 224.2406,173.7656 C224.1,173.6406 224.0688,173.5156 224.0063,173.1094 C223.9125,172.7031 223.7406,172.4844 223.2563,172.2031 C222.7875,171.9531 222.1781,171.7969 221.6,171.7969 C219.8656,171.7969 218.6156,173.1094 218.6156,174.8906 L218.6156,175.9844 C218.6156,177.6875 219.9125,178.7813 221.9594,178.7813 C222.725,178.7813 223.4125,178.6563 223.8344,178.3906 C224.0219,178.2969 224.0219,178.2969 224.475,177.8125 C224.6625,177.625 224.8656,177.5469 225.0844,177.5469 C225.5531,177.5469 225.9438,177.9375 225.9438,178.3906 C225.9438,178.7813 225.6156,179.2344 225.0375,179.6406 C224.2875,180.1875 223.1313,180.4844 221.9125,180.4844 C219.0219,180.4844 216.9125,178.5938 216.9125,176.0156 L216.9125,174.8906 C216.9125,172.1719 218.9125,170.0938 221.5375,170.0938 C222.4125,170.0938 223.0063,170.2344 223.9438,170.6719 Z "/><text fill="#000000" font-family="sans-serif" font-size="12" lengthAdjust="spacingAndGlyphs" textLength="52" x="239.4" y="179.1543">Persoon</text><line style="stroke: #A80036; stroke-width: 1.5;" x1="190.5" x2="310.5" y1="191" y2="191"/><text fill="#000000" font-family="sans-serif" font-size="11" lengthAdjust="spacingAndGlyphs" textLength="100" x="195.5" y="205.2104">Voornaam: String</text><text fill="#000000" font-family="sans-serif" font-size="11" lengthAdjust="spacingAndGlyphs" textLength="110" x="195.5" y="218.0151">Achternaam: String</text><text fill="#000000" font-family="sans-serif" font-size="11" lengthAdjust="spacingAndGlyphs" textLength="105" x="195.5" y="230.8198">ActiefAdres: Adres</text><line style="stroke: #A80036; stroke-width: 1.5;" x1="190.5" x2="310.5" y1="237.4141" y2="237.4141"/><!--class Docent--><rect fill="#FEFECE" filter="url(#f10lqoftxb0634)" height="99.2188" id="Docent" style="stroke: #A80036; stroke-width: 1.5;" width="207" x="263" y="306"/><ellipse cx="310.75" cy="322" fill="#ADD1B2" rx="11" ry="11" style="stroke: #A80036; stroke-width: 1.0;"/><path d="M313.0938,317.6719 L313.2656,317.75 C313.4844,317.4375 313.6875,317.3438 313.9844,317.3438 C314.2813,317.3438 314.5625,317.4844 314.7188,317.75 C314.8125,317.9063 314.8281,318.0313 314.8281,318.4688 L314.8281,319.8906 C314.8281,320.3125 314.7969,320.5 314.6875,320.6563 C314.5156,320.875 314.25,321.0156 313.9844,321.0156 C313.7656,321.0156 313.5313,320.9063 313.3906,320.7656 C313.25,320.6406 313.2188,320.5156 313.1563,320.1094 C313.0625,319.7031 312.8906,319.4844 312.4063,319.2031 C311.9375,318.9531 311.3281,318.7969 310.75,318.7969 C309.0156,318.7969 307.7656,320.1094 307.7656,321.8906 L307.7656,322.9844 C307.7656,324.6875 309.0625,325.7813 311.1094,325.7813 C311.875,325.7813 312.5625,325.6563 312.9844,325.3906 C313.1719,325.2969 313.1719,325.2969 313.625,324.8125 C313.8125,324.625 314.0156,324.5469 314.2344,324.5469 C314.7031,324.5469 315.0938,324.9375 315.0938,325.3906 C315.0938,325.7813 314.7656,326.2344 314.1875,326.6406 C313.4375,327.1875 312.2813,327.4844 311.0625,327.4844 C308.1719,327.4844 306.0625,325.5938 306.0625,323.0156 L306.0625,321.8906 C306.0625,319.1719 308.0625,317.0938 310.6875,317.0938 C311.5625,317.0938 312.1563,317.2344 313.0938,317.6719 Z "/><text fill="#000000" font-family="sans-serif" font-size="12" lengthAdjust="spacingAndGlyphs" textLength="45" x="331.25" y="326.1543">Docent</text><rect fill="#FFFFFF" height="15.9688" style="stroke: #000000; stroke-width: 1.0; stroke-dasharray: 2.0,2.0;" width="52" x="421" y="303"/><text fill="#000000" font-family="sans-serif" font-size="12" font-style="italic" lengthAdjust="spacingAndGlyphs" textLength="50" x="422" y="315.1387">Persoon</text><line style="stroke: #A80036; stroke-width: 1.5;" x1="264" x2="469" y1="338" y2="338"/><text fill="#000000" font-family="sans-serif" font-size="11" lengthAdjust="spacingAndGlyphs" textLength="144" x="269" y="352.2104">DocentenNummer: String</text><text fill="#000000" font-family="sans-serif" font-size="11" lengthAdjust="spacingAndGlyphs" textLength="100" x="269" y="365.0151">Voornaam: String</text><text fill="#000000" font-family="sans-serif" font-size="11" font-style="italic" lengthAdjust="spacingAndGlyphs" textLength="77" x="377" y="365.0151">from Persoon</text><text fill="#000000" font-family="sans-serif" font-size="11" lengthAdjust="spacingAndGlyphs" textLength="110" x="269" y="377.8198">Achternaam: String</text><text fill="#000000" font-family="sans-serif" font-size="11" font-style="italic" lengthAdjust="spacingAndGlyphs" textLength="77" x="387" y="377.8198">from Persoon</text><text fill="#000000" font-family="sans-serif" font-size="11" lengthAdjust="spacingAndGlyphs" textLength="105" x="269" y="390.6245">ActiefAdres: Adres</text><text fill="#000000" font-family="sans-serif" font-size="11" font-style="italic" lengthAdjust="spacingAndGlyphs" textLength="77" x="382" y="390.6245">from Persoon</text><line style="stroke: #A80036; stroke-width: 1.5;" x1="264" x2="469" y1="397.2188" y2="397.2188"/><!--link Student to Klas--><path d="M109.5,405.394 C109.5,428.17 109.5,454.973 109.5,476.7151 " fill="none" id="Student-Klas" style="stroke: #A80036; stroke-width: 1.0;"/><polygon fill="#A80036" points="109.5,481.8419,113.5,472.8419,109.5,476.8419,105.5,472.8419,109.5,481.8419" style="stroke: #A80036; stroke-width: 1.0;"/><text fill="#000000" font-family="sans-serif" font-size="13" lengthAdjust="spacingAndGlyphs" textLength="77" x="110.5" y="448.0669">List Student</text><text fill="#000000" font-family="sans-serif" font-size="13" lengthAdjust="spacingAndGlyphs" textLength="8" x="100.9625" y="425.1674">1</text><text fill="#000000" font-family="sans-serif" font-size="13" lengthAdjust="spacingAndGlyphs" textLength="16" x="92.075" y="471.0007">32</text><!--link Adres to Student--><path d="M186.699,74.765 C153.282,93.548 115.456,121.578 96.5,159 C74.1958,203.031 81.3522,259.955 91.7381,301.012 " fill="none" id="Adres-Student" style="stroke: #A80036; stroke-width: 1.0;"/><polygon fill="#A80036" points="93.0189,305.938,94.6274,296.2214,91.7617,301.0986,86.8844,298.2329,93.0189,305.938" style="stroke: #A80036; stroke-width: 1.0;"/><text fill="#000000" font-family="sans-serif" font-size="13" lengthAdjust="spacingAndGlyphs" textLength="73" x="97.5" y="206.5669">ActiefAdres</text><!--link Persoon to Student--><path d="M211.224,245.201 C198.084,259.319 183.131,275.386 168.81,290.773 " fill="none" id="Persoon-Student" style="stroke: #A80036; stroke-width: 1.0;"/><polygon fill="none" points="173.541,295.965,154.791,305.837,163.292,286.427,173.541,295.965" style="stroke: #A80036; stroke-width: 1.0;"/><!--link Adres to Docent--><path d="M308.187,82.154 C318.036,90.787 327.129,100.798 333.5,112 C366.603,170.202 371.456,248.64 370.295,300.346 " fill="none" id="Adres-Docent" style="stroke: #A80036; stroke-width: 1.0;"/><polygon fill="#A80036" points="370.155,305.577,374.3927,296.6865,370.2878,300.5788,366.3955,296.4739,370.155,305.577" style="stroke: #A80036; stroke-width: 1.0;"/><text fill="#000000" font-family="sans-serif" font-size="13" lengthAdjust="spacingAndGlyphs" textLength="73" x="369.5" y="206.5669">ActiefAdres</text><!--link Persoon to Docent--><path d="M282.812,245.201 C293.397,259.025 305.412,274.717 316.969,289.81 " fill="none" id="Persoon-Docent" style="stroke: #A80036; stroke-width: 1.0;"/><polygon fill="none" points="322.639,285.701,329.24,305.837,311.523,294.212,322.639,285.701" style="stroke: #A80036; stroke-width: 1.0;"/><!--link Adres to Persoon--><path d="M250.5,82.341 C250.5,103.637 250.5,130.774 250.5,153.72 " fill="none" id="Adres-Persoon" style="stroke: #A80036; stroke-width: 1.0;"/><polygon fill="#A80036" points="250.5,158.85,254.5,149.85,250.5,153.85,246.5,149.85,250.5,158.85" style="stroke: #A80036; stroke-width: 1.0;"/><text fill="#000000" font-family="sans-serif" font-size="13" lengthAdjust="spacingAndGlyphs" textLength="73" x="251.5" y="125.0669">ActiefAdres</text><!--
@startuml
class "Klas" as Klas  {
	Studenten: List Student
===
  <b>api</b>: klas
}
Student "1" - -> "32" Klas : List Student
class "Student " as Student <Persoon> {
	Nummer: String 
	Voornaam: String  <i>from Persoon</i>
	Achternaam: String  <i>from Persoon</i>
	ActiefAdres: Adres  <i>from Persoon</i>
}
Adres - -> Student : ActiefAdres
Persoon - -|> Student
class "Docent " as Docent <Persoon> {
	DocentenNummer: String 
	Voornaam: String  <i>from Persoon</i>
	Achternaam: String  <i>from Persoon</i>
	ActiefAdres: Adres  <i>from Persoon</i>
}
Adres - -> Docent : ActiefAdres
Persoon - -|> Docent
class "Persoon" as Persoon  {
	Voornaam: String 
	Achternaam: String 
	ActiefAdres: Adres 
}
Adres - -> Persoon : ActiefAdres
class "Adres" as Adres  {
	Straat: String 
	Huisnummer: String 
}
@enduml

PlantUML version 1.2019.07beta1(Unknown compile time)
(GPL source distribution)
Java Runtime: Java(TM) SE Runtime Environment
JVM: Java HotSpot(TM) 64-Bit Server VM
Java Version: 1.7.0_25-b15
Operating System: Linux
Default Encoding: UTF-8
Language: en
Country: US
--></g></svg>