<?xml version="1.0" encoding="UTF-8" standalone="no"?><svg xmlns="http://www.w3.org/2000/svg" xmlns:xlink="http://www.w3.org/1999/xlink" contentScriptType="application/ecmascript" contentStyleType="text/css" height="608px" preserveAspectRatio="none" style="width:515px;height:608px;" version="1.1" viewBox="0 0 515 608" width="515px" zoomAndPan="magnify"><defs><filter height="300%" id="fkavbuuskiiro" width="300%" x="-1" y="-1"><feGaussianBlur result="blurOut" stdDeviation="2.0"/><feColorMatrix in="blurOut" result="blurOut2" type="matrix" values="0 0 0 0 0 0 0 0 0 0 0 0 0 0 0 0 0 0 .4 0"/><feOffset dx="4.0" dy="4.0" in="blurOut2" result="blurOut3"/><feBlend in="SourceGraphic" in2="blurOut3" mode="normal"/></filter></defs><g><!--class Klas--><rect fill="#FEFECE" filter="url(#fkavbuuskiiro)" height="86.4141" id="Klas" style="stroke: #A80036; stroke-width: 1.5;" width="146" x="176.723" y="511"/><ellipse cx="232.973" cy="527" fill="#ADD1B2" rx="11" ry="11" style="stroke: #A80036; stroke-width: 1.0;"/><path d="M235.3168,522.6719 L235.4886,522.75 C235.7074,522.4375 235.9105,522.3438 236.2074,522.3438 C236.5043,522.3438 236.7855,522.4844 236.9418,522.75 C237.0355,522.9063 237.0511,523.0313 237.0511,523.4688 L237.0511,524.8906 C237.0511,525.3125 237.0199,525.5 236.9105,525.6563 C236.7386,525.875 236.473,526.0156 236.2074,526.0156 C235.9886,526.0156 235.7543,525.9063 235.6136,525.7656 C235.473,525.6406 235.4418,525.5156 235.3793,525.1094 C235.2855,524.7031 235.1136,524.4844 234.6293,524.2031 C234.1605,523.9531 233.5511,523.7969 232.973,523.7969 C231.2386,523.7969 229.9886,525.1094 229.9886,526.8906 L229.9886,527.9844 C229.9886,529.6875 231.2855,530.7813 233.3324,530.7813 C234.098,530.7813 234.7855,530.6563 235.2074,530.3906 C235.3949,530.2969 235.3949,530.2969 235.848,529.8125 C236.0355,529.625 236.2386,529.5469 236.4574,529.5469 C236.9261,529.5469 237.3168,529.9375 237.3168,530.3906 C237.3168,530.7813 236.9886,531.2344 236.4105,531.6406 C235.6605,532.1875 234.5043,532.4844 233.2855,532.4844 C230.3949,532.4844 228.2855,530.5938 228.2855,528.0156 L228.2855,526.8906 C228.2855,524.1719 230.2855,522.0938 232.9105,522.0938 C233.7855,522.0938 234.3793,522.2344 235.3168,522.6719 Z "/><text fill="#000000" font-family="sans-serif" font-size="12" lengthAdjust="spacingAndGlyphs" textLength="25" x="253.473" y="531.1543">Klas</text><line style="stroke: #A80036; stroke-width: 1.5;" x1="177.723" x2="321.723" y1="543" y2="543"/><text fill="#000000" font-family="sans-serif" font-size="11" lengthAdjust="spacingAndGlyphs" textLength="134" x="182.723" y="557.2104">Studenten: List Student</text><text fill="#000000" font-family="sans-serif" font-size="11" lengthAdjust="spacingAndGlyphs" textLength="124" x="182.723" y="570.0151">Docenten: List Docent</text><line style="stroke: #A80036; stroke-width: 1.0;" x1="177.723" x2="321.723" y1="576.6094" y2="576.6094"/><line style="stroke: #A80036; stroke-width: 1.0;" x1="177.723" x2="321.723" y1="578.6094" y2="578.6094"/><text fill="#000000" font-family="sans-serif" font-size="11" font-weight="bold" lengthAdjust="spacingAndGlyphs" textLength="20" x="182.723" y="590.8198">api</text><text fill="#000000" font-family="sans-serif" font-size="11" lengthAdjust="spacingAndGlyphs" textLength="31" x="202.723" y="590.8198">: klas</text><!--class Student--><rect fill="#FEFECE" filter="url(#fkavbuuskiiro)" height="112.0234" id="Student" style="stroke: #A80036; stroke-width: 1.5;" width="207" x="10.2234" y="322"/><ellipse cx="57.4734" cy="338" fill="#ADD1B2" rx="11" ry="11" style="stroke: #A80036; stroke-width: 1.0;"/><path d="M59.8172,333.6719 L59.9891,333.75 C60.2078,333.4375 60.4109,333.3438 60.7078,333.3438 C61.0047,333.3438 61.2859,333.4844 61.4422,333.75 C61.5359,333.9063 61.5516,334.0313 61.5516,334.4688 L61.5516,335.8906 C61.5516,336.3125 61.5203,336.5 61.4109,336.6563 C61.2391,336.875 60.9734,337.0156 60.7078,337.0156 C60.4891,337.0156 60.2547,336.9063 60.1141,336.7656 C59.9734,336.6406 59.9422,336.5156 59.8797,336.1094 C59.7859,335.7031 59.6141,335.4844 59.1297,335.2031 C58.6609,334.9531 58.0516,334.7969 57.4734,334.7969 C55.7391,334.7969 54.4891,336.1094 54.4891,337.8906 L54.4891,338.9844 C54.4891,340.6875 55.7859,341.7813 57.8328,341.7813 C58.5984,341.7813 59.2859,341.6563 59.7078,341.3906 C59.8953,341.2969 59.8953,341.2969 60.3484,340.8125 C60.5359,340.625 60.7391,340.5469 60.9578,340.5469 C61.4266,340.5469 61.8172,340.9375 61.8172,341.3906 C61.8172,341.7813 61.4891,342.2344 60.9109,342.6406 C60.1609,343.1875 59.0047,343.4844 57.7859,343.4844 C54.8953,343.4844 52.7859,341.5938 52.7859,339.0156 L52.7859,337.8906 C52.7859,335.1719 54.7859,333.0938 57.4109,333.0938 C58.2859,333.0938 58.8797,333.2344 59.8172,333.6719 Z "/><text fill="#000000" font-family="sans-serif" font-size="12" lengthAdjust="spacingAndGlyphs" textLength="50" x="77.9734" y="342.1543">Student</text><rect fill="#FFFFFF" height="15.9688" style="stroke: #000000; stroke-width: 1.0; stroke-dasharray: 2.0,2.0;" width="52" x="168.2234" y="319"/><text fill="#000000" font-family="sans-serif" font-size="12" font-style="italic" lengthAdjust="spacingAndGlyphs" textLength="50" x="169.2234" y="331.1387">Persoon</text><line style="stroke: #A80036; stroke-width: 1.5;" x1="11.2234" x2="216.2234" y1="354" y2="354"/><text fill="#000000" font-family="sans-serif" font-size="11" lengthAdjust="spacingAndGlyphs" textLength="91" x="16.2234" y="368.2104">Nummer: String</text><text fill="#000000" font-family="sans-serif" font-size="11" lengthAdjust="spacingAndGlyphs" textLength="122" x="16.2234" y="381.0151">HeeftVakken: List Vak</text><text fill="#000000" font-family="sans-serif" font-size="11" lengthAdjust="spacingAndGlyphs" textLength="100" x="16.2234" y="393.8198">Voornaam: String</text><text fill="#000000" font-family="sans-serif" font-size="11" font-style="italic" lengthAdjust="spacingAndGlyphs" textLength="77" x="124.2234" y="393.8198">from Persoon</text><text fill="#000000" font-family="sans-serif" font-size="11" lengthAdjust="spacingAndGlyphs" textLength="110" x="16.2234" y="406.6245">Achternaam: String</text><text fill="#000000" font-family="sans-serif" font-size="11" font-style="italic" lengthAdjust="spacingAndGlyphs" textLength="77" x="134.2234" y="406.6245">from Persoon</text><text fill="#000000" font-family="sans-serif" font-size="11" lengthAdjust="spacingAndGlyphs" textLength="105" x="16.2234" y="419.4292">ActiefAdres: Adres</text><text fill="#000000" font-family="sans-serif" font-size="11" font-style="italic" lengthAdjust="spacingAndGlyphs" textLength="77" x="129.2234" y="419.4292">from Persoon</text><line style="stroke: #A80036; stroke-width: 1.5;" x1="11.2234" x2="216.2234" y1="426.0234" y2="426.0234"/><!--class Docent--><rect fill="#FEFECE" filter="url(#fkavbuuskiiro)" height="112.0234" id="Docent" style="stroke: #A80036; stroke-width: 1.5;" width="207" x="252.223" y="322"/><ellipse cx="301.973" cy="338" fill="#ADD1B2" rx="11" ry="11" style="stroke: #A80036; stroke-width: 1.0;"/><path d="M304.3168,333.6719 L304.4886,333.75 C304.7074,333.4375 304.9105,333.3438 305.2074,333.3438 C305.5043,333.3438 305.7855,333.4844 305.9418,333.75 C306.0355,333.9063 306.0511,334.0313 306.0511,334.4688 L306.0511,335.8906 C306.0511,336.3125 306.0199,336.5 305.9105,336.6563 C305.7386,336.875 305.473,337.0156 305.2074,337.0156 C304.9886,337.0156 304.7543,336.9063 304.6136,336.7656 C304.473,336.6406 304.4418,336.5156 304.3793,336.1094 C304.2855,335.7031 304.1136,335.4844 303.6293,335.2031 C303.1605,334.9531 302.5511,334.7969 301.973,334.7969 C300.2386,334.7969 298.9886,336.1094 298.9886,337.8906 L298.9886,338.9844 C298.9886,340.6875 300.2855,341.7813 302.3324,341.7813 C303.098,341.7813 303.7855,341.6563 304.2074,341.3906 C304.3949,341.2969 304.3949,341.2969 304.848,340.8125 C305.0355,340.625 305.2386,340.5469 305.4574,340.5469 C305.9261,340.5469 306.3168,340.9375 306.3168,341.3906 C306.3168,341.7813 305.9886,342.2344 305.4105,342.6406 C304.6605,343.1875 303.5043,343.4844 302.2855,343.4844 C299.3949,343.4844 297.2855,341.5938 297.2855,339.0156 L297.2855,337.8906 C297.2855,335.1719 299.2855,333.0938 301.9105,333.0938 C302.7855,333.0938 303.3793,333.2344 304.3168,333.6719 Z "/><text fill="#000000" font-family="sans-serif" font-size="12" lengthAdjust="spacingAndGlyphs" textLength="45" x="322.473" y="342.1543">Docent</text><rect fill="#FFFFFF" height="15.9688" style="stroke: #000000; stroke-width: 1.0; stroke-dasharray: 2.0,2.0;" width="52" x="410.223" y="319"/><text fill="#000000" font-family="sans-serif" font-size="12" font-style="italic" lengthAdjust="spacingAndGlyphs" textLength="50" x="411.223" y="331.1387">Persoon</text><line style="stroke: #A80036; stroke-width: 1.5;" x1="253.223" x2="458.223" y1="354" y2="354"/><text fill="#000000" font-family="sans-serif" font-size="11" lengthAdjust="spacingAndGlyphs" textLength="144" x="258.223" y="368.2104">DocentenNummer: String</text><text fill="#000000" font-family="sans-serif" font-size="11" lengthAdjust="spacingAndGlyphs" textLength="127" x="258.223" y="381.0151">BevoegdVoor: List Vak</text><text fill="#000000" font-family="sans-serif" font-size="11" lengthAdjust="spacingAndGlyphs" textLength="100" x="258.223" y="393.8198">Voornaam: String</text><text fill="#000000" font-family="sans-serif" font-size="11" font-style="italic" lengthAdjust="spacingAndGlyphs" textLength="77" x="366.223" y="393.8198">from Persoon</text><text fill="#000000" font-family="sans-serif" font-size="11" lengthAdjust="spacingAndGlyphs" textLength="110" x="258.223" y="406.6245">Achternaam: String</text><text fill="#000000" font-family="sans-serif" font-size="11" font-style="italic" lengthAdjust="spacingAndGlyphs" textLength="77" x="376.223" y="406.6245">from Persoon</text><text fill="#000000" font-family="sans-serif" font-size="11" lengthAdjust="spacingAndGlyphs" textLength="105" x="258.223" y="419.4292">ActiefAdres: Adres</text><text fill="#000000" font-family="sans-serif" font-size="11" font-style="italic" lengthAdjust="spacingAndGlyphs" textLength="77" x="371.223" y="419.4292">from Persoon</text><line style="stroke: #A80036; stroke-width: 1.5;" x1="253.223" x2="458.223" y1="426.0234" y2="426.0234"/><!--class Adres--><rect fill="#FEFECE" filter="url(#fkavbuuskiiro)" height="73.6094" id="Adres" style="stroke: #A80036; stroke-width: 1.5;" width="127" x="106.223" y="8"/><ellipse cx="147.773" cy="24" fill="#ADD1B2" rx="11" ry="11" style="stroke: #A80036; stroke-width: 1.0;"/><path d="M150.1168,19.6719 L150.2886,19.75 C150.5074,19.4375 150.7105,19.3438 151.0074,19.3438 C151.3043,19.3438 151.5855,19.4844 151.7418,19.75 C151.8355,19.9063 151.8511,20.0313 151.8511,20.4688 L151.8511,21.8906 C151.8511,22.3125 151.8199,22.5 151.7105,22.6563 C151.5386,22.875 151.273,23.0156 151.0074,23.0156 C150.7886,23.0156 150.5543,22.9063 150.4136,22.7656 C150.273,22.6406 150.2418,22.5156 150.1793,22.1094 C150.0855,21.7031 149.9136,21.4844 149.4293,21.2031 C148.9605,20.9531 148.3511,20.7969 147.773,20.7969 C146.0386,20.7969 144.7886,22.1094 144.7886,23.8906 L144.7886,24.9844 C144.7886,26.6875 146.0855,27.7813 148.1324,27.7813 C148.898,27.7813 149.5855,27.6563 150.0074,27.3906 C150.1949,27.2969 150.1949,27.2969 150.648,26.8125 C150.8355,26.625 151.0386,26.5469 151.2574,26.5469 C151.7261,26.5469 152.1168,26.9375 152.1168,27.3906 C152.1168,27.7813 151.7886,28.2344 151.2105,28.6406 C150.4605,29.1875 149.3043,29.4844 148.0855,29.4844 C145.1949,29.4844 143.0855,27.5938 143.0855,25.0156 L143.0855,23.8906 C143.0855,21.1719 145.0855,19.0938 147.7105,19.0938 C148.5855,19.0938 149.1793,19.2344 150.1168,19.6719 Z "/><text fill="#000000" font-family="sans-serif" font-size="12" lengthAdjust="spacingAndGlyphs" textLength="36" x="167.673" y="28.1543">Adres</text><line style="stroke: #A80036; stroke-width: 1.5;" x1="107.223" x2="232.223" y1="40" y2="40"/><text fill="#000000" font-family="sans-serif" font-size="11" lengthAdjust="spacingAndGlyphs" textLength="77" x="112.223" y="54.2104">Straat: String</text><text fill="#000000" font-family="sans-serif" font-size="11" lengthAdjust="spacingAndGlyphs" textLength="115" x="112.223" y="67.0151">Huisnummer: String</text><line style="stroke: #A80036; stroke-width: 1.5;" x1="107.223" x2="232.223" y1="73.6094" y2="73.6094"/><!--class Vak--><rect fill="#FEFECE" filter="url(#fkavbuuskiiro)" height="73.6094" id="Vak" style="stroke: #A80036; stroke-width: 1.5;" width="132" x="265.723" y="165"/><ellipse cx="315.973" cy="181" fill="#ADD1B2" rx="11" ry="11" style="stroke: #A80036; stroke-width: 1.0;"/><path d="M318.3168,176.6719 L318.4886,176.75 C318.7074,176.4375 318.9105,176.3438 319.2074,176.3438 C319.5043,176.3438 319.7855,176.4844 319.9418,176.75 C320.0355,176.9063 320.0511,177.0313 320.0511,177.4688 L320.0511,178.8906 C320.0511,179.3125 320.0199,179.5 319.9105,179.6563 C319.7386,179.875 319.473,180.0156 319.2074,180.0156 C318.9886,180.0156 318.7543,179.9063 318.6136,179.7656 C318.473,179.6406 318.4418,179.5156 318.3793,179.1094 C318.2855,178.7031 318.1136,178.4844 317.6293,178.2031 C317.1605,177.9531 316.5511,177.7969 315.973,177.7969 C314.2386,177.7969 312.9886,179.1094 312.9886,180.8906 L312.9886,181.9844 C312.9886,183.6875 314.2855,184.7813 316.3324,184.7813 C317.098,184.7813 317.7855,184.6563 318.2074,184.3906 C318.3949,184.2969 318.3949,184.2969 318.848,183.8125 C319.0355,183.625 319.2386,183.5469 319.4574,183.5469 C319.9261,183.5469 320.3168,183.9375 320.3168,184.3906 C320.3168,184.7813 319.9886,185.2344 319.4105,185.6406 C318.6605,186.1875 317.5043,186.4844 316.2855,186.4844 C313.3949,186.4844 311.2855,184.5938 311.2855,182.0156 L311.2855,180.8906 C311.2855,178.1719 313.2855,176.0938 315.9105,176.0938 C316.7855,176.0938 317.3793,176.2344 318.3168,176.6719 Z "/><text fill="#000000" font-family="sans-serif" font-size="12" lengthAdjust="spacingAndGlyphs" textLength="23" x="336.473" y="185.1543">Vak</text><line style="stroke: #A80036; stroke-width: 1.5;" x1="266.723" x2="396.723" y1="197" y2="197"/><text fill="#000000" font-family="sans-serif" font-size="11" lengthAdjust="spacingAndGlyphs" textLength="75" x="271.723" y="211.2104">Naam: String</text><text fill="#000000" font-family="sans-serif" font-size="11" lengthAdjust="spacingAndGlyphs" textLength="120" x="271.723" y="224.0151">IsBelangrijk: Boolean</text><line style="stroke: #A80036; stroke-width: 1.5;" x1="266.723" x2="396.723" y1="230.6094" y2="230.6094"/><!--class Persoon--><rect fill="#FEFECE" filter="url(#fkavbuuskiiro)" height="86.4141" id="Persoon" style="stroke: #A80036; stroke-width: 1.5;" width="122" x="108.723" y="159"/><ellipse cx="140.823" cy="175" fill="#ADD1B2" rx="11" ry="11" style="stroke: #A80036; stroke-width: 1.0;"/><path d="M143.1668,170.6719 L143.3386,170.75 C143.5574,170.4375 143.7605,170.3438 144.0574,170.3438 C144.3543,170.3438 144.6355,170.4844 144.7918,170.75 C144.8855,170.9063 144.9011,171.0313 144.9011,171.4688 L144.9011,172.8906 C144.9011,173.3125 144.8699,173.5 144.7605,173.6563 C144.5886,173.875 144.323,174.0156 144.0574,174.0156 C143.8386,174.0156 143.6043,173.9063 143.4636,173.7656 C143.323,173.6406 143.2918,173.5156 143.2293,173.1094 C143.1355,172.7031 142.9636,172.4844 142.4793,172.2031 C142.0105,171.9531 141.4011,171.7969 140.823,171.7969 C139.0886,171.7969 137.8386,173.1094 137.8386,174.8906 L137.8386,175.9844 C137.8386,177.6875 139.1355,178.7813 141.1824,178.7813 C141.948,178.7813 142.6355,178.6563 143.0574,178.3906 C143.2449,178.2969 143.2449,178.2969 143.698,177.8125 C143.8855,177.625 144.0886,177.5469 144.3074,177.5469 C144.7761,177.5469 145.1668,177.9375 145.1668,178.3906 C145.1668,178.7813 144.8386,179.2344 144.2605,179.6406 C143.5105,180.1875 142.3543,180.4844 141.1355,180.4844 C138.2449,180.4844 136.1355,178.5938 136.1355,176.0156 L136.1355,174.8906 C136.1355,172.1719 138.1355,170.0938 140.7605,170.0938 C141.6355,170.0938 142.2293,170.2344 143.1668,170.6719 Z "/><text fill="#000000" font-family="sans-serif" font-size="12" lengthAdjust="spacingAndGlyphs" textLength="52" x="158.623" y="179.1543">Persoon</text><line style="stroke: #A80036; stroke-width: 1.5;" x1="109.723" x2="229.723" y1="191" y2="191"/><text fill="#000000" font-family="sans-serif" font-size="11" lengthAdjust="spacingAndGlyphs" textLength="100" x="114.723" y="205.2104">Voornaam: String</text><text fill="#000000" font-family="sans-serif" font-size="11" lengthAdjust="spacingAndGlyphs" textLength="110" x="114.723" y="218.0151">Achternaam: String</text><text fill="#000000" font-family="sans-serif" font-size="11" lengthAdjust="spacingAndGlyphs" textLength="105" x="114.723" y="230.8198">ActiefAdres: Adres</text><line style="stroke: #A80036; stroke-width: 1.5;" x1="109.723" x2="229.723" y1="237.4141" y2="237.4141"/><!--link Student to Klas--><path d="M156.755,434.055 C175.07,457.487 196.191,484.51 213.669,506.8712 " fill="none" id="Student-Klas" style="stroke: #A80036; stroke-width: 1.0;"/><polygon fill="#A80036" points="216.888,510.9904,214.4978,501.436,213.8091,507.0508,208.1944,506.3622,216.888,510.9904" style="stroke: #A80036; stroke-width: 1.0;"/><text fill="#000000" font-family="sans-serif" font-size="13" lengthAdjust="spacingAndGlyphs" textLength="77" x="190.723" y="477.0669">List Student</text><text fill="#000000" font-family="sans-serif" font-size="13" lengthAdjust="spacingAndGlyphs" textLength="32" x="128.2184" y="454.2719">1..32</text><text fill="#000000" font-family="sans-serif" font-size="13" lengthAdjust="spacingAndGlyphs" textLength="8" x="203.0174" y="499.9845">1</text><!--link Docent to Klas--><path d="M322.184,434.055 C307.969,457.39 291.584,484.286 277.995,506.5926 " fill="none" id="Docent-Klas" style="stroke: #A80036; stroke-width: 1.0;"/><polygon fill="#A80036" points="275.316,510.9904,283.4144,505.3854,277.9173,506.7204,276.5823,501.2233,275.316,510.9904" style="stroke: #A80036; stroke-width: 1.0;"/><text fill="#000000" font-family="sans-serif" font-size="13" lengthAdjust="spacingAndGlyphs" textLength="72" x="303.723" y="477.0669">List Docent</text><text fill="#000000" font-family="sans-serif" font-size="13" lengthAdjust="spacingAndGlyphs" textLength="32" x="283.8368" y="454.2719">7..25</text><text fill="#000000" font-family="sans-serif" font-size="13" lengthAdjust="spacingAndGlyphs" textLength="8" x="270.7574" y="499.9845">1</text><!--link Adres to Student--><path d="M105.9225,74.765 C72.505,93.548 34.6799,121.578 15.7234,159 C-11.0336,211.821 22.4855,273.488 57.3986,317.729 " fill="none" id="Adres-Student" style="stroke: #A80036; stroke-width: 1.0;"/><polygon fill="#A80036" points="60.5619,321.686,58.0676,312.1582,57.4403,317.7802,51.8183,317.1528,60.5619,321.686" style="stroke: #A80036; stroke-width: 1.0;"/><text fill="#000000" font-family="sans-serif" font-size="13" lengthAdjust="spacingAndGlyphs" textLength="73" x="16.7234" y="206.5669">ActiefAdres</text><!--link Vak to Student--><path d="M286.554,239.053 C257.792,262.01 219.874,292.274 186.885,318.605 " fill="none" id="Vak-Student" style="stroke: #A80036; stroke-width: 1.0;"/><polygon fill="#A80036" points="182.887,321.796,192.4163,319.3074,186.7947,318.6767,187.4254,313.0551,182.887,321.796" style="stroke: #A80036; stroke-width: 1.0;"/><text fill="#000000" font-family="sans-serif" font-size="13" lengthAdjust="spacingAndGlyphs" textLength="50" x="236.723" y="288.0669">List Vak</text><text fill="#000000" font-family="sans-serif" font-size="13" lengthAdjust="spacingAndGlyphs" textLength="32" x="244.4229" y="258.5423">7..13</text><text fill="#000000" font-family="sans-serif" font-size="13" lengthAdjust="spacingAndGlyphs" textLength="8" x="182.8288" y="311.1056">1</text><!--link Persoon to Student--><path d="M150.022,264.217 C143.989,282.96 137.392,303.458 131.496,321.777 " fill="none" id="Persoon-Student" style="stroke: #A80036; stroke-width: 1.0;"/><polygon fill="none" points="143.377,262.014,156.167,245.121,156.703,266.303,143.377,262.014" style="stroke: #A80036; stroke-width: 1.0;"/><!--link Adres to Docent--><path d="M233.491,55.697 C292.132,68.364 375.836,96.783 415.723,159 C446.612,207.181 422.856,271.19 396.679,317.372 " fill="none" id="Adres-Docent" style="stroke: #A80036; stroke-width: 1.0;"/><polygon fill="#A80036" points="394.14,321.784,402.0945,315.9766,396.6328,317.4497,395.1597,311.9881,394.14,321.784" style="stroke: #A80036; stroke-width: 1.0;"/><text fill="#000000" font-family="sans-serif" font-size="13" lengthAdjust="spacingAndGlyphs" textLength="73" x="430.723" y="206.5669">ActiefAdres</text><!--link Vak to Docent--><path d="M336.696,239.053 C339.786,261.45 343.834,290.802 347.402,316.672 " fill="none" id="Vak-Docent" style="stroke: #A80036; stroke-width: 1.0;"/><polygon fill="#A80036" points="348.109,321.796,350.8423,312.334,347.4261,316.8429,342.9173,313.4267,348.109,321.796" style="stroke: #A80036; stroke-width: 1.0;"/><text fill="#000000" font-family="sans-serif" font-size="13" lengthAdjust="spacingAndGlyphs" textLength="50" x="344.723" y="288.0669">List Vak</text><text fill="#000000" font-family="sans-serif" font-size="13" lengthAdjust="spacingAndGlyphs" textLength="32" x="302.8697" y="258.5423">1..20</text><text fill="#000000" font-family="sans-serif" font-size="13" lengthAdjust="spacingAndGlyphs" textLength="8" x="338.6935" y="311.1056">1</text><!--link Persoon to Docent--><path d="M181.483,264.721 C185.239,274.525 190.192,284.041 196.723,292 C205.51,302.707 227.224,316.169 251.877,329.203 " fill="none" id="Persoon-Docent" style="stroke: #A80036; stroke-width: 1.0;"/><polygon fill="none" points="174.678,266.407,175.487,245.232,188.059,262.289,174.678,266.407" style="stroke: #A80036; stroke-width: 1.0;"/><!--link Adres to Persoon--><path d="M169.723,82.341 C169.723,103.637 169.723,130.774 169.723,153.72 " fill="none" id="Adres-Persoon" style="stroke: #A80036; stroke-width: 1.0;"/><polygon fill="#A80036" points="169.723,158.85,173.723,149.85,169.723,153.85,165.723,149.85,169.723,158.85" style="stroke: #A80036; stroke-width: 1.0;"/><text fill="#000000" font-family="sans-serif" font-size="13" lengthAdjust="spacingAndGlyphs" textLength="73" x="170.723" y="125.0669">ActiefAdres</text><!--
@startuml
class "Klas" as Klas  {
	Studenten: List Student
	Docenten: List Docent
===
  <b>api</b>: klas
}
Student "1..32" - -> "1" Klas : List Student
Docent "7..25" - -> "1" Klas : List Docent
class "Student " as Student <Persoon> {
	Nummer: String 
	HeeftVakken: List Vak
	Voornaam: String  <i>from Persoon</i>
	Achternaam: String  <i>from Persoon</i>
	ActiefAdres: Adres  <i>from Persoon</i>
}
Adres - -> Student : ActiefAdres
Vak "7..13" - -> "1" Student : List Vak
Persoon <|- - Student
class "Docent " as Docent <Persoon> {
	DocentenNummer: String 
	BevoegdVoor: List Vak
	Voornaam: String  <i>from Persoon</i>
	Achternaam: String  <i>from Persoon</i>
	ActiefAdres: Adres  <i>from Persoon</i>
}
Adres - -> Docent : ActiefAdres
Vak "1..20" - -> "1" Docent : List Vak
Persoon <|- - Docent
class "Persoon" as Persoon  {
	Voornaam: String 
	Achternaam: String 
	ActiefAdres: Adres 
}
Adres - -> Persoon : ActiefAdres
class "Adres" as Adres  {
	Straat: String 
	Huisnummer: String 
}
class "Vak" as Vak  {
	Naam: String 
	IsBelangrijk: Boolean 
}
@enduml

PlantUML version 1.2019.07beta1(Unknown compile time)
(GPL source distribution)
Java Runtime: Java(TM) SE Runtime Environment
JVM: Java HotSpot(TM) 64-Bit Server VM
Java Version: 1.7.0_25-b15
Operating System: Linux
Default Encoding: UTF-8
Language: en
Country: US
--></g></svg>