<?xml version="1.0" encoding="UTF-8" standalone="no"?><svg xmlns="http://www.w3.org/2000/svg" xmlns:xlink="http://www.w3.org/1999/xlink" contentScriptType="application/ecmascript" contentStyleType="text/css" height="621px" preserveAspectRatio="none" style="width:517px;height:621px;" version="1.1" viewBox="0 0 517 621" width="517px" zoomAndPan="magnify"><defs><filter height="300%" id="f1myv8kq1chl91" width="300%" x="-1" y="-1"><feGaussianBlur result="blurOut" stdDeviation="2.0"/><feColorMatrix in="blurOut" result="blurOut2" type="matrix" values="0 0 0 0 0 0 0 0 0 0 0 0 0 0 0 0 0 0 .4 0"/><feOffset dx="4.0" dy="4.0" in="blurOut2" result="blurOut3"/><feBlend in="SourceGraphic" in2="blurOut3" mode="normal"/></filter></defs><g><!--class Klas--><rect fill="#FEFECE" filter="url(#f1myv8kq1chl91)" height="86.4141" id="Klas" style="stroke: #A80036; stroke-width: 1.5;" width="146" x="177.201" y="524"/><ellipse cx="233.451" cy="540" fill="#ADD1B2" rx="11" ry="11" style="stroke: #A80036; stroke-width: 1.0;"/><path d="M235.7948,535.6719 L235.9666,535.75 C236.1854,535.4375 236.3885,535.3438 236.6854,535.3438 C236.9823,535.3438 237.2635,535.4844 237.4198,535.75 C237.5135,535.9063 237.5291,536.0313 237.5291,536.4688 L237.5291,537.8906 C237.5291,538.3125 237.4979,538.5 237.3885,538.6563 C237.2166,538.875 236.951,539.0156 236.6854,539.0156 C236.4666,539.0156 236.2323,538.9063 236.0916,538.7656 C235.951,538.6406 235.9198,538.5156 235.8573,538.1094 C235.7635,537.7031 235.5916,537.4844 235.1073,537.2031 C234.6385,536.9531 234.0291,536.7969 233.451,536.7969 C231.7166,536.7969 230.4666,538.1094 230.4666,539.8906 L230.4666,540.9844 C230.4666,542.6875 231.7635,543.7813 233.8104,543.7813 C234.576,543.7813 235.2635,543.6563 235.6854,543.3906 C235.8729,543.2969 235.8729,543.2969 236.326,542.8125 C236.5135,542.625 236.7166,542.5469 236.9354,542.5469 C237.4041,542.5469 237.7948,542.9375 237.7948,543.3906 C237.7948,543.7813 237.4666,544.2344 236.8885,544.6406 C236.1385,545.1875 234.9823,545.4844 233.7635,545.4844 C230.8729,545.4844 228.7635,543.5938 228.7635,541.0156 L228.7635,539.8906 C228.7635,537.1719 230.7635,535.0938 233.3885,535.0938 C234.2635,535.0938 234.8573,535.2344 235.7948,535.6719 Z "/><text fill="#000000" font-family="sans-serif" font-size="12" lengthAdjust="spacingAndGlyphs" textLength="25" x="253.951" y="544.1543">Klas</text><line style="stroke: #A80036; stroke-width: 1.5;" x1="178.201" x2="322.201" y1="556" y2="556"/><text fill="#000000" font-family="sans-serif" font-size="11" lengthAdjust="spacingAndGlyphs" textLength="134" x="183.201" y="570.2104">Studenten: List Student</text><text fill="#000000" font-family="sans-serif" font-size="11" lengthAdjust="spacingAndGlyphs" textLength="124" x="183.201" y="583.0151">Docenten: List Docent</text><line style="stroke: #A80036; stroke-width: 1.0;" x1="178.201" x2="322.201" y1="589.6094" y2="589.6094"/><line style="stroke: #A80036; stroke-width: 1.0;" x1="178.201" x2="322.201" y1="591.6094" y2="591.6094"/><text fill="#000000" font-family="sans-serif" font-size="11" font-weight="bold" lengthAdjust="spacingAndGlyphs" textLength="20" x="183.201" y="603.8198">api</text><text fill="#000000" font-family="sans-serif" font-size="11" lengthAdjust="spacingAndGlyphs" textLength="31" x="203.201" y="603.8198">: klas</text><!--class Student--><rect fill="#FEFECE" filter="url(#f1myv8kq1chl91)" height="124.8281" id="Student" style="stroke: #A80036; stroke-width: 1.5;" width="207" x="10.7011" y="322"/><ellipse cx="57.9511" cy="338" fill="#ADD1B2" rx="11" ry="11" style="stroke: #A80036; stroke-width: 1.0;"/><path d="M60.2949,333.6719 L60.4667,333.75 C60.6855,333.4375 60.8886,333.3438 61.1855,333.3438 C61.4824,333.3438 61.7636,333.4844 61.9199,333.75 C62.0136,333.9063 62.0292,334.0313 62.0292,334.4688 L62.0292,335.8906 C62.0292,336.3125 61.998,336.5 61.8886,336.6563 C61.7167,336.875 61.4511,337.0156 61.1855,337.0156 C60.9667,337.0156 60.7324,336.9063 60.5917,336.7656 C60.4511,336.6406 60.4199,336.5156 60.3574,336.1094 C60.2636,335.7031 60.0917,335.4844 59.6074,335.2031 C59.1386,334.9531 58.5292,334.7969 57.9511,334.7969 C56.2167,334.7969 54.9667,336.1094 54.9667,337.8906 L54.9667,338.9844 C54.9667,340.6875 56.2636,341.7813 58.3105,341.7813 C59.0761,341.7813 59.7636,341.6563 60.1855,341.3906 C60.373,341.2969 60.373,341.2969 60.8261,340.8125 C61.0136,340.625 61.2167,340.5469 61.4355,340.5469 C61.9042,340.5469 62.2949,340.9375 62.2949,341.3906 C62.2949,341.7813 61.9667,342.2344 61.3886,342.6406 C60.6386,343.1875 59.4824,343.4844 58.2636,343.4844 C55.373,343.4844 53.2636,341.5938 53.2636,339.0156 L53.2636,337.8906 C53.2636,335.1719 55.2636,333.0938 57.8886,333.0938 C58.7636,333.0938 59.3574,333.2344 60.2949,333.6719 Z "/><text fill="#000000" font-family="sans-serif" font-size="12" lengthAdjust="spacingAndGlyphs" textLength="50" x="78.4511" y="342.1543">Student</text><rect fill="#FFFFFF" height="15.9688" style="stroke: #000000; stroke-width: 1.0; stroke-dasharray: 2.0,2.0;" width="52" x="168.7011" y="319"/><text fill="#000000" font-family="sans-serif" font-size="12" font-style="italic" lengthAdjust="spacingAndGlyphs" textLength="50" x="169.7011" y="331.1387">Persoon</text><line style="stroke: #A80036; stroke-width: 1.5;" x1="11.7011" x2="216.7011" y1="354" y2="354"/><text fill="#000000" font-family="sans-serif" font-size="11" lengthAdjust="spacingAndGlyphs" textLength="91" x="16.7011" y="368.2104">Nummer: String</text><text fill="#000000" font-family="sans-serif" font-size="11" lengthAdjust="spacingAndGlyphs" textLength="122" x="16.7011" y="381.0151">HeeftVakken: List Vak</text><text fill="#000000" font-family="sans-serif" font-size="11" lengthAdjust="spacingAndGlyphs" textLength="100" x="16.7011" y="393.8198">Voornaam: String</text><text fill="#000000" font-family="sans-serif" font-size="11" font-style="italic" lengthAdjust="spacingAndGlyphs" textLength="77" x="124.7011" y="393.8198">from Persoon</text><text fill="#000000" font-family="sans-serif" font-size="11" lengthAdjust="spacingAndGlyphs" textLength="110" x="16.7011" y="406.6245">Achternaam: String</text><text fill="#000000" font-family="sans-serif" font-size="11" font-style="italic" lengthAdjust="spacingAndGlyphs" textLength="77" x="134.7011" y="406.6245">from Persoon</text><text fill="#000000" font-family="sans-serif" font-size="11" lengthAdjust="spacingAndGlyphs" textLength="105" x="16.7011" y="419.4292">ActiefAdres: Adres</text><text fill="#000000" font-family="sans-serif" font-size="11" font-style="italic" lengthAdjust="spacingAndGlyphs" textLength="77" x="129.7011" y="419.4292">from Persoon</text><line style="stroke: #A80036; stroke-width: 1.0;" x1="11.7011" x2="216.7011" y1="426.0234" y2="426.0234"/><line style="stroke: #A80036; stroke-width: 1.0;" x1="11.7011" x2="216.7011" y1="428.0234" y2="428.0234"/><text fill="#000000" font-family="sans-serif" font-size="11" font-weight="bold" lengthAdjust="spacingAndGlyphs" textLength="20" x="16.7011" y="440.2339">api</text><text fill="#000000" font-family="sans-serif" font-size="11" lengthAdjust="spacingAndGlyphs" textLength="51" x="36.7011" y="440.2339">: student</text><!--class Docent--><rect fill="#FEFECE" filter="url(#f1myv8kq1chl91)" height="112.0234" id="Docent" style="stroke: #A80036; stroke-width: 1.5;" width="207" x="252.701" y="328.5"/><ellipse cx="302.451" cy="344.5" fill="#ADD1B2" rx="11" ry="11" style="stroke: #A80036; stroke-width: 1.0;"/><path d="M304.7948,340.1719 L304.9666,340.25 C305.1854,339.9375 305.3885,339.8438 305.6854,339.8438 C305.9823,339.8438 306.2635,339.9844 306.4198,340.25 C306.5135,340.4063 306.5291,340.5313 306.5291,340.9688 L306.5291,342.3906 C306.5291,342.8125 306.4979,343 306.3885,343.1563 C306.2166,343.375 305.951,343.5156 305.6854,343.5156 C305.4666,343.5156 305.2323,343.4063 305.0916,343.2656 C304.951,343.1406 304.9198,343.0156 304.8573,342.6094 C304.7635,342.2031 304.5916,341.9844 304.1073,341.7031 C303.6385,341.4531 303.0291,341.2969 302.451,341.2969 C300.7166,341.2969 299.4666,342.6094 299.4666,344.3906 L299.4666,345.4844 C299.4666,347.1875 300.7635,348.2813 302.8104,348.2813 C303.576,348.2813 304.2635,348.1563 304.6854,347.8906 C304.8729,347.7969 304.8729,347.7969 305.326,347.3125 C305.5135,347.125 305.7166,347.0469 305.9354,347.0469 C306.4041,347.0469 306.7948,347.4375 306.7948,347.8906 C306.7948,348.2813 306.4666,348.7344 305.8885,349.1406 C305.1385,349.6875 303.9823,349.9844 302.7635,349.9844 C299.8729,349.9844 297.7635,348.0938 297.7635,345.5156 L297.7635,344.3906 C297.7635,341.6719 299.7635,339.5938 302.3885,339.5938 C303.2635,339.5938 303.8573,339.7344 304.7948,340.1719 Z "/><text fill="#000000" font-family="sans-serif" font-size="12" lengthAdjust="spacingAndGlyphs" textLength="45" x="322.951" y="348.6543">Docent</text><rect fill="#FFFFFF" height="15.9688" style="stroke: #000000; stroke-width: 1.0; stroke-dasharray: 2.0,2.0;" width="52" x="410.701" y="325.5"/><text fill="#000000" font-family="sans-serif" font-size="12" font-style="italic" lengthAdjust="spacingAndGlyphs" textLength="50" x="411.701" y="337.6387">Persoon</text><line style="stroke: #A80036; stroke-width: 1.5;" x1="253.701" x2="458.701" y1="360.5" y2="360.5"/><text fill="#000000" font-family="sans-serif" font-size="11" lengthAdjust="spacingAndGlyphs" textLength="144" x="258.701" y="374.7104">DocentenNummer: String</text><text fill="#000000" font-family="sans-serif" font-size="11" lengthAdjust="spacingAndGlyphs" textLength="127" x="258.701" y="387.5151">BevoegdVoor: List Vak</text><text fill="#000000" font-family="sans-serif" font-size="11" lengthAdjust="spacingAndGlyphs" textLength="100" x="258.701" y="400.3198">Voornaam: String</text><text fill="#000000" font-family="sans-serif" font-size="11" font-style="italic" lengthAdjust="spacingAndGlyphs" textLength="77" x="366.701" y="400.3198">from Persoon</text><text fill="#000000" font-family="sans-serif" font-size="11" lengthAdjust="spacingAndGlyphs" textLength="110" x="258.701" y="413.1245">Achternaam: String</text><text fill="#000000" font-family="sans-serif" font-size="11" font-style="italic" lengthAdjust="spacingAndGlyphs" textLength="77" x="376.701" y="413.1245">from Persoon</text><text fill="#000000" font-family="sans-serif" font-size="11" lengthAdjust="spacingAndGlyphs" textLength="105" x="258.701" y="425.9292">ActiefAdres: Adres</text><text fill="#000000" font-family="sans-serif" font-size="11" font-style="italic" lengthAdjust="spacingAndGlyphs" textLength="77" x="371.701" y="425.9292">from Persoon</text><line style="stroke: #A80036; stroke-width: 1.5;" x1="253.701" x2="458.701" y1="432.5234" y2="432.5234"/><!--class Adres--><rect fill="#FEFECE" filter="url(#f1myv8kq1chl91)" height="73.6094" id="Adres" style="stroke: #A80036; stroke-width: 1.5;" width="127" x="106.701" y="8"/><ellipse cx="148.251" cy="24" fill="#ADD1B2" rx="11" ry="11" style="stroke: #A80036; stroke-width: 1.0;"/><path d="M150.5948,19.6719 L150.7666,19.75 C150.9854,19.4375 151.1885,19.3438 151.4854,19.3438 C151.7823,19.3438 152.0635,19.4844 152.2198,19.75 C152.3135,19.9063 152.3291,20.0313 152.3291,20.4688 L152.3291,21.8906 C152.3291,22.3125 152.2979,22.5 152.1885,22.6563 C152.0166,22.875 151.751,23.0156 151.4854,23.0156 C151.2666,23.0156 151.0323,22.9063 150.8916,22.7656 C150.751,22.6406 150.7198,22.5156 150.6573,22.1094 C150.5635,21.7031 150.3916,21.4844 149.9073,21.2031 C149.4385,20.9531 148.8291,20.7969 148.251,20.7969 C146.5166,20.7969 145.2666,22.1094 145.2666,23.8906 L145.2666,24.9844 C145.2666,26.6875 146.5635,27.7813 148.6104,27.7813 C149.376,27.7813 150.0635,27.6563 150.4854,27.3906 C150.6729,27.2969 150.6729,27.2969 151.126,26.8125 C151.3135,26.625 151.5166,26.5469 151.7354,26.5469 C152.2041,26.5469 152.5948,26.9375 152.5948,27.3906 C152.5948,27.7813 152.2666,28.2344 151.6885,28.6406 C150.9385,29.1875 149.7823,29.4844 148.5635,29.4844 C145.6729,29.4844 143.5635,27.5938 143.5635,25.0156 L143.5635,23.8906 C143.5635,21.1719 145.5635,19.0938 148.1885,19.0938 C149.0635,19.0938 149.6573,19.2344 150.5948,19.6719 Z "/><text fill="#000000" font-family="sans-serif" font-size="12" lengthAdjust="spacingAndGlyphs" textLength="36" x="168.151" y="28.1543">Adres</text><line style="stroke: #A80036; stroke-width: 1.5;" x1="107.701" x2="232.701" y1="40" y2="40"/><text fill="#000000" font-family="sans-serif" font-size="11" lengthAdjust="spacingAndGlyphs" textLength="77" x="112.701" y="54.2104">Straat: String</text><text fill="#000000" font-family="sans-serif" font-size="11" lengthAdjust="spacingAndGlyphs" textLength="115" x="112.701" y="67.0151">Huisnummer: String</text><line style="stroke: #A80036; stroke-width: 1.5;" x1="107.701" x2="232.701" y1="73.6094" y2="73.6094"/><!--class Vak--><rect fill="#FEFECE" filter="url(#f1myv8kq1chl91)" height="73.6094" id="Vak" style="stroke: #A80036; stroke-width: 1.5;" width="132" x="266.201" y="165"/><ellipse cx="316.451" cy="181" fill="#ADD1B2" rx="11" ry="11" style="stroke: #A80036; stroke-width: 1.0;"/><path d="M318.7948,176.6719 L318.9666,176.75 C319.1854,176.4375 319.3885,176.3438 319.6854,176.3438 C319.9823,176.3438 320.2635,176.4844 320.4198,176.75 C320.5135,176.9063 320.5291,177.0313 320.5291,177.4688 L320.5291,178.8906 C320.5291,179.3125 320.4979,179.5 320.3885,179.6563 C320.2166,179.875 319.951,180.0156 319.6854,180.0156 C319.4666,180.0156 319.2323,179.9063 319.0916,179.7656 C318.951,179.6406 318.9198,179.5156 318.8573,179.1094 C318.7635,178.7031 318.5916,178.4844 318.1073,178.2031 C317.6385,177.9531 317.0291,177.7969 316.451,177.7969 C314.7166,177.7969 313.4666,179.1094 313.4666,180.8906 L313.4666,181.9844 C313.4666,183.6875 314.7635,184.7813 316.8104,184.7813 C317.576,184.7813 318.2635,184.6563 318.6854,184.3906 C318.8729,184.2969 318.8729,184.2969 319.326,183.8125 C319.5135,183.625 319.7166,183.5469 319.9354,183.5469 C320.4041,183.5469 320.7948,183.9375 320.7948,184.3906 C320.7948,184.7813 320.4666,185.2344 319.8885,185.6406 C319.1385,186.1875 317.9823,186.4844 316.7635,186.4844 C313.8729,186.4844 311.7635,184.5938 311.7635,182.0156 L311.7635,180.8906 C311.7635,178.1719 313.7635,176.0938 316.3885,176.0938 C317.2635,176.0938 317.8573,176.2344 318.7948,176.6719 Z "/><text fill="#000000" font-family="sans-serif" font-size="12" lengthAdjust="spacingAndGlyphs" textLength="23" x="336.951" y="185.1543">Vak</text><line style="stroke: #A80036; stroke-width: 1.5;" x1="267.201" x2="397.201" y1="197" y2="197"/><text fill="#000000" font-family="sans-serif" font-size="11" lengthAdjust="spacingAndGlyphs" textLength="75" x="272.201" y="211.2104">Naam: String</text><text fill="#000000" font-family="sans-serif" font-size="11" lengthAdjust="spacingAndGlyphs" textLength="120" x="272.201" y="224.0151">IsBelangrijk: Boolean</text><line style="stroke: #A80036; stroke-width: 1.5;" x1="267.201" x2="397.201" y1="230.6094" y2="230.6094"/><!--class Persoon--><rect fill="#FEFECE" filter="url(#f1myv8kq1chl91)" height="86.4141" id="Persoon" style="stroke: #A80036; stroke-width: 1.5;" width="122" x="109.201" y="159"/><ellipse cx="141.301" cy="175" fill="#ADD1B2" rx="11" ry="11" style="stroke: #A80036; stroke-width: 1.0;"/><path d="M143.6448,170.6719 L143.8166,170.75 C144.0354,170.4375 144.2385,170.3438 144.5354,170.3438 C144.8323,170.3438 145.1135,170.4844 145.2698,170.75 C145.3635,170.9063 145.3791,171.0313 145.3791,171.4688 L145.3791,172.8906 C145.3791,173.3125 145.3479,173.5 145.2385,173.6563 C145.0666,173.875 144.801,174.0156 144.5354,174.0156 C144.3166,174.0156 144.0823,173.9063 143.9416,173.7656 C143.801,173.6406 143.7698,173.5156 143.7073,173.1094 C143.6135,172.7031 143.4416,172.4844 142.9573,172.2031 C142.4885,171.9531 141.8791,171.7969 141.301,171.7969 C139.5666,171.7969 138.3166,173.1094 138.3166,174.8906 L138.3166,175.9844 C138.3166,177.6875 139.6135,178.7813 141.6604,178.7813 C142.426,178.7813 143.1135,178.6563 143.5354,178.3906 C143.7229,178.2969 143.7229,178.2969 144.176,177.8125 C144.3635,177.625 144.5666,177.5469 144.7854,177.5469 C145.2541,177.5469 145.6448,177.9375 145.6448,178.3906 C145.6448,178.7813 145.3166,179.2344 144.7385,179.6406 C143.9885,180.1875 142.8323,180.4844 141.6135,180.4844 C138.7229,180.4844 136.6135,178.5938 136.6135,176.0156 L136.6135,174.8906 C136.6135,172.1719 138.6135,170.0938 141.2385,170.0938 C142.1135,170.0938 142.7073,170.2344 143.6448,170.6719 Z "/><text fill="#000000" font-family="sans-serif" font-size="12" lengthAdjust="spacingAndGlyphs" textLength="52" x="159.101" y="179.1543">Persoon</text><line style="stroke: #A80036; stroke-width: 1.5;" x1="110.201" x2="230.201" y1="191" y2="191"/><text fill="#000000" font-family="sans-serif" font-size="11" lengthAdjust="spacingAndGlyphs" textLength="100" x="115.201" y="205.2104">Voornaam: String</text><text fill="#000000" font-family="sans-serif" font-size="11" lengthAdjust="spacingAndGlyphs" textLength="110" x="115.201" y="218.0151">Achternaam: String</text><text fill="#000000" font-family="sans-serif" font-size="11" lengthAdjust="spacingAndGlyphs" textLength="105" x="115.201" y="230.8198">ActiefAdres: Adres</text><line style="stroke: #A80036; stroke-width: 1.5;" x1="110.201" x2="230.201" y1="237.4141" y2="237.4141"/><!--link Student to Klas--><path d="M160.624,447.113 C178.59,470.957 198.796,497.775 215.465,519.8982 " fill="none" id="Student-Klas" style="stroke: #A80036; stroke-width: 1.0;"/><polygon fill="#A80036" points="218.535,523.9726,216.3148,514.3772,215.5266,519.9789,209.9249,519.1907,218.535,523.9726" style="stroke: #A80036; stroke-width: 1.0;"/><text fill="#000000" font-family="sans-serif" font-size="13" lengthAdjust="spacingAndGlyphs" textLength="77" x="195.201" y="490.0669">List Student</text><text fill="#000000" font-family="sans-serif" font-size="13" lengthAdjust="spacingAndGlyphs" textLength="32" x="131.9515" y="466.8652">1..32</text><text fill="#000000" font-family="sans-serif" font-size="13" lengthAdjust="spacingAndGlyphs" textLength="8" x="204.8507" y="512.9647">1</text><!--link Docent to Klas--><path d="M323.822,440.637 C309.034,465.818 291.709,495.319 277.582,519.3756 " fill="none" id="Docent-Klas" style="stroke: #A80036; stroke-width: 1.0;"/><polygon fill="#A80036" points="274.982,523.8018,282.9888,518.0668,277.514,519.4903,276.0905,514.0155,274.982,523.8018" style="stroke: #A80036; stroke-width: 1.0;"/><text fill="#000000" font-family="sans-serif" font-size="13" lengthAdjust="spacingAndGlyphs" textLength="72" x="300.201" y="490.0669">List Docent</text><text fill="#000000" font-family="sans-serif" font-size="13" lengthAdjust="spacingAndGlyphs" textLength="32" x="285.9258" y="460.4663">7..25</text><text fill="#000000" font-family="sans-serif" font-size="13" lengthAdjust="spacingAndGlyphs" textLength="8" x="270.1641" y="513.0842">1</text><!--link Adres to Student--><path d="M106.4,74.765 C72.9827,93.548 35.1576,121.578 16.2011,159 C-10.2885,211.293 20.1594,272.359 53.9101,317.59 " fill="none" id="Adres-Student" style="stroke: #A80036; stroke-width: 1.0;"/><polygon fill="#A80036" points="56.9735,321.641,54.7357,312.0497,53.9578,317.6528,48.3547,316.8749,56.9735,321.641" style="stroke: #A80036; stroke-width: 1.0;"/><text fill="#000000" font-family="sans-serif" font-size="13" lengthAdjust="spacingAndGlyphs" textLength="73" x="17.2011" y="206.5669">ActiefAdres</text><!--link Vak to Student--><path d="M288.61,239.093 C261.147,261.831 224.895,291.847 192.559,318.621 " fill="none" id="Vak-Student" style="stroke: #A80036; stroke-width: 1.0;"/><polygon fill="#A80036" points="188.636,321.869,198.1189,319.209,192.4868,318.6798,193.0161,313.0477,188.636,321.869" style="stroke: #A80036; stroke-width: 1.0;"/><text fill="#000000" font-family="sans-serif" font-size="13" lengthAdjust="spacingAndGlyphs" textLength="50" x="243.201" y="288.0669">List Vak</text><text fill="#000000" font-family="sans-serif" font-size="13" lengthAdjust="spacingAndGlyphs" textLength="32" x="246.7402" y="258.589">7..13</text><text fill="#000000" font-family="sans-serif" font-size="13" lengthAdjust="spacingAndGlyphs" textLength="8" x="188.78" y="310.8446">1</text><!--link Persoon to Student--><path d="M151.105,264.552 C145.355,283.086 139.045,303.422 133.295,321.955 " fill="none" id="Persoon-Student" style="stroke: #A80036; stroke-width: 1.0;"/><polygon fill="none" points="144.46,262.347,157.072,245.319,157.831,266.495,144.46,262.347" style="stroke: #A80036; stroke-width: 1.0;"/><!--link Adres to Docent--><path d="M233.968,55.697 C292.609,68.364 376.313,96.783 416.201,159 C448.369,209.175 423.428,276.205 396.578,323.926 " fill="none" id="Adres-Docent" style="stroke: #A80036; stroke-width: 1.0;"/><polygon fill="#A80036" points="393.976,328.483,401.9134,322.6522,396.4561,324.1414,394.9669,318.6841,393.976,328.483" style="stroke: #A80036; stroke-width: 1.0;"/><text fill="#000000" font-family="sans-serif" font-size="13" lengthAdjust="spacingAndGlyphs" textLength="73" x="432.201" y="206.5669">ActiefAdres</text><!--link Vak to Docent--><path d="M337,239.093 C340.194,263.112 344.467,295.253 348.172,323.114 " fill="none" id="Vak-Docent" style="stroke: #A80036; stroke-width: 1.0;"/><polygon fill="#A80036" points="348.857,328.263,351.6339,318.8137,348.1969,323.3068,343.7039,319.8698,348.857,328.263" style="stroke: #A80036; stroke-width: 1.0;"/><text fill="#000000" font-family="sans-serif" font-size="13" lengthAdjust="spacingAndGlyphs" textLength="50" x="344.201" y="288.0669">List Vak</text><text fill="#000000" font-family="sans-serif" font-size="13" lengthAdjust="spacingAndGlyphs" textLength="32" x="303.1448" y="258.589">1..20</text><text fill="#000000" font-family="sans-serif" font-size="13" lengthAdjust="spacingAndGlyphs" textLength="8" x="339.4745" y="317.5686">1</text><!--link Persoon to Docent--><path d="M182.173,264.55 C185.905,274.373 190.795,283.94 197.201,292 C205.97,303.033 227.678,317.372 252.332,331.414 " fill="none" id="Persoon-Docent" style="stroke: #A80036; stroke-width: 1.0;"/><polygon fill="none" points="175.367,266.233,176.178,245.059,188.748,262.118,175.367,266.233" style="stroke: #A80036; stroke-width: 1.0;"/><!--link Adres to Persoon--><path d="M170.201,82.341 C170.201,103.637 170.201,130.774 170.201,153.72 " fill="none" id="Adres-Persoon" style="stroke: #A80036; stroke-width: 1.0;"/><polygon fill="#A80036" points="170.201,158.85,174.201,149.85,170.201,153.85,166.201,149.85,170.201,158.85" style="stroke: #A80036; stroke-width: 1.0;"/><text fill="#000000" font-family="sans-serif" font-size="13" lengthAdjust="spacingAndGlyphs" textLength="73" x="171.201" y="125.0669">ActiefAdres</text><!--
@startuml
class "Klas" as Klas  {
	Studenten: List Student
	Docenten: List Docent
===
  <b>api</b>: klas
}
Student "1..32" - -> "1" Klas : List Student
Docent "7..25" - -> "1" Klas : List Docent
class "Student " as Student <Persoon> {
	Nummer: String 
	HeeftVakken: List Vak
	Voornaam: String  <i>from Persoon</i>
	Achternaam: String  <i>from Persoon</i>
	ActiefAdres: Adres  <i>from Persoon</i>
===
  <b>api</b>: student
}
Adres - -> Student : ActiefAdres
Vak "7..13" - -> "1" Student : List Vak
Persoon <|- - Student
class "Docent " as Docent <Persoon> {
	DocentenNummer: String 
	BevoegdVoor: List Vak
	Voornaam: String  <i>from Persoon</i>
	Achternaam: String  <i>from Persoon</i>
	ActiefAdres: Adres  <i>from Persoon</i>
}
Adres - -> Docent : ActiefAdres
Vak "1..20" - -> "1" Docent : List Vak
Persoon <|- - Docent
class "Persoon" as Persoon  {
	Voornaam: String 
	Achternaam: String 
	ActiefAdres: Adres 
}
Adres - -> Persoon : ActiefAdres
class "Adres" as Adres  {
	Straat: String 
	Huisnummer: String 
}
class "Vak" as Vak  {
	Naam: String 
	IsBelangrijk: Boolean 
}
@enduml

PlantUML version 1.2019.07beta1(Unknown compile time)
(GPL source distribution)
Java Runtime: Java(TM) SE Runtime Environment
JVM: Java HotSpot(TM) 64-Bit Server VM
Java Version: 1.7.0_25-b15
Operating System: Linux
Default Encoding: UTF-8
Language: en
Country: US
--></g></svg>