<?xml version="1.0" encoding="UTF-8" standalone="no"?><svg xmlns="http://www.w3.org/2000/svg" xmlns:xlink="http://www.w3.org/1999/xlink" contentScriptType="application/ecmascript" contentStyleType="text/css" height="268px" preserveAspectRatio="none" style="width:584px;height:268px;" version="1.1" viewBox="0 0 584 268" width="584px" zoomAndPan="magnify"><defs><filter height="300%" id="f1mz26n8h61fj2" width="300%" x="-1" y="-1"><feGaussianBlur result="blurOut" stdDeviation="2.0"/><feColorMatrix in="blurOut" result="blurOut2" type="matrix" values="0 0 0 0 0 0 0 0 0 0 0 0 0 0 0 0 0 0 .4 0"/><feOffset dx="4.0" dy="4.0" in="blurOut2" result="blurOut3"/><feBlend in="SourceGraphic" in2="blurOut3" mode="normal"/></filter></defs><g><!--class Currency--><rect fill="#FEFECE" filter="url(#f1mz26n8h61fj2)" height="99.2188" id="Currency" style="stroke: #A80036; stroke-width: 1.5;" width="183" x="6" y="8"/><ellipse cx="65.75" cy="24" fill="#ADD1B2" rx="11" ry="11" style="stroke: #A80036; stroke-width: 1.0;"/><path d="M68.0938,19.6719 L68.2656,19.75 C68.4844,19.4375 68.6875,19.3438 68.9844,19.3438 C69.2813,19.3438 69.5625,19.4844 69.7188,19.75 C69.8125,19.9063 69.8281,20.0313 69.8281,20.4688 L69.8281,21.8906 C69.8281,22.3125 69.7969,22.5 69.6875,22.6563 C69.5156,22.875 69.25,23.0156 68.9844,23.0156 C68.7656,23.0156 68.5313,22.9063 68.3906,22.7656 C68.25,22.6406 68.2188,22.5156 68.1563,22.1094 C68.0625,21.7031 67.8906,21.4844 67.4063,21.2031 C66.9375,20.9531 66.3281,20.7969 65.75,20.7969 C64.0156,20.7969 62.7656,22.1094 62.7656,23.8906 L62.7656,24.9844 C62.7656,26.6875 64.0625,27.7813 66.1094,27.7813 C66.875,27.7813 67.5625,27.6563 67.9844,27.3906 C68.1719,27.2969 68.1719,27.2969 68.625,26.8125 C68.8125,26.625 69.0156,26.5469 69.2344,26.5469 C69.7031,26.5469 70.0938,26.9375 70.0938,27.3906 C70.0938,27.7813 69.7656,28.2344 69.1875,28.6406 C68.4375,29.1875 67.2813,29.4844 66.0625,29.4844 C63.1719,29.4844 61.0625,27.5938 61.0625,25.0156 L61.0625,23.8906 C61.0625,21.1719 63.0625,19.0938 65.6875,19.0938 C66.5625,19.0938 67.1563,19.2344 68.0938,19.6719 Z "/><text fill="#000000" font-family="sans-serif" font-size="12" lengthAdjust="spacingAndGlyphs" textLength="55" x="86.25" y="28.1543">Currency</text><line style="stroke: #A80036; stroke-width: 1.5;" x1="7" x2="188" y1="40" y2="40"/><text fill="#000000" font-family="sans-serif" font-size="11" lengthAdjust="spacingAndGlyphs" textLength="67" x="12" y="54.2104">Sign: String</text><text fill="#000000" font-family="sans-serif" font-size="11" lengthAdjust="spacingAndGlyphs" textLength="84" x="12" y="67.0151">Value: Number</text><line style="stroke: #A80036; stroke-width: 1.0;" x1="7" x2="188" y1="73.6094" y2="73.6094"/><line style="stroke: #A80036; stroke-width: 1.0;" x1="7" x2="188" y1="75.6094" y2="75.6094"/><text fill="#000000" font-family="sans-serif" font-size="11" font-weight="bold" lengthAdjust="spacingAndGlyphs" textLength="167" x="12" y="87.8198">currency is expressen like</text><text fill="#000000" font-family="sans-serif" font-size="11" lengthAdjust="spacingAndGlyphs" textLength="4" x="179" y="87.8198">:</text><text fill="#000000" font-family="sans-serif" font-size="11" lengthAdjust="spacingAndGlyphs" textLength="39" x="12" y="100.6245">$12,00</text><!--class CreditCard--><rect fill="#FEFECE" filter="url(#f1mz26n8h61fj2)" height="73.6094" id="CreditCard" style="stroke: #A80036; stroke-width: 1.5;" width="128" x="224.5" y="20.5"/><ellipse cx="253" cy="36.5" fill="#ADD1B2" rx="11" ry="11" style="stroke: #A80036; stroke-width: 1.0;"/><path d="M255.3438,32.1719 L255.5156,32.25 C255.7344,31.9375 255.9375,31.8438 256.2344,31.8438 C256.5313,31.8438 256.8125,31.9844 256.9688,32.25 C257.0625,32.4063 257.0781,32.5313 257.0781,32.9688 L257.0781,34.3906 C257.0781,34.8125 257.0469,35 256.9375,35.1563 C256.7656,35.375 256.5,35.5156 256.2344,35.5156 C256.0156,35.5156 255.7813,35.4063 255.6406,35.2656 C255.5,35.1406 255.4688,35.0156 255.4063,34.6094 C255.3125,34.2031 255.1406,33.9844 254.6563,33.7031 C254.1875,33.4531 253.5781,33.2969 253,33.2969 C251.2656,33.2969 250.0156,34.6094 250.0156,36.3906 L250.0156,37.4844 C250.0156,39.1875 251.3125,40.2813 253.3594,40.2813 C254.125,40.2813 254.8125,40.1563 255.2344,39.8906 C255.4219,39.7969 255.4219,39.7969 255.875,39.3125 C256.0625,39.125 256.2656,39.0469 256.4844,39.0469 C256.9531,39.0469 257.3438,39.4375 257.3438,39.8906 C257.3438,40.2813 257.0156,40.7344 256.4375,41.1406 C255.6875,41.6875 254.5313,41.9844 253.3125,41.9844 C250.4219,41.9844 248.3125,40.0938 248.3125,37.5156 L248.3125,36.3906 C248.3125,33.6719 250.3125,31.5938 252.9375,31.5938 C253.8125,31.5938 254.4063,31.7344 255.3438,32.1719 Z "/><text fill="#000000" font-family="sans-serif" font-size="12" lengthAdjust="spacingAndGlyphs" textLength="66" x="270" y="40.6543">CreditCard</text><line style="stroke: #A80036; stroke-width: 1.5;" x1="225.5" x2="351.5" y1="52.5" y2="52.5"/><text fill="#000000" font-family="sans-serif" font-size="11" lengthAdjust="spacingAndGlyphs" textLength="87" x="230.5" y="66.7104">Number: String</text><text fill="#000000" font-family="sans-serif" font-size="11" lengthAdjust="spacingAndGlyphs" textLength="116" x="230.5" y="79.5151">ExpirationDate: Date</text><line style="stroke: #A80036; stroke-width: 1.5;" x1="225.5" x2="351.5" y1="86.1094" y2="86.1094"/><!--class DirectDebit--><rect fill="#FEFECE" filter="url(#f1mz26n8h61fj2)" height="86.4141" id="DirectDebit" style="stroke: #A80036; stroke-width: 1.5;" width="186" x="387.5" y="14.5"/><ellipse cx="441.25" cy="30.5" fill="#ADD1B2" rx="11" ry="11" style="stroke: #A80036; stroke-width: 1.0;"/><path d="M443.5938,26.1719 L443.7656,26.25 C443.9844,25.9375 444.1875,25.8438 444.4844,25.8438 C444.7813,25.8438 445.0625,25.9844 445.2188,26.25 C445.3125,26.4063 445.3281,26.5313 445.3281,26.9688 L445.3281,28.3906 C445.3281,28.8125 445.2969,29 445.1875,29.1563 C445.0156,29.375 444.75,29.5156 444.4844,29.5156 C444.2656,29.5156 444.0313,29.4063 443.8906,29.2656 C443.75,29.1406 443.7188,29.0156 443.6563,28.6094 C443.5625,28.2031 443.3906,27.9844 442.9063,27.7031 C442.4375,27.4531 441.8281,27.2969 441.25,27.2969 C439.5156,27.2969 438.2656,28.6094 438.2656,30.3906 L438.2656,31.4844 C438.2656,33.1875 439.5625,34.2813 441.6094,34.2813 C442.375,34.2813 443.0625,34.1563 443.4844,33.8906 C443.6719,33.7969 443.6719,33.7969 444.125,33.3125 C444.3125,33.125 444.5156,33.0469 444.7344,33.0469 C445.2031,33.0469 445.5938,33.4375 445.5938,33.8906 C445.5938,34.2813 445.2656,34.7344 444.6875,35.1406 C443.9375,35.6875 442.7813,35.9844 441.5625,35.9844 C438.6719,35.9844 436.5625,34.0938 436.5625,31.5156 L436.5625,30.3906 C436.5625,27.6719 438.5625,25.5938 441.1875,25.5938 C442.0625,25.5938 442.6563,25.7344 443.5938,26.1719 Z "/><text fill="#000000" font-family="sans-serif" font-size="12" lengthAdjust="spacingAndGlyphs" textLength="70" x="461.75" y="34.6543">DirectDebit</text><line style="stroke: #A80036; stroke-width: 1.5;" x1="388.5" x2="572.5" y1="46.5" y2="46.5"/><text fill="#000000" font-family="sans-serif" font-size="11" lengthAdjust="spacingAndGlyphs" textLength="159" x="393.5" y="60.7104">BankAccountNumber: String</text><line style="stroke: #A80036; stroke-width: 1.0;" x1="388.5" x2="572.5" y1="67.3047" y2="67.3047"/><line style="stroke: #A80036; stroke-width: 1.0;" x1="388.5" x2="572.5" y1="69.3047" y2="69.3047"/><text fill="#000000" font-family="sans-serif" font-size="11" font-weight="bold" lengthAdjust="spacingAndGlyphs" textLength="72" x="393.5" y="81.5151">description</text><text fill="#000000" font-family="sans-serif" font-size="11" lengthAdjust="spacingAndGlyphs" textLength="102" x="465.5" y="81.5151">: Pay from a debit</text><text fill="#000000" font-family="sans-serif" font-size="11" lengthAdjust="spacingAndGlyphs" textLength="44" x="393.5" y="94.3198">account</text><!--class PaymentMethod--><rect fill="#FEFECE" filter="url(#f1mz26n8h61fj2)" height="73.6094" id="PaymentMethod" style="stroke: #A80036; stroke-width: 1.5;" width="133" x="318" y="184"/><ellipse cx="333" cy="200" fill="#A9DCDF" rx="11" ry="11" style="stroke: #A80036; stroke-width: 1.0;"/><path d="M334.5781,201.8125 L330.5313,201.8125 L330.1406,202.7969 L330.5313,202.7969 C330.9844,202.7969 331.125,202.8281 331.2969,202.9531 C331.5156,203.125 331.6406,203.375 331.6406,203.6563 C331.6406,203.9375 331.5,204.2344 331.2344,204.375 C331.1094,204.4688 330.8906,204.5 330.5313,204.5 L328.2656,204.5 C327.5156,204.5 327.1406,204.2188 327.1406,203.6563 C327.1406,203.3594 327.2969,203.0781 327.5469,202.9219 C327.7031,202.8125 327.8594,202.7969 328.2813,202.7969 L330.9219,196.2813 L329.8438,196.2813 C329.4063,196.2813 329.2344,196.25 329.0625,196.1406 C328.8438,195.9688 328.7031,195.7188 328.7031,195.4375 C328.7031,195.1563 328.8594,194.875 329.1094,194.7031 C329.2656,194.6094 329.3906,194.5938 329.8438,194.5938 L333.5156,194.5938 L336.9063,202.7969 C337.375,202.7969 337.5313,202.8281 337.7031,202.9688 C337.9219,203.125 338.0625,203.375 338.0625,203.6563 C338.0625,203.9375 337.9063,204.2344 337.6563,204.375 C337.5156,204.4688 337.2969,204.5 336.9375,204.5 L334.5781,204.5 C334.1563,204.5 333.9531,204.4531 333.8125,204.3281 C333.5938,204.1719 333.4531,203.9219 333.4531,203.6563 C333.4531,203.3594 333.6094,203.0781 333.8594,202.9219 C334.0156,202.8125 334.125,202.7969 334.5781,202.7969 L334.9688,202.7969 Z M333.875,200.1094 L332.5469,196.8438 L331.2031,200.1094 Z "/><text fill="#000000" font-family="sans-serif" font-size="12" font-style="italic" lengthAdjust="spacingAndGlyphs" textLength="101" x="347" y="204.1543">PaymentMethod</text><line style="stroke: #A80036; stroke-width: 1.5;" x1="319" x2="450" y1="216" y2="216"/><text fill="#000000" font-family="sans-serif" font-size="11" lengthAdjust="spacingAndGlyphs" textLength="61" x="324" y="230.2104">CreditCard</text><text fill="#000000" font-family="sans-serif" font-size="11" lengthAdjust="spacingAndGlyphs" textLength="62" x="324" y="243.0151">DirectDebit</text><line style="stroke: #A80036; stroke-width: 1.5;" x1="319" x2="450" y1="249.6094" y2="249.6094"/><!--link CreditCard to PaymentMethod--><path d="M310.044,94.744 C323.693,117.705 341.492,147.648 356.265,172.5007 " fill="none" id="CreditCard-PaymentMethod" style="stroke: #A80036; stroke-width: 1.0;"/><polygon fill="#A80036" points="363.028,183.8772,363.4005,176.6757,356.8962,173.5621,356.5237,180.7636,363.028,183.8772" style="stroke: #A80036; stroke-width: 1.0;"/><text fill="#000000" font-family="sans-serif" font-size="13" lengthAdjust="spacingAndGlyphs" textLength="68" x="345.5" y="150.0669">CreditCard</text><!--link DirectDebit to PaymentMethod--><path d="M455.528,100.511 C442.363,122.657 426.17,149.899 412.571,172.7761 " fill="none" id="DirectDebit-PaymentMethod" style="stroke: #A80036; stroke-width: 1.0;"/><polygon fill="#A80036" points="405.928,183.9518,412.4323,180.8383,412.0599,173.6368,405.5556,176.7503,405.928,183.9518" style="stroke: #A80036; stroke-width: 1.0;"/><text fill="#000000" font-family="sans-serif" font-size="13" lengthAdjust="spacingAndGlyphs" textLength="72" x="433.5" y="150.0669">DirectDebit</text><!--
@startuml
class "Currency" as Currency  {
	Sign: String 
	Value: Number 
===
  <b>currency is expressen like</b>:
 $12,00
}
class "CreditCard" as CreditCard  {
	Number: String 
	ExpirationDate: Date 
}
class "DirectDebit" as DirectDebit  {
	BankAccountNumber: String 
===
  <b>description</b>: Pay from a debit
 account
}
abstract "PaymentMethod" as PaymentMethod {
	CreditCard 
	DirectDebit 
}
CreditCard - -* PaymentMethod : CreditCard
DirectDebit - -* PaymentMethod : DirectDebit
@enduml

PlantUML version 1.2019.07beta1(Unknown compile time)
(GPL source distribution)
Java Runtime: Java(TM) SE Runtime Environment
JVM: Java HotSpot(TM) 64-Bit Server VM
Java Version: 1.7.0_25-b15
Operating System: Linux
Default Encoding: UTF-8
Language: en
Country: US
--></g></svg>