<?xml version="1.0" encoding="UTF-8" standalone="no"?><svg xmlns="http://www.w3.org/2000/svg" xmlns:xlink="http://www.w3.org/1999/xlink" contentScriptType="application/ecmascript" contentStyleType="text/css" height="329px" preserveAspectRatio="none" style="width:443px;height:329px;" version="1.1" viewBox="0 0 443 329" width="443px" zoomAndPan="magnify"><defs><filter height="300%" id="fwjp35zcnmtit" width="300%" x="-1" y="-1"><feGaussianBlur result="blurOut" stdDeviation="2.0"/><feColorMatrix in="blurOut" result="blurOut2" type="matrix" values="0 0 0 0 0 0 0 0 0 0 0 0 0 0 0 0 0 0 .4 0"/><feOffset dx="4.0" dy="4.0" in="blurOut2" result="blurOut3"/><feBlend in="SourceGraphic" in2="blurOut3" mode="normal"/></filter></defs><g><rect fill="#FEFECE" filter="url(#fwjp35zcnmtit)" height="310.2969" rx="12.5" ry="12.5" style="stroke: #A80036; stroke-width: 1.5;" width="258" x="6" y="8"/><rect fill="#FFFFFF" height="278" rx="12.5" ry="12.5" style="stroke: #FFFFFF; stroke-width: 1.0;" width="252" x="9" y="37.2969"/><line style="stroke: #A80036; stroke-width: 1.5;" x1="6" x2="264" y1="34.2969" y2="34.2969"/><text fill="#000000" font-family="sans-serif" font-size="14" lengthAdjust="spacingAndGlyphs" textLength="91" x="89.5" y="25.9951">getCustomer</text><rect fill="#FEFECE" filter="url(#fwjp35zcnmtit)" height="50" rx="12.5" ry="12.5" style="stroke: #A80036; stroke-width: 1.5;" width="56" x="17" y="47.2969"/><line style="stroke: #A80036; stroke-width: 1.5;" x1="17" x2="73" y1="73.5938" y2="73.5938"/><text fill="#000000" font-family="sans-serif" font-size="14" lengthAdjust="spacingAndGlyphs" textLength="36" x="27" y="65.292">Duck</text><rect fill="#FEFECE" filter="url(#fwjp35zcnmtit)" height="50" rx="12.5" ry="12.5" style="stroke: #A80036; stroke-width: 1.5;" width="56" x="91" y="47.2969"/><line style="stroke: #A80036; stroke-width: 1.5;" x1="91" x2="147" y1="73.5938" y2="73.5938"/><text fill="#000000" font-family="sans-serif" font-size="14" lengthAdjust="spacingAndGlyphs" textLength="36" x="101" y="65.292">Duck</text><rect fill="#FEFECE" filter="url(#fwjp35zcnmtit)" height="50" rx="12.5" ry="12.5" style="stroke: #A80036; stroke-width: 1.5;" width="66" x="165" y="47.2969"/><line style="stroke: #A80036; stroke-width: 1.5;" x1="165" x2="231" y1="73.5938" y2="73.5938"/><text fill="#000000" font-family="sans-serif" font-size="14" lengthAdjust="spacingAndGlyphs" textLength="46" x="175" y="65.292">Goose</text><rect fill="#FEFECE" filter="url(#fwjp35zcnmtit)" height="50" rx="12.5" ry="12.5" style="stroke: #A80036; stroke-width: 1.5;" width="88" x="75" y="150.2969"/><line style="stroke: #A80036; stroke-width: 1.5;" x1="75" x2="163" y1="176.5938" y2="176.5938"/><text fill="#000000" font-family="sans-serif" font-size="14" lengthAdjust="spacingAndGlyphs" textLength="68" x="85" y="168.292">Operation</text><rect fill="#FEFECE" filter="url(#fwjp35zcnmtit)" height="50" rx="12.5" ry="12.5" style="stroke: #A80036; stroke-width: 1.5;" width="88" x="75" y="253.2969"/><line style="stroke: #A80036; stroke-width: 1.5;" x1="75" x2="163" y1="279.5938" y2="279.5938"/><text fill="#000000" font-family="sans-serif" font-size="14" lengthAdjust="spacingAndGlyphs" textLength="68" x="85" y="271.292">Customer</text><!--link getCustomer_0_Duck to ogetCustomer--><path d="M52.9262,97.5439 C57.2544,108.7369 63.3134,121.8319 71,132.2969 C74.5848,137.1769 78.8285,141.8889 83.286,146.2819 " fill="none" id="getCustomer_0_Duck-ogetCustomer" style="stroke: #A80036; stroke-width: 1.0;"/><polygon fill="#A80036" points="87.0708,149.8939,83.3214,140.7866,83.4536,146.442,77.7983,146.5742,87.0708,149.8939" style="stroke: #A80036; stroke-width: 1.0;"/><text fill="#000000" font-family="sans-serif" font-size="13" lengthAdjust="spacingAndGlyphs" textLength="42" x="72" y="128.3638">param</text><!--link getCustomer_1_Duck to ogetCustomer--><path d="M119,97.4889 C119,111.6269 119,129.5809 119,144.5749 " fill="none" id="getCustomer_1_Duck-ogetCustomer" style="stroke: #A80036; stroke-width: 1.0;"/><polygon fill="#A80036" points="119,149.9519,123,140.9519,119,144.9519,115,140.9519,119,149.9519" style="stroke: #A80036; stroke-width: 1.0;"/><text fill="#000000" font-family="sans-serif" font-size="13" lengthAdjust="spacingAndGlyphs" textLength="42" x="120" y="128.3638">param</text><!--link getCustomer_2_Goose to ogetCustomer--><path d="M187.785,97.4779 C182.457,108.6569 175.313,121.7589 167,132.2969 C163.143,137.1869 158.663,141.9559 154.021,146.4209 " fill="none" id="getCustomer_2_Goose-ogetCustomer" style="stroke: #A80036; stroke-width: 1.0;"/><polygon fill="#A80036" points="150.093,150.0959,159.3975,146.8668,153.7437,146.6794,153.9311,141.0257,150.093,150.0959" style="stroke: #A80036; stroke-width: 1.0;"/><text fill="#000000" font-family="sans-serif" font-size="13" lengthAdjust="spacingAndGlyphs" textLength="42" x="179" y="128.3638">param</text><!--link ogetCustomer to rgetCustomer_Customer--><path d="M119,200.4889 C119,214.6265 119,232.5805 119,247.5746 " fill="none" id="ogetCustomer-rgetCustomer_Customer" style="stroke: #A80036; stroke-width: 1.0;"/><polygon fill="#A80036" points="119,252.9522,123,243.9522,119,247.9522,115,243.9522,119,252.9522" style="stroke: #A80036; stroke-width: 1.0;"/><text fill="#000000" font-family="sans-serif" font-size="13" lengthAdjust="spacingAndGlyphs" textLength="39" x="120" y="231.3638">return</text><rect fill="#FEFECE" filter="url(#fwjp35zcnmtit)" height="310.2969" rx="12.5" ry="12.5" style="stroke: #A80036; stroke-width: 1.5;" width="132" x="299" y="8"/><rect fill="#FFFFFF" height="278" rx="12.5" ry="12.5" style="stroke: #FFFFFF; stroke-width: 1.0;" width="126" x="302" y="37.2969"/><line style="stroke: #A80036; stroke-width: 1.5;" x1="299" x2="431" y1="34.2969" y2="34.2969"/><text fill="#000000" font-family="sans-serif" font-size="14" lengthAdjust="spacingAndGlyphs" textLength="89" x="320.5" y="25.9951">logCustomer</text><rect fill="#FEFECE" filter="url(#fwjp35zcnmtit)" height="50" rx="12.5" ry="12.5" style="stroke: #A80036; stroke-width: 1.5;" width="88" x="310" y="47.2969"/><line style="stroke: #A80036; stroke-width: 1.5;" x1="310" x2="398" y1="73.5938" y2="73.5938"/><text fill="#000000" font-family="sans-serif" font-size="14" lengthAdjust="spacingAndGlyphs" textLength="68" x="320" y="65.292">Customer</text><rect fill="#FEFECE" filter="url(#fwjp35zcnmtit)" height="50" rx="12.5" ry="12.5" style="stroke: #A80036; stroke-width: 1.5;" width="88" x="310" y="150.2969"/><line style="stroke: #A80036; stroke-width: 1.5;" x1="310" x2="398" y1="176.5938" y2="176.5938"/><text fill="#000000" font-family="sans-serif" font-size="14" lengthAdjust="spacingAndGlyphs" textLength="68" x="320" y="168.292">Operation</text><rect fill="#FEFECE" filter="url(#fwjp35zcnmtit)" height="50" rx="12.5" ry="12.5" style="stroke: #A80036; stroke-width: 1.5;" width="88" x="310" y="253.2969"/><line style="stroke: #A80036; stroke-width: 1.5;" x1="310" x2="398" y1="279.5938" y2="279.5938"/><text fill="#000000" font-family="sans-serif" font-size="14" lengthAdjust="spacingAndGlyphs" textLength="68" x="320" y="271.292">Customer</text><!--link logCustomer_0_Customer to ologCustomer--><path d="M354,97.4889 C354,111.6269 354,129.5809 354,144.5749 " fill="none" id="logCustomer_0_Customer-ologCustomer" style="stroke: #A80036; stroke-width: 1.0;"/><polygon fill="#A80036" points="354,149.9519,358,140.9519,354,144.9519,350,140.9519,354,149.9519" style="stroke: #A80036; stroke-width: 1.0;"/><text fill="#000000" font-family="sans-serif" font-size="13" lengthAdjust="spacingAndGlyphs" textLength="42" x="355" y="128.3638">param</text><!--link ologCustomer to rlogCustomer_Customer--><path d="M354,200.4889 C354,214.6265 354,232.5805 354,247.5746 " fill="none" id="ologCustomer-rlogCustomer_Customer" style="stroke: #A80036; stroke-width: 1.0;"/><polygon fill="#A80036" points="354,252.9522,358,243.9522,354,247.9522,350,243.9522,354,252.9522" style="stroke: #A80036; stroke-width: 1.0;"/><text fill="#000000" font-family="sans-serif" font-size="13" lengthAdjust="spacingAndGlyphs" textLength="39" x="355" y="231.3638">return</text><!--
@startuml
state getCustomer {
	state "Duck" as getCustomer_0_Duck
	state "Duck" as getCustomer_1_Duck
	state "Goose" as getCustomer_2_Goose
	getCustomer_0_Duck - -> ogetCustomer : param
	getCustomer_1_Duck - -> ogetCustomer : param
	getCustomer_2_Goose - -> ogetCustomer : param
state "Operation" as ogetCustomer
	state "Customer" as rgetCustomer_Customer <<Result>>
	ogetCustomer - -> rgetCustomer_Customer : return
}

        


state logCustomer {
	state "Customer" as logCustomer_0_Customer
	logCustomer_0_Customer - -> ologCustomer : param
state "Operation" as ologCustomer
	state "Customer" as rlogCustomer_Customer <<Result>>
	ologCustomer - -> rlogCustomer_Customer : return
}
@enduml

PlantUML version 1.2019.07beta1(Unknown compile time)
(GPL source distribution)
Java Runtime: Java(TM) SE Runtime Environment
JVM: Java HotSpot(TM) 64-Bit Server VM
Java Version: 1.7.0_25-b15
Operating System: Linux
Default Encoding: UTF-8
Language: en
Country: US
--></g></svg>