<?xml version="1.0" encoding="UTF-8" standalone="no"?><svg xmlns="http://www.w3.org/2000/svg" xmlns:xlink="http://www.w3.org/1999/xlink" contentScriptType="application/ecmascript" contentStyleType="text/css" height="439px" preserveAspectRatio="none" style="width:1093px;height:439px;" version="1.1" viewBox="0 0 1093 439" width="1093px" zoomAndPan="magnify"><defs><filter height="300%" id="flepy9b800fk7" width="300%" x="-1" y="-1"><feGaussianBlur result="blurOut" stdDeviation="2.0"/><feColorMatrix in="blurOut" result="blurOut2" type="matrix" values="0 0 0 0 0 0 0 0 0 0 0 0 0 0 0 0 0 0 .4 0"/><feOffset dx="4.0" dy="4.0" in="blurOut2" result="blurOut3"/><feBlend in="SourceGraphic" in2="blurOut3" mode="normal"/></filter></defs><g><rect fill="#FFFFFF" filter="url(#flepy9b800fk7)" height="87.3984" style="stroke: #A80036; stroke-width: 1.0;" width="10" x="583.5" y="248.125"/><rect fill="#FFFFFF" filter="url(#flepy9b800fk7)" height="29.1328" style="stroke: #A80036; stroke-width: 1.0;" width="10" x="639.5" y="277.2578"/><line style="stroke: #A80036; stroke-width: 1.0; stroke-dasharray: 5.0,5.0;" x1="90" x2="90" y1="54.5938" y2="382.6563"/><line style="stroke: #A80036; stroke-width: 1.0; stroke-dasharray: 5.0,5.0;" x1="377" x2="377" y1="54.5938" y2="382.6563"/><line style="stroke: #A80036; stroke-width: 1.0; stroke-dasharray: 5.0,5.0;" x1="474" x2="474" y1="54.5938" y2="382.6563"/><line style="stroke: #A80036; stroke-width: 1.0; stroke-dasharray: 5.0,5.0;" x1="588.5" x2="588.5" y1="54.5938" y2="382.6563"/><line style="stroke: #A80036; stroke-width: 1.0; stroke-dasharray: 5.0,5.0;" x1="644" x2="644" y1="54.5938" y2="382.6563"/><line style="stroke: #A80036; stroke-width: 1.0; stroke-dasharray: 5.0,5.0;" x1="717" x2="717" y1="54.5938" y2="382.6563"/><line style="stroke: #A80036; stroke-width: 1.0; stroke-dasharray: 5.0,5.0;" x1="852" x2="852" y1="54.5938" y2="382.6563"/><line style="stroke: #A80036; stroke-width: 1.0; stroke-dasharray: 5.0,5.0;" x1="1016" x2="1016" y1="54.5938" y2="382.6563"/><rect fill="#FEFECE" filter="url(#flepy9b800fk7)" height="46.5938" style="stroke: #A80036; stroke-width: 1.5;" width="160" x="8" y="3"/><ellipse cx="26" cy="21" fill="#ADD1B2" rx="11" ry="11" style="stroke: #A80036; stroke-width: 1.0;"/><path d="M24.2969,21.875 L24.2969,24.2969 L28.6563,24.2969 L28.6563,23.4219 C28.6563,22.9375 28.6875,22.7969 28.7969,22.6406 C28.9688,22.3906 29.2344,22.2813 29.5,22.2813 C29.7813,22.2813 30.0625,22.4375 30.2344,22.6875 C30.3125,22.8438 30.3438,22.9844 30.3438,23.4219 L30.3438,26 L22.3438,26 C21.9531,26 21.7188,25.9531 21.5781,25.8281 C21.3594,25.6719 21.2188,25.4219 21.2188,25.1563 C21.2188,24.8594 21.375,24.5938 21.625,24.4219 C21.7813,24.3125 21.9375,24.2969 22.3438,24.2969 L22.5938,24.2969 L22.5938,17.7813 L22.3438,17.7813 C21.9219,17.7813 21.7344,17.75 21.5781,17.6406 C21.3594,17.4688 21.2188,17.2188 21.2188,16.9375 C21.2188,16.6563 21.375,16.3594 21.625,16.2031 C21.7813,16.1094 21.9063,16.0938 22.3438,16.0938 L29.9688,16.0938 L29.9688,18.6406 C29.9688,19.1094 29.9375,19.25 29.8281,19.4219 C29.6563,19.6406 29.3906,19.7813 29.125,19.7813 C28.8438,19.7813 28.5625,19.625 28.3906,19.375 C28.3125,19.2188 28.2813,19.0469 28.2813,18.6406 L28.2813,17.7813 L24.2969,17.7813 L24.2969,20.1875 L25.75,20.1875 L25.75,20.0625 C25.75,19.6094 25.7813,19.4531 25.8906,19.2813 C26.0625,19.0625 26.3281,18.9219 26.5781,18.9219 C27.0313,18.9219 27.3438,19.2344 27.4063,19.7031 C27.4219,19.8594 27.4219,19.9063 27.4219,20.0625 L27.4219,21.9844 C27.4219,22.4375 27.3906,22.5938 27.2656,22.75 C27.1094,22.9688 26.8438,23.1094 26.5938,23.1094 C26.2969,23.1094 26.0156,22.9531 25.8594,22.7031 C25.7813,22.5469 25.75,22.3906 25.75,21.9844 L25.75,21.875 Z "/><text fill="#000000" font-family="sans-serif" font-size="14" font-style="italic" lengthAdjust="spacingAndGlyphs" textLength="58" x="73" y="24">«Event»</text><text fill="#000000" font-family="sans-serif" font-size="14" lengthAdjust="spacingAndGlyphs" textLength="118" x="43" y="40.2969">Create Customer</text><rect fill="#FEFECE" filter="url(#flepy9b800fk7)" height="46.5938" style="stroke: #A80036; stroke-width: 1.5;" width="160" x="8" y="381.6563"/><ellipse cx="26" cy="399.6563" fill="#ADD1B2" rx="11" ry="11" style="stroke: #A80036; stroke-width: 1.0;"/><path d="M24.2969,400.5313 L24.2969,402.9531 L28.6563,402.9531 L28.6563,402.0781 C28.6563,401.5938 28.6875,401.4531 28.7969,401.2969 C28.9688,401.0469 29.2344,400.9375 29.5,400.9375 C29.7813,400.9375 30.0625,401.0938 30.2344,401.3438 C30.3125,401.5 30.3438,401.6406 30.3438,402.0781 L30.3438,404.6563 L22.3438,404.6563 C21.9531,404.6563 21.7188,404.6094 21.5781,404.4844 C21.3594,404.3281 21.2188,404.0781 21.2188,403.8125 C21.2188,403.5156 21.375,403.25 21.625,403.0781 C21.7813,402.9688 21.9375,402.9531 22.3438,402.9531 L22.5938,402.9531 L22.5938,396.4375 L22.3438,396.4375 C21.9219,396.4375 21.7344,396.4063 21.5781,396.2969 C21.3594,396.125 21.2188,395.875 21.2188,395.5938 C21.2188,395.3125 21.375,395.0156 21.625,394.8594 C21.7813,394.7656 21.9063,394.75 22.3438,394.75 L29.9688,394.75 L29.9688,397.2969 C29.9688,397.7656 29.9375,397.9063 29.8281,398.0781 C29.6563,398.2969 29.3906,398.4375 29.125,398.4375 C28.8438,398.4375 28.5625,398.2813 28.3906,398.0313 C28.3125,397.875 28.2813,397.7031 28.2813,397.2969 L28.2813,396.4375 L24.2969,396.4375 L24.2969,398.8438 L25.75,398.8438 L25.75,398.7188 C25.75,398.2656 25.7813,398.1094 25.8906,397.9375 C26.0625,397.7188 26.3281,397.5781 26.5781,397.5781 C27.0313,397.5781 27.3438,397.8906 27.4063,398.3594 C27.4219,398.5156 27.4219,398.5625 27.4219,398.7188 L27.4219,400.6406 C27.4219,401.0938 27.3906,401.25 27.2656,401.4063 C27.1094,401.625 26.8438,401.7656 26.5938,401.7656 C26.2969,401.7656 26.0156,401.6094 25.8594,401.3594 C25.7813,401.2031 25.75,401.0469 25.75,400.6406 L25.75,400.5313 Z "/><text fill="#000000" font-family="sans-serif" font-size="14" font-style="italic" lengthAdjust="spacingAndGlyphs" textLength="58" x="73" y="402.6563">«Event»</text><text fill="#000000" font-family="sans-serif" font-size="14" lengthAdjust="spacingAndGlyphs" textLength="118" x="43" y="418.9531">Create Customer</text><rect fill="#FEFECE" filter="url(#flepy9b800fk7)" height="30.2969" style="stroke: #A80036; stroke-width: 1.5;" width="136" x="307" y="19.2969"/><text fill="#000000" font-family="sans-serif" font-size="14" lengthAdjust="spacingAndGlyphs" textLength="122" x="314" y="39.292">Customer Service</text><rect fill="#FEFECE" filter="url(#flepy9b800fk7)" height="30.2969" style="stroke: #A80036; stroke-width: 1.5;" width="136" x="307" y="381.6563"/><text fill="#000000" font-family="sans-serif" font-size="14" lengthAdjust="spacingAndGlyphs" textLength="122" x="314" y="401.6514">Customer Service</text><rect fill="#FEFECE" filter="url(#flepy9b800fk7)" height="30.2969" style="stroke: #A80036; stroke-width: 1.5;" width="31" x="457" y="19.2969"/><text fill="#000000" font-family="sans-serif" font-size="14" lengthAdjust="spacingAndGlyphs" textLength="17" x="464" y="39.292">FS</text><rect fill="#FEFECE" filter="url(#flepy9b800fk7)" height="30.2969" style="stroke: #A80036; stroke-width: 1.5;" width="31" x="457" y="381.6563"/><text fill="#000000" font-family="sans-serif" font-size="14" lengthAdjust="spacingAndGlyphs" textLength="17" x="464" y="401.6514">FS</text><rect fill="#FEFECE" filter="url(#flepy9b800fk7)" height="30.2969" style="stroke: #A80036; stroke-width: 1.5;" width="32" x="570.5" y="19.2969"/><text fill="#000000" font-family="sans-serif" font-size="14" lengthAdjust="spacingAndGlyphs" textLength="18" x="577.5" y="39.292">ES</text><rect fill="#FEFECE" filter="url(#flepy9b800fk7)" height="30.2969" style="stroke: #A80036; stroke-width: 1.5;" width="32" x="570.5" y="381.6563"/><text fill="#000000" font-family="sans-serif" font-size="14" lengthAdjust="spacingAndGlyphs" textLength="18" x="577.5" y="401.6514">ES</text><rect fill="#FEFECE" filter="url(#flepy9b800fk7)" height="30.2969" style="stroke: #A80036; stroke-width: 1.5;" width="41" x="622" y="19.2969"/><text fill="#000000" font-family="sans-serif" font-size="14" lengthAdjust="spacingAndGlyphs" textLength="27" x="629" y="39.292">SAP</text><rect fill="#FEFECE" filter="url(#flepy9b800fk7)" height="30.2969" style="stroke: #A80036; stroke-width: 1.5;" width="41" x="622" y="381.6563"/><text fill="#000000" font-family="sans-serif" font-size="14" lengthAdjust="spacingAndGlyphs" textLength="27" x="629" y="401.6514">SAP</text><rect fill="#FEFECE" filter="url(#flepy9b800fk7)" height="30.2969" style="stroke: #A80036; stroke-width: 1.5;" width="77" x="677" y="19.2969"/><text fill="#000000" font-family="sans-serif" font-size="14" lengthAdjust="spacingAndGlyphs" textLength="63" x="684" y="39.292">SAP CRM</text><rect fill="#FEFECE" filter="url(#flepy9b800fk7)" height="30.2969" style="stroke: #A80036; stroke-width: 1.5;" width="77" x="677" y="381.6563"/><text fill="#000000" font-family="sans-serif" font-size="14" lengthAdjust="spacingAndGlyphs" textLength="63" x="684" y="401.6514">SAP CRM</text><rect fill="#FEFECE" filter="url(#flepy9b800fk7)" height="46.5938" style="stroke: #A80036; stroke-width: 1.5;" width="165" x="768" y="3"/><ellipse cx="786" cy="21" fill="#ADD1B2" rx="11" ry="11" style="stroke: #A80036; stroke-width: 1.0;"/><path d="M784.2969,21.875 L784.2969,24.2969 L788.6563,24.2969 L788.6563,23.4219 C788.6563,22.9375 788.6875,22.7969 788.7969,22.6406 C788.9688,22.3906 789.2344,22.2813 789.5,22.2813 C789.7813,22.2813 790.0625,22.4375 790.2344,22.6875 C790.3125,22.8438 790.3438,22.9844 790.3438,23.4219 L790.3438,26 L782.3438,26 C781.9531,26 781.7188,25.9531 781.5781,25.8281 C781.3594,25.6719 781.2188,25.4219 781.2188,25.1563 C781.2188,24.8594 781.375,24.5938 781.625,24.4219 C781.7813,24.3125 781.9375,24.2969 782.3438,24.2969 L782.5938,24.2969 L782.5938,17.7813 L782.3438,17.7813 C781.9219,17.7813 781.7344,17.75 781.5781,17.6406 C781.3594,17.4688 781.2188,17.2188 781.2188,16.9375 C781.2188,16.6563 781.375,16.3594 781.625,16.2031 C781.7813,16.1094 781.9063,16.0938 782.3438,16.0938 L789.9688,16.0938 L789.9688,18.6406 C789.9688,19.1094 789.9375,19.25 789.8281,19.4219 C789.6563,19.6406 789.3906,19.7813 789.125,19.7813 C788.8438,19.7813 788.5625,19.625 788.3906,19.375 C788.3125,19.2188 788.2813,19.0469 788.2813,18.6406 L788.2813,17.7813 L784.2969,17.7813 L784.2969,20.1875 L785.75,20.1875 L785.75,20.0625 C785.75,19.6094 785.7813,19.4531 785.8906,19.2813 C786.0625,19.0625 786.3281,18.9219 786.5781,18.9219 C787.0313,18.9219 787.3438,19.2344 787.4063,19.7031 C787.4219,19.8594 787.4219,19.9063 787.4219,20.0625 L787.4219,21.9844 C787.4219,22.4375 787.3906,22.5938 787.2656,22.75 C787.1094,22.9688 786.8438,23.1094 786.5938,23.1094 C786.2969,23.1094 786.0156,22.9531 785.8594,22.7031 C785.7813,22.5469 785.75,22.3906 785.75,21.9844 L785.75,21.875 Z "/><text fill="#000000" font-family="sans-serif" font-size="14" font-style="italic" lengthAdjust="spacingAndGlyphs" textLength="58" x="835.5" y="24">«Event»</text><text fill="#000000" font-family="sans-serif" font-size="14" lengthAdjust="spacingAndGlyphs" textLength="123" x="803" y="40.2969">CustomerCreated</text><rect fill="#FEFECE" filter="url(#flepy9b800fk7)" height="46.5938" style="stroke: #A80036; stroke-width: 1.5;" width="165" x="768" y="381.6563"/><ellipse cx="786" cy="399.6563" fill="#ADD1B2" rx="11" ry="11" style="stroke: #A80036; stroke-width: 1.0;"/><path d="M784.2969,400.5313 L784.2969,402.9531 L788.6563,402.9531 L788.6563,402.0781 C788.6563,401.5938 788.6875,401.4531 788.7969,401.2969 C788.9688,401.0469 789.2344,400.9375 789.5,400.9375 C789.7813,400.9375 790.0625,401.0938 790.2344,401.3438 C790.3125,401.5 790.3438,401.6406 790.3438,402.0781 L790.3438,404.6563 L782.3438,404.6563 C781.9531,404.6563 781.7188,404.6094 781.5781,404.4844 C781.3594,404.3281 781.2188,404.0781 781.2188,403.8125 C781.2188,403.5156 781.375,403.25 781.625,403.0781 C781.7813,402.9688 781.9375,402.9531 782.3438,402.9531 L782.5938,402.9531 L782.5938,396.4375 L782.3438,396.4375 C781.9219,396.4375 781.7344,396.4063 781.5781,396.2969 C781.3594,396.125 781.2188,395.875 781.2188,395.5938 C781.2188,395.3125 781.375,395.0156 781.625,394.8594 C781.7813,394.7656 781.9063,394.75 782.3438,394.75 L789.9688,394.75 L789.9688,397.2969 C789.9688,397.7656 789.9375,397.9063 789.8281,398.0781 C789.6563,398.2969 789.3906,398.4375 789.125,398.4375 C788.8438,398.4375 788.5625,398.2813 788.3906,398.0313 C788.3125,397.875 788.2813,397.7031 788.2813,397.2969 L788.2813,396.4375 L784.2969,396.4375 L784.2969,398.8438 L785.75,398.8438 L785.75,398.7188 C785.75,398.2656 785.7813,398.1094 785.8906,397.9375 C786.0625,397.7188 786.3281,397.5781 786.5781,397.5781 C787.0313,397.5781 787.3438,397.8906 787.4063,398.3594 C787.4219,398.5156 787.4219,398.5625 787.4219,398.7188 L787.4219,400.6406 C787.4219,401.0938 787.3906,401.25 787.2656,401.4063 C787.1094,401.625 786.8438,401.7656 786.5938,401.7656 C786.2969,401.7656 786.0156,401.6094 785.8594,401.3594 C785.7813,401.2031 785.75,401.0469 785.75,400.6406 L785.75,400.5313 Z "/><text fill="#000000" font-family="sans-serif" font-size="14" font-style="italic" lengthAdjust="spacingAndGlyphs" textLength="58" x="835.5" y="402.6563">«Event»</text><text fill="#000000" font-family="sans-serif" font-size="14" lengthAdjust="spacingAndGlyphs" textLength="123" x="803" y="418.9531">CustomerCreated</text><rect fill="#FEFECE" filter="url(#flepy9b800fk7)" height="46.5938" style="stroke: #A80036; stroke-width: 1.5;" width="135" x="947" y="3"/><ellipse cx="965" cy="21" fill="#ADD1B2" rx="11" ry="11" style="stroke: #A80036; stroke-width: 1.0;"/><path d="M963.2969,21.875 L963.2969,24.2969 L967.6563,24.2969 L967.6563,23.4219 C967.6563,22.9375 967.6875,22.7969 967.7969,22.6406 C967.9688,22.3906 968.2344,22.2813 968.5,22.2813 C968.7813,22.2813 969.0625,22.4375 969.2344,22.6875 C969.3125,22.8438 969.3438,22.9844 969.3438,23.4219 L969.3438,26 L961.3438,26 C960.9531,26 960.7188,25.9531 960.5781,25.8281 C960.3594,25.6719 960.2188,25.4219 960.2188,25.1563 C960.2188,24.8594 960.375,24.5938 960.625,24.4219 C960.7813,24.3125 960.9375,24.2969 961.3438,24.2969 L961.5938,24.2969 L961.5938,17.7813 L961.3438,17.7813 C960.9219,17.7813 960.7344,17.75 960.5781,17.6406 C960.3594,17.4688 960.2188,17.2188 960.2188,16.9375 C960.2188,16.6563 960.375,16.3594 960.625,16.2031 C960.7813,16.1094 960.9063,16.0938 961.3438,16.0938 L968.9688,16.0938 L968.9688,18.6406 C968.9688,19.1094 968.9375,19.25 968.8281,19.4219 C968.6563,19.6406 968.3906,19.7813 968.125,19.7813 C967.8438,19.7813 967.5625,19.625 967.3906,19.375 C967.3125,19.2188 967.2813,19.0469 967.2813,18.6406 L967.2813,17.7813 L963.2969,17.7813 L963.2969,20.1875 L964.75,20.1875 L964.75,20.0625 C964.75,19.6094 964.7813,19.4531 964.8906,19.2813 C965.0625,19.0625 965.3281,18.9219 965.5781,18.9219 C966.0313,18.9219 966.3438,19.2344 966.4063,19.7031 C966.4219,19.8594 966.4219,19.9063 966.4219,20.0625 L966.4219,21.9844 C966.4219,22.4375 966.3906,22.5938 966.2656,22.75 C966.1094,22.9688 965.8438,23.1094 965.5938,23.1094 C965.2969,23.1094 965.0156,22.9531 964.8594,22.7031 C964.7813,22.5469 964.75,22.3906 964.75,21.9844 L964.75,21.875 Z "/><text fill="#000000" font-family="sans-serif" font-size="14" font-style="italic" lengthAdjust="spacingAndGlyphs" textLength="58" x="999.5" y="24">«Event»</text><text fill="#000000" font-family="sans-serif" font-size="14" lengthAdjust="spacingAndGlyphs" textLength="93" x="982" y="40.2969">LogCustomer</text><rect fill="#FEFECE" filter="url(#flepy9b800fk7)" height="46.5938" style="stroke: #A80036; stroke-width: 1.5;" width="135" x="947" y="381.6563"/><ellipse cx="965" cy="399.6563" fill="#ADD1B2" rx="11" ry="11" style="stroke: #A80036; stroke-width: 1.0;"/><path d="M963.2969,400.5313 L963.2969,402.9531 L967.6563,402.9531 L967.6563,402.0781 C967.6563,401.5938 967.6875,401.4531 967.7969,401.2969 C967.9688,401.0469 968.2344,400.9375 968.5,400.9375 C968.7813,400.9375 969.0625,401.0938 969.2344,401.3438 C969.3125,401.5 969.3438,401.6406 969.3438,402.0781 L969.3438,404.6563 L961.3438,404.6563 C960.9531,404.6563 960.7188,404.6094 960.5781,404.4844 C960.3594,404.3281 960.2188,404.0781 960.2188,403.8125 C960.2188,403.5156 960.375,403.25 960.625,403.0781 C960.7813,402.9688 960.9375,402.9531 961.3438,402.9531 L961.5938,402.9531 L961.5938,396.4375 L961.3438,396.4375 C960.9219,396.4375 960.7344,396.4063 960.5781,396.2969 C960.3594,396.125 960.2188,395.875 960.2188,395.5938 C960.2188,395.3125 960.375,395.0156 960.625,394.8594 C960.7813,394.7656 960.9063,394.75 961.3438,394.75 L968.9688,394.75 L968.9688,397.2969 C968.9688,397.7656 968.9375,397.9063 968.8281,398.0781 C968.6563,398.2969 968.3906,398.4375 968.125,398.4375 C967.8438,398.4375 967.5625,398.2813 967.3906,398.0313 C967.3125,397.875 967.2813,397.7031 967.2813,397.2969 L967.2813,396.4375 L963.2969,396.4375 L963.2969,398.8438 L964.75,398.8438 L964.75,398.7188 C964.75,398.2656 964.7813,398.1094 964.8906,397.9375 C965.0625,397.7188 965.3281,397.5781 965.5781,397.5781 C966.0313,397.5781 966.3438,397.8906 966.4063,398.3594 C966.4219,398.5156 966.4219,398.5625 966.4219,398.7188 L966.4219,400.6406 C966.4219,401.0938 966.3906,401.25 966.2656,401.4063 C966.1094,401.625 965.8438,401.7656 965.5938,401.7656 C965.2969,401.7656 965.0156,401.6094 964.8594,401.3594 C964.7813,401.2031 964.75,401.0469 964.75,400.6406 L964.75,400.5313 Z "/><text fill="#000000" font-family="sans-serif" font-size="14" font-style="italic" lengthAdjust="spacingAndGlyphs" textLength="58" x="999.5" y="402.6563">«Event»</text><text fill="#000000" font-family="sans-serif" font-size="14" lengthAdjust="spacingAndGlyphs" textLength="93" x="982" y="418.9531">LogCustomer</text><rect fill="#FFFFFF" filter="url(#flepy9b800fk7)" height="87.3984" style="stroke: #A80036; stroke-width: 1.0;" width="10" x="583.5" y="248.125"/><rect fill="#FFFFFF" filter="url(#flepy9b800fk7)" height="29.1328" style="stroke: #A80036; stroke-width: 1.0;" width="10" x="639.5" y="277.2578"/><ellipse cx="89.5" cy="84.9766" fill="none" rx="4" ry="4" style="stroke: #A80036; stroke-width: 1.5;"/><polygon fill="#A80036" points="365,81.7266,375,85.7266,365,89.7266,369,85.7266" style="stroke: #A80036; stroke-width: 1.0;"/><line style="stroke: #A80036; stroke-width: 1.0;" x1="94" x2="371" y1="85.7266" y2="85.7266"/><text fill="#000000" font-family="sans-serif" font-size="13" lengthAdjust="spacingAndGlyphs" textLength="263" x="97" y="80.6606">(name:String) -&gt; (id:String) -&gt; Customer</text><ellipse cx="852" cy="139.1094" fill="none" rx="4" ry="4" style="stroke: #A80036; stroke-width: 1.5;"/><polygon fill="#A80036" points="835,135.8594,845,139.8594,835,143.8594,839,139.8594" style="stroke: #A80036; stroke-width: 1.0;"/><line style="stroke: #A80036; stroke-width: 1.0;" x1="377" x2="841" y1="139.8594" y2="139.8594"/><text fill="#000000" font-family="sans-serif" font-size="13" lengthAdjust="spacingAndGlyphs" textLength="63" x="384" y="134.7935">Customer</text><ellipse cx="1016" cy="193.2422" fill="none" rx="4" ry="4" style="stroke: #A80036; stroke-width: 1.5;"/><polygon fill="#A80036" points="999,189.9922,1009,193.9922,999,197.9922,1003,193.9922" style="stroke: #A80036; stroke-width: 1.0;"/><line style="stroke: #A80036; stroke-width: 1.0;" x1="377" x2="1005" y1="193.9922" y2="193.9922"/><text fill="#000000" font-family="sans-serif" font-size="13" lengthAdjust="spacingAndGlyphs" textLength="209" x="384" y="188.9263">(customer:Customer) -&gt; ILogger</text><polygon fill="#A80036" points="571.5,244.125,581.5,248.125,571.5,252.125,575.5,248.125" style="stroke: #A80036; stroke-width: 1.0;"/><line style="stroke: #A80036; stroke-width: 1.0;" x1="474.5" x2="577.5" y1="248.125" y2="248.125"/><text fill="#000000" font-family="sans-serif" font-size="13" lengthAdjust="spacingAndGlyphs" textLength="90" x="481.5" y="243.0591">(one:Number)</text><polygon fill="#A80036" points="627.5,273.2578,637.5,277.2578,627.5,281.2578,631.5,277.2578" style="stroke: #A80036; stroke-width: 1.0;"/><line style="stroke: #A80036; stroke-width: 1.0;" x1="593.5" x2="633.5" y1="277.2578" y2="277.2578"/><text fill="#000000" font-family="sans-serif" font-size="13" lengthAdjust="spacingAndGlyphs" textLength="23" x="600.5" y="272.1919">Foo</text><polygon fill="#A80036" points="604.5,302.3906,594.5,306.3906,604.5,310.3906,600.5,306.3906" style="stroke: #A80036; stroke-width: 1.0;"/><line style="stroke: #A80036; stroke-width: 1.0; stroke-dasharray: 2.0,2.0;" x1="598.5" x2="643.5" y1="306.3906" y2="306.3906"/><text fill="#000000" font-family="sans-serif" font-size="13" lengthAdjust="spacingAndGlyphs" textLength="22" x="610.5" y="301.3247">Bar</text><polygon fill="#A80036" points="485.5,331.5234,475.5,335.5234,485.5,339.5234,481.5,335.5234" style="stroke: #A80036; stroke-width: 1.0;"/><line style="stroke: #A80036; stroke-width: 1.0; stroke-dasharray: 2.0,2.0;" x1="479.5" x2="587.5" y1="335.5234" y2="335.5234"/><text fill="#000000" font-family="sans-serif" font-size="13" lengthAdjust="spacingAndGlyphs" textLength="22" x="491.5" y="330.4575">Bar</text><ellipse cx="474" cy="363.9063" fill="none" rx="4" ry="4" style="stroke: #A80036; stroke-width: 1.5;"/><polygon fill="#A80036" points="705.5,360.6563,715.5,364.6563,705.5,368.6563,709.5,364.6563" style="stroke: #A80036; stroke-width: 1.0;"/><line style="stroke: #A80036; stroke-width: 1.0;" x1="478.5" x2="711.5" y1="364.6563" y2="364.6563"/><text fill="#000000" font-family="sans-serif" font-size="13" lengthAdjust="spacingAndGlyphs" textLength="22" x="481.5" y="359.5903">Bar</text><!--
@startuml
participant "Customer Service" as Customer_Service order 0
participant "Create Customer" << (E,#ADD1B2) Event >> order -100
"Create Customer" o-> Customer_Service : (name:String) -> (id:String) -> Customer
||25||
        

participant "Customer Service" as Customer_Service order 2
participant "CustomerCreated" << (E,#ADD1B2) Event >> order 102
Customer_Service ->o "CustomerCreated" : Customer
||25||
        

participant "Customer Service" as Customer_Service order 4
participant "LogCustomer" << (E,#ADD1B2) Event >> order 104
Customer_Service ->o "LogCustomer" : (customer:Customer) -> ILogger
||25||
        

participant "FS" as FS order 6
participant "ES" as ES order 7

FS -> ES : (one:Number)
activate ES
        

participant "ES" as ES order 8
participant "SAP" as SAP order 9

ES -> SAP : Foo
activate SAP
        

SAP - -> ES : Bar
deactivate SAP
        

ES - -> FS : Bar
deactivate ES
        

participant "FS" as FS order 10
participant "SAP CRM" as SAP_CRM order 11

FS o-> SAP_CRM : Bar
@enduml

PlantUML version 1.2019.05(Sat Apr 20 16:45:36 UTC 2019)
(GPL source distribution)
Java Runtime: Java(TM) SE Runtime Environment
JVM: Java HotSpot(TM) 64-Bit Server VM
Java Version: 1.7.0_25-b15
Operating System: Linux
Default Encoding: UTF-8
Language: en
Country: US
--></g></svg>