<?xml version="1.0" encoding="UTF-8" standalone="no"?><svg xmlns="http://www.w3.org/2000/svg" xmlns:xlink="http://www.w3.org/1999/xlink" contentScriptType="application/ecmascript" contentStyleType="text/css" height="144px" preserveAspectRatio="none" style="width:204px;height:144px;" version="1.1" viewBox="0 0 204 144" width="204px" zoomAndPan="magnify"><defs><filter height="300%" id="f84gncj7ug85q" width="300%" x="-1" y="-1"><feGaussianBlur result="blurOut" stdDeviation="2.0"/><feColorMatrix in="blurOut" result="blurOut2" type="matrix" values="0 0 0 0 0 0 0 0 0 0 0 0 0 0 0 0 0 0 .4 0"/><feOffset dx="4.0" dy="4.0" in="blurOut2" result="blurOut3"/><feBlend in="SourceGraphic" in2="blurOut3" mode="normal"/></filter></defs><g><ellipse cx="27.3848" cy="22.5236" fill="#FEFECE" filter="url(#f84gncj7ug85q)" rx="21.3848" ry="14.5236" style="stroke: #A80036; stroke-width: 1.5;"/><text fill="#000000" font-family="sans-serif" font-size="14" lengthAdjust="spacingAndGlyphs" textLength="26" x="14.3848" y="27.1721">Foo</text><ellipse cx="27.2635" cy="86.5236" fill="#FEFECE" filter="url(#f84gncj7ug85q)" rx="19.2635" ry="14.5236" style="stroke: #A80036; stroke-width: 1.5;"/><text fill="#000000" font-family="sans-serif" font-size="14" lengthAdjust="spacingAndGlyphs" textLength="23" x="15.7635" y="91.1721">Bar</text><ellipse cx="144.4558" cy="54.5236" fill="#FEFECE" filter="url(#f84gncj7ug85q)" rx="28.4558" ry="14.5236" style="stroke: #A80036; stroke-width: 1.5;"/><text fill="#000000" font-family="sans-serif" font-size="14" lengthAdjust="spacingAndGlyphs" textLength="36" x="126.4558" y="59.1721">Duck</text><ellipse cx="144.5269" cy="118.5236" fill="#FEFECE" filter="url(#f84gncj7ug85q)" rx="35.5269" ry="14.5236" style="stroke: #A80036; stroke-width: 1.5;"/><text fill="#000000" font-family="sans-serif" font-size="14" lengthAdjust="spacingAndGlyphs" textLength="46" x="121.5269" y="123.1721">Goose</text><!--link Foo to Bar--><path d="M18,35.7608 C18,35.7608 18,68.6929 18,68.6929 " fill="none" id="Foo-Bar" style="stroke: #A80036; stroke-width: 1.0;"/><polygon fill="#A80036" points="18,73.6929,22,64.6929,18,68.6929,14,64.6929,18,73.6929" style="stroke: #A80036; stroke-width: 1.0;"/><!--link Bar to Duck--><path d="M28,71.998 C28,63.5312 28,54.5 28,54.5 C28,54.5 110.702,54.5 110.702,54.5 " fill="none" id="Bar-Duck" style="stroke: #A80036; stroke-width: 1.0;"/><polygon fill="#A80036" points="115.702,54.5,106.702,50.5,110.702,54.5,106.702,58.5,115.702,54.5" style="stroke: #A80036; stroke-width: 1.0;"/><!--link Duck to Duck--><path d="M119.68,61.75 C115.776,61.75 113,61.75 113,61.75 C113,61.75 113,86.5 113,86.5 C113,86.5 177,86.5 177,86.5 C177,86.5 177,54.5 177,54.5 C177,54.5 176.601,54.5 176.601,54.5 " fill="none" id="Duck-Duck" style="stroke: #A80036; stroke-width: 1.0;"/><polygon fill="#A80036" points="173.015,54.5,182.015,58.5,178.015,54.5,182.015,50.5,173.015,54.5" style="stroke: #A80036; stroke-width: 1.0;"/><!--link Duck to Goose--><path d="M145,69.0226 C145,69.0226 145,98.5907 145,98.5907 " fill="none" id="Duck-Goose" style="stroke: #A80036; stroke-width: 1.0;"/><polygon fill="#A80036" points="145,103.5907,149,94.5907,145,98.5907,141,94.5907,145,103.5907" style="stroke: #A80036; stroke-width: 1.0;"/><!--link Foo to Duck--><!--
@startuml
skinparam linetype ortho
left to right direction

(Foo) -> (Bar)
(Bar) -> (Duck)


(Duck) -> (Duck)
(Duck) -> (Goose)

(Foo) -[hidden]-> (Duck)
@enduml

PlantUML version 1.2019.05(Sat Apr 20 16:45:36 UTC 2019)
(GPL source distribution)
Java Runtime: Java(TM) SE Runtime Environment
JVM: Java HotSpot(TM) 64-Bit Server VM
Java Version: 1.7.0_25-b15
Operating System: Linux
Default Encoding: UTF-8
Language: en
Country: US
--></g></svg>