<?xml version="1.0" encoding="UTF-8" standalone="no"?><svg xmlns="http://www.w3.org/2000/svg" xmlns:xlink="http://www.w3.org/1999/xlink" contentScriptType="application/ecmascript" contentStyleType="text/css" height="131px" preserveAspectRatio="none" style="width:369px;height:131px;" version="1.1" viewBox="0 0 369 131" width="369px" zoomAndPan="magnify"><defs><filter height="300%" id="ffa3x1mw87pvp" width="300%" x="-1" y="-1"><feGaussianBlur result="blurOut" stdDeviation="2.0"/><feColorMatrix in="blurOut" result="blurOut2" type="matrix" values="0 0 0 0 0 0 0 0 0 0 0 0 0 0 0 0 0 0 .4 0"/><feOffset dx="4.0" dy="4.0" in="blurOut2" result="blurOut3"/><feBlend in="SourceGraphic" in2="blurOut3" mode="normal"/></filter></defs><g><!--class Human--><rect fill="#FEFECE" filter="url(#ffa3x1mw87pvp)" height="112.0234" id="Human" style="stroke: #A80036; stroke-width: 1.5;" width="154" x="6" y="8"/><ellipse cx="56.75" cy="24" fill="#ADD1B2" rx="11" ry="11" style="stroke: #A80036; stroke-width: 1.0;"/><path d="M59.0938,19.6719 L59.2656,19.75 C59.4844,19.4375 59.6875,19.3438 59.9844,19.3438 C60.2813,19.3438 60.5625,19.4844 60.7188,19.75 C60.8125,19.9063 60.8281,20.0313 60.8281,20.4688 L60.8281,21.8906 C60.8281,22.3125 60.7969,22.5 60.6875,22.6563 C60.5156,22.875 60.25,23.0156 59.9844,23.0156 C59.7656,23.0156 59.5313,22.9063 59.3906,22.7656 C59.25,22.6406 59.2188,22.5156 59.1563,22.1094 C59.0625,21.7031 58.8906,21.4844 58.4063,21.2031 C57.9375,20.9531 57.3281,20.7969 56.75,20.7969 C55.0156,20.7969 53.7656,22.1094 53.7656,23.8906 L53.7656,24.9844 C53.7656,26.6875 55.0625,27.7813 57.1094,27.7813 C57.875,27.7813 58.5625,27.6563 58.9844,27.3906 C59.1719,27.2969 59.1719,27.2969 59.625,26.8125 C59.8125,26.625 60.0156,26.5469 60.2344,26.5469 C60.7031,26.5469 61.0938,26.9375 61.0938,27.3906 C61.0938,27.7813 60.7656,28.2344 60.1875,28.6406 C59.4375,29.1875 58.2813,29.4844 57.0625,29.4844 C54.1719,29.4844 52.0625,27.5938 52.0625,25.0156 L52.0625,23.8906 C52.0625,21.1719 54.0625,19.0938 56.6875,19.0938 C57.5625,19.0938 58.1563,19.2344 59.0938,19.6719 Z "/><text fill="#000000" font-family="sans-serif" font-size="12" lengthAdjust="spacingAndGlyphs" textLength="44" x="77.25" y="28.1543">Human</text><line style="stroke: #A80036; stroke-width: 1.5;" x1="7" x2="159" y1="40" y2="40"/><text fill="#000000" font-family="sans-serif" font-size="11" lengthAdjust="spacingAndGlyphs" textLength="140" x="12" y="54.2104">FirstName: Maybe String</text><text fill="#000000" font-family="sans-serif" font-size="11" lengthAdjust="spacingAndGlyphs" textLength="99" x="12" y="67.0151">LastName: String</text><text fill="#000000" font-family="sans-serif" font-size="11" lengthAdjust="spacingAndGlyphs" textLength="142" x="12" y="79.8198">MiddleNames: List String</text><text fill="#000000" font-family="sans-serif" font-size="11" lengthAdjust="spacingAndGlyphs" textLength="100" x="12" y="92.6245">DateOfBirth: Date</text><line style="stroke: #A80036; stroke-width: 1.0;" x1="7" x2="159" y1="99.2188" y2="99.2188"/><line style="stroke: #A80036; stroke-width: 1.0;" x1="7" x2="159" y1="101.2188" y2="101.2188"/><text fill="#000000" font-family="sans-serif" font-size="11" font-weight="bold" lengthAdjust="spacingAndGlyphs" textLength="21" x="12" y="113.4292">erd</text><text fill="#000000" font-family="sans-serif" font-size="11" lengthAdjust="spacingAndGlyphs" textLength="25" x="33" y="113.4292">: full</text><!--class Person--><rect fill="#FEFECE" filter="url(#ffa3x1mw87pvp)" height="86.4141" id="Person" style="stroke: #A80036; stroke-width: 1.5;" width="163" x="195.5" y="21"/><ellipse cx="250.75" cy="37" fill="#ADD1B2" rx="11" ry="11" style="stroke: #A80036; stroke-width: 1.0;"/><path d="M253.0938,32.6719 L253.2656,32.75 C253.4844,32.4375 253.6875,32.3438 253.9844,32.3438 C254.2813,32.3438 254.5625,32.4844 254.7188,32.75 C254.8125,32.9063 254.8281,33.0313 254.8281,33.4688 L254.8281,34.8906 C254.8281,35.3125 254.7969,35.5 254.6875,35.6563 C254.5156,35.875 254.25,36.0156 253.9844,36.0156 C253.7656,36.0156 253.5313,35.9063 253.3906,35.7656 C253.25,35.6406 253.2188,35.5156 253.1563,35.1094 C253.0625,34.7031 252.8906,34.4844 252.4063,34.2031 C251.9375,33.9531 251.3281,33.7969 250.75,33.7969 C249.0156,33.7969 247.7656,35.1094 247.7656,36.8906 L247.7656,37.9844 C247.7656,39.6875 249.0625,40.7813 251.1094,40.7813 C251.875,40.7813 252.5625,40.6563 252.9844,40.3906 C253.1719,40.2969 253.1719,40.2969 253.625,39.8125 C253.8125,39.625 254.0156,39.5469 254.2344,39.5469 C254.7031,39.5469 255.0938,39.9375 255.0938,40.3906 C255.0938,40.7813 254.7656,41.2344 254.1875,41.6406 C253.4375,42.1875 252.2813,42.4844 251.0625,42.4844 C248.1719,42.4844 246.0625,40.5938 246.0625,38.0156 L246.0625,36.8906 C246.0625,34.1719 248.0625,32.0938 250.6875,32.0938 C251.5625,32.0938 252.1563,32.2344 253.0938,32.6719 Z "/><text fill="#000000" font-family="sans-serif" font-size="12" lengthAdjust="spacingAndGlyphs" textLength="44" x="271.25" y="41.1543">Person</text><line style="stroke: #A80036; stroke-width: 1.5;" x1="196.5" x2="357.5" y1="53" y2="53"/><text fill="#000000" font-family="sans-serif" font-size="11" lengthAdjust="spacingAndGlyphs" textLength="151" x="201.5" y="67.2104">FuurstName: Maybe String</text><text fill="#000000" font-family="sans-serif" font-size="11" lengthAdjust="spacingAndGlyphs" textLength="99" x="201.5" y="80.0151">LastName: String</text><text fill="#000000" font-family="sans-serif" font-size="11" lengthAdjust="spacingAndGlyphs" textLength="113" x="201.5" y="92.8198">CallingName: String</text><line style="stroke: #A80036; stroke-width: 1.5;" x1="196.5" x2="357.5" y1="99.4141" y2="99.4141"/><!--
@startuml
class "Human" as Human  {
	FirstName: Maybe String
	LastName: String 
	MiddleNames: List String
	DateOfBirth: Date 
===
  <b>erd</b>: full
}
class "Person" as Person  {
	FuurstName: Maybe String
	LastName: String 
	CallingName: String 
}
@enduml

PlantUML version 1.2019.07beta1(Unknown compile time)
(GPL source distribution)
Java Runtime: Java(TM) SE Runtime Environment
JVM: Java HotSpot(TM) 64-Bit Server VM
Java Version: 1.7.0_25-b15
Operating System: Linux
Default Encoding: UTF-8
Language: en
Country: US
--></g></svg>