<?xml version="1.0" encoding="UTF-8" standalone="no"?><svg xmlns="http://www.w3.org/2000/svg" xmlns:xlink="http://www.w3.org/1999/xlink" contentScriptType="application/ecmascript" contentStyleType="text/css" height="118px" preserveAspectRatio="none" style="width:369px;height:118px;" version="1.1" viewBox="0 0 369 118" width="369px" zoomAndPan="magnify"><defs><filter height="300%" id="f31drnql8q2kr" width="300%" x="-1" y="-1"><feGaussianBlur result="blurOut" stdDeviation="2.0"/><feColorMatrix in="blurOut" result="blurOut2" type="matrix" values="0 0 0 0 0 0 0 0 0 0 0 0 0 0 0 0 0 0 .4 0"/><feOffset dx="4.0" dy="4.0" in="blurOut2" result="blurOut3"/><feBlend in="SourceGraphic" in2="blurOut3" mode="normal"/></filter></defs><g><!--class Human--><rect fill="#FEFECE" filter="url(#f31drnql8q2kr)" height="99.2188" id="Human" style="stroke: #A80036; stroke-width: 1.5;" width="154" x="6" y="8"/><ellipse cx="56.75" cy="24" fill="#ADD1B2" rx="11" ry="11" style="stroke: #A80036; stroke-width: 1.0;"/><path d="M59.0938,19.6719 L59.2656,19.75 C59.4844,19.4375 59.6875,19.3438 59.9844,19.3438 C60.2813,19.3438 60.5625,19.4844 60.7188,19.75 C60.8125,19.9063 60.8281,20.0313 60.8281,20.4688 L60.8281,21.8906 C60.8281,22.3125 60.7969,22.5 60.6875,22.6563 C60.5156,22.875 60.25,23.0156 59.9844,23.0156 C59.7656,23.0156 59.5313,22.9063 59.3906,22.7656 C59.25,22.6406 59.2188,22.5156 59.1563,22.1094 C59.0625,21.7031 58.8906,21.4844 58.4063,21.2031 C57.9375,20.9531 57.3281,20.7969 56.75,20.7969 C55.0156,20.7969 53.7656,22.1094 53.7656,23.8906 L53.7656,24.9844 C53.7656,26.6875 55.0625,27.7813 57.1094,27.7813 C57.875,27.7813 58.5625,27.6563 58.9844,27.3906 C59.1719,27.2969 59.1719,27.2969 59.625,26.8125 C59.8125,26.625 60.0156,26.5469 60.2344,26.5469 C60.7031,26.5469 61.0938,26.9375 61.0938,27.3906 C61.0938,27.7813 60.7656,28.2344 60.1875,28.6406 C59.4375,29.1875 58.2813,29.4844 57.0625,29.4844 C54.1719,29.4844 52.0625,27.5938 52.0625,25.0156 L52.0625,23.8906 C52.0625,21.1719 54.0625,19.0938 56.6875,19.0938 C57.5625,19.0938 58.1563,19.2344 59.0938,19.6719 Z "/><text fill="#000000" font-family="sans-serif" font-size="12" lengthAdjust="spacingAndGlyphs" textLength="44" x="77.25" y="28.1543">Human</text><line style="stroke: #A80036; stroke-width: 1.5;" x1="7" x2="159" y1="40" y2="40"/><text fill="#000000" font-family="sans-serif" font-size="11" lengthAdjust="spacingAndGlyphs" textLength="140" x="12" y="54.2104">FirstName: Maybe String</text><text fill="#000000" font-family="sans-serif" font-size="11" lengthAdjust="spacingAndGlyphs" textLength="99" x="12" y="67.0151">LastName: String</text><text fill="#000000" font-family="sans-serif" font-size="11" lengthAdjust="spacingAndGlyphs" textLength="142" x="12" y="79.8198">MiddleNames: List String</text><text fill="#000000" font-family="sans-serif" font-size="11" lengthAdjust="spacingAndGlyphs" textLength="100" x="12" y="92.6245">DateOfBirth: Date</text><line style="stroke: #A80036; stroke-width: 1.5;" x1="7" x2="159" y1="99.2188" y2="99.2188"/><!--class Person--><rect fill="#FEFECE" filter="url(#f31drnql8q2kr)" height="86.4141" id="Person" style="stroke: #A80036; stroke-width: 1.5;" width="163" x="195.5" y="14.5"/><ellipse cx="250.75" cy="30.5" fill="#ADD1B2" rx="11" ry="11" style="stroke: #A80036; stroke-width: 1.0;"/><path d="M253.0938,26.1719 L253.2656,26.25 C253.4844,25.9375 253.6875,25.8438 253.9844,25.8438 C254.2813,25.8438 254.5625,25.9844 254.7188,26.25 C254.8125,26.4063 254.8281,26.5313 254.8281,26.9688 L254.8281,28.3906 C254.8281,28.8125 254.7969,29 254.6875,29.1563 C254.5156,29.375 254.25,29.5156 253.9844,29.5156 C253.7656,29.5156 253.5313,29.4063 253.3906,29.2656 C253.25,29.1406 253.2188,29.0156 253.1563,28.6094 C253.0625,28.2031 252.8906,27.9844 252.4063,27.7031 C251.9375,27.4531 251.3281,27.2969 250.75,27.2969 C249.0156,27.2969 247.7656,28.6094 247.7656,30.3906 L247.7656,31.4844 C247.7656,33.1875 249.0625,34.2813 251.1094,34.2813 C251.875,34.2813 252.5625,34.1563 252.9844,33.8906 C253.1719,33.7969 253.1719,33.7969 253.625,33.3125 C253.8125,33.125 254.0156,33.0469 254.2344,33.0469 C254.7031,33.0469 255.0938,33.4375 255.0938,33.8906 C255.0938,34.2813 254.7656,34.7344 254.1875,35.1406 C253.4375,35.6875 252.2813,35.9844 251.0625,35.9844 C248.1719,35.9844 246.0625,34.0938 246.0625,31.5156 L246.0625,30.3906 C246.0625,27.6719 248.0625,25.5938 250.6875,25.5938 C251.5625,25.5938 252.1563,25.7344 253.0938,26.1719 Z "/><text fill="#000000" font-family="sans-serif" font-size="12" lengthAdjust="spacingAndGlyphs" textLength="44" x="271.25" y="34.6543">Person</text><line style="stroke: #A80036; stroke-width: 1.5;" x1="196.5" x2="357.5" y1="46.5" y2="46.5"/><text fill="#000000" font-family="sans-serif" font-size="11" lengthAdjust="spacingAndGlyphs" textLength="151" x="201.5" y="60.7104">FuurstName: Maybe String</text><text fill="#000000" font-family="sans-serif" font-size="11" lengthAdjust="spacingAndGlyphs" textLength="99" x="201.5" y="73.5151">LastName: String</text><text fill="#000000" font-family="sans-serif" font-size="11" lengthAdjust="spacingAndGlyphs" textLength="113" x="201.5" y="86.3198">CallingName: String</text><line style="stroke: #A80036; stroke-width: 1.5;" x1="196.5" x2="357.5" y1="92.9141" y2="92.9141"/><!--
@startuml
class "Human" as Human  {
	FirstName: Maybe String
	LastName: String 
	MiddleNames: List String
	DateOfBirth: Date 
}
class "Person" as Person  {
	FuurstName: Maybe String
	LastName: String 
	CallingName: String 
}
@enduml

PlantUML version 1.2019.07beta1(Unknown compile time)
(GPL source distribution)
Java Runtime: Java(TM) SE Runtime Environment
JVM: Java HotSpot(TM) 64-Bit Server VM
Java Version: 1.7.0_25-b15
Operating System: Linux
Default Encoding: UTF-8
Language: en
Country: US
--></g></svg>