<?xml version="1.0" encoding="UTF-8" standalone="no"?><svg xmlns="http://www.w3.org/2000/svg" xmlns:xlink="http://www.w3.org/1999/xlink" contentScriptType="application/ecmascript" contentStyleType="text/css" height="131px" preserveAspectRatio="none" style="width:202px;height:131px;" version="1.1" viewBox="0 0 202 131" width="202px" zoomAndPan="magnify"><defs><filter height="300%" id="f1vsnm01wqfccz" width="300%" x="-1" y="-1"><feGaussianBlur result="blurOut" stdDeviation="2.0"/><feColorMatrix in="blurOut" result="blurOut2" type="matrix" values="0 0 0 0 0 0 0 0 0 0 0 0 0 0 0 0 0 0 .4 0"/><feOffset dx="4.0" dy="4.0" in="blurOut2" result="blurOut3"/><feBlend in="SourceGraphic" in2="blurOut3" mode="normal"/></filter></defs><g><!--class Currency--><rect fill="#FEFECE" filter="url(#f1vsnm01wqfccz)" height="112.0234" id="Currency" style="stroke: #A80036; stroke-width: 1.5;" width="185" x="6" y="8"/><ellipse cx="34.95" cy="24" fill="#DA70D6" rx="11" ry="11" style="stroke: #A80036; stroke-width: 1.0;"/><path d="M35.3875,21.5313 L35.3875,28.0469 L36.5125,28.0469 C36.9656,28.0469 37.1063,28.0781 37.2625,28.2031 C37.4969,28.375 37.6219,28.625 37.6219,28.9063 C37.6219,29.1875 37.4813,29.4844 37.2156,29.625 C37.1063,29.7031 36.8406,29.75 36.5125,29.75 L32.575,29.75 C32.1844,29.75 31.9656,29.7031 31.8094,29.5781 C31.5906,29.4219 31.45,29.1563 31.45,28.9063 C31.45,28.6094 31.6063,28.3281 31.8563,28.1719 C32.0125,28.0625 32.1375,28.0469 32.575,28.0469 L33.6844,28.0469 L33.6844,21.5313 L31.8563,21.5313 L31.8563,23.125 C31.8563,23.5781 31.825,23.7188 31.7156,23.8906 C31.5438,24.1094 31.2938,24.2344 31.0125,24.2344 C30.7313,24.2344 30.4344,24.0938 30.2781,23.8281 C30.2,23.6875 30.1688,23.5156 30.1688,23.125 L30.1688,19.8438 L38.9344,19.8438 L38.9344,23.125 C38.9344,23.5938 38.9188,23.7188 38.7781,23.8906 C38.6063,24.1094 38.3563,24.2344 38.0906,24.2344 C37.7938,24.2344 37.5125,24.0781 37.3563,23.8281 C37.2625,23.6875 37.2313,23.5156 37.2313,23.125 L37.2313,21.5313 Z "/><text fill="#000000" font-family="sans-serif" font-size="12" lengthAdjust="spacingAndGlyphs" textLength="122" x="52.05" y="28.1543">Currency sign value</text><line style="stroke: #A80036; stroke-width: 1.5;" x1="7" x2="190" y1="40" y2="40"/><text fill="#000000" font-family="sans-serif" font-size="11" lengthAdjust="spacingAndGlyphs" textLength="67" x="12" y="54.2104">Sign: String</text><text fill="#000000" font-family="sans-serif" font-size="11" lengthAdjust="spacingAndGlyphs" textLength="84" x="12" y="67.0151">Value: Number</text><line style="stroke: #A80036; stroke-width: 1.0;" x1="7" x2="190" y1="73.6094" y2="73.6094"/><text fill="#000000" font-family="sans-serif" font-size="11" font-weight="bold" lengthAdjust="spacingAndGlyphs" textLength="169" x="12" y="87.8198">Currency is expressen like</text><text fill="#000000" font-family="sans-serif" font-size="11" lengthAdjust="spacingAndGlyphs" textLength="4" x="181" y="87.8198">:</text><text fill="#000000" font-family="sans-serif" font-size="11" lengthAdjust="spacingAndGlyphs" textLength="39" x="12" y="100.6245">$12,00</text><text fill="#000000" font-family="sans-serif" font-size="11" lengthAdjust="spacingAndGlyphs" textLength="0" x="16" y="113.4292"/><!--
@startuml
class "Currency sign value" as Currency << (T,orchid) >> {
	Sign: String 
	Value: Number 
- -
  <b>Currency is expressen like</b>:
 $12,00
    
}
@enduml

PlantUML version 1.2019.03(Sun Mar 10 11:04:44 UTC 2019)
(GPL source distribution)
Java Runtime: Java(TM) SE Runtime Environment
JVM: Java HotSpot(TM) 64-Bit Server VM
Java Version: 1.7.0_25-b15
Operating System: Linux
Default Encoding: UTF-8
Language: en
Country: US
--></g></svg>