<?xml version="1.0" encoding="UTF-8" standalone="no"?><svg xmlns="http://www.w3.org/2000/svg" xmlns:xlink="http://www.w3.org/1999/xlink" contentScriptType="application/ecmascript" contentStyleType="text/css" height="265px" preserveAspectRatio="none" style="width:252px;height:265px;" version="1.1" viewBox="0 0 252 265" width="252px" zoomAndPan="magnify"><defs><filter height="300%" id="fziyke2nzqmzw" width="300%" x="-1" y="-1"><feGaussianBlur result="blurOut" stdDeviation="2.0"/><feColorMatrix in="blurOut" result="blurOut2" type="matrix" values="0 0 0 0 0 0 0 0 0 0 0 0 0 0 0 0 0 0 .4 0"/><feOffset dx="4.0" dy="4.0" in="blurOut2" result="blurOut3"/><feBlend in="SourceGraphic" in2="blurOut3" mode="normal"/></filter></defs><g><!--class Maybe--><rect fill="#FEFECE" filter="url(#fziyke2nzqmzw)" height="73.6094" id="Maybe" style="stroke: #A80036; stroke-width: 1.5;" width="85" x="56" y="8"/><ellipse cx="71" cy="24" fill="#A9DCDF" rx="11" ry="11" style="stroke: #A80036; stroke-width: 1.0;"/><path d="M72.5781,25.8125 L68.5313,25.8125 L68.1406,26.7969 L68.5313,26.7969 C68.9844,26.7969 69.125,26.8281 69.2969,26.9531 C69.5156,27.125 69.6406,27.375 69.6406,27.6563 C69.6406,27.9375 69.5,28.2344 69.2344,28.375 C69.1094,28.4688 68.8906,28.5 68.5313,28.5 L66.2656,28.5 C65.5156,28.5 65.1406,28.2188 65.1406,27.6563 C65.1406,27.3594 65.2969,27.0781 65.5469,26.9219 C65.7031,26.8125 65.8594,26.7969 66.2813,26.7969 L68.9219,20.2813 L67.8438,20.2813 C67.4063,20.2813 67.2344,20.25 67.0625,20.1406 C66.8438,19.9688 66.7031,19.7188 66.7031,19.4375 C66.7031,19.1563 66.8594,18.875 67.1094,18.7031 C67.2656,18.6094 67.3906,18.5938 67.8438,18.5938 L71.5156,18.5938 L74.9063,26.7969 C75.375,26.7969 75.5313,26.8281 75.7031,26.9688 C75.9219,27.125 76.0625,27.375 76.0625,27.6563 C76.0625,27.9375 75.9063,28.2344 75.6563,28.375 C75.5156,28.4688 75.2969,28.5 74.9375,28.5 L72.5781,28.5 C72.1563,28.5 71.9531,28.4531 71.8125,28.3281 C71.5938,28.1719 71.4531,27.9219 71.4531,27.6563 C71.4531,27.3594 71.6094,27.0781 71.8594,26.9219 C72.0156,26.8125 72.125,26.7969 72.5781,26.7969 L72.9688,26.7969 Z M71.875,24.1094 L70.5469,20.8438 L69.2031,24.1094 Z "/><text fill="#000000" font-family="sans-serif" font-size="12" font-style="italic" lengthAdjust="spacingAndGlyphs" textLength="53" x="85" y="28.1543">Maybe a</text><line style="stroke: #A80036; stroke-width: 1.5;" x1="57" x2="140" y1="40" y2="40"/><text fill="#000000" font-family="sans-serif" font-size="11" lengthAdjust="spacingAndGlyphs" textLength="32" x="62" y="54.2104">Just a</text><text fill="#000000" font-family="sans-serif" font-size="11" lengthAdjust="spacingAndGlyphs" textLength="43" x="62" y="67.0151">Nothing</text><line style="stroke: #A80036; stroke-width: 1.5;" x1="57" x2="140" y1="73.6094" y2="73.6094"/><!--class List--><rect fill="#FEFECE" filter="url(#fziyke2nzqmzw)" height="48" id="List" style="stroke: #A80036; stroke-width: 1.5;" width="65" x="176" y="21"/><ellipse cx="191" cy="37" fill="#DA70D6" rx="11" ry="11" style="stroke: #A80036; stroke-width: 1.0;"/><path d="M191.4375,34.5313 L191.4375,41.0469 L192.5625,41.0469 C193.0156,41.0469 193.1563,41.0781 193.3125,41.2031 C193.5469,41.375 193.6719,41.625 193.6719,41.9063 C193.6719,42.1875 193.5313,42.4844 193.2656,42.625 C193.1563,42.7031 192.8906,42.75 192.5625,42.75 L188.625,42.75 C188.2344,42.75 188.0156,42.7031 187.8594,42.5781 C187.6406,42.4219 187.5,42.1563 187.5,41.9063 C187.5,41.6094 187.6563,41.3281 187.9063,41.1719 C188.0625,41.0625 188.1875,41.0469 188.625,41.0469 L189.7344,41.0469 L189.7344,34.5313 L187.9063,34.5313 L187.9063,36.125 C187.9063,36.5781 187.875,36.7188 187.7656,36.8906 C187.5938,37.1094 187.3438,37.2344 187.0625,37.2344 C186.7813,37.2344 186.4844,37.0938 186.3281,36.8281 C186.25,36.6875 186.2188,36.5156 186.2188,36.125 L186.2188,32.8438 L194.9844,32.8438 L194.9844,36.125 C194.9844,36.5938 194.9688,36.7188 194.8281,36.8906 C194.6563,37.1094 194.4063,37.2344 194.1406,37.2344 C193.8438,37.2344 193.5625,37.0781 193.4063,36.8281 C193.3125,36.6875 193.2813,36.5156 193.2813,36.125 L193.2813,34.5313 Z "/><text fill="#000000" font-family="sans-serif" font-size="12" lengthAdjust="spacingAndGlyphs" textLength="33" x="205" y="41.1543">List a</text><line style="stroke: #A80036; stroke-width: 1.5;" x1="177" x2="240" y1="53" y2="53"/><line style="stroke: #A80036; stroke-width: 1.5;" x1="177" x2="240" y1="61" y2="61"/><!--class Currency--><rect fill="#FEFECE" filter="url(#fziyke2nzqmzw)" height="112.0234" id="Currency" style="stroke: #A80036; stroke-width: 1.5;" width="185" x="6" y="142"/><ellipse cx="34.95" cy="158" fill="#DA70D6" rx="11" ry="11" style="stroke: #A80036; stroke-width: 1.0;"/><path d="M35.3875,155.5313 L35.3875,162.0469 L36.5125,162.0469 C36.9656,162.0469 37.1063,162.0781 37.2625,162.2031 C37.4969,162.375 37.6219,162.625 37.6219,162.9063 C37.6219,163.1875 37.4813,163.4844 37.2156,163.625 C37.1063,163.7031 36.8406,163.75 36.5125,163.75 L32.575,163.75 C32.1844,163.75 31.9656,163.7031 31.8094,163.5781 C31.5906,163.4219 31.45,163.1563 31.45,162.9063 C31.45,162.6094 31.6063,162.3281 31.8563,162.1719 C32.0125,162.0625 32.1375,162.0469 32.575,162.0469 L33.6844,162.0469 L33.6844,155.5313 L31.8563,155.5313 L31.8563,157.125 C31.8563,157.5781 31.825,157.7188 31.7156,157.8906 C31.5438,158.1094 31.2938,158.2344 31.0125,158.2344 C30.7313,158.2344 30.4344,158.0938 30.2781,157.8281 C30.2,157.6875 30.1688,157.5156 30.1688,157.125 L30.1688,153.8438 L38.9344,153.8438 L38.9344,157.125 C38.9344,157.5938 38.9188,157.7188 38.7781,157.8906 C38.6063,158.1094 38.3563,158.2344 38.0906,158.2344 C37.7938,158.2344 37.5125,158.0781 37.3563,157.8281 C37.2625,157.6875 37.2313,157.5156 37.2313,157.125 L37.2313,155.5313 Z "/><text fill="#000000" font-family="sans-serif" font-size="12" lengthAdjust="spacingAndGlyphs" textLength="122" x="52.05" y="162.1543">Currency sign value</text><line style="stroke: #A80036; stroke-width: 1.5;" x1="7" x2="190" y1="174" y2="174"/><text fill="#000000" font-family="sans-serif" font-size="11" lengthAdjust="spacingAndGlyphs" textLength="67" x="12" y="188.2104">Sign: String</text><text fill="#000000" font-family="sans-serif" font-size="11" lengthAdjust="spacingAndGlyphs" textLength="84" x="12" y="201.0151">Value: Number</text><text fill="#000000" font-family="sans-serif" font-size="11" lengthAdjust="spacingAndGlyphs" textLength="12" x="12" y="213.8198">---</text><text fill="#000000" font-family="sans-serif" font-size="11" font-weight="bold" lengthAdjust="spacingAndGlyphs" textLength="169" x="12" y="226.6245">Currency is expressen like</text><text fill="#000000" font-family="sans-serif" font-size="11" lengthAdjust="spacingAndGlyphs" textLength="4" x="181" y="226.6245">:</text><text fill="#000000" font-family="sans-serif" font-size="11" lengthAdjust="spacingAndGlyphs" textLength="39" x="12" y="239.4292">$12,00</text><line style="stroke: #A80036; stroke-width: 1.5;" x1="7" x2="190" y1="246.0234" y2="246.0234"/><!--link Maybe to List--><!--link Maybe to Currency--><!--
@startuml
abstract "Maybe a" as Maybe {
	Just a
	Nothing 
}
class "List a" as List << (T,orchid) >> {
}
class "Currency sign value" as Currency << (T,orchid) >> {
	Sign: String 
	Value: Number 
  - - -
  <b>Currency is expressen like</b>:
 $12,00
    
}
@enduml

PlantUML version 1.2019.03(Sun Mar 10 11:04:44 UTC 2019)
(GPL source distribution)
Java Runtime: Java(TM) SE Runtime Environment
JVM: Java HotSpot(TM) 64-Bit Server VM
Java Version: 1.7.0_25-b15
Operating System: Linux
Default Encoding: UTF-8
Language: en
Country: US
--></g></svg>