<?xml version="1.0" encoding="UTF-8" standalone="no"?><svg xmlns="http://www.w3.org/2000/svg" xmlns:xlink="http://www.w3.org/1999/xlink" contentScriptType="application/ecmascript" contentStyleType="text/css" height="281px" preserveAspectRatio="none" style="width:496px;height:281px;" version="1.1" viewBox="0 0 496 281" width="496px" zoomAndPan="magnify"><defs><filter height="300%" id="f1kd4ncqn5zhn2" width="300%" x="-1" y="-1"><feGaussianBlur result="blurOut" stdDeviation="2.0"/><feColorMatrix in="blurOut" result="blurOut2" type="matrix" values="0 0 0 0 0 0 0 0 0 0 0 0 0 0 0 0 0 0 .4 0"/><feOffset dx="4.0" dy="4.0" in="blurOut2" result="blurOut3"/><feBlend in="SourceGraphic" in2="blurOut3" mode="normal"/></filter></defs><g><!--class Maybe--><rect fill="#FEFECE" filter="url(#f1kd4ncqn5zhn2)" height="73.6094" id="Maybe" style="stroke: #A80036; stroke-width: 1.5;" width="73" x="48" y="197"/><ellipse cx="63" cy="213" fill="#A9DCDF" rx="11" ry="11" style="stroke: #A80036; stroke-width: 1.0;"/><path d="M64.5781,214.8125 L60.5313,214.8125 L60.1406,215.7969 L60.5313,215.7969 C60.9844,215.7969 61.125,215.8281 61.2969,215.9531 C61.5156,216.125 61.6406,216.375 61.6406,216.6563 C61.6406,216.9375 61.5,217.2344 61.2344,217.375 C61.1094,217.4688 60.8906,217.5 60.5313,217.5 L58.2656,217.5 C57.5156,217.5 57.1406,217.2188 57.1406,216.6563 C57.1406,216.3594 57.2969,216.0781 57.5469,215.9219 C57.7031,215.8125 57.8594,215.7969 58.2813,215.7969 L60.9219,209.2813 L59.8438,209.2813 C59.4063,209.2813 59.2344,209.25 59.0625,209.1406 C58.8438,208.9688 58.7031,208.7188 58.7031,208.4375 C58.7031,208.1563 58.8594,207.875 59.1094,207.7031 C59.2656,207.6094 59.3906,207.5938 59.8438,207.5938 L63.5156,207.5938 L66.9063,215.7969 C67.375,215.7969 67.5313,215.8281 67.7031,215.9688 C67.9219,216.125 68.0625,216.375 68.0625,216.6563 C68.0625,216.9375 67.9063,217.2344 67.6563,217.375 C67.5156,217.4688 67.2969,217.5 66.9375,217.5 L64.5781,217.5 C64.1563,217.5 63.9531,217.4531 63.8125,217.3281 C63.5938,217.1719 63.4531,216.9219 63.4531,216.6563 C63.4531,216.3594 63.6094,216.0781 63.8594,215.9219 C64.0156,215.8125 64.125,215.7969 64.5781,215.7969 L64.9688,215.7969 Z M63.875,213.1094 L62.5469,209.8438 L61.2031,213.1094 Z "/><text fill="#000000" font-family="sans-serif" font-size="12" font-style="italic" lengthAdjust="spacingAndGlyphs" textLength="41" x="77" y="217.1543">Maybe</text><line style="stroke: #A80036; stroke-width: 1.5;" x1="49" x2="120" y1="229" y2="229"/><text fill="#000000" font-family="sans-serif" font-size="11" lengthAdjust="spacingAndGlyphs" textLength="21" x="54" y="243.2104">Just</text><text fill="#000000" font-family="sans-serif" font-size="11" lengthAdjust="spacingAndGlyphs" textLength="43" x="54" y="256.0151">Nothing</text><line style="stroke: #A80036; stroke-width: 1.5;" x1="49" x2="120" y1="262.6094" y2="262.6094"/><!--class Just--><rect fill="#FEFECE" filter="url(#f1kd4ncqn5zhn2)" height="48" id="Just" style="stroke: #A80036; stroke-width: 1.5;" width="55" x="6" y="40"/><ellipse cx="21" cy="56" fill="#ADD1B2" rx="11" ry="11" style="stroke: #A80036; stroke-width: 1.0;"/><path d="M23.3438,51.6719 L23.5156,51.75 C23.7344,51.4375 23.9375,51.3438 24.2344,51.3438 C24.5313,51.3438 24.8125,51.4844 24.9688,51.75 C25.0625,51.9063 25.0781,52.0313 25.0781,52.4688 L25.0781,53.8906 C25.0781,54.3125 25.0469,54.5 24.9375,54.6563 C24.7656,54.875 24.5,55.0156 24.2344,55.0156 C24.0156,55.0156 23.7813,54.9063 23.6406,54.7656 C23.5,54.6406 23.4688,54.5156 23.4063,54.1094 C23.3125,53.7031 23.1406,53.4844 22.6563,53.2031 C22.1875,52.9531 21.5781,52.7969 21,52.7969 C19.2656,52.7969 18.0156,54.1094 18.0156,55.8906 L18.0156,56.9844 C18.0156,58.6875 19.3125,59.7813 21.3594,59.7813 C22.125,59.7813 22.8125,59.6563 23.2344,59.3906 C23.4219,59.2969 23.4219,59.2969 23.875,58.8125 C24.0625,58.625 24.2656,58.5469 24.4844,58.5469 C24.9531,58.5469 25.3438,58.9375 25.3438,59.3906 C25.3438,59.7813 25.0156,60.2344 24.4375,60.6406 C23.6875,61.1875 22.5313,61.4844 21.3125,61.4844 C18.4219,61.4844 16.3125,59.5938 16.3125,57.0156 L16.3125,55.8906 C16.3125,53.1719 18.3125,51.0938 20.9375,51.0938 C21.8125,51.0938 22.4063,51.2344 23.3438,51.6719 Z "/><text fill="#000000" font-family="sans-serif" font-size="12" lengthAdjust="spacingAndGlyphs" textLength="23" x="35" y="60.1543">Just</text><line style="stroke: #A80036; stroke-width: 1.5;" x1="7" x2="60" y1="72" y2="72"/><line style="stroke: #A80036; stroke-width: 1.5;" x1="7" x2="60" y1="80" y2="80"/><!--class Nothing--><rect fill="#FEFECE" filter="url(#f1kd4ncqn5zhn2)" height="48" id="Nothing" style="stroke: #A80036; stroke-width: 1.5;" width="81" x="96" y="40"/><ellipse cx="111" cy="56" fill="#ADD1B2" rx="11" ry="11" style="stroke: #A80036; stroke-width: 1.0;"/><path d="M113.3438,51.6719 L113.5156,51.75 C113.7344,51.4375 113.9375,51.3438 114.2344,51.3438 C114.5313,51.3438 114.8125,51.4844 114.9688,51.75 C115.0625,51.9063 115.0781,52.0313 115.0781,52.4688 L115.0781,53.8906 C115.0781,54.3125 115.0469,54.5 114.9375,54.6563 C114.7656,54.875 114.5,55.0156 114.2344,55.0156 C114.0156,55.0156 113.7813,54.9063 113.6406,54.7656 C113.5,54.6406 113.4688,54.5156 113.4063,54.1094 C113.3125,53.7031 113.1406,53.4844 112.6563,53.2031 C112.1875,52.9531 111.5781,52.7969 111,52.7969 C109.2656,52.7969 108.0156,54.1094 108.0156,55.8906 L108.0156,56.9844 C108.0156,58.6875 109.3125,59.7813 111.3594,59.7813 C112.125,59.7813 112.8125,59.6563 113.2344,59.3906 C113.4219,59.2969 113.4219,59.2969 113.875,58.8125 C114.0625,58.625 114.2656,58.5469 114.4844,58.5469 C114.9531,58.5469 115.3438,58.9375 115.3438,59.3906 C115.3438,59.7813 115.0156,60.2344 114.4375,60.6406 C113.6875,61.1875 112.5313,61.4844 111.3125,61.4844 C108.4219,61.4844 106.3125,59.5938 106.3125,57.0156 L106.3125,55.8906 C106.3125,53.1719 108.3125,51.0938 110.9375,51.0938 C111.8125,51.0938 112.4063,51.2344 113.3438,51.6719 Z "/><text fill="#000000" font-family="sans-serif" font-size="12" lengthAdjust="spacingAndGlyphs" textLength="49" x="125" y="60.1543">Nothing</text><line style="stroke: #A80036; stroke-width: 1.5;" x1="97" x2="176" y1="72" y2="72"/><line style="stroke: #A80036; stroke-width: 1.5;" x1="97" x2="176" y1="80" y2="80"/><!--class List--><rect fill="#FEFECE" filter="url(#f1kd4ncqn5zhn2)" height="48" id="List" style="stroke: #A80036; stroke-width: 1.5;" width="53" x="212" y="40"/><ellipse cx="227" cy="56" fill="#DA70D6" rx="11" ry="11" style="stroke: #A80036; stroke-width: 1.0;"/><path d="M227.4375,53.5313 L227.4375,60.0469 L228.5625,60.0469 C229.0156,60.0469 229.1563,60.0781 229.3125,60.2031 C229.5469,60.375 229.6719,60.625 229.6719,60.9063 C229.6719,61.1875 229.5313,61.4844 229.2656,61.625 C229.1563,61.7031 228.8906,61.75 228.5625,61.75 L224.625,61.75 C224.2344,61.75 224.0156,61.7031 223.8594,61.5781 C223.6406,61.4219 223.5,61.1563 223.5,60.9063 C223.5,60.6094 223.6563,60.3281 223.9063,60.1719 C224.0625,60.0625 224.1875,60.0469 224.625,60.0469 L225.7344,60.0469 L225.7344,53.5313 L223.9063,53.5313 L223.9063,55.125 C223.9063,55.5781 223.875,55.7188 223.7656,55.8906 C223.5938,56.1094 223.3438,56.2344 223.0625,56.2344 C222.7813,56.2344 222.4844,56.0938 222.3281,55.8281 C222.25,55.6875 222.2188,55.5156 222.2188,55.125 L222.2188,51.8438 L230.9844,51.8438 L230.9844,55.125 C230.9844,55.5938 230.9688,55.7188 230.8281,55.8906 C230.6563,56.1094 230.4063,56.2344 230.1406,56.2344 C229.8438,56.2344 229.5625,56.0781 229.4063,55.8281 C229.3125,55.6875 229.2813,55.5156 229.2813,55.125 L229.2813,53.5313 Z "/><text fill="#000000" font-family="sans-serif" font-size="12" lengthAdjust="spacingAndGlyphs" textLength="21" x="241" y="60.1543">List</text><line style="stroke: #A80036; stroke-width: 1.5;" x1="213" x2="264" y1="72" y2="72"/><line style="stroke: #A80036; stroke-width: 1.5;" x1="213" x2="264" y1="80" y2="80"/><!--class Currency--><rect fill="#FEFECE" filter="url(#f1kd4ncqn5zhn2)" height="112.0234" id="Currency" style="stroke: #A80036; stroke-width: 1.5;" width="185" x="300" y="8"/><ellipse cx="360.75" cy="24" fill="#DA70D6" rx="11" ry="11" style="stroke: #A80036; stroke-width: 1.0;"/><path d="M361.1875,21.5313 L361.1875,28.0469 L362.3125,28.0469 C362.7656,28.0469 362.9063,28.0781 363.0625,28.2031 C363.2969,28.375 363.4219,28.625 363.4219,28.9063 C363.4219,29.1875 363.2813,29.4844 363.0156,29.625 C362.9063,29.7031 362.6406,29.75 362.3125,29.75 L358.375,29.75 C357.9844,29.75 357.7656,29.7031 357.6094,29.5781 C357.3906,29.4219 357.25,29.1563 357.25,28.9063 C357.25,28.6094 357.4063,28.3281 357.6563,28.1719 C357.8125,28.0625 357.9375,28.0469 358.375,28.0469 L359.4844,28.0469 L359.4844,21.5313 L357.6563,21.5313 L357.6563,23.125 C357.6563,23.5781 357.625,23.7188 357.5156,23.8906 C357.3438,24.1094 357.0938,24.2344 356.8125,24.2344 C356.5313,24.2344 356.2344,24.0938 356.0781,23.8281 C356,23.6875 355.9688,23.5156 355.9688,23.125 L355.9688,19.8438 L364.7344,19.8438 L364.7344,23.125 C364.7344,23.5938 364.7188,23.7188 364.5781,23.8906 C364.4063,24.1094 364.1563,24.2344 363.8906,24.2344 C363.5938,24.2344 363.3125,24.0781 363.1563,23.8281 C363.0625,23.6875 363.0313,23.5156 363.0313,23.125 L363.0313,21.5313 Z "/><text fill="#000000" font-family="sans-serif" font-size="12" lengthAdjust="spacingAndGlyphs" textLength="55" x="381.25" y="28.1543">Currency</text><line style="stroke: #A80036; stroke-width: 1.5;" x1="301" x2="484" y1="40" y2="40"/><text fill="#000000" font-family="sans-serif" font-size="11" lengthAdjust="spacingAndGlyphs" textLength="67" x="306" y="54.2104">Sign: String</text><text fill="#000000" font-family="sans-serif" font-size="11" lengthAdjust="spacingAndGlyphs" textLength="84" x="306" y="67.0151">Value: Number</text><text fill="#000000" font-family="sans-serif" font-size="11" lengthAdjust="spacingAndGlyphs" textLength="12" x="306" y="79.8198">---</text><text fill="#000000" font-family="sans-serif" font-size="11" font-weight="bold" lengthAdjust="spacingAndGlyphs" textLength="169" x="306" y="92.6245">Currency is expressen like</text><text fill="#000000" font-family="sans-serif" font-size="11" lengthAdjust="spacingAndGlyphs" textLength="4" x="475" y="92.6245">:</text><text fill="#000000" font-family="sans-serif" font-size="11" lengthAdjust="spacingAndGlyphs" textLength="39" x="306" y="105.4292">$12,00</text><line style="stroke: #A80036; stroke-width: 1.5;" x1="301" x2="484" y1="112.0234" y2="112.0234"/><!--link Just to Maybe--><path d="M40.4844,88.007 C48.5637,114.622 62.0232,158.959 71.9355,191.6112 " fill="none" id="Just-Maybe" style="stroke: #A80036; stroke-width: 1.0;"/><polygon fill="#A80036" points="73.4946,196.7469,74.7078,186.973,72.0422,191.9625,67.0527,189.2969,73.4946,196.7469" style="stroke: #A80036; stroke-width: 1.0;"/><text fill="#000000" font-family="sans-serif" font-size="13" lengthAdjust="spacingAndGlyphs" textLength="23" x="65.5" y="163.0669">Just</text><!--link Nothing to Maybe--><path d="M129.379,88.007 C121.141,114.622 107.418,158.959 97.3108,191.6112 " fill="none" id="Nothing-Maybe" style="stroke: #A80036; stroke-width: 1.0;"/><polygon fill="#A80036" points="95.7212,196.7469,102.2035,189.3321,97.1996,191.9705,94.5612,186.9666,95.7212,196.7469" style="stroke: #A80036; stroke-width: 1.0;"/><text fill="#000000" font-family="sans-serif" font-size="13" lengthAdjust="spacingAndGlyphs" textLength="50" x="109.5" y="163.0669">Nothing</text><!--
@startuml
abstract Maybe {
	Just
	Nothing
}
Just - -> Maybe : Just
Nothing - -> Maybe : Nothing
class List<< (T,orchid) >> {
}
class Currency<< (T,orchid) >> {
	Sign: String 
	Value: Number 
  - - -
  <b>Currency is expressen like</b>:
 $12,00
    
}
@enduml

PlantUML version 1.2019.03(Sun Mar 10 11:04:44 UTC 2019)
(GPL source distribution)
Java Runtime: Java(TM) SE Runtime Environment
JVM: Java HotSpot(TM) 64-Bit Server VM
Java Version: 1.7.0_25-b15
Operating System: Linux
Default Encoding: UTF-8
Language: en
Country: US
--></g></svg>