<?xml version="1.0" encoding="UTF-8" standalone="no"?><svg xmlns="http://www.w3.org/2000/svg" xmlns:xlink="http://www.w3.org/1999/xlink" contentScriptType="application/ecmascript" contentStyleType="text/css" height="281px" preserveAspectRatio="none" style="width:496px;height:281px;" version="1.1" viewBox="0 0 496 281" width="496px" zoomAndPan="magnify"><defs><filter height="300%" id="f1xi438a0rqkdu" width="300%" x="-1" y="-1"><feGaussianBlur result="blurOut" stdDeviation="2.0"/><feColorMatrix in="blurOut" result="blurOut2" type="matrix" values="0 0 0 0 0 0 0 0 0 0 0 0 0 0 0 0 0 0 .4 0"/><feOffset dx="4.0" dy="4.0" in="blurOut2" result="blurOut3"/><feBlend in="SourceGraphic" in2="blurOut3" mode="normal"/></filter></defs><g><!--class Maybe--><rect fill="#FEFECE" filter="url(#f1xi438a0rqkdu)" height="73.6094" id="Maybe" style="stroke: #A80036; stroke-width: 1.5;" width="73" x="48" y="197"/><ellipse cx="63" cy="213" fill="#A9DCDF" rx="11" ry="11" style="stroke: #A80036; stroke-width: 1.0;"/><path d="M64.5781,214.8125 L60.5313,214.8125 L60.1406,215.7969 L60.5313,215.7969 C60.9844,215.7969 61.125,215.8281 61.2969,215.9531 C61.5156,216.125 61.6406,216.375 61.6406,216.6563 C61.6406,216.9375 61.5,217.2344 61.2344,217.375 C61.1094,217.4688 60.8906,217.5 60.5313,217.5 L58.2656,217.5 C57.5156,217.5 57.1406,217.2188 57.1406,216.6563 C57.1406,216.3594 57.2969,216.0781 57.5469,215.9219 C57.7031,215.8125 57.8594,215.7969 58.2813,215.7969 L60.9219,209.2813 L59.8438,209.2813 C59.4063,209.2813 59.2344,209.25 59.0625,209.1406 C58.8438,208.9688 58.7031,208.7188 58.7031,208.4375 C58.7031,208.1563 58.8594,207.875 59.1094,207.7031 C59.2656,207.6094 59.3906,207.5938 59.8438,207.5938 L63.5156,207.5938 L66.9063,215.7969 C67.375,215.7969 67.5313,215.8281 67.7031,215.9688 C67.9219,216.125 68.0625,216.375 68.0625,216.6563 C68.0625,216.9375 67.9063,217.2344 67.6563,217.375 C67.5156,217.4688 67.2969,217.5 66.9375,217.5 L64.5781,217.5 C64.1563,217.5 63.9531,217.4531 63.8125,217.3281 C63.5938,217.1719 63.4531,216.9219 63.4531,216.6563 C63.4531,216.3594 63.6094,216.0781 63.8594,215.9219 C64.0156,215.8125 64.125,215.7969 64.5781,215.7969 L64.9688,215.7969 Z M63.875,213.1094 L62.5469,209.8438 L61.2031,213.1094 Z "/><text fill="#000000" font-family="sans-serif" font-size="12" font-style="italic" lengthAdjust="spacingAndGlyphs" textLength="41" x="77" y="217.1543">Maybe</text><line style="stroke: #A80036; stroke-width: 1.5;" x1="49" x2="120" y1="229" y2="229"/><text fill="#000000" font-family="sans-serif" font-size="11" lengthAdjust="spacingAndGlyphs" textLength="21" x="54" y="243.2104">Just</text><text fill="#000000" font-family="sans-serif" font-size="11" lengthAdjust="spacingAndGlyphs" textLength="43" x="54" y="256.0151">Nothing</text><line style="stroke: #A80036; stroke-width: 1.5;" x1="49" x2="120" y1="262.6094" y2="262.6094"/><!--class Just--><rect fill="#FEFECE" filter="url(#f1xi438a0rqkdu)" height="48" id="Just" style="stroke: #A80036; stroke-width: 1.5;" width="55" x="6" y="40"/><ellipse cx="21" cy="56" fill="#ADD1B2" rx="11" ry="11" style="stroke: #A80036; stroke-width: 1.0;"/><path d="M23.3438,51.6719 L23.5156,51.75 C23.7344,51.4375 23.9375,51.3438 24.2344,51.3438 C24.5313,51.3438 24.8125,51.4844 24.9688,51.75 C25.0625,51.9063 25.0781,52.0313 25.0781,52.4688 L25.0781,53.8906 C25.0781,54.3125 25.0469,54.5 24.9375,54.6563 C24.7656,54.875 24.5,55.0156 24.2344,55.0156 C24.0156,55.0156 23.7813,54.9063 23.6406,54.7656 C23.5,54.6406 23.4688,54.5156 23.4063,54.1094 C23.3125,53.7031 23.1406,53.4844 22.6563,53.2031 C22.1875,52.9531 21.5781,52.7969 21,52.7969 C19.2656,52.7969 18.0156,54.1094 18.0156,55.8906 L18.0156,56.9844 C18.0156,58.6875 19.3125,59.7813 21.3594,59.7813 C22.125,59.7813 22.8125,59.6563 23.2344,59.3906 C23.4219,59.2969 23.4219,59.2969 23.875,58.8125 C24.0625,58.625 24.2656,58.5469 24.4844,58.5469 C24.9531,58.5469 25.3438,58.9375 25.3438,59.3906 C25.3438,59.7813 25.0156,60.2344 24.4375,60.6406 C23.6875,61.1875 22.5313,61.4844 21.3125,61.4844 C18.4219,61.4844 16.3125,59.5938 16.3125,57.0156 L16.3125,55.8906 C16.3125,53.1719 18.3125,51.0938 20.9375,51.0938 C21.8125,51.0938 22.4063,51.2344 23.3438,51.6719 Z "/><text fill="#000000" font-family="sans-serif" font-size="12" lengthAdjust="spacingAndGlyphs" textLength="23" x="35" y="60.1543">Just</text><line style="stroke: #A80036; stroke-width: 1.5;" x1="7" x2="60" y1="72" y2="72"/><line style="stroke: #A80036; stroke-width: 1.5;" x1="7" x2="60" y1="80" y2="80"/><!--class Nothing--><rect fill="#FEFECE" filter="url(#f1xi438a0rqkdu)" height="48" id="Nothing" style="stroke: #A80036; stroke-width: 1.5;" width="81" x="96" y="40"/><ellipse cx="111" cy="56" fill="#ADD1B2" rx="11" ry="11" style="stroke: #A80036; stroke-width: 1.0;"/><path d="M113.3438,51.6719 L113.5156,51.75 C113.7344,51.4375 113.9375,51.3438 114.2344,51.3438 C114.5313,51.3438 114.8125,51.4844 114.9688,51.75 C115.0625,51.9063 115.0781,52.0313 115.0781,52.4688 L115.0781,53.8906 C115.0781,54.3125 115.0469,54.5 114.9375,54.6563 C114.7656,54.875 114.5,55.0156 114.2344,55.0156 C114.0156,55.0156 113.7813,54.9063 113.6406,54.7656 C113.5,54.6406 113.4688,54.5156 113.4063,54.1094 C113.3125,53.7031 113.1406,53.4844 112.6563,53.2031 C112.1875,52.9531 111.5781,52.7969 111,52.7969 C109.2656,52.7969 108.0156,54.1094 108.0156,55.8906 L108.0156,56.9844 C108.0156,58.6875 109.3125,59.7813 111.3594,59.7813 C112.125,59.7813 112.8125,59.6563 113.2344,59.3906 C113.4219,59.2969 113.4219,59.2969 113.875,58.8125 C114.0625,58.625 114.2656,58.5469 114.4844,58.5469 C114.9531,58.5469 115.3438,58.9375 115.3438,59.3906 C115.3438,59.7813 115.0156,60.2344 114.4375,60.6406 C113.6875,61.1875 112.5313,61.4844 111.3125,61.4844 C108.4219,61.4844 106.3125,59.5938 106.3125,57.0156 L106.3125,55.8906 C106.3125,53.1719 108.3125,51.0938 110.9375,51.0938 C111.8125,51.0938 112.4063,51.2344 113.3438,51.6719 Z "/><text fill="#000000" font-family="sans-serif" font-size="12" lengthAdjust="spacingAndGlyphs" textLength="49" x="125" y="60.1543">Nothing</text><line style="stroke: #A80036; stroke-width: 1.5;" x1="97" x2="176" y1="72" y2="72"/><line style="stroke: #A80036; stroke-width: 1.5;" x1="97" x2="176" y1="80" y2="80"/><!--class List--><rect fill="#FEFECE" filter="url(#f1xi438a0rqkdu)" height="48" id="List" style="stroke: #A80036; stroke-width: 1.5;" width="53" x="212" y="40"/><ellipse cx="227" cy="56" fill="#ADD1B2" rx="11" ry="11" style="stroke: #A80036; stroke-width: 1.0;"/><path d="M229.3438,51.6719 L229.5156,51.75 C229.7344,51.4375 229.9375,51.3438 230.2344,51.3438 C230.5313,51.3438 230.8125,51.4844 230.9688,51.75 C231.0625,51.9063 231.0781,52.0313 231.0781,52.4688 L231.0781,53.8906 C231.0781,54.3125 231.0469,54.5 230.9375,54.6563 C230.7656,54.875 230.5,55.0156 230.2344,55.0156 C230.0156,55.0156 229.7813,54.9063 229.6406,54.7656 C229.5,54.6406 229.4688,54.5156 229.4063,54.1094 C229.3125,53.7031 229.1406,53.4844 228.6563,53.2031 C228.1875,52.9531 227.5781,52.7969 227,52.7969 C225.2656,52.7969 224.0156,54.1094 224.0156,55.8906 L224.0156,56.9844 C224.0156,58.6875 225.3125,59.7813 227.3594,59.7813 C228.125,59.7813 228.8125,59.6563 229.2344,59.3906 C229.4219,59.2969 229.4219,59.2969 229.875,58.8125 C230.0625,58.625 230.2656,58.5469 230.4844,58.5469 C230.9531,58.5469 231.3438,58.9375 231.3438,59.3906 C231.3438,59.7813 231.0156,60.2344 230.4375,60.6406 C229.6875,61.1875 228.5313,61.4844 227.3125,61.4844 C224.4219,61.4844 222.3125,59.5938 222.3125,57.0156 L222.3125,55.8906 C222.3125,53.1719 224.3125,51.0938 226.9375,51.0938 C227.8125,51.0938 228.4063,51.2344 229.3438,51.6719 Z "/><text fill="#000000" font-family="sans-serif" font-size="12" lengthAdjust="spacingAndGlyphs" textLength="21" x="241" y="60.1543">List</text><line style="stroke: #A80036; stroke-width: 1.5;" x1="213" x2="264" y1="72" y2="72"/><line style="stroke: #A80036; stroke-width: 1.5;" x1="213" x2="264" y1="80" y2="80"/><!--class Currency--><rect fill="#FEFECE" filter="url(#f1xi438a0rqkdu)" height="112.0234" id="Currency" style="stroke: #A80036; stroke-width: 1.5;" width="185" x="300" y="8"/><ellipse cx="360.75" cy="24" fill="#ADD1B2" rx="11" ry="11" style="stroke: #A80036; stroke-width: 1.0;"/><path d="M363.0938,19.6719 L363.2656,19.75 C363.4844,19.4375 363.6875,19.3438 363.9844,19.3438 C364.2813,19.3438 364.5625,19.4844 364.7188,19.75 C364.8125,19.9063 364.8281,20.0313 364.8281,20.4688 L364.8281,21.8906 C364.8281,22.3125 364.7969,22.5 364.6875,22.6563 C364.5156,22.875 364.25,23.0156 363.9844,23.0156 C363.7656,23.0156 363.5313,22.9063 363.3906,22.7656 C363.25,22.6406 363.2188,22.5156 363.1563,22.1094 C363.0625,21.7031 362.8906,21.4844 362.4063,21.2031 C361.9375,20.9531 361.3281,20.7969 360.75,20.7969 C359.0156,20.7969 357.7656,22.1094 357.7656,23.8906 L357.7656,24.9844 C357.7656,26.6875 359.0625,27.7813 361.1094,27.7813 C361.875,27.7813 362.5625,27.6563 362.9844,27.3906 C363.1719,27.2969 363.1719,27.2969 363.625,26.8125 C363.8125,26.625 364.0156,26.5469 364.2344,26.5469 C364.7031,26.5469 365.0938,26.9375 365.0938,27.3906 C365.0938,27.7813 364.7656,28.2344 364.1875,28.6406 C363.4375,29.1875 362.2813,29.4844 361.0625,29.4844 C358.1719,29.4844 356.0625,27.5938 356.0625,25.0156 L356.0625,23.8906 C356.0625,21.1719 358.0625,19.0938 360.6875,19.0938 C361.5625,19.0938 362.1563,19.2344 363.0938,19.6719 Z "/><text fill="#000000" font-family="sans-serif" font-size="12" lengthAdjust="spacingAndGlyphs" textLength="55" x="381.25" y="28.1543">Currency</text><line style="stroke: #A80036; stroke-width: 1.5;" x1="301" x2="484" y1="40" y2="40"/><text fill="#000000" font-family="sans-serif" font-size="11" lengthAdjust="spacingAndGlyphs" textLength="67" x="306" y="54.2104">Sign: String</text><text fill="#000000" font-family="sans-serif" font-size="11" lengthAdjust="spacingAndGlyphs" textLength="84" x="306" y="67.0151">Value: Number</text><text fill="#000000" font-family="sans-serif" font-size="11" lengthAdjust="spacingAndGlyphs" textLength="12" x="306" y="79.8198">---</text><text fill="#000000" font-family="sans-serif" font-size="11" font-weight="bold" lengthAdjust="spacingAndGlyphs" textLength="169" x="306" y="92.6245">Currency is expressen like</text><text fill="#000000" font-family="sans-serif" font-size="11" lengthAdjust="spacingAndGlyphs" textLength="4" x="475" y="92.6245">:</text><text fill="#000000" font-family="sans-serif" font-size="11" lengthAdjust="spacingAndGlyphs" textLength="39" x="306" y="105.4292">$12,00</text><line style="stroke: #A80036; stroke-width: 1.5;" x1="301" x2="484" y1="112.0234" y2="112.0234"/><!--link Just to Maybe--><path d="M40.4844,88.007 C48.5637,114.622 62.0232,158.959 71.9355,191.6112 " fill="none" id="Just-Maybe" style="stroke: #A80036; stroke-width: 1.0;"/><polygon fill="#A80036" points="73.4946,196.7469,74.7078,186.973,72.0422,191.9625,67.0527,189.2969,73.4946,196.7469" style="stroke: #A80036; stroke-width: 1.0;"/><text fill="#000000" font-family="sans-serif" font-size="13" lengthAdjust="spacingAndGlyphs" textLength="23" x="65.5" y="163.0669">Just</text><!--link Nothing to Maybe--><path d="M129.379,88.007 C121.141,114.622 107.418,158.959 97.3108,191.6112 " fill="none" id="Nothing-Maybe" style="stroke: #A80036; stroke-width: 1.0;"/><polygon fill="#A80036" points="95.7212,196.7469,102.2035,189.3321,97.1996,191.9705,94.5612,186.9666,95.7212,196.7469" style="stroke: #A80036; stroke-width: 1.0;"/><text fill="#000000" font-family="sans-serif" font-size="13" lengthAdjust="spacingAndGlyphs" textLength="50" x="109.5" y="163.0669">Nothing</text><!--
@startuml
abstract Maybe {
	Just
	Nothing
}
Just - -> Maybe : Just
Nothing - -> Maybe : Nothing
class List {
}
class Currency {
	Sign: String 
	Value: Number 
  - - -
  <b>Currency is expressen like</b>:
 $12,00
    
}
@enduml

PlantUML version 1.2019.03(Sun Mar 10 11:04:44 UTC 2019)
(GPL source distribution)
Java Runtime: Java(TM) SE Runtime Environment
JVM: Java HotSpot(TM) 64-Bit Server VM
Java Version: 1.7.0_25-b15
Operating System: Linux
Default Encoding: UTF-8
Language: en
Country: US
--></g></svg>