<?xml version="1.0" encoding="UTF-8" standalone="no"?><svg xmlns="http://www.w3.org/2000/svg" xmlns:xlink="http://www.w3.org/1999/xlink" contentScriptType="application/ecmascript" contentStyleType="text/css" height="416px" preserveAspectRatio="none" style="width:783px;height:416px;" version="1.1" viewBox="0 0 783 416" width="783px" zoomAndPan="magnify"><defs><filter height="300%" id="f1oqjmsfm717hs" width="300%" x="-1" y="-1"><feGaussianBlur result="blurOut" stdDeviation="2.0"/><feColorMatrix in="blurOut" result="blurOut2" type="matrix" values="0 0 0 0 0 0 0 0 0 0 0 0 0 0 0 0 0 0 .4 0"/><feOffset dx="4.0" dy="4.0" in="blurOut2" result="blurOut3"/><feBlend in="SourceGraphic" in2="blurOut3" mode="normal"/></filter></defs><g><!--class Customer--><rect fill="#FEFECE" filter="url(#f1oqjmsfm717hs)" height="60.8047" id="Customer" style="stroke: #A80036; stroke-width: 1.5;" width="96" x="128.5" y="14.5"/><ellipse cx="145.3" cy="30.5" fill="#ADD1B2" rx="11" ry="11" style="stroke: #A80036; stroke-width: 1.0;"/><path d="M147.6438,26.1719 L147.8156,26.25 C148.0344,25.9375 148.2375,25.8438 148.5344,25.8438 C148.8313,25.8438 149.1125,25.9844 149.2688,26.25 C149.3625,26.4063 149.3781,26.5313 149.3781,26.9688 L149.3781,28.3906 C149.3781,28.8125 149.3469,29 149.2375,29.1563 C149.0656,29.375 148.8,29.5156 148.5344,29.5156 C148.3156,29.5156 148.0813,29.4063 147.9406,29.2656 C147.8,29.1406 147.7688,29.0156 147.7063,28.6094 C147.6125,28.2031 147.4406,27.9844 146.9563,27.7031 C146.4875,27.4531 145.8781,27.2969 145.3,27.2969 C143.5656,27.2969 142.3156,28.6094 142.3156,30.3906 L142.3156,31.4844 C142.3156,33.1875 143.6125,34.2813 145.6594,34.2813 C146.425,34.2813 147.1125,34.1563 147.5344,33.8906 C147.7219,33.7969 147.7219,33.7969 148.175,33.3125 C148.3625,33.125 148.5656,33.0469 148.7844,33.0469 C149.2531,33.0469 149.6438,33.4375 149.6438,33.8906 C149.6438,34.2813 149.3156,34.7344 148.7375,35.1406 C147.9875,35.6875 146.8313,35.9844 145.6125,35.9844 C142.7219,35.9844 140.6125,34.0938 140.6125,31.5156 L140.6125,30.3906 C140.6125,27.6719 142.6125,25.5938 145.2375,25.5938 C146.1125,25.5938 146.7063,25.7344 147.6438,26.1719 Z "/><text fill="#000000" font-family="sans-serif" font-size="12" lengthAdjust="spacingAndGlyphs" textLength="60" x="159.7" y="34.6543">Customer</text><line style="stroke: #A80036; stroke-width: 1.5;" x1="129.5" x2="223.5" y1="46.5" y2="46.5"/><text fill="#000000" font-family="sans-serif" font-size="11" lengthAdjust="spacingAndGlyphs" textLength="84" x="134.5" y="60.7104">CustomerId: Id</text><line style="stroke: #A80036; stroke-width: 1.5;" x1="129.5" x2="223.5" y1="67.3047" y2="67.3047"/><!--class Error--><rect fill="#FEFECE" filter="url(#f1oqjmsfm717hs)" height="73.6094" id="Error" style="stroke: #A80036; stroke-width: 1.5;" width="117" x="260" y="8"/><ellipse cx="299.3" cy="24" fill="#ADD1B2" rx="11" ry="11" style="stroke: #A80036; stroke-width: 1.0;"/><path d="M301.6438,19.6719 L301.8156,19.75 C302.0344,19.4375 302.2375,19.3438 302.5344,19.3438 C302.8313,19.3438 303.1125,19.4844 303.2688,19.75 C303.3625,19.9063 303.3781,20.0313 303.3781,20.4688 L303.3781,21.8906 C303.3781,22.3125 303.3469,22.5 303.2375,22.6563 C303.0656,22.875 302.8,23.0156 302.5344,23.0156 C302.3156,23.0156 302.0813,22.9063 301.9406,22.7656 C301.8,22.6406 301.7688,22.5156 301.7063,22.1094 C301.6125,21.7031 301.4406,21.4844 300.9563,21.2031 C300.4875,20.9531 299.8781,20.7969 299.3,20.7969 C297.5656,20.7969 296.3156,22.1094 296.3156,23.8906 L296.3156,24.9844 C296.3156,26.6875 297.6125,27.7813 299.6594,27.7813 C300.425,27.7813 301.1125,27.6563 301.5344,27.3906 C301.7219,27.2969 301.7219,27.2969 302.175,26.8125 C302.3625,26.625 302.5656,26.5469 302.7844,26.5469 C303.2531,26.5469 303.6438,26.9375 303.6438,27.3906 C303.6438,27.7813 303.3156,28.2344 302.7375,28.6406 C301.9875,29.1875 300.8313,29.4844 299.6125,29.4844 C296.7219,29.4844 294.6125,27.5938 294.6125,25.0156 L294.6125,23.8906 C294.6125,21.1719 296.6125,19.0938 299.2375,19.0938 C300.1125,19.0938 300.7063,19.2344 301.6438,19.6719 Z "/><text fill="#000000" font-family="sans-serif" font-size="12" lengthAdjust="spacingAndGlyphs" textLength="31" x="318.7" y="28.1543">Error</text><line style="stroke: #A80036; stroke-width: 1.5;" x1="261" x2="376" y1="40" y2="40"/><text fill="#000000" font-family="sans-serif" font-size="11" lengthAdjust="spacingAndGlyphs" textLength="105" x="266" y="54.2104">HttpCode: Number</text><text fill="#000000" font-family="sans-serif" font-size="11" lengthAdjust="spacingAndGlyphs" textLength="93" x="266" y="67.0151">Message: String</text><line style="stroke: #A80036; stroke-width: 1.5;" x1="261" x2="376" y1="73.6094" y2="73.6094"/><!--class Error404--><rect fill="#FEFECE" filter="url(#f1oqjmsfm717hs)" height="73.6094" id="Error404" style="stroke: #A80036; stroke-width: 1.5;" width="185" x="6" y="149"/><ellipse cx="64.75" cy="165" fill="#ADD1B2" rx="11" ry="11" style="stroke: #A80036; stroke-width: 1.0;"/><path d="M67.0938,160.6719 L67.2656,160.75 C67.4844,160.4375 67.6875,160.3438 67.9844,160.3438 C68.2813,160.3438 68.5625,160.4844 68.7188,160.75 C68.8125,160.9063 68.8281,161.0313 68.8281,161.4688 L68.8281,162.8906 C68.8281,163.3125 68.7969,163.5 68.6875,163.6563 C68.5156,163.875 68.25,164.0156 67.9844,164.0156 C67.7656,164.0156 67.5313,163.9063 67.3906,163.7656 C67.25,163.6406 67.2188,163.5156 67.1563,163.1094 C67.0625,162.7031 66.8906,162.4844 66.4063,162.2031 C65.9375,161.9531 65.3281,161.7969 64.75,161.7969 C63.0156,161.7969 61.7656,163.1094 61.7656,164.8906 L61.7656,165.9844 C61.7656,167.6875 63.0625,168.7813 65.1094,168.7813 C65.875,168.7813 66.5625,168.6563 66.9844,168.3906 C67.1719,168.2969 67.1719,168.2969 67.625,167.8125 C67.8125,167.625 68.0156,167.5469 68.2344,167.5469 C68.7031,167.5469 69.0938,167.9375 69.0938,168.3906 C69.0938,168.7813 68.7656,169.2344 68.1875,169.6406 C67.4375,170.1875 66.2813,170.4844 65.0625,170.4844 C62.1719,170.4844 60.0625,168.5938 60.0625,166.0156 L60.0625,164.8906 C60.0625,162.1719 62.0625,160.0938 64.6875,160.0938 C65.5625,160.0938 66.1563,160.2344 67.0938,160.6719 Z "/><text fill="#000000" font-family="sans-serif" font-size="12" lengthAdjust="spacingAndGlyphs" textLength="55" x="85.25" y="169.1543">Error404</text><line style="stroke: #A80036; stroke-width: 1.5;" x1="7" x2="190" y1="181" y2="181"/><text fill="#000000" font-family="sans-serif" font-size="11" lengthAdjust="spacingAndGlyphs" textLength="105" x="12" y="195.2104">HttpCode: Number</text><text fill="#000000" font-family="sans-serif" font-size="11" font-style="italic" lengthAdjust="spacingAndGlyphs" textLength="60" x="125" y="195.2104">from Error</text><text fill="#000000" font-family="sans-serif" font-size="11" lengthAdjust="spacingAndGlyphs" textLength="93" x="12" y="208.0151">Message: String</text><text fill="#000000" font-family="sans-serif" font-size="11" font-style="italic" lengthAdjust="spacingAndGlyphs" textLength="60" x="113" y="208.0151">from Error</text><line style="stroke: #A80036; stroke-width: 1.5;" x1="7" x2="190" y1="214.6094" y2="214.6094"/><!--class Error401--><rect fill="#FEFECE" filter="url(#f1oqjmsfm717hs)" height="73.6094" id="Error401" style="stroke: #A80036; stroke-width: 1.5;" width="185" x="226" y="149"/><ellipse cx="284.75" cy="165" fill="#ADD1B2" rx="11" ry="11" style="stroke: #A80036; stroke-width: 1.0;"/><path d="M287.0938,160.6719 L287.2656,160.75 C287.4844,160.4375 287.6875,160.3438 287.9844,160.3438 C288.2813,160.3438 288.5625,160.4844 288.7188,160.75 C288.8125,160.9063 288.8281,161.0313 288.8281,161.4688 L288.8281,162.8906 C288.8281,163.3125 288.7969,163.5 288.6875,163.6563 C288.5156,163.875 288.25,164.0156 287.9844,164.0156 C287.7656,164.0156 287.5313,163.9063 287.3906,163.7656 C287.25,163.6406 287.2188,163.5156 287.1563,163.1094 C287.0625,162.7031 286.8906,162.4844 286.4063,162.2031 C285.9375,161.9531 285.3281,161.7969 284.75,161.7969 C283.0156,161.7969 281.7656,163.1094 281.7656,164.8906 L281.7656,165.9844 C281.7656,167.6875 283.0625,168.7813 285.1094,168.7813 C285.875,168.7813 286.5625,168.6563 286.9844,168.3906 C287.1719,168.2969 287.1719,168.2969 287.625,167.8125 C287.8125,167.625 288.0156,167.5469 288.2344,167.5469 C288.7031,167.5469 289.0938,167.9375 289.0938,168.3906 C289.0938,168.7813 288.7656,169.2344 288.1875,169.6406 C287.4375,170.1875 286.2813,170.4844 285.0625,170.4844 C282.1719,170.4844 280.0625,168.5938 280.0625,166.0156 L280.0625,164.8906 C280.0625,162.1719 282.0625,160.0938 284.6875,160.0938 C285.5625,160.0938 286.1563,160.2344 287.0938,160.6719 Z "/><text fill="#000000" font-family="sans-serif" font-size="12" lengthAdjust="spacingAndGlyphs" textLength="55" x="305.25" y="169.1543">Error401</text><line style="stroke: #A80036; stroke-width: 1.5;" x1="227" x2="410" y1="181" y2="181"/><text fill="#000000" font-family="sans-serif" font-size="11" lengthAdjust="spacingAndGlyphs" textLength="105" x="232" y="195.2104">HttpCode: Number</text><text fill="#000000" font-family="sans-serif" font-size="11" font-style="italic" lengthAdjust="spacingAndGlyphs" textLength="60" x="345" y="195.2104">from Error</text><text fill="#000000" font-family="sans-serif" font-size="11" lengthAdjust="spacingAndGlyphs" textLength="93" x="232" y="208.0151">Message: String</text><text fill="#000000" font-family="sans-serif" font-size="11" font-style="italic" lengthAdjust="spacingAndGlyphs" textLength="60" x="333" y="208.0151">from Error</text><line style="stroke: #A80036; stroke-width: 1.5;" x1="227" x2="410" y1="214.6094" y2="214.6094"/><!--class Error500--><rect fill="#FEFECE" filter="url(#f1oqjmsfm717hs)" height="73.6094" id="Error500" style="stroke: #A80036; stroke-width: 1.5;" width="185" x="446" y="149"/><ellipse cx="504.75" cy="165" fill="#ADD1B2" rx="11" ry="11" style="stroke: #A80036; stroke-width: 1.0;"/><path d="M507.0938,160.6719 L507.2656,160.75 C507.4844,160.4375 507.6875,160.3438 507.9844,160.3438 C508.2813,160.3438 508.5625,160.4844 508.7188,160.75 C508.8125,160.9063 508.8281,161.0313 508.8281,161.4688 L508.8281,162.8906 C508.8281,163.3125 508.7969,163.5 508.6875,163.6563 C508.5156,163.875 508.25,164.0156 507.9844,164.0156 C507.7656,164.0156 507.5313,163.9063 507.3906,163.7656 C507.25,163.6406 507.2188,163.5156 507.1563,163.1094 C507.0625,162.7031 506.8906,162.4844 506.4063,162.2031 C505.9375,161.9531 505.3281,161.7969 504.75,161.7969 C503.0156,161.7969 501.7656,163.1094 501.7656,164.8906 L501.7656,165.9844 C501.7656,167.6875 503.0625,168.7813 505.1094,168.7813 C505.875,168.7813 506.5625,168.6563 506.9844,168.3906 C507.1719,168.2969 507.1719,168.2969 507.625,167.8125 C507.8125,167.625 508.0156,167.5469 508.2344,167.5469 C508.7031,167.5469 509.0938,167.9375 509.0938,168.3906 C509.0938,168.7813 508.7656,169.2344 508.1875,169.6406 C507.4375,170.1875 506.2813,170.4844 505.0625,170.4844 C502.1719,170.4844 500.0625,168.5938 500.0625,166.0156 L500.0625,164.8906 C500.0625,162.1719 502.0625,160.0938 504.6875,160.0938 C505.5625,160.0938 506.1563,160.2344 507.0938,160.6719 Z "/><text fill="#000000" font-family="sans-serif" font-size="12" lengthAdjust="spacingAndGlyphs" textLength="55" x="525.25" y="169.1543">Error500</text><line style="stroke: #A80036; stroke-width: 1.5;" x1="447" x2="630" y1="181" y2="181"/><text fill="#000000" font-family="sans-serif" font-size="11" lengthAdjust="spacingAndGlyphs" textLength="105" x="452" y="195.2104">HttpCode: Number</text><text fill="#000000" font-family="sans-serif" font-size="11" font-style="italic" lengthAdjust="spacingAndGlyphs" textLength="60" x="565" y="195.2104">from Error</text><text fill="#000000" font-family="sans-serif" font-size="11" lengthAdjust="spacingAndGlyphs" textLength="93" x="452" y="208.0151">Message: String</text><text fill="#000000" font-family="sans-serif" font-size="11" font-style="italic" lengthAdjust="spacingAndGlyphs" textLength="60" x="553" y="208.0151">from Error</text><line style="stroke: #A80036; stroke-width: 1.5;" x1="447" x2="630" y1="214.6094" y2="214.6094"/><!--class Response--><rect fill="#FEFECE" filter="url(#f1oqjmsfm717hs)" height="86.4141" id="Response" style="stroke: #A80036; stroke-width: 1.5;" width="106" x="666.5" y="143"/><ellipse cx="681.5" cy="159" fill="#DA70D6" rx="11" ry="11" style="stroke: #A80036; stroke-width: 1.0;"/><path d="M681.9375,156.5313 L681.9375,163.0469 L683.0625,163.0469 C683.5156,163.0469 683.6563,163.0781 683.8125,163.2031 C684.0469,163.375 684.1719,163.625 684.1719,163.9063 C684.1719,164.1875 684.0313,164.4844 683.7656,164.625 C683.6563,164.7031 683.3906,164.75 683.0625,164.75 L679.125,164.75 C678.7344,164.75 678.5156,164.7031 678.3594,164.5781 C678.1406,164.4219 678,164.1563 678,163.9063 C678,163.6094 678.1563,163.3281 678.4063,163.1719 C678.5625,163.0625 678.6875,163.0469 679.125,163.0469 L680.2344,163.0469 L680.2344,156.5313 L678.4063,156.5313 L678.4063,158.125 C678.4063,158.5781 678.375,158.7188 678.2656,158.8906 C678.0938,159.1094 677.8438,159.2344 677.5625,159.2344 C677.2813,159.2344 676.9844,159.0938 676.8281,158.8281 C676.75,158.6875 676.7188,158.5156 676.7188,158.125 L676.7188,154.8438 L685.4844,154.8438 L685.4844,158.125 C685.4844,158.5938 685.4688,158.7188 685.3281,158.8906 C685.1563,159.1094 684.9063,159.2344 684.6406,159.2344 C684.3438,159.2344 684.0625,159.0781 683.9063,158.8281 C683.8125,158.6875 683.7813,158.5156 683.7813,158.125 L683.7813,156.5313 Z "/><text fill="#000000" font-family="sans-serif" font-size="12" lengthAdjust="spacingAndGlyphs" textLength="74" x="695.5" y="163.1543">Response a</text><line style="stroke: #A80036; stroke-width: 1.5;" x1="667.5" x2="771.5" y1="175" y2="175"/><text fill="#000000" font-family="sans-serif" font-size="11" lengthAdjust="spacingAndGlyphs" textLength="82" x="672.5" y="189.2104">Code: Number</text><text fill="#000000" font-family="sans-serif" font-size="11" lengthAdjust="spacingAndGlyphs" textLength="93" x="672.5" y="202.0151">Message: String</text><text fill="#000000" font-family="sans-serif" font-size="11" lengthAdjust="spacingAndGlyphs" textLength="43" x="672.5" y="214.8198">Body: a</text><line style="stroke: #A80036; stroke-width: 1.5;" x1="667.5" x2="771.5" y1="221.4141" y2="221.4141"/><!--class ApiResponse--><rect fill="#FEFECE" filter="url(#f1oqjmsfm717hs)" height="99.2188" id="ApiResponse" style="stroke: #A80036; stroke-width: 1.5;" width="123" x="367" y="306"/><ellipse cx="382" cy="322" fill="#A9DCDF" rx="11" ry="11" style="stroke: #A80036; stroke-width: 1.0;"/><path d="M383.5781,323.8125 L379.5313,323.8125 L379.1406,324.7969 L379.5313,324.7969 C379.9844,324.7969 380.125,324.8281 380.2969,324.9531 C380.5156,325.125 380.6406,325.375 380.6406,325.6563 C380.6406,325.9375 380.5,326.2344 380.2344,326.375 C380.1094,326.4688 379.8906,326.5 379.5313,326.5 L377.2656,326.5 C376.5156,326.5 376.1406,326.2188 376.1406,325.6563 C376.1406,325.3594 376.2969,325.0781 376.5469,324.9219 C376.7031,324.8125 376.8594,324.7969 377.2813,324.7969 L379.9219,318.2813 L378.8438,318.2813 C378.4063,318.2813 378.2344,318.25 378.0625,318.1406 C377.8438,317.9688 377.7031,317.7188 377.7031,317.4375 C377.7031,317.1563 377.8594,316.875 378.1094,316.7031 C378.2656,316.6094 378.3906,316.5938 378.8438,316.5938 L382.5156,316.5938 L385.9063,324.7969 C386.375,324.7969 386.5313,324.8281 386.7031,324.9688 C386.9219,325.125 387.0625,325.375 387.0625,325.6563 C387.0625,325.9375 386.9063,326.2344 386.6563,326.375 C386.5156,326.4688 386.2969,326.5 385.9375,326.5 L383.5781,326.5 C383.1563,326.5 382.9531,326.4531 382.8125,326.3281 C382.5938,326.1719 382.4531,325.9219 382.4531,325.6563 C382.4531,325.3594 382.6094,325.0781 382.8594,324.9219 C383.0156,324.8125 383.125,324.7969 383.5781,324.7969 L383.9688,324.7969 Z M382.875,322.1094 L381.5469,318.8438 L380.2031,322.1094 Z "/><text fill="#000000" font-family="sans-serif" font-size="12" font-style="italic" lengthAdjust="spacingAndGlyphs" textLength="91" x="396" y="326.1543">ApiResponse a</text><line style="stroke: #A80036; stroke-width: 1.5;" x1="368" x2="489" y1="338" y2="338"/><text fill="#000000" font-family="sans-serif" font-size="11" lengthAdjust="spacingAndGlyphs" textLength="50" x="373" y="352.2104">Error401</text><text fill="#000000" font-family="sans-serif" font-size="11" lengthAdjust="spacingAndGlyphs" textLength="50" x="373" y="365.0151">Error404</text><text fill="#000000" font-family="sans-serif" font-size="11" lengthAdjust="spacingAndGlyphs" textLength="50" x="373" y="377.8198">Error500</text><text fill="#000000" font-family="sans-serif" font-size="11" lengthAdjust="spacingAndGlyphs" textLength="67" x="373" y="390.6245">Response a</text><line style="stroke: #A80036; stroke-width: 1.5;" x1="368" x2="489" y1="397.2188" y2="397.2188"/><!--link Error to Error404--><path d="M244.308,92.876 C215.427,111.124 182.848,131.707 155.823,148.782 " fill="none" id="Error-Error404" style="stroke: #A80036; stroke-width: 1.0;"/><polygon fill="none" points="240.625,86.923,261.272,82.158,248.103,98.758,240.625,86.923" style="stroke: #A80036; stroke-width: 1.0;"/><!--link Error to Error401--><path d="M318.5,102.218 C318.5,117.834 318.5,134.38 318.5,148.54 " fill="none" id="Error-Error401" style="stroke: #A80036; stroke-width: 1.0;"/><polygon fill="none" points="311.5,102.158,318.5,82.158,325.5,102.158,311.5,102.158" style="stroke: #A80036; stroke-width: 1.0;"/><!--link Error to Error500--><path d="M392.692,92.876 C421.573,111.124 454.152,131.707 481.177,148.782 " fill="none" id="Error-Error500" style="stroke: #A80036; stroke-width: 1.0;"/><polygon fill="none" points="388.897,98.758,375.728,82.158,396.375,86.923,388.897,98.758" style="stroke: #A80036; stroke-width: 1.0;"/><!--link Error401 to ApiResponse--><path d="M345.208,227.668 C360.678,251.225 380.252,281.031 396.537,305.8288 " fill="none" id="Error401-ApiResponse" style="stroke: #A80036; stroke-width: 1.0;"/><polygon fill="#A80036" points="342.368,223.345,343.9636,233.0637,345.1121,227.5247,350.6511,228.6732,342.368,223.345" style="stroke: #A80036; stroke-width: 1.0;"/><text fill="#000000" font-family="sans-serif" font-size="13" lengthAdjust="spacingAndGlyphs" textLength="55" x="377.5" y="272.0669">Error401</text><!--link Error404 to ApiResponse--><path d="M174.218,225.433 C232.607,255.07 312.341,295.541 366.863,323.2148 " fill="none" id="Error404-ApiResponse" style="stroke: #A80036; stroke-width: 1.0;"/><polygon fill="#A80036" points="169.699,223.139,175.9142,230.7791,174.1576,225.4019,179.5348,223.6453,169.699,223.139" style="stroke: #A80036; stroke-width: 1.0;"/><text fill="#000000" font-family="sans-serif" font-size="13" lengthAdjust="spacingAndGlyphs" textLength="55" x="274.5" y="272.0669">Error404</text><!--link Error500 to ApiResponse--><path d="M511.792,227.668 C496.322,251.225 476.748,281.031 460.463,305.8288 " fill="none" id="Error500-ApiResponse" style="stroke: #A80036; stroke-width: 1.0;"/><polygon fill="#A80036" points="514.632,223.345,506.3489,228.6732,511.8879,227.5247,513.0364,233.0637,514.632,223.345" style="stroke: #A80036; stroke-width: 1.0;"/><text fill="#000000" font-family="sans-serif" font-size="13" lengthAdjust="spacingAndGlyphs" textLength="55" x="490.5" y="272.0669">Error500</text><!--link Response to ApiResponse--><path d="M661.905,221.173 C657.374,223.83 652.865,226.464 648.5,229 C595.27,259.924 534.464,294.559 490.289,319.5966 " fill="none" id="Response-ApiResponse" style="stroke: #A80036; stroke-width: 1.0;"/><polygon fill="#A80036" points="666.439,218.512,656.6526,219.6195,662.1273,221.0436,660.7032,226.5183,666.439,218.512" style="stroke: #A80036; stroke-width: 1.0;"/><text fill="#000000" font-family="sans-serif" font-size="13" lengthAdjust="spacingAndGlyphs" textLength="62" x="594.5" y="272.0669">Response</text><!--
@startuml
class "Customer" as Customer  {
	CustomerId: Id 
}
class "Error" as Error  {
	HttpCode: Number 
	Message: String 
}
class "Error404 " as Error404  {
	HttpCode: Number  <i>from Error</i>
	Message: String  <i>from Error</i>
}
Error <|- - Error404
class "Error401 " as Error401  {
	HttpCode: Number  <i>from Error</i>
	Message: String  <i>from Error</i>
}
Error <|- - Error401
class "Error500 " as Error500  {
	HttpCode: Number  <i>from Error</i>
	Message: String  <i>from Error</i>
}
Error <|- - Error500
class "Response a" as Response << (T,orchid) >> {
	Code: Number 
	Message: String 
	Body: a 
}
abstract "ApiResponse a" as ApiResponse {
	Error401 
	Error404 
	Error500 
	Response a
}
Error401 <- - ApiResponse : Error401
Error404 <- - ApiResponse : Error404
Error500 <- - ApiResponse : Error500
Response <- - ApiResponse : Response
@enduml

PlantUML version 1.2019.05beta2(Unknown compile time)
(GPL source distribution)
Java Runtime: Java(TM) SE Runtime Environment
JVM: Java HotSpot(TM) 64-Bit Server VM
Java Version: 1.7.0_25-b15
Operating System: Linux
Default Encoding: UTF-8
Language: en
Country: US
--></g></svg>