<?xml version="1.0" encoding="UTF-8" standalone="no"?><svg xmlns="http://www.w3.org/2000/svg" xmlns:xlink="http://www.w3.org/1999/xlink" contentScriptType="application/ecmascript" contentStyleType="text/css" height="467px" preserveAspectRatio="none" style="width:793px;height:467px;" version="1.1" viewBox="0 0 793 467" width="793px" zoomAndPan="magnify"><defs><filter height="300%" id="flx3q37cgegg9" width="300%" x="-1" y="-1"><feGaussianBlur result="blurOut" stdDeviation="2.0"/><feColorMatrix in="blurOut" result="blurOut2" type="matrix" values="0 0 0 0 0 0 0 0 0 0 0 0 0 0 0 0 0 0 .4 0"/><feOffset dx="4.0" dy="4.0" in="blurOut2" result="blurOut3"/><feBlend in="SourceGraphic" in2="blurOut3" mode="normal"/></filter></defs><g><!--class Customer--><rect fill="#FEFECE" filter="url(#flx3q37cgegg9)" height="86.4141" id="Customer" style="stroke: #A80036; stroke-width: 1.5;" width="142" x="82.5" y="8"/><ellipse cx="120" cy="24" fill="#ADD1B2" rx="11" ry="11" style="stroke: #A80036; stroke-width: 1.0;"/><path d="M122.3438,19.6719 L122.5156,19.75 C122.7344,19.4375 122.9375,19.3438 123.2344,19.3438 C123.5313,19.3438 123.8125,19.4844 123.9688,19.75 C124.0625,19.9063 124.0781,20.0313 124.0781,20.4688 L124.0781,21.8906 C124.0781,22.3125 124.0469,22.5 123.9375,22.6563 C123.7656,22.875 123.5,23.0156 123.2344,23.0156 C123.0156,23.0156 122.7813,22.9063 122.6406,22.7656 C122.5,22.6406 122.4688,22.5156 122.4063,22.1094 C122.3125,21.7031 122.1406,21.4844 121.6563,21.2031 C121.1875,20.9531 120.5781,20.7969 120,20.7969 C118.2656,20.7969 117.0156,22.1094 117.0156,23.8906 L117.0156,24.9844 C117.0156,26.6875 118.3125,27.7813 120.3594,27.7813 C121.125,27.7813 121.8125,27.6563 122.2344,27.3906 C122.4219,27.2969 122.4219,27.2969 122.875,26.8125 C123.0625,26.625 123.2656,26.5469 123.4844,26.5469 C123.9531,26.5469 124.3438,26.9375 124.3438,27.3906 C124.3438,27.7813 124.0156,28.2344 123.4375,28.6406 C122.6875,29.1875 121.5313,29.4844 120.3125,29.4844 C117.4219,29.4844 115.3125,27.5938 115.3125,25.0156 L115.3125,23.8906 C115.3125,21.1719 117.3125,19.0938 119.9375,19.0938 C120.8125,19.0938 121.4063,19.2344 122.3438,19.6719 Z "/><text fill="#000000" font-family="sans-serif" font-size="12" lengthAdjust="spacingAndGlyphs" textLength="60" x="139" y="28.1543">Customer</text><line style="stroke: #A80036; stroke-width: 1.5;" x1="83.5" x2="223.5" y1="40" y2="40"/><text fill="#000000" font-family="sans-serif" font-size="11" lengthAdjust="spacingAndGlyphs" textLength="84" x="88.5" y="54.2104">CustomerId: Id</text><line style="stroke: #A80036; stroke-width: 1.0;" x1="83.5" x2="223.5" y1="60.8047" y2="60.8047"/><text fill="#000000" font-family="sans-serif" font-size="11" font-weight="bold" lengthAdjust="spacingAndGlyphs" textLength="66" x="88.5" y="75.0151">aggregate</text><text fill="#000000" font-family="sans-serif" font-size="11" lengthAdjust="spacingAndGlyphs" textLength="64" x="154.5" y="75.0151">: Customer</text><text fill="#000000" font-family="sans-serif" font-size="11" lengthAdjust="spacingAndGlyphs" textLength="0" x="92.5" y="87.8198"/><!--class Error--><rect fill="#FEFECE" filter="url(#flx3q37cgegg9)" height="73.6094" id="Error" style="stroke: #A80036; stroke-width: 1.5;" width="117" x="260" y="14"/><ellipse cx="299.3" cy="30" fill="#ADD1B2" rx="11" ry="11" style="stroke: #A80036; stroke-width: 1.0;"/><path d="M301.6438,25.6719 L301.8156,25.75 C302.0344,25.4375 302.2375,25.3438 302.5344,25.3438 C302.8313,25.3438 303.1125,25.4844 303.2688,25.75 C303.3625,25.9063 303.3781,26.0313 303.3781,26.4688 L303.3781,27.8906 C303.3781,28.3125 303.3469,28.5 303.2375,28.6563 C303.0656,28.875 302.8,29.0156 302.5344,29.0156 C302.3156,29.0156 302.0813,28.9063 301.9406,28.7656 C301.8,28.6406 301.7688,28.5156 301.7063,28.1094 C301.6125,27.7031 301.4406,27.4844 300.9563,27.2031 C300.4875,26.9531 299.8781,26.7969 299.3,26.7969 C297.5656,26.7969 296.3156,28.1094 296.3156,29.8906 L296.3156,30.9844 C296.3156,32.6875 297.6125,33.7813 299.6594,33.7813 C300.425,33.7813 301.1125,33.6563 301.5344,33.3906 C301.7219,33.2969 301.7219,33.2969 302.175,32.8125 C302.3625,32.625 302.5656,32.5469 302.7844,32.5469 C303.2531,32.5469 303.6438,32.9375 303.6438,33.3906 C303.6438,33.7813 303.3156,34.2344 302.7375,34.6406 C301.9875,35.1875 300.8313,35.4844 299.6125,35.4844 C296.7219,35.4844 294.6125,33.5938 294.6125,31.0156 L294.6125,29.8906 C294.6125,27.1719 296.6125,25.0938 299.2375,25.0938 C300.1125,25.0938 300.7063,25.2344 301.6438,25.6719 Z "/><text fill="#000000" font-family="sans-serif" font-size="12" lengthAdjust="spacingAndGlyphs" textLength="31" x="318.7" y="34.1543">Error</text><line style="stroke: #A80036; stroke-width: 1.5;" x1="261" x2="376" y1="46" y2="46"/><text fill="#000000" font-family="sans-serif" font-size="11" lengthAdjust="spacingAndGlyphs" textLength="105" x="266" y="60.2104">HttpCode: Number</text><text fill="#000000" font-family="sans-serif" font-size="11" lengthAdjust="spacingAndGlyphs" textLength="93" x="266" y="73.0151">Message: String</text><line style="stroke: #A80036; stroke-width: 1.5;" x1="261" x2="376" y1="79.6094" y2="79.6094"/><!--class Error404--><rect fill="#FEFECE" filter="url(#flx3q37cgegg9)" height="112.0234" id="Error404" style="stroke: #A80036; stroke-width: 1.5;" width="185" x="6" y="161.5"/><ellipse cx="64.75" cy="177.5" fill="#ADD1B2" rx="11" ry="11" style="stroke: #A80036; stroke-width: 1.0;"/><path d="M67.0938,173.1719 L67.2656,173.25 C67.4844,172.9375 67.6875,172.8438 67.9844,172.8438 C68.2813,172.8438 68.5625,172.9844 68.7188,173.25 C68.8125,173.4063 68.8281,173.5313 68.8281,173.9688 L68.8281,175.3906 C68.8281,175.8125 68.7969,176 68.6875,176.1563 C68.5156,176.375 68.25,176.5156 67.9844,176.5156 C67.7656,176.5156 67.5313,176.4063 67.3906,176.2656 C67.25,176.1406 67.2188,176.0156 67.1563,175.6094 C67.0625,175.2031 66.8906,174.9844 66.4063,174.7031 C65.9375,174.4531 65.3281,174.2969 64.75,174.2969 C63.0156,174.2969 61.7656,175.6094 61.7656,177.3906 L61.7656,178.4844 C61.7656,180.1875 63.0625,181.2813 65.1094,181.2813 C65.875,181.2813 66.5625,181.1563 66.9844,180.8906 C67.1719,180.7969 67.1719,180.7969 67.625,180.3125 C67.8125,180.125 68.0156,180.0469 68.2344,180.0469 C68.7031,180.0469 69.0938,180.4375 69.0938,180.8906 C69.0938,181.2813 68.7656,181.7344 68.1875,182.1406 C67.4375,182.6875 66.2813,182.9844 65.0625,182.9844 C62.1719,182.9844 60.0625,181.0938 60.0625,178.5156 L60.0625,177.3906 C60.0625,174.6719 62.0625,172.5938 64.6875,172.5938 C65.5625,172.5938 66.1563,172.7344 67.0938,173.1719 Z "/><text fill="#000000" font-family="sans-serif" font-size="12" lengthAdjust="spacingAndGlyphs" textLength="55" x="85.25" y="181.6543">Error404</text><line style="stroke: #A80036; stroke-width: 1.5;" x1="7" x2="190" y1="193.5" y2="193.5"/><text fill="#000000" font-family="sans-serif" font-size="11" lengthAdjust="spacingAndGlyphs" textLength="105" x="12" y="207.7104">HttpCode: Number</text><text fill="#000000" font-family="sans-serif" font-size="11" font-style="italic" lengthAdjust="spacingAndGlyphs" textLength="60" x="125" y="207.7104">from Error</text><text fill="#000000" font-family="sans-serif" font-size="11" lengthAdjust="spacingAndGlyphs" textLength="93" x="12" y="220.5151">Message: String</text><text fill="#000000" font-family="sans-serif" font-size="11" font-style="italic" lengthAdjust="spacingAndGlyphs" textLength="60" x="113" y="220.5151">from Error</text><line style="stroke: #A80036; stroke-width: 1.0;" x1="7" x2="190" y1="227.1094" y2="227.1094"/><text fill="#000000" font-family="sans-serif" font-size="11" font-weight="bold" lengthAdjust="spacingAndGlyphs" textLength="31" x="12" y="241.3198">code</text><text fill="#000000" font-family="sans-serif" font-size="11" lengthAdjust="spacingAndGlyphs" textLength="29" x="43" y="241.3198">: 404</text><text fill="#000000" font-family="sans-serif" font-size="11" font-weight="bold" lengthAdjust="spacingAndGlyphs" textLength="57" x="12" y="254.1245">message</text><text fill="#000000" font-family="sans-serif" font-size="11" lengthAdjust="spacingAndGlyphs" textLength="65" x="69" y="254.1245">: Not Found</text><text fill="#000000" font-family="sans-serif" font-size="11" lengthAdjust="spacingAndGlyphs" textLength="0" x="16" y="266.9292"/><!--class Error401--><rect fill="#FEFECE" filter="url(#flx3q37cgegg9)" height="112.0234" id="Error401" style="stroke: #A80036; stroke-width: 1.5;" width="185" x="226" y="161.5"/><ellipse cx="284.75" cy="177.5" fill="#ADD1B2" rx="11" ry="11" style="stroke: #A80036; stroke-width: 1.0;"/><path d="M287.0938,173.1719 L287.2656,173.25 C287.4844,172.9375 287.6875,172.8438 287.9844,172.8438 C288.2813,172.8438 288.5625,172.9844 288.7188,173.25 C288.8125,173.4063 288.8281,173.5313 288.8281,173.9688 L288.8281,175.3906 C288.8281,175.8125 288.7969,176 288.6875,176.1563 C288.5156,176.375 288.25,176.5156 287.9844,176.5156 C287.7656,176.5156 287.5313,176.4063 287.3906,176.2656 C287.25,176.1406 287.2188,176.0156 287.1563,175.6094 C287.0625,175.2031 286.8906,174.9844 286.4063,174.7031 C285.9375,174.4531 285.3281,174.2969 284.75,174.2969 C283.0156,174.2969 281.7656,175.6094 281.7656,177.3906 L281.7656,178.4844 C281.7656,180.1875 283.0625,181.2813 285.1094,181.2813 C285.875,181.2813 286.5625,181.1563 286.9844,180.8906 C287.1719,180.7969 287.1719,180.7969 287.625,180.3125 C287.8125,180.125 288.0156,180.0469 288.2344,180.0469 C288.7031,180.0469 289.0938,180.4375 289.0938,180.8906 C289.0938,181.2813 288.7656,181.7344 288.1875,182.1406 C287.4375,182.6875 286.2813,182.9844 285.0625,182.9844 C282.1719,182.9844 280.0625,181.0938 280.0625,178.5156 L280.0625,177.3906 C280.0625,174.6719 282.0625,172.5938 284.6875,172.5938 C285.5625,172.5938 286.1563,172.7344 287.0938,173.1719 Z "/><text fill="#000000" font-family="sans-serif" font-size="12" lengthAdjust="spacingAndGlyphs" textLength="55" x="305.25" y="181.6543">Error401</text><line style="stroke: #A80036; stroke-width: 1.5;" x1="227" x2="410" y1="193.5" y2="193.5"/><text fill="#000000" font-family="sans-serif" font-size="11" lengthAdjust="spacingAndGlyphs" textLength="105" x="232" y="207.7104">HttpCode: Number</text><text fill="#000000" font-family="sans-serif" font-size="11" font-style="italic" lengthAdjust="spacingAndGlyphs" textLength="60" x="345" y="207.7104">from Error</text><text fill="#000000" font-family="sans-serif" font-size="11" lengthAdjust="spacingAndGlyphs" textLength="93" x="232" y="220.5151">Message: String</text><text fill="#000000" font-family="sans-serif" font-size="11" font-style="italic" lengthAdjust="spacingAndGlyphs" textLength="60" x="333" y="220.5151">from Error</text><line style="stroke: #A80036; stroke-width: 1.0;" x1="227" x2="410" y1="227.1094" y2="227.1094"/><text fill="#000000" font-family="sans-serif" font-size="11" font-weight="bold" lengthAdjust="spacingAndGlyphs" textLength="31" x="232" y="241.3198">code</text><text fill="#000000" font-family="sans-serif" font-size="11" lengthAdjust="spacingAndGlyphs" textLength="29" x="263" y="241.3198">: 401</text><text fill="#000000" font-family="sans-serif" font-size="11" font-weight="bold" lengthAdjust="spacingAndGlyphs" textLength="57" x="232" y="254.1245">message</text><text fill="#000000" font-family="sans-serif" font-size="11" lengthAdjust="spacingAndGlyphs" textLength="84" x="289" y="254.1245">: Unauthorised</text><text fill="#000000" font-family="sans-serif" font-size="11" lengthAdjust="spacingAndGlyphs" textLength="0" x="236" y="266.9292"/><!--class Error500--><rect fill="#FEFECE" filter="url(#flx3q37cgegg9)" height="112.0234" id="Error500" style="stroke: #A80036; stroke-width: 1.5;" width="195" x="446" y="161.5"/><ellipse cx="509.75" cy="177.5" fill="#ADD1B2" rx="11" ry="11" style="stroke: #A80036; stroke-width: 1.0;"/><path d="M512.0938,173.1719 L512.2656,173.25 C512.4844,172.9375 512.6875,172.8438 512.9844,172.8438 C513.2813,172.8438 513.5625,172.9844 513.7188,173.25 C513.8125,173.4063 513.8281,173.5313 513.8281,173.9688 L513.8281,175.3906 C513.8281,175.8125 513.7969,176 513.6875,176.1563 C513.5156,176.375 513.25,176.5156 512.9844,176.5156 C512.7656,176.5156 512.5313,176.4063 512.3906,176.2656 C512.25,176.1406 512.2188,176.0156 512.1563,175.6094 C512.0625,175.2031 511.8906,174.9844 511.4063,174.7031 C510.9375,174.4531 510.3281,174.2969 509.75,174.2969 C508.0156,174.2969 506.7656,175.6094 506.7656,177.3906 L506.7656,178.4844 C506.7656,180.1875 508.0625,181.2813 510.1094,181.2813 C510.875,181.2813 511.5625,181.1563 511.9844,180.8906 C512.1719,180.7969 512.1719,180.7969 512.625,180.3125 C512.8125,180.125 513.0156,180.0469 513.2344,180.0469 C513.7031,180.0469 514.0938,180.4375 514.0938,180.8906 C514.0938,181.2813 513.7656,181.7344 513.1875,182.1406 C512.4375,182.6875 511.2813,182.9844 510.0625,182.9844 C507.1719,182.9844 505.0625,181.0938 505.0625,178.5156 L505.0625,177.3906 C505.0625,174.6719 507.0625,172.5938 509.6875,172.5938 C510.5625,172.5938 511.1563,172.7344 512.0938,173.1719 Z "/><text fill="#000000" font-family="sans-serif" font-size="12" lengthAdjust="spacingAndGlyphs" textLength="55" x="530.25" y="181.6543">Error500</text><line style="stroke: #A80036; stroke-width: 1.5;" x1="447" x2="640" y1="193.5" y2="193.5"/><text fill="#000000" font-family="sans-serif" font-size="11" lengthAdjust="spacingAndGlyphs" textLength="105" x="452" y="207.7104">HttpCode: Number</text><text fill="#000000" font-family="sans-serif" font-size="11" font-style="italic" lengthAdjust="spacingAndGlyphs" textLength="60" x="565" y="207.7104">from Error</text><text fill="#000000" font-family="sans-serif" font-size="11" lengthAdjust="spacingAndGlyphs" textLength="93" x="452" y="220.5151">Message: String</text><text fill="#000000" font-family="sans-serif" font-size="11" font-style="italic" lengthAdjust="spacingAndGlyphs" textLength="60" x="553" y="220.5151">from Error</text><line style="stroke: #A80036; stroke-width: 1.0;" x1="447" x2="640" y1="227.1094" y2="227.1094"/><text fill="#000000" font-family="sans-serif" font-size="11" font-weight="bold" lengthAdjust="spacingAndGlyphs" textLength="31" x="452" y="241.3198">code</text><text fill="#000000" font-family="sans-serif" font-size="11" lengthAdjust="spacingAndGlyphs" textLength="29" x="483" y="241.3198">: 500</text><text fill="#000000" font-family="sans-serif" font-size="11" font-weight="bold" lengthAdjust="spacingAndGlyphs" textLength="57" x="452" y="254.1245">message</text><text fill="#000000" font-family="sans-serif" font-size="11" lengthAdjust="spacingAndGlyphs" textLength="126" x="509" y="254.1245">: Internal Server Error</text><text fill="#000000" font-family="sans-serif" font-size="11" lengthAdjust="spacingAndGlyphs" textLength="0" x="456" y="266.9292"/><!--class Response--><rect fill="#FEFECE" filter="url(#flx3q37cgegg9)" height="124.8281" id="Response" style="stroke: #A80036; stroke-width: 1.5;" width="106" x="676.5" y="155"/><ellipse cx="691.5" cy="171" fill="#DA70D6" rx="11" ry="11" style="stroke: #A80036; stroke-width: 1.0;"/><path d="M691.9375,168.5313 L691.9375,175.0469 L693.0625,175.0469 C693.5156,175.0469 693.6563,175.0781 693.8125,175.2031 C694.0469,175.375 694.1719,175.625 694.1719,175.9063 C694.1719,176.1875 694.0313,176.4844 693.7656,176.625 C693.6563,176.7031 693.3906,176.75 693.0625,176.75 L689.125,176.75 C688.7344,176.75 688.5156,176.7031 688.3594,176.5781 C688.1406,176.4219 688,176.1563 688,175.9063 C688,175.6094 688.1563,175.3281 688.4063,175.1719 C688.5625,175.0625 688.6875,175.0469 689.125,175.0469 L690.2344,175.0469 L690.2344,168.5313 L688.4063,168.5313 L688.4063,170.125 C688.4063,170.5781 688.375,170.7188 688.2656,170.8906 C688.0938,171.1094 687.8438,171.2344 687.5625,171.2344 C687.2813,171.2344 686.9844,171.0938 686.8281,170.8281 C686.75,170.6875 686.7188,170.5156 686.7188,170.125 L686.7188,166.8438 L695.4844,166.8438 L695.4844,170.125 C695.4844,170.5938 695.4688,170.7188 695.3281,170.8906 C695.1563,171.1094 694.9063,171.2344 694.6406,171.2344 C694.3438,171.2344 694.0625,171.0781 693.9063,170.8281 C693.8125,170.6875 693.7813,170.5156 693.7813,170.125 L693.7813,168.5313 Z "/><text fill="#000000" font-family="sans-serif" font-size="12" lengthAdjust="spacingAndGlyphs" textLength="74" x="705.5" y="175.1543">Response a</text><line style="stroke: #A80036; stroke-width: 1.5;" x1="677.5" x2="781.5" y1="187" y2="187"/><text fill="#000000" font-family="sans-serif" font-size="11" lengthAdjust="spacingAndGlyphs" textLength="82" x="682.5" y="201.2104">Code: Number</text><text fill="#000000" font-family="sans-serif" font-size="11" lengthAdjust="spacingAndGlyphs" textLength="93" x="682.5" y="214.0151">Message: String</text><text fill="#000000" font-family="sans-serif" font-size="11" lengthAdjust="spacingAndGlyphs" textLength="43" x="682.5" y="226.8198">Body: a</text><line style="stroke: #A80036; stroke-width: 1.0;" x1="677.5" x2="781.5" y1="233.4141" y2="233.4141"/><text fill="#000000" font-family="sans-serif" font-size="11" font-weight="bold" lengthAdjust="spacingAndGlyphs" textLength="31" x="682.5" y="247.6245">code</text><text fill="#000000" font-family="sans-serif" font-size="11" lengthAdjust="spacingAndGlyphs" textLength="29" x="713.5" y="247.6245">: 200</text><text fill="#000000" font-family="sans-serif" font-size="11" font-weight="bold" lengthAdjust="spacingAndGlyphs" textLength="57" x="682.5" y="260.4292">message</text><text fill="#000000" font-family="sans-serif" font-size="11" lengthAdjust="spacingAndGlyphs" textLength="24" x="739.5" y="260.4292">: OK</text><text fill="#000000" font-family="sans-serif" font-size="11" lengthAdjust="spacingAndGlyphs" textLength="0" x="686.5" y="273.2339"/><!--class ApiResponse--><rect fill="#FEFECE" filter="url(#flx3q37cgegg9)" height="99.2188" id="ApiResponse" style="stroke: #A80036; stroke-width: 1.5;" width="123" x="369" y="357"/><ellipse cx="384" cy="373" fill="#A9DCDF" rx="11" ry="11" style="stroke: #A80036; stroke-width: 1.0;"/><path d="M385.5781,374.8125 L381.5313,374.8125 L381.1406,375.7969 L381.5313,375.7969 C381.9844,375.7969 382.125,375.8281 382.2969,375.9531 C382.5156,376.125 382.6406,376.375 382.6406,376.6563 C382.6406,376.9375 382.5,377.2344 382.2344,377.375 C382.1094,377.4688 381.8906,377.5 381.5313,377.5 L379.2656,377.5 C378.5156,377.5 378.1406,377.2188 378.1406,376.6563 C378.1406,376.3594 378.2969,376.0781 378.5469,375.9219 C378.7031,375.8125 378.8594,375.7969 379.2813,375.7969 L381.9219,369.2813 L380.8438,369.2813 C380.4063,369.2813 380.2344,369.25 380.0625,369.1406 C379.8438,368.9688 379.7031,368.7188 379.7031,368.4375 C379.7031,368.1563 379.8594,367.875 380.1094,367.7031 C380.2656,367.6094 380.3906,367.5938 380.8438,367.5938 L384.5156,367.5938 L387.9063,375.7969 C388.375,375.7969 388.5313,375.8281 388.7031,375.9688 C388.9219,376.125 389.0625,376.375 389.0625,376.6563 C389.0625,376.9375 388.9063,377.2344 388.6563,377.375 C388.5156,377.4688 388.2969,377.5 387.9375,377.5 L385.5781,377.5 C385.1563,377.5 384.9531,377.4531 384.8125,377.3281 C384.5938,377.1719 384.4531,376.9219 384.4531,376.6563 C384.4531,376.3594 384.6094,376.0781 384.8594,375.9219 C385.0156,375.8125 385.125,375.7969 385.5781,375.7969 L385.9688,375.7969 Z M384.875,373.1094 L383.5469,369.8438 L382.2031,373.1094 Z "/><text fill="#000000" font-family="sans-serif" font-size="12" font-style="italic" lengthAdjust="spacingAndGlyphs" textLength="91" x="398" y="377.1543">ApiResponse a</text><line style="stroke: #A80036; stroke-width: 1.5;" x1="370" x2="491" y1="389" y2="389"/><text fill="#000000" font-family="sans-serif" font-size="11" lengthAdjust="spacingAndGlyphs" textLength="50" x="375" y="403.2104">Error401</text><text fill="#000000" font-family="sans-serif" font-size="11" lengthAdjust="spacingAndGlyphs" textLength="50" x="375" y="416.0151">Error404</text><text fill="#000000" font-family="sans-serif" font-size="11" lengthAdjust="spacingAndGlyphs" textLength="50" x="375" y="428.8198">Error500</text><text fill="#000000" font-family="sans-serif" font-size="11" lengthAdjust="spacingAndGlyphs" textLength="67" x="375" y="441.6245">Response a</text><line style="stroke: #A80036; stroke-width: 1.5;" x1="370" x2="491" y1="448.2188" y2="448.2188"/><!--link Error to Error404--><path d="M254.014,100.218 C228.36,119.4 198.696,141.581 172.198,161.394 " fill="none" id="Error-Error404" style="stroke: #A80036; stroke-width: 1.0;"/><polygon fill="none" points="250.011,94.471,270.22,88.1,258.394,105.683,250.011,94.471" style="stroke: #A80036; stroke-width: 1.0;"/><!--link Error to Error401--><path d="M318.5,108.322 C318.5,125.481 318.5,144.317 318.5,161.394 " fill="none" id="Error-Error401" style="stroke: #A80036; stroke-width: 1.0;"/><polygon fill="none" points="311.5,108.1,318.5,88.1,325.5,108.1,311.5,108.1" style="stroke: #A80036; stroke-width: 1.0;"/><!--link Error to Error500--><path d="M384.077,99.944 C410.399,119.189 440.897,141.486 468.127,161.394 " fill="none" id="Error-Error500" style="stroke: #A80036; stroke-width: 1.0;"/><polygon fill="none" points="379.891,105.555,367.877,88.1,388.154,94.253,379.891,105.555" style="stroke: #A80036; stroke-width: 1.0;"/><!--link Error401 to ApiResponse--><path d="M354.117,277.968 C369.349,303.4 386.911,332.722 401.352,356.8333 " fill="none" id="Error401-ApiResponse" style="stroke: #A80036; stroke-width: 1.0;"/><polygon fill="#A80036" points="351.498,273.595,352.6908,283.3714,354.0671,277.8845,359.554,279.2608,351.498,273.595" style="stroke: #A80036; stroke-width: 1.0;"/><text fill="#000000" font-family="sans-serif" font-size="13" lengthAdjust="spacingAndGlyphs" textLength="55" x="381.5" y="323.0669">Error401</text><!--link Error404 to ApiResponse--><path d="M196.103,273.475 C251.969,304.942 320.361,343.464 368.815,370.7558 " fill="none" id="Error404-ApiResponse" style="stroke: #A80036; stroke-width: 1.0;"/><polygon fill="#A80036" points="191.422,270.839,197.3013,278.7405,195.7787,273.2924,201.2268,271.7698,191.422,270.839" style="stroke: #A80036; stroke-width: 1.0;"/><text fill="#000000" font-family="sans-serif" font-size="13" lengthAdjust="spacingAndGlyphs" textLength="55" x="285.5" y="323.0669">Error404</text><!--link Error500 to ApiResponse--><path d="M507.565,277.968 C492.197,303.4 474.478,332.722 459.908,356.8333 " fill="none" id="Error500-ApiResponse" style="stroke: #A80036; stroke-width: 1.0;"/><polygon fill="#A80036" points="510.207,273.595,502.1286,279.2287,507.6209,277.8742,508.9754,283.3665,510.207,273.595" style="stroke: #A80036; stroke-width: 1.0;"/><text fill="#000000" font-family="sans-serif" font-size="13" lengthAdjust="spacingAndGlyphs" textLength="55" x="487.5" y="323.0669">Error500</text><!--link Response to ApiResponse--><path d="M672.063,269.981 C667.558,273.481 663.008,276.86 658.5,280 C604.929,317.323 539.192,352.497 492.092,376.0565 " fill="none" id="Response-ApiResponse" style="stroke: #A80036; stroke-width: 1.0;"/><polygon fill="#A80036" points="676.184,266.735,666.6382,269.1593,672.2554,269.8279,671.5868,275.4451,676.184,266.735" style="stroke: #A80036; stroke-width: 1.0;"/><text fill="#000000" font-family="sans-serif" font-size="13" lengthAdjust="spacingAndGlyphs" textLength="62" x="611.5" y="323.0669">Response</text><!--
@startuml
class "Customer" as Customer  {
	CustomerId: Id 
- -
  <b>aggregate</b>: Customer
    
}
class "Error" as Error  {
	HttpCode: Number 
	Message: String 
}
class "Error404 " as Error404  {
	HttpCode: Number  <i>from Error</i>
	Message: String  <i>from Error</i>
- -
  <b>code</b>: 404
<b>message</b>: Not Found
    
}
Error <|- - Error404
class "Error401 " as Error401  {
	HttpCode: Number  <i>from Error</i>
	Message: String  <i>from Error</i>
- -
  <b>code</b>: 401
<b>message</b>: Unauthorised
    
}
Error <|- - Error401
class "Error500 " as Error500  {
	HttpCode: Number  <i>from Error</i>
	Message: String  <i>from Error</i>
- -
  <b>code</b>: 500
<b>message</b>: Internal Server Error
    
}
Error <|- - Error500
class "Response a" as Response << (T,orchid) >> {
	Code: Number 
	Message: String 
	Body: a 
- -
  <b>code</b>: 200
<b>message</b>: OK
    
}
abstract "ApiResponse a" as ApiResponse {
	Error401 
	Error404 
	Error500 
	Response a
}
Error401 <- - ApiResponse : Error401
Error404 <- - ApiResponse : Error404
Error500 <- - ApiResponse : Error500
Response <- - ApiResponse : Response
@enduml

PlantUML version 1.2019.05beta2(Unknown compile time)
(GPL source distribution)
Java Runtime: Java(TM) SE Runtime Environment
JVM: Java HotSpot(TM) 64-Bit Server VM
Java Version: 1.7.0_25-b15
Operating System: Linux
Default Encoding: UTF-8
Language: en
Country: US
--></g></svg>