<?xml version="1.0" encoding="UTF-8" standalone="no"?><svg xmlns="http://www.w3.org/2000/svg" xmlns:xlink="http://www.w3.org/1999/xlink" contentScriptType="application/ecmascript" contentStyleType="text/css" height="454px" preserveAspectRatio="none" style="width:793px;height:454px;" version="1.1" viewBox="0 0 793 454" width="793px" zoomAndPan="magnify"><defs><filter height="300%" id="f1w6g7qsw0lbz1" width="300%" x="-1" y="-1"><feGaussianBlur result="blurOut" stdDeviation="2.0"/><feColorMatrix in="blurOut" result="blurOut2" type="matrix" values="0 0 0 0 0 0 0 0 0 0 0 0 0 0 0 0 0 0 .4 0"/><feOffset dx="4.0" dy="4.0" in="blurOut2" result="blurOut3"/><feBlend in="SourceGraphic" in2="blurOut3" mode="normal"/></filter></defs><g><!--class Customer--><rect fill="#FEFECE" filter="url(#f1w6g7qsw0lbz1)" height="86.4141" id="Customer" style="stroke: #A80036; stroke-width: 1.5;" width="198" x="26.5" y="8"/><ellipse cx="91.25" cy="24" fill="#ADD1B2" rx="11" ry="11" style="stroke: #A80036; stroke-width: 1.0;"/><path d="M93.5938,19.6719 L93.7656,19.75 C93.9844,19.4375 94.1875,19.3438 94.4844,19.3438 C94.7813,19.3438 95.0625,19.4844 95.2188,19.75 C95.3125,19.9063 95.3281,20.0313 95.3281,20.4688 L95.3281,21.8906 C95.3281,22.3125 95.2969,22.5 95.1875,22.6563 C95.0156,22.875 94.75,23.0156 94.4844,23.0156 C94.2656,23.0156 94.0313,22.9063 93.8906,22.7656 C93.75,22.6406 93.7188,22.5156 93.6563,22.1094 C93.5625,21.7031 93.3906,21.4844 92.9063,21.2031 C92.4375,20.9531 91.8281,20.7969 91.25,20.7969 C89.5156,20.7969 88.2656,22.1094 88.2656,23.8906 L88.2656,24.9844 C88.2656,26.6875 89.5625,27.7813 91.6094,27.7813 C92.375,27.7813 93.0625,27.6563 93.4844,27.3906 C93.6719,27.2969 93.6719,27.2969 94.125,26.8125 C94.3125,26.625 94.5156,26.5469 94.7344,26.5469 C95.2031,26.5469 95.5938,26.9375 95.5938,27.3906 C95.5938,27.7813 95.2656,28.2344 94.6875,28.6406 C93.9375,29.1875 92.7813,29.4844 91.5625,29.4844 C88.6719,29.4844 86.5625,27.5938 86.5625,25.0156 L86.5625,23.8906 C86.5625,21.1719 88.5625,19.0938 91.1875,19.0938 C92.0625,19.0938 92.6563,19.2344 93.5938,19.6719 Z "/><text fill="#000000" font-family="sans-serif" font-size="12" lengthAdjust="spacingAndGlyphs" textLength="60" x="111.75" y="28.1543">Customer</text><line style="stroke: #A80036; stroke-width: 1.5;" x1="27.5" x2="223.5" y1="40" y2="40"/><text fill="#000000" font-family="sans-serif" font-size="11" lengthAdjust="spacingAndGlyphs" textLength="84" x="32.5" y="54.2104">CustomerId: Id</text><line style="stroke: #A80036; stroke-width: 1.0;" x1="27.5" x2="223.5" y1="60.8047" y2="60.8047"/><line style="stroke: #A80036; stroke-width: 1.0;" x1="27.5" x2="223.5" y1="62.8047" y2="62.8047"/><text fill="#000000" font-family="sans-serif" font-size="11" font-weight="bold" lengthAdjust="spacingAndGlyphs" textLength="72" x="32.5" y="75.0151">description</text><text fill="#000000" font-family="sans-serif" font-size="11" lengthAdjust="spacingAndGlyphs" textLength="114" x="104.5" y="75.0151">: Someone or some</text><text fill="#000000" font-family="sans-serif" font-size="11" lengthAdjust="spacingAndGlyphs" textLength="148" x="32.5" y="87.8198">company who buys things</text><!--class Error--><rect fill="#FEFECE" filter="url(#f1w6g7qsw0lbz1)" height="73.6094" id="Error" style="stroke: #A80036; stroke-width: 1.5;" width="117" x="260" y="14"/><ellipse cx="299.3" cy="30" fill="#ADD1B2" rx="11" ry="11" style="stroke: #A80036; stroke-width: 1.0;"/><path d="M301.6438,25.6719 L301.8156,25.75 C302.0344,25.4375 302.2375,25.3438 302.5344,25.3438 C302.8313,25.3438 303.1125,25.4844 303.2688,25.75 C303.3625,25.9063 303.3781,26.0313 303.3781,26.4688 L303.3781,27.8906 C303.3781,28.3125 303.3469,28.5 303.2375,28.6563 C303.0656,28.875 302.8,29.0156 302.5344,29.0156 C302.3156,29.0156 302.0813,28.9063 301.9406,28.7656 C301.8,28.6406 301.7688,28.5156 301.7063,28.1094 C301.6125,27.7031 301.4406,27.4844 300.9563,27.2031 C300.4875,26.9531 299.8781,26.7969 299.3,26.7969 C297.5656,26.7969 296.3156,28.1094 296.3156,29.8906 L296.3156,30.9844 C296.3156,32.6875 297.6125,33.7813 299.6594,33.7813 C300.425,33.7813 301.1125,33.6563 301.5344,33.3906 C301.7219,33.2969 301.7219,33.2969 302.175,32.8125 C302.3625,32.625 302.5656,32.5469 302.7844,32.5469 C303.2531,32.5469 303.6438,32.9375 303.6438,33.3906 C303.6438,33.7813 303.3156,34.2344 302.7375,34.6406 C301.9875,35.1875 300.8313,35.4844 299.6125,35.4844 C296.7219,35.4844 294.6125,33.5938 294.6125,31.0156 L294.6125,29.8906 C294.6125,27.1719 296.6125,25.0938 299.2375,25.0938 C300.1125,25.0938 300.7063,25.2344 301.6438,25.6719 Z "/><text fill="#000000" font-family="sans-serif" font-size="12" lengthAdjust="spacingAndGlyphs" textLength="31" x="318.7" y="34.1543">Error</text><line style="stroke: #A80036; stroke-width: 1.5;" x1="261" x2="376" y1="46" y2="46"/><text fill="#000000" font-family="sans-serif" font-size="11" lengthAdjust="spacingAndGlyphs" textLength="105" x="266" y="60.2104">HttpCode: Number</text><text fill="#000000" font-family="sans-serif" font-size="11" lengthAdjust="spacingAndGlyphs" textLength="93" x="266" y="73.0151">Message: String</text><line style="stroke: #A80036; stroke-width: 1.5;" x1="261" x2="376" y1="79.6094" y2="79.6094"/><!--class Error404--><rect fill="#FEFECE" filter="url(#f1w6g7qsw0lbz1)" height="99.2188" id="Error404" style="stroke: #A80036; stroke-width: 1.5;" width="185" x="6" y="161.5"/><ellipse cx="47.55" cy="177.5" fill="#ADD1B2" rx="11" ry="11" style="stroke: #A80036; stroke-width: 1.0;"/><path d="M49.8938,173.1719 L50.0656,173.25 C50.2844,172.9375 50.4875,172.8438 50.7844,172.8438 C51.0813,172.8438 51.3625,172.9844 51.5188,173.25 C51.6125,173.4063 51.6281,173.5313 51.6281,173.9688 L51.6281,175.3906 C51.6281,175.8125 51.5969,176 51.4875,176.1563 C51.3156,176.375 51.05,176.5156 50.7844,176.5156 C50.5656,176.5156 50.3313,176.4063 50.1906,176.2656 C50.05,176.1406 50.0188,176.0156 49.9563,175.6094 C49.8625,175.2031 49.6906,174.9844 49.2063,174.7031 C48.7375,174.4531 48.1281,174.2969 47.55,174.2969 C45.8156,174.2969 44.5656,175.6094 44.5656,177.3906 L44.5656,178.4844 C44.5656,180.1875 45.8625,181.2813 47.9094,181.2813 C48.675,181.2813 49.3625,181.1563 49.7844,180.8906 C49.9719,180.7969 49.9719,180.7969 50.425,180.3125 C50.6125,180.125 50.8156,180.0469 51.0344,180.0469 C51.5031,180.0469 51.8938,180.4375 51.8938,180.8906 C51.8938,181.2813 51.5656,181.7344 50.9875,182.1406 C50.2375,182.6875 49.0813,182.9844 47.8625,182.9844 C44.9719,182.9844 42.8625,181.0938 42.8625,178.5156 L42.8625,177.3906 C42.8625,174.6719 44.8625,172.5938 47.4875,172.5938 C48.3625,172.5938 48.9563,172.7344 49.8938,173.1719 Z "/><text fill="#000000" font-family="sans-serif" font-size="12" lengthAdjust="spacingAndGlyphs" textLength="55" x="67.45" y="181.6543">Error404</text><rect fill="#FFFFFF" height="15.9688" style="stroke: #000000; stroke-width: 1.0; stroke-dasharray: 2.0,2.0;" width="33" x="161" y="158.5"/><text fill="#000000" font-family="sans-serif" font-size="12" font-style="italic" lengthAdjust="spacingAndGlyphs" textLength="31" x="162" y="170.6387">Error</text><line style="stroke: #A80036; stroke-width: 1.5;" x1="7" x2="190" y1="193.5" y2="193.5"/><text fill="#000000" font-family="sans-serif" font-size="11" lengthAdjust="spacingAndGlyphs" textLength="105" x="12" y="207.7104">HttpCode: Number</text><text fill="#000000" font-family="sans-serif" font-size="11" font-style="italic" lengthAdjust="spacingAndGlyphs" textLength="60" x="125" y="207.7104">from Error</text><text fill="#000000" font-family="sans-serif" font-size="11" lengthAdjust="spacingAndGlyphs" textLength="93" x="12" y="220.5151">Message: String</text><text fill="#000000" font-family="sans-serif" font-size="11" font-style="italic" lengthAdjust="spacingAndGlyphs" textLength="60" x="113" y="220.5151">from Error</text><line style="stroke: #A80036; stroke-width: 1.0;" x1="7" x2="190" y1="227.1094" y2="227.1094"/><line style="stroke: #A80036; stroke-width: 1.0;" x1="7" x2="190" y1="229.1094" y2="229.1094"/><text fill="#000000" font-family="sans-serif" font-size="11" font-weight="bold" lengthAdjust="spacingAndGlyphs" textLength="31" x="12" y="241.3198">code</text><text fill="#000000" font-family="sans-serif" font-size="11" lengthAdjust="spacingAndGlyphs" textLength="29" x="43" y="241.3198">: 404</text><text fill="#000000" font-family="sans-serif" font-size="11" font-weight="bold" lengthAdjust="spacingAndGlyphs" textLength="57" x="12" y="254.1245">message</text><text fill="#000000" font-family="sans-serif" font-size="11" lengthAdjust="spacingAndGlyphs" textLength="65" x="69" y="254.1245">: Not Found</text><!--class Error401--><rect fill="#FEFECE" filter="url(#f1w6g7qsw0lbz1)" height="99.2188" id="Error401" style="stroke: #A80036; stroke-width: 1.5;" width="185" x="226" y="161.5"/><ellipse cx="267.55" cy="177.5" fill="#ADD1B2" rx="11" ry="11" style="stroke: #A80036; stroke-width: 1.0;"/><path d="M269.8938,173.1719 L270.0656,173.25 C270.2844,172.9375 270.4875,172.8438 270.7844,172.8438 C271.0813,172.8438 271.3625,172.9844 271.5188,173.25 C271.6125,173.4063 271.6281,173.5313 271.6281,173.9688 L271.6281,175.3906 C271.6281,175.8125 271.5969,176 271.4875,176.1563 C271.3156,176.375 271.05,176.5156 270.7844,176.5156 C270.5656,176.5156 270.3313,176.4063 270.1906,176.2656 C270.05,176.1406 270.0188,176.0156 269.9563,175.6094 C269.8625,175.2031 269.6906,174.9844 269.2063,174.7031 C268.7375,174.4531 268.1281,174.2969 267.55,174.2969 C265.8156,174.2969 264.5656,175.6094 264.5656,177.3906 L264.5656,178.4844 C264.5656,180.1875 265.8625,181.2813 267.9094,181.2813 C268.675,181.2813 269.3625,181.1563 269.7844,180.8906 C269.9719,180.7969 269.9719,180.7969 270.425,180.3125 C270.6125,180.125 270.8156,180.0469 271.0344,180.0469 C271.5031,180.0469 271.8938,180.4375 271.8938,180.8906 C271.8938,181.2813 271.5656,181.7344 270.9875,182.1406 C270.2375,182.6875 269.0813,182.9844 267.8625,182.9844 C264.9719,182.9844 262.8625,181.0938 262.8625,178.5156 L262.8625,177.3906 C262.8625,174.6719 264.8625,172.5938 267.4875,172.5938 C268.3625,172.5938 268.9563,172.7344 269.8938,173.1719 Z "/><text fill="#000000" font-family="sans-serif" font-size="12" lengthAdjust="spacingAndGlyphs" textLength="55" x="287.45" y="181.6543">Error401</text><rect fill="#FFFFFF" height="15.9688" style="stroke: #000000; stroke-width: 1.0; stroke-dasharray: 2.0,2.0;" width="33" x="381" y="158.5"/><text fill="#000000" font-family="sans-serif" font-size="12" font-style="italic" lengthAdjust="spacingAndGlyphs" textLength="31" x="382" y="170.6387">Error</text><line style="stroke: #A80036; stroke-width: 1.5;" x1="227" x2="410" y1="193.5" y2="193.5"/><text fill="#000000" font-family="sans-serif" font-size="11" lengthAdjust="spacingAndGlyphs" textLength="105" x="232" y="207.7104">HttpCode: Number</text><text fill="#000000" font-family="sans-serif" font-size="11" font-style="italic" lengthAdjust="spacingAndGlyphs" textLength="60" x="345" y="207.7104">from Error</text><text fill="#000000" font-family="sans-serif" font-size="11" lengthAdjust="spacingAndGlyphs" textLength="93" x="232" y="220.5151">Message: String</text><text fill="#000000" font-family="sans-serif" font-size="11" font-style="italic" lengthAdjust="spacingAndGlyphs" textLength="60" x="333" y="220.5151">from Error</text><line style="stroke: #A80036; stroke-width: 1.0;" x1="227" x2="410" y1="227.1094" y2="227.1094"/><line style="stroke: #A80036; stroke-width: 1.0;" x1="227" x2="410" y1="229.1094" y2="229.1094"/><text fill="#000000" font-family="sans-serif" font-size="11" font-weight="bold" lengthAdjust="spacingAndGlyphs" textLength="31" x="232" y="241.3198">code</text><text fill="#000000" font-family="sans-serif" font-size="11" lengthAdjust="spacingAndGlyphs" textLength="29" x="263" y="241.3198">: 401</text><text fill="#000000" font-family="sans-serif" font-size="11" font-weight="bold" lengthAdjust="spacingAndGlyphs" textLength="57" x="232" y="254.1245">message</text><text fill="#000000" font-family="sans-serif" font-size="11" lengthAdjust="spacingAndGlyphs" textLength="84" x="289" y="254.1245">: Unauthorised</text><!--class Error500--><rect fill="#FEFECE" filter="url(#f1w6g7qsw0lbz1)" height="99.2188" id="Error500" style="stroke: #A80036; stroke-width: 1.5;" width="195" x="446" y="161.5"/><ellipse cx="492.25" cy="177.5" fill="#ADD1B2" rx="11" ry="11" style="stroke: #A80036; stroke-width: 1.0;"/><path d="M494.5938,173.1719 L494.7656,173.25 C494.9844,172.9375 495.1875,172.8438 495.4844,172.8438 C495.7813,172.8438 496.0625,172.9844 496.2188,173.25 C496.3125,173.4063 496.3281,173.5313 496.3281,173.9688 L496.3281,175.3906 C496.3281,175.8125 496.2969,176 496.1875,176.1563 C496.0156,176.375 495.75,176.5156 495.4844,176.5156 C495.2656,176.5156 495.0313,176.4063 494.8906,176.2656 C494.75,176.1406 494.7188,176.0156 494.6563,175.6094 C494.5625,175.2031 494.3906,174.9844 493.9063,174.7031 C493.4375,174.4531 492.8281,174.2969 492.25,174.2969 C490.5156,174.2969 489.2656,175.6094 489.2656,177.3906 L489.2656,178.4844 C489.2656,180.1875 490.5625,181.2813 492.6094,181.2813 C493.375,181.2813 494.0625,181.1563 494.4844,180.8906 C494.6719,180.7969 494.6719,180.7969 495.125,180.3125 C495.3125,180.125 495.5156,180.0469 495.7344,180.0469 C496.2031,180.0469 496.5938,180.4375 496.5938,180.8906 C496.5938,181.2813 496.2656,181.7344 495.6875,182.1406 C494.9375,182.6875 493.7813,182.9844 492.5625,182.9844 C489.6719,182.9844 487.5625,181.0938 487.5625,178.5156 L487.5625,177.3906 C487.5625,174.6719 489.5625,172.5938 492.1875,172.5938 C493.0625,172.5938 493.6563,172.7344 494.5938,173.1719 Z "/><text fill="#000000" font-family="sans-serif" font-size="12" lengthAdjust="spacingAndGlyphs" textLength="55" x="512.75" y="181.6543">Error500</text><rect fill="#FFFFFF" height="15.9688" style="stroke: #000000; stroke-width: 1.0; stroke-dasharray: 2.0,2.0;" width="33" x="611" y="158.5"/><text fill="#000000" font-family="sans-serif" font-size="12" font-style="italic" lengthAdjust="spacingAndGlyphs" textLength="31" x="612" y="170.6387">Error</text><line style="stroke: #A80036; stroke-width: 1.5;" x1="447" x2="640" y1="193.5" y2="193.5"/><text fill="#000000" font-family="sans-serif" font-size="11" lengthAdjust="spacingAndGlyphs" textLength="105" x="452" y="207.7104">HttpCode: Number</text><text fill="#000000" font-family="sans-serif" font-size="11" font-style="italic" lengthAdjust="spacingAndGlyphs" textLength="60" x="565" y="207.7104">from Error</text><text fill="#000000" font-family="sans-serif" font-size="11" lengthAdjust="spacingAndGlyphs" textLength="93" x="452" y="220.5151">Message: String</text><text fill="#000000" font-family="sans-serif" font-size="11" font-style="italic" lengthAdjust="spacingAndGlyphs" textLength="60" x="553" y="220.5151">from Error</text><line style="stroke: #A80036; stroke-width: 1.0;" x1="447" x2="640" y1="227.1094" y2="227.1094"/><line style="stroke: #A80036; stroke-width: 1.0;" x1="447" x2="640" y1="229.1094" y2="229.1094"/><text fill="#000000" font-family="sans-serif" font-size="11" font-weight="bold" lengthAdjust="spacingAndGlyphs" textLength="31" x="452" y="241.3198">code</text><text fill="#000000" font-family="sans-serif" font-size="11" lengthAdjust="spacingAndGlyphs" textLength="29" x="483" y="241.3198">: 500</text><text fill="#000000" font-family="sans-serif" font-size="11" font-weight="bold" lengthAdjust="spacingAndGlyphs" textLength="57" x="452" y="254.1245">message</text><text fill="#000000" font-family="sans-serif" font-size="11" lengthAdjust="spacingAndGlyphs" textLength="126" x="509" y="254.1245">: Internal Server Error</text><!--class Response--><rect fill="#FEFECE" filter="url(#f1w6g7qsw0lbz1)" height="112.0234" id="Response" style="stroke: #A80036; stroke-width: 1.5;" width="106" x="676.5" y="155"/><ellipse cx="691.5" cy="171" fill="#DA70D6" rx="11" ry="11" style="stroke: #A80036; stroke-width: 1.0;"/><path d="M691.9375,168.5313 L691.9375,175.0469 L693.0625,175.0469 C693.5156,175.0469 693.6563,175.0781 693.8125,175.2031 C694.0469,175.375 694.1719,175.625 694.1719,175.9063 C694.1719,176.1875 694.0313,176.4844 693.7656,176.625 C693.6563,176.7031 693.3906,176.75 693.0625,176.75 L689.125,176.75 C688.7344,176.75 688.5156,176.7031 688.3594,176.5781 C688.1406,176.4219 688,176.1563 688,175.9063 C688,175.6094 688.1563,175.3281 688.4063,175.1719 C688.5625,175.0625 688.6875,175.0469 689.125,175.0469 L690.2344,175.0469 L690.2344,168.5313 L688.4063,168.5313 L688.4063,170.125 C688.4063,170.5781 688.375,170.7188 688.2656,170.8906 C688.0938,171.1094 687.8438,171.2344 687.5625,171.2344 C687.2813,171.2344 686.9844,171.0938 686.8281,170.8281 C686.75,170.6875 686.7188,170.5156 686.7188,170.125 L686.7188,166.8438 L695.4844,166.8438 L695.4844,170.125 C695.4844,170.5938 695.4688,170.7188 695.3281,170.8906 C695.1563,171.1094 694.9063,171.2344 694.6406,171.2344 C694.3438,171.2344 694.0625,171.0781 693.9063,170.8281 C693.8125,170.6875 693.7813,170.5156 693.7813,170.125 L693.7813,168.5313 Z "/><text fill="#000000" font-family="sans-serif" font-size="12" lengthAdjust="spacingAndGlyphs" textLength="74" x="705.5" y="175.1543">Response a</text><line style="stroke: #A80036; stroke-width: 1.5;" x1="677.5" x2="781.5" y1="187" y2="187"/><text fill="#000000" font-family="sans-serif" font-size="11" lengthAdjust="spacingAndGlyphs" textLength="82" x="682.5" y="201.2104">Code: Number</text><text fill="#000000" font-family="sans-serif" font-size="11" lengthAdjust="spacingAndGlyphs" textLength="93" x="682.5" y="214.0151">Message: String</text><text fill="#000000" font-family="sans-serif" font-size="11" lengthAdjust="spacingAndGlyphs" textLength="43" x="682.5" y="226.8198">Body: a</text><line style="stroke: #A80036; stroke-width: 1.0;" x1="677.5" x2="781.5" y1="233.4141" y2="233.4141"/><line style="stroke: #A80036; stroke-width: 1.0;" x1="677.5" x2="781.5" y1="235.4141" y2="235.4141"/><text fill="#000000" font-family="sans-serif" font-size="11" font-weight="bold" lengthAdjust="spacingAndGlyphs" textLength="31" x="682.5" y="247.6245">code</text><text fill="#000000" font-family="sans-serif" font-size="11" lengthAdjust="spacingAndGlyphs" textLength="29" x="713.5" y="247.6245">: 200</text><text fill="#000000" font-family="sans-serif" font-size="11" font-weight="bold" lengthAdjust="spacingAndGlyphs" textLength="57" x="682.5" y="260.4292">message</text><text fill="#000000" font-family="sans-serif" font-size="11" lengthAdjust="spacingAndGlyphs" textLength="24" x="739.5" y="260.4292">: OK</text><!--class ApiResponse--><rect fill="#FEFECE" filter="url(#f1w6g7qsw0lbz1)" height="99.2188" id="ApiResponse" style="stroke: #A80036; stroke-width: 1.5;" width="123" x="369" y="344"/><ellipse cx="384" cy="360" fill="#A9DCDF" rx="11" ry="11" style="stroke: #A80036; stroke-width: 1.0;"/><path d="M385.5781,361.8125 L381.5313,361.8125 L381.1406,362.7969 L381.5313,362.7969 C381.9844,362.7969 382.125,362.8281 382.2969,362.9531 C382.5156,363.125 382.6406,363.375 382.6406,363.6563 C382.6406,363.9375 382.5,364.2344 382.2344,364.375 C382.1094,364.4688 381.8906,364.5 381.5313,364.5 L379.2656,364.5 C378.5156,364.5 378.1406,364.2188 378.1406,363.6563 C378.1406,363.3594 378.2969,363.0781 378.5469,362.9219 C378.7031,362.8125 378.8594,362.7969 379.2813,362.7969 L381.9219,356.2813 L380.8438,356.2813 C380.4063,356.2813 380.2344,356.25 380.0625,356.1406 C379.8438,355.9688 379.7031,355.7188 379.7031,355.4375 C379.7031,355.1563 379.8594,354.875 380.1094,354.7031 C380.2656,354.6094 380.3906,354.5938 380.8438,354.5938 L384.5156,354.5938 L387.9063,362.7969 C388.375,362.7969 388.5313,362.8281 388.7031,362.9688 C388.9219,363.125 389.0625,363.375 389.0625,363.6563 C389.0625,363.9375 388.9063,364.2344 388.6563,364.375 C388.5156,364.4688 388.2969,364.5 387.9375,364.5 L385.5781,364.5 C385.1563,364.5 384.9531,364.4531 384.8125,364.3281 C384.5938,364.1719 384.4531,363.9219 384.4531,363.6563 C384.4531,363.3594 384.6094,363.0781 384.8594,362.9219 C385.0156,362.8125 385.125,362.7969 385.5781,362.7969 L385.9688,362.7969 Z M384.875,360.1094 L383.5469,356.8438 L382.2031,360.1094 Z "/><text fill="#000000" font-family="sans-serif" font-size="12" font-style="italic" lengthAdjust="spacingAndGlyphs" textLength="91" x="398" y="364.1543">ApiResponse a</text><line style="stroke: #A80036; stroke-width: 1.5;" x1="370" x2="491" y1="376" y2="376"/><text fill="#000000" font-family="sans-serif" font-size="11" lengthAdjust="spacingAndGlyphs" textLength="50" x="375" y="390.2104">Error401</text><text fill="#000000" font-family="sans-serif" font-size="11" lengthAdjust="spacingAndGlyphs" textLength="50" x="375" y="403.0151">Error404</text><text fill="#000000" font-family="sans-serif" font-size="11" lengthAdjust="spacingAndGlyphs" textLength="50" x="375" y="415.8198">Error500</text><text fill="#000000" font-family="sans-serif" font-size="11" lengthAdjust="spacingAndGlyphs" textLength="67" x="375" y="428.6245">Response a</text><line style="stroke: #A80036; stroke-width: 1.5;" x1="370" x2="491" y1="435.2188" y2="435.2188"/><!--link Error to Error404--><path d="M268.303,88.05 C243.072,106.171 211.811,128.622 183.015,149.303 " fill="none" id="Error-Error404" style="stroke: #A80036; stroke-width: 1.0;"/><polygon fill="none" points="186.737,155.248,166.409,161.229,178.57,143.877,186.737,155.248" style="stroke: #A80036; stroke-width: 1.0;"/><!--link Error to Error401--><path d="M318.5,88.248 C318.5,104.003 318.5,123.003 318.5,141.26 " fill="none" id="Error-Error401" style="stroke: #A80036; stroke-width: 1.0;"/><polygon fill="none" points="325.5,141.344,318.5,161.344,311.5,141.344,325.5,141.344" style="stroke: #A80036; stroke-width: 1.0;"/><!--link Error to Error500--><path d="M369.838,88.05 C395.762,106.255 427.913,128.832 457.477,149.593 " fill="none" id="Error-Error500" style="stroke: #A80036; stroke-width: 1.0;"/><polygon fill="none" points="461.703,144.007,474.047,161.229,453.657,155.464,461.703,144.007" style="stroke: #A80036; stroke-width: 1.0;"/><!--link Error401 to ApiResponse--><path d="M348.809,260.846 C363.935,285.224 382.255,314.748 397.709,339.654 " fill="none" id="Error401-ApiResponse" style="stroke: #A80036; stroke-width: 1.0;"/><polygon fill="#A80036" points="400.361,343.9281,399.0155,334.1716,397.7251,339.6793,392.2174,338.3889,400.361,343.9281" style="stroke: #A80036; stroke-width: 1.0;"/><text fill="#000000" font-family="sans-serif" font-size="13" lengthAdjust="spacingAndGlyphs" textLength="55" x="381.5" y="310.0669">Error401</text><!--link Error404 to ApiResponse--><path d="M187.907,260.608 C243.463,290.813 313.679,328.987 364.257,356.4851 " fill="none" id="Error404-ApiResponse" style="stroke: #A80036; stroke-width: 1.0;"/><polygon fill="#A80036" points="368.781,358.9451,362.7832,351.1332,364.3878,356.5577,358.9633,358.1623,368.781,358.9451" style="stroke: #A80036; stroke-width: 1.0;"/><text fill="#000000" font-family="sans-serif" font-size="13" lengthAdjust="spacingAndGlyphs" textLength="55" x="285.5" y="310.0669">Error404</text><!--link Error500 to ApiResponse--><path d="M512.921,260.846 C497.659,285.224 479.176,314.748 463.584,339.654 " fill="none" id="Error500-ApiResponse" style="stroke: #A80036; stroke-width: 1.0;"/><polygon fill="#A80036" points="460.908,343.9281,469.0757,338.4245,463.5624,339.6908,462.296,334.1775,460.908,343.9281" style="stroke: #A80036; stroke-width: 1.0;"/><text fill="#000000" font-family="sans-serif" font-size="13" lengthAdjust="spacingAndGlyphs" textLength="55" x="487.5" y="310.0669">Error500</text><!--link Response to ApiResponse--><path d="M676.262,254.649 C670.361,258.951 664.365,263.148 658.5,267 C605.922,301.533 543.101,335.622 496.727,359.5371 " fill="none" id="Response-ApiResponse" style="stroke: #A80036; stroke-width: 1.0;"/><polygon fill="#A80036" points="492.008,361.9647,501.8409,361.4047,496.4542,359.6775,498.1814,354.2908,492.008,361.9647" style="stroke: #A80036; stroke-width: 1.0;"/><text fill="#000000" font-family="sans-serif" font-size="13" lengthAdjust="spacingAndGlyphs" textLength="62" x="610.5" y="310.0669">Response</text><!--
@startuml
class "Customer" as Customer  {
	CustomerId: Id 
===
  <b>description</b>: Someone or some
 company who buys things
}
class "Error" as Error  {
	HttpCode: Number 
	Message: String 
}
class "Error404 " as Error404 <Error> {
	HttpCode: Number  <i>from Error</i>
	Message: String  <i>from Error</i>
===
  <b>code</b>: 404
<b>message</b>: Not Found
}
Error - -|> Error404
class "Error401 " as Error401 <Error> {
	HttpCode: Number  <i>from Error</i>
	Message: String  <i>from Error</i>
===
  <b>code</b>: 401
<b>message</b>: Unauthorised
}
Error - -|> Error401
class "Error500 " as Error500 <Error> {
	HttpCode: Number  <i>from Error</i>
	Message: String  <i>from Error</i>
===
  <b>code</b>: 500
<b>message</b>: Internal Server Error
}
Error - -|> Error500
class "Response a" as Response << (T,orchid) >> {
	Code: Number 
	Message: String 
	Body: a 
===
  <b>code</b>: 200
<b>message</b>: OK
}
abstract "ApiResponse a" as ApiResponse {
	Error401 
	Error404 
	Error500 
	Response a
}
Error401 - -> ApiResponse : Error401
Error404 - -> ApiResponse : Error404
Error500 - -> ApiResponse : Error500
Response - -> ApiResponse : Response
@enduml

PlantUML version 1.2019.05beta2(Unknown compile time)
(GPL source distribution)
Java Runtime: Java(TM) SE Runtime Environment
JVM: Java HotSpot(TM) 64-Bit Server VM
Java Version: 1.7.0_25-b15
Operating System: Linux
Default Encoding: UTF-8
Language: en
Country: US
--></g></svg>