<?xml version="1.0" encoding="UTF-8" standalone="no"?><svg xmlns="http://www.w3.org/2000/svg" xmlns:xlink="http://www.w3.org/1999/xlink" contentScriptType="application/ecmascript" contentStyleType="text/css" height="455px" preserveAspectRatio="none" style="width:793px;height:455px;" version="1.1" viewBox="0 0 793 455" width="793px" zoomAndPan="magnify"><defs><filter height="300%" id="fidzcqry8nrko" width="300%" x="-1" y="-1"><feGaussianBlur result="blurOut" stdDeviation="2.0"/><feColorMatrix in="blurOut" result="blurOut2" type="matrix" values="0 0 0 0 0 0 0 0 0 0 0 0 0 0 0 0 0 0 .4 0"/><feOffset dx="4.0" dy="4.0" in="blurOut2" result="blurOut3"/><feBlend in="SourceGraphic" in2="blurOut3" mode="normal"/></filter></defs><g><!--class Customer--><rect fill="#FEFECE" filter="url(#fidzcqry8nrko)" height="60.8047" id="Customer" style="stroke: #A80036; stroke-width: 1.5;" width="96" x="128.5" y="14.5"/><ellipse cx="145.3" cy="30.5" fill="#ADD1B2" rx="11" ry="11" style="stroke: #A80036; stroke-width: 1.0;"/><path d="M147.6438,26.1719 L147.8156,26.25 C148.0344,25.9375 148.2375,25.8438 148.5344,25.8438 C148.8313,25.8438 149.1125,25.9844 149.2688,26.25 C149.3625,26.4063 149.3781,26.5313 149.3781,26.9688 L149.3781,28.3906 C149.3781,28.8125 149.3469,29 149.2375,29.1563 C149.0656,29.375 148.8,29.5156 148.5344,29.5156 C148.3156,29.5156 148.0813,29.4063 147.9406,29.2656 C147.8,29.1406 147.7688,29.0156 147.7063,28.6094 C147.6125,28.2031 147.4406,27.9844 146.9563,27.7031 C146.4875,27.4531 145.8781,27.2969 145.3,27.2969 C143.5656,27.2969 142.3156,28.6094 142.3156,30.3906 L142.3156,31.4844 C142.3156,33.1875 143.6125,34.2813 145.6594,34.2813 C146.425,34.2813 147.1125,34.1563 147.5344,33.8906 C147.7219,33.7969 147.7219,33.7969 148.175,33.3125 C148.3625,33.125 148.5656,33.0469 148.7844,33.0469 C149.2531,33.0469 149.6438,33.4375 149.6438,33.8906 C149.6438,34.2813 149.3156,34.7344 148.7375,35.1406 C147.9875,35.6875 146.8313,35.9844 145.6125,35.9844 C142.7219,35.9844 140.6125,34.0938 140.6125,31.5156 L140.6125,30.3906 C140.6125,27.6719 142.6125,25.5938 145.2375,25.5938 C146.1125,25.5938 146.7063,25.7344 147.6438,26.1719 Z "/><text fill="#000000" font-family="sans-serif" font-size="12" lengthAdjust="spacingAndGlyphs" textLength="60" x="159.7" y="34.6543">Customer</text><line style="stroke: #A80036; stroke-width: 1.5;" x1="129.5" x2="223.5" y1="46.5" y2="46.5"/><text fill="#000000" font-family="sans-serif" font-size="11" lengthAdjust="spacingAndGlyphs" textLength="84" x="134.5" y="60.7104">CustomerId: Id</text><line style="stroke: #A80036; stroke-width: 1.5;" x1="129.5" x2="223.5" y1="67.3047" y2="67.3047"/><!--class Error--><rect fill="#FEFECE" filter="url(#fidzcqry8nrko)" height="73.6094" id="Error" style="stroke: #A80036; stroke-width: 1.5;" width="117" x="260" y="8"/><ellipse cx="299.3" cy="24" fill="#ADD1B2" rx="11" ry="11" style="stroke: #A80036; stroke-width: 1.0;"/><path d="M301.6438,19.6719 L301.8156,19.75 C302.0344,19.4375 302.2375,19.3438 302.5344,19.3438 C302.8313,19.3438 303.1125,19.4844 303.2688,19.75 C303.3625,19.9063 303.3781,20.0313 303.3781,20.4688 L303.3781,21.8906 C303.3781,22.3125 303.3469,22.5 303.2375,22.6563 C303.0656,22.875 302.8,23.0156 302.5344,23.0156 C302.3156,23.0156 302.0813,22.9063 301.9406,22.7656 C301.8,22.6406 301.7688,22.5156 301.7063,22.1094 C301.6125,21.7031 301.4406,21.4844 300.9563,21.2031 C300.4875,20.9531 299.8781,20.7969 299.3,20.7969 C297.5656,20.7969 296.3156,22.1094 296.3156,23.8906 L296.3156,24.9844 C296.3156,26.6875 297.6125,27.7813 299.6594,27.7813 C300.425,27.7813 301.1125,27.6563 301.5344,27.3906 C301.7219,27.2969 301.7219,27.2969 302.175,26.8125 C302.3625,26.625 302.5656,26.5469 302.7844,26.5469 C303.2531,26.5469 303.6438,26.9375 303.6438,27.3906 C303.6438,27.7813 303.3156,28.2344 302.7375,28.6406 C301.9875,29.1875 300.8313,29.4844 299.6125,29.4844 C296.7219,29.4844 294.6125,27.5938 294.6125,25.0156 L294.6125,23.8906 C294.6125,21.1719 296.6125,19.0938 299.2375,19.0938 C300.1125,19.0938 300.7063,19.2344 301.6438,19.6719 Z "/><text fill="#000000" font-family="sans-serif" font-size="12" lengthAdjust="spacingAndGlyphs" textLength="31" x="318.7" y="28.1543">Error</text><line style="stroke: #A80036; stroke-width: 1.5;" x1="261" x2="376" y1="40" y2="40"/><text fill="#000000" font-family="sans-serif" font-size="11" lengthAdjust="spacingAndGlyphs" textLength="105" x="266" y="54.2104">HttpCode: Number</text><text fill="#000000" font-family="sans-serif" font-size="11" lengthAdjust="spacingAndGlyphs" textLength="93" x="266" y="67.0151">Message: String</text><line style="stroke: #A80036; stroke-width: 1.5;" x1="261" x2="376" y1="73.6094" y2="73.6094"/><!--class Error404--><rect fill="#FEFECE" filter="url(#fidzcqry8nrko)" height="112.0234" id="Error404" style="stroke: #A80036; stroke-width: 1.5;" width="185" x="6" y="149.5"/><ellipse cx="47.55" cy="165.5" fill="#ADD1B2" rx="11" ry="11" style="stroke: #A80036; stroke-width: 1.0;"/><path d="M49.8938,161.1719 L50.0656,161.25 C50.2844,160.9375 50.4875,160.8438 50.7844,160.8438 C51.0813,160.8438 51.3625,160.9844 51.5188,161.25 C51.6125,161.4063 51.6281,161.5313 51.6281,161.9688 L51.6281,163.3906 C51.6281,163.8125 51.5969,164 51.4875,164.1563 C51.3156,164.375 51.05,164.5156 50.7844,164.5156 C50.5656,164.5156 50.3313,164.4063 50.1906,164.2656 C50.05,164.1406 50.0188,164.0156 49.9563,163.6094 C49.8625,163.2031 49.6906,162.9844 49.2063,162.7031 C48.7375,162.4531 48.1281,162.2969 47.55,162.2969 C45.8156,162.2969 44.5656,163.6094 44.5656,165.3906 L44.5656,166.4844 C44.5656,168.1875 45.8625,169.2813 47.9094,169.2813 C48.675,169.2813 49.3625,169.1563 49.7844,168.8906 C49.9719,168.7969 49.9719,168.7969 50.425,168.3125 C50.6125,168.125 50.8156,168.0469 51.0344,168.0469 C51.5031,168.0469 51.8938,168.4375 51.8938,168.8906 C51.8938,169.2813 51.5656,169.7344 50.9875,170.1406 C50.2375,170.6875 49.0813,170.9844 47.8625,170.9844 C44.9719,170.9844 42.8625,169.0938 42.8625,166.5156 L42.8625,165.3906 C42.8625,162.6719 44.8625,160.5938 47.4875,160.5938 C48.3625,160.5938 48.9563,160.7344 49.8938,161.1719 Z "/><text fill="#000000" font-family="sans-serif" font-size="12" lengthAdjust="spacingAndGlyphs" textLength="55" x="67.45" y="169.6543">Error404</text><rect fill="#FFFFFF" height="15.9688" style="stroke: #000000; stroke-width: 1.0; stroke-dasharray: 2.0,2.0;" width="33" x="161" y="146.5"/><text fill="#000000" font-family="sans-serif" font-size="12" font-style="italic" lengthAdjust="spacingAndGlyphs" textLength="31" x="162" y="158.6387">Error</text><line style="stroke: #A80036; stroke-width: 1.5;" x1="7" x2="190" y1="181.5" y2="181.5"/><text fill="#000000" font-family="sans-serif" font-size="11" lengthAdjust="spacingAndGlyphs" textLength="105" x="12" y="195.7104">HttpCode: Number</text><text fill="#000000" font-family="sans-serif" font-size="11" font-style="italic" lengthAdjust="spacingAndGlyphs" textLength="60" x="125" y="195.7104">from Error</text><text fill="#000000" font-family="sans-serif" font-size="11" lengthAdjust="spacingAndGlyphs" textLength="93" x="12" y="208.5151">Message: String</text><text fill="#000000" font-family="sans-serif" font-size="11" font-style="italic" lengthAdjust="spacingAndGlyphs" textLength="60" x="113" y="208.5151">from Error</text><line style="stroke: #A80036; stroke-width: 1.0;" x1="7" x2="190" y1="215.1094" y2="215.1094"/><text fill="#000000" font-family="sans-serif" font-size="11" font-weight="bold" lengthAdjust="spacingAndGlyphs" textLength="31" x="12" y="229.3198">code</text><text fill="#000000" font-family="sans-serif" font-size="11" lengthAdjust="spacingAndGlyphs" textLength="29" x="43" y="229.3198">: 404</text><text fill="#000000" font-family="sans-serif" font-size="11" font-weight="bold" lengthAdjust="spacingAndGlyphs" textLength="57" x="12" y="242.1245">message</text><text fill="#000000" font-family="sans-serif" font-size="11" lengthAdjust="spacingAndGlyphs" textLength="65" x="69" y="242.1245">: Not Found</text><text fill="#000000" font-family="sans-serif" font-size="11" lengthAdjust="spacingAndGlyphs" textLength="0" x="16" y="254.9292"/><!--class Error401--><rect fill="#FEFECE" filter="url(#fidzcqry8nrko)" height="112.0234" id="Error401" style="stroke: #A80036; stroke-width: 1.5;" width="185" x="226" y="149.5"/><ellipse cx="267.55" cy="165.5" fill="#ADD1B2" rx="11" ry="11" style="stroke: #A80036; stroke-width: 1.0;"/><path d="M269.8938,161.1719 L270.0656,161.25 C270.2844,160.9375 270.4875,160.8438 270.7844,160.8438 C271.0813,160.8438 271.3625,160.9844 271.5188,161.25 C271.6125,161.4063 271.6281,161.5313 271.6281,161.9688 L271.6281,163.3906 C271.6281,163.8125 271.5969,164 271.4875,164.1563 C271.3156,164.375 271.05,164.5156 270.7844,164.5156 C270.5656,164.5156 270.3313,164.4063 270.1906,164.2656 C270.05,164.1406 270.0188,164.0156 269.9563,163.6094 C269.8625,163.2031 269.6906,162.9844 269.2063,162.7031 C268.7375,162.4531 268.1281,162.2969 267.55,162.2969 C265.8156,162.2969 264.5656,163.6094 264.5656,165.3906 L264.5656,166.4844 C264.5656,168.1875 265.8625,169.2813 267.9094,169.2813 C268.675,169.2813 269.3625,169.1563 269.7844,168.8906 C269.9719,168.7969 269.9719,168.7969 270.425,168.3125 C270.6125,168.125 270.8156,168.0469 271.0344,168.0469 C271.5031,168.0469 271.8938,168.4375 271.8938,168.8906 C271.8938,169.2813 271.5656,169.7344 270.9875,170.1406 C270.2375,170.6875 269.0813,170.9844 267.8625,170.9844 C264.9719,170.9844 262.8625,169.0938 262.8625,166.5156 L262.8625,165.3906 C262.8625,162.6719 264.8625,160.5938 267.4875,160.5938 C268.3625,160.5938 268.9563,160.7344 269.8938,161.1719 Z "/><text fill="#000000" font-family="sans-serif" font-size="12" lengthAdjust="spacingAndGlyphs" textLength="55" x="287.45" y="169.6543">Error401</text><rect fill="#FFFFFF" height="15.9688" style="stroke: #000000; stroke-width: 1.0; stroke-dasharray: 2.0,2.0;" width="33" x="381" y="146.5"/><text fill="#000000" font-family="sans-serif" font-size="12" font-style="italic" lengthAdjust="spacingAndGlyphs" textLength="31" x="382" y="158.6387">Error</text><line style="stroke: #A80036; stroke-width: 1.5;" x1="227" x2="410" y1="181.5" y2="181.5"/><text fill="#000000" font-family="sans-serif" font-size="11" lengthAdjust="spacingAndGlyphs" textLength="105" x="232" y="195.7104">HttpCode: Number</text><text fill="#000000" font-family="sans-serif" font-size="11" font-style="italic" lengthAdjust="spacingAndGlyphs" textLength="60" x="345" y="195.7104">from Error</text><text fill="#000000" font-family="sans-serif" font-size="11" lengthAdjust="spacingAndGlyphs" textLength="93" x="232" y="208.5151">Message: String</text><text fill="#000000" font-family="sans-serif" font-size="11" font-style="italic" lengthAdjust="spacingAndGlyphs" textLength="60" x="333" y="208.5151">from Error</text><line style="stroke: #A80036; stroke-width: 1.0;" x1="227" x2="410" y1="215.1094" y2="215.1094"/><text fill="#000000" font-family="sans-serif" font-size="11" font-weight="bold" lengthAdjust="spacingAndGlyphs" textLength="31" x="232" y="229.3198">code</text><text fill="#000000" font-family="sans-serif" font-size="11" lengthAdjust="spacingAndGlyphs" textLength="29" x="263" y="229.3198">: 401</text><text fill="#000000" font-family="sans-serif" font-size="11" font-weight="bold" lengthAdjust="spacingAndGlyphs" textLength="57" x="232" y="242.1245">message</text><text fill="#000000" font-family="sans-serif" font-size="11" lengthAdjust="spacingAndGlyphs" textLength="84" x="289" y="242.1245">: Unauthorised</text><text fill="#000000" font-family="sans-serif" font-size="11" lengthAdjust="spacingAndGlyphs" textLength="0" x="236" y="254.9292"/><!--class Error500--><rect fill="#FEFECE" filter="url(#fidzcqry8nrko)" height="112.0234" id="Error500" style="stroke: #A80036; stroke-width: 1.5;" width="195" x="446" y="149.5"/><ellipse cx="492.25" cy="165.5" fill="#ADD1B2" rx="11" ry="11" style="stroke: #A80036; stroke-width: 1.0;"/><path d="M494.5938,161.1719 L494.7656,161.25 C494.9844,160.9375 495.1875,160.8438 495.4844,160.8438 C495.7813,160.8438 496.0625,160.9844 496.2188,161.25 C496.3125,161.4063 496.3281,161.5313 496.3281,161.9688 L496.3281,163.3906 C496.3281,163.8125 496.2969,164 496.1875,164.1563 C496.0156,164.375 495.75,164.5156 495.4844,164.5156 C495.2656,164.5156 495.0313,164.4063 494.8906,164.2656 C494.75,164.1406 494.7188,164.0156 494.6563,163.6094 C494.5625,163.2031 494.3906,162.9844 493.9063,162.7031 C493.4375,162.4531 492.8281,162.2969 492.25,162.2969 C490.5156,162.2969 489.2656,163.6094 489.2656,165.3906 L489.2656,166.4844 C489.2656,168.1875 490.5625,169.2813 492.6094,169.2813 C493.375,169.2813 494.0625,169.1563 494.4844,168.8906 C494.6719,168.7969 494.6719,168.7969 495.125,168.3125 C495.3125,168.125 495.5156,168.0469 495.7344,168.0469 C496.2031,168.0469 496.5938,168.4375 496.5938,168.8906 C496.5938,169.2813 496.2656,169.7344 495.6875,170.1406 C494.9375,170.6875 493.7813,170.9844 492.5625,170.9844 C489.6719,170.9844 487.5625,169.0938 487.5625,166.5156 L487.5625,165.3906 C487.5625,162.6719 489.5625,160.5938 492.1875,160.5938 C493.0625,160.5938 493.6563,160.7344 494.5938,161.1719 Z "/><text fill="#000000" font-family="sans-serif" font-size="12" lengthAdjust="spacingAndGlyphs" textLength="55" x="512.75" y="169.6543">Error500</text><rect fill="#FFFFFF" height="15.9688" style="stroke: #000000; stroke-width: 1.0; stroke-dasharray: 2.0,2.0;" width="33" x="611" y="146.5"/><text fill="#000000" font-family="sans-serif" font-size="12" font-style="italic" lengthAdjust="spacingAndGlyphs" textLength="31" x="612" y="158.6387">Error</text><line style="stroke: #A80036; stroke-width: 1.5;" x1="447" x2="640" y1="181.5" y2="181.5"/><text fill="#000000" font-family="sans-serif" font-size="11" lengthAdjust="spacingAndGlyphs" textLength="105" x="452" y="195.7104">HttpCode: Number</text><text fill="#000000" font-family="sans-serif" font-size="11" font-style="italic" lengthAdjust="spacingAndGlyphs" textLength="60" x="565" y="195.7104">from Error</text><text fill="#000000" font-family="sans-serif" font-size="11" lengthAdjust="spacingAndGlyphs" textLength="93" x="452" y="208.5151">Message: String</text><text fill="#000000" font-family="sans-serif" font-size="11" font-style="italic" lengthAdjust="spacingAndGlyphs" textLength="60" x="553" y="208.5151">from Error</text><line style="stroke: #A80036; stroke-width: 1.0;" x1="447" x2="640" y1="215.1094" y2="215.1094"/><text fill="#000000" font-family="sans-serif" font-size="11" font-weight="bold" lengthAdjust="spacingAndGlyphs" textLength="31" x="452" y="229.3198">code</text><text fill="#000000" font-family="sans-serif" font-size="11" lengthAdjust="spacingAndGlyphs" textLength="29" x="483" y="229.3198">: 500</text><text fill="#000000" font-family="sans-serif" font-size="11" font-weight="bold" lengthAdjust="spacingAndGlyphs" textLength="57" x="452" y="242.1245">message</text><text fill="#000000" font-family="sans-serif" font-size="11" lengthAdjust="spacingAndGlyphs" textLength="126" x="509" y="242.1245">: Internal Server Error</text><text fill="#000000" font-family="sans-serif" font-size="11" lengthAdjust="spacingAndGlyphs" textLength="0" x="456" y="254.9292"/><!--class Response--><rect fill="#FEFECE" filter="url(#fidzcqry8nrko)" height="124.8281" id="Response" style="stroke: #A80036; stroke-width: 1.5;" width="106" x="676.5" y="143"/><ellipse cx="691.5" cy="159" fill="#DA70D6" rx="11" ry="11" style="stroke: #A80036; stroke-width: 1.0;"/><path d="M691.9375,156.5313 L691.9375,163.0469 L693.0625,163.0469 C693.5156,163.0469 693.6563,163.0781 693.8125,163.2031 C694.0469,163.375 694.1719,163.625 694.1719,163.9063 C694.1719,164.1875 694.0313,164.4844 693.7656,164.625 C693.6563,164.7031 693.3906,164.75 693.0625,164.75 L689.125,164.75 C688.7344,164.75 688.5156,164.7031 688.3594,164.5781 C688.1406,164.4219 688,164.1563 688,163.9063 C688,163.6094 688.1563,163.3281 688.4063,163.1719 C688.5625,163.0625 688.6875,163.0469 689.125,163.0469 L690.2344,163.0469 L690.2344,156.5313 L688.4063,156.5313 L688.4063,158.125 C688.4063,158.5781 688.375,158.7188 688.2656,158.8906 C688.0938,159.1094 687.8438,159.2344 687.5625,159.2344 C687.2813,159.2344 686.9844,159.0938 686.8281,158.8281 C686.75,158.6875 686.7188,158.5156 686.7188,158.125 L686.7188,154.8438 L695.4844,154.8438 L695.4844,158.125 C695.4844,158.5938 695.4688,158.7188 695.3281,158.8906 C695.1563,159.1094 694.9063,159.2344 694.6406,159.2344 C694.3438,159.2344 694.0625,159.0781 693.9063,158.8281 C693.8125,158.6875 693.7813,158.5156 693.7813,158.125 L693.7813,156.5313 Z "/><text fill="#000000" font-family="sans-serif" font-size="12" lengthAdjust="spacingAndGlyphs" textLength="74" x="705.5" y="163.1543">Response a</text><line style="stroke: #A80036; stroke-width: 1.5;" x1="677.5" x2="781.5" y1="175" y2="175"/><text fill="#000000" font-family="sans-serif" font-size="11" lengthAdjust="spacingAndGlyphs" textLength="82" x="682.5" y="189.2104">Code: Number</text><text fill="#000000" font-family="sans-serif" font-size="11" lengthAdjust="spacingAndGlyphs" textLength="93" x="682.5" y="202.0151">Message: String</text><text fill="#000000" font-family="sans-serif" font-size="11" lengthAdjust="spacingAndGlyphs" textLength="43" x="682.5" y="214.8198">Body: a</text><line style="stroke: #A80036; stroke-width: 1.0;" x1="677.5" x2="781.5" y1="221.4141" y2="221.4141"/><text fill="#000000" font-family="sans-serif" font-size="11" font-weight="bold" lengthAdjust="spacingAndGlyphs" textLength="31" x="682.5" y="235.6245">code</text><text fill="#000000" font-family="sans-serif" font-size="11" lengthAdjust="spacingAndGlyphs" textLength="29" x="713.5" y="235.6245">: 200</text><text fill="#000000" font-family="sans-serif" font-size="11" font-weight="bold" lengthAdjust="spacingAndGlyphs" textLength="57" x="682.5" y="248.4292">message</text><text fill="#000000" font-family="sans-serif" font-size="11" lengthAdjust="spacingAndGlyphs" textLength="24" x="739.5" y="248.4292">: OK</text><text fill="#000000" font-family="sans-serif" font-size="11" lengthAdjust="spacingAndGlyphs" textLength="0" x="686.5" y="261.2339"/><!--class ApiResponse--><rect fill="#FEFECE" filter="url(#fidzcqry8nrko)" height="99.2188" id="ApiResponse" style="stroke: #A80036; stroke-width: 1.5;" width="123" x="369" y="345"/><ellipse cx="384" cy="361" fill="#A9DCDF" rx="11" ry="11" style="stroke: #A80036; stroke-width: 1.0;"/><path d="M385.5781,362.8125 L381.5313,362.8125 L381.1406,363.7969 L381.5313,363.7969 C381.9844,363.7969 382.125,363.8281 382.2969,363.9531 C382.5156,364.125 382.6406,364.375 382.6406,364.6563 C382.6406,364.9375 382.5,365.2344 382.2344,365.375 C382.1094,365.4688 381.8906,365.5 381.5313,365.5 L379.2656,365.5 C378.5156,365.5 378.1406,365.2188 378.1406,364.6563 C378.1406,364.3594 378.2969,364.0781 378.5469,363.9219 C378.7031,363.8125 378.8594,363.7969 379.2813,363.7969 L381.9219,357.2813 L380.8438,357.2813 C380.4063,357.2813 380.2344,357.25 380.0625,357.1406 C379.8438,356.9688 379.7031,356.7188 379.7031,356.4375 C379.7031,356.1563 379.8594,355.875 380.1094,355.7031 C380.2656,355.6094 380.3906,355.5938 380.8438,355.5938 L384.5156,355.5938 L387.9063,363.7969 C388.375,363.7969 388.5313,363.8281 388.7031,363.9688 C388.9219,364.125 389.0625,364.375 389.0625,364.6563 C389.0625,364.9375 388.9063,365.2344 388.6563,365.375 C388.5156,365.4688 388.2969,365.5 387.9375,365.5 L385.5781,365.5 C385.1563,365.5 384.9531,365.4531 384.8125,365.3281 C384.5938,365.1719 384.4531,364.9219 384.4531,364.6563 C384.4531,364.3594 384.6094,364.0781 384.8594,363.9219 C385.0156,363.8125 385.125,363.7969 385.5781,363.7969 L385.9688,363.7969 Z M384.875,361.1094 L383.5469,357.8438 L382.2031,361.1094 Z "/><text fill="#000000" font-family="sans-serif" font-size="12" font-style="italic" lengthAdjust="spacingAndGlyphs" textLength="91" x="398" y="365.1543">ApiResponse a</text><line style="stroke: #A80036; stroke-width: 1.5;" x1="370" x2="491" y1="377" y2="377"/><text fill="#000000" font-family="sans-serif" font-size="11" lengthAdjust="spacingAndGlyphs" textLength="50" x="375" y="391.2104">Error401</text><text fill="#000000" font-family="sans-serif" font-size="11" lengthAdjust="spacingAndGlyphs" textLength="50" x="375" y="404.0151">Error404</text><text fill="#000000" font-family="sans-serif" font-size="11" lengthAdjust="spacingAndGlyphs" textLength="50" x="375" y="416.8198">Error500</text><text fill="#000000" font-family="sans-serif" font-size="11" lengthAdjust="spacingAndGlyphs" textLength="67" x="375" y="429.6245">Response a</text><line style="stroke: #A80036; stroke-width: 1.5;" x1="370" x2="491" y1="436.2188" y2="436.2188"/><!--link Error to Error404--><path d="M251.79,94.062 C227.643,111.458 200.186,131.24 175.246,149.208 " fill="none" id="Error-Error404" style="stroke: #A80036; stroke-width: 1.0;"/><polygon fill="none" points="247.984,88.176,268.303,82.164,256.168,99.535,247.984,88.176" style="stroke: #A80036; stroke-width: 1.0;"/><!--link Error to Error401--><path d="M318.5,102.478 C318.5,117.713 318.5,134.175 318.5,149.336 " fill="none" id="Error-Error401" style="stroke: #A80036; stroke-width: 1.0;"/><polygon fill="none" points="311.5,102.363,318.5,82.363,325.5,102.363,311.5,102.363" style="stroke: #A80036; stroke-width: 1.0;"/><!--link Error to Error500--><path d="M386.369,93.81 C411.15,111.267 439.38,131.153 465.01,149.208 " fill="none" id="Error-Error500" style="stroke: #A80036; stroke-width: 1.0;"/><polygon fill="none" points="382.157,99.405,369.838,82.164,390.219,87.96,382.157,99.405" style="stroke: #A80036; stroke-width: 1.0;"/><!--link Error401 to ApiResponse--><path d="M354.117,265.968 C369.349,291.4 386.911,320.722 401.352,344.8333 " fill="none" id="Error401-ApiResponse" style="stroke: #A80036; stroke-width: 1.0;"/><polygon fill="#A80036" points="351.498,261.595,352.6908,271.3714,354.0671,265.8845,359.554,267.2608,351.498,261.595" style="stroke: #A80036; stroke-width: 1.0;"/><text fill="#000000" font-family="sans-serif" font-size="13" lengthAdjust="spacingAndGlyphs" textLength="55" x="381.5" y="311.0669">Error401</text><!--link Error404 to ApiResponse--><path d="M196.103,261.475 C251.969,292.942 320.361,331.464 368.815,358.7558 " fill="none" id="Error404-ApiResponse" style="stroke: #A80036; stroke-width: 1.0;"/><polygon fill="#A80036" points="191.422,258.839,197.3013,266.7405,195.7787,261.2924,201.2268,259.7698,191.422,258.839" style="stroke: #A80036; stroke-width: 1.0;"/><text fill="#000000" font-family="sans-serif" font-size="13" lengthAdjust="spacingAndGlyphs" textLength="55" x="285.5" y="311.0669">Error404</text><!--link Error500 to ApiResponse--><path d="M507.565,265.968 C492.197,291.4 474.478,320.722 459.908,344.8333 " fill="none" id="Error500-ApiResponse" style="stroke: #A80036; stroke-width: 1.0;"/><polygon fill="#A80036" points="510.207,261.595,502.1286,267.2287,507.6209,265.8742,508.9754,271.3665,510.207,261.595" style="stroke: #A80036; stroke-width: 1.0;"/><text fill="#000000" font-family="sans-serif" font-size="13" lengthAdjust="spacingAndGlyphs" textLength="55" x="487.5" y="311.0669">Error500</text><!--link Response to ApiResponse--><path d="M672.063,257.981 C667.558,261.481 663.008,264.86 658.5,268 C604.929,305.323 539.192,340.497 492.092,364.0565 " fill="none" id="Response-ApiResponse" style="stroke: #A80036; stroke-width: 1.0;"/><polygon fill="#A80036" points="676.184,254.735,666.6382,257.1593,672.2554,257.8279,671.5868,263.4451,676.184,254.735" style="stroke: #A80036; stroke-width: 1.0;"/><text fill="#000000" font-family="sans-serif" font-size="13" lengthAdjust="spacingAndGlyphs" textLength="62" x="611.5" y="311.0669">Response</text><!--
@startuml
class "Customer" as Customer  {
	CustomerId: Id 
}
class "Error" as Error  {
	HttpCode: Number 
	Message: String 
}
class "Error404 " as Error404 <Error> {
	HttpCode: Number  <i>from Error</i>
	Message: String  <i>from Error</i>
- -
  <b>code</b>: 404
<b>message</b>: Not Found
    
}
Error <|- - Error404
class "Error401 " as Error401 <Error> {
	HttpCode: Number  <i>from Error</i>
	Message: String  <i>from Error</i>
- -
  <b>code</b>: 401
<b>message</b>: Unauthorised
    
}
Error <|- - Error401
class "Error500 " as Error500 <Error> {
	HttpCode: Number  <i>from Error</i>
	Message: String  <i>from Error</i>
- -
  <b>code</b>: 500
<b>message</b>: Internal Server Error
    
}
Error <|- - Error500
class "Response a" as Response << (T,orchid) >> {
	Code: Number 
	Message: String 
	Body: a 
- -
  <b>code</b>: 200
<b>message</b>: OK
    
}
abstract "ApiResponse a" as ApiResponse {
	Error401 
	Error404 
	Error500 
	Response a
}
Error401 <- - ApiResponse : Error401
Error404 <- - ApiResponse : Error404
Error500 <- - ApiResponse : Error500
Response <- - ApiResponse : Response
@enduml

PlantUML version 1.2019.05beta2(Unknown compile time)
(GPL source distribution)
Java Runtime: Java(TM) SE Runtime Environment
JVM: Java HotSpot(TM) 64-Bit Server VM
Java Version: 1.7.0_25-b15
Operating System: Linux
Default Encoding: UTF-8
Language: en
Country: US
--></g></svg>