<?xml version="1.0" encoding="UTF-8" standalone="no"?><svg xmlns="http://www.w3.org/2000/svg" xmlns:xlink="http://www.w3.org/1999/xlink" contentScriptType="application/ecmascript" contentStyleType="text/css" height="265px" preserveAspectRatio="none" style="width:691px;height:265px;" version="1.1" viewBox="0 0 691 265" width="691px" zoomAndPan="magnify"><defs><filter height="300%" id="ftaowt5siewb5" width="300%" x="-1" y="-1"><feGaussianBlur result="blurOut" stdDeviation="2.0"/><feColorMatrix in="blurOut" result="blurOut2" type="matrix" values="0 0 0 0 0 0 0 0 0 0 0 0 0 0 0 0 0 0 .4 0"/><feOffset dx="4.0" dy="4.0" in="blurOut2" result="blurOut3"/><feBlend in="SourceGraphic" in2="blurOut3" mode="normal"/></filter></defs><g><!--class Meta--><rect fill="#FEFECE" filter="url(#ftaowt5siewb5)" height="73.6094" id="Meta" style="stroke: #A80036; stroke-width: 1.5;" width="105" x="257" y="8"/><ellipse cx="290.9" cy="24" fill="#ADD1B2" rx="11" ry="11" style="stroke: #A80036; stroke-width: 1.0;"/><path d="M293.2438,19.6719 L293.4156,19.75 C293.6344,19.4375 293.8375,19.3438 294.1344,19.3438 C294.4313,19.3438 294.7125,19.4844 294.8688,19.75 C294.9625,19.9063 294.9781,20.0313 294.9781,20.4688 L294.9781,21.8906 C294.9781,22.3125 294.9469,22.5 294.8375,22.6563 C294.6656,22.875 294.4,23.0156 294.1344,23.0156 C293.9156,23.0156 293.6813,22.9063 293.5406,22.7656 C293.4,22.6406 293.3688,22.5156 293.3063,22.1094 C293.2125,21.7031 293.0406,21.4844 292.5563,21.2031 C292.0875,20.9531 291.4781,20.7969 290.9,20.7969 C289.1656,20.7969 287.9156,22.1094 287.9156,23.8906 L287.9156,24.9844 C287.9156,26.6875 289.2125,27.7813 291.2594,27.7813 C292.025,27.7813 292.7125,27.6563 293.1344,27.3906 C293.3219,27.2969 293.3219,27.2969 293.775,26.8125 C293.9625,26.625 294.1656,26.5469 294.3844,26.5469 C294.8531,26.5469 295.2438,26.9375 295.2438,27.3906 C295.2438,27.7813 294.9156,28.2344 294.3375,28.6406 C293.5875,29.1875 292.4313,29.4844 291.2125,29.4844 C288.3219,29.4844 286.2125,27.5938 286.2125,25.0156 L286.2125,23.8906 C286.2125,21.1719 288.2125,19.0938 290.8375,19.0938 C291.7125,19.0938 292.3063,19.2344 293.2438,19.6719 Z "/><text fill="#000000" font-family="sans-serif" font-size="12" lengthAdjust="spacingAndGlyphs" textLength="31" x="309.1" y="28.1543">Meta</text><line style="stroke: #A80036; stroke-width: 1.5;" x1="258" x2="361" y1="40" y2="40"/><text fill="#000000" font-family="sans-serif" font-size="11" lengthAdjust="spacingAndGlyphs" textLength="82" x="263" y="54.2104">Code: Number</text><text fill="#000000" font-family="sans-serif" font-size="11" lengthAdjust="spacingAndGlyphs" textLength="93" x="263" y="67.0151">Message: String</text><line style="stroke: #A80036; stroke-width: 1.5;" x1="258" x2="361" y1="73.6094" y2="73.6094"/><!--class Error404--><rect fill="#FEFECE" filter="url(#ftaowt5siewb5)" height="112.0234" id="Error404" style="stroke: #A80036; stroke-width: 1.5;" width="171" x="6" y="142"/><ellipse cx="57.75" cy="158" fill="#ADD1B2" rx="11" ry="11" style="stroke: #A80036; stroke-width: 1.0;"/><path d="M60.0938,153.6719 L60.2656,153.75 C60.4844,153.4375 60.6875,153.3438 60.9844,153.3438 C61.2813,153.3438 61.5625,153.4844 61.7188,153.75 C61.8125,153.9063 61.8281,154.0313 61.8281,154.4688 L61.8281,155.8906 C61.8281,156.3125 61.7969,156.5 61.6875,156.6563 C61.5156,156.875 61.25,157.0156 60.9844,157.0156 C60.7656,157.0156 60.5313,156.9063 60.3906,156.7656 C60.25,156.6406 60.2188,156.5156 60.1563,156.1094 C60.0625,155.7031 59.8906,155.4844 59.4063,155.2031 C58.9375,154.9531 58.3281,154.7969 57.75,154.7969 C56.0156,154.7969 54.7656,156.1094 54.7656,157.8906 L54.7656,158.9844 C54.7656,160.6875 56.0625,161.7813 58.1094,161.7813 C58.875,161.7813 59.5625,161.6563 59.9844,161.3906 C60.1719,161.2969 60.1719,161.2969 60.625,160.8125 C60.8125,160.625 61.0156,160.5469 61.2344,160.5469 C61.7031,160.5469 62.0938,160.9375 62.0938,161.3906 C62.0938,161.7813 61.7656,162.2344 61.1875,162.6406 C60.4375,163.1875 59.2813,163.4844 58.0625,163.4844 C55.1719,163.4844 53.0625,161.5938 53.0625,159.0156 L53.0625,157.8906 C53.0625,155.1719 55.0625,153.0938 57.6875,153.0938 C58.5625,153.0938 59.1563,153.2344 60.0938,153.6719 Z "/><text fill="#000000" font-family="sans-serif" font-size="12" lengthAdjust="spacingAndGlyphs" textLength="55" x="78.25" y="162.1543">Error404</text><line style="stroke: #A80036; stroke-width: 1.5;" x1="7" x2="176" y1="174" y2="174"/><text fill="#000000" font-family="sans-serif" font-size="11" lengthAdjust="spacingAndGlyphs" textLength="82" x="12" y="188.2104">Code: Number</text><text fill="#000000" font-family="sans-serif" font-size="11" font-style="italic" lengthAdjust="spacingAndGlyphs" textLength="58" x="102" y="188.2104">from Meta</text><text fill="#000000" font-family="sans-serif" font-size="11" lengthAdjust="spacingAndGlyphs" textLength="93" x="12" y="201.0151">Message: String</text><text fill="#000000" font-family="sans-serif" font-size="11" font-style="italic" lengthAdjust="spacingAndGlyphs" textLength="58" x="113" y="201.0151">from Meta</text><line style="stroke: #A80036; stroke-width: 1.0;" x1="7" x2="176" y1="207.6094" y2="207.6094"/><text fill="#000000" font-family="sans-serif" font-size="11" font-weight="bold" lengthAdjust="spacingAndGlyphs" textLength="31" x="12" y="221.8198">code</text><text fill="#000000" font-family="sans-serif" font-size="11" lengthAdjust="spacingAndGlyphs" textLength="29" x="43" y="221.8198">: 404</text><text fill="#000000" font-family="sans-serif" font-size="11" font-weight="bold" lengthAdjust="spacingAndGlyphs" textLength="57" x="12" y="234.6245">message</text><text fill="#000000" font-family="sans-serif" font-size="11" lengthAdjust="spacingAndGlyphs" textLength="65" x="69" y="234.6245">: Not Found</text><text fill="#000000" font-family="sans-serif" font-size="11" lengthAdjust="spacingAndGlyphs" textLength="0" x="16" y="247.4292"/><!--class Error500--><rect fill="#FEFECE" filter="url(#ftaowt5siewb5)" height="112.0234" id="Error500" style="stroke: #A80036; stroke-width: 1.5;" width="195" x="212" y="142"/><ellipse cx="275.75" cy="158" fill="#ADD1B2" rx="11" ry="11" style="stroke: #A80036; stroke-width: 1.0;"/><path d="M278.0938,153.6719 L278.2656,153.75 C278.4844,153.4375 278.6875,153.3438 278.9844,153.3438 C279.2813,153.3438 279.5625,153.4844 279.7188,153.75 C279.8125,153.9063 279.8281,154.0313 279.8281,154.4688 L279.8281,155.8906 C279.8281,156.3125 279.7969,156.5 279.6875,156.6563 C279.5156,156.875 279.25,157.0156 278.9844,157.0156 C278.7656,157.0156 278.5313,156.9063 278.3906,156.7656 C278.25,156.6406 278.2188,156.5156 278.1563,156.1094 C278.0625,155.7031 277.8906,155.4844 277.4063,155.2031 C276.9375,154.9531 276.3281,154.7969 275.75,154.7969 C274.0156,154.7969 272.7656,156.1094 272.7656,157.8906 L272.7656,158.9844 C272.7656,160.6875 274.0625,161.7813 276.1094,161.7813 C276.875,161.7813 277.5625,161.6563 277.9844,161.3906 C278.1719,161.2969 278.1719,161.2969 278.625,160.8125 C278.8125,160.625 279.0156,160.5469 279.2344,160.5469 C279.7031,160.5469 280.0938,160.9375 280.0938,161.3906 C280.0938,161.7813 279.7656,162.2344 279.1875,162.6406 C278.4375,163.1875 277.2813,163.4844 276.0625,163.4844 C273.1719,163.4844 271.0625,161.5938 271.0625,159.0156 L271.0625,157.8906 C271.0625,155.1719 273.0625,153.0938 275.6875,153.0938 C276.5625,153.0938 277.1563,153.2344 278.0938,153.6719 Z "/><text fill="#000000" font-family="sans-serif" font-size="12" lengthAdjust="spacingAndGlyphs" textLength="55" x="296.25" y="162.1543">Error500</text><line style="stroke: #A80036; stroke-width: 1.5;" x1="213" x2="406" y1="174" y2="174"/><text fill="#000000" font-family="sans-serif" font-size="11" lengthAdjust="spacingAndGlyphs" textLength="82" x="218" y="188.2104">Code: Number</text><text fill="#000000" font-family="sans-serif" font-size="11" font-style="italic" lengthAdjust="spacingAndGlyphs" textLength="58" x="308" y="188.2104">from Meta</text><text fill="#000000" font-family="sans-serif" font-size="11" lengthAdjust="spacingAndGlyphs" textLength="93" x="218" y="201.0151">Message: String</text><text fill="#000000" font-family="sans-serif" font-size="11" font-style="italic" lengthAdjust="spacingAndGlyphs" textLength="58" x="319" y="201.0151">from Meta</text><line style="stroke: #A80036; stroke-width: 1.0;" x1="213" x2="406" y1="207.6094" y2="207.6094"/><text fill="#000000" font-family="sans-serif" font-size="11" font-weight="bold" lengthAdjust="spacingAndGlyphs" textLength="31" x="218" y="221.8198">code</text><text fill="#000000" font-family="sans-serif" font-size="11" lengthAdjust="spacingAndGlyphs" textLength="29" x="249" y="221.8198">: 500</text><text fill="#000000" font-family="sans-serif" font-size="11" font-weight="bold" lengthAdjust="spacingAndGlyphs" textLength="57" x="218" y="234.6245">message</text><text fill="#000000" font-family="sans-serif" font-size="11" lengthAdjust="spacingAndGlyphs" textLength="126" x="275" y="234.6245">: Internal Server Error</text><text fill="#000000" font-family="sans-serif" font-size="11" lengthAdjust="spacingAndGlyphs" textLength="0" x="222" y="247.4292"/><!--class Envelope--><rect fill="#FEFECE" filter="url(#ftaowt5siewb5)" height="99.2188" id="Envelope" style="stroke: #A80036; stroke-width: 1.5;" width="171" x="442" y="148.5"/><ellipse cx="471.85" cy="164.5" fill="#DA70D6" rx="11" ry="11" style="stroke: #A80036; stroke-width: 1.0;"/><path d="M472.2875,162.0313 L472.2875,168.5469 L473.4125,168.5469 C473.8656,168.5469 474.0063,168.5781 474.1625,168.7031 C474.3969,168.875 474.5219,169.125 474.5219,169.4063 C474.5219,169.6875 474.3813,169.9844 474.1156,170.125 C474.0063,170.2031 473.7406,170.25 473.4125,170.25 L469.475,170.25 C469.0844,170.25 468.8656,170.2031 468.7094,170.0781 C468.4906,169.9219 468.35,169.6563 468.35,169.4063 C468.35,169.1094 468.5063,168.8281 468.7563,168.6719 C468.9125,168.5625 469.0375,168.5469 469.475,168.5469 L470.5844,168.5469 L470.5844,162.0313 L468.7563,162.0313 L468.7563,163.625 C468.7563,164.0781 468.725,164.2188 468.6156,164.3906 C468.4438,164.6094 468.1938,164.7344 467.9125,164.7344 C467.6313,164.7344 467.3344,164.5938 467.1781,164.3281 C467.1,164.1875 467.0688,164.0156 467.0688,163.625 L467.0688,160.3438 L475.8344,160.3438 L475.8344,163.625 C475.8344,164.0938 475.8188,164.2188 475.6781,164.3906 C475.5063,164.6094 475.2563,164.7344 474.9906,164.7344 C474.6938,164.7344 474.4125,164.5781 474.2563,164.3281 C474.1625,164.1875 474.1313,164.0156 474.1313,163.625 L474.1313,162.0313 Z "/><text fill="#000000" font-family="sans-serif" font-size="12" lengthAdjust="spacingAndGlyphs" textLength="106" x="489.15" y="168.6543">Envelope req res</text><line style="stroke: #A80036; stroke-width: 1.5;" x1="443" x2="612" y1="180.5" y2="180.5"/><text fill="#000000" font-family="sans-serif" font-size="11" lengthAdjust="spacingAndGlyphs" textLength="73" x="448" y="194.7104">Request: req</text><text fill="#000000" font-family="sans-serif" font-size="11" lengthAdjust="spacingAndGlyphs" textLength="83" x="448" y="207.5151">Response: res</text><text fill="#000000" font-family="sans-serif" font-size="11" lengthAdjust="spacingAndGlyphs" textLength="82" x="448" y="220.3198">Code: Number</text><text fill="#000000" font-family="sans-serif" font-size="11" font-style="italic" lengthAdjust="spacingAndGlyphs" textLength="58" x="538" y="220.3198">from Meta</text><text fill="#000000" font-family="sans-serif" font-size="11" lengthAdjust="spacingAndGlyphs" textLength="93" x="448" y="233.1245">Message: String</text><text fill="#000000" font-family="sans-serif" font-size="11" font-style="italic" lengthAdjust="spacingAndGlyphs" textLength="58" x="549" y="233.1245">from Meta</text><line style="stroke: #A80036; stroke-width: 1.5;" x1="443" x2="612" y1="239.7188" y2="239.7188"/><!--class MyAPIRequest--><rect fill="#FEFECE" filter="url(#ftaowt5siewb5)" height="60.8047" id="MyAPIRequest" style="stroke: #A80036; stroke-width: 1.5;" width="119" x="397" y="14.5"/><ellipse cx="412" cy="30.5" fill="#ADD1B2" rx="11" ry="11" style="stroke: #A80036; stroke-width: 1.0;"/><path d="M414.3438,26.1719 L414.5156,26.25 C414.7344,25.9375 414.9375,25.8438 415.2344,25.8438 C415.5313,25.8438 415.8125,25.9844 415.9688,26.25 C416.0625,26.4063 416.0781,26.5313 416.0781,26.9688 L416.0781,28.3906 C416.0781,28.8125 416.0469,29 415.9375,29.1563 C415.7656,29.375 415.5,29.5156 415.2344,29.5156 C415.0156,29.5156 414.7813,29.4063 414.6406,29.2656 C414.5,29.1406 414.4688,29.0156 414.4063,28.6094 C414.3125,28.2031 414.1406,27.9844 413.6563,27.7031 C413.1875,27.4531 412.5781,27.2969 412,27.2969 C410.2656,27.2969 409.0156,28.6094 409.0156,30.3906 L409.0156,31.4844 C409.0156,33.1875 410.3125,34.2813 412.3594,34.2813 C413.125,34.2813 413.8125,34.1563 414.2344,33.8906 C414.4219,33.7969 414.4219,33.7969 414.875,33.3125 C415.0625,33.125 415.2656,33.0469 415.4844,33.0469 C415.9531,33.0469 416.3438,33.4375 416.3438,33.8906 C416.3438,34.2813 416.0156,34.7344 415.4375,35.1406 C414.6875,35.6875 413.5313,35.9844 412.3125,35.9844 C409.4219,35.9844 407.3125,34.0938 407.3125,31.5156 L407.3125,30.3906 C407.3125,27.6719 409.3125,25.5938 411.9375,25.5938 C412.8125,25.5938 413.4063,25.7344 414.3438,26.1719 Z "/><text fill="#000000" font-family="sans-serif" font-size="12" lengthAdjust="spacingAndGlyphs" textLength="87" x="426" y="34.6543">MyAPIRequest</text><line style="stroke: #A80036; stroke-width: 1.5;" x1="398" x2="515" y1="46.5" y2="46.5"/><text fill="#000000" font-family="sans-serif" font-size="11" lengthAdjust="spacingAndGlyphs" textLength="103" x="403" y="60.7104">Something: String</text><line style="stroke: #A80036; stroke-width: 1.5;" x1="398" x2="515" y1="67.3047" y2="67.3047"/><!--class MyAPIResponse--><rect fill="#FEFECE" filter="url(#ftaowt5siewb5)" height="60.8047" id="MyAPIResponse" style="stroke: #A80036; stroke-width: 1.5;" width="129" x="551" y="14.5"/><ellipse cx="566" cy="30.5" fill="#ADD1B2" rx="11" ry="11" style="stroke: #A80036; stroke-width: 1.0;"/><path d="M568.3438,26.1719 L568.5156,26.25 C568.7344,25.9375 568.9375,25.8438 569.2344,25.8438 C569.5313,25.8438 569.8125,25.9844 569.9688,26.25 C570.0625,26.4063 570.0781,26.5313 570.0781,26.9688 L570.0781,28.3906 C570.0781,28.8125 570.0469,29 569.9375,29.1563 C569.7656,29.375 569.5,29.5156 569.2344,29.5156 C569.0156,29.5156 568.7813,29.4063 568.6406,29.2656 C568.5,29.1406 568.4688,29.0156 568.4063,28.6094 C568.3125,28.2031 568.1406,27.9844 567.6563,27.7031 C567.1875,27.4531 566.5781,27.2969 566,27.2969 C564.2656,27.2969 563.0156,28.6094 563.0156,30.3906 L563.0156,31.4844 C563.0156,33.1875 564.3125,34.2813 566.3594,34.2813 C567.125,34.2813 567.8125,34.1563 568.2344,33.8906 C568.4219,33.7969 568.4219,33.7969 568.875,33.3125 C569.0625,33.125 569.2656,33.0469 569.4844,33.0469 C569.9531,33.0469 570.3438,33.4375 570.3438,33.8906 C570.3438,34.2813 570.0156,34.7344 569.4375,35.1406 C568.6875,35.6875 567.5313,35.9844 566.3125,35.9844 C563.4219,35.9844 561.3125,34.0938 561.3125,31.5156 L561.3125,30.3906 C561.3125,27.6719 563.3125,25.5938 565.9375,25.5938 C566.8125,25.5938 567.4063,25.7344 568.3438,26.1719 Z "/><text fill="#000000" font-family="sans-serif" font-size="12" lengthAdjust="spacingAndGlyphs" textLength="97" x="580" y="34.6543">MyAPIResponse</text><line style="stroke: #A80036; stroke-width: 1.5;" x1="552" x2="679" y1="46.5" y2="46.5"/><text fill="#000000" font-family="sans-serif" font-size="11" lengthAdjust="spacingAndGlyphs" textLength="96" x="557" y="60.7104">AccountId: String</text><line style="stroke: #A80036; stroke-width: 1.5;" x1="552" x2="679" y1="67.3047" y2="67.3047"/><!--link Meta to Error404--><path d="M257.284,82.168 C236.404,96.631 211.667,113.765 187.759,130.325 " fill="none" id="Meta-Error404" style="stroke: #A80036; stroke-width: 1.0;"/><polygon fill="none" points="191.409,136.312,170.982,141.946,183.438,124.803,191.409,136.312" style="stroke: #A80036; stroke-width: 1.0;"/><!--link Meta to Error500--><path d="M309.5,82.168 C309.5,94.186 309.5,108.047 309.5,121.892 " fill="none" id="Meta-Error500" style="stroke: #A80036; stroke-width: 1.0;"/><polygon fill="none" points="316.5,121.946,309.5,141.946,302.5,121.946,316.5,121.946" style="stroke: #A80036; stroke-width: 1.0;"/><!--link Meta to Envelope--><path d="M361.716,82.168 C385.284,98.493 413.765,118.22 440.422,136.684 " fill="none" id="Meta-Envelope" style="stroke: #A80036; stroke-width: 1.0;"/><polygon fill="none" points="444.707,131.137,457.163,148.28,436.736,142.646,444.707,131.137" style="stroke: #A80036; stroke-width: 1.0;"/><!--
@startuml
class "Meta" as Meta  {
	Code: Number 
	Message: String 
}
class "Error404 " as Error404  {
	Code: Number  <i>from Meta</i>
	Message: String  <i>from Meta</i>
- -
  <b>code</b>: 404
<b>message</b>: Not Found
    
}
Meta - -|> Error404
class "Error500 " as Error500  {
	Code: Number  <i>from Meta</i>
	Message: String  <i>from Meta</i>
- -
  <b>code</b>: 500
<b>message</b>: Internal Server Error
    
}
Meta - -|> Error500
class "Envelope req res" as Envelope << (T,orchid) >> {
	Request: req 
	Response: res 
	Code: Number  <i>from Meta</i>
	Message: String  <i>from Meta</i>
}
Meta - -|> Envelope
class "MyAPIRequest" as MyAPIRequest  {
	Something: String 
}
class "MyAPIResponse" as MyAPIResponse  {
	AccountId: String 
}
@enduml

PlantUML version 1.2019.05beta1(Unknown compile time)
(GPL source distribution)
Java Runtime: Java(TM) SE Runtime Environment
JVM: Java HotSpot(TM) 64-Bit Server VM
Java Version: 1.7.0_25-b15
Operating System: Linux
Default Encoding: UTF-8
Language: en
Country: US
--></g></svg>