<?xml version="1.0" encoding="UTF-8" standalone="no"?><svg xmlns="http://www.w3.org/2000/svg" xmlns:xlink="http://www.w3.org/1999/xlink" contentScriptType="application/ecmascript" contentStyleType="text/css" height="442px" preserveAspectRatio="none" style="width:1014px;height:442px;" version="1.1" viewBox="0 0 1014 442" width="1014px" zoomAndPan="magnify"><defs><filter height="300%" id="f1agj2bwanm4j8" width="300%" x="-1" y="-1"><feGaussianBlur result="blurOut" stdDeviation="2.0"/><feColorMatrix in="blurOut" result="blurOut2" type="matrix" values="0 0 0 0 0 0 0 0 0 0 0 0 0 0 0 0 0 0 .4 0"/><feOffset dx="4.0" dy="4.0" in="blurOut2" result="blurOut3"/><feBlend in="SourceGraphic" in2="blurOut3" mode="normal"/></filter></defs><g><!--class Meta--><rect fill="#FEFECE" filter="url(#f1agj2bwanm4j8)" height="73.6094" id="Meta" style="stroke: #A80036; stroke-width: 1.5;" width="105" x="322" y="8"/><ellipse cx="355.9" cy="24" fill="#ADD1B2" rx="11" ry="11" style="stroke: #A80036; stroke-width: 1.0;"/><path d="M358.2438,19.6719 L358.4156,19.75 C358.6344,19.4375 358.8375,19.3438 359.1344,19.3438 C359.4313,19.3438 359.7125,19.4844 359.8688,19.75 C359.9625,19.9063 359.9781,20.0313 359.9781,20.4688 L359.9781,21.8906 C359.9781,22.3125 359.9469,22.5 359.8375,22.6563 C359.6656,22.875 359.4,23.0156 359.1344,23.0156 C358.9156,23.0156 358.6813,22.9063 358.5406,22.7656 C358.4,22.6406 358.3688,22.5156 358.3063,22.1094 C358.2125,21.7031 358.0406,21.4844 357.5563,21.2031 C357.0875,20.9531 356.4781,20.7969 355.9,20.7969 C354.1656,20.7969 352.9156,22.1094 352.9156,23.8906 L352.9156,24.9844 C352.9156,26.6875 354.2125,27.7813 356.2594,27.7813 C357.025,27.7813 357.7125,27.6563 358.1344,27.3906 C358.3219,27.2969 358.3219,27.2969 358.775,26.8125 C358.9625,26.625 359.1656,26.5469 359.3844,26.5469 C359.8531,26.5469 360.2438,26.9375 360.2438,27.3906 C360.2438,27.7813 359.9156,28.2344 359.3375,28.6406 C358.5875,29.1875 357.4313,29.4844 356.2125,29.4844 C353.3219,29.4844 351.2125,27.5938 351.2125,25.0156 L351.2125,23.8906 C351.2125,21.1719 353.2125,19.0938 355.8375,19.0938 C356.7125,19.0938 357.3063,19.2344 358.2438,19.6719 Z "/><text fill="#000000" font-family="sans-serif" font-size="12" lengthAdjust="spacingAndGlyphs" textLength="31" x="374.1" y="28.1543">Meta</text><line style="stroke: #A80036; stroke-width: 1.5;" x1="323" x2="426" y1="40" y2="40"/><text fill="#000000" font-family="sans-serif" font-size="11" lengthAdjust="spacingAndGlyphs" textLength="82" x="328" y="54.2104">Code: Number</text><text fill="#000000" font-family="sans-serif" font-size="11" lengthAdjust="spacingAndGlyphs" textLength="93" x="328" y="67.0151">Message: String</text><line style="stroke: #A80036; stroke-width: 1.5;" x1="323" x2="426" y1="73.6094" y2="73.6094"/><!--class Error404--><rect fill="#FEFECE" filter="url(#f1agj2bwanm4j8)" height="112.0234" id="Error404" style="stroke: #A80036; stroke-width: 1.5;" width="171" x="6" y="143"/><ellipse cx="59.75" cy="159" fill="#ADD1B2" rx="11" ry="11" style="stroke: #A80036; stroke-width: 1.0;"/><path d="M62.0938,154.6719 L62.2656,154.75 C62.4844,154.4375 62.6875,154.3438 62.9844,154.3438 C63.2813,154.3438 63.5625,154.4844 63.7188,154.75 C63.8125,154.9063 63.8281,155.0313 63.8281,155.4688 L63.8281,156.8906 C63.8281,157.3125 63.7969,157.5 63.6875,157.6563 C63.5156,157.875 63.25,158.0156 62.9844,158.0156 C62.7656,158.0156 62.5313,157.9063 62.3906,157.7656 C62.25,157.6406 62.2188,157.5156 62.1563,157.1094 C62.0625,156.7031 61.8906,156.4844 61.4063,156.2031 C60.9375,155.9531 60.3281,155.7969 59.75,155.7969 C58.0156,155.7969 56.7656,157.1094 56.7656,158.8906 L56.7656,159.9844 C56.7656,161.6875 58.0625,162.7813 60.1094,162.7813 C60.875,162.7813 61.5625,162.6563 61.9844,162.3906 C62.1719,162.2969 62.1719,162.2969 62.625,161.8125 C62.8125,161.625 63.0156,161.5469 63.2344,161.5469 C63.7031,161.5469 64.0938,161.9375 64.0938,162.3906 C64.0938,162.7813 63.7656,163.2344 63.1875,163.6406 C62.4375,164.1875 61.2813,164.4844 60.0625,164.4844 C57.1719,164.4844 55.0625,162.5938 55.0625,160.0156 L55.0625,158.8906 C55.0625,156.1719 57.0625,154.0938 59.6875,154.0938 C60.5625,154.0938 61.1563,154.2344 62.0938,154.6719 Z "/><text fill="#000000" font-family="sans-serif" font-size="12" lengthAdjust="spacingAndGlyphs" textLength="55" x="80.25" y="163.1543">Error404</text><line style="stroke: #A80036; stroke-width: 1.5;" x1="7" x2="176" y1="175" y2="175"/><text fill="#000000" font-family="sans-serif" font-size="11" lengthAdjust="spacingAndGlyphs" textLength="82" x="12" y="189.2104">Code: Number</text><text fill="#000000" font-family="sans-serif" font-size="11" font-style="italic" lengthAdjust="spacingAndGlyphs" textLength="58" x="102" y="189.2104">from Meta</text><text fill="#000000" font-family="sans-serif" font-size="11" lengthAdjust="spacingAndGlyphs" textLength="93" x="12" y="202.0151">Message: String</text><text fill="#000000" font-family="sans-serif" font-size="11" font-style="italic" lengthAdjust="spacingAndGlyphs" textLength="58" x="113" y="202.0151">from Meta</text><text fill="#000000" font-family="sans-serif" font-size="11" lengthAdjust="spacingAndGlyphs" textLength="12" x="12" y="214.8198">---</text><text fill="#000000" font-family="sans-serif" font-size="11" font-weight="bold" lengthAdjust="spacingAndGlyphs" textLength="31" x="12" y="227.6245">code</text><text fill="#000000" font-family="sans-serif" font-size="11" lengthAdjust="spacingAndGlyphs" textLength="29" x="43" y="227.6245">: 404</text><text fill="#000000" font-family="sans-serif" font-size="11" font-weight="bold" lengthAdjust="spacingAndGlyphs" textLength="57" x="12" y="240.4292">message</text><text fill="#000000" font-family="sans-serif" font-size="11" lengthAdjust="spacingAndGlyphs" textLength="65" x="69" y="240.4292">: Not Found</text><line style="stroke: #A80036; stroke-width: 1.5;" x1="7" x2="176" y1="247.0234" y2="247.0234"/><!--class Error500--><rect fill="#FEFECE" filter="url(#f1agj2bwanm4j8)" height="112.0234" id="Error500" style="stroke: #A80036; stroke-width: 1.5;" width="195" x="212" y="143"/><ellipse cx="277.75" cy="159" fill="#ADD1B2" rx="11" ry="11" style="stroke: #A80036; stroke-width: 1.0;"/><path d="M280.0938,154.6719 L280.2656,154.75 C280.4844,154.4375 280.6875,154.3438 280.9844,154.3438 C281.2813,154.3438 281.5625,154.4844 281.7188,154.75 C281.8125,154.9063 281.8281,155.0313 281.8281,155.4688 L281.8281,156.8906 C281.8281,157.3125 281.7969,157.5 281.6875,157.6563 C281.5156,157.875 281.25,158.0156 280.9844,158.0156 C280.7656,158.0156 280.5313,157.9063 280.3906,157.7656 C280.25,157.6406 280.2188,157.5156 280.1563,157.1094 C280.0625,156.7031 279.8906,156.4844 279.4063,156.2031 C278.9375,155.9531 278.3281,155.7969 277.75,155.7969 C276.0156,155.7969 274.7656,157.1094 274.7656,158.8906 L274.7656,159.9844 C274.7656,161.6875 276.0625,162.7813 278.1094,162.7813 C278.875,162.7813 279.5625,162.6563 279.9844,162.3906 C280.1719,162.2969 280.1719,162.2969 280.625,161.8125 C280.8125,161.625 281.0156,161.5469 281.2344,161.5469 C281.7031,161.5469 282.0938,161.9375 282.0938,162.3906 C282.0938,162.7813 281.7656,163.2344 281.1875,163.6406 C280.4375,164.1875 279.2813,164.4844 278.0625,164.4844 C275.1719,164.4844 273.0625,162.5938 273.0625,160.0156 L273.0625,158.8906 C273.0625,156.1719 275.0625,154.0938 277.6875,154.0938 C278.5625,154.0938 279.1563,154.2344 280.0938,154.6719 Z "/><text fill="#000000" font-family="sans-serif" font-size="12" lengthAdjust="spacingAndGlyphs" textLength="55" x="298.25" y="163.1543">Error500</text><line style="stroke: #A80036; stroke-width: 1.5;" x1="213" x2="406" y1="175" y2="175"/><text fill="#000000" font-family="sans-serif" font-size="11" lengthAdjust="spacingAndGlyphs" textLength="82" x="218" y="189.2104">Code: Number</text><text fill="#000000" font-family="sans-serif" font-size="11" font-style="italic" lengthAdjust="spacingAndGlyphs" textLength="58" x="308" y="189.2104">from Meta</text><text fill="#000000" font-family="sans-serif" font-size="11" lengthAdjust="spacingAndGlyphs" textLength="93" x="218" y="202.0151">Message: String</text><text fill="#000000" font-family="sans-serif" font-size="11" font-style="italic" lengthAdjust="spacingAndGlyphs" textLength="58" x="319" y="202.0151">from Meta</text><text fill="#000000" font-family="sans-serif" font-size="11" lengthAdjust="spacingAndGlyphs" textLength="12" x="218" y="214.8198">---</text><text fill="#000000" font-family="sans-serif" font-size="11" font-weight="bold" lengthAdjust="spacingAndGlyphs" textLength="31" x="218" y="227.6245">code</text><text fill="#000000" font-family="sans-serif" font-size="11" lengthAdjust="spacingAndGlyphs" textLength="29" x="249" y="227.6245">: 500</text><text fill="#000000" font-family="sans-serif" font-size="11" font-weight="bold" lengthAdjust="spacingAndGlyphs" textLength="57" x="218" y="240.4292">message</text><text fill="#000000" font-family="sans-serif" font-size="11" lengthAdjust="spacingAndGlyphs" textLength="126" x="275" y="240.4292">: Internal Server Error</text><line style="stroke: #A80036; stroke-width: 1.5;" x1="213" x2="406" y1="247.0234" y2="247.0234"/><!--class Envelope--><rect fill="#FEFECE" filter="url(#f1agj2bwanm4j8)" height="99.2188" id="Envelope" style="stroke: #A80036; stroke-width: 1.5;" width="171" x="442" y="149.5"/><ellipse cx="494.75" cy="165.5" fill="#DA70D6" rx="11" ry="11" style="stroke: #A80036; stroke-width: 1.0;"/><path d="M495.1875,163.0313 L495.1875,169.5469 L496.3125,169.5469 C496.7656,169.5469 496.9063,169.5781 497.0625,169.7031 C497.2969,169.875 497.4219,170.125 497.4219,170.4063 C497.4219,170.6875 497.2813,170.9844 497.0156,171.125 C496.9063,171.2031 496.6406,171.25 496.3125,171.25 L492.375,171.25 C491.9844,171.25 491.7656,171.2031 491.6094,171.0781 C491.3906,170.9219 491.25,170.6563 491.25,170.4063 C491.25,170.1094 491.4063,169.8281 491.6563,169.6719 C491.8125,169.5625 491.9375,169.5469 492.375,169.5469 L493.4844,169.5469 L493.4844,163.0313 L491.6563,163.0313 L491.6563,164.625 C491.6563,165.0781 491.625,165.2188 491.5156,165.3906 C491.3438,165.6094 491.0938,165.7344 490.8125,165.7344 C490.5313,165.7344 490.2344,165.5938 490.0781,165.3281 C490,165.1875 489.9688,165.0156 489.9688,164.625 L489.9688,161.3438 L498.7344,161.3438 L498.7344,164.625 C498.7344,165.0938 498.7188,165.2188 498.5781,165.3906 C498.4063,165.6094 498.1563,165.7344 497.8906,165.7344 C497.5938,165.7344 497.3125,165.5781 497.1563,165.3281 C497.0625,165.1875 497.0313,165.0156 497.0313,164.625 L497.0313,163.0313 Z "/><text fill="#000000" font-family="sans-serif" font-size="12" lengthAdjust="spacingAndGlyphs" textLength="57" x="515.25" y="169.6543">Envelope</text><line style="stroke: #A80036; stroke-width: 1.5;" x1="443" x2="612" y1="181.5" y2="181.5"/><text fill="#000000" font-family="sans-serif" font-size="11" lengthAdjust="spacingAndGlyphs" textLength="73" x="448" y="195.7104">Request: req</text><text fill="#000000" font-family="sans-serif" font-size="11" lengthAdjust="spacingAndGlyphs" textLength="83" x="448" y="208.5151">Response: res</text><text fill="#000000" font-family="sans-serif" font-size="11" lengthAdjust="spacingAndGlyphs" textLength="82" x="448" y="221.3198">Code: Number</text><text fill="#000000" font-family="sans-serif" font-size="11" font-style="italic" lengthAdjust="spacingAndGlyphs" textLength="58" x="538" y="221.3198">from Meta</text><text fill="#000000" font-family="sans-serif" font-size="11" lengthAdjust="spacingAndGlyphs" textLength="93" x="448" y="234.1245">Message: String</text><text fill="#000000" font-family="sans-serif" font-size="11" font-style="italic" lengthAdjust="spacingAndGlyphs" textLength="58" x="549" y="234.1245">from Meta</text><line style="stroke: #A80036; stroke-width: 1.5;" x1="443" x2="612" y1="240.7188" y2="240.7188"/><!--class MyAPIRequest--><rect fill="#FEFECE" filter="url(#f1agj2bwanm4j8)" height="60.8047" id="MyAPIRequest" style="stroke: #A80036; stroke-width: 1.5;" width="119" x="720" y="168.5"/><ellipse cx="735" cy="184.5" fill="#ADD1B2" rx="11" ry="11" style="stroke: #A80036; stroke-width: 1.0;"/><path d="M737.3438,180.1719 L737.5156,180.25 C737.7344,179.9375 737.9375,179.8438 738.2344,179.8438 C738.5313,179.8438 738.8125,179.9844 738.9688,180.25 C739.0625,180.4063 739.0781,180.5313 739.0781,180.9688 L739.0781,182.3906 C739.0781,182.8125 739.0469,183 738.9375,183.1563 C738.7656,183.375 738.5,183.5156 738.2344,183.5156 C738.0156,183.5156 737.7813,183.4063 737.6406,183.2656 C737.5,183.1406 737.4688,183.0156 737.4063,182.6094 C737.3125,182.2031 737.1406,181.9844 736.6563,181.7031 C736.1875,181.4531 735.5781,181.2969 735,181.2969 C733.2656,181.2969 732.0156,182.6094 732.0156,184.3906 L732.0156,185.4844 C732.0156,187.1875 733.3125,188.2813 735.3594,188.2813 C736.125,188.2813 736.8125,188.1563 737.2344,187.8906 C737.4219,187.7969 737.4219,187.7969 737.875,187.3125 C738.0625,187.125 738.2656,187.0469 738.4844,187.0469 C738.9531,187.0469 739.3438,187.4375 739.3438,187.8906 C739.3438,188.2813 739.0156,188.7344 738.4375,189.1406 C737.6875,189.6875 736.5313,189.9844 735.3125,189.9844 C732.4219,189.9844 730.3125,188.0938 730.3125,185.5156 L730.3125,184.3906 C730.3125,181.6719 732.3125,179.5938 734.9375,179.5938 C735.8125,179.5938 736.4063,179.7344 737.3438,180.1719 Z "/><text fill="#000000" font-family="sans-serif" font-size="12" lengthAdjust="spacingAndGlyphs" textLength="87" x="749" y="188.6543">MyAPIRequest</text><line style="stroke: #A80036; stroke-width: 1.5;" x1="721" x2="838" y1="200.5" y2="200.5"/><text fill="#000000" font-family="sans-serif" font-size="11" lengthAdjust="spacingAndGlyphs" textLength="103" x="726" y="214.7104">Something: String</text><line style="stroke: #A80036; stroke-width: 1.5;" x1="721" x2="838" y1="221.3047" y2="221.3047"/><!--class MyAPIResponse--><rect fill="#FEFECE" filter="url(#f1agj2bwanm4j8)" height="60.8047" id="MyAPIResponse" style="stroke: #A80036; stroke-width: 1.5;" width="129" x="874" y="168.5"/><ellipse cx="889" cy="184.5" fill="#ADD1B2" rx="11" ry="11" style="stroke: #A80036; stroke-width: 1.0;"/><path d="M891.3438,180.1719 L891.5156,180.25 C891.7344,179.9375 891.9375,179.8438 892.2344,179.8438 C892.5313,179.8438 892.8125,179.9844 892.9688,180.25 C893.0625,180.4063 893.0781,180.5313 893.0781,180.9688 L893.0781,182.3906 C893.0781,182.8125 893.0469,183 892.9375,183.1563 C892.7656,183.375 892.5,183.5156 892.2344,183.5156 C892.0156,183.5156 891.7813,183.4063 891.6406,183.2656 C891.5,183.1406 891.4688,183.0156 891.4063,182.6094 C891.3125,182.2031 891.1406,181.9844 890.6563,181.7031 C890.1875,181.4531 889.5781,181.2969 889,181.2969 C887.2656,181.2969 886.0156,182.6094 886.0156,184.3906 L886.0156,185.4844 C886.0156,187.1875 887.3125,188.2813 889.3594,188.2813 C890.125,188.2813 890.8125,188.1563 891.2344,187.8906 C891.4219,187.7969 891.4219,187.7969 891.875,187.3125 C892.0625,187.125 892.2656,187.0469 892.4844,187.0469 C892.9531,187.0469 893.3438,187.4375 893.3438,187.8906 C893.3438,188.2813 893.0156,188.7344 892.4375,189.1406 C891.6875,189.6875 890.5313,189.9844 889.3125,189.9844 C886.4219,189.9844 884.3125,188.0938 884.3125,185.5156 L884.3125,184.3906 C884.3125,181.6719 886.3125,179.5938 888.9375,179.5938 C889.8125,179.5938 890.4063,179.7344 891.3438,180.1719 Z "/><text fill="#000000" font-family="sans-serif" font-size="12" lengthAdjust="spacingAndGlyphs" textLength="97" x="903" y="188.6543">MyAPIResponse</text><line style="stroke: #A80036; stroke-width: 1.5;" x1="875" x2="1002" y1="200.5" y2="200.5"/><text fill="#000000" font-family="sans-serif" font-size="11" lengthAdjust="spacingAndGlyphs" textLength="96" x="880" y="214.7104">AccountId: String</text><line style="stroke: #A80036; stroke-width: 1.5;" x1="875" x2="1002" y1="221.3047" y2="221.3047"/><!--class MyAPI--><rect fill="#FEFECE" filter="url(#f1agj2bwanm4j8)" height="99.2188" id="MyAPI" style="stroke: #A80036; stroke-width: 1.5;" width="171" x="637" y="332"/><ellipse cx="671.35" cy="348" fill="#ADD1B2" rx="11" ry="11" style="stroke: #A80036; stroke-width: 1.0;"/><path d="M673.6938,343.6719 L673.8656,343.75 C674.0844,343.4375 674.2875,343.3438 674.5844,343.3438 C674.8813,343.3438 675.1625,343.4844 675.3188,343.75 C675.4125,343.9063 675.4281,344.0313 675.4281,344.4688 L675.4281,345.8906 C675.4281,346.3125 675.3969,346.5 675.2875,346.6563 C675.1156,346.875 674.85,347.0156 674.5844,347.0156 C674.3656,347.0156 674.1313,346.9063 673.9906,346.7656 C673.85,346.6406 673.8188,346.5156 673.7563,346.1094 C673.6625,345.7031 673.4906,345.4844 673.0063,345.2031 C672.5375,344.9531 671.9281,344.7969 671.35,344.7969 C669.6156,344.7969 668.3656,346.1094 668.3656,347.8906 L668.3656,348.9844 C668.3656,350.6875 669.6625,351.7813 671.7094,351.7813 C672.475,351.7813 673.1625,351.6563 673.5844,351.3906 C673.7719,351.2969 673.7719,351.2969 674.225,350.8125 C674.4125,350.625 674.6156,350.5469 674.8344,350.5469 C675.3031,350.5469 675.6938,350.9375 675.6938,351.3906 C675.6938,351.7813 675.3656,352.2344 674.7875,352.6406 C674.0375,353.1875 672.8813,353.4844 671.6625,353.4844 C668.7719,353.4844 666.6625,351.5938 666.6625,349.0156 L666.6625,347.8906 C666.6625,345.1719 668.6625,343.0938 671.2875,343.0938 C672.1625,343.0938 672.7563,343.2344 673.6938,343.6719 Z "/><text fill="#000000" font-family="sans-serif" font-size="12" lengthAdjust="spacingAndGlyphs" textLength="35" x="689.65" y="352.1543">MyAPI</text><rect fill="#FFFFFF" height="15.9688" style="stroke: #000000; stroke-width: 1.0; stroke-dasharray: 2.0,2.0;" width="59" x="752" y="329"/><text fill="#000000" font-family="sans-serif" font-size="12" font-style="italic" lengthAdjust="spacingAndGlyphs" textLength="57" x="753" y="341.1387">Envelope</text><line style="stroke: #A80036; stroke-width: 1.5;" x1="638" x2="807" y1="364" y2="364"/><text fill="#000000" font-family="sans-serif" font-size="11" lengthAdjust="spacingAndGlyphs" textLength="132" x="643" y="378.2104">Request: MyAPIRequest</text><text fill="#000000" font-family="sans-serif" font-size="11" lengthAdjust="spacingAndGlyphs" textLength="152" x="643" y="391.0151">Response: MyAPIResponse</text><text fill="#000000" font-family="sans-serif" font-size="11" lengthAdjust="spacingAndGlyphs" textLength="82" x="643" y="403.8198">Code: Number</text><text fill="#000000" font-family="sans-serif" font-size="11" font-style="italic" lengthAdjust="spacingAndGlyphs" textLength="58" x="733" y="403.8198">from Meta</text><text fill="#000000" font-family="sans-serif" font-size="11" lengthAdjust="spacingAndGlyphs" textLength="93" x="643" y="416.6245">Message: String</text><text fill="#000000" font-family="sans-serif" font-size="11" font-style="italic" lengthAdjust="spacingAndGlyphs" textLength="58" x="744" y="416.6245">from Meta</text><line style="stroke: #A80036; stroke-width: 1.5;" x1="638" x2="807" y1="423.2188" y2="423.2188"/><!--link Meta to Error404--><path d="M321.933,74.234 C286.328,93.357 238.089,119.267 194.948,142.438 " fill="none" id="Meta-Error404" style="stroke: #A80036; stroke-width: 1.0;"/><polygon fill="none" points="198.07,148.707,177.138,152.003,191.445,136.373,198.07,148.707" style="stroke: #A80036; stroke-width: 1.0;"/><!--link Meta to Error500--><path d="M359.096,82.022 C353.632,94.799 347.266,109.685 340.954,124.447 " fill="none" id="Meta-Error500" style="stroke: #A80036; stroke-width: 1.0;"/><polygon fill="none" points="347.358,127.274,333.058,142.911,334.485,121.77,347.358,127.274" style="stroke: #A80036; stroke-width: 1.0;"/><!--link Meta to Envelope--><path d="M410.759,82.022 C426.726,97.885 445.964,116.997 464.174,135.088 " fill="none" id="Meta-Envelope" style="stroke: #A80036; stroke-width: 1.0;"/><polygon fill="none" points="469.222,130.235,478.477,149.297,459.355,140.167,469.222,130.235" style="stroke: #A80036; stroke-width: 1.0;"/><!--link MyAPIRequest to MyAPI--><path d="M770.088,229.806 C761.774,256.134 749.449,295.163 739.425,326.904 " fill="none" id="MyAPIRequest-MyAPI" style="stroke: #A80036; stroke-width: 1.0;"/><polygon fill="#A80036" points="737.837,331.9327,744.3613,324.5548,739.3425,327.1647,736.7326,322.146,737.837,331.9327" style="stroke: #A80036; stroke-width: 1.0;"/><text fill="#000000" font-family="sans-serif" font-size="13" lengthAdjust="spacingAndGlyphs" textLength="52" x="751.5" y="298.0669">Request</text><!--link MyAPIResponse to MyAPI--><path d="M902.832,229.806 C870.808,256.567 823.08,296.451 784.768,328.465 " fill="none" id="MyAPIResponse-MyAPI" style="stroke: #A80036; stroke-width: 1.0;"/><polygon fill="#A80036" points="780.619,331.9327,790.0899,329.2304,784.4555,328.7263,784.9596,323.092,780.619,331.9327" style="stroke: #A80036; stroke-width: 1.0;"/><text fill="#000000" font-family="sans-serif" font-size="13" lengthAdjust="spacingAndGlyphs" textLength="62" x="831.5" y="298.0669">Response</text><!--link Meta to MyAPI--><path d="M427.188,53.067 C484.311,63.353 574.759,87.669 630.5,143 C676.351,188.514 699.832,259.436 711.543,311.939 " fill="none" id="Meta-MyAPI" style="stroke: #A80036; stroke-width: 1.0;"/><polygon fill="none" points="718.449,310.773,715.609,331.7712,704.734,313.585,718.449,310.773" style="stroke: #A80036; stroke-width: 1.0;"/><!--link Envelope to MyAPI--><path d="M557.331,248.609 C569.69,266.565 584.997,286.336 601.5,302 C609.681,309.766 618.73,317.229 628.087,324.256 " fill="none" id="Envelope-MyAPI" style="stroke: #A80036; stroke-width: 1.0;"/><polygon fill="#A80036" points="638.754,331.9968,636.2479,325.2352,629.0425,324.9479,631.5486,331.7095,638.754,331.9968" style="stroke: #A80036; stroke-width: 1.0;"/><text fill="#000000" font-family="sans-serif" font-size="13" lengthAdjust="spacingAndGlyphs" textLength="37" x="602.5" y="298.0669">ALIAS</text><!--
@startuml
class Meta {
	Code: Number 
	Message: String 
}
class Error404 {
	Code: Number  <i>from Meta</i>
	Message: String  <i>from Meta</i>
  - - -
  <b>code</b>: 404
<b>message</b>: Not Found
    
}
Meta - -|> Error404
class Error500 {
	Code: Number  <i>from Meta</i>
	Message: String  <i>from Meta</i>
  - - -
  <b>code</b>: 500
<b>message</b>: Internal Server Error
    
}
Meta - -|> Error500
class Envelope<< (T,orchid) >> {
	Request: req 
	Response: res 
	Code: Number  <i>from Meta</i>
	Message: String  <i>from Meta</i>
}
Meta - -|> Envelope
class MyAPIRequest {
	Something: String 
}
class MyAPIResponse {
	AccountId: String 
}
class MyAPI<Envelope> {
	Request: MyAPIRequest 
	Response: MyAPIResponse 
	Code: Number  <i>from Meta</i>
	Message: String  <i>from Meta</i>
}
MyAPIRequest - -> MyAPI : Request
MyAPIResponse - -> MyAPI : Response
Meta - -|> MyAPI
Envelope - -* MyAPI: ALIAS
@enduml

PlantUML version 1.2019.03(Sun Mar 10 11:04:44 UTC 2019)
(GPL source distribution)
Java Runtime: Java(TM) SE Runtime Environment
JVM: Java HotSpot(TM) 64-Bit Server VM
Java Version: 1.7.0_25-b15
Operating System: Linux
Default Encoding: UTF-8
Language: en
Country: US
--></g></svg>