<?xml version="1.0" encoding="UTF-8" standalone="no"?><svg xmlns="http://www.w3.org/2000/svg" xmlns:xlink="http://www.w3.org/1999/xlink" contentScriptType="application/ecmascript" contentStyleType="text/css" height="442px" preserveAspectRatio="none" style="width:943px;height:442px;" version="1.1" viewBox="0 0 943 442" width="943px" zoomAndPan="magnify"><defs><filter height="300%" id="f1j2s42q5crube" width="300%" x="-1" y="-1"><feGaussianBlur result="blurOut" stdDeviation="2.0"/><feColorMatrix in="blurOut" result="blurOut2" type="matrix" values="0 0 0 0 0 0 0 0 0 0 0 0 0 0 0 0 0 0 .4 0"/><feOffset dx="4.0" dy="4.0" in="blurOut2" result="blurOut3"/><feBlend in="SourceGraphic" in2="blurOut3" mode="normal"/></filter></defs><g><!--class Meta--><rect fill="#FEFECE" filter="url(#f1j2s42q5crube)" height="73.6094" id="Meta" style="stroke: #A80036; stroke-width: 1.5;" width="105" x="322" y="8"/><ellipse cx="355.9" cy="24" fill="#ADD1B2" rx="11" ry="11" style="stroke: #A80036; stroke-width: 1.0;"/><path d="M358.2438,19.6719 L358.4156,19.75 C358.6344,19.4375 358.8375,19.3438 359.1344,19.3438 C359.4313,19.3438 359.7125,19.4844 359.8688,19.75 C359.9625,19.9063 359.9781,20.0313 359.9781,20.4688 L359.9781,21.8906 C359.9781,22.3125 359.9469,22.5 359.8375,22.6563 C359.6656,22.875 359.4,23.0156 359.1344,23.0156 C358.9156,23.0156 358.6813,22.9063 358.5406,22.7656 C358.4,22.6406 358.3688,22.5156 358.3063,22.1094 C358.2125,21.7031 358.0406,21.4844 357.5563,21.2031 C357.0875,20.9531 356.4781,20.7969 355.9,20.7969 C354.1656,20.7969 352.9156,22.1094 352.9156,23.8906 L352.9156,24.9844 C352.9156,26.6875 354.2125,27.7813 356.2594,27.7813 C357.025,27.7813 357.7125,27.6563 358.1344,27.3906 C358.3219,27.2969 358.3219,27.2969 358.775,26.8125 C358.9625,26.625 359.1656,26.5469 359.3844,26.5469 C359.8531,26.5469 360.2438,26.9375 360.2438,27.3906 C360.2438,27.7813 359.9156,28.2344 359.3375,28.6406 C358.5875,29.1875 357.4313,29.4844 356.2125,29.4844 C353.3219,29.4844 351.2125,27.5938 351.2125,25.0156 L351.2125,23.8906 C351.2125,21.1719 353.2125,19.0938 355.8375,19.0938 C356.7125,19.0938 357.3063,19.2344 358.2438,19.6719 Z "/><text fill="#000000" font-family="sans-serif" font-size="12" lengthAdjust="spacingAndGlyphs" textLength="31" x="374.1" y="28.1543">Meta</text><line style="stroke: #A80036; stroke-width: 1.5;" x1="323" x2="426" y1="40" y2="40"/><text fill="#000000" font-family="sans-serif" font-size="11" lengthAdjust="spacingAndGlyphs" textLength="82" x="328" y="54.2104">Code: Number</text><text fill="#000000" font-family="sans-serif" font-size="11" lengthAdjust="spacingAndGlyphs" textLength="93" x="328" y="67.0151">Message: String</text><line style="stroke: #A80036; stroke-width: 1.5;" x1="323" x2="426" y1="73.6094" y2="73.6094"/><!--class Error404--><rect fill="#FEFECE" filter="url(#f1j2s42q5crube)" height="112.0234" id="Error404" style="stroke: #A80036; stroke-width: 1.5;" width="171" x="6" y="143"/><ellipse cx="59.75" cy="159" fill="#ADD1B2" rx="11" ry="11" style="stroke: #A80036; stroke-width: 1.0;"/><path d="M62.0938,154.6719 L62.2656,154.75 C62.4844,154.4375 62.6875,154.3438 62.9844,154.3438 C63.2813,154.3438 63.5625,154.4844 63.7188,154.75 C63.8125,154.9063 63.8281,155.0313 63.8281,155.4688 L63.8281,156.8906 C63.8281,157.3125 63.7969,157.5 63.6875,157.6563 C63.5156,157.875 63.25,158.0156 62.9844,158.0156 C62.7656,158.0156 62.5313,157.9063 62.3906,157.7656 C62.25,157.6406 62.2188,157.5156 62.1563,157.1094 C62.0625,156.7031 61.8906,156.4844 61.4063,156.2031 C60.9375,155.9531 60.3281,155.7969 59.75,155.7969 C58.0156,155.7969 56.7656,157.1094 56.7656,158.8906 L56.7656,159.9844 C56.7656,161.6875 58.0625,162.7813 60.1094,162.7813 C60.875,162.7813 61.5625,162.6563 61.9844,162.3906 C62.1719,162.2969 62.1719,162.2969 62.625,161.8125 C62.8125,161.625 63.0156,161.5469 63.2344,161.5469 C63.7031,161.5469 64.0938,161.9375 64.0938,162.3906 C64.0938,162.7813 63.7656,163.2344 63.1875,163.6406 C62.4375,164.1875 61.2813,164.4844 60.0625,164.4844 C57.1719,164.4844 55.0625,162.5938 55.0625,160.0156 L55.0625,158.8906 C55.0625,156.1719 57.0625,154.0938 59.6875,154.0938 C60.5625,154.0938 61.1563,154.2344 62.0938,154.6719 Z "/><text fill="#000000" font-family="sans-serif" font-size="12" lengthAdjust="spacingAndGlyphs" textLength="55" x="80.25" y="163.1543">Error404</text><line style="stroke: #A80036; stroke-width: 1.5;" x1="7" x2="176" y1="175" y2="175"/><text fill="#000000" font-family="sans-serif" font-size="11" lengthAdjust="spacingAndGlyphs" textLength="82" x="12" y="189.2104">Code: Number</text><text fill="#000000" font-family="sans-serif" font-size="11" font-style="italic" lengthAdjust="spacingAndGlyphs" textLength="58" x="102" y="189.2104">from Meta</text><text fill="#000000" font-family="sans-serif" font-size="11" lengthAdjust="spacingAndGlyphs" textLength="93" x="12" y="202.0151">Message: String</text><text fill="#000000" font-family="sans-serif" font-size="11" font-style="italic" lengthAdjust="spacingAndGlyphs" textLength="58" x="113" y="202.0151">from Meta</text><text fill="#000000" font-family="sans-serif" font-size="11" lengthAdjust="spacingAndGlyphs" textLength="12" x="12" y="214.8198">---</text><text fill="#000000" font-family="sans-serif" font-size="11" font-weight="bold" lengthAdjust="spacingAndGlyphs" textLength="31" x="12" y="227.6245">code</text><text fill="#000000" font-family="sans-serif" font-size="11" lengthAdjust="spacingAndGlyphs" textLength="29" x="43" y="227.6245">: 404</text><text fill="#000000" font-family="sans-serif" font-size="11" font-weight="bold" lengthAdjust="spacingAndGlyphs" textLength="57" x="12" y="240.4292">message</text><text fill="#000000" font-family="sans-serif" font-size="11" lengthAdjust="spacingAndGlyphs" textLength="65" x="69" y="240.4292">: Not Found</text><line style="stroke: #A80036; stroke-width: 1.5;" x1="7" x2="176" y1="247.0234" y2="247.0234"/><!--class Error500--><rect fill="#FEFECE" filter="url(#f1j2s42q5crube)" height="112.0234" id="Error500" style="stroke: #A80036; stroke-width: 1.5;" width="195" x="212" y="143"/><ellipse cx="277.75" cy="159" fill="#ADD1B2" rx="11" ry="11" style="stroke: #A80036; stroke-width: 1.0;"/><path d="M280.0938,154.6719 L280.2656,154.75 C280.4844,154.4375 280.6875,154.3438 280.9844,154.3438 C281.2813,154.3438 281.5625,154.4844 281.7188,154.75 C281.8125,154.9063 281.8281,155.0313 281.8281,155.4688 L281.8281,156.8906 C281.8281,157.3125 281.7969,157.5 281.6875,157.6563 C281.5156,157.875 281.25,158.0156 280.9844,158.0156 C280.7656,158.0156 280.5313,157.9063 280.3906,157.7656 C280.25,157.6406 280.2188,157.5156 280.1563,157.1094 C280.0625,156.7031 279.8906,156.4844 279.4063,156.2031 C278.9375,155.9531 278.3281,155.7969 277.75,155.7969 C276.0156,155.7969 274.7656,157.1094 274.7656,158.8906 L274.7656,159.9844 C274.7656,161.6875 276.0625,162.7813 278.1094,162.7813 C278.875,162.7813 279.5625,162.6563 279.9844,162.3906 C280.1719,162.2969 280.1719,162.2969 280.625,161.8125 C280.8125,161.625 281.0156,161.5469 281.2344,161.5469 C281.7031,161.5469 282.0938,161.9375 282.0938,162.3906 C282.0938,162.7813 281.7656,163.2344 281.1875,163.6406 C280.4375,164.1875 279.2813,164.4844 278.0625,164.4844 C275.1719,164.4844 273.0625,162.5938 273.0625,160.0156 L273.0625,158.8906 C273.0625,156.1719 275.0625,154.0938 277.6875,154.0938 C278.5625,154.0938 279.1563,154.2344 280.0938,154.6719 Z "/><text fill="#000000" font-family="sans-serif" font-size="12" lengthAdjust="spacingAndGlyphs" textLength="55" x="298.25" y="163.1543">Error500</text><line style="stroke: #A80036; stroke-width: 1.5;" x1="213" x2="406" y1="175" y2="175"/><text fill="#000000" font-family="sans-serif" font-size="11" lengthAdjust="spacingAndGlyphs" textLength="82" x="218" y="189.2104">Code: Number</text><text fill="#000000" font-family="sans-serif" font-size="11" font-style="italic" lengthAdjust="spacingAndGlyphs" textLength="58" x="308" y="189.2104">from Meta</text><text fill="#000000" font-family="sans-serif" font-size="11" lengthAdjust="spacingAndGlyphs" textLength="93" x="218" y="202.0151">Message: String</text><text fill="#000000" font-family="sans-serif" font-size="11" font-style="italic" lengthAdjust="spacingAndGlyphs" textLength="58" x="319" y="202.0151">from Meta</text><text fill="#000000" font-family="sans-serif" font-size="11" lengthAdjust="spacingAndGlyphs" textLength="12" x="218" y="214.8198">---</text><text fill="#000000" font-family="sans-serif" font-size="11" font-weight="bold" lengthAdjust="spacingAndGlyphs" textLength="31" x="218" y="227.6245">code</text><text fill="#000000" font-family="sans-serif" font-size="11" lengthAdjust="spacingAndGlyphs" textLength="29" x="249" y="227.6245">: 500</text><text fill="#000000" font-family="sans-serif" font-size="11" font-weight="bold" lengthAdjust="spacingAndGlyphs" textLength="57" x="218" y="240.4292">message</text><text fill="#000000" font-family="sans-serif" font-size="11" lengthAdjust="spacingAndGlyphs" textLength="126" x="275" y="240.4292">: Internal Server Error</text><line style="stroke: #A80036; stroke-width: 1.5;" x1="213" x2="406" y1="247.0234" y2="247.0234"/><!--class Envelope--><rect fill="#FEFECE" filter="url(#f1j2s42q5crube)" height="99.2188" id="Envelope" style="stroke: #A80036; stroke-width: 1.5;" width="171" x="442" y="149.5"/><ellipse cx="494.75" cy="165.5" fill="#DA70D6" rx="11" ry="11" style="stroke: #A80036; stroke-width: 1.0;"/><path d="M495.1875,163.0313 L495.1875,169.5469 L496.3125,169.5469 C496.7656,169.5469 496.9063,169.5781 497.0625,169.7031 C497.2969,169.875 497.4219,170.125 497.4219,170.4063 C497.4219,170.6875 497.2813,170.9844 497.0156,171.125 C496.9063,171.2031 496.6406,171.25 496.3125,171.25 L492.375,171.25 C491.9844,171.25 491.7656,171.2031 491.6094,171.0781 C491.3906,170.9219 491.25,170.6563 491.25,170.4063 C491.25,170.1094 491.4063,169.8281 491.6563,169.6719 C491.8125,169.5625 491.9375,169.5469 492.375,169.5469 L493.4844,169.5469 L493.4844,163.0313 L491.6563,163.0313 L491.6563,164.625 C491.6563,165.0781 491.625,165.2188 491.5156,165.3906 C491.3438,165.6094 491.0938,165.7344 490.8125,165.7344 C490.5313,165.7344 490.2344,165.5938 490.0781,165.3281 C490,165.1875 489.9688,165.0156 489.9688,164.625 L489.9688,161.3438 L498.7344,161.3438 L498.7344,164.625 C498.7344,165.0938 498.7188,165.2188 498.5781,165.3906 C498.4063,165.6094 498.1563,165.7344 497.8906,165.7344 C497.5938,165.7344 497.3125,165.5781 497.1563,165.3281 C497.0625,165.1875 497.0313,165.0156 497.0313,164.625 L497.0313,163.0313 Z "/><text fill="#000000" font-family="sans-serif" font-size="12" lengthAdjust="spacingAndGlyphs" textLength="57" x="515.25" y="169.6543">Envelope</text><line style="stroke: #A80036; stroke-width: 1.5;" x1="443" x2="612" y1="181.5" y2="181.5"/><text fill="#000000" font-family="sans-serif" font-size="11" lengthAdjust="spacingAndGlyphs" textLength="73" x="448" y="195.7104">Request: req</text><text fill="#000000" font-family="sans-serif" font-size="11" lengthAdjust="spacingAndGlyphs" textLength="83" x="448" y="208.5151">Response: res</text><text fill="#000000" font-family="sans-serif" font-size="11" lengthAdjust="spacingAndGlyphs" textLength="82" x="448" y="221.3198">Code: Number</text><text fill="#000000" font-family="sans-serif" font-size="11" font-style="italic" lengthAdjust="spacingAndGlyphs" textLength="58" x="538" y="221.3198">from Meta</text><text fill="#000000" font-family="sans-serif" font-size="11" lengthAdjust="spacingAndGlyphs" textLength="93" x="448" y="234.1245">Message: String</text><text fill="#000000" font-family="sans-serif" font-size="11" font-style="italic" lengthAdjust="spacingAndGlyphs" textLength="58" x="549" y="234.1245">from Meta</text><line style="stroke: #A80036; stroke-width: 1.5;" x1="443" x2="612" y1="240.7188" y2="240.7188"/><!--class MyAPIRequest--><rect fill="#FEFECE" filter="url(#f1j2s42q5crube)" height="60.8047" id="MyAPIRequest" style="stroke: #A80036; stroke-width: 1.5;" width="119" x="462" y="14.5"/><ellipse cx="477" cy="30.5" fill="#ADD1B2" rx="11" ry="11" style="stroke: #A80036; stroke-width: 1.0;"/><path d="M479.3438,26.1719 L479.5156,26.25 C479.7344,25.9375 479.9375,25.8438 480.2344,25.8438 C480.5313,25.8438 480.8125,25.9844 480.9688,26.25 C481.0625,26.4063 481.0781,26.5313 481.0781,26.9688 L481.0781,28.3906 C481.0781,28.8125 481.0469,29 480.9375,29.1563 C480.7656,29.375 480.5,29.5156 480.2344,29.5156 C480.0156,29.5156 479.7813,29.4063 479.6406,29.2656 C479.5,29.1406 479.4688,29.0156 479.4063,28.6094 C479.3125,28.2031 479.1406,27.9844 478.6563,27.7031 C478.1875,27.4531 477.5781,27.2969 477,27.2969 C475.2656,27.2969 474.0156,28.6094 474.0156,30.3906 L474.0156,31.4844 C474.0156,33.1875 475.3125,34.2813 477.3594,34.2813 C478.125,34.2813 478.8125,34.1563 479.2344,33.8906 C479.4219,33.7969 479.4219,33.7969 479.875,33.3125 C480.0625,33.125 480.2656,33.0469 480.4844,33.0469 C480.9531,33.0469 481.3438,33.4375 481.3438,33.8906 C481.3438,34.2813 481.0156,34.7344 480.4375,35.1406 C479.6875,35.6875 478.5313,35.9844 477.3125,35.9844 C474.4219,35.9844 472.3125,34.0938 472.3125,31.5156 L472.3125,30.3906 C472.3125,27.6719 474.3125,25.5938 476.9375,25.5938 C477.8125,25.5938 478.4063,25.7344 479.3438,26.1719 Z "/><text fill="#000000" font-family="sans-serif" font-size="12" lengthAdjust="spacingAndGlyphs" textLength="87" x="491" y="34.6543">MyAPIRequest</text><line style="stroke: #A80036; stroke-width: 1.5;" x1="463" x2="580" y1="46.5" y2="46.5"/><text fill="#000000" font-family="sans-serif" font-size="11" lengthAdjust="spacingAndGlyphs" textLength="103" x="468" y="60.7104">Something: String</text><line style="stroke: #A80036; stroke-width: 1.5;" x1="463" x2="580" y1="67.3047" y2="67.3047"/><!--class MyAPIResponse--><rect fill="#FEFECE" filter="url(#f1j2s42q5crube)" height="60.8047" id="MyAPIResponse" style="stroke: #A80036; stroke-width: 1.5;" width="129" x="616" y="14.5"/><ellipse cx="631" cy="30.5" fill="#ADD1B2" rx="11" ry="11" style="stroke: #A80036; stroke-width: 1.0;"/><path d="M633.3438,26.1719 L633.5156,26.25 C633.7344,25.9375 633.9375,25.8438 634.2344,25.8438 C634.5313,25.8438 634.8125,25.9844 634.9688,26.25 C635.0625,26.4063 635.0781,26.5313 635.0781,26.9688 L635.0781,28.3906 C635.0781,28.8125 635.0469,29 634.9375,29.1563 C634.7656,29.375 634.5,29.5156 634.2344,29.5156 C634.0156,29.5156 633.7813,29.4063 633.6406,29.2656 C633.5,29.1406 633.4688,29.0156 633.4063,28.6094 C633.3125,28.2031 633.1406,27.9844 632.6563,27.7031 C632.1875,27.4531 631.5781,27.2969 631,27.2969 C629.2656,27.2969 628.0156,28.6094 628.0156,30.3906 L628.0156,31.4844 C628.0156,33.1875 629.3125,34.2813 631.3594,34.2813 C632.125,34.2813 632.8125,34.1563 633.2344,33.8906 C633.4219,33.7969 633.4219,33.7969 633.875,33.3125 C634.0625,33.125 634.2656,33.0469 634.4844,33.0469 C634.9531,33.0469 635.3438,33.4375 635.3438,33.8906 C635.3438,34.2813 635.0156,34.7344 634.4375,35.1406 C633.6875,35.6875 632.5313,35.9844 631.3125,35.9844 C628.4219,35.9844 626.3125,34.0938 626.3125,31.5156 L626.3125,30.3906 C626.3125,27.6719 628.3125,25.5938 630.9375,25.5938 C631.8125,25.5938 632.4063,25.7344 633.3438,26.1719 Z "/><text fill="#000000" font-family="sans-serif" font-size="12" lengthAdjust="spacingAndGlyphs" textLength="97" x="645" y="34.6543">MyAPIResponse</text><line style="stroke: #A80036; stroke-width: 1.5;" x1="617" x2="744" y1="46.5" y2="46.5"/><text fill="#000000" font-family="sans-serif" font-size="11" lengthAdjust="spacingAndGlyphs" textLength="96" x="622" y="60.7104">AccountId: String</text><line style="stroke: #A80036; stroke-width: 1.5;" x1="617" x2="744" y1="67.3047" y2="67.3047"/><!--class MyAPI--><rect fill="#FEFECE" filter="url(#f1j2s42q5crube)" height="99.2188" id="MyAPI" style="stroke: #A80036; stroke-width: 1.5;" width="171" x="628" y="332"/><ellipse cx="662.35" cy="348" fill="#ADD1B2" rx="11" ry="11" style="stroke: #A80036; stroke-width: 1.0;"/><path d="M664.6938,343.6719 L664.8656,343.75 C665.0844,343.4375 665.2875,343.3438 665.5844,343.3438 C665.8813,343.3438 666.1625,343.4844 666.3188,343.75 C666.4125,343.9063 666.4281,344.0313 666.4281,344.4688 L666.4281,345.8906 C666.4281,346.3125 666.3969,346.5 666.2875,346.6563 C666.1156,346.875 665.85,347.0156 665.5844,347.0156 C665.3656,347.0156 665.1313,346.9063 664.9906,346.7656 C664.85,346.6406 664.8188,346.5156 664.7563,346.1094 C664.6625,345.7031 664.4906,345.4844 664.0063,345.2031 C663.5375,344.9531 662.9281,344.7969 662.35,344.7969 C660.6156,344.7969 659.3656,346.1094 659.3656,347.8906 L659.3656,348.9844 C659.3656,350.6875 660.6625,351.7813 662.7094,351.7813 C663.475,351.7813 664.1625,351.6563 664.5844,351.3906 C664.7719,351.2969 664.7719,351.2969 665.225,350.8125 C665.4125,350.625 665.6156,350.5469 665.8344,350.5469 C666.3031,350.5469 666.6938,350.9375 666.6938,351.3906 C666.6938,351.7813 666.3656,352.2344 665.7875,352.6406 C665.0375,353.1875 663.8813,353.4844 662.6625,353.4844 C659.7719,353.4844 657.6625,351.5938 657.6625,349.0156 L657.6625,347.8906 C657.6625,345.1719 659.6625,343.0938 662.2875,343.0938 C663.1625,343.0938 663.7563,343.2344 664.6938,343.6719 Z "/><text fill="#000000" font-family="sans-serif" font-size="12" lengthAdjust="spacingAndGlyphs" textLength="35" x="680.65" y="352.1543">MyAPI</text><rect fill="#FFFFFF" height="15.9688" style="stroke: #000000; stroke-width: 1.0; stroke-dasharray: 2.0,2.0;" width="59" x="743" y="329"/><text fill="#000000" font-family="sans-serif" font-size="12" font-style="italic" lengthAdjust="spacingAndGlyphs" textLength="57" x="744" y="341.1387">Envelope</text><line style="stroke: #A80036; stroke-width: 1.5;" x1="629" x2="798" y1="364" y2="364"/><text fill="#000000" font-family="sans-serif" font-size="11" lengthAdjust="spacingAndGlyphs" textLength="132" x="634" y="378.2104">Request: MyAPIRequest</text><text fill="#000000" font-family="sans-serif" font-size="11" lengthAdjust="spacingAndGlyphs" textLength="152" x="634" y="391.0151">Response: MyAPIResponse</text><text fill="#000000" font-family="sans-serif" font-size="11" lengthAdjust="spacingAndGlyphs" textLength="82" x="634" y="403.8198">Code: Number</text><text fill="#000000" font-family="sans-serif" font-size="11" font-style="italic" lengthAdjust="spacingAndGlyphs" textLength="58" x="724" y="403.8198">from Meta</text><text fill="#000000" font-family="sans-serif" font-size="11" lengthAdjust="spacingAndGlyphs" textLength="93" x="634" y="416.6245">Message: String</text><text fill="#000000" font-family="sans-serif" font-size="11" font-style="italic" lengthAdjust="spacingAndGlyphs" textLength="58" x="735" y="416.6245">from Meta</text><line style="stroke: #A80036; stroke-width: 1.5;" x1="629" x2="798" y1="423.2188" y2="423.2188"/><!--class Request--><rect fill="#FEFECE" filter="url(#f1j2s42q5crube)" height="48" id="Request" style="stroke: #A80036; stroke-width: 1.5;" width="84" x="719.5" y="175"/><ellipse cx="734.5" cy="191" fill="#ADD1B2" rx="11" ry="11" style="stroke: #A80036; stroke-width: 1.0;"/><path d="M736.8438,186.6719 L737.0156,186.75 C737.2344,186.4375 737.4375,186.3438 737.7344,186.3438 C738.0313,186.3438 738.3125,186.4844 738.4688,186.75 C738.5625,186.9063 738.5781,187.0313 738.5781,187.4688 L738.5781,188.8906 C738.5781,189.3125 738.5469,189.5 738.4375,189.6563 C738.2656,189.875 738,190.0156 737.7344,190.0156 C737.5156,190.0156 737.2813,189.9063 737.1406,189.7656 C737,189.6406 736.9688,189.5156 736.9063,189.1094 C736.8125,188.7031 736.6406,188.4844 736.1563,188.2031 C735.6875,187.9531 735.0781,187.7969 734.5,187.7969 C732.7656,187.7969 731.5156,189.1094 731.5156,190.8906 L731.5156,191.9844 C731.5156,193.6875 732.8125,194.7813 734.8594,194.7813 C735.625,194.7813 736.3125,194.6563 736.7344,194.3906 C736.9219,194.2969 736.9219,194.2969 737.375,193.8125 C737.5625,193.625 737.7656,193.5469 737.9844,193.5469 C738.4531,193.5469 738.8438,193.9375 738.8438,194.3906 C738.8438,194.7813 738.5156,195.2344 737.9375,195.6406 C737.1875,196.1875 736.0313,196.4844 734.8125,196.4844 C731.9219,196.4844 729.8125,194.5938 729.8125,192.0156 L729.8125,190.8906 C729.8125,188.1719 731.8125,186.0938 734.4375,186.0938 C735.3125,186.0938 735.9063,186.2344 736.8438,186.6719 Z "/><text fill="#000000" font-family="sans-serif" font-size="12" lengthAdjust="spacingAndGlyphs" textLength="52" x="748.5" y="195.1543">Request</text><line style="stroke: #A80036; stroke-width: 1.5;" x1="720.5" x2="802.5" y1="207" y2="207"/><line style="stroke: #A80036; stroke-width: 1.5;" x1="720.5" x2="802.5" y1="215" y2="215"/><!--class Response--><rect fill="#FEFECE" filter="url(#f1j2s42q5crube)" height="48" id="Response" style="stroke: #A80036; stroke-width: 1.5;" width="94" x="838.5" y="175"/><ellipse cx="853.5" cy="191" fill="#ADD1B2" rx="11" ry="11" style="stroke: #A80036; stroke-width: 1.0;"/><path d="M855.8438,186.6719 L856.0156,186.75 C856.2344,186.4375 856.4375,186.3438 856.7344,186.3438 C857.0313,186.3438 857.3125,186.4844 857.4688,186.75 C857.5625,186.9063 857.5781,187.0313 857.5781,187.4688 L857.5781,188.8906 C857.5781,189.3125 857.5469,189.5 857.4375,189.6563 C857.2656,189.875 857,190.0156 856.7344,190.0156 C856.5156,190.0156 856.2813,189.9063 856.1406,189.7656 C856,189.6406 855.9688,189.5156 855.9063,189.1094 C855.8125,188.7031 855.6406,188.4844 855.1563,188.2031 C854.6875,187.9531 854.0781,187.7969 853.5,187.7969 C851.7656,187.7969 850.5156,189.1094 850.5156,190.8906 L850.5156,191.9844 C850.5156,193.6875 851.8125,194.7813 853.8594,194.7813 C854.625,194.7813 855.3125,194.6563 855.7344,194.3906 C855.9219,194.2969 855.9219,194.2969 856.375,193.8125 C856.5625,193.625 856.7656,193.5469 856.9844,193.5469 C857.4531,193.5469 857.8438,193.9375 857.8438,194.3906 C857.8438,194.7813 857.5156,195.2344 856.9375,195.6406 C856.1875,196.1875 855.0313,196.4844 853.8125,196.4844 C850.9219,196.4844 848.8125,194.5938 848.8125,192.0156 L848.8125,190.8906 C848.8125,188.1719 850.8125,186.0938 853.4375,186.0938 C854.3125,186.0938 854.9063,186.2344 855.8438,186.6719 Z "/><text fill="#000000" font-family="sans-serif" font-size="12" lengthAdjust="spacingAndGlyphs" textLength="62" x="867.5" y="195.1543">Response</text><line style="stroke: #A80036; stroke-width: 1.5;" x1="839.5" x2="931.5" y1="207" y2="207"/><line style="stroke: #A80036; stroke-width: 1.5;" x1="839.5" x2="931.5" y1="215" y2="215"/><!--link Meta to Error404--><path d="M321.933,74.234 C286.328,93.357 238.089,119.267 194.948,142.438 " fill="none" id="Meta-Error404" style="stroke: #A80036; stroke-width: 1.0;"/><polygon fill="none" points="198.07,148.707,177.138,152.003,191.445,136.373,198.07,148.707" style="stroke: #A80036; stroke-width: 1.0;"/><!--link Meta to Error500--><path d="M359.096,82.022 C353.632,94.799 347.266,109.685 340.954,124.447 " fill="none" id="Meta-Error500" style="stroke: #A80036; stroke-width: 1.0;"/><polygon fill="none" points="347.358,127.274,333.058,142.911,334.485,121.77,347.358,127.274" style="stroke: #A80036; stroke-width: 1.0;"/><!--link Meta to Envelope--><path d="M410.759,82.022 C426.726,97.885 445.964,116.997 464.174,135.088 " fill="none" id="Meta-Envelope" style="stroke: #A80036; stroke-width: 1.0;"/><polygon fill="none" points="469.222,130.235,478.477,149.297,459.355,140.167,469.222,130.235" style="stroke: #A80036; stroke-width: 1.0;"/><!--link Request to MyAPI--><path d="M755.323,223.228 C748.397,249.274 736.933,292.381 727.758,326.884 " fill="none" id="Request-MyAPI" style="stroke: #A80036; stroke-width: 1.0;"/><polygon fill="#A80036" points="726.422,331.9095,732.5993,324.2387,727.7061,327.0772,724.8676,322.1841,726.422,331.9095" style="stroke: #A80036; stroke-width: 1.0;"/><text fill="#000000" font-family="sans-serif" font-size="13" lengthAdjust="spacingAndGlyphs" textLength="52" x="738.5" y="298.0669">Request</text><!--link Response to MyAPI--><path d="M867.523,223.017 C850.661,244.186 824.382,276.119 799.5,302 C791.164,310.671 782.057,319.552 772.988,328.076 " fill="none" id="Response-MyAPI" style="stroke: #A80036; stroke-width: 1.0;"/><polygon fill="#A80036" points="769.106,331.7064,778.4124,328.483,772.7588,328.2922,772.9497,322.6385,769.106,331.7064" style="stroke: #A80036; stroke-width: 1.0;"/><text fill="#000000" font-family="sans-serif" font-size="13" lengthAdjust="spacingAndGlyphs" textLength="62" x="814.5" y="298.0669">Response</text><!--link Meta to MyAPI--><path d="M427.208,74.22 C432.984,76.978 438.826,79.628 444.5,82 C524.767,115.555 568.392,82.079 630.5,143 C676.196,187.822 696.773,259.156 706.016,311.96 " fill="none" id="Meta-MyAPI" style="stroke: #A80036; stroke-width: 1.0;"/><polygon fill="none" points="712.961,311.063,709.13,331.903,699.129,313.222,712.961,311.063" style="stroke: #A80036; stroke-width: 1.0;"/><!--link Envelope to MyAPI--><path d="M557.809,248.558 C570.173,266.408 585.359,286.12 601.5,302 C609.165,309.541 617.622,316.87 626.351,323.826 " fill="none" id="Envelope-MyAPI" style="stroke: #A80036; stroke-width: 1.0;"/><polygon fill="#A80036" points="636.693,331.8113,634.3881,324.9785,627.1944,324.478,629.4993,331.3109,636.693,331.8113" style="stroke: #A80036; stroke-width: 1.0;"/><text fill="#000000" font-family="sans-serif" font-size="13" lengthAdjust="spacingAndGlyphs" textLength="37" x="602.5" y="298.0669">ALIAS</text><!--
@startuml
class Meta {
	Code: Number 
	Message: String 
}
class Error404 {
	Code: Number  <i>from Meta</i>
	Message: String  <i>from Meta</i>
  - - -
  <b>code</b>: 404
<b>message</b>: Not Found
    
}
Meta - -|> Error404
class Error500 {
	Code: Number  <i>from Meta</i>
	Message: String  <i>from Meta</i>
  - - -
  <b>code</b>: 500
<b>message</b>: Internal Server Error
    
}
Meta - -|> Error500
class Envelope<< (T,orchid) >> {
	Request: req 
	Response: res 
	Code: Number  <i>from Meta</i>
	Message: String  <i>from Meta</i>
}
Meta - -|> Envelope
class MyAPIRequest {
	Something: String 
}
class MyAPIResponse {
	AccountId: String 
}
class MyAPI<Envelope> {
	Request: MyAPIRequest 
	Response: MyAPIResponse 
	Code: Number  <i>from Meta</i>
	Message: String  <i>from Meta</i>
}
Request - -> MyAPI : Request
Response - -> MyAPI : Response
Meta - -|> MyAPI
Envelope - -* MyAPI: ALIAS
@enduml

PlantUML version 1.2019.03(Sun Mar 10 11:04:44 UTC 2019)
(GPL source distribution)
Java Runtime: Java(TM) SE Runtime Environment
JVM: Java HotSpot(TM) 64-Bit Server VM
Java Version: 1.7.0_25-b15
Operating System: Linux
Default Encoding: UTF-8
Language: en
Country: US
--></g></svg>