<?xml version="1.0" encoding="UTF-8" standalone="no"?><svg xmlns="http://www.w3.org/2000/svg" xmlns:xlink="http://www.w3.org/1999/xlink" contentScriptType="application/ecmascript" contentStyleType="text/css" height="79px" preserveAspectRatio="none" style="width:91px;height:79px;" version="1.1" viewBox="0 0 91 79" width="91px" zoomAndPan="magnify"><defs><filter height="300%" id="f19q59564pbmc4" width="300%" x="-1" y="-1"><feGaussianBlur result="blurOut" stdDeviation="2.0"/><feColorMatrix in="blurOut" result="blurOut2" type="matrix" values="0 0 0 0 0 0 0 0 0 0 0 0 0 0 0 0 0 0 .4 0"/><feOffset dx="4.0" dy="4.0" in="blurOut2" result="blurOut3"/><feBlend in="SourceGraphic" in2="blurOut3" mode="normal"/></filter></defs><g><!--class Foo--><rect fill="#FEFECE" filter="url(#f19q59564pbmc4)" height="60.8047" id="Foo" style="stroke: #A80036; stroke-width: 1.5;" width="74" x="6" y="8"/><ellipse cx="29.55" cy="24" fill="#ADD1B2" rx="11" ry="11" style="stroke: #A80036; stroke-width: 1.0;"/><path d="M31.8938,19.6719 L32.0656,19.75 C32.2844,19.4375 32.4875,19.3438 32.7844,19.3438 C33.0813,19.3438 33.3625,19.4844 33.5188,19.75 C33.6125,19.9063 33.6281,20.0313 33.6281,20.4688 L33.6281,21.8906 C33.6281,22.3125 33.5969,22.5 33.4875,22.6563 C33.3156,22.875 33.05,23.0156 32.7844,23.0156 C32.5656,23.0156 32.3313,22.9063 32.1906,22.7656 C32.05,22.6406 32.0188,22.5156 31.9563,22.1094 C31.8625,21.7031 31.6906,21.4844 31.2063,21.2031 C30.7375,20.9531 30.1281,20.7969 29.55,20.7969 C27.8156,20.7969 26.5656,22.1094 26.5656,23.8906 L26.5656,24.9844 C26.5656,26.6875 27.8625,27.7813 29.9094,27.7813 C30.675,27.7813 31.3625,27.6563 31.7844,27.3906 C31.9719,27.2969 31.9719,27.2969 32.425,26.8125 C32.6125,26.625 32.8156,26.5469 33.0344,26.5469 C33.5031,26.5469 33.8938,26.9375 33.8938,27.3906 C33.8938,27.7813 33.5656,28.2344 32.9875,28.6406 C32.2375,29.1875 31.0813,29.4844 29.8625,29.4844 C26.9719,29.4844 24.8625,27.5938 24.8625,25.0156 L24.8625,23.8906 C24.8625,21.1719 26.8625,19.0938 29.4875,19.0938 C30.3625,19.0938 30.9563,19.2344 31.8938,19.6719 Z "/><text fill="#000000" font-family="sans-serif" font-size="12" lengthAdjust="spacingAndGlyphs" textLength="23" x="45.45" y="28.1543">Foo</text><line style="stroke: #A80036; stroke-width: 1.5;" x1="7" x2="79" y1="40" y2="40"/><text fill="#000000" font-family="sans-serif" font-size="11" lengthAdjust="spacingAndGlyphs" textLength="62" x="12" y="54.2104">Bar: String</text><line style="stroke: #A80036; stroke-width: 1.5;" x1="7" x2="79" y1="60.8047" y2="60.8047"/><!--
@startuml
class "Foo" as Foo  {
	Bar: String 
}
@enduml

PlantUML version 1.2019.05beta2(Unknown compile time)
(GPL source distribution)
Java Runtime: Java(TM) SE Runtime Environment
JVM: Java HotSpot(TM) 64-Bit Server VM
Java Version: 1.7.0_25-b15
Operating System: Linux
Default Encoding: UTF-8
Language: en
Country: US
--></g></svg>