<?xml version="1.0" encoding="UTF-8" standalone="no"?><svg xmlns="http://www.w3.org/2000/svg" xmlns:xlink="http://www.w3.org/1999/xlink" contentScriptType="application/ecmascript" contentStyleType="text/css" height="407px" preserveAspectRatio="none" style="width:603px;height:407px;" version="1.1" viewBox="0 0 603 407" width="603px" zoomAndPan="magnify"><defs><filter height="300%" id="f1q5ljjibf3g9e" width="300%" x="-1" y="-1"><feGaussianBlur result="blurOut" stdDeviation="2.0"/><feColorMatrix in="blurOut" result="blurOut2" type="matrix" values="0 0 0 0 0 0 0 0 0 0 0 0 0 0 0 0 0 0 .4 0"/><feOffset dx="4.0" dy="4.0" in="blurOut2" result="blurOut3"/><feBlend in="SourceGraphic" in2="blurOut3" mode="normal"/></filter></defs><g><!--class Response--><rect fill="#FEFECE" filter="url(#f1q5ljjibf3g9e)" height="60.8047" id="Response" style="stroke: #A80036; stroke-width: 1.5;" width="106" x="6" y="14.5"/><ellipse cx="21" cy="30.5" fill="#DA70D6" rx="11" ry="11" style="stroke: #A80036; stroke-width: 1.0;"/><path d="M21.4375,28.0313 L21.4375,34.5469 L22.5625,34.5469 C23.0156,34.5469 23.1563,34.5781 23.3125,34.7031 C23.5469,34.875 23.6719,35.125 23.6719,35.4063 C23.6719,35.6875 23.5313,35.9844 23.2656,36.125 C23.1563,36.2031 22.8906,36.25 22.5625,36.25 L18.625,36.25 C18.2344,36.25 18.0156,36.2031 17.8594,36.0781 C17.6406,35.9219 17.5,35.6563 17.5,35.4063 C17.5,35.1094 17.6563,34.8281 17.9063,34.6719 C18.0625,34.5625 18.1875,34.5469 18.625,34.5469 L19.7344,34.5469 L19.7344,28.0313 L17.9063,28.0313 L17.9063,29.625 C17.9063,30.0781 17.875,30.2188 17.7656,30.3906 C17.5938,30.6094 17.3438,30.7344 17.0625,30.7344 C16.7813,30.7344 16.4844,30.5938 16.3281,30.3281 C16.25,30.1875 16.2188,30.0156 16.2188,29.625 L16.2188,26.3438 L24.9844,26.3438 L24.9844,29.625 C24.9844,30.0938 24.9688,30.2188 24.8281,30.3906 C24.6563,30.6094 24.4063,30.7344 24.1406,30.7344 C23.8438,30.7344 23.5625,30.5781 23.4063,30.3281 C23.3125,30.1875 23.2813,30.0156 23.2813,29.625 L23.2813,28.0313 Z "/><text fill="#000000" font-family="sans-serif" font-size="12" lengthAdjust="spacingAndGlyphs" textLength="74" x="35" y="34.6543">Response a</text><line style="stroke: #A80036; stroke-width: 1.5;" x1="7" x2="111" y1="46.5" y2="46.5"/><text fill="#000000" font-family="sans-serif" font-size="11" lengthAdjust="spacingAndGlyphs" textLength="43" x="12" y="60.7104">Body: a</text><line style="stroke: #A80036; stroke-width: 1.5;" x1="7" x2="111" y1="67.3047" y2="67.3047"/><!--class Customer--><rect fill="#FEFECE" filter="url(#f1q5ljjibf3g9e)" height="73.6094" id="Customer" style="stroke: #A80036; stroke-width: 1.5;" width="99" x="147.5" y="8"/><ellipse cx="165.65" cy="24" fill="#ADD1B2" rx="11" ry="11" style="stroke: #A80036; stroke-width: 1.0;"/><path d="M167.9938,19.6719 L168.1656,19.75 C168.3844,19.4375 168.5875,19.3438 168.8844,19.3438 C169.1813,19.3438 169.4625,19.4844 169.6188,19.75 C169.7125,19.9063 169.7281,20.0313 169.7281,20.4688 L169.7281,21.8906 C169.7281,22.3125 169.6969,22.5 169.5875,22.6563 C169.4156,22.875 169.15,23.0156 168.8844,23.0156 C168.6656,23.0156 168.4313,22.9063 168.2906,22.7656 C168.15,22.6406 168.1188,22.5156 168.0563,22.1094 C167.9625,21.7031 167.7906,21.4844 167.3063,21.2031 C166.8375,20.9531 166.2281,20.7969 165.65,20.7969 C163.9156,20.7969 162.6656,22.1094 162.6656,23.8906 L162.6656,24.9844 C162.6656,26.6875 163.9625,27.7813 166.0094,27.7813 C166.775,27.7813 167.4625,27.6563 167.8844,27.3906 C168.0719,27.2969 168.0719,27.2969 168.525,26.8125 C168.7125,26.625 168.9156,26.5469 169.1344,26.5469 C169.6031,26.5469 169.9938,26.9375 169.9938,27.3906 C169.9938,27.7813 169.6656,28.2344 169.0875,28.6406 C168.3375,29.1875 167.1813,29.4844 165.9625,29.4844 C163.0719,29.4844 160.9625,27.5938 160.9625,25.0156 L160.9625,23.8906 C160.9625,21.1719 162.9625,19.0938 165.5875,19.0938 C166.4625,19.0938 167.0563,19.2344 167.9938,19.6719 Z "/><text fill="#000000" font-family="sans-serif" font-size="12" lengthAdjust="spacingAndGlyphs" textLength="60" x="180.35" y="28.1543">Customer</text><line style="stroke: #A80036; stroke-width: 1.5;" x1="148.5" x2="245.5" y1="40" y2="40"/><text fill="#000000" font-family="sans-serif" font-size="11" lengthAdjust="spacingAndGlyphs" textLength="75" x="153.5" y="54.2104">Name: String</text><text fill="#000000" font-family="sans-serif" font-size="11" lengthAdjust="spacingAndGlyphs" textLength="87" x="153.5" y="67.0151">Number: String</text><line style="stroke: #A80036; stroke-width: 1.5;" x1="148.5" x2="245.5" y1="73.6094" y2="73.6094"/><!--class CustomerResponse--><rect fill="#FEFECE" filter="url(#f1q5ljjibf3g9e)" height="60.8047" id="CustomerResponse" style="stroke: #A80036; stroke-width: 1.5;" width="158" x="15" y="165.5"/><ellipse cx="30" cy="181.5" fill="#ADD1B2" rx="11" ry="11" style="stroke: #A80036; stroke-width: 1.0;"/><path d="M32.3438,177.1719 L32.5156,177.25 C32.7344,176.9375 32.9375,176.8438 33.2344,176.8438 C33.5313,176.8438 33.8125,176.9844 33.9688,177.25 C34.0625,177.4063 34.0781,177.5313 34.0781,177.9688 L34.0781,179.3906 C34.0781,179.8125 34.0469,180 33.9375,180.1563 C33.7656,180.375 33.5,180.5156 33.2344,180.5156 C33.0156,180.5156 32.7813,180.4063 32.6406,180.2656 C32.5,180.1406 32.4688,180.0156 32.4063,179.6094 C32.3125,179.2031 32.1406,178.9844 31.6563,178.7031 C31.1875,178.4531 30.5781,178.2969 30,178.2969 C28.2656,178.2969 27.0156,179.6094 27.0156,181.3906 L27.0156,182.4844 C27.0156,184.1875 28.3125,185.2813 30.3594,185.2813 C31.125,185.2813 31.8125,185.1563 32.2344,184.8906 C32.4219,184.7969 32.4219,184.7969 32.875,184.3125 C33.0625,184.125 33.2656,184.0469 33.4844,184.0469 C33.9531,184.0469 34.3438,184.4375 34.3438,184.8906 C34.3438,185.2813 34.0156,185.7344 33.4375,186.1406 C32.6875,186.6875 31.5313,186.9844 30.3125,186.9844 C27.4219,186.9844 25.3125,185.0938 25.3125,182.5156 L25.3125,181.3906 C25.3125,178.6719 27.3125,176.5938 29.9375,176.5938 C30.8125,176.5938 31.4063,176.7344 32.3438,177.1719 Z "/><text fill="#000000" font-family="sans-serif" font-size="12" lengthAdjust="spacingAndGlyphs" textLength="122" x="44" y="185.6543">CustomerResponse</text><line style="stroke: #A80036; stroke-width: 1.5;" x1="16" x2="172" y1="197.5" y2="197.5"/><text fill="#000000" font-family="sans-serif" font-size="11" lengthAdjust="spacingAndGlyphs" textLength="92" x="21" y="211.7104">Body: Customer</text><line style="stroke: #A80036; stroke-width: 1.5;" x1="16" x2="172" y1="218.3047" y2="218.3047"/><!--class Error--><rect fill="#FEFECE" filter="url(#f1q5ljjibf3g9e)" height="73.6094" id="Error" style="stroke: #A80036; stroke-width: 1.5;" width="105" x="314.5" y="8"/><ellipse cx="348.4" cy="24" fill="#ADD1B2" rx="11" ry="11" style="stroke: #A80036; stroke-width: 1.0;"/><path d="M350.7438,19.6719 L350.9156,19.75 C351.1344,19.4375 351.3375,19.3438 351.6344,19.3438 C351.9313,19.3438 352.2125,19.4844 352.3688,19.75 C352.4625,19.9063 352.4781,20.0313 352.4781,20.4688 L352.4781,21.8906 C352.4781,22.3125 352.4469,22.5 352.3375,22.6563 C352.1656,22.875 351.9,23.0156 351.6344,23.0156 C351.4156,23.0156 351.1813,22.9063 351.0406,22.7656 C350.9,22.6406 350.8688,22.5156 350.8063,22.1094 C350.7125,21.7031 350.5406,21.4844 350.0563,21.2031 C349.5875,20.9531 348.9781,20.7969 348.4,20.7969 C346.6656,20.7969 345.4156,22.1094 345.4156,23.8906 L345.4156,24.9844 C345.4156,26.6875 346.7125,27.7813 348.7594,27.7813 C349.525,27.7813 350.2125,27.6563 350.6344,27.3906 C350.8219,27.2969 350.8219,27.2969 351.275,26.8125 C351.4625,26.625 351.6656,26.5469 351.8844,26.5469 C352.3531,26.5469 352.7438,26.9375 352.7438,27.3906 C352.7438,27.7813 352.4156,28.2344 351.8375,28.6406 C351.0875,29.1875 349.9313,29.4844 348.7125,29.4844 C345.8219,29.4844 343.7125,27.5938 343.7125,25.0156 L343.7125,23.8906 C343.7125,21.1719 345.7125,19.0938 348.3375,19.0938 C349.2125,19.0938 349.8063,19.2344 350.7438,19.6719 Z "/><text fill="#000000" font-family="sans-serif" font-size="12" lengthAdjust="spacingAndGlyphs" textLength="31" x="366.6" y="28.1543">Error</text><line style="stroke: #A80036; stroke-width: 1.5;" x1="315.5" x2="418.5" y1="40" y2="40"/><text fill="#000000" font-family="sans-serif" font-size="11" lengthAdjust="spacingAndGlyphs" textLength="71" x="320.5" y="54.2104">Code: String</text><text fill="#000000" font-family="sans-serif" font-size="11" lengthAdjust="spacingAndGlyphs" textLength="93" x="320.5" y="67.0151">Message: String</text><line style="stroke: #A80036; stroke-width: 1.5;" x1="315.5" x2="418.5" y1="73.6094" y2="73.6094"/><!--class NotFound--><rect fill="#FEFECE" filter="url(#f1q5ljjibf3g9e)" height="73.6094" id="NotFound" style="stroke: #A80036; stroke-width: 1.5;" width="173" x="208.5" y="159"/><ellipse cx="241.95" cy="175" fill="#ADD1B2" rx="11" ry="11" style="stroke: #A80036; stroke-width: 1.0;"/><path d="M244.2938,170.6719 L244.4656,170.75 C244.6844,170.4375 244.8875,170.3438 245.1844,170.3438 C245.4813,170.3438 245.7625,170.4844 245.9188,170.75 C246.0125,170.9063 246.0281,171.0313 246.0281,171.4688 L246.0281,172.8906 C246.0281,173.3125 245.9969,173.5 245.8875,173.6563 C245.7156,173.875 245.45,174.0156 245.1844,174.0156 C244.9656,174.0156 244.7313,173.9063 244.5906,173.7656 C244.45,173.6406 244.4188,173.5156 244.3563,173.1094 C244.2625,172.7031 244.0906,172.4844 243.6063,172.2031 C243.1375,171.9531 242.5281,171.7969 241.95,171.7969 C240.2156,171.7969 238.9656,173.1094 238.9656,174.8906 L238.9656,175.9844 C238.9656,177.6875 240.2625,178.7813 242.3094,178.7813 C243.075,178.7813 243.7625,178.6563 244.1844,178.3906 C244.3719,178.2969 244.3719,178.2969 244.825,177.8125 C245.0125,177.625 245.2156,177.5469 245.4344,177.5469 C245.9031,177.5469 246.2938,177.9375 246.2938,178.3906 C246.2938,178.7813 245.9656,179.2344 245.3875,179.6406 C244.6375,180.1875 243.4813,180.4844 242.2625,180.4844 C239.3719,180.4844 237.2625,178.5938 237.2625,176.0156 L237.2625,174.8906 C237.2625,172.1719 239.2625,170.0938 241.8875,170.0938 C242.7625,170.0938 243.3563,170.2344 244.2938,170.6719 Z "/><text fill="#000000" font-family="sans-serif" font-size="12" lengthAdjust="spacingAndGlyphs" textLength="61" x="260.05" y="179.1543">NotFound</text><rect fill="#FFFFFF" height="15.9688" style="stroke: #000000; stroke-width: 1.0; stroke-dasharray: 2.0,2.0;" width="33" x="351.5" y="156"/><text fill="#000000" font-family="sans-serif" font-size="12" font-style="italic" lengthAdjust="spacingAndGlyphs" textLength="31" x="352.5" y="168.1387">Error</text><line style="stroke: #A80036; stroke-width: 1.5;" x1="209.5" x2="380.5" y1="191" y2="191"/><text fill="#000000" font-family="sans-serif" font-size="11" lengthAdjust="spacingAndGlyphs" textLength="71" x="214.5" y="205.2104">Code: String</text><text fill="#000000" font-family="sans-serif" font-size="11" font-style="italic" lengthAdjust="spacingAndGlyphs" textLength="60" x="293.5" y="205.2104">from Error</text><text fill="#000000" font-family="sans-serif" font-size="11" lengthAdjust="spacingAndGlyphs" textLength="93" x="214.5" y="218.0151">Message: String</text><text fill="#000000" font-family="sans-serif" font-size="11" font-style="italic" lengthAdjust="spacingAndGlyphs" textLength="60" x="315.5" y="218.0151">from Error</text><line style="stroke: #A80036; stroke-width: 1.5;" x1="209.5" x2="380.5" y1="224.6094" y2="224.6094"/><!--class OtherError--><rect fill="#FEFECE" filter="url(#f1q5ljjibf3g9e)" height="73.6094" id="OtherError" style="stroke: #A80036; stroke-width: 1.5;" width="173" x="416.5" y="159"/><ellipse cx="447.7" cy="175" fill="#ADD1B2" rx="11" ry="11" style="stroke: #A80036; stroke-width: 1.0;"/><path d="M450.0438,170.6719 L450.2156,170.75 C450.4344,170.4375 450.6375,170.3438 450.9344,170.3438 C451.2313,170.3438 451.5125,170.4844 451.6688,170.75 C451.7625,170.9063 451.7781,171.0313 451.7781,171.4688 L451.7781,172.8906 C451.7781,173.3125 451.7469,173.5 451.6375,173.6563 C451.4656,173.875 451.2,174.0156 450.9344,174.0156 C450.7156,174.0156 450.4813,173.9063 450.3406,173.7656 C450.2,173.6406 450.1688,173.5156 450.1063,173.1094 C450.0125,172.7031 449.8406,172.4844 449.3563,172.2031 C448.8875,171.9531 448.2781,171.7969 447.7,171.7969 C445.9656,171.7969 444.7156,173.1094 444.7156,174.8906 L444.7156,175.9844 C444.7156,177.6875 446.0125,178.7813 448.0594,178.7813 C448.825,178.7813 449.5125,178.6563 449.9344,178.3906 C450.1219,178.2969 450.1219,178.2969 450.575,177.8125 C450.7625,177.625 450.9656,177.5469 451.1844,177.5469 C451.6531,177.5469 452.0438,177.9375 452.0438,178.3906 C452.0438,178.7813 451.7156,179.2344 451.1375,179.6406 C450.3875,180.1875 449.2313,180.4844 448.0125,180.4844 C445.1219,180.4844 443.0125,178.5938 443.0125,176.0156 L443.0125,174.8906 C443.0125,172.1719 445.0125,170.0938 447.6375,170.0938 C448.5125,170.0938 449.1063,170.2344 450.0438,170.6719 Z "/><text fill="#000000" font-family="sans-serif" font-size="12" lengthAdjust="spacingAndGlyphs" textLength="66" x="465.3" y="179.1543">OtherError</text><rect fill="#FFFFFF" height="15.9688" style="stroke: #000000; stroke-width: 1.0; stroke-dasharray: 2.0,2.0;" width="33" x="559.5" y="156"/><text fill="#000000" font-family="sans-serif" font-size="12" font-style="italic" lengthAdjust="spacingAndGlyphs" textLength="31" x="560.5" y="168.1387">Error</text><line style="stroke: #A80036; stroke-width: 1.5;" x1="417.5" x2="588.5" y1="191" y2="191"/><text fill="#000000" font-family="sans-serif" font-size="11" lengthAdjust="spacingAndGlyphs" textLength="71" x="422.5" y="205.2104">Code: String</text><text fill="#000000" font-family="sans-serif" font-size="11" font-style="italic" lengthAdjust="spacingAndGlyphs" textLength="60" x="501.5" y="205.2104">from Error</text><text fill="#000000" font-family="sans-serif" font-size="11" lengthAdjust="spacingAndGlyphs" textLength="93" x="422.5" y="218.0151">Message: String</text><text fill="#000000" font-family="sans-serif" font-size="11" font-style="italic" lengthAdjust="spacingAndGlyphs" textLength="60" x="523.5" y="218.0151">from Error</text><line style="stroke: #A80036; stroke-width: 1.5;" x1="417.5" x2="588.5" y1="224.6094" y2="224.6094"/><!--class ApiResponse--><rect fill="#FEFECE" filter="url(#f1q5ljjibf3g9e)" height="86.4141" id="ApiResponse" style="stroke: #A80036; stroke-width: 1.5;" width="124" x="233" y="310"/><ellipse cx="253.85" cy="326" fill="#A9DCDF" rx="11" ry="11" style="stroke: #A80036; stroke-width: 1.0;"/><path d="M255.4281,327.8125 L251.3813,327.8125 L250.9906,328.7969 L251.3813,328.7969 C251.8344,328.7969 251.975,328.8281 252.1469,328.9531 C252.3656,329.125 252.4906,329.375 252.4906,329.6563 C252.4906,329.9375 252.35,330.2344 252.0844,330.375 C251.9594,330.4688 251.7406,330.5 251.3813,330.5 L249.1156,330.5 C248.3656,330.5 247.9906,330.2188 247.9906,329.6563 C247.9906,329.3594 248.1469,329.0781 248.3969,328.9219 C248.5531,328.8125 248.7094,328.7969 249.1313,328.7969 L251.7719,322.2813 L250.6938,322.2813 C250.2563,322.2813 250.0844,322.25 249.9125,322.1406 C249.6938,321.9688 249.5531,321.7188 249.5531,321.4375 C249.5531,321.1563 249.7094,320.875 249.9594,320.7031 C250.1156,320.6094 250.2406,320.5938 250.6938,320.5938 L254.3656,320.5938 L257.7563,328.7969 C258.225,328.7969 258.3813,328.8281 258.5531,328.9688 C258.7719,329.125 258.9125,329.375 258.9125,329.6563 C258.9125,329.9375 258.7563,330.2344 258.5063,330.375 C258.3656,330.4688 258.1469,330.5 257.7875,330.5 L255.4281,330.5 C255.0063,330.5 254.8031,330.4531 254.6625,330.3281 C254.4438,330.1719 254.3031,329.9219 254.3031,329.6563 C254.3031,329.3594 254.4594,329.0781 254.7094,328.9219 C254.8656,328.8125 254.975,328.7969 255.4281,328.7969 L255.8188,328.7969 Z M254.725,326.1094 L253.3969,322.8438 L252.0531,326.1094 Z "/><text fill="#000000" font-family="sans-serif" font-size="12" font-style="italic" lengthAdjust="spacingAndGlyphs" textLength="79" x="269.15" y="330.1543">ApiResponse</text><line style="stroke: #A80036; stroke-width: 1.5;" x1="234" x2="356" y1="342" y2="342"/><text fill="#000000" font-family="sans-serif" font-size="11" lengthAdjust="spacingAndGlyphs" textLength="112" x="239" y="356.2104">CustomerResponse</text><text fill="#000000" font-family="sans-serif" font-size="11" lengthAdjust="spacingAndGlyphs" textLength="53" x="239" y="369.0151">NotFound</text><text fill="#000000" font-family="sans-serif" font-size="11" lengthAdjust="spacingAndGlyphs" textLength="61" x="239" y="381.8198">OtherError</text><line style="stroke: #A80036; stroke-width: 1.5;" x1="234" x2="356" y1="388.4141" y2="388.4141"/><!--link Customer to CustomerResponse--><path d="M172.067,82.069 C155.476,106.069 133.82,137.396 117.527,160.966 " fill="none" id="Customer-CustomerResponse" style="stroke: #A80036; stroke-width: 1.0;"/><polygon fill="#A80036" points="114.55,165.273,122.9579,160.1439,117.393,161.1599,116.377,155.5951,114.55,165.273" style="stroke: #A80036; stroke-width: 1.0;"/><text fill="#000000" font-family="sans-serif" font-size="13" lengthAdjust="spacingAndGlyphs" textLength="32" x="150" y="125.0669">Body</text><!--link Response to CustomerResponse--><path d="M69.0376,88.731 C74.7899,113.22 81.8659,143.343 87.0135,165.257 " fill="none" id="Response-CustomerResponse" style="stroke: #A80036; stroke-width: 1.0;"/><polygon fill="#A80036" points="65.9987,75.794,63.4768,82.5497,68.7429,87.476,71.2648,80.7203,65.9987,75.794" style="stroke: #A80036; stroke-width: 1.0;"/><text fill="#000000" font-family="sans-serif" font-size="13" lengthAdjust="spacingAndGlyphs" textLength="37" x="79" y="125.0669">ALIAS</text><!--link Error to NotFound--><path d="M340.77,100.282 C331.367,119.74 321.003,141.188 312.518,158.747 " fill="none" id="Error-NotFound" style="stroke: #A80036; stroke-width: 1.0;"/><polygon fill="none" points="334.566,97.031,349.571,82.069,347.172,103.122,334.566,97.031" style="stroke: #A80036; stroke-width: 1.0;"/><!--link Error to OtherError--><path d="M413.528,96.976 C432.063,117.282 452.97,140.187 469.91,158.747 " fill="none" id="Error-OtherError" style="stroke: #A80036; stroke-width: 1.0;"/><polygon fill="none" points="408.235,101.56,399.922,82.069,418.575,92.122,408.235,101.56" style="stroke: #A80036; stroke-width: 1.0;"/><!--link CustomerResponse to ApiResponse--><path d="M113.14,226.792 C125.135,243.844 141.752,264.801 160,280 C178.256,295.205 200.234,308.5743 221.106,319.5346 " fill="none" id="CustomerResponse-ApiResponse" style="stroke: #A80036; stroke-width: 1.0;"/><polygon fill="#A80036" points="232.892,325.538,229.3616,319.2502,222.1996,320.0907,225.73,326.3785,232.892,325.538" style="stroke: #A80036; stroke-width: 1.0;"/><text fill="#000000" font-family="sans-serif" font-size="13" lengthAdjust="spacingAndGlyphs" textLength="125" x="161" y="276.0669">CustomerResponse</text><!--link NotFound to ApiResponse--><path d="M295,233.341 C295,252.221 295,275.692 295,296.7636 " fill="none" id="NotFound-ApiResponse" style="stroke: #A80036; stroke-width: 1.0;"/><polygon fill="#A80036" points="295,309.8503,299,303.8503,295,297.8503,291,303.8503,295,309.8503" style="stroke: #A80036; stroke-width: 1.0;"/><text fill="#000000" font-family="sans-serif" font-size="13" lengthAdjust="spacingAndGlyphs" textLength="62" x="296" y="276.0669">NotFound</text><!--link OtherError to ApiResponse--><path d="M454.496,233.145 C427.126,253.541 392.504,279.341 362.516,301.6877 " fill="none" id="OtherError-ApiResponse" style="stroke: #A80036; stroke-width: 1.0;"/><polygon fill="#A80036" points="351.699,309.748,358.9002,309.3706,361.3215,302.5781,354.1203,302.9556,351.699,309.748" style="stroke: #A80036; stroke-width: 1.0;"/><text fill="#000000" font-family="sans-serif" font-size="13" lengthAdjust="spacingAndGlyphs" textLength="67" x="412" y="276.0669">OtherError</text><!--
@startuml
class "Response a" as Response << (T,orchid) >> {
	Body: a 
}
class "Customer" as Customer  {
	Name: String 
	Number: String 
}
class "CustomerResponse " as CustomerResponse  {
	Body: Customer 
}
Customer - -> CustomerResponse : Body
Response *- - CustomerResponse: ALIAS
class "Error" as Error  {
	Code: String 
	Message: String 
}
class "NotFound " as NotFound <Error> {
	Code: String  <i>from Error</i>
	Message: String  <i>from Error</i>
}
Error <|- - NotFound
class "OtherError " as OtherError <Error> {
	Code: String  <i>from Error</i>
	Message: String  <i>from Error</i>
}
Error <|- - OtherError
abstract "ApiResponse" as ApiResponse {
	CustomerResponse 
	NotFound 
	OtherError 
}
CustomerResponse - -* ApiResponse : CustomerResponse
NotFound - -* ApiResponse : NotFound
OtherError - -* ApiResponse : OtherError
@enduml

PlantUML version 1.2019.07beta1(Unknown compile time)
(GPL source distribution)
Java Runtime: Java(TM) SE Runtime Environment
JVM: Java HotSpot(TM) 64-Bit Server VM
Java Version: 1.7.0_25-b15
Operating System: Linux
Default Encoding: UTF-8
Language: en
Country: US
--></g></svg>