<?xml version="1.0" encoding="UTF-8" standalone="no"?><svg xmlns="http://www.w3.org/2000/svg" xmlns:xlink="http://www.w3.org/1999/xlink" contentScriptType="application/ecmascript" contentStyleType="text/css" height="596px" preserveAspectRatio="none" style="width:594px;height:596px;" version="1.1" viewBox="0 0 594 596" width="594px" zoomAndPan="magnify"><defs><filter height="300%" id="f1g9yoqx9ch7ar" width="300%" x="-1" y="-1"><feGaussianBlur result="blurOut" stdDeviation="2.0"/><feColorMatrix in="blurOut" result="blurOut2" type="matrix" values="0 0 0 0 0 0 0 0 0 0 0 0 0 0 0 0 0 0 .4 0"/><feOffset dx="4.0" dy="4.0" in="blurOut2" result="blurOut3"/><feBlend in="SourceGraphic" in2="blurOut3" mode="normal"/></filter></defs><g><!--class Response--><rect fill="#FEFECE" filter="url(#f1g9yoqx9ch7ar)" height="60.8047" id="Response" style="stroke: #A80036; stroke-width: 1.5;" width="106" x="17" y="178"/><ellipse cx="32" cy="194" fill="#DA70D6" rx="11" ry="11" style="stroke: #A80036; stroke-width: 1.0;"/><path d="M32.4375,191.5313 L32.4375,198.0469 L33.5625,198.0469 C34.0156,198.0469 34.1563,198.0781 34.3125,198.2031 C34.5469,198.375 34.6719,198.625 34.6719,198.9063 C34.6719,199.1875 34.5313,199.4844 34.2656,199.625 C34.1563,199.7031 33.8906,199.75 33.5625,199.75 L29.625,199.75 C29.2344,199.75 29.0156,199.7031 28.8594,199.5781 C28.6406,199.4219 28.5,199.1563 28.5,198.9063 C28.5,198.6094 28.6563,198.3281 28.9063,198.1719 C29.0625,198.0625 29.1875,198.0469 29.625,198.0469 L30.7344,198.0469 L30.7344,191.5313 L28.9063,191.5313 L28.9063,193.125 C28.9063,193.5781 28.875,193.7188 28.7656,193.8906 C28.5938,194.1094 28.3438,194.2344 28.0625,194.2344 C27.7813,194.2344 27.4844,194.0938 27.3281,193.8281 C27.25,193.6875 27.2188,193.5156 27.2188,193.125 L27.2188,189.8438 L35.9844,189.8438 L35.9844,193.125 C35.9844,193.5938 35.9688,193.7188 35.8281,193.8906 C35.6563,194.1094 35.4063,194.2344 35.1406,194.2344 C34.8438,194.2344 34.5625,194.0781 34.4063,193.8281 C34.3125,193.6875 34.2813,193.5156 34.2813,193.125 L34.2813,191.5313 Z "/><text fill="#000000" font-family="sans-serif" font-size="12" lengthAdjust="spacingAndGlyphs" textLength="74" x="46" y="198.1543">Response a</text><line style="stroke: #A80036; stroke-width: 1.5;" x1="18" x2="122" y1="210" y2="210"/><text fill="#000000" font-family="sans-serif" font-size="11" lengthAdjust="spacingAndGlyphs" textLength="43" x="23" y="224.2104">Body: a</text><line style="stroke: #A80036; stroke-width: 1.5;" x1="18" x2="122" y1="230.8047" y2="230.8047"/><!--class Address--><rect fill="#FEFECE" filter="url(#f1g9yoqx9ch7ar)" height="60.8047" id="Address" style="stroke: #A80036; stroke-width: 1.5;" width="89" x="198.5" y="8"/><ellipse cx="216.2" cy="24" fill="#ADD1B2" rx="11" ry="11" style="stroke: #A80036; stroke-width: 1.0;"/><path d="M218.5438,19.6719 L218.7156,19.75 C218.9344,19.4375 219.1375,19.3438 219.4344,19.3438 C219.7313,19.3438 220.0125,19.4844 220.1688,19.75 C220.2625,19.9063 220.2781,20.0313 220.2781,20.4688 L220.2781,21.8906 C220.2781,22.3125 220.2469,22.5 220.1375,22.6563 C219.9656,22.875 219.7,23.0156 219.4344,23.0156 C219.2156,23.0156 218.9813,22.9063 218.8406,22.7656 C218.7,22.6406 218.6688,22.5156 218.6063,22.1094 C218.5125,21.7031 218.3406,21.4844 217.8563,21.2031 C217.3875,20.9531 216.7781,20.7969 216.2,20.7969 C214.4656,20.7969 213.2156,22.1094 213.2156,23.8906 L213.2156,24.9844 C213.2156,26.6875 214.5125,27.7813 216.5594,27.7813 C217.325,27.7813 218.0125,27.6563 218.4344,27.3906 C218.6219,27.2969 218.6219,27.2969 219.075,26.8125 C219.2625,26.625 219.4656,26.5469 219.6844,26.5469 C220.1531,26.5469 220.5438,26.9375 220.5438,27.3906 C220.5438,27.7813 220.2156,28.2344 219.6375,28.6406 C218.8875,29.1875 217.7313,29.4844 216.5125,29.4844 C213.6219,29.4844 211.5125,27.5938 211.5125,25.0156 L211.5125,23.8906 C211.5125,21.1719 213.5125,19.0938 216.1375,19.0938 C217.0125,19.0938 217.6063,19.2344 218.5438,19.6719 Z "/><text fill="#000000" font-family="sans-serif" font-size="12" lengthAdjust="spacingAndGlyphs" textLength="51" x="230.8" y="28.1543">Address</text><line style="stroke: #A80036; stroke-width: 1.5;" x1="199.5" x2="286.5" y1="40" y2="40"/><text fill="#000000" font-family="sans-serif" font-size="11" lengthAdjust="spacingAndGlyphs" textLength="77" x="204.5" y="54.2104">Street: String</text><line style="stroke: #A80036; stroke-width: 1.5;" x1="199.5" x2="286.5" y1="60.8047" y2="60.8047"/><!--class Customer--><rect fill="#FEFECE" filter="url(#f1g9yoqx9ch7ar)" height="124.8281" id="Customer" style="stroke: #A80036; stroke-width: 1.5;" width="170" x="158" y="146"/><ellipse cx="208.75" cy="162" fill="#ADD1B2" rx="11" ry="11" style="stroke: #A80036; stroke-width: 1.0;"/><path d="M211.0938,157.6719 L211.2656,157.75 C211.4844,157.4375 211.6875,157.3438 211.9844,157.3438 C212.2813,157.3438 212.5625,157.4844 212.7188,157.75 C212.8125,157.9063 212.8281,158.0313 212.8281,158.4688 L212.8281,159.8906 C212.8281,160.3125 212.7969,160.5 212.6875,160.6563 C212.5156,160.875 212.25,161.0156 211.9844,161.0156 C211.7656,161.0156 211.5313,160.9063 211.3906,160.7656 C211.25,160.6406 211.2188,160.5156 211.1563,160.1094 C211.0625,159.7031 210.8906,159.4844 210.4063,159.2031 C209.9375,158.9531 209.3281,158.7969 208.75,158.7969 C207.0156,158.7969 205.7656,160.1094 205.7656,161.8906 L205.7656,162.9844 C205.7656,164.6875 207.0625,165.7813 209.1094,165.7813 C209.875,165.7813 210.5625,165.6563 210.9844,165.3906 C211.1719,165.2969 211.1719,165.2969 211.625,164.8125 C211.8125,164.625 212.0156,164.5469 212.2344,164.5469 C212.7031,164.5469 213.0938,164.9375 213.0938,165.3906 C213.0938,165.7813 212.7656,166.2344 212.1875,166.6406 C211.4375,167.1875 210.2813,167.4844 209.0625,167.4844 C206.1719,167.4844 204.0625,165.5938 204.0625,163.0156 L204.0625,161.8906 C204.0625,159.1719 206.0625,157.0938 208.6875,157.0938 C209.5625,157.0938 210.1563,157.2344 211.0938,157.6719 Z "/><text fill="#000000" font-family="sans-serif" font-size="12" lengthAdjust="spacingAndGlyphs" textLength="60" x="229.25" y="166.1543">Customer</text><line style="stroke: #A80036; stroke-width: 1.5;" x1="159" x2="327" y1="178" y2="178"/><text fill="#000000" font-family="sans-serif" font-size="11" lengthAdjust="spacingAndGlyphs" textLength="75" x="164" y="192.2104">Name: String</text><text fill="#000000" font-family="sans-serif" font-size="11" lengthAdjust="spacingAndGlyphs" textLength="87" x="164" y="205.0151">Number: String</text><text fill="#000000" font-family="sans-serif" font-size="11" lengthAdjust="spacingAndGlyphs" textLength="143" x="164" y="217.8198">CustomerNumber: String</text><text fill="#000000" font-family="sans-serif" font-size="11" lengthAdjust="spacingAndGlyphs" textLength="100" x="164" y="230.6245">DateOfBirth: Date</text><text fill="#000000" font-family="sans-serif" font-size="11" lengthAdjust="spacingAndGlyphs" textLength="158" x="164" y="243.4292">CustomerAddress: Address</text><line style="stroke: #A80036; stroke-width: 1.0;" x1="159" x2="327" y1="250.0234" y2="250.0234"/><line style="stroke: #A80036; stroke-width: 1.0;" x1="159" x2="327" y1="252.0234" y2="252.0234"/><text fill="#000000" font-family="sans-serif" font-size="11" font-weight="bold" lengthAdjust="spacingAndGlyphs" textLength="20" x="164" y="264.2339">api</text><text fill="#000000" font-family="sans-serif" font-size="11" lengthAdjust="spacingAndGlyphs" textLength="68" x="184" y="264.2339">: something</text><!--class CustomerResponse--><rect fill="#FEFECE" filter="url(#f1g9yoqx9ch7ar)" height="60.8047" id="CustomerResponse" style="stroke: #A80036; stroke-width: 1.5;" width="158" x="6" y="354.5"/><ellipse cx="21" cy="370.5" fill="#ADD1B2" rx="11" ry="11" style="stroke: #A80036; stroke-width: 1.0;"/><path d="M23.3438,366.1719 L23.5156,366.25 C23.7344,365.9375 23.9375,365.8438 24.2344,365.8438 C24.5313,365.8438 24.8125,365.9844 24.9688,366.25 C25.0625,366.4063 25.0781,366.5313 25.0781,366.9688 L25.0781,368.3906 C25.0781,368.8125 25.0469,369 24.9375,369.1563 C24.7656,369.375 24.5,369.5156 24.2344,369.5156 C24.0156,369.5156 23.7813,369.4063 23.6406,369.2656 C23.5,369.1406 23.4688,369.0156 23.4063,368.6094 C23.3125,368.2031 23.1406,367.9844 22.6563,367.7031 C22.1875,367.4531 21.5781,367.2969 21,367.2969 C19.2656,367.2969 18.0156,368.6094 18.0156,370.3906 L18.0156,371.4844 C18.0156,373.1875 19.3125,374.2813 21.3594,374.2813 C22.125,374.2813 22.8125,374.1563 23.2344,373.8906 C23.4219,373.7969 23.4219,373.7969 23.875,373.3125 C24.0625,373.125 24.2656,373.0469 24.4844,373.0469 C24.9531,373.0469 25.3438,373.4375 25.3438,373.8906 C25.3438,374.2813 25.0156,374.7344 24.4375,375.1406 C23.6875,375.6875 22.5313,375.9844 21.3125,375.9844 C18.4219,375.9844 16.3125,374.0938 16.3125,371.5156 L16.3125,370.3906 C16.3125,367.6719 18.3125,365.5938 20.9375,365.5938 C21.8125,365.5938 22.4063,365.7344 23.3438,366.1719 Z "/><text fill="#000000" font-family="sans-serif" font-size="12" lengthAdjust="spacingAndGlyphs" textLength="122" x="35" y="374.6543">CustomerResponse</text><line style="stroke: #A80036; stroke-width: 1.5;" x1="7" x2="163" y1="386.5" y2="386.5"/><text fill="#000000" font-family="sans-serif" font-size="11" lengthAdjust="spacingAndGlyphs" textLength="92" x="12" y="400.7104">Body: Customer</text><line style="stroke: #A80036; stroke-width: 1.5;" x1="7" x2="163" y1="407.3047" y2="407.3047"/><!--class Error--><rect fill="#FEFECE" filter="url(#f1g9yoqx9ch7ar)" height="73.6094" id="Error" style="stroke: #A80036; stroke-width: 1.5;" width="105" x="394.5" y="171.5"/><ellipse cx="428.4" cy="187.5" fill="#ADD1B2" rx="11" ry="11" style="stroke: #A80036; stroke-width: 1.0;"/><path d="M430.7438,183.1719 L430.9156,183.25 C431.1344,182.9375 431.3375,182.8438 431.6344,182.8438 C431.9313,182.8438 432.2125,182.9844 432.3688,183.25 C432.4625,183.4063 432.4781,183.5313 432.4781,183.9688 L432.4781,185.3906 C432.4781,185.8125 432.4469,186 432.3375,186.1563 C432.1656,186.375 431.9,186.5156 431.6344,186.5156 C431.4156,186.5156 431.1813,186.4063 431.0406,186.2656 C430.9,186.1406 430.8688,186.0156 430.8063,185.6094 C430.7125,185.2031 430.5406,184.9844 430.0563,184.7031 C429.5875,184.4531 428.9781,184.2969 428.4,184.2969 C426.6656,184.2969 425.4156,185.6094 425.4156,187.3906 L425.4156,188.4844 C425.4156,190.1875 426.7125,191.2813 428.7594,191.2813 C429.525,191.2813 430.2125,191.1563 430.6344,190.8906 C430.8219,190.7969 430.8219,190.7969 431.275,190.3125 C431.4625,190.125 431.6656,190.0469 431.8844,190.0469 C432.3531,190.0469 432.7438,190.4375 432.7438,190.8906 C432.7438,191.2813 432.4156,191.7344 431.8375,192.1406 C431.0875,192.6875 429.9313,192.9844 428.7125,192.9844 C425.8219,192.9844 423.7125,191.0938 423.7125,188.5156 L423.7125,187.3906 C423.7125,184.6719 425.7125,182.5938 428.3375,182.5938 C429.2125,182.5938 429.8063,182.7344 430.7438,183.1719 Z "/><text fill="#000000" font-family="sans-serif" font-size="12" lengthAdjust="spacingAndGlyphs" textLength="31" x="446.6" y="191.6543">Error</text><line style="stroke: #A80036; stroke-width: 1.5;" x1="395.5" x2="498.5" y1="203.5" y2="203.5"/><text fill="#000000" font-family="sans-serif" font-size="11" lengthAdjust="spacingAndGlyphs" textLength="71" x="400.5" y="217.7104">Code: String</text><text fill="#000000" font-family="sans-serif" font-size="11" lengthAdjust="spacingAndGlyphs" textLength="93" x="400.5" y="230.5151">Message: String</text><line style="stroke: #A80036; stroke-width: 1.5;" x1="395.5" x2="498.5" y1="237.1094" y2="237.1094"/><!--class NotFound--><rect fill="#FEFECE" filter="url(#f1g9yoqx9ch7ar)" height="73.6094" id="NotFound" style="stroke: #A80036; stroke-width: 1.5;" width="173" x="199.5" y="348"/><ellipse cx="232.95" cy="364" fill="#ADD1B2" rx="11" ry="11" style="stroke: #A80036; stroke-width: 1.0;"/><path d="M235.2938,359.6719 L235.4656,359.75 C235.6844,359.4375 235.8875,359.3438 236.1844,359.3438 C236.4813,359.3438 236.7625,359.4844 236.9188,359.75 C237.0125,359.9063 237.0281,360.0313 237.0281,360.4688 L237.0281,361.8906 C237.0281,362.3125 236.9969,362.5 236.8875,362.6563 C236.7156,362.875 236.45,363.0156 236.1844,363.0156 C235.9656,363.0156 235.7313,362.9063 235.5906,362.7656 C235.45,362.6406 235.4188,362.5156 235.3563,362.1094 C235.2625,361.7031 235.0906,361.4844 234.6063,361.2031 C234.1375,360.9531 233.5281,360.7969 232.95,360.7969 C231.2156,360.7969 229.9656,362.1094 229.9656,363.8906 L229.9656,364.9844 C229.9656,366.6875 231.2625,367.7813 233.3094,367.7813 C234.075,367.7813 234.7625,367.6563 235.1844,367.3906 C235.3719,367.2969 235.3719,367.2969 235.825,366.8125 C236.0125,366.625 236.2156,366.5469 236.4344,366.5469 C236.9031,366.5469 237.2938,366.9375 237.2938,367.3906 C237.2938,367.7813 236.9656,368.2344 236.3875,368.6406 C235.6375,369.1875 234.4813,369.4844 233.2625,369.4844 C230.3719,369.4844 228.2625,367.5938 228.2625,365.0156 L228.2625,363.8906 C228.2625,361.1719 230.2625,359.0938 232.8875,359.0938 C233.7625,359.0938 234.3563,359.2344 235.2938,359.6719 Z "/><text fill="#000000" font-family="sans-serif" font-size="12" lengthAdjust="spacingAndGlyphs" textLength="61" x="251.05" y="368.1543">NotFound</text><rect fill="#FFFFFF" height="15.9688" style="stroke: #000000; stroke-width: 1.0; stroke-dasharray: 2.0,2.0;" width="33" x="342.5" y="345"/><text fill="#000000" font-family="sans-serif" font-size="12" font-style="italic" lengthAdjust="spacingAndGlyphs" textLength="31" x="343.5" y="357.1387">Error</text><line style="stroke: #A80036; stroke-width: 1.5;" x1="200.5" x2="371.5" y1="380" y2="380"/><text fill="#000000" font-family="sans-serif" font-size="11" lengthAdjust="spacingAndGlyphs" textLength="71" x="205.5" y="394.2104">Code: String</text><text fill="#000000" font-family="sans-serif" font-size="11" font-style="italic" lengthAdjust="spacingAndGlyphs" textLength="60" x="284.5" y="394.2104">from Error</text><text fill="#000000" font-family="sans-serif" font-size="11" lengthAdjust="spacingAndGlyphs" textLength="93" x="205.5" y="407.0151">Message: String</text><text fill="#000000" font-family="sans-serif" font-size="11" font-style="italic" lengthAdjust="spacingAndGlyphs" textLength="60" x="306.5" y="407.0151">from Error</text><line style="stroke: #A80036; stroke-width: 1.5;" x1="200.5" x2="371.5" y1="413.6094" y2="413.6094"/><!--class OtherError--><rect fill="#FEFECE" filter="url(#f1g9yoqx9ch7ar)" height="73.6094" id="OtherError" style="stroke: #A80036; stroke-width: 1.5;" width="173" x="407.5" y="348"/><ellipse cx="438.7" cy="364" fill="#ADD1B2" rx="11" ry="11" style="stroke: #A80036; stroke-width: 1.0;"/><path d="M441.0438,359.6719 L441.2156,359.75 C441.4344,359.4375 441.6375,359.3438 441.9344,359.3438 C442.2313,359.3438 442.5125,359.4844 442.6688,359.75 C442.7625,359.9063 442.7781,360.0313 442.7781,360.4688 L442.7781,361.8906 C442.7781,362.3125 442.7469,362.5 442.6375,362.6563 C442.4656,362.875 442.2,363.0156 441.9344,363.0156 C441.7156,363.0156 441.4813,362.9063 441.3406,362.7656 C441.2,362.6406 441.1688,362.5156 441.1063,362.1094 C441.0125,361.7031 440.8406,361.4844 440.3563,361.2031 C439.8875,360.9531 439.2781,360.7969 438.7,360.7969 C436.9656,360.7969 435.7156,362.1094 435.7156,363.8906 L435.7156,364.9844 C435.7156,366.6875 437.0125,367.7813 439.0594,367.7813 C439.825,367.7813 440.5125,367.6563 440.9344,367.3906 C441.1219,367.2969 441.1219,367.2969 441.575,366.8125 C441.7625,366.625 441.9656,366.5469 442.1844,366.5469 C442.6531,366.5469 443.0438,366.9375 443.0438,367.3906 C443.0438,367.7813 442.7156,368.2344 442.1375,368.6406 C441.3875,369.1875 440.2313,369.4844 439.0125,369.4844 C436.1219,369.4844 434.0125,367.5938 434.0125,365.0156 L434.0125,363.8906 C434.0125,361.1719 436.0125,359.0938 438.6375,359.0938 C439.5125,359.0938 440.1063,359.2344 441.0438,359.6719 Z "/><text fill="#000000" font-family="sans-serif" font-size="12" lengthAdjust="spacingAndGlyphs" textLength="66" x="456.3" y="368.1543">OtherError</text><rect fill="#FFFFFF" height="15.9688" style="stroke: #000000; stroke-width: 1.0; stroke-dasharray: 2.0,2.0;" width="33" x="550.5" y="345"/><text fill="#000000" font-family="sans-serif" font-size="12" font-style="italic" lengthAdjust="spacingAndGlyphs" textLength="31" x="551.5" y="357.1387">Error</text><line style="stroke: #A80036; stroke-width: 1.5;" x1="408.5" x2="579.5" y1="380" y2="380"/><text fill="#000000" font-family="sans-serif" font-size="11" lengthAdjust="spacingAndGlyphs" textLength="71" x="413.5" y="394.2104">Code: String</text><text fill="#000000" font-family="sans-serif" font-size="11" font-style="italic" lengthAdjust="spacingAndGlyphs" textLength="60" x="492.5" y="394.2104">from Error</text><text fill="#000000" font-family="sans-serif" font-size="11" lengthAdjust="spacingAndGlyphs" textLength="93" x="413.5" y="407.0151">Message: String</text><text fill="#000000" font-family="sans-serif" font-size="11" font-style="italic" lengthAdjust="spacingAndGlyphs" textLength="60" x="514.5" y="407.0151">from Error</text><line style="stroke: #A80036; stroke-width: 1.5;" x1="408.5" x2="579.5" y1="413.6094" y2="413.6094"/><!--class ApiResponse--><rect fill="#FEFECE" filter="url(#f1g9yoqx9ch7ar)" height="86.4141" id="ApiResponse" style="stroke: #A80036; stroke-width: 1.5;" width="124" x="224" y="499"/><ellipse cx="244.85" cy="515" fill="#A9DCDF" rx="11" ry="11" style="stroke: #A80036; stroke-width: 1.0;"/><path d="M246.4281,516.8125 L242.3813,516.8125 L241.9906,517.7969 L242.3813,517.7969 C242.8344,517.7969 242.975,517.8281 243.1469,517.9531 C243.3656,518.125 243.4906,518.375 243.4906,518.6563 C243.4906,518.9375 243.35,519.2344 243.0844,519.375 C242.9594,519.4688 242.7406,519.5 242.3813,519.5 L240.1156,519.5 C239.3656,519.5 238.9906,519.2188 238.9906,518.6563 C238.9906,518.3594 239.1469,518.0781 239.3969,517.9219 C239.5531,517.8125 239.7094,517.7969 240.1313,517.7969 L242.7719,511.2813 L241.6938,511.2813 C241.2563,511.2813 241.0844,511.25 240.9125,511.1406 C240.6938,510.9688 240.5531,510.7188 240.5531,510.4375 C240.5531,510.1563 240.7094,509.875 240.9594,509.7031 C241.1156,509.6094 241.2406,509.5938 241.6938,509.5938 L245.3656,509.5938 L248.7563,517.7969 C249.225,517.7969 249.3813,517.8281 249.5531,517.9688 C249.7719,518.125 249.9125,518.375 249.9125,518.6563 C249.9125,518.9375 249.7563,519.2344 249.5063,519.375 C249.3656,519.4688 249.1469,519.5 248.7875,519.5 L246.4281,519.5 C246.0063,519.5 245.8031,519.4531 245.6625,519.3281 C245.4438,519.1719 245.3031,518.9219 245.3031,518.6563 C245.3031,518.3594 245.4594,518.0781 245.7094,517.9219 C245.8656,517.8125 245.975,517.7969 246.4281,517.7969 L246.8188,517.7969 Z M245.725,515.1094 L244.3969,511.8438 L243.0531,515.1094 Z "/><text fill="#000000" font-family="sans-serif" font-size="12" font-style="italic" lengthAdjust="spacingAndGlyphs" textLength="79" x="260.15" y="519.1543">ApiResponse</text><line style="stroke: #A80036; stroke-width: 1.5;" x1="225" x2="347" y1="531" y2="531"/><text fill="#000000" font-family="sans-serif" font-size="11" lengthAdjust="spacingAndGlyphs" textLength="112" x="230" y="545.2104">CustomerResponse</text><text fill="#000000" font-family="sans-serif" font-size="11" lengthAdjust="spacingAndGlyphs" textLength="53" x="230" y="558.0151">NotFound</text><text fill="#000000" font-family="sans-serif" font-size="11" lengthAdjust="spacingAndGlyphs" textLength="61" x="230" y="570.8198">OtherError</text><line style="stroke: #A80036; stroke-width: 1.5;" x1="225" x2="347" y1="577.4141" y2="577.4141"/><!--link Address to Customer--><path d="M243,69.148 C243,88.935 243,115.774 243,140.548 " fill="none" id="Address-Customer" style="stroke: #A80036; stroke-width: 1.0;"/><polygon fill="#A80036" points="243,145.799,247,136.799,243,140.799,239,136.799,243,145.799" style="stroke: #A80036; stroke-width: 1.0;"/><text fill="#000000" font-family="sans-serif" font-size="13" lengthAdjust="spacingAndGlyphs" textLength="115" x="244" y="112.0669">CustomerAddress</text><!--link Customer to CustomerResponse--><path d="M187.295,271.022 C163.107,297.736 135.719,327.985 115.373,350.455 " fill="none" id="Customer-CustomerResponse" style="stroke: #A80036; stroke-width: 1.0;"/><polygon fill="#A80036" points="111.914,354.275,120.9193,350.287,115.2695,350.5681,114.9883,344.9183,111.914,354.275" style="stroke: #A80036; stroke-width: 1.0;"/><text fill="#000000" font-family="sans-serif" font-size="13" lengthAdjust="spacingAndGlyphs" textLength="32" x="161" y="314.0669">Body</text><!--link Response to CustomerResponse--><path d="M73.685,252.369 C76.4045,284.005 80.036,326.252 82.443,354.253 " fill="none" id="Response-CustomerResponse" style="stroke: #A80036; stroke-width: 1.0;"/><polygon fill="#A80036" points="72.5445,239.102,69.0728,245.4224,73.5718,251.058,77.0434,244.7376,72.5445,239.102" style="stroke: #A80036; stroke-width: 1.0;"/><text fill="#000000" font-family="sans-serif" font-size="13" lengthAdjust="spacingAndGlyphs" textLength="37" x="81" y="314.0669">ALIAS</text><!--link Error to NotFound--><path d="M399.938,260.508 C374.078,288.536 342.621,322.632 319.317,347.89 " fill="none" id="Error-NotFound" style="stroke: #A80036; stroke-width: 1.0;"/><polygon fill="none" points="394.934,255.609,413.641,245.657,405.223,265.103,394.934,255.609" style="stroke: #A80036; stroke-width: 1.0;"/><!--link Error to OtherError--><path d="M462.011,265.233 C469.301,292.297 477.849,324.035 484.274,347.89 " fill="none" id="Error-OtherError" style="stroke: #A80036; stroke-width: 1.0;"/><polygon fill="none" points="455.181,266.789,456.738,245.657,468.699,263.148,455.181,266.789" style="stroke: #A80036; stroke-width: 1.0;"/><!--link CustomerResponse to ApiResponse--><path d="M104.1399,415.792 C116.135,432.844 132.752,453.801 151,469 C169.256,484.205 191.234,497.5743 212.106,508.5346 " fill="none" id="CustomerResponse-ApiResponse" style="stroke: #A80036; stroke-width: 1.0;"/><polygon fill="#A80036" points="223.892,514.538,220.3616,508.2502,213.1996,509.0907,216.73,515.3785,223.892,514.538" style="stroke: #A80036; stroke-width: 1.0;"/><text fill="#000000" font-family="sans-serif" font-size="13" lengthAdjust="spacingAndGlyphs" textLength="125" x="152" y="465.0669">CustomerResponse</text><!--link NotFound to ApiResponse--><path d="M286,422.341 C286,441.221 286,464.692 286,485.7636 " fill="none" id="NotFound-ApiResponse" style="stroke: #A80036; stroke-width: 1.0;"/><polygon fill="#A80036" points="286,498.8503,290,492.8503,286,486.8503,282,492.8503,286,498.8503" style="stroke: #A80036; stroke-width: 1.0;"/><text fill="#000000" font-family="sans-serif" font-size="13" lengthAdjust="spacingAndGlyphs" textLength="62" x="287" y="465.0669">NotFound</text><!--link OtherError to ApiResponse--><path d="M445.496,422.145 C418.126,442.541 383.504,468.341 353.516,490.6877 " fill="none" id="OtherError-ApiResponse" style="stroke: #A80036; stroke-width: 1.0;"/><polygon fill="#A80036" points="342.699,498.748,349.9002,498.3706,352.3215,491.5781,345.1203,491.9556,342.699,498.748" style="stroke: #A80036; stroke-width: 1.0;"/><text fill="#000000" font-family="sans-serif" font-size="13" lengthAdjust="spacingAndGlyphs" textLength="67" x="403" y="465.0669">OtherError</text><!--
@startuml
class "Response a" as Response << (T,orchid) >> {
	Body: a 
}
class "Address" as Address  {
	Street: String 
}
class "Customer" as Customer  {
	Name: String 
	Number: String 
	CustomerNumber: String 
	DateOfBirth: Date 
	CustomerAddress: Address 
===
  <b>api</b>: something
}
Address - -> Customer : CustomerAddress
class "CustomerResponse " as CustomerResponse  {
	Body: Customer 
}
Customer - -> CustomerResponse : Body
Response *- - CustomerResponse: ALIAS
class "Error" as Error  {
	Code: String 
	Message: String 
}
class "NotFound " as NotFound <Error> {
	Code: String  <i>from Error</i>
	Message: String  <i>from Error</i>
}
Error <|- - NotFound
class "OtherError " as OtherError <Error> {
	Code: String  <i>from Error</i>
	Message: String  <i>from Error</i>
}
Error <|- - OtherError
abstract "ApiResponse" as ApiResponse {
	CustomerResponse 
	NotFound 
	OtherError 
}
CustomerResponse - -* ApiResponse : CustomerResponse
NotFound - -* ApiResponse : NotFound
OtherError - -* ApiResponse : OtherError
@enduml

PlantUML version 1.2019.08(Sat Jul 13 19:25:14 UTC 2019)
(GPL source distribution)
Java Runtime: Java(TM) SE Runtime Environment
JVM: Java HotSpot(TM) 64-Bit Server VM
Java Version: 1.7.0_25-b15
Operating System: Linux
Default Encoding: UTF-8
Language: en
Country: US
--></g></svg>