<?xml version="1.0" encoding="UTF-8" standalone="no"?><svg xmlns="http://www.w3.org/2000/svg" xmlns:xlink="http://www.w3.org/1999/xlink" contentScriptType="application/ecmascript" contentStyleType="text/css" height="320px" preserveAspectRatio="none" style="width:413px;height:320px;" version="1.1" viewBox="0 0 413 320" width="413px" zoomAndPan="magnify"><defs><filter height="300%" id="fjz1t1w0c4t8t" width="300%" x="-1" y="-1"><feGaussianBlur result="blurOut" stdDeviation="2.0"/><feColorMatrix in="blurOut" result="blurOut2" type="matrix" values="0 0 0 0 0 0 0 0 0 0 0 0 0 0 0 0 0 0 .4 0"/><feOffset dx="4.0" dy="4.0" in="blurOut2" result="blurOut3"/><feBlend in="SourceGraphic" in2="blurOut3" mode="normal"/></filter></defs><g><!--class Maybe--><rect fill="#FEFECE" filter="url(#fjz1t1w0c4t8t)" height="73.6094" id="Maybe" style="stroke: #A80036; stroke-width: 1.5;" width="73" x="48" y="229"/><ellipse cx="63" cy="245" fill="#A9DCDF" rx="11" ry="11" style="stroke: #A80036; stroke-width: 1.0;"/><path d="M64.5781,246.8125 L60.5313,246.8125 L60.1406,247.7969 L60.5313,247.7969 C60.9844,247.7969 61.125,247.8281 61.2969,247.9531 C61.5156,248.125 61.6406,248.375 61.6406,248.6563 C61.6406,248.9375 61.5,249.2344 61.2344,249.375 C61.1094,249.4688 60.8906,249.5 60.5313,249.5 L58.2656,249.5 C57.5156,249.5 57.1406,249.2188 57.1406,248.6563 C57.1406,248.3594 57.2969,248.0781 57.5469,247.9219 C57.7031,247.8125 57.8594,247.7969 58.2813,247.7969 L60.9219,241.2813 L59.8438,241.2813 C59.4063,241.2813 59.2344,241.25 59.0625,241.1406 C58.8438,240.9688 58.7031,240.7188 58.7031,240.4375 C58.7031,240.1563 58.8594,239.875 59.1094,239.7031 C59.2656,239.6094 59.3906,239.5938 59.8438,239.5938 L63.5156,239.5938 L66.9063,247.7969 C67.375,247.7969 67.5313,247.8281 67.7031,247.9688 C67.9219,248.125 68.0625,248.375 68.0625,248.6563 C68.0625,248.9375 67.9063,249.2344 67.6563,249.375 C67.5156,249.4688 67.2969,249.5 66.9375,249.5 L64.5781,249.5 C64.1563,249.5 63.9531,249.4531 63.8125,249.3281 C63.5938,249.1719 63.4531,248.9219 63.4531,248.6563 C63.4531,248.3594 63.6094,248.0781 63.8594,247.9219 C64.0156,247.8125 64.125,247.7969 64.5781,247.7969 L64.9688,247.7969 Z M63.875,245.1094 L62.5469,241.8438 L61.2031,245.1094 Z "/><text fill="#000000" font-family="sans-serif" font-size="12" font-style="italic" lengthAdjust="spacingAndGlyphs" textLength="41" x="77" y="249.1543">Maybe</text><line style="stroke: #A80036; stroke-width: 1.5;" x1="49" x2="120" y1="261" y2="261"/><text fill="#000000" font-family="sans-serif" font-size="11" lengthAdjust="spacingAndGlyphs" textLength="21" x="54" y="275.2104">Just</text><text fill="#000000" font-family="sans-serif" font-size="11" lengthAdjust="spacingAndGlyphs" textLength="43" x="54" y="288.0151">Nothing</text><line style="stroke: #A80036; stroke-width: 1.5;" x1="49" x2="120" y1="294.6094" y2="294.6094"/><!--class Just--><rect fill="#FEFECE" filter="url(#fjz1t1w0c4t8t)" height="48" id="Just" style="stroke: #A80036; stroke-width: 1.5;" width="55" x="6" y="53"/><ellipse cx="21" cy="69" fill="#ADD1B2" rx="11" ry="11" style="stroke: #A80036; stroke-width: 1.0;"/><path d="M23.3438,64.6719 L23.5156,64.75 C23.7344,64.4375 23.9375,64.3438 24.2344,64.3438 C24.5313,64.3438 24.8125,64.4844 24.9688,64.75 C25.0625,64.9063 25.0781,65.0313 25.0781,65.4688 L25.0781,66.8906 C25.0781,67.3125 25.0469,67.5 24.9375,67.6563 C24.7656,67.875 24.5,68.0156 24.2344,68.0156 C24.0156,68.0156 23.7813,67.9063 23.6406,67.7656 C23.5,67.6406 23.4688,67.5156 23.4063,67.1094 C23.3125,66.7031 23.1406,66.4844 22.6563,66.2031 C22.1875,65.9531 21.5781,65.7969 21,65.7969 C19.2656,65.7969 18.0156,67.1094 18.0156,68.8906 L18.0156,69.9844 C18.0156,71.6875 19.3125,72.7813 21.3594,72.7813 C22.125,72.7813 22.8125,72.6563 23.2344,72.3906 C23.4219,72.2969 23.4219,72.2969 23.875,71.8125 C24.0625,71.625 24.2656,71.5469 24.4844,71.5469 C24.9531,71.5469 25.3438,71.9375 25.3438,72.3906 C25.3438,72.7813 25.0156,73.2344 24.4375,73.6406 C23.6875,74.1875 22.5313,74.4844 21.3125,74.4844 C18.4219,74.4844 16.3125,72.5938 16.3125,70.0156 L16.3125,68.8906 C16.3125,66.1719 18.3125,64.0938 20.9375,64.0938 C21.8125,64.0938 22.4063,64.2344 23.3438,64.6719 Z "/><text fill="#000000" font-family="sans-serif" font-size="12" lengthAdjust="spacingAndGlyphs" textLength="23" x="35" y="73.1543">Just</text><line style="stroke: #A80036; stroke-width: 1.5;" x1="7" x2="60" y1="85" y2="85"/><line style="stroke: #A80036; stroke-width: 1.5;" x1="7" x2="60" y1="93" y2="93"/><!--class Nothing--><rect fill="#FEFECE" filter="url(#fjz1t1w0c4t8t)" height="48" id="Nothing" style="stroke: #A80036; stroke-width: 1.5;" width="81" x="96" y="53"/><ellipse cx="111" cy="69" fill="#ADD1B2" rx="11" ry="11" style="stroke: #A80036; stroke-width: 1.0;"/><path d="M113.3438,64.6719 L113.5156,64.75 C113.7344,64.4375 113.9375,64.3438 114.2344,64.3438 C114.5313,64.3438 114.8125,64.4844 114.9688,64.75 C115.0625,64.9063 115.0781,65.0313 115.0781,65.4688 L115.0781,66.8906 C115.0781,67.3125 115.0469,67.5 114.9375,67.6563 C114.7656,67.875 114.5,68.0156 114.2344,68.0156 C114.0156,68.0156 113.7813,67.9063 113.6406,67.7656 C113.5,67.6406 113.4688,67.5156 113.4063,67.1094 C113.3125,66.7031 113.1406,66.4844 112.6563,66.2031 C112.1875,65.9531 111.5781,65.7969 111,65.7969 C109.2656,65.7969 108.0156,67.1094 108.0156,68.8906 L108.0156,69.9844 C108.0156,71.6875 109.3125,72.7813 111.3594,72.7813 C112.125,72.7813 112.8125,72.6563 113.2344,72.3906 C113.4219,72.2969 113.4219,72.2969 113.875,71.8125 C114.0625,71.625 114.2656,71.5469 114.4844,71.5469 C114.9531,71.5469 115.3438,71.9375 115.3438,72.3906 C115.3438,72.7813 115.0156,73.2344 114.4375,73.6406 C113.6875,74.1875 112.5313,74.4844 111.3125,74.4844 C108.4219,74.4844 106.3125,72.5938 106.3125,70.0156 L106.3125,68.8906 C106.3125,66.1719 108.3125,64.0938 110.9375,64.0938 C111.8125,64.0938 112.4063,64.2344 113.3438,64.6719 Z "/><text fill="#000000" font-family="sans-serif" font-size="12" lengthAdjust="spacingAndGlyphs" textLength="49" x="125" y="73.1543">Nothing</text><line style="stroke: #A80036; stroke-width: 1.5;" x1="97" x2="176" y1="85" y2="85"/><line style="stroke: #A80036; stroke-width: 1.5;" x1="97" x2="176" y1="93" y2="93"/><!--class Address--><rect fill="#FEFECE" filter="url(#fjz1t1w0c4t8t)" height="137.6328" id="Address" style="stroke: #A80036; stroke-width: 1.5;" width="190" x="212.5" y="8"/><ellipse cx="277.75" cy="24" fill="#ADD1B2" rx="11" ry="11" style="stroke: #A80036; stroke-width: 1.0;"/><path d="M280.0938,19.6719 L280.2656,19.75 C280.4844,19.4375 280.6875,19.3438 280.9844,19.3438 C281.2813,19.3438 281.5625,19.4844 281.7188,19.75 C281.8125,19.9063 281.8281,20.0313 281.8281,20.4688 L281.8281,21.8906 C281.8281,22.3125 281.7969,22.5 281.6875,22.6563 C281.5156,22.875 281.25,23.0156 280.9844,23.0156 C280.7656,23.0156 280.5313,22.9063 280.3906,22.7656 C280.25,22.6406 280.2188,22.5156 280.1563,22.1094 C280.0625,21.7031 279.8906,21.4844 279.4063,21.2031 C278.9375,20.9531 278.3281,20.7969 277.75,20.7969 C276.0156,20.7969 274.7656,22.1094 274.7656,23.8906 L274.7656,24.9844 C274.7656,26.6875 276.0625,27.7813 278.1094,27.7813 C278.875,27.7813 279.5625,27.6563 279.9844,27.3906 C280.1719,27.2969 280.1719,27.2969 280.625,26.8125 C280.8125,26.625 281.0156,26.5469 281.2344,26.5469 C281.7031,26.5469 282.0938,26.9375 282.0938,27.3906 C282.0938,27.7813 281.7656,28.2344 281.1875,28.6406 C280.4375,29.1875 279.2813,29.4844 278.0625,29.4844 C275.1719,29.4844 273.0625,27.5938 273.0625,25.0156 L273.0625,23.8906 C273.0625,21.1719 275.0625,19.0938 277.6875,19.0938 C278.5625,19.0938 279.1563,19.2344 280.0938,19.6719 Z "/><text fill="#000000" font-family="sans-serif" font-size="12" lengthAdjust="spacingAndGlyphs" textLength="51" x="298.25" y="28.1543">Address</text><line style="stroke: #A80036; stroke-width: 1.5;" x1="213.5" x2="401.5" y1="40" y2="40"/><text fill="#000000" font-family="sans-serif" font-size="11" lengthAdjust="spacingAndGlyphs" textLength="77" x="218.5" y="54.2104">Street: String</text><text fill="#000000" font-family="sans-serif" font-size="11" lengthAdjust="spacingAndGlyphs" textLength="106" x="218.5" y="67.0151">PostalCode: String</text><text fill="#000000" font-family="sans-serif" font-size="11" lengthAdjust="spacingAndGlyphs" textLength="134" x="218.5" y="79.8198">HouseNumber: Number</text><text fill="#000000" font-family="sans-serif" font-size="11" lengthAdjust="spacingAndGlyphs" textLength="178" x="218.5" y="92.6245">HouseNumberExtension: String</text><text fill="#000000" font-family="sans-serif" font-size="11" lengthAdjust="spacingAndGlyphs" textLength="63" x="218.5" y="105.4292">City: String</text><text fill="#000000" font-family="sans-serif" font-size="11" lengthAdjust="spacingAndGlyphs" textLength="115" x="218.5" y="118.2339">CountryCode: String</text><text fill="#000000" font-family="sans-serif" font-size="11" lengthAdjust="spacingAndGlyphs" textLength="86" x="218.5" y="131.0386">Country: String</text><line style="stroke: #A80036; stroke-width: 1.5;" x1="213.5" x2="401.5" y1="137.6328" y2="137.6328"/><!--class Person--><rect fill="#FEFECE" filter="url(#fjz1t1w0c4t8t)" height="86.4141" id="Person" style="stroke: #A80036; stroke-width: 1.5;" width="152" x="231.5" y="223"/><ellipse cx="281.25" cy="239" fill="#ADD1B2" rx="11" ry="11" style="stroke: #A80036; stroke-width: 1.0;"/><path d="M283.5938,234.6719 L283.7656,234.75 C283.9844,234.4375 284.1875,234.3438 284.4844,234.3438 C284.7813,234.3438 285.0625,234.4844 285.2188,234.75 C285.3125,234.9063 285.3281,235.0313 285.3281,235.4688 L285.3281,236.8906 C285.3281,237.3125 285.2969,237.5 285.1875,237.6563 C285.0156,237.875 284.75,238.0156 284.4844,238.0156 C284.2656,238.0156 284.0313,237.9063 283.8906,237.7656 C283.75,237.6406 283.7188,237.5156 283.6563,237.1094 C283.5625,236.7031 283.3906,236.4844 282.9063,236.2031 C282.4375,235.9531 281.8281,235.7969 281.25,235.7969 C279.5156,235.7969 278.2656,237.1094 278.2656,238.8906 L278.2656,239.9844 C278.2656,241.6875 279.5625,242.7813 281.6094,242.7813 C282.375,242.7813 283.0625,242.6563 283.4844,242.3906 C283.6719,242.2969 283.6719,242.2969 284.125,241.8125 C284.3125,241.625 284.5156,241.5469 284.7344,241.5469 C285.2031,241.5469 285.5938,241.9375 285.5938,242.3906 C285.5938,242.7813 285.2656,243.2344 284.6875,243.6406 C283.9375,244.1875 282.7813,244.4844 281.5625,244.4844 C278.6719,244.4844 276.5625,242.5938 276.5625,240.0156 L276.5625,238.8906 C276.5625,236.1719 278.5625,234.0938 281.1875,234.0938 C282.0625,234.0938 282.6563,234.2344 283.5938,234.6719 Z "/><text fill="#000000" font-family="sans-serif" font-size="12" lengthAdjust="spacingAndGlyphs" textLength="44" x="301.75" y="243.1543">Person</text><line style="stroke: #A80036; stroke-width: 1.5;" x1="232.5" x2="382.5" y1="255" y2="255"/><text fill="#000000" font-family="sans-serif" font-size="11" lengthAdjust="spacingAndGlyphs" textLength="140" x="237.5" y="269.2104">FirstName: Maybe String</text><text fill="#000000" font-family="sans-serif" font-size="11" lengthAdjust="spacingAndGlyphs" textLength="99" x="237.5" y="282.0151">LastName: String</text><text fill="#000000" font-family="sans-serif" font-size="11" lengthAdjust="spacingAndGlyphs" textLength="102" x="237.5" y="294.8198">Address: Address</text><line style="stroke: #A80036; stroke-width: 1.5;" x1="232.5" x2="382.5" y1="301.4141" y2="301.4141"/><!--link Just to Maybe--><path d="M39.8561,101.306 C48.2125,131.946 63.0325,186.286 73.2927,223.9067 " fill="none" id="Just-Maybe" style="stroke: #A80036; stroke-width: 1.0;"/><polygon fill="#A80036" points="74.6462,228.8692,76.1369,219.1338,73.3305,224.0454,68.4189,221.239,74.6462,228.8692" style="stroke: #A80036; stroke-width: 1.0;"/><text fill="#000000" font-family="sans-serif" font-size="13" lengthAdjust="spacingAndGlyphs" textLength="23" x="65.5" y="189.0669">Just</text><!--link Nothing to Maybe--><path d="M130.019,101.306 C121.499,131.946 106.388,186.286 95.927,223.9067 " fill="none" id="Nothing-Maybe" style="stroke: #A80036; stroke-width: 1.0;"/><polygon fill="#A80036" points="94.5471,228.8692,100.8123,221.2701,95.8868,224.052,93.1049,219.1265,94.5471,228.8692" style="stroke: #A80036; stroke-width: 1.0;"/><text fill="#000000" font-family="sans-serif" font-size="13" lengthAdjust="spacingAndGlyphs" textLength="50" x="110.5" y="189.0669">Nothing</text><!--link Address to Person--><path d="M307.5,146.04 C307.5,169.823 307.5,195.985 307.5,217.7043 " fill="none" id="Address-Person" style="stroke: #A80036; stroke-width: 1.0;"/><polygon fill="#A80036" points="307.5,222.8387,311.5,213.8387,307.5,217.8387,303.5,213.8387,307.5,222.8387" style="stroke: #A80036; stroke-width: 1.0;"/><text fill="#000000" font-family="sans-serif" font-size="13" lengthAdjust="spacingAndGlyphs" textLength="52" x="308.5" y="189.0669">Address</text><!--
@startuml
abstract Maybe {
	Just
	Nothing
}
Just - -> Maybe : Just
Nothing - -> Maybe : Nothing
class Address {
	Street: String 
	PostalCode: String 
	HouseNumber: Number 
	HouseNumberExtension: String 
	City: String 
	CountryCode: String 
	Country: String 
}
class Person {
	FirstName: Maybe String
	LastName: String 
	Address: Address 
}
Address - -> Person : Address
@enduml

PlantUML version 1.2019.03(Sun Mar 10 11:04:44 UTC 2019)
(GPL source distribution)
Java Runtime: Java(TM) SE Runtime Environment
JVM: Java HotSpot(TM) 64-Bit Server VM
Java Version: 1.7.0_25-b15
Operating System: Linux
Default Encoding: UTF-8
Language: en
Country: US
--></g></svg>