<?xml version="1.0" encoding="UTF-8" standalone="no"?><svg xmlns="http://www.w3.org/2000/svg" xmlns:xlink="http://www.w3.org/1999/xlink" contentScriptType="application/ecmascript" contentStyleType="text/css" height="419px" preserveAspectRatio="none" style="width:230px;height:419px;" version="1.1" viewBox="0 0 230 419" width="230px" zoomAndPan="magnify"><defs><filter height="300%" id="f11ksc16b0wjet" width="300%" x="-1" y="-1"><feGaussianBlur result="blurOut" stdDeviation="2.0"/><feColorMatrix in="blurOut" result="blurOut2" type="matrix" values="0 0 0 0 0 0 0 0 0 0 0 0 0 0 0 0 0 0 .4 0"/><feOffset dx="4.0" dy="4.0" in="blurOut2" result="blurOut3"/><feBlend in="SourceGraphic" in2="blurOut3" mode="normal"/></filter></defs><g><!--class FileInfo--><rect fill="#FEFECE" filter="url(#f11ksc16b0wjet)" height="112.0234" id="FileInfo" style="stroke: #A80036; stroke-width: 1.5;" width="125" x="30.5" y="8"/><ellipse cx="67.55" cy="24" fill="#ADD1B2" rx="11" ry="11" style="stroke: #A80036; stroke-width: 1.0;"/><path d="M69.8938,19.6719 L70.0656,19.75 C70.2844,19.4375 70.4875,19.3438 70.7844,19.3438 C71.0813,19.3438 71.3625,19.4844 71.5188,19.75 C71.6125,19.9063 71.6281,20.0313 71.6281,20.4688 L71.6281,21.8906 C71.6281,22.3125 71.5969,22.5 71.4875,22.6563 C71.3156,22.875 71.05,23.0156 70.7844,23.0156 C70.5656,23.0156 70.3313,22.9063 70.1906,22.7656 C70.05,22.6406 70.0188,22.5156 69.9563,22.1094 C69.8625,21.7031 69.6906,21.4844 69.2063,21.2031 C68.7375,20.9531 68.1281,20.7969 67.55,20.7969 C65.8156,20.7969 64.5656,22.1094 64.5656,23.8906 L64.5656,24.9844 C64.5656,26.6875 65.8625,27.7813 67.9094,27.7813 C68.675,27.7813 69.3625,27.6563 69.7844,27.3906 C69.9719,27.2969 69.9719,27.2969 70.425,26.8125 C70.6125,26.625 70.8156,26.5469 71.0344,26.5469 C71.5031,26.5469 71.8938,26.9375 71.8938,27.3906 C71.8938,27.7813 71.5656,28.2344 70.9875,28.6406 C70.2375,29.1875 69.0813,29.4844 67.8625,29.4844 C64.9719,29.4844 62.8625,27.5938 62.8625,25.0156 L62.8625,23.8906 C62.8625,21.1719 64.8625,19.0938 67.4875,19.0938 C68.3625,19.0938 68.9563,19.2344 69.8938,19.6719 Z "/><text fill="#000000" font-family="sans-serif" font-size="12" lengthAdjust="spacingAndGlyphs" textLength="44" x="86.45" y="28.1543">FileInfo</text><line style="stroke: #A80036; stroke-width: 1.5;" x1="31.5" x2="154.5" y1="40" y2="40"/><text fill="#000000" font-family="sans-serif" font-size="11" lengthAdjust="spacingAndGlyphs" textLength="76" x="36.5" y="54.2104">Size: Number</text><text fill="#000000" font-family="sans-serif" font-size="11" lengthAdjust="spacingAndGlyphs" textLength="113" x="36.5" y="67.0151">LastModified: String</text><text fill="#000000" font-family="sans-serif" font-size="11" lengthAdjust="spacingAndGlyphs" textLength="86" x="36.5" y="79.8198">FullPath: String</text><text fill="#000000" font-family="sans-serif" font-size="11" lengthAdjust="spacingAndGlyphs" textLength="104" x="36.5" y="92.6245">CreatedBy: Author</text><text fill="#000000" font-family="sans-serif" font-size="11" lengthAdjust="spacingAndGlyphs" textLength="106" x="36.5" y="105.4292">ModifiedBy: Author</text><line style="stroke: #A80036; stroke-width: 1.5;" x1="31.5" x2="154.5" y1="112.0234" y2="112.0234"/><!--class DirectoryInfo--><rect fill="#FEFECE" filter="url(#f11ksc16b0wjet)" height="60.8047" id="DirectoryInfo" style="stroke: #A80036; stroke-width: 1.5;" width="174" x="6" y="348"/><ellipse cx="49.35" cy="364" fill="#ADD1B2" rx="11" ry="11" style="stroke: #A80036; stroke-width: 1.0;"/><path d="M51.6938,359.6719 L51.8656,359.75 C52.0844,359.4375 52.2875,359.3438 52.5844,359.3438 C52.8813,359.3438 53.1625,359.4844 53.3188,359.75 C53.4125,359.9063 53.4281,360.0313 53.4281,360.4688 L53.4281,361.8906 C53.4281,362.3125 53.3969,362.5 53.2875,362.6563 C53.1156,362.875 52.85,363.0156 52.5844,363.0156 C52.3656,363.0156 52.1313,362.9063 51.9906,362.7656 C51.85,362.6406 51.8188,362.5156 51.7563,362.1094 C51.6625,361.7031 51.4906,361.4844 51.0063,361.2031 C50.5375,360.9531 49.9281,360.7969 49.35,360.7969 C47.6156,360.7969 46.3656,362.1094 46.3656,363.8906 L46.3656,364.9844 C46.3656,366.6875 47.6625,367.7813 49.7094,367.7813 C50.475,367.7813 51.1625,367.6563 51.5844,367.3906 C51.7719,367.2969 51.7719,367.2969 52.225,366.8125 C52.4125,366.625 52.6156,366.5469 52.8344,366.5469 C53.3031,366.5469 53.6938,366.9375 53.6938,367.3906 C53.6938,367.7813 53.3656,368.2344 52.7875,368.6406 C52.0375,369.1875 50.8813,369.4844 49.6625,369.4844 C46.7719,369.4844 44.6625,367.5938 44.6625,365.0156 L44.6625,363.8906 C44.6625,361.1719 46.6625,359.0938 49.2875,359.0938 C50.1625,359.0938 50.7563,359.2344 51.6938,359.6719 Z "/><text fill="#000000" font-family="sans-serif" font-size="12" lengthAdjust="spacingAndGlyphs" textLength="79" x="69.65" y="368.1543">DirectoryInfo</text><line style="stroke: #A80036; stroke-width: 1.5;" x1="7" x2="179" y1="380" y2="380"/><text fill="#000000" font-family="sans-serif" font-size="11" lengthAdjust="spacingAndGlyphs" textLength="162" x="12" y="394.2104">Children: List FileSystemInfo</text><line style="stroke: #A80036; stroke-width: 1.5;" x1="7" x2="179" y1="400.8047" y2="400.8047"/><!--class FileSystemInfo--><rect fill="#FEFECE" filter="url(#f11ksc16b0wjet)" height="73.6094" id="FileSystemInfo" style="stroke: #A80036; stroke-width: 1.5;" width="122" x="32" y="197"/><ellipse cx="47" cy="213" fill="#A9DCDF" rx="11" ry="11" style="stroke: #A80036; stroke-width: 1.0;"/><path d="M48.5781,214.8125 L44.5313,214.8125 L44.1406,215.7969 L44.5313,215.7969 C44.9844,215.7969 45.125,215.8281 45.2969,215.9531 C45.5156,216.125 45.6406,216.375 45.6406,216.6563 C45.6406,216.9375 45.5,217.2344 45.2344,217.375 C45.1094,217.4688 44.8906,217.5 44.5313,217.5 L42.2656,217.5 C41.5156,217.5 41.1406,217.2188 41.1406,216.6563 C41.1406,216.3594 41.2969,216.0781 41.5469,215.9219 C41.7031,215.8125 41.8594,215.7969 42.2813,215.7969 L44.9219,209.2813 L43.8438,209.2813 C43.4063,209.2813 43.2344,209.25 43.0625,209.1406 C42.8438,208.9688 42.7031,208.7188 42.7031,208.4375 C42.7031,208.1563 42.8594,207.875 43.1094,207.7031 C43.2656,207.6094 43.3906,207.5938 43.8438,207.5938 L47.5156,207.5938 L50.9063,215.7969 C51.375,215.7969 51.5313,215.8281 51.7031,215.9688 C51.9219,216.125 52.0625,216.375 52.0625,216.6563 C52.0625,216.9375 51.9063,217.2344 51.6563,217.375 C51.5156,217.4688 51.2969,217.5 50.9375,217.5 L48.5781,217.5 C48.1563,217.5 47.9531,217.4531 47.8125,217.3281 C47.5938,217.1719 47.4531,216.9219 47.4531,216.6563 C47.4531,216.3594 47.6094,216.0781 47.8594,215.9219 C48.0156,215.8125 48.125,215.7969 48.5781,215.7969 L48.9688,215.7969 Z M47.875,213.1094 L46.5469,209.8438 L45.2031,213.1094 Z "/><text fill="#000000" font-family="sans-serif" font-size="12" font-style="italic" lengthAdjust="spacingAndGlyphs" textLength="90" x="61" y="217.1543">FileSystemInfo</text><line style="stroke: #A80036; stroke-width: 1.5;" x1="33" x2="153" y1="229" y2="229"/><text fill="#000000" font-family="sans-serif" font-size="11" lengthAdjust="spacingAndGlyphs" textLength="40" x="38" y="243.2104">FileInfo</text><text fill="#000000" font-family="sans-serif" font-size="11" lengthAdjust="spacingAndGlyphs" textLength="72" x="38" y="256.0151">DirectoryInfo</text><line style="stroke: #A80036; stroke-width: 1.5;" x1="33" x2="153" y1="262.6094" y2="262.6094"/><!--link FileSystemInfo to DirectoryInfo--><path d="M31.7715,266.517 C13.1472,280.591 -0.0541,298.422 10,318 C15.1507,328.0298 22.8642,336.7482 31.5495,344.1879 " fill="none" id="FileSystemInfo-DirectoryInfo" style="stroke: #A80036; stroke-width: 1.0;"/><polygon fill="#A80036" points="35.8843,347.7375,31.4554,338.9406,32.0159,344.5696,26.3869,345.1301,35.8843,347.7375" style="stroke: #A80036; stroke-width: 1.0;"/><text fill="#000000" font-family="sans-serif" font-size="13" lengthAdjust="spacingAndGlyphs" textLength="119" x="11" y="314.0669">List FileSystemInfo</text><text fill="#000000" font-family="sans-serif" font-size="13" lengthAdjust="spacingAndGlyphs" textLength="8" x="15.8218" y="266.6647">0</text><text fill="#000000" font-family="sans-serif" font-size="13" lengthAdjust="spacingAndGlyphs" textLength="7" x="16.3823" y="336.9466">*</text><!--link DirectoryInfo to FileSystemInfo--><path d="M119.174,347.9608 C125.619,338.9505 131.634,328.6055 135,318 C139.565,303.617 135.202,288.677 127.821,275.501 " fill="none" id="DirectoryInfo-FileSystemInfo" style="stroke: #A80036; stroke-width: 1.0;"/><polygon fill="#A80036" points="125.211,271.104,126.366,280.8849,127.7635,275.4034,133.245,276.8009,125.211,271.104" style="stroke: #A80036; stroke-width: 1.0;"/><text fill="#000000" font-family="sans-serif" font-size="13" lengthAdjust="spacingAndGlyphs" textLength="81" x="137" y="314.0669">DirectoryInfo</text><!--link FileInfo to FileSystemInfo--><path d="M93,120.009 C93,143.398 93,170.204 93,191.836 " fill="none" id="FileInfo-FileSystemInfo" style="stroke: #A80036; stroke-width: 1.0;"/><polygon fill="#A80036" points="93,196.934,97,187.934,93,191.934,89,187.934,93,196.934" style="stroke: #A80036; stroke-width: 1.0;"/><text fill="#000000" font-family="sans-serif" font-size="13" lengthAdjust="spacingAndGlyphs" textLength="44" x="94" y="163.0669">FileInfo</text><!--
@startuml
class "FileInfo" as FileInfo  {
	Size: Number 
	LastModified: String 
	FullPath: String 
	CreatedBy: Author 
	ModifiedBy: Author 
}
class "DirectoryInfo" as DirectoryInfo  {
	Children: List FileSystemInfo
}
FileSystemInfo "0" - -> "*" DirectoryInfo : List FileSystemInfo
abstract "FileSystemInfo" as FileSystemInfo {
	FileInfo 
	DirectoryInfo 
}
FileInfo - -> FileSystemInfo : FileInfo
DirectoryInfo - -> FileSystemInfo : DirectoryInfo
@enduml

PlantUML version 1.2019.05beta2(Unknown compile time)
(GPL source distribution)
Java Runtime: Java(TM) SE Runtime Environment
JVM: Java HotSpot(TM) 64-Bit Server VM
Java Version: 1.7.0_25-b15
Operating System: Linux
Default Encoding: UTF-8
Language: en
Country: US
--></g></svg>