<?xml version="1.0" encoding="UTF-8" standalone="no"?><svg xmlns="http://www.w3.org/2000/svg" xmlns:xlink="http://www.w3.org/1999/xlink" contentScriptType="application/ecmascript" contentStyleType="text/css" height="836px" preserveAspectRatio="none" style="width:1282px;height:836px;" version="1.1" viewBox="0 0 1282 836" width="1282px" zoomAndPan="magnify"><defs><filter height="300%" id="f5cok0wcfggr3" width="300%" x="-1" y="-1"><feGaussianBlur result="blurOut" stdDeviation="2.0"/><feColorMatrix in="blurOut" result="blurOut2" type="matrix" values="0 0 0 0 0 0 0 0 0 0 0 0 0 0 0 0 0 0 .4 0"/><feOffset dx="4.0" dy="4.0" in="blurOut2" result="blurOut3"/><feBlend in="SourceGraphic" in2="blurOut3" mode="normal"/></filter></defs><g><!--class undefined--><rect fill="#FEFECE" filter="url(#f5cok0wcfggr3)" height="112.0234" id="undefined" style="stroke: #A80036; stroke-width: 1.5;" width="134" x="333" y="14.5"/><ellipse cx="365.55" cy="30.5" fill="#EB937F" rx="11" ry="11" style="stroke: #A80036; stroke-width: 1.0;"/><path d="M363.8469,31.375 L363.8469,33.7969 L368.2063,33.7969 L368.2063,32.9219 C368.2063,32.4375 368.2375,32.2969 368.3469,32.1406 C368.5188,31.8906 368.7844,31.7813 369.05,31.7813 C369.3313,31.7813 369.6125,31.9375 369.7844,32.1875 C369.8625,32.3438 369.8938,32.4844 369.8938,32.9219 L369.8938,35.5 L361.8938,35.5 C361.5031,35.5 361.2688,35.4531 361.1281,35.3281 C360.9094,35.1719 360.7688,34.9219 360.7688,34.6563 C360.7688,34.3594 360.925,34.0938 361.175,33.9219 C361.3313,33.8125 361.4875,33.7969 361.8938,33.7969 L362.1438,33.7969 L362.1438,27.2813 L361.8938,27.2813 C361.4719,27.2813 361.2844,27.25 361.1281,27.1406 C360.9094,26.9688 360.7688,26.7188 360.7688,26.4375 C360.7688,26.1563 360.925,25.8594 361.175,25.7031 C361.3313,25.6094 361.4563,25.5938 361.8938,25.5938 L369.5188,25.5938 L369.5188,28.1406 C369.5188,28.6094 369.4875,28.75 369.3781,28.9219 C369.2063,29.1406 368.9406,29.2813 368.675,29.2813 C368.3938,29.2813 368.1125,29.125 367.9406,28.875 C367.8625,28.7188 367.8313,28.5469 367.8313,28.1406 L367.8313,27.2813 L363.8469,27.2813 L363.8469,29.6875 L365.3,29.6875 L365.3,29.5625 C365.3,29.1094 365.3313,28.9531 365.4406,28.7813 C365.6125,28.5625 365.8781,28.4219 366.1281,28.4219 C366.5813,28.4219 366.8938,28.7344 366.9563,29.2031 C366.9719,29.3594 366.9719,29.4063 366.9719,29.5625 L366.9719,31.4844 C366.9719,31.9375 366.9406,32.0938 366.8156,32.25 C366.6594,32.4688 366.3938,32.6094 366.1438,32.6094 C365.8469,32.6094 365.5656,32.4531 365.4094,32.2031 C365.3313,32.0469 365.3,31.8906 365.3,31.4844 L365.3,31.375 Z "/><text fill="#000000" font-family="sans-serif" font-size="12" lengthAdjust="spacingAndGlyphs" textLength="63" x="383.45" y="34.6543">undefined</text><line style="stroke: #A80036; stroke-width: 1.5;" x1="334" x2="466" y1="46.5" y2="46.5"/><text fill="#000000" font-family="sans-serif" font-size="11" lengthAdjust="spacingAndGlyphs" textLength="84" x="339" y="60.7104">Racial Package</text><text fill="#000000" font-family="sans-serif" font-size="11" lengthAdjust="spacingAndGlyphs" textLength="122" x="339" y="73.5151">Professional Package</text><text fill="#000000" font-family="sans-serif" font-size="11" lengthAdjust="spacingAndGlyphs" textLength="14" x="339" y="86.3198">XP</text><text fill="#000000" font-family="sans-serif" font-size="11" lengthAdjust="spacingAndGlyphs" textLength="20" x="339" y="99.1245">Gift</text><text fill="#000000" font-family="sans-serif" font-size="11" lengthAdjust="spacingAndGlyphs" textLength="32" x="339" y="111.9292">Other</text><line style="stroke: #A80036; stroke-width: 1.5;" x1="334" x2="466" y1="118.5234" y2="118.5234"/><!--class Stat--><rect fill="#FEFECE" filter="url(#f5cok0wcfggr3)" height="124.8281" id="Stat" style="stroke: #A80036; stroke-width: 1.5;" width="72" x="502" y="8"/><ellipse cx="523.3" cy="24" fill="#A9DCDF" rx="11" ry="11" style="stroke: #A80036; stroke-width: 1.0;"/><path d="M524.8781,25.8125 L520.8313,25.8125 L520.4406,26.7969 L520.8313,26.7969 C521.2844,26.7969 521.425,26.8281 521.5969,26.9531 C521.8156,27.125 521.9406,27.375 521.9406,27.6563 C521.9406,27.9375 521.8,28.2344 521.5344,28.375 C521.4094,28.4688 521.1906,28.5 520.8313,28.5 L518.5656,28.5 C517.8156,28.5 517.4406,28.2188 517.4406,27.6563 C517.4406,27.3594 517.5969,27.0781 517.8469,26.9219 C518.0031,26.8125 518.1594,26.7969 518.5813,26.7969 L521.2219,20.2813 L520.1438,20.2813 C519.7063,20.2813 519.5344,20.25 519.3625,20.1406 C519.1438,19.9688 519.0031,19.7188 519.0031,19.4375 C519.0031,19.1563 519.1594,18.875 519.4094,18.7031 C519.5656,18.6094 519.6906,18.5938 520.1438,18.5938 L523.8156,18.5938 L527.2063,26.7969 C527.675,26.7969 527.8313,26.8281 528.0031,26.9688 C528.2219,27.125 528.3625,27.375 528.3625,27.6563 C528.3625,27.9375 528.2063,28.2344 527.9563,28.375 C527.8156,28.4688 527.5969,28.5 527.2375,28.5 L524.8781,28.5 C524.4563,28.5 524.2531,28.4531 524.1125,28.3281 C523.8938,28.1719 523.7531,27.9219 523.7531,27.6563 C523.7531,27.3594 523.9094,27.0781 524.1594,26.9219 C524.3156,26.8125 524.425,26.7969 524.8781,26.7969 L525.2688,26.7969 Z M524.175,24.1094 L522.8469,20.8438 L521.5031,24.1094 Z "/><text fill="#000000" font-family="sans-serif" font-size="12" font-style="italic" lengthAdjust="spacingAndGlyphs" textLength="26" x="538.7" y="28.1543">Stat</text><line style="stroke: #A80036; stroke-width: 1.5;" x1="503" x2="573" y1="40" y2="40"/><text fill="#000000" font-family="sans-serif" font-size="11" lengthAdjust="spacingAndGlyphs" textLength="49" x="508" y="54.2104">Strength</text><text fill="#000000" font-family="sans-serif" font-size="11" lengthAdjust="spacingAndGlyphs" textLength="33" x="508" y="67.0151">Agility</text><text fill="#000000" font-family="sans-serif" font-size="11" lengthAdjust="spacingAndGlyphs" textLength="45" x="508" y="79.8198">Intuition</text><text fill="#000000" font-family="sans-serif" font-size="11" lengthAdjust="spacingAndGlyphs" textLength="60" x="508" y="92.6245">Perception</text><text fill="#000000" font-family="sans-serif" font-size="11" lengthAdjust="spacingAndGlyphs" textLength="55" x="508" y="105.4292">Charisma</text><text fill="#000000" font-family="sans-serif" font-size="11" lengthAdjust="spacingAndGlyphs" textLength="29" x="508" y="118.2339">None</text><line style="stroke: #A80036; stroke-width: 1.5;" x1="503" x2="573" y1="124.8281" y2="124.8281"/><!--class Namable--><rect fill="#FEFECE" filter="url(#f5cok0wcfggr3)" height="73.6094" id="Namable" style="stroke: #A80036; stroke-width: 1.5;" width="118" x="476" y="235.5"/><ellipse cx="504.95" cy="251.5" fill="#ADD1B2" rx="11" ry="11" style="stroke: #A80036; stroke-width: 1.0;"/><path d="M507.2938,247.1719 L507.4656,247.25 C507.6844,246.9375 507.8875,246.8438 508.1844,246.8438 C508.4813,246.8438 508.7625,246.9844 508.9188,247.25 C509.0125,247.4063 509.0281,247.5313 509.0281,247.9688 L509.0281,249.3906 C509.0281,249.8125 508.9969,250 508.8875,250.1563 C508.7156,250.375 508.45,250.5156 508.1844,250.5156 C507.9656,250.5156 507.7313,250.4063 507.5906,250.2656 C507.45,250.1406 507.4188,250.0156 507.3563,249.6094 C507.2625,249.2031 507.0906,248.9844 506.6063,248.7031 C506.1375,248.4531 505.5281,248.2969 504.95,248.2969 C503.2156,248.2969 501.9656,249.6094 501.9656,251.3906 L501.9656,252.4844 C501.9656,254.1875 503.2625,255.2813 505.3094,255.2813 C506.075,255.2813 506.7625,255.1563 507.1844,254.8906 C507.3719,254.7969 507.3719,254.7969 507.825,254.3125 C508.0125,254.125 508.2156,254.0469 508.4344,254.0469 C508.9031,254.0469 509.2938,254.4375 509.2938,254.8906 C509.2938,255.2813 508.9656,255.7344 508.3875,256.1406 C507.6375,256.6875 506.4813,256.9844 505.2625,256.9844 C502.3719,256.9844 500.2625,255.0938 500.2625,252.5156 L500.2625,251.3906 C500.2625,248.6719 502.2625,246.5938 504.8875,246.5938 C505.7625,246.5938 506.3563,246.7344 507.2938,247.1719 Z "/><text fill="#000000" font-family="sans-serif" font-size="12" lengthAdjust="spacingAndGlyphs" textLength="55" x="522.05" y="255.6543">Namable</text><line style="stroke: #A80036; stroke-width: 1.5;" x1="477" x2="593" y1="267.5" y2="267.5"/><text fill="#000000" font-family="sans-serif" font-size="11" lengthAdjust="spacingAndGlyphs" textLength="75" x="482" y="281.7104">Name: String</text><text fill="#000000" font-family="sans-serif" font-size="11" lengthAdjust="spacingAndGlyphs" textLength="106" x="482" y="294.5151">Description: String</text><line style="stroke: #A80036; stroke-width: 1.5;" x1="477" x2="593" y1="301.1094" y2="301.1094"/><!--class Buyable--><rect fill="#FEFECE" filter="url(#f5cok0wcfggr3)" height="124.8281" id="Buyable" style="stroke: #A80036; stroke-width: 1.5;" width="137" x="204.5" y="210"/><ellipse cx="244.7" cy="226" fill="#ADD1B2" rx="11" ry="11" style="stroke: #A80036; stroke-width: 1.0;"/><path d="M247.0438,221.6719 L247.2156,221.75 C247.4344,221.4375 247.6375,221.3438 247.9344,221.3438 C248.2313,221.3438 248.5125,221.4844 248.6688,221.75 C248.7625,221.9063 248.7781,222.0313 248.7781,222.4688 L248.7781,223.8906 C248.7781,224.3125 248.7469,224.5 248.6375,224.6563 C248.4656,224.875 248.2,225.0156 247.9344,225.0156 C247.7156,225.0156 247.4813,224.9063 247.3406,224.7656 C247.2,224.6406 247.1688,224.5156 247.1063,224.1094 C247.0125,223.7031 246.8406,223.4844 246.3563,223.2031 C245.8875,222.9531 245.2781,222.7969 244.7,222.7969 C242.9656,222.7969 241.7156,224.1094 241.7156,225.8906 L241.7156,226.9844 C241.7156,228.6875 243.0125,229.7813 245.0594,229.7813 C245.825,229.7813 246.5125,229.6563 246.9344,229.3906 C247.1219,229.2969 247.1219,229.2969 247.575,228.8125 C247.7625,228.625 247.9656,228.5469 248.1844,228.5469 C248.6531,228.5469 249.0438,228.9375 249.0438,229.3906 C249.0438,229.7813 248.7156,230.2344 248.1375,230.6406 C247.3875,231.1875 246.2313,231.4844 245.0125,231.4844 C242.1219,231.4844 240.0125,229.5938 240.0125,227.0156 L240.0125,225.8906 C240.0125,223.1719 242.0125,221.0938 244.6375,221.0938 C245.5125,221.0938 246.1063,221.2344 247.0438,221.6719 Z "/><text fill="#000000" font-family="sans-serif" font-size="12" lengthAdjust="spacingAndGlyphs" textLength="49" x="264.3" y="230.1543">Buyable</text><line style="stroke: #A80036; stroke-width: 1.5;" x1="205.5" x2="340.5" y1="242" y2="242"/><text fill="#000000" font-family="sans-serif" font-size="11" lengthAdjust="spacingAndGlyphs" textLength="117" x="210.5" y="256.2104">Source: BoughtFrom</text><text fill="#000000" font-family="sans-serif" font-size="11" lengthAdjust="spacingAndGlyphs" textLength="54" x="210.5" y="269.0151">Stat: Stat</text><text fill="#000000" font-family="sans-serif" font-size="11" lengthAdjust="spacingAndGlyphs" textLength="94" x="210.5" y="281.8198">Bought: Boolean</text><text fill="#000000" font-family="sans-serif" font-size="11" lengthAdjust="spacingAndGlyphs" textLength="91" x="210.5" y="294.6245">Skilled: Boolean</text><text fill="#000000" font-family="sans-serif" font-size="11" lengthAdjust="spacingAndGlyphs" textLength="125" x="210.5" y="307.4292">Professional: Boolean</text><text fill="#000000" font-family="sans-serif" font-size="11" lengthAdjust="spacingAndGlyphs" textLength="93" x="210.5" y="320.2339">Master: Boolean</text><line style="stroke: #A80036; stroke-width: 1.5;" x1="205.5" x2="340.5" y1="326.8281" y2="326.8281"/><!--class Skill--><rect fill="#FEFECE" filter="url(#f5cok0wcfggr3)" height="188.8516" id="Skill" style="stroke: #A80036; stroke-width: 1.5;" width="222" x="6" y="396"/><ellipse cx="98.75" cy="412" fill="#ADD1B2" rx="11" ry="11" style="stroke: #A80036; stroke-width: 1.0;"/><path d="M101.0938,407.6719 L101.2656,407.75 C101.4844,407.4375 101.6875,407.3438 101.9844,407.3438 C102.2813,407.3438 102.5625,407.4844 102.7188,407.75 C102.8125,407.9063 102.8281,408.0313 102.8281,408.4688 L102.8281,409.8906 C102.8281,410.3125 102.7969,410.5 102.6875,410.6563 C102.5156,410.875 102.25,411.0156 101.9844,411.0156 C101.7656,411.0156 101.5313,410.9063 101.3906,410.7656 C101.25,410.6406 101.2188,410.5156 101.1563,410.1094 C101.0625,409.7031 100.8906,409.4844 100.4063,409.2031 C99.9375,408.9531 99.3281,408.7969 98.75,408.7969 C97.0156,408.7969 95.7656,410.1094 95.7656,411.8906 L95.7656,412.9844 C95.7656,414.6875 97.0625,415.7813 99.1094,415.7813 C99.875,415.7813 100.5625,415.6563 100.9844,415.3906 C101.1719,415.2969 101.1719,415.2969 101.625,414.8125 C101.8125,414.625 102.0156,414.5469 102.2344,414.5469 C102.7031,414.5469 103.0938,414.9375 103.0938,415.3906 C103.0938,415.7813 102.7656,416.2344 102.1875,416.6406 C101.4375,417.1875 100.2813,417.4844 99.0625,417.4844 C96.1719,417.4844 94.0625,415.5938 94.0625,413.0156 L94.0625,411.8906 C94.0625,409.1719 96.0625,407.0938 98.6875,407.0938 C99.5625,407.0938 100.1563,407.2344 101.0938,407.6719 Z "/><text fill="#000000" font-family="sans-serif" font-size="12" lengthAdjust="spacingAndGlyphs" textLength="24" x="119.25" y="416.1543">Skill</text><line style="stroke: #A80036; stroke-width: 1.5;" x1="7" x2="227" y1="428" y2="428"/><text fill="#000000" font-family="sans-serif" font-size="11" lengthAdjust="spacingAndGlyphs" textLength="75" x="12" y="442.2104">Name: String</text><text fill="#000000" font-family="sans-serif" font-size="11" font-style="italic" lengthAdjust="spacingAndGlyphs" textLength="81" x="95" y="442.2104">from Namable</text><text fill="#000000" font-family="sans-serif" font-size="11" lengthAdjust="spacingAndGlyphs" textLength="106" x="12" y="455.0151">Description: String</text><text fill="#000000" font-family="sans-serif" font-size="11" font-style="italic" lengthAdjust="spacingAndGlyphs" textLength="81" x="126" y="455.0151">from Namable</text><text fill="#000000" font-family="sans-serif" font-size="11" lengthAdjust="spacingAndGlyphs" textLength="117" x="12" y="467.8198">Source: BoughtFrom</text><text fill="#000000" font-family="sans-serif" font-size="11" font-style="italic" lengthAdjust="spacingAndGlyphs" textLength="77" x="137" y="467.8198">from Buyable</text><text fill="#000000" font-family="sans-serif" font-size="11" lengthAdjust="spacingAndGlyphs" textLength="54" x="12" y="480.6245">Stat: Stat</text><text fill="#000000" font-family="sans-serif" font-size="11" font-style="italic" lengthAdjust="spacingAndGlyphs" textLength="77" x="74" y="480.6245">from Buyable</text><text fill="#000000" font-family="sans-serif" font-size="11" lengthAdjust="spacingAndGlyphs" textLength="94" x="12" y="493.4292">Bought: Boolean</text><text fill="#000000" font-family="sans-serif" font-size="11" font-style="italic" lengthAdjust="spacingAndGlyphs" textLength="77" x="114" y="493.4292">from Buyable</text><text fill="#000000" font-family="sans-serif" font-size="11" lengthAdjust="spacingAndGlyphs" textLength="91" x="12" y="506.2339">Skilled: Boolean</text><text fill="#000000" font-family="sans-serif" font-size="11" font-style="italic" lengthAdjust="spacingAndGlyphs" textLength="77" x="111" y="506.2339">from Buyable</text><text fill="#000000" font-family="sans-serif" font-size="11" lengthAdjust="spacingAndGlyphs" textLength="125" x="12" y="519.0386">Professional: Boolean</text><text fill="#000000" font-family="sans-serif" font-size="11" font-style="italic" lengthAdjust="spacingAndGlyphs" textLength="77" x="145" y="519.0386">from Buyable</text><text fill="#000000" font-family="sans-serif" font-size="11" lengthAdjust="spacingAndGlyphs" textLength="93" x="12" y="531.8433">Master: Boolean</text><text fill="#000000" font-family="sans-serif" font-size="11" font-style="italic" lengthAdjust="spacingAndGlyphs" textLength="77" x="113" y="531.8433">from Buyable</text><line style="stroke: #A80036; stroke-width: 1.0;" x1="7" x2="227" y1="538.4375" y2="538.4375"/><text fill="#000000" font-family="sans-serif" font-size="11" font-weight="bold" lengthAdjust="spacingAndGlyphs" textLength="72" x="12" y="552.6479">description</text><text fill="#000000" font-family="sans-serif" font-size="11" lengthAdjust="spacingAndGlyphs" textLength="55" x="84" y="552.6479">: A skill is</text><text fill="#000000" font-family="sans-serif" font-size="11" lengthAdjust="spacingAndGlyphs" textLength="171" x="12" y="565.4526">something a character can do</text><text fill="#000000" font-family="sans-serif" font-size="11" lengthAdjust="spacingAndGlyphs" textLength="0" x="16" y="578.2573"/><!--class Resistance--><rect fill="#FEFECE" filter="url(#f5cok0wcfggr3)" height="150.4375" id="Resistance" style="stroke: #A80036; stroke-width: 1.5;" width="222" x="520" y="415.5"/><ellipse cx="590.25" cy="431.5" fill="#ADD1B2" rx="11" ry="11" style="stroke: #A80036; stroke-width: 1.0;"/><path d="M592.5938,427.1719 L592.7656,427.25 C592.9844,426.9375 593.1875,426.8438 593.4844,426.8438 C593.7813,426.8438 594.0625,426.9844 594.2188,427.25 C594.3125,427.4063 594.3281,427.5313 594.3281,427.9688 L594.3281,429.3906 C594.3281,429.8125 594.2969,430 594.1875,430.1563 C594.0156,430.375 593.75,430.5156 593.4844,430.5156 C593.2656,430.5156 593.0313,430.4063 592.8906,430.2656 C592.75,430.1406 592.7188,430.0156 592.6563,429.6094 C592.5625,429.2031 592.3906,428.9844 591.9063,428.7031 C591.4375,428.4531 590.8281,428.2969 590.25,428.2969 C588.5156,428.2969 587.2656,429.6094 587.2656,431.3906 L587.2656,432.4844 C587.2656,434.1875 588.5625,435.2813 590.6094,435.2813 C591.375,435.2813 592.0625,435.1563 592.4844,434.8906 C592.6719,434.7969 592.6719,434.7969 593.125,434.3125 C593.3125,434.125 593.5156,434.0469 593.7344,434.0469 C594.2031,434.0469 594.5938,434.4375 594.5938,434.8906 C594.5938,435.2813 594.2656,435.7344 593.6875,436.1406 C592.9375,436.6875 591.7813,436.9844 590.5625,436.9844 C587.6719,436.9844 585.5625,435.0938 585.5625,432.5156 L585.5625,431.3906 C585.5625,428.6719 587.5625,426.5938 590.1875,426.5938 C591.0625,426.5938 591.6563,426.7344 592.5938,427.1719 Z "/><text fill="#000000" font-family="sans-serif" font-size="12" lengthAdjust="spacingAndGlyphs" textLength="69" x="610.75" y="435.6543">Resistance</text><line style="stroke: #A80036; stroke-width: 1.5;" x1="521" x2="741" y1="447.5" y2="447.5"/><text fill="#000000" font-family="sans-serif" font-size="11" lengthAdjust="spacingAndGlyphs" textLength="75" x="526" y="461.7104">Name: String</text><text fill="#000000" font-family="sans-serif" font-size="11" font-style="italic" lengthAdjust="spacingAndGlyphs" textLength="81" x="609" y="461.7104">from Namable</text><text fill="#000000" font-family="sans-serif" font-size="11" lengthAdjust="spacingAndGlyphs" textLength="106" x="526" y="474.5151">Description: String</text><text fill="#000000" font-family="sans-serif" font-size="11" font-style="italic" lengthAdjust="spacingAndGlyphs" textLength="81" x="640" y="474.5151">from Namable</text><text fill="#000000" font-family="sans-serif" font-size="11" lengthAdjust="spacingAndGlyphs" textLength="117" x="526" y="487.3198">Source: BoughtFrom</text><text fill="#000000" font-family="sans-serif" font-size="11" font-style="italic" lengthAdjust="spacingAndGlyphs" textLength="77" x="651" y="487.3198">from Buyable</text><text fill="#000000" font-family="sans-serif" font-size="11" lengthAdjust="spacingAndGlyphs" textLength="54" x="526" y="500.1245">Stat: Stat</text><text fill="#000000" font-family="sans-serif" font-size="11" font-style="italic" lengthAdjust="spacingAndGlyphs" textLength="77" x="588" y="500.1245">from Buyable</text><text fill="#000000" font-family="sans-serif" font-size="11" lengthAdjust="spacingAndGlyphs" textLength="94" x="526" y="512.9292">Bought: Boolean</text><text fill="#000000" font-family="sans-serif" font-size="11" font-style="italic" lengthAdjust="spacingAndGlyphs" textLength="77" x="628" y="512.9292">from Buyable</text><text fill="#000000" font-family="sans-serif" font-size="11" lengthAdjust="spacingAndGlyphs" textLength="91" x="526" y="525.7339">Skilled: Boolean</text><text fill="#000000" font-family="sans-serif" font-size="11" font-style="italic" lengthAdjust="spacingAndGlyphs" textLength="77" x="625" y="525.7339">from Buyable</text><text fill="#000000" font-family="sans-serif" font-size="11" lengthAdjust="spacingAndGlyphs" textLength="125" x="526" y="538.5386">Professional: Boolean</text><text fill="#000000" font-family="sans-serif" font-size="11" font-style="italic" lengthAdjust="spacingAndGlyphs" textLength="77" x="659" y="538.5386">from Buyable</text><text fill="#000000" font-family="sans-serif" font-size="11" lengthAdjust="spacingAndGlyphs" textLength="93" x="526" y="551.3433">Master: Boolean</text><text fill="#000000" font-family="sans-serif" font-size="11" font-style="italic" lengthAdjust="spacingAndGlyphs" textLength="77" x="627" y="551.3433">from Buyable</text><line style="stroke: #A80036; stroke-width: 1.5;" x1="521" x2="741" y1="557.9375" y2="557.9375"/><!--class Special--><rect fill="#FEFECE" filter="url(#f5cok0wcfggr3)" height="150.4375" id="Special" style="stroke: #A80036; stroke-width: 1.5;" width="222" x="263" y="415.5"/><ellipse cx="345.25" cy="431.5" fill="#ADD1B2" rx="11" ry="11" style="stroke: #A80036; stroke-width: 1.0;"/><path d="M347.5938,427.1719 L347.7656,427.25 C347.9844,426.9375 348.1875,426.8438 348.4844,426.8438 C348.7813,426.8438 349.0625,426.9844 349.2188,427.25 C349.3125,427.4063 349.3281,427.5313 349.3281,427.9688 L349.3281,429.3906 C349.3281,429.8125 349.2969,430 349.1875,430.1563 C349.0156,430.375 348.75,430.5156 348.4844,430.5156 C348.2656,430.5156 348.0313,430.4063 347.8906,430.2656 C347.75,430.1406 347.7188,430.0156 347.6563,429.6094 C347.5625,429.2031 347.3906,428.9844 346.9063,428.7031 C346.4375,428.4531 345.8281,428.2969 345.25,428.2969 C343.5156,428.2969 342.2656,429.6094 342.2656,431.3906 L342.2656,432.4844 C342.2656,434.1875 343.5625,435.2813 345.6094,435.2813 C346.375,435.2813 347.0625,435.1563 347.4844,434.8906 C347.6719,434.7969 347.6719,434.7969 348.125,434.3125 C348.3125,434.125 348.5156,434.0469 348.7344,434.0469 C349.2031,434.0469 349.5938,434.4375 349.5938,434.8906 C349.5938,435.2813 349.2656,435.7344 348.6875,436.1406 C347.9375,436.6875 346.7813,436.9844 345.5625,436.9844 C342.6719,436.9844 340.5625,435.0938 340.5625,432.5156 L340.5625,431.3906 C340.5625,428.6719 342.5625,426.5938 345.1875,426.5938 C346.0625,426.5938 346.6563,426.7344 347.5938,427.1719 Z "/><text fill="#000000" font-family="sans-serif" font-size="12" lengthAdjust="spacingAndGlyphs" textLength="45" x="365.75" y="435.6543">Special</text><line style="stroke: #A80036; stroke-width: 1.5;" x1="264" x2="484" y1="447.5" y2="447.5"/><text fill="#000000" font-family="sans-serif" font-size="11" lengthAdjust="spacingAndGlyphs" textLength="75" x="269" y="461.7104">Name: String</text><text fill="#000000" font-family="sans-serif" font-size="11" font-style="italic" lengthAdjust="spacingAndGlyphs" textLength="81" x="352" y="461.7104">from Namable</text><text fill="#000000" font-family="sans-serif" font-size="11" lengthAdjust="spacingAndGlyphs" textLength="106" x="269" y="474.5151">Description: String</text><text fill="#000000" font-family="sans-serif" font-size="11" font-style="italic" lengthAdjust="spacingAndGlyphs" textLength="81" x="383" y="474.5151">from Namable</text><text fill="#000000" font-family="sans-serif" font-size="11" lengthAdjust="spacingAndGlyphs" textLength="117" x="269" y="487.3198">Source: BoughtFrom</text><text fill="#000000" font-family="sans-serif" font-size="11" font-style="italic" lengthAdjust="spacingAndGlyphs" textLength="77" x="394" y="487.3198">from Buyable</text><text fill="#000000" font-family="sans-serif" font-size="11" lengthAdjust="spacingAndGlyphs" textLength="54" x="269" y="500.1245">Stat: Stat</text><text fill="#000000" font-family="sans-serif" font-size="11" font-style="italic" lengthAdjust="spacingAndGlyphs" textLength="77" x="331" y="500.1245">from Buyable</text><text fill="#000000" font-family="sans-serif" font-size="11" lengthAdjust="spacingAndGlyphs" textLength="94" x="269" y="512.9292">Bought: Boolean</text><text fill="#000000" font-family="sans-serif" font-size="11" font-style="italic" lengthAdjust="spacingAndGlyphs" textLength="77" x="371" y="512.9292">from Buyable</text><text fill="#000000" font-family="sans-serif" font-size="11" lengthAdjust="spacingAndGlyphs" textLength="91" x="269" y="525.7339">Skilled: Boolean</text><text fill="#000000" font-family="sans-serif" font-size="11" font-style="italic" lengthAdjust="spacingAndGlyphs" textLength="77" x="368" y="525.7339">from Buyable</text><text fill="#000000" font-family="sans-serif" font-size="11" lengthAdjust="spacingAndGlyphs" textLength="125" x="269" y="538.5386">Professional: Boolean</text><text fill="#000000" font-family="sans-serif" font-size="11" font-style="italic" lengthAdjust="spacingAndGlyphs" textLength="77" x="402" y="538.5386">from Buyable</text><text fill="#000000" font-family="sans-serif" font-size="11" lengthAdjust="spacingAndGlyphs" textLength="93" x="269" y="551.3433">Master: Boolean</text><text fill="#000000" font-family="sans-serif" font-size="11" font-style="italic" lengthAdjust="spacingAndGlyphs" textLength="77" x="370" y="551.3433">from Buyable</text><line style="stroke: #A80036; stroke-width: 1.5;" x1="264" x2="484" y1="557.9375" y2="557.9375"/><!--class Feat--><rect fill="#FEFECE" filter="url(#f5cok0wcfggr3)" height="112.0234" id="Feat" style="stroke: #A80036; stroke-width: 1.5;" width="207" x="777.5" y="434.5"/><ellipse cx="860.75" cy="450.5" fill="#ADD1B2" rx="11" ry="11" style="stroke: #A80036; stroke-width: 1.0;"/><path d="M863.0938,446.1719 L863.2656,446.25 C863.4844,445.9375 863.6875,445.8438 863.9844,445.8438 C864.2813,445.8438 864.5625,445.9844 864.7188,446.25 C864.8125,446.4063 864.8281,446.5313 864.8281,446.9688 L864.8281,448.3906 C864.8281,448.8125 864.7969,449 864.6875,449.1563 C864.5156,449.375 864.25,449.5156 863.9844,449.5156 C863.7656,449.5156 863.5313,449.4063 863.3906,449.2656 C863.25,449.1406 863.2188,449.0156 863.1563,448.6094 C863.0625,448.2031 862.8906,447.9844 862.4063,447.7031 C861.9375,447.4531 861.3281,447.2969 860.75,447.2969 C859.0156,447.2969 857.7656,448.6094 857.7656,450.3906 L857.7656,451.4844 C857.7656,453.1875 859.0625,454.2813 861.1094,454.2813 C861.875,454.2813 862.5625,454.1563 862.9844,453.8906 C863.1719,453.7969 863.1719,453.7969 863.625,453.3125 C863.8125,453.125 864.0156,453.0469 864.2344,453.0469 C864.7031,453.0469 865.0938,453.4375 865.0938,453.8906 C865.0938,454.2813 864.7656,454.7344 864.1875,455.1406 C863.4375,455.6875 862.2813,455.9844 861.0625,455.9844 C858.1719,455.9844 856.0625,454.0938 856.0625,451.5156 L856.0625,450.3906 C856.0625,447.6719 858.0625,445.5938 860.6875,445.5938 C861.5625,445.5938 862.1563,445.7344 863.0938,446.1719 Z "/><text fill="#000000" font-family="sans-serif" font-size="12" lengthAdjust="spacingAndGlyphs" textLength="28" x="881.25" y="454.6543">Feat</text><line style="stroke: #A80036; stroke-width: 1.5;" x1="778.5" x2="983.5" y1="466.5" y2="466.5"/><text fill="#000000" font-family="sans-serif" font-size="11" lengthAdjust="spacingAndGlyphs" textLength="80" x="783.5" y="480.7104">Rank: Number</text><text fill="#000000" font-family="sans-serif" font-size="11" lengthAdjust="spacingAndGlyphs" textLength="67" x="783.5" y="493.5151">XP: Number</text><text fill="#000000" font-family="sans-serif" font-size="11" lengthAdjust="spacingAndGlyphs" textLength="54" x="783.5" y="506.3198">Stat: Stat</text><text fill="#000000" font-family="sans-serif" font-size="11" lengthAdjust="spacingAndGlyphs" textLength="75" x="783.5" y="519.1245">Name: String</text><text fill="#000000" font-family="sans-serif" font-size="11" font-style="italic" lengthAdjust="spacingAndGlyphs" textLength="81" x="866.5" y="519.1245">from Namable</text><text fill="#000000" font-family="sans-serif" font-size="11" lengthAdjust="spacingAndGlyphs" textLength="106" x="783.5" y="531.9292">Description: String</text><text fill="#000000" font-family="sans-serif" font-size="11" font-style="italic" lengthAdjust="spacingAndGlyphs" textLength="81" x="897.5" y="531.9292">from Namable</text><line style="stroke: #A80036; stroke-width: 1.5;" x1="778.5" x2="983.5" y1="538.5234" y2="538.5234"/><!--class Statistic--><rect fill="#FEFECE" filter="url(#f5cok0wcfggr3)" height="163.2422" id="Statistic" style="stroke: #A80036; stroke-width: 1.5;" width="226" x="1020" y="409"/><ellipse cx="1103.25" cy="425" fill="#ADD1B2" rx="11" ry="11" style="stroke: #A80036; stroke-width: 1.0;"/><path d="M1105.5938,420.6719 L1105.7656,420.75 C1105.9844,420.4375 1106.1875,420.3438 1106.4844,420.3438 C1106.7813,420.3438 1107.0625,420.4844 1107.2188,420.75 C1107.3125,420.9063 1107.3281,421.0313 1107.3281,421.4688 L1107.3281,422.8906 C1107.3281,423.3125 1107.2969,423.5 1107.1875,423.6563 C1107.0156,423.875 1106.75,424.0156 1106.4844,424.0156 C1106.2656,424.0156 1106.0313,423.9063 1105.8906,423.7656 C1105.75,423.6406 1105.7188,423.5156 1105.6563,423.1094 C1105.5625,422.7031 1105.3906,422.4844 1104.9063,422.2031 C1104.4375,421.9531 1103.8281,421.7969 1103.25,421.7969 C1101.5156,421.7969 1100.2656,423.1094 1100.2656,424.8906 L1100.2656,425.9844 C1100.2656,427.6875 1101.5625,428.7813 1103.6094,428.7813 C1104.375,428.7813 1105.0625,428.6563 1105.4844,428.3906 C1105.6719,428.2969 1105.6719,428.2969 1106.125,427.8125 C1106.3125,427.625 1106.5156,427.5469 1106.7344,427.5469 C1107.2031,427.5469 1107.5938,427.9375 1107.5938,428.3906 C1107.5938,428.7813 1107.2656,429.2344 1106.6875,429.6406 C1105.9375,430.1875 1104.7813,430.4844 1103.5625,430.4844 C1100.6719,430.4844 1098.5625,428.5938 1098.5625,426.0156 L1098.5625,424.8906 C1098.5625,422.1719 1100.5625,420.0938 1103.1875,420.0938 C1104.0625,420.0938 1104.6563,420.2344 1105.5938,420.6719 Z "/><text fill="#000000" font-family="sans-serif" font-size="12" lengthAdjust="spacingAndGlyphs" textLength="51" x="1123.75" y="429.1543">Statistic</text><line style="stroke: #A80036; stroke-width: 1.5;" x1="1021" x2="1245" y1="441" y2="441"/><text fill="#000000" font-family="sans-serif" font-size="11" lengthAdjust="spacingAndGlyphs" textLength="54" x="1026" y="455.2104">Stat: Stat</text><text fill="#000000" font-family="sans-serif" font-size="11" lengthAdjust="spacingAndGlyphs" textLength="106" x="1026" y="468.0151">Description: String</text><text fill="#000000" font-family="sans-serif" font-size="11" lengthAdjust="spacingAndGlyphs" textLength="36" x="1026" y="480.8198">XP: XP</text><text fill="#000000" font-family="sans-serif" font-size="11" lengthAdjust="spacingAndGlyphs" textLength="84" x="1026" y="493.6245">Value: Number</text><line style="stroke: #A80036; stroke-width: 1.0;" x1="1021" x2="1245" y1="500.2188" y2="500.2188"/><text fill="#000000" font-family="sans-serif" font-size="11" font-weight="bold" lengthAdjust="spacingAndGlyphs" textLength="72" x="1026" y="514.4292">description</text><text fill="#000000" font-family="sans-serif" font-size="11" lengthAdjust="spacingAndGlyphs" textLength="89" x="1098" y="514.4292">: A statistic is a</text><text fill="#000000" font-family="sans-serif" font-size="11" lengthAdjust="spacingAndGlyphs" textLength="214" x="1026" y="527.2339">base value for a character's potential</text><text fill="#000000" font-family="sans-serif" font-size="11" lengthAdjust="spacingAndGlyphs" textLength="209" x="1026" y="540.0386">Statistics serve as a base bonus for</text><text fill="#000000" font-family="sans-serif" font-size="11" lengthAdjust="spacingAndGlyphs" textLength="91" x="1026" y="552.8433">certain abilities.</text><text fill="#000000" font-family="sans-serif" font-size="11" lengthAdjust="spacingAndGlyphs" textLength="0" x="1030" y="565.6479"/><!--class Character--><rect fill="#FEFECE" filter="url(#f5cok0wcfggr3)" height="163.2422" id="Character" style="stroke: #A80036; stroke-width: 1.5;" width="133" x="890.5" y="662"/><ellipse cx="923.05" cy="678" fill="#ADD1B2" rx="11" ry="11" style="stroke: #A80036; stroke-width: 1.0;"/><path d="M925.3938,673.6719 L925.5656,673.75 C925.7844,673.4375 925.9875,673.3438 926.2844,673.3438 C926.5813,673.3438 926.8625,673.4844 927.0188,673.75 C927.1125,673.9063 927.1281,674.0313 927.1281,674.4688 L927.1281,675.8906 C927.1281,676.3125 927.0969,676.5 926.9875,676.6563 C926.8156,676.875 926.55,677.0156 926.2844,677.0156 C926.0656,677.0156 925.8313,676.9063 925.6906,676.7656 C925.55,676.6406 925.5188,676.5156 925.4563,676.1094 C925.3625,675.7031 925.1906,675.4844 924.7063,675.2031 C924.2375,674.9531 923.6281,674.7969 923.05,674.7969 C921.3156,674.7969 920.0656,676.1094 920.0656,677.8906 L920.0656,678.9844 C920.0656,680.6875 921.3625,681.7813 923.4094,681.7813 C924.175,681.7813 924.8625,681.6563 925.2844,681.3906 C925.4719,681.2969 925.4719,681.2969 925.925,680.8125 C926.1125,680.625 926.3156,680.5469 926.5344,680.5469 C927.0031,680.5469 927.3938,680.9375 927.3938,681.3906 C927.3938,681.7813 927.0656,682.2344 926.4875,682.6406 C925.7375,683.1875 924.5813,683.4844 923.3625,683.4844 C920.4719,683.4844 918.3625,681.5938 918.3625,679.0156 L918.3625,677.8906 C918.3625,675.1719 920.3625,673.0938 922.9875,673.0938 C923.8625,673.0938 924.4563,673.2344 925.3938,673.6719 Z "/><text fill="#000000" font-family="sans-serif" font-size="12" lengthAdjust="spacingAndGlyphs" textLength="62" x="940.95" y="682.1543">Character</text><line style="stroke: #A80036; stroke-width: 1.5;" x1="891.5" x2="1022.5" y1="694" y2="694"/><text fill="#000000" font-family="sans-serif" font-size="11" lengthAdjust="spacingAndGlyphs" textLength="75" x="896.5" y="708.2104">Name: String</text><text fill="#000000" font-family="sans-serif" font-size="11" lengthAdjust="spacingAndGlyphs" textLength="85" x="896.5" y="721.0151">Skills: List Skill</text><text fill="#000000" font-family="sans-serif" font-size="11" lengthAdjust="spacingAndGlyphs" textLength="121" x="896.5" y="733.8198">Specials: List Special</text><text fill="#000000" font-family="sans-serif" font-size="11" lengthAdjust="spacingAndGlyphs" textLength="87" x="896.5" y="746.6245">Feats: List Feat</text><text fill="#000000" font-family="sans-serif" font-size="11" lengthAdjust="spacingAndGlyphs" textLength="103" x="896.5" y="759.4292">Strength: Statistic</text><text fill="#000000" font-family="sans-serif" font-size="11" lengthAdjust="spacingAndGlyphs" textLength="87" x="896.5" y="772.2339">Agility: Statistic</text><text fill="#000000" font-family="sans-serif" font-size="11" lengthAdjust="spacingAndGlyphs" textLength="99" x="896.5" y="785.0386">Intuition: Statistic</text><text fill="#000000" font-family="sans-serif" font-size="11" lengthAdjust="spacingAndGlyphs" textLength="114" x="896.5" y="797.8433">Perception: Statistic</text><text fill="#000000" font-family="sans-serif" font-size="11" lengthAdjust="spacingAndGlyphs" textLength="109" x="896.5" y="810.6479">Charisma: Statistic</text><line style="stroke: #A80036; stroke-width: 1.5;" x1="891.5" x2="1022.5" y1="817.2422" y2="817.2422"/><!--link Stat to Buyable--><path d="M501.983,119.783 C496.721,124.775 491.027,129.347 485,133 C435.03,163.284 406.158,131.415 357,163 C339.91,173.981 324.885,189.685 312.445,205.747 " fill="none" id="Stat-Buyable" style="stroke: #A80036; stroke-width: 1.0;"/><polygon fill="#A80036" points="309.339,209.836,317.9693,205.0906,312.3643,205.8551,311.5998,200.2501,309.339,209.836" style="stroke: #A80036; stroke-width: 1.0;"/><text fill="#000000" font-family="sans-serif" font-size="13" lengthAdjust="spacingAndGlyphs" textLength="27" x="358" y="176.0669">Stat</text><!--link Stat to Skill--><path d="M501.81,120.323 C496.611,125.157 490.979,129.543 485,133 C355.737,207.726 256.828,98.08 158,210 C115.145,258.532 105.586,331.338 106.379,390.475 " fill="none" id="Stat-Skill" style="stroke: #A80036; stroke-width: 1.0;"/><polygon fill="#A80036" points="106.479,395.791,110.3112,386.7183,106.3861,390.7919,102.3126,386.8668,106.479,395.791" style="stroke: #A80036; stroke-width: 1.0;"/><text fill="#000000" font-family="sans-serif" font-size="13" lengthAdjust="spacingAndGlyphs" textLength="27" x="159" y="277.0669">Stat</text><!--link Namable to Skill--><path d="M490.342,309.639 C477.525,318.821 463.17,328.044 449,335 C364.433,376.515 330.434,354.215 246,396 C245.907,396.046 245.814,396.092 245.721,396.138 " fill="none" id="Namable-Skill" style="stroke: #A80036; stroke-width: 1.0;"/><polygon fill="none" points="249.085,402.277,228.152,405.566,242.465,389.941,249.085,402.277" style="stroke: #A80036; stroke-width: 1.0;"/><!--link Buyable to Skill--><path d="M228.505,335.108 C218.453,349.027 207.483,364.215 196.475,379.458 " fill="none" id="Buyable-Skill" style="stroke: #A80036; stroke-width: 1.0;"/><polygon fill="none" points="201.94,383.846,184.556,395.962,190.591,375.65,201.94,383.846" style="stroke: #A80036; stroke-width: 1.0;"/><!--link Stat to Resistance--><path d="M574.182,126.892 C588.408,151.386 603.374,181.137 612,210 C631.567,275.477 635.379,353.278 634.835,410.15 " fill="none" id="Stat-Resistance" style="stroke: #A80036; stroke-width: 1.0;"/><polygon fill="#A80036" points="634.775,415.241,638.8827,406.2896,634.835,410.2414,630.8833,406.1937,634.775,415.241" style="stroke: #A80036; stroke-width: 1.0;"/><text fill="#000000" font-family="sans-serif" font-size="13" lengthAdjust="spacingAndGlyphs" textLength="27" x="633" y="277.0669">Stat</text><!--link Namable to Resistance--><path d="M565.575,309.833 C577.788,325.892 591.048,345.525 600,365 C604.45,374.681 608.319,385.09 611.669,395.618 " fill="none" id="Namable-Resistance" style="stroke: #A80036; stroke-width: 1.0;"/><polygon fill="none" points="618.5,394.043,617.319,415.199,605.049,397.924,618.5,394.043" style="stroke: #A80036; stroke-width: 1.0;"/><!--link Buyable to Resistance--><path d="M341.505,319.044 C350.631,324.62 359.96,330.079 369,335 C426.473,366.284 446.509,362.974 503,396 C507.629,398.706 512.295,401.542 516.965,404.472 " fill="none" id="Buyable-Resistance" style="stroke: #A80036; stroke-width: 1.0;"/><polygon fill="none" points="520.878,398.667,533.837,415.431,513.252,410.407,520.878,398.667" style="stroke: #A80036; stroke-width: 1.0;"/><!--link Stat to Special--><path d="M501.855,113.37 C474.268,146.113 439.438,189.421 430,210 C400.761,273.751 386.733,352.577 380.035,410.249 " fill="none" id="Stat-Special" style="stroke: #A80036; stroke-width: 1.0;"/><polygon fill="#A80036" points="379.449,415.411,384.4391,406.9199,380.0132,410.4429,376.4902,406.0171,379.449,415.411" style="stroke: #A80036; stroke-width: 1.0;"/><text fill="#000000" font-family="sans-serif" font-size="13" lengthAdjust="spacingAndGlyphs" textLength="27" x="431" y="277.0669">Stat</text><!--link Namable to Special--><path d="M508.052,309.654 C489.833,334.096 464.917,367.524 441.506,398.932 " fill="none" id="Namable-Special" style="stroke: #A80036; stroke-width: 1.0;"/><polygon fill="none" points="447.01,403.262,429.445,415.114,435.785,394.895,447.01,403.262" style="stroke: #A80036; stroke-width: 1.0;"/><!--link Buyable to Special--><path d="M301.807,335.108 C310.781,354.299 320.883,375.903 330.624,396.736 " fill="none" id="Buyable-Special" style="stroke: #A80036; stroke-width: 1.0;"/><polygon fill="none" points="337.109,394.078,339.239,415.16,324.427,400.008,337.109,394.078" style="stroke: #A80036; stroke-width: 1.0;"/><!--link Stat to Feat--><path d="M574.148,107.532 C601.104,134.915 638.393,173.9 669,210 C731.214,283.378 797.366,372.616 838.91,430.205 " fill="none" id="Stat-Feat" style="stroke: #A80036; stroke-width: 1.0;"/><polygon fill="#A80036" points="841.858,434.296,839.8411,424.6559,838.9347,430.2396,833.3509,429.3332,841.858,434.296" style="stroke: #A80036; stroke-width: 1.0;"/><text fill="#000000" font-family="sans-serif" font-size="13" lengthAdjust="spacingAndGlyphs" textLength="27" x="768" y="277.0669">Stat</text><!--link Namable to Feat--><path d="M582.05,309.799 C594.392,318.574 607.917,327.558 621,335 C679.642,368.356 701.987,361.562 760,396 C773.095,403.774 786.397,412.758 799.156,422.02 " fill="none" id="Namable-Feat" style="stroke: #A80036; stroke-width: 1.0;"/><polygon fill="none" points="803.725,416.697,815.552,434.278,795.342,427.909,803.725,416.697" style="stroke: #A80036; stroke-width: 1.0;"/><!--link Stat to Statistic--><path d="M574.289,87.238 C626.877,110.733 726.454,157.838 804,210 C891.038,268.547 981.246,346.621 1045.14,405.37 " fill="none" id="Stat-Statistic" style="stroke: #A80036; stroke-width: 1.0;"/><polygon fill="#A80036" points="1048.93,408.857,1045.0185,399.8182,1045.2517,405.4702,1039.5997,405.7034,1048.93,408.857" style="stroke: #A80036; stroke-width: 1.0;"/><text fill="#000000" font-family="sans-serif" font-size="13" lengthAdjust="spacingAndGlyphs" textLength="27" x="965" y="277.0669">Stat</text><!--link Statistic to Character--><path d="M1025.66,572.088 C1017.82,576.732 1009.89,581.093 1002,585 C961.563,605.03 931.783,578.682 905,615 C895.694,627.619 894.57,642.14 898.046,656.761 " fill="none" id="Statistic-Character" style="stroke: #A80036; stroke-width: 1.0;"/><polygon fill="#A80036" points="899.395,661.721,900.8914,651.9865,898.0821,656.8965,893.1721,654.0872,899.395,661.721" style="stroke: #A80036; stroke-width: 1.0;"/><text fill="#000000" font-family="sans-serif" font-size="13" lengthAdjust="spacingAndGlyphs" textLength="56" x="906" y="628.0669">Strength</text><!--link Statistic to Character--><path d="M1037.39,572.077 C1024.74,585.53 1012.79,600.014 1003,615 C994.617,627.833 987.522,642.389 981.603,656.962 " fill="none" id="Statistic-Character-1" style="stroke: #A80036; stroke-width: 1.0;"/><polygon fill="#A80036" points="979.64,661.902,986.6822,655.0167,981.4873,657.2558,979.2482,652.0609,979.64,661.902" style="stroke: #A80036; stroke-width: 1.0;"/><text fill="#000000" font-family="sans-serif" font-size="13" lengthAdjust="spacingAndGlyphs" textLength="38" x="1004" y="628.0669">Agility</text><!--link Statistic to Character--><path d="M1086.15,572.204 C1073.92,592.091 1060.39,613.098 1047,632 C1040.73,640.848 1033.97,649.906 1027.07,658.841 " fill="none" id="Statistic-Character-2" style="stroke: #A80036; stroke-width: 1.0;"/><polygon fill="#A80036" points="1023.67,663.217,1032.3522,658.5673,1026.7391,659.2698,1026.0366,653.6567,1023.67,663.217" style="stroke: #A80036; stroke-width: 1.0;"/><text fill="#000000" font-family="sans-serif" font-size="13" lengthAdjust="spacingAndGlyphs" textLength="51" x="1058" y="628.0669">Intuition</text><!--link Statistic to Character--><path d="M1136.12,572.214 C1133.86,592.84 1128.62,614.198 1118,632 C1097.31,666.691 1061,693.027 1028.1,711.27 " fill="none" id="Statistic-Character-3" style="stroke: #A80036; stroke-width: 1.0;"/><polygon fill="#A80036" points="1023.69,713.678,1033.5076,712.8938,1028.0829,711.29,1029.6867,705.8652,1023.69,713.678" style="stroke: #A80036; stroke-width: 1.0;"/><text fill="#000000" font-family="sans-serif" font-size="13" lengthAdjust="spacingAndGlyphs" textLength="68" x="1125" y="628.0669">Perception</text><!--link Statistic to Character--><path d="M1202.05,572.047 C1211.36,592.14 1214.09,613.282 1202,632 C1164.03,690.781 1086.46,718.614 1028.73,731.586 " fill="none" id="Statistic-Character-4" style="stroke: #A80036; stroke-width: 1.0;"/><polygon fill="#A80036" points="1023.55,732.7203,1033.1981,734.6988,1028.4339,731.6489,1031.4838,726.8846,1023.55,732.7203" style="stroke: #A80036; stroke-width: 1.0;"/><text fill="#000000" font-family="sans-serif" font-size="13" lengthAdjust="spacingAndGlyphs" textLength="61" x="1209" y="628.0669">Charisma</text><!--link Skill to Character--><path d="M228.269,576.184 C234.145,579.37 240.072,582.334 246,585 C466.288,684.06 753.753,722.983 885.451,736.3583 " fill="none" id="Skill-Character" style="stroke: #A80036; stroke-width: 1.0;"/><polygon fill="#A80036" points="890.453,736.8617,881.8995,731.9793,885.4782,736.3603,881.0972,739.939,890.453,736.8617" style="stroke: #A80036; stroke-width: 1.0;"/><text fill="#000000" font-family="sans-serif" font-size="13" lengthAdjust="spacingAndGlyphs" textLength="51" x="357" y="628.0669">List Skill</text><text fill="#000000" font-family="sans-serif" font-size="13" lengthAdjust="spacingAndGlyphs" textLength="8" x="236.0136" y="578.5133">0</text><text fill="#000000" font-family="sans-serif" font-size="13" lengthAdjust="spacingAndGlyphs" textLength="7" x="875.3538" y="749.0219">*</text><!--link Special to Character--><path d="M469.949,565.622 C480.82,572.626 491.963,579.246 503,585 C631.095,651.778 793.607,700.276 885.377,724.672 " fill="none" id="Special-Character" style="stroke: #A80036; stroke-width: 1.0;"/><polygon fill="#A80036" points="890.234,725.9582,882.5577,719.7877,885.4006,724.6784,880.51,727.5212,890.234,725.9582" style="stroke: #A80036; stroke-width: 1.0;"/><text fill="#000000" font-family="sans-serif" font-size="13" lengthAdjust="spacingAndGlyphs" textLength="72" x="599" y="628.0669">List Special</text><text fill="#000000" font-family="sans-serif" font-size="13" lengthAdjust="spacingAndGlyphs" textLength="8" x="471.4312" y="586.1936">0</text><text fill="#000000" font-family="sans-serif" font-size="13" lengthAdjust="spacingAndGlyphs" textLength="7" x="875.5487" y="720.2799">*</text><!--link Feat to Character--><path d="M826.678,546.772 C807.968,572.609 794.873,603.823 809,632 C825.369,664.649 856.469,690.12 885.951,708.336 " fill="none" id="Feat-Character" style="stroke: #A80036; stroke-width: 1.0;"/><polygon fill="#A80036" points="890.288,710.971,884.6729,702.8796,886.0147,708.375,880.5193,709.7169,890.288,710.971" style="stroke: #A80036; stroke-width: 1.0;"/><text fill="#000000" font-family="sans-serif" font-size="13" lengthAdjust="spacingAndGlyphs" textLength="54" x="810" y="628.0669">List Feat</text><text fill="#000000" font-family="sans-serif" font-size="13" lengthAdjust="spacingAndGlyphs" textLength="8" x="811.57" y="566.6178">0</text><text fill="#000000" font-family="sans-serif" font-size="13" lengthAdjust="spacingAndGlyphs" textLength="7" x="875.6086" y="703.6537">*</text><!--
@startuml
enum undefined {
	Racial Package
	Professional Package
	XP
	Gift
	Other
}
abstract "Stat" as Stat {
	Strength 
	Agility 
	Intuition 
	Perception 
	Charisma 
	None 
}
class "Namable" as Namable  {
	Name: String 
	Description: String 
}
class "Buyable" as Buyable  {
	Source: BoughtFrom 
	Stat: Stat 
	Bought: Boolean 
	Skilled: Boolean 
	Professional: Boolean 
	Master: Boolean 
}
Stat - -> Buyable : Stat
class "Skill " as Skill  {
	Name: String  <i>from Namable</i>
	Description: String  <i>from Namable</i>
	Source: BoughtFrom  <i>from Buyable</i>
	Stat: Stat  <i>from Buyable</i>
	Bought: Boolean  <i>from Buyable</i>
	Skilled: Boolean  <i>from Buyable</i>
	Professional: Boolean  <i>from Buyable</i>
	Master: Boolean  <i>from Buyable</i>
- -
  <b>description</b>: A skill is
 something a character can do
    
}
Stat - -> Skill : Stat
Namable - -|> Skill
Buyable - -|> Skill
class "Resistance " as Resistance  {
	Name: String  <i>from Namable</i>
	Description: String  <i>from Namable</i>
	Source: BoughtFrom  <i>from Buyable</i>
	Stat: Stat  <i>from Buyable</i>
	Bought: Boolean  <i>from Buyable</i>
	Skilled: Boolean  <i>from Buyable</i>
	Professional: Boolean  <i>from Buyable</i>
	Master: Boolean  <i>from Buyable</i>
}
Stat - -> Resistance : Stat
Namable - -|> Resistance
Buyable - -|> Resistance
class "Special " as Special  {
	Name: String  <i>from Namable</i>
	Description: String  <i>from Namable</i>
	Source: BoughtFrom  <i>from Buyable</i>
	Stat: Stat  <i>from Buyable</i>
	Bought: Boolean  <i>from Buyable</i>
	Skilled: Boolean  <i>from Buyable</i>
	Professional: Boolean  <i>from Buyable</i>
	Master: Boolean  <i>from Buyable</i>
}
Stat - -> Special : Stat
Namable - -|> Special
Buyable - -|> Special
class "Feat " as Feat  {
	Rank: Number 
	XP: Number 
	Stat: Stat 
	Name: String  <i>from Namable</i>
	Description: String  <i>from Namable</i>
}
Stat - -> Feat : Stat
Namable - -|> Feat
class "Statistic" as Statistic  {
	Stat: Stat 
	Description: String 
	XP: XP 
	Value: Number 
- -
  <b>description</b>: A statistic is a
 base value for a character's potential
 Statistics serve as a base bonus for
 certain abilities.
    
}
Stat - -> Statistic : Stat
class "Character" as Character  {
	Name: String 
	Skills: List Skill
	Specials: List Special
	Feats: List Feat
	Strength: Statistic 
	Agility: Statistic 
	Intuition: Statistic 
	Perception: Statistic 
	Charisma: Statistic 
}
Statistic - -> Character : Strength
Statistic - -> Character : Agility
Statistic - -> Character : Intuition
Statistic - -> Character : Perception
Statistic - -> Character : Charisma
Skill "0" - -> "*" Character : List Skill
Special "0" - -> "*" Character : List Special
Feat "0" - -> "*" Character : List Feat
@enduml

PlantUML version 1.2019.05beta2(Unknown compile time)
(GPL source distribution)
Java Runtime: Java(TM) SE Runtime Environment
JVM: Java HotSpot(TM) 64-Bit Server VM
Java Version: 1.7.0_25-b15
Operating System: Linux
Default Encoding: UTF-8
Language: en
Country: US
--></g></svg>