<?xml version="1.0" encoding="UTF-8" standalone="no"?><svg xmlns="http://www.w3.org/2000/svg" xmlns:xlink="http://www.w3.org/1999/xlink" contentScriptType="application/ecmascript" contentStyleType="text/css" height="797px" preserveAspectRatio="none" style="width:1251px;height:797px;" version="1.1" viewBox="0 0 1251 797" width="1251px" zoomAndPan="magnify"><defs><filter height="300%" id="fsisgdd7fezqr" width="300%" x="-1" y="-1"><feGaussianBlur result="blurOut" stdDeviation="2.0"/><feColorMatrix in="blurOut" result="blurOut2" type="matrix" values="0 0 0 0 0 0 0 0 0 0 0 0 0 0 0 0 0 0 .4 0"/><feOffset dx="4.0" dy="4.0" in="blurOut2" result="blurOut3"/><feBlend in="SourceGraphic" in2="blurOut3" mode="normal"/></filter></defs><g><!--class BoughtFrom--><rect fill="#FEFECE" filter="url(#fsisgdd7fezqr)" height="112.0234" id="BoughtFrom" style="stroke: #A80036; stroke-width: 1.5;" width="134" x="186.313" y="14.5"/><ellipse cx="213.013" cy="30.5" fill="#EB937F" rx="11" ry="11" style="stroke: #A80036; stroke-width: 1.0;"/><path d="M211.3099,31.375 L211.3099,33.7969 L215.6692,33.7969 L215.6692,32.9219 C215.6692,32.4375 215.7005,32.2969 215.8099,32.1406 C215.9817,31.8906 216.2474,31.7813 216.513,31.7813 C216.7942,31.7813 217.0755,31.9375 217.2474,32.1875 C217.3255,32.3438 217.3567,32.4844 217.3567,32.9219 L217.3567,35.5 L209.3567,35.5 C208.9661,35.5 208.7317,35.4531 208.5911,35.3281 C208.3724,35.1719 208.2317,34.9219 208.2317,34.6563 C208.2317,34.3594 208.388,34.0938 208.638,33.9219 C208.7942,33.8125 208.9505,33.7969 209.3567,33.7969 L209.6067,33.7969 L209.6067,27.2813 L209.3567,27.2813 C208.9349,27.2813 208.7474,27.25 208.5911,27.1406 C208.3724,26.9688 208.2317,26.7188 208.2317,26.4375 C208.2317,26.1563 208.388,25.8594 208.638,25.7031 C208.7942,25.6094 208.9192,25.5938 209.3567,25.5938 L216.9817,25.5938 L216.9817,28.1406 C216.9817,28.6094 216.9505,28.75 216.8411,28.9219 C216.6692,29.1406 216.4036,29.2813 216.138,29.2813 C215.8567,29.2813 215.5755,29.125 215.4036,28.875 C215.3255,28.7188 215.2942,28.5469 215.2942,28.1406 L215.2942,27.2813 L211.3099,27.2813 L211.3099,29.6875 L212.763,29.6875 L212.763,29.5625 C212.763,29.1094 212.7942,28.9531 212.9036,28.7813 C213.0755,28.5625 213.3411,28.4219 213.5911,28.4219 C214.0442,28.4219 214.3567,28.7344 214.4192,29.2031 C214.4349,29.3594 214.4349,29.4063 214.4349,29.5625 L214.4349,31.4844 C214.4349,31.9375 214.4036,32.0938 214.2786,32.25 C214.1224,32.4688 213.8567,32.6094 213.6067,32.6094 C213.3099,32.6094 213.0286,32.4531 212.8724,32.2031 C212.7942,32.0469 212.763,31.8906 212.763,31.4844 L212.763,31.375 Z "/><text fill="#000000" font-family="sans-serif" font-size="12" lengthAdjust="spacingAndGlyphs" textLength="76" x="229.613" y="34.6543">BoughtFrom</text><line style="stroke: #A80036; stroke-width: 1.5;" x1="187.313" x2="319.313" y1="46.5" y2="46.5"/><text fill="#000000" font-family="sans-serif" font-size="11" lengthAdjust="spacingAndGlyphs" textLength="84" x="192.313" y="60.7104">Racial Package</text><text fill="#000000" font-family="sans-serif" font-size="11" lengthAdjust="spacingAndGlyphs" textLength="122" x="192.313" y="73.5151">Professional Package</text><text fill="#000000" font-family="sans-serif" font-size="11" lengthAdjust="spacingAndGlyphs" textLength="14" x="192.313" y="86.3198">XP</text><text fill="#000000" font-family="sans-serif" font-size="11" lengthAdjust="spacingAndGlyphs" textLength="20" x="192.313" y="99.1245">Gift</text><text fill="#000000" font-family="sans-serif" font-size="11" lengthAdjust="spacingAndGlyphs" textLength="32" x="192.313" y="111.9292">Other</text><line style="stroke: #A80036; stroke-width: 1.5;" x1="187.313" x2="319.313" y1="118.5234" y2="118.5234"/><!--class Stat--><rect fill="#FEFECE" filter="url(#fsisgdd7fezqr)" height="124.8281" id="Stat" style="stroke: #A80036; stroke-width: 1.5;" width="72" x="650.313" y="8"/><ellipse cx="671.613" cy="24" fill="#A9DCDF" rx="11" ry="11" style="stroke: #A80036; stroke-width: 1.0;"/><path d="M673.1911,25.8125 L669.1442,25.8125 L668.7536,26.7969 L669.1442,26.7969 C669.5974,26.7969 669.738,26.8281 669.9099,26.9531 C670.1286,27.125 670.2536,27.375 670.2536,27.6563 C670.2536,27.9375 670.113,28.2344 669.8474,28.375 C669.7224,28.4688 669.5036,28.5 669.1442,28.5 L666.8786,28.5 C666.1286,28.5 665.7536,28.2188 665.7536,27.6563 C665.7536,27.3594 665.9099,27.0781 666.1599,26.9219 C666.3161,26.8125 666.4724,26.7969 666.8942,26.7969 L669.5349,20.2813 L668.4567,20.2813 C668.0192,20.2813 667.8474,20.25 667.6755,20.1406 C667.4567,19.9688 667.3161,19.7188 667.3161,19.4375 C667.3161,19.1563 667.4724,18.875 667.7224,18.7031 C667.8786,18.6094 668.0036,18.5938 668.4567,18.5938 L672.1286,18.5938 L675.5192,26.7969 C675.988,26.7969 676.1442,26.8281 676.3161,26.9688 C676.5349,27.125 676.6755,27.375 676.6755,27.6563 C676.6755,27.9375 676.5192,28.2344 676.2692,28.375 C676.1286,28.4688 675.9099,28.5 675.5505,28.5 L673.1911,28.5 C672.7692,28.5 672.5661,28.4531 672.4255,28.3281 C672.2067,28.1719 672.0661,27.9219 672.0661,27.6563 C672.0661,27.3594 672.2224,27.0781 672.4724,26.9219 C672.6286,26.8125 672.738,26.7969 673.1911,26.7969 L673.5817,26.7969 Z M672.488,24.1094 L671.1599,20.8438 L669.8161,24.1094 Z "/><text fill="#000000" font-family="sans-serif" font-size="12" font-style="italic" lengthAdjust="spacingAndGlyphs" textLength="26" x="687.013" y="28.1543">Stat</text><line style="stroke: #A80036; stroke-width: 1.5;" x1="651.313" x2="721.313" y1="40" y2="40"/><text fill="#000000" font-family="sans-serif" font-size="11" lengthAdjust="spacingAndGlyphs" textLength="49" x="656.313" y="54.2104">Strength</text><text fill="#000000" font-family="sans-serif" font-size="11" lengthAdjust="spacingAndGlyphs" textLength="33" x="656.313" y="67.0151">Agility</text><text fill="#000000" font-family="sans-serif" font-size="11" lengthAdjust="spacingAndGlyphs" textLength="45" x="656.313" y="79.8198">Intuition</text><text fill="#000000" font-family="sans-serif" font-size="11" lengthAdjust="spacingAndGlyphs" textLength="60" x="656.313" y="92.6245">Perception</text><text fill="#000000" font-family="sans-serif" font-size="11" lengthAdjust="spacingAndGlyphs" textLength="55" x="656.313" y="105.4292">Charisma</text><text fill="#000000" font-family="sans-serif" font-size="11" lengthAdjust="spacingAndGlyphs" textLength="29" x="656.313" y="118.2339">None</text><line style="stroke: #A80036; stroke-width: 1.5;" x1="651.313" x2="721.313" y1="124.8281" y2="124.8281"/><!--class Namable--><rect fill="#FEFECE" filter="url(#fsisgdd7fezqr)" height="73.6094" id="Namable" style="stroke: #A80036; stroke-width: 1.5;" width="118" x="566.313" y="235.5"/><ellipse cx="595.263" cy="251.5" fill="#ADD1B2" rx="11" ry="11" style="stroke: #A80036; stroke-width: 1.0;"/><path d="M597.6068,247.1719 L597.7786,247.25 C597.9974,246.9375 598.2005,246.8438 598.4974,246.8438 C598.7943,246.8438 599.0755,246.9844 599.2318,247.25 C599.3255,247.4063 599.3411,247.5313 599.3411,247.9688 L599.3411,249.3906 C599.3411,249.8125 599.3099,250 599.2005,250.1563 C599.0286,250.375 598.763,250.5156 598.4974,250.5156 C598.2786,250.5156 598.0443,250.4063 597.9036,250.2656 C597.763,250.1406 597.7318,250.0156 597.6693,249.6094 C597.5755,249.2031 597.4036,248.9844 596.9193,248.7031 C596.4505,248.4531 595.8411,248.2969 595.263,248.2969 C593.5286,248.2969 592.2786,249.6094 592.2786,251.3906 L592.2786,252.4844 C592.2786,254.1875 593.5755,255.2813 595.6224,255.2813 C596.388,255.2813 597.0755,255.1563 597.4974,254.8906 C597.6849,254.7969 597.6849,254.7969 598.138,254.3125 C598.3255,254.125 598.5286,254.0469 598.7474,254.0469 C599.2161,254.0469 599.6068,254.4375 599.6068,254.8906 C599.6068,255.2813 599.2786,255.7344 598.7005,256.1406 C597.9505,256.6875 596.7943,256.9844 595.5755,256.9844 C592.6849,256.9844 590.5755,255.0938 590.5755,252.5156 L590.5755,251.3906 C590.5755,248.6719 592.5755,246.5938 595.2005,246.5938 C596.0755,246.5938 596.6693,246.7344 597.6068,247.1719 Z "/><text fill="#000000" font-family="sans-serif" font-size="12" lengthAdjust="spacingAndGlyphs" textLength="55" x="612.363" y="255.6543">Namable</text><line style="stroke: #A80036; stroke-width: 1.5;" x1="567.313" x2="683.313" y1="267.5" y2="267.5"/><text fill="#000000" font-family="sans-serif" font-size="11" lengthAdjust="spacingAndGlyphs" textLength="75" x="572.313" y="281.7104">Name: String</text><text fill="#000000" font-family="sans-serif" font-size="11" lengthAdjust="spacingAndGlyphs" textLength="106" x="572.313" y="294.5151">Description: String</text><line style="stroke: #A80036; stroke-width: 1.5;" x1="567.313" x2="683.313" y1="301.1094" y2="301.1094"/><!--class Buyable--><rect fill="#FEFECE" filter="url(#fsisgdd7fezqr)" height="124.8281" id="Buyable" style="stroke: #A80036; stroke-width: 1.5;" width="137" x="294.813" y="210"/><ellipse cx="335.013" cy="226" fill="#ADD1B2" rx="11" ry="11" style="stroke: #A80036; stroke-width: 1.0;"/><path d="M337.3568,221.6719 L337.5286,221.75 C337.7474,221.4375 337.9505,221.3438 338.2474,221.3438 C338.5443,221.3438 338.8255,221.4844 338.9818,221.75 C339.0755,221.9063 339.0911,222.0313 339.0911,222.4688 L339.0911,223.8906 C339.0911,224.3125 339.0599,224.5 338.9505,224.6563 C338.7786,224.875 338.513,225.0156 338.2474,225.0156 C338.0286,225.0156 337.7943,224.9063 337.6536,224.7656 C337.513,224.6406 337.4818,224.5156 337.4193,224.1094 C337.3255,223.7031 337.1536,223.4844 336.6693,223.2031 C336.2005,222.9531 335.5911,222.7969 335.013,222.7969 C333.2786,222.7969 332.0286,224.1094 332.0286,225.8906 L332.0286,226.9844 C332.0286,228.6875 333.3255,229.7813 335.3724,229.7813 C336.138,229.7813 336.8255,229.6563 337.2474,229.3906 C337.4349,229.2969 337.4349,229.2969 337.888,228.8125 C338.0755,228.625 338.2786,228.5469 338.4974,228.5469 C338.9661,228.5469 339.3568,228.9375 339.3568,229.3906 C339.3568,229.7813 339.0286,230.2344 338.4505,230.6406 C337.7005,231.1875 336.5443,231.4844 335.3255,231.4844 C332.4349,231.4844 330.3255,229.5938 330.3255,227.0156 L330.3255,225.8906 C330.3255,223.1719 332.3255,221.0938 334.9505,221.0938 C335.8255,221.0938 336.4193,221.2344 337.3568,221.6719 Z "/><text fill="#000000" font-family="sans-serif" font-size="12" lengthAdjust="spacingAndGlyphs" textLength="49" x="354.613" y="230.1543">Buyable</text><line style="stroke: #A80036; stroke-width: 1.5;" x1="295.813" x2="430.813" y1="242" y2="242"/><text fill="#000000" font-family="sans-serif" font-size="11" lengthAdjust="spacingAndGlyphs" textLength="117" x="300.813" y="256.2104">Source: BoughtFrom</text><text fill="#000000" font-family="sans-serif" font-size="11" lengthAdjust="spacingAndGlyphs" textLength="54" x="300.813" y="269.0151">Stat: Stat</text><text fill="#000000" font-family="sans-serif" font-size="11" lengthAdjust="spacingAndGlyphs" textLength="94" x="300.813" y="281.8198">Bought: Boolean</text><text fill="#000000" font-family="sans-serif" font-size="11" lengthAdjust="spacingAndGlyphs" textLength="91" x="300.813" y="294.6245">Skilled: Boolean</text><text fill="#000000" font-family="sans-serif" font-size="11" lengthAdjust="spacingAndGlyphs" textLength="125" x="300.813" y="307.4292">Professional: Boolean</text><text fill="#000000" font-family="sans-serif" font-size="11" lengthAdjust="spacingAndGlyphs" textLength="93" x="300.813" y="320.2339">Master: Boolean</text><line style="stroke: #A80036; stroke-width: 1.5;" x1="295.813" x2="430.813" y1="326.8281" y2="326.8281"/><!--class Skill--><rect fill="#FEFECE" filter="url(#fsisgdd7fezqr)" height="150.4375" id="Skill" style="stroke: #A80036; stroke-width: 1.5;" width="222" x="37.3135" y="396"/><ellipse cx="130.0635" cy="412" fill="#ADD1B2" rx="11" ry="11" style="stroke: #A80036; stroke-width: 1.0;"/><path d="M132.4073,407.6719 L132.5791,407.75 C132.7979,407.4375 133.001,407.3438 133.2979,407.3438 C133.5948,407.3438 133.876,407.4844 134.0323,407.75 C134.126,407.9063 134.1416,408.0313 134.1416,408.4688 L134.1416,409.8906 C134.1416,410.3125 134.1104,410.5 134.001,410.6563 C133.8291,410.875 133.5635,411.0156 133.2979,411.0156 C133.0791,411.0156 132.8448,410.9063 132.7041,410.7656 C132.5635,410.6406 132.5323,410.5156 132.4698,410.1094 C132.376,409.7031 132.2041,409.4844 131.7198,409.2031 C131.251,408.9531 130.6416,408.7969 130.0635,408.7969 C128.3291,408.7969 127.0791,410.1094 127.0791,411.8906 L127.0791,412.9844 C127.0791,414.6875 128.376,415.7813 130.4229,415.7813 C131.1885,415.7813 131.876,415.6563 132.2979,415.3906 C132.4854,415.2969 132.4854,415.2969 132.9385,414.8125 C133.126,414.625 133.3291,414.5469 133.5479,414.5469 C134.0166,414.5469 134.4073,414.9375 134.4073,415.3906 C134.4073,415.7813 134.0791,416.2344 133.501,416.6406 C132.751,417.1875 131.5948,417.4844 130.376,417.4844 C127.4854,417.4844 125.376,415.5938 125.376,413.0156 L125.376,411.8906 C125.376,409.1719 127.376,407.0938 130.001,407.0938 C130.876,407.0938 131.4698,407.2344 132.4073,407.6719 Z "/><text fill="#000000" font-family="sans-serif" font-size="12" lengthAdjust="spacingAndGlyphs" textLength="24" x="150.5635" y="416.1543">Skill</text><line style="stroke: #A80036; stroke-width: 1.5;" x1="38.3135" x2="258.3135" y1="428" y2="428"/><text fill="#000000" font-family="sans-serif" font-size="11" lengthAdjust="spacingAndGlyphs" textLength="75" x="43.3135" y="442.2104">Name: String</text><text fill="#000000" font-family="sans-serif" font-size="11" font-style="italic" lengthAdjust="spacingAndGlyphs" textLength="81" x="126.3135" y="442.2104">from Namable</text><text fill="#000000" font-family="sans-serif" font-size="11" lengthAdjust="spacingAndGlyphs" textLength="106" x="43.3135" y="455.0151">Description: String</text><text fill="#000000" font-family="sans-serif" font-size="11" font-style="italic" lengthAdjust="spacingAndGlyphs" textLength="81" x="157.3135" y="455.0151">from Namable</text><text fill="#000000" font-family="sans-serif" font-size="11" lengthAdjust="spacingAndGlyphs" textLength="117" x="43.3135" y="467.8198">Source: BoughtFrom</text><text fill="#000000" font-family="sans-serif" font-size="11" font-style="italic" lengthAdjust="spacingAndGlyphs" textLength="77" x="168.3135" y="467.8198">from Buyable</text><text fill="#000000" font-family="sans-serif" font-size="11" lengthAdjust="spacingAndGlyphs" textLength="54" x="43.3135" y="480.6245">Stat: Stat</text><text fill="#000000" font-family="sans-serif" font-size="11" font-style="italic" lengthAdjust="spacingAndGlyphs" textLength="77" x="105.3135" y="480.6245">from Buyable</text><text fill="#000000" font-family="sans-serif" font-size="11" lengthAdjust="spacingAndGlyphs" textLength="94" x="43.3135" y="493.4292">Bought: Boolean</text><text fill="#000000" font-family="sans-serif" font-size="11" font-style="italic" lengthAdjust="spacingAndGlyphs" textLength="77" x="145.3135" y="493.4292">from Buyable</text><text fill="#000000" font-family="sans-serif" font-size="11" lengthAdjust="spacingAndGlyphs" textLength="91" x="43.3135" y="506.2339">Skilled: Boolean</text><text fill="#000000" font-family="sans-serif" font-size="11" font-style="italic" lengthAdjust="spacingAndGlyphs" textLength="77" x="142.3135" y="506.2339">from Buyable</text><text fill="#000000" font-family="sans-serif" font-size="11" lengthAdjust="spacingAndGlyphs" textLength="125" x="43.3135" y="519.0386">Professional: Boolean</text><text fill="#000000" font-family="sans-serif" font-size="11" font-style="italic" lengthAdjust="spacingAndGlyphs" textLength="77" x="176.3135" y="519.0386">from Buyable</text><text fill="#000000" font-family="sans-serif" font-size="11" lengthAdjust="spacingAndGlyphs" textLength="93" x="43.3135" y="531.8433">Master: Boolean</text><text fill="#000000" font-family="sans-serif" font-size="11" font-style="italic" lengthAdjust="spacingAndGlyphs" textLength="77" x="144.3135" y="531.8433">from Buyable</text><line style="stroke: #A80036; stroke-width: 1.5;" x1="38.3135" x2="258.3135" y1="538.4375" y2="538.4375"/><!--class Resistance--><rect fill="#FEFECE" filter="url(#fsisgdd7fezqr)" height="150.4375" id="Resistance" style="stroke: #A80036; stroke-width: 1.5;" width="222" x="551.313" y="396"/><ellipse cx="621.563" cy="412" fill="#ADD1B2" rx="11" ry="11" style="stroke: #A80036; stroke-width: 1.0;"/><path d="M623.9068,407.6719 L624.0786,407.75 C624.2974,407.4375 624.5005,407.3438 624.7974,407.3438 C625.0943,407.3438 625.3755,407.4844 625.5318,407.75 C625.6255,407.9063 625.6411,408.0313 625.6411,408.4688 L625.6411,409.8906 C625.6411,410.3125 625.6099,410.5 625.5005,410.6563 C625.3286,410.875 625.063,411.0156 624.7974,411.0156 C624.5786,411.0156 624.3443,410.9063 624.2036,410.7656 C624.063,410.6406 624.0318,410.5156 623.9693,410.1094 C623.8755,409.7031 623.7036,409.4844 623.2193,409.2031 C622.7505,408.9531 622.1411,408.7969 621.563,408.7969 C619.8286,408.7969 618.5786,410.1094 618.5786,411.8906 L618.5786,412.9844 C618.5786,414.6875 619.8755,415.7813 621.9224,415.7813 C622.688,415.7813 623.3755,415.6563 623.7974,415.3906 C623.9849,415.2969 623.9849,415.2969 624.438,414.8125 C624.6255,414.625 624.8286,414.5469 625.0474,414.5469 C625.5161,414.5469 625.9068,414.9375 625.9068,415.3906 C625.9068,415.7813 625.5786,416.2344 625.0005,416.6406 C624.2505,417.1875 623.0943,417.4844 621.8755,417.4844 C618.9849,417.4844 616.8755,415.5938 616.8755,413.0156 L616.8755,411.8906 C616.8755,409.1719 618.8755,407.0938 621.5005,407.0938 C622.3755,407.0938 622.9693,407.2344 623.9068,407.6719 Z "/><text fill="#000000" font-family="sans-serif" font-size="12" lengthAdjust="spacingAndGlyphs" textLength="69" x="642.063" y="416.1543">Resistance</text><line style="stroke: #A80036; stroke-width: 1.5;" x1="552.313" x2="772.313" y1="428" y2="428"/><text fill="#000000" font-family="sans-serif" font-size="11" lengthAdjust="spacingAndGlyphs" textLength="75" x="557.313" y="442.2104">Name: String</text><text fill="#000000" font-family="sans-serif" font-size="11" font-style="italic" lengthAdjust="spacingAndGlyphs" textLength="81" x="640.313" y="442.2104">from Namable</text><text fill="#000000" font-family="sans-serif" font-size="11" lengthAdjust="spacingAndGlyphs" textLength="106" x="557.313" y="455.0151">Description: String</text><text fill="#000000" font-family="sans-serif" font-size="11" font-style="italic" lengthAdjust="spacingAndGlyphs" textLength="81" x="671.313" y="455.0151">from Namable</text><text fill="#000000" font-family="sans-serif" font-size="11" lengthAdjust="spacingAndGlyphs" textLength="117" x="557.313" y="467.8198">Source: BoughtFrom</text><text fill="#000000" font-family="sans-serif" font-size="11" font-style="italic" lengthAdjust="spacingAndGlyphs" textLength="77" x="682.313" y="467.8198">from Buyable</text><text fill="#000000" font-family="sans-serif" font-size="11" lengthAdjust="spacingAndGlyphs" textLength="54" x="557.313" y="480.6245">Stat: Stat</text><text fill="#000000" font-family="sans-serif" font-size="11" font-style="italic" lengthAdjust="spacingAndGlyphs" textLength="77" x="619.313" y="480.6245">from Buyable</text><text fill="#000000" font-family="sans-serif" font-size="11" lengthAdjust="spacingAndGlyphs" textLength="94" x="557.313" y="493.4292">Bought: Boolean</text><text fill="#000000" font-family="sans-serif" font-size="11" font-style="italic" lengthAdjust="spacingAndGlyphs" textLength="77" x="659.313" y="493.4292">from Buyable</text><text fill="#000000" font-family="sans-serif" font-size="11" lengthAdjust="spacingAndGlyphs" textLength="91" x="557.313" y="506.2339">Skilled: Boolean</text><text fill="#000000" font-family="sans-serif" font-size="11" font-style="italic" lengthAdjust="spacingAndGlyphs" textLength="77" x="656.313" y="506.2339">from Buyable</text><text fill="#000000" font-family="sans-serif" font-size="11" lengthAdjust="spacingAndGlyphs" textLength="125" x="557.313" y="519.0386">Professional: Boolean</text><text fill="#000000" font-family="sans-serif" font-size="11" font-style="italic" lengthAdjust="spacingAndGlyphs" textLength="77" x="690.313" y="519.0386">from Buyable</text><text fill="#000000" font-family="sans-serif" font-size="11" lengthAdjust="spacingAndGlyphs" textLength="93" x="557.313" y="531.8433">Master: Boolean</text><text fill="#000000" font-family="sans-serif" font-size="11" font-style="italic" lengthAdjust="spacingAndGlyphs" textLength="77" x="658.313" y="531.8433">from Buyable</text><line style="stroke: #A80036; stroke-width: 1.5;" x1="552.313" x2="772.313" y1="538.4375" y2="538.4375"/><!--class Special--><rect fill="#FEFECE" filter="url(#fsisgdd7fezqr)" height="150.4375" id="Special" style="stroke: #A80036; stroke-width: 1.5;" width="222" x="294.313" y="396"/><ellipse cx="376.563" cy="412" fill="#ADD1B2" rx="11" ry="11" style="stroke: #A80036; stroke-width: 1.0;"/><path d="M378.9068,407.6719 L379.0786,407.75 C379.2974,407.4375 379.5005,407.3438 379.7974,407.3438 C380.0943,407.3438 380.3755,407.4844 380.5318,407.75 C380.6255,407.9063 380.6411,408.0313 380.6411,408.4688 L380.6411,409.8906 C380.6411,410.3125 380.6099,410.5 380.5005,410.6563 C380.3286,410.875 380.063,411.0156 379.7974,411.0156 C379.5786,411.0156 379.3443,410.9063 379.2036,410.7656 C379.063,410.6406 379.0318,410.5156 378.9693,410.1094 C378.8755,409.7031 378.7036,409.4844 378.2193,409.2031 C377.7505,408.9531 377.1411,408.7969 376.563,408.7969 C374.8286,408.7969 373.5786,410.1094 373.5786,411.8906 L373.5786,412.9844 C373.5786,414.6875 374.8755,415.7813 376.9224,415.7813 C377.688,415.7813 378.3755,415.6563 378.7974,415.3906 C378.9849,415.2969 378.9849,415.2969 379.438,414.8125 C379.6255,414.625 379.8286,414.5469 380.0474,414.5469 C380.5161,414.5469 380.9068,414.9375 380.9068,415.3906 C380.9068,415.7813 380.5786,416.2344 380.0005,416.6406 C379.2505,417.1875 378.0943,417.4844 376.8755,417.4844 C373.9849,417.4844 371.8755,415.5938 371.8755,413.0156 L371.8755,411.8906 C371.8755,409.1719 373.8755,407.0938 376.5005,407.0938 C377.3755,407.0938 377.9693,407.2344 378.9068,407.6719 Z "/><text fill="#000000" font-family="sans-serif" font-size="12" lengthAdjust="spacingAndGlyphs" textLength="45" x="397.063" y="416.1543">Special</text><line style="stroke: #A80036; stroke-width: 1.5;" x1="295.313" x2="515.313" y1="428" y2="428"/><text fill="#000000" font-family="sans-serif" font-size="11" lengthAdjust="spacingAndGlyphs" textLength="75" x="300.313" y="442.2104">Name: String</text><text fill="#000000" font-family="sans-serif" font-size="11" font-style="italic" lengthAdjust="spacingAndGlyphs" textLength="81" x="383.313" y="442.2104">from Namable</text><text fill="#000000" font-family="sans-serif" font-size="11" lengthAdjust="spacingAndGlyphs" textLength="106" x="300.313" y="455.0151">Description: String</text><text fill="#000000" font-family="sans-serif" font-size="11" font-style="italic" lengthAdjust="spacingAndGlyphs" textLength="81" x="414.313" y="455.0151">from Namable</text><text fill="#000000" font-family="sans-serif" font-size="11" lengthAdjust="spacingAndGlyphs" textLength="117" x="300.313" y="467.8198">Source: BoughtFrom</text><text fill="#000000" font-family="sans-serif" font-size="11" font-style="italic" lengthAdjust="spacingAndGlyphs" textLength="77" x="425.313" y="467.8198">from Buyable</text><text fill="#000000" font-family="sans-serif" font-size="11" lengthAdjust="spacingAndGlyphs" textLength="54" x="300.313" y="480.6245">Stat: Stat</text><text fill="#000000" font-family="sans-serif" font-size="11" font-style="italic" lengthAdjust="spacingAndGlyphs" textLength="77" x="362.313" y="480.6245">from Buyable</text><text fill="#000000" font-family="sans-serif" font-size="11" lengthAdjust="spacingAndGlyphs" textLength="94" x="300.313" y="493.4292">Bought: Boolean</text><text fill="#000000" font-family="sans-serif" font-size="11" font-style="italic" lengthAdjust="spacingAndGlyphs" textLength="77" x="402.313" y="493.4292">from Buyable</text><text fill="#000000" font-family="sans-serif" font-size="11" lengthAdjust="spacingAndGlyphs" textLength="91" x="300.313" y="506.2339">Skilled: Boolean</text><text fill="#000000" font-family="sans-serif" font-size="11" font-style="italic" lengthAdjust="spacingAndGlyphs" textLength="77" x="399.313" y="506.2339">from Buyable</text><text fill="#000000" font-family="sans-serif" font-size="11" lengthAdjust="spacingAndGlyphs" textLength="125" x="300.313" y="519.0386">Professional: Boolean</text><text fill="#000000" font-family="sans-serif" font-size="11" font-style="italic" lengthAdjust="spacingAndGlyphs" textLength="77" x="433.313" y="519.0386">from Buyable</text><text fill="#000000" font-family="sans-serif" font-size="11" lengthAdjust="spacingAndGlyphs" textLength="93" x="300.313" y="531.8433">Master: Boolean</text><text fill="#000000" font-family="sans-serif" font-size="11" font-style="italic" lengthAdjust="spacingAndGlyphs" textLength="77" x="401.313" y="531.8433">from Buyable</text><line style="stroke: #A80036; stroke-width: 1.5;" x1="295.313" x2="515.313" y1="538.4375" y2="538.4375"/><!--class Feat--><rect fill="#FEFECE" filter="url(#fsisgdd7fezqr)" height="112.0234" id="Feat" style="stroke: #A80036; stroke-width: 1.5;" width="207" x="808.813" y="415"/><ellipse cx="892.063" cy="431" fill="#ADD1B2" rx="11" ry="11" style="stroke: #A80036; stroke-width: 1.0;"/><path d="M894.4068,426.6719 L894.5786,426.75 C894.7974,426.4375 895.0005,426.3438 895.2974,426.3438 C895.5943,426.3438 895.8755,426.4844 896.0318,426.75 C896.1255,426.9063 896.1411,427.0313 896.1411,427.4688 L896.1411,428.8906 C896.1411,429.3125 896.1099,429.5 896.0005,429.6563 C895.8286,429.875 895.563,430.0156 895.2974,430.0156 C895.0786,430.0156 894.8443,429.9063 894.7036,429.7656 C894.563,429.6406 894.5318,429.5156 894.4693,429.1094 C894.3755,428.7031 894.2036,428.4844 893.7193,428.2031 C893.2505,427.9531 892.6411,427.7969 892.063,427.7969 C890.3286,427.7969 889.0786,429.1094 889.0786,430.8906 L889.0786,431.9844 C889.0786,433.6875 890.3755,434.7813 892.4224,434.7813 C893.188,434.7813 893.8755,434.6563 894.2974,434.3906 C894.4849,434.2969 894.4849,434.2969 894.938,433.8125 C895.1255,433.625 895.3286,433.5469 895.5474,433.5469 C896.0161,433.5469 896.4068,433.9375 896.4068,434.3906 C896.4068,434.7813 896.0786,435.2344 895.5005,435.6406 C894.7505,436.1875 893.5943,436.4844 892.3755,436.4844 C889.4849,436.4844 887.3755,434.5938 887.3755,432.0156 L887.3755,430.8906 C887.3755,428.1719 889.3755,426.0938 892.0005,426.0938 C892.8755,426.0938 893.4693,426.2344 894.4068,426.6719 Z "/><text fill="#000000" font-family="sans-serif" font-size="12" lengthAdjust="spacingAndGlyphs" textLength="28" x="912.563" y="435.1543">Feat</text><line style="stroke: #A80036; stroke-width: 1.5;" x1="809.813" x2="1014.813" y1="447" y2="447"/><text fill="#000000" font-family="sans-serif" font-size="11" lengthAdjust="spacingAndGlyphs" textLength="80" x="814.813" y="461.2104">Rank: Number</text><text fill="#000000" font-family="sans-serif" font-size="11" lengthAdjust="spacingAndGlyphs" textLength="67" x="814.813" y="474.0151">XP: Number</text><text fill="#000000" font-family="sans-serif" font-size="11" lengthAdjust="spacingAndGlyphs" textLength="54" x="814.813" y="486.8198">Stat: Stat</text><text fill="#000000" font-family="sans-serif" font-size="11" lengthAdjust="spacingAndGlyphs" textLength="75" x="814.813" y="499.6245">Name: String</text><text fill="#000000" font-family="sans-serif" font-size="11" font-style="italic" lengthAdjust="spacingAndGlyphs" textLength="81" x="897.813" y="499.6245">from Namable</text><text fill="#000000" font-family="sans-serif" font-size="11" lengthAdjust="spacingAndGlyphs" textLength="106" x="814.813" y="512.4292">Description: String</text><text fill="#000000" font-family="sans-serif" font-size="11" font-style="italic" lengthAdjust="spacingAndGlyphs" textLength="81" x="928.813" y="512.4292">from Namable</text><line style="stroke: #A80036; stroke-width: 1.5;" x1="809.813" x2="1014.813" y1="519.0234" y2="519.0234"/><!--class Statistic--><rect fill="#FEFECE" filter="url(#fsisgdd7fezqr)" height="99.2188" id="Statistic" style="stroke: #A80036; stroke-width: 1.5;" width="118" x="1051.31" y="421.5"/><ellipse cx="1082.06" cy="437.5" fill="#ADD1B2" rx="11" ry="11" style="stroke: #A80036; stroke-width: 1.0;"/><path d="M1084.4038,433.1719 L1084.5756,433.25 C1084.7944,432.9375 1084.9975,432.8438 1085.2944,432.8438 C1085.5913,432.8438 1085.8725,432.9844 1086.0288,433.25 C1086.1225,433.4063 1086.1381,433.5313 1086.1381,433.9688 L1086.1381,435.3906 C1086.1381,435.8125 1086.1069,436 1085.9975,436.1563 C1085.8256,436.375 1085.56,436.5156 1085.2944,436.5156 C1085.0756,436.5156 1084.8413,436.4063 1084.7006,436.2656 C1084.56,436.1406 1084.5288,436.0156 1084.4663,435.6094 C1084.3725,435.2031 1084.2006,434.9844 1083.7163,434.7031 C1083.2475,434.4531 1082.6381,434.2969 1082.06,434.2969 C1080.3256,434.2969 1079.0756,435.6094 1079.0756,437.3906 L1079.0756,438.4844 C1079.0756,440.1875 1080.3725,441.2813 1082.4194,441.2813 C1083.185,441.2813 1083.8725,441.1563 1084.2944,440.8906 C1084.4819,440.7969 1084.4819,440.7969 1084.935,440.3125 C1085.1225,440.125 1085.3256,440.0469 1085.5444,440.0469 C1086.0131,440.0469 1086.4038,440.4375 1086.4038,440.8906 C1086.4038,441.2813 1086.0756,441.7344 1085.4975,442.1406 C1084.7475,442.6875 1083.5913,442.9844 1082.3725,442.9844 C1079.4819,442.9844 1077.3725,441.0938 1077.3725,438.5156 L1077.3725,437.3906 C1077.3725,434.6719 1079.3725,432.5938 1081.9975,432.5938 C1082.8725,432.5938 1083.4663,432.7344 1084.4038,433.1719 Z "/><text fill="#000000" font-family="sans-serif" font-size="12" lengthAdjust="spacingAndGlyphs" textLength="51" x="1099.56" y="441.6543">Statistic</text><line style="stroke: #A80036; stroke-width: 1.5;" x1="1052.31" x2="1168.31" y1="453.5" y2="453.5"/><text fill="#000000" font-family="sans-serif" font-size="11" lengthAdjust="spacingAndGlyphs" textLength="54" x="1057.31" y="467.7104">Stat: Stat</text><text fill="#000000" font-family="sans-serif" font-size="11" lengthAdjust="spacingAndGlyphs" textLength="106" x="1057.31" y="480.5151">Description: String</text><text fill="#000000" font-family="sans-serif" font-size="11" lengthAdjust="spacingAndGlyphs" textLength="36" x="1057.31" y="493.3198">XP: XP</text><text fill="#000000" font-family="sans-serif" font-size="11" lengthAdjust="spacingAndGlyphs" textLength="84" x="1057.31" y="506.1245">Value: Number</text><line style="stroke: #A80036; stroke-width: 1.5;" x1="1052.31" x2="1168.31" y1="512.7188" y2="512.7188"/><!--class Character--><rect fill="#FEFECE" filter="url(#fsisgdd7fezqr)" height="163.2422" id="Character" style="stroke: #A80036; stroke-width: 1.5;" width="133" x="834.813" y="623"/><ellipse cx="867.363" cy="639" fill="#ADD1B2" rx="11" ry="11" style="stroke: #A80036; stroke-width: 1.0;"/><path d="M869.7067,634.6719 L869.8786,634.75 C870.0974,634.4375 870.3005,634.3438 870.5974,634.3438 C870.8942,634.3438 871.1755,634.4844 871.3317,634.75 C871.4255,634.9063 871.4411,635.0313 871.4411,635.4688 L871.4411,636.8906 C871.4411,637.3125 871.4099,637.5 871.3005,637.6563 C871.1286,637.875 870.863,638.0156 870.5974,638.0156 C870.3786,638.0156 870.1442,637.9063 870.0036,637.7656 C869.863,637.6406 869.8317,637.5156 869.7692,637.1094 C869.6755,636.7031 869.5036,636.4844 869.0192,636.2031 C868.5505,635.9531 867.9411,635.7969 867.363,635.7969 C865.6286,635.7969 864.3786,637.1094 864.3786,638.8906 L864.3786,639.9844 C864.3786,641.6875 865.6755,642.7813 867.7224,642.7813 C868.488,642.7813 869.1755,642.6563 869.5974,642.3906 C869.7849,642.2969 869.7849,642.2969 870.238,641.8125 C870.4255,641.625 870.6286,641.5469 870.8474,641.5469 C871.3161,641.5469 871.7067,641.9375 871.7067,642.3906 C871.7067,642.7813 871.3786,643.2344 870.8005,643.6406 C870.0505,644.1875 868.8942,644.4844 867.6755,644.4844 C864.7849,644.4844 862.6755,642.5938 862.6755,640.0156 L862.6755,638.8906 C862.6755,636.1719 864.6755,634.0938 867.3005,634.0938 C868.1755,634.0938 868.7692,634.2344 869.7067,634.6719 Z "/><text fill="#000000" font-family="sans-serif" font-size="12" lengthAdjust="spacingAndGlyphs" textLength="62" x="885.263" y="643.1543">Character</text><line style="stroke: #A80036; stroke-width: 1.5;" x1="835.813" x2="966.813" y1="655" y2="655"/><text fill="#000000" font-family="sans-serif" font-size="11" lengthAdjust="spacingAndGlyphs" textLength="75" x="840.813" y="669.2104">Name: String</text><text fill="#000000" font-family="sans-serif" font-size="11" lengthAdjust="spacingAndGlyphs" textLength="85" x="840.813" y="682.0151">Skills: List Skill</text><text fill="#000000" font-family="sans-serif" font-size="11" lengthAdjust="spacingAndGlyphs" textLength="121" x="840.813" y="694.8198">Specials: List Special</text><text fill="#000000" font-family="sans-serif" font-size="11" lengthAdjust="spacingAndGlyphs" textLength="87" x="840.813" y="707.6245">Feats: List Feat</text><text fill="#000000" font-family="sans-serif" font-size="11" lengthAdjust="spacingAndGlyphs" textLength="103" x="840.813" y="720.4292">Strength: Statistic</text><text fill="#000000" font-family="sans-serif" font-size="11" lengthAdjust="spacingAndGlyphs" textLength="87" x="840.813" y="733.2339">Agility: Statistic</text><text fill="#000000" font-family="sans-serif" font-size="11" lengthAdjust="spacingAndGlyphs" textLength="99" x="840.813" y="746.0386">Intuition: Statistic</text><text fill="#000000" font-family="sans-serif" font-size="11" lengthAdjust="spacingAndGlyphs" textLength="114" x="840.813" y="758.8433">Perception: Statistic</text><text fill="#000000" font-family="sans-serif" font-size="11" lengthAdjust="spacingAndGlyphs" textLength="109" x="840.813" y="771.6479">Charisma: Statistic</text><line style="stroke: #A80036; stroke-width: 1.5;" x1="835.813" x2="966.813" y1="778.2422" y2="778.2422"/><!--link BoughtFrom to Buyable--><path d="M286.183,131.262 C299.821,156.059 315.637,184.816 329.385,209.811 " fill="none" id="BoughtFrom-Buyable" style="stroke: #A80036; stroke-width: 1.0;"/><polygon fill="#A80036" points="283.663,126.68,284.4958,136.4936,286.0728,131.061,291.5054,132.638,283.663,126.68" style="stroke: #A80036; stroke-width: 1.0;"/><text fill="#000000" font-family="sans-serif" font-size="13" lengthAdjust="spacingAndGlyphs" textLength="45" x="313.313" y="176.0669">Source</text><!--link Stat to Buyable--><path d="M645.047,80.056 C594.578,92.056 508.351,117.668 447.313,163 C430.101,175.783 414.609,192.989 401.755,209.927 " fill="none" id="Stat-Buyable" style="stroke: #A80036; stroke-width: 1.0;"/><polygon fill="#A80036" points="650.117,78.867,640.4416,77.0269,645.249,80.0083,642.2676,84.8157,650.117,78.867" style="stroke: #A80036; stroke-width: 1.0;"/><text fill="#000000" font-family="sans-serif" font-size="13" lengthAdjust="spacingAndGlyphs" textLength="27" x="448.313" y="176.0669">Stat</text><!--link BoughtFrom to Skill--><path d="M181.178,91.974 C126.038,112.005 54.3794,148.643 23.3135,210 C-1.7817,259.565 3.0437,283.274 23.3135,335 C31.9375,357.007 46.0204,377.572 61.6856,395.689 " fill="none" id="BoughtFrom-Skill" style="stroke: #A80036; stroke-width: 1.0;"/><polygon fill="#A80036" points="186.124,90.206,176.3026,89.471,181.4161,91.89,178.9971,97.0036,186.124,90.206" style="stroke: #A80036; stroke-width: 1.0;"/><text fill="#000000" font-family="sans-serif" font-size="13" lengthAdjust="spacingAndGlyphs" textLength="45" x="24.3135" y="277.0669">Source</text><!--link Stat to Skill--><path d="M644.808,76.335 C533.582,90.228 233.331,134.198 175.313,210 C135.181,262.434 131.946,339.254 136.63,395.802 " fill="none" id="Stat-Skill" style="stroke: #A80036; stroke-width: 1.0;"/><polygon fill="#A80036" points="649.96,75.696,640.5359,72.8348,644.9981,76.3118,641.5211,80.7739,649.96,75.696" style="stroke: #A80036; stroke-width: 1.0;"/><text fill="#000000" font-family="sans-serif" font-size="13" lengthAdjust="spacingAndGlyphs" textLength="27" x="176.313" y="277.0669">Stat</text><!--link Namable to Skill--><path d="M565.208,320.856 C556.808,326.152 548.054,331.051 539.313,335 C429.964,384.405 387.921,351.934 276.313,396 C270.703,398.215 265.044,400.647 259.392,403.238 " fill="none" id="Namable-Skill" style="stroke: #A80036; stroke-width: 1.0;"/><polygon fill="none" points="561.346,315.017,581.832,309.602,569.194,326.611,561.346,315.017" style="stroke: #A80036; stroke-width: 1.0;"/><!--link Buyable to Skill--><path d="M280.983,348.746 C264.09,364.186 246.319,380.428 229.468,395.829 " fill="none" id="Buyable-Skill" style="stroke: #A80036; stroke-width: 1.0;"/><polygon fill="none" points="276.39,343.46,295.876,335.135,285.835,353.794,276.39,343.46" style="stroke: #A80036; stroke-width: 1.0;"/><!--link BoughtFrom to Resistance--><path d="M325.431,83.241 C440.276,103.572 656.378,149.074 701.313,210 C740.598,263.264 722.869,339.602 700.108,395.787 " fill="none" id="BoughtFrom-Resistance" style="stroke: #A80036; stroke-width: 1.0;"/><polygon fill="#A80036" points="320.377,82.351,328.5469,87.8512,325.3012,83.2181,329.9343,79.9725,320.377,82.351" style="stroke: #A80036; stroke-width: 1.0;"/><text fill="#000000" font-family="sans-serif" font-size="13" lengthAdjust="spacingAndGlyphs" textLength="45" x="725.313" y="277.0669">Source</text><!--link Stat to Resistance--><path d="M726.271,106.279 C743.862,122.591 764.154,142.847 780.313,163 C828.81,223.481 837.783,262.893 809.313,335 C800.342,357.721 785.164,378.167 767.877,395.866 " fill="none" id="Stat-Resistance" style="stroke: #A80036; stroke-width: 1.0;"/><polygon fill="#A80036" points="722.329,102.647,726.2386,111.6866,726.0066,106.0345,731.6587,105.8025,722.329,102.647" style="stroke: #A80036; stroke-width: 1.0;"/><text fill="#000000" font-family="sans-serif" font-size="13" lengthAdjust="spacingAndGlyphs" textLength="27" x="826.313" y="277.0669">Stat</text><!--link Namable to Resistance--><path d="M635.839,329.397 C639.734,350.087 644.214,373.875 648.367,395.931 " fill="none" id="Namable-Resistance" style="stroke: #A80036; stroke-width: 1.0;"/><polygon fill="none" points="628.922,330.491,632.1,309.541,642.68,327.9,628.922,330.491" style="stroke: #A80036; stroke-width: 1.0;"/><!--link Buyable to Resistance--><path d="M449.062,329.853 C480.901,350.778 517.487,374.822 551.264,397.019 " fill="none" id="Buyable-Resistance" style="stroke: #A80036; stroke-width: 1.0;"/><polygon fill="none" points="444.779,335.415,431.91,318.581,452.468,323.715,444.779,335.415" style="stroke: #A80036; stroke-width: 1.0;"/><!--link BoughtFrom to Special--><path d="M230.995,131.496 C214.126,187.144 198.753,270.794 230.313,335 C244.617,364.099 268.544,388.696 294.184,408.594 " fill="none" id="BoughtFrom-Special" style="stroke: #A80036; stroke-width: 1.0;"/><polygon fill="#A80036" points="232.525,126.536,226.0515,133.9585,231.0523,131.3142,233.6966,136.3149,232.525,126.536" style="stroke: #A80036; stroke-width: 1.0;"/><text fill="#000000" font-family="sans-serif" font-size="13" lengthAdjust="spacingAndGlyphs" textLength="45" x="231.313" y="277.0669">Source</text><!--link Stat to Special--><path d="M645.73,97.067 C608.727,122.082 554.604,163.173 519.313,210 C476.82,266.385 446.187,341.078 427.447,395.935 " fill="none" id="Stat-Special" style="stroke: #A80036; stroke-width: 1.0;"/><polygon fill="#A80036" points="650.155,94.096,640.4532,95.7916,646.0038,96.883,644.9124,102.4336,650.155,94.096" style="stroke: #A80036; stroke-width: 1.0;"/><text fill="#000000" font-family="sans-serif" font-size="13" lengthAdjust="spacingAndGlyphs" textLength="27" x="520.313" y="277.0669">Stat</text><!--link Namable to Special--><path d="M573.917,323.605 C559.342,337.513 543.347,352.498 528.313,366 C517.391,375.81 505.775,385.97 494.21,395.924 " fill="none" id="Namable-Special" style="stroke: #A80036; stroke-width: 1.0;"/><polygon fill="none" points="569.218,318.412,588.492,309.607,578.916,328.51,569.218,318.412" style="stroke: #A80036; stroke-width: 1.0;"/><!--link Buyable to Special--><path d="M380.762,355.135 C383.645,368.622 386.619,382.539 389.46,395.829 " fill="none" id="Buyable-Special" style="stroke: #A80036; stroke-width: 1.0;"/><polygon fill="none" points="373.822,356.156,376.487,335.135,387.513,353.23,373.822,356.156" style="stroke: #A80036; stroke-width: 1.0;"/><!--link Stat to Feat--><path d="M726.975,91.048 C768.712,113.48 831.742,154.457 862.313,210 C897.776,274.431 908.442,359.886 911.454,414.916 " fill="none" id="Stat-Feat" style="stroke: #A80036; stroke-width: 1.0;"/><polygon fill="#A80036" points="722.5,88.67,728.5706,96.4255,726.9153,91.0163,732.3246,89.361,722.5,88.67" style="stroke: #A80036; stroke-width: 1.0;"/><text fill="#000000" font-family="sans-serif" font-size="13" lengthAdjust="spacingAndGlyphs" textLength="27" x="903.313" y="277.0669">Stat</text><!--link Namable to Feat--><path d="M691.538,321.153 C698.2,325.858 704.878,330.54 711.313,335 C749.662,361.581 792.544,390.492 828.818,414.715 " fill="none" id="Namable-Feat" style="stroke: #A80036; stroke-width: 1.0;"/><polygon fill="none" points="687.414,326.809,675.161,309.521,695.52,315.395,687.414,326.809" style="stroke: #A80036; stroke-width: 1.0;"/><!--link Stat to Statistic--><path d="M727.448,86.287 C781.192,107.205 875.901,149.717 939.313,210 C1005.096,272.537 1058.18,364.967 1086.91,421.123 " fill="none" id="Stat-Statistic" style="stroke: #A80036; stroke-width: 1.0;"/><polygon fill="#A80036" points="722.696,84.452,729.6505,91.4259,727.3602,86.2534,732.5327,83.9631,722.696,84.452" style="stroke: #A80036; stroke-width: 1.0;"/><text fill="#000000" font-family="sans-serif" font-size="13" lengthAdjust="spacingAndGlyphs" textLength="27" x="1038.31" y="277.0669">Stat</text><!--link Statistic to Character--><path d="M1129.4,525.52 C1134.02,547.84 1134.59,573.133 1122.31,593 C1088.88,647.097 1020.05,675.596 968.041,690.0023 " fill="none" id="Statistic-Character" style="stroke: #A80036; stroke-width: 1.0;"/><polygon fill="#A80036" points="1128.29,520.511,1126.3409,530.1651,1129.3763,525.3916,1134.1498,528.427,1128.29,520.511" style="stroke: #A80036; stroke-width: 1.0;"/><text fill="#000000" font-family="sans-serif" font-size="13" lengthAdjust="spacingAndGlyphs" textLength="56" x="1129.31" y="589.0669">Strength</text><!--link Statistic to Character--><path d="M1173.18,518.931 C1195.45,541.34 1211.23,568.544 1194.31,593 C1143.6,666.33 1037.61,691.0549 967.988,699.3556 " fill="none" id="Statistic-Character-1" style="stroke: #A80036; stroke-width: 1.0;"/><polygon fill="#A80036" points="1169.56,515.377,1173.1864,524.5339,1173.1304,518.8774,1178.7869,518.8214,1169.56,515.377" style="stroke: #A80036; stroke-width: 1.0;"/><text fill="#000000" font-family="sans-serif" font-size="13" lengthAdjust="spacingAndGlyphs" textLength="38" x="1201.31" y="589.0669">Agility</text><!--link Statistic to Character--><path d="M1064.95,523.974 C1055.29,532.482 1044.58,540.35 1033.31,546 C960.426,582.557 905.048,513.805 852.313,576 C840.811,589.565 840.254,606.126 845.217,622.762 " fill="none" id="Statistic-Character-2" style="stroke: #A80036; stroke-width: 1.0;"/><polygon fill="#A80036" points="1068.74,520.555,1059.3816,523.6242,1065.0313,523.9084,1064.747,529.5581,1068.74,520.555" style="stroke: #A80036; stroke-width: 1.0;"/><text fill="#000000" font-family="sans-serif" font-size="13" lengthAdjust="spacingAndGlyphs" textLength="51" x="853.313" y="589.0669">Intuition</text><!--link Statistic to Character--><path d="M1062.39,524.069 C1053.29,532.147 1043.43,539.84 1033.31,546 C998.022,567.494 974.587,546.836 945.313,576 C932.374,588.891 923.235,605.763 916.781,622.993 " fill="none" id="Statistic-Character-3" style="stroke: #A80036; stroke-width: 1.0;"/><polygon fill="#A80036" points="1066.25,520.587,1056.8927,523.6597,1062.5426,523.9418,1062.2605,529.5916,1066.25,520.587" style="stroke: #A80036; stroke-width: 1.0;"/><text fill="#000000" font-family="sans-serif" font-size="13" lengthAdjust="spacingAndGlyphs" textLength="68" x="946.313" y="589.0669">Perception</text><!--link Statistic to Character--><path d="M1073.58,524.932 C1057.7,546.694 1038.41,571.728 1019.31,593 C1003.471,610.648 985.231,628.685 967.902,644.931 " fill="none" id="Statistic-Character-4" style="stroke: #A80036; stroke-width: 1.0;"/><polygon fill="#A80036" points="1076.71,520.625,1068.1829,525.5533,1073.7702,524.6695,1074.654,530.2569,1076.71,520.625" style="stroke: #A80036; stroke-width: 1.0;"/><text fill="#000000" font-family="sans-serif" font-size="13" lengthAdjust="spacingAndGlyphs" textLength="61" x="1033.31" y="589.0669">Charisma</text><!--link Skill to Character--><path d="M264.201,540.809 C268.252,542.632 272.296,544.37 276.313,546 C471.762,625.318 718.244,673.221 834.637,692.9681 " fill="none" id="Skill-Character" style="stroke: #A80036; stroke-width: 1.0;"/><polygon fill="#A80036" points="259.445,538.631,265.9627,546.0148,263.9911,540.7126,269.2932,538.741,259.445,538.631" style="stroke: #A80036; stroke-width: 1.0;"/><text fill="#000000" font-family="sans-serif" font-size="13" lengthAdjust="spacingAndGlyphs" textLength="51" x="393.313" y="589.0669">List Skill</text><text fill="#000000" font-family="sans-serif" font-size="13" lengthAdjust="spacingAndGlyphs" textLength="8" x="267.1804" y="539.7277">0</text><text fill="#000000" font-family="sans-serif" font-size="13" lengthAdjust="spacingAndGlyphs" textLength="7" x="819.9615" y="704.588">*</text><!--link Special to Character--><path d="M521.055,539.727 C525.173,541.877 529.268,543.974 533.313,546 C636.307,597.579 760.199,648.392 834.753,677.809 " fill="none" id="Special-Character" style="stroke: #A80036; stroke-width: 1.0;"/><polygon fill="#A80036" points="516.578,537.374,522.6842,545.1015,521.0041,539.6999,526.4057,538.0198,516.578,537.374" style="stroke: #A80036; stroke-width: 1.0;"/><text fill="#000000" font-family="sans-serif" font-size="13" lengthAdjust="spacingAndGlyphs" textLength="72" x="634.313" y="589.0669">List Special</text><text fill="#000000" font-family="sans-serif" font-size="13" lengthAdjust="spacingAndGlyphs" textLength="8" x="524.3224" y="538.3863">0</text><text fill="#000000" font-family="sans-serif" font-size="13" lengthAdjust="spacingAndGlyphs" textLength="7" x="819.6523" y="670.9162">*</text><!--link Feat to Character--><path d="M817.589,530.089 C787.233,549.673 760.339,568.478 756.313,576 C732.666,620.185 786.089,656.245 834.631,678.602 " fill="none" id="Feat-Character" style="stroke: #A80036; stroke-width: 1.0;"/><polygon fill="#A80036" points="822.09,527.196,812.3565,528.6991,817.8844,529.9002,816.6833,535.4281,822.09,527.196" style="stroke: #A80036; stroke-width: 1.0;"/><text fill="#000000" font-family="sans-serif" font-size="13" lengthAdjust="spacingAndGlyphs" textLength="54" x="757.313" y="589.0669">List Feat</text><text fill="#000000" font-family="sans-serif" font-size="13" lengthAdjust="spacingAndGlyphs" textLength="8" x="802.6066" y="547.0325">0</text><text fill="#000000" font-family="sans-serif" font-size="13" lengthAdjust="spacingAndGlyphs" textLength="7" x="819.9548" y="688.6506">*</text><!--
@startuml
enum BoughtFrom {
	Racial Package
	Professional Package
	XP
	Gift
	Other
}
abstract "Stat" as Stat {
	Strength 
	Agility 
	Intuition 
	Perception 
	Charisma 
	None 
}
class "Namable" as Namable  {
	Name: String 
	Description: String 
}
class "Buyable" as Buyable  {
	Source: BoughtFrom 
	Stat: Stat 
	Bought: Boolean 
	Skilled: Boolean 
	Professional: Boolean 
	Master: Boolean 
}
BoughtFrom <- - Buyable : Source
Stat <- - Buyable : Stat
class "Skill " as Skill  {
	Name: String  <i>from Namable</i>
	Description: String  <i>from Namable</i>
	Source: BoughtFrom  <i>from Buyable</i>
	Stat: Stat  <i>from Buyable</i>
	Bought: Boolean  <i>from Buyable</i>
	Skilled: Boolean  <i>from Buyable</i>
	Professional: Boolean  <i>from Buyable</i>
	Master: Boolean  <i>from Buyable</i>
}
BoughtFrom <- - Skill : Source
Stat <- - Skill : Stat
Namable <|- - Skill
Buyable <|- - Skill
class "Resistance " as Resistance  {
	Name: String  <i>from Namable</i>
	Description: String  <i>from Namable</i>
	Source: BoughtFrom  <i>from Buyable</i>
	Stat: Stat  <i>from Buyable</i>
	Bought: Boolean  <i>from Buyable</i>
	Skilled: Boolean  <i>from Buyable</i>
	Professional: Boolean  <i>from Buyable</i>
	Master: Boolean  <i>from Buyable</i>
}
BoughtFrom <- - Resistance : Source
Stat <- - Resistance : Stat
Namable <|- - Resistance
Buyable <|- - Resistance
class "Special " as Special  {
	Name: String  <i>from Namable</i>
	Description: String  <i>from Namable</i>
	Source: BoughtFrom  <i>from Buyable</i>
	Stat: Stat  <i>from Buyable</i>
	Bought: Boolean  <i>from Buyable</i>
	Skilled: Boolean  <i>from Buyable</i>
	Professional: Boolean  <i>from Buyable</i>
	Master: Boolean  <i>from Buyable</i>
}
BoughtFrom <- - Special : Source
Stat <- - Special : Stat
Namable <|- - Special
Buyable <|- - Special
class "Feat " as Feat  {
	Rank: Number 
	XP: Number 
	Stat: Stat 
	Name: String  <i>from Namable</i>
	Description: String  <i>from Namable</i>
}
Stat <- - Feat : Stat
Namable <|- - Feat
class "Statistic" as Statistic  {
	Stat: Stat 
	Description: String 
	XP: XP 
	Value: Number 
}
Stat <- - Statistic : Stat
class "Character" as Character  {
	Name: String 
	Skills: List Skill
	Specials: List Special
	Feats: List Feat
	Strength: Statistic 
	Agility: Statistic 
	Intuition: Statistic 
	Perception: Statistic 
	Charisma: Statistic 
}
Statistic <- - Character : Strength
Statistic <- - Character : Agility
Statistic <- - Character : Intuition
Statistic <- - Character : Perception
Statistic <- - Character : Charisma
Skill "0" <- - "*" Character : List Skill
Special "0" <- - "*" Character : List Special
Feat "0" <- - "*" Character : List Feat
@enduml

PlantUML version 1.2019.05beta2(Unknown compile time)
(GPL source distribution)
Java Runtime: Java(TM) SE Runtime Environment
JVM: Java HotSpot(TM) 64-Bit Server VM
Java Version: 1.7.0_25-b15
Operating System: Linux
Default Encoding: UTF-8
Language: en
Country: US
--></g></svg>