<?xml version="1.0" encoding="UTF-8" standalone="no"?><svg xmlns="http://www.w3.org/2000/svg" xmlns:xlink="http://www.w3.org/1999/xlink" contentScriptType="application/ecmascript" contentStyleType="text/css" height="506px" preserveAspectRatio="none" style="width:958px;height:506px;" version="1.1" viewBox="0 0 958 506" width="958px" zoomAndPan="magnify"><defs><filter height="300%" id="f1nxfponf3h0en" width="300%" x="-1" y="-1"><feGaussianBlur result="blurOut" stdDeviation="2.0"/><feColorMatrix in="blurOut" result="blurOut2" type="matrix" values="0 0 0 0 0 0 0 0 0 0 0 0 0 0 0 0 0 0 .4 0"/><feOffset dx="4.0" dy="4.0" in="blurOut2" result="blurOut3"/><feBlend in="SourceGraphic" in2="blurOut3" mode="normal"/></filter></defs><g><!--class Customer--><rect fill="#FEFECE" filter="url(#f1nxfponf3h0en)" height="176.0469" id="Customer" style="stroke: #A80036; stroke-width: 1.5;" width="96" x="6" y="143"/><ellipse cx="22.8" cy="159" fill="#ADD1B2" rx="11" ry="11" style="stroke: #A80036; stroke-width: 1.0;"/><path d="M25.1438,154.6719 L25.3156,154.75 C25.5344,154.4375 25.7375,154.3438 26.0344,154.3438 C26.3313,154.3438 26.6125,154.4844 26.7688,154.75 C26.8625,154.9063 26.8781,155.0313 26.8781,155.4688 L26.8781,156.8906 C26.8781,157.3125 26.8469,157.5 26.7375,157.6563 C26.5656,157.875 26.3,158.0156 26.0344,158.0156 C25.8156,158.0156 25.5813,157.9063 25.4406,157.7656 C25.3,157.6406 25.2688,157.5156 25.2063,157.1094 C25.1125,156.7031 24.9406,156.4844 24.4563,156.2031 C23.9875,155.9531 23.3781,155.7969 22.8,155.7969 C21.0656,155.7969 19.8156,157.1094 19.8156,158.8906 L19.8156,159.9844 C19.8156,161.6875 21.1125,162.7813 23.1594,162.7813 C23.925,162.7813 24.6125,162.6563 25.0344,162.3906 C25.2219,162.2969 25.2219,162.2969 25.675,161.8125 C25.8625,161.625 26.0656,161.5469 26.2844,161.5469 C26.7531,161.5469 27.1438,161.9375 27.1438,162.3906 C27.1438,162.7813 26.8156,163.2344 26.2375,163.6406 C25.4875,164.1875 24.3313,164.4844 23.1125,164.4844 C20.2219,164.4844 18.1125,162.5938 18.1125,160.0156 L18.1125,158.8906 C18.1125,156.1719 20.1125,154.0938 22.7375,154.0938 C23.6125,154.0938 24.2063,154.2344 25.1438,154.6719 Z "/><text fill="#000000" font-family="sans-serif" font-size="12" lengthAdjust="spacingAndGlyphs" textLength="60" x="37.2" y="163.1543">Customer</text><line style="stroke: #A80036; stroke-width: 1.5;" x1="7" x2="101" y1="175" y2="175"/><text fill="#000000" font-family="sans-serif" font-size="11" lengthAdjust="spacingAndGlyphs" textLength="84" x="12" y="189.2104">CustomerId: Id</text><text fill="#000000" font-family="sans-serif" font-size="11" lengthAdjust="spacingAndGlyphs" textLength="84" x="12" y="202.0151">CustomerId: Id</text><text fill="#000000" font-family="sans-serif" font-size="11" lengthAdjust="spacingAndGlyphs" textLength="84" x="12" y="214.8198">CustomerId: Id</text><text fill="#000000" font-family="sans-serif" font-size="11" lengthAdjust="spacingAndGlyphs" textLength="84" x="12" y="227.6245">CustomerId: Id</text><text fill="#000000" font-family="sans-serif" font-size="11" lengthAdjust="spacingAndGlyphs" textLength="84" x="12" y="240.4292">CustomerId: Id</text><text fill="#000000" font-family="sans-serif" font-size="11" lengthAdjust="spacingAndGlyphs" textLength="84" x="12" y="253.2339">CustomerId: Id</text><text fill="#000000" font-family="sans-serif" font-size="11" lengthAdjust="spacingAndGlyphs" textLength="84" x="12" y="266.0386">CustomerId: Id</text><text fill="#000000" font-family="sans-serif" font-size="11" lengthAdjust="spacingAndGlyphs" textLength="84" x="12" y="278.8433">CustomerId: Id</text><text fill="#000000" font-family="sans-serif" font-size="11" lengthAdjust="spacingAndGlyphs" textLength="84" x="12" y="291.6479">CustomerId: Id</text><text fill="#000000" font-family="sans-serif" font-size="11" lengthAdjust="spacingAndGlyphs" textLength="84" x="12" y="304.4526">CustomerId: Id</text><line style="stroke: #A80036; stroke-width: 1.5;" x1="7" x2="101" y1="311.0469" y2="311.0469"/><!--class Error--><rect fill="#FEFECE" filter="url(#f1nxfponf3h0en)" height="73.6094" id="Error" style="stroke: #A80036; stroke-width: 1.5;" width="117" x="408.5" y="8"/><ellipse cx="447.8" cy="24" fill="#ADD1B2" rx="11" ry="11" style="stroke: #A80036; stroke-width: 1.0;"/><path d="M450.1438,19.6719 L450.3156,19.75 C450.5344,19.4375 450.7375,19.3438 451.0344,19.3438 C451.3313,19.3438 451.6125,19.4844 451.7688,19.75 C451.8625,19.9063 451.8781,20.0313 451.8781,20.4688 L451.8781,21.8906 C451.8781,22.3125 451.8469,22.5 451.7375,22.6563 C451.5656,22.875 451.3,23.0156 451.0344,23.0156 C450.8156,23.0156 450.5813,22.9063 450.4406,22.7656 C450.3,22.6406 450.2688,22.5156 450.2063,22.1094 C450.1125,21.7031 449.9406,21.4844 449.4563,21.2031 C448.9875,20.9531 448.3781,20.7969 447.8,20.7969 C446.0656,20.7969 444.8156,22.1094 444.8156,23.8906 L444.8156,24.9844 C444.8156,26.6875 446.1125,27.7813 448.1594,27.7813 C448.925,27.7813 449.6125,27.6563 450.0344,27.3906 C450.2219,27.2969 450.2219,27.2969 450.675,26.8125 C450.8625,26.625 451.0656,26.5469 451.2844,26.5469 C451.7531,26.5469 452.1438,26.9375 452.1438,27.3906 C452.1438,27.7813 451.8156,28.2344 451.2375,28.6406 C450.4875,29.1875 449.3313,29.4844 448.1125,29.4844 C445.2219,29.4844 443.1125,27.5938 443.1125,25.0156 L443.1125,23.8906 C443.1125,21.1719 445.1125,19.0938 447.7375,19.0938 C448.6125,19.0938 449.2063,19.2344 450.1438,19.6719 Z "/><text fill="#000000" font-family="sans-serif" font-size="12" lengthAdjust="spacingAndGlyphs" textLength="31" x="467.2" y="28.1543">Error</text><line style="stroke: #A80036; stroke-width: 1.5;" x1="409.5" x2="524.5" y1="40" y2="40"/><text fill="#000000" font-family="sans-serif" font-size="11" lengthAdjust="spacingAndGlyphs" textLength="105" x="414.5" y="54.2104">HttpCode: Number</text><text fill="#000000" font-family="sans-serif" font-size="11" lengthAdjust="spacingAndGlyphs" textLength="93" x="414.5" y="67.0151">Message: String</text><line style="stroke: #A80036; stroke-width: 1.5;" x1="409.5" x2="524.5" y1="73.6094" y2="73.6094"/><!--class Error404--><rect fill="#FEFECE" filter="url(#f1nxfponf3h0en)" height="112.0234" id="Error404" style="stroke: #A80036; stroke-width: 1.5;" width="185" x="154.5" y="175"/><ellipse cx="213.25" cy="191" fill="#ADD1B2" rx="11" ry="11" style="stroke: #A80036; stroke-width: 1.0;"/><path d="M215.5938,186.6719 L215.7656,186.75 C215.9844,186.4375 216.1875,186.3438 216.4844,186.3438 C216.7813,186.3438 217.0625,186.4844 217.2188,186.75 C217.3125,186.9063 217.3281,187.0313 217.3281,187.4688 L217.3281,188.8906 C217.3281,189.3125 217.2969,189.5 217.1875,189.6563 C217.0156,189.875 216.75,190.0156 216.4844,190.0156 C216.2656,190.0156 216.0313,189.9063 215.8906,189.7656 C215.75,189.6406 215.7188,189.5156 215.6563,189.1094 C215.5625,188.7031 215.3906,188.4844 214.9063,188.2031 C214.4375,187.9531 213.8281,187.7969 213.25,187.7969 C211.5156,187.7969 210.2656,189.1094 210.2656,190.8906 L210.2656,191.9844 C210.2656,193.6875 211.5625,194.7813 213.6094,194.7813 C214.375,194.7813 215.0625,194.6563 215.4844,194.3906 C215.6719,194.2969 215.6719,194.2969 216.125,193.8125 C216.3125,193.625 216.5156,193.5469 216.7344,193.5469 C217.2031,193.5469 217.5938,193.9375 217.5938,194.3906 C217.5938,194.7813 217.2656,195.2344 216.6875,195.6406 C215.9375,196.1875 214.7813,196.4844 213.5625,196.4844 C210.6719,196.4844 208.5625,194.5938 208.5625,192.0156 L208.5625,190.8906 C208.5625,188.1719 210.5625,186.0938 213.1875,186.0938 C214.0625,186.0938 214.6563,186.2344 215.5938,186.6719 Z "/><text fill="#000000" font-family="sans-serif" font-size="12" lengthAdjust="spacingAndGlyphs" textLength="55" x="233.75" y="195.1543">Error404</text><line style="stroke: #A80036; stroke-width: 1.5;" x1="155.5" x2="338.5" y1="207" y2="207"/><text fill="#000000" font-family="sans-serif" font-size="11" lengthAdjust="spacingAndGlyphs" textLength="105" x="160.5" y="221.2104">HttpCode: Number</text><text fill="#000000" font-family="sans-serif" font-size="11" font-style="italic" lengthAdjust="spacingAndGlyphs" textLength="60" x="273.5" y="221.2104">from Error</text><text fill="#000000" font-family="sans-serif" font-size="11" lengthAdjust="spacingAndGlyphs" textLength="93" x="160.5" y="234.0151">Message: String</text><text fill="#000000" font-family="sans-serif" font-size="11" font-style="italic" lengthAdjust="spacingAndGlyphs" textLength="60" x="261.5" y="234.0151">from Error</text><line style="stroke: #A80036; stroke-width: 1.0;" x1="155.5" x2="338.5" y1="240.6094" y2="240.6094"/><text fill="#000000" font-family="sans-serif" font-size="11" font-weight="bold" lengthAdjust="spacingAndGlyphs" textLength="31" x="160.5" y="254.8198">code</text><text fill="#000000" font-family="sans-serif" font-size="11" lengthAdjust="spacingAndGlyphs" textLength="29" x="191.5" y="254.8198">: 404</text><text fill="#000000" font-family="sans-serif" font-size="11" font-weight="bold" lengthAdjust="spacingAndGlyphs" textLength="57" x="160.5" y="267.6245">message</text><text fill="#000000" font-family="sans-serif" font-size="11" lengthAdjust="spacingAndGlyphs" textLength="65" x="217.5" y="267.6245">: Not Found</text><text fill="#000000" font-family="sans-serif" font-size="11" lengthAdjust="spacingAndGlyphs" textLength="0" x="164.5" y="280.4292"/><!--class Error401--><rect fill="#FEFECE" filter="url(#f1nxfponf3h0en)" height="112.0234" id="Error401" style="stroke: #A80036; stroke-width: 1.5;" width="185" x="374.5" y="175"/><ellipse cx="433.25" cy="191" fill="#ADD1B2" rx="11" ry="11" style="stroke: #A80036; stroke-width: 1.0;"/><path d="M435.5938,186.6719 L435.7656,186.75 C435.9844,186.4375 436.1875,186.3438 436.4844,186.3438 C436.7813,186.3438 437.0625,186.4844 437.2188,186.75 C437.3125,186.9063 437.3281,187.0313 437.3281,187.4688 L437.3281,188.8906 C437.3281,189.3125 437.2969,189.5 437.1875,189.6563 C437.0156,189.875 436.75,190.0156 436.4844,190.0156 C436.2656,190.0156 436.0313,189.9063 435.8906,189.7656 C435.75,189.6406 435.7188,189.5156 435.6563,189.1094 C435.5625,188.7031 435.3906,188.4844 434.9063,188.2031 C434.4375,187.9531 433.8281,187.7969 433.25,187.7969 C431.5156,187.7969 430.2656,189.1094 430.2656,190.8906 L430.2656,191.9844 C430.2656,193.6875 431.5625,194.7813 433.6094,194.7813 C434.375,194.7813 435.0625,194.6563 435.4844,194.3906 C435.6719,194.2969 435.6719,194.2969 436.125,193.8125 C436.3125,193.625 436.5156,193.5469 436.7344,193.5469 C437.2031,193.5469 437.5938,193.9375 437.5938,194.3906 C437.5938,194.7813 437.2656,195.2344 436.6875,195.6406 C435.9375,196.1875 434.7813,196.4844 433.5625,196.4844 C430.6719,196.4844 428.5625,194.5938 428.5625,192.0156 L428.5625,190.8906 C428.5625,188.1719 430.5625,186.0938 433.1875,186.0938 C434.0625,186.0938 434.6563,186.2344 435.5938,186.6719 Z "/><text fill="#000000" font-family="sans-serif" font-size="12" lengthAdjust="spacingAndGlyphs" textLength="55" x="453.75" y="195.1543">Error401</text><line style="stroke: #A80036; stroke-width: 1.5;" x1="375.5" x2="558.5" y1="207" y2="207"/><text fill="#000000" font-family="sans-serif" font-size="11" lengthAdjust="spacingAndGlyphs" textLength="105" x="380.5" y="221.2104">HttpCode: Number</text><text fill="#000000" font-family="sans-serif" font-size="11" font-style="italic" lengthAdjust="spacingAndGlyphs" textLength="60" x="493.5" y="221.2104">from Error</text><text fill="#000000" font-family="sans-serif" font-size="11" lengthAdjust="spacingAndGlyphs" textLength="93" x="380.5" y="234.0151">Message: String</text><text fill="#000000" font-family="sans-serif" font-size="11" font-style="italic" lengthAdjust="spacingAndGlyphs" textLength="60" x="481.5" y="234.0151">from Error</text><line style="stroke: #A80036; stroke-width: 1.0;" x1="375.5" x2="558.5" y1="240.6094" y2="240.6094"/><text fill="#000000" font-family="sans-serif" font-size="11" font-weight="bold" lengthAdjust="spacingAndGlyphs" textLength="31" x="380.5" y="254.8198">code</text><text fill="#000000" font-family="sans-serif" font-size="11" lengthAdjust="spacingAndGlyphs" textLength="29" x="411.5" y="254.8198">: 401</text><text fill="#000000" font-family="sans-serif" font-size="11" font-weight="bold" lengthAdjust="spacingAndGlyphs" textLength="57" x="380.5" y="267.6245">message</text><text fill="#000000" font-family="sans-serif" font-size="11" lengthAdjust="spacingAndGlyphs" textLength="84" x="437.5" y="267.6245">: Unauthorised</text><text fill="#000000" font-family="sans-serif" font-size="11" lengthAdjust="spacingAndGlyphs" textLength="0" x="384.5" y="280.4292"/><!--class Error500--><rect fill="#FEFECE" filter="url(#f1nxfponf3h0en)" height="112.0234" id="Error500" style="stroke: #A80036; stroke-width: 1.5;" width="195" x="594.5" y="175"/><ellipse cx="658.25" cy="191" fill="#ADD1B2" rx="11" ry="11" style="stroke: #A80036; stroke-width: 1.0;"/><path d="M660.5938,186.6719 L660.7656,186.75 C660.9844,186.4375 661.1875,186.3438 661.4844,186.3438 C661.7813,186.3438 662.0625,186.4844 662.2188,186.75 C662.3125,186.9063 662.3281,187.0313 662.3281,187.4688 L662.3281,188.8906 C662.3281,189.3125 662.2969,189.5 662.1875,189.6563 C662.0156,189.875 661.75,190.0156 661.4844,190.0156 C661.2656,190.0156 661.0313,189.9063 660.8906,189.7656 C660.75,189.6406 660.7188,189.5156 660.6563,189.1094 C660.5625,188.7031 660.3906,188.4844 659.9063,188.2031 C659.4375,187.9531 658.8281,187.7969 658.25,187.7969 C656.5156,187.7969 655.2656,189.1094 655.2656,190.8906 L655.2656,191.9844 C655.2656,193.6875 656.5625,194.7813 658.6094,194.7813 C659.375,194.7813 660.0625,194.6563 660.4844,194.3906 C660.6719,194.2969 660.6719,194.2969 661.125,193.8125 C661.3125,193.625 661.5156,193.5469 661.7344,193.5469 C662.2031,193.5469 662.5938,193.9375 662.5938,194.3906 C662.5938,194.7813 662.2656,195.2344 661.6875,195.6406 C660.9375,196.1875 659.7813,196.4844 658.5625,196.4844 C655.6719,196.4844 653.5625,194.5938 653.5625,192.0156 L653.5625,190.8906 C653.5625,188.1719 655.5625,186.0938 658.1875,186.0938 C659.0625,186.0938 659.6563,186.2344 660.5938,186.6719 Z "/><text fill="#000000" font-family="sans-serif" font-size="12" lengthAdjust="spacingAndGlyphs" textLength="55" x="678.75" y="195.1543">Error500</text><line style="stroke: #A80036; stroke-width: 1.5;" x1="595.5" x2="788.5" y1="207" y2="207"/><text fill="#000000" font-family="sans-serif" font-size="11" lengthAdjust="spacingAndGlyphs" textLength="105" x="600.5" y="221.2104">HttpCode: Number</text><text fill="#000000" font-family="sans-serif" font-size="11" font-style="italic" lengthAdjust="spacingAndGlyphs" textLength="60" x="713.5" y="221.2104">from Error</text><text fill="#000000" font-family="sans-serif" font-size="11" lengthAdjust="spacingAndGlyphs" textLength="93" x="600.5" y="234.0151">Message: String</text><text fill="#000000" font-family="sans-serif" font-size="11" font-style="italic" lengthAdjust="spacingAndGlyphs" textLength="60" x="701.5" y="234.0151">from Error</text><line style="stroke: #A80036; stroke-width: 1.0;" x1="595.5" x2="788.5" y1="240.6094" y2="240.6094"/><text fill="#000000" font-family="sans-serif" font-size="11" font-weight="bold" lengthAdjust="spacingAndGlyphs" textLength="31" x="600.5" y="254.8198">code</text><text fill="#000000" font-family="sans-serif" font-size="11" lengthAdjust="spacingAndGlyphs" textLength="29" x="631.5" y="254.8198">: 500</text><text fill="#000000" font-family="sans-serif" font-size="11" font-weight="bold" lengthAdjust="spacingAndGlyphs" textLength="57" x="600.5" y="267.6245">message</text><text fill="#000000" font-family="sans-serif" font-size="11" lengthAdjust="spacingAndGlyphs" textLength="126" x="657.5" y="267.6245">: Internal Server Error</text><text fill="#000000" font-family="sans-serif" font-size="11" lengthAdjust="spacingAndGlyphs" textLength="0" x="604.5" y="280.4292"/><!--class Response--><rect fill="#FEFECE" filter="url(#f1nxfponf3h0en)" height="124.8281" id="Response" style="stroke: #A80036; stroke-width: 1.5;" width="106" x="841" y="168.5"/><ellipse cx="856" cy="184.5" fill="#DA70D6" rx="11" ry="11" style="stroke: #A80036; stroke-width: 1.0;"/><path d="M856.4375,182.0313 L856.4375,188.5469 L857.5625,188.5469 C858.0156,188.5469 858.1563,188.5781 858.3125,188.7031 C858.5469,188.875 858.6719,189.125 858.6719,189.4063 C858.6719,189.6875 858.5313,189.9844 858.2656,190.125 C858.1563,190.2031 857.8906,190.25 857.5625,190.25 L853.625,190.25 C853.2344,190.25 853.0156,190.2031 852.8594,190.0781 C852.6406,189.9219 852.5,189.6563 852.5,189.4063 C852.5,189.1094 852.6563,188.8281 852.9063,188.6719 C853.0625,188.5625 853.1875,188.5469 853.625,188.5469 L854.7344,188.5469 L854.7344,182.0313 L852.9063,182.0313 L852.9063,183.625 C852.9063,184.0781 852.875,184.2188 852.7656,184.3906 C852.5938,184.6094 852.3438,184.7344 852.0625,184.7344 C851.7813,184.7344 851.4844,184.5938 851.3281,184.3281 C851.25,184.1875 851.2188,184.0156 851.2188,183.625 L851.2188,180.3438 L859.9844,180.3438 L859.9844,183.625 C859.9844,184.0938 859.9688,184.2188 859.8281,184.3906 C859.6563,184.6094 859.4063,184.7344 859.1406,184.7344 C858.8438,184.7344 858.5625,184.5781 858.4063,184.3281 C858.3125,184.1875 858.2813,184.0156 858.2813,183.625 L858.2813,182.0313 Z "/><text fill="#000000" font-family="sans-serif" font-size="12" lengthAdjust="spacingAndGlyphs" textLength="74" x="870" y="188.6543">Response a</text><line style="stroke: #A80036; stroke-width: 1.5;" x1="842" x2="946" y1="200.5" y2="200.5"/><text fill="#000000" font-family="sans-serif" font-size="11" lengthAdjust="spacingAndGlyphs" textLength="82" x="847" y="214.7104">Code: Number</text><text fill="#000000" font-family="sans-serif" font-size="11" lengthAdjust="spacingAndGlyphs" textLength="93" x="847" y="227.5151">Message: String</text><text fill="#000000" font-family="sans-serif" font-size="11" lengthAdjust="spacingAndGlyphs" textLength="43" x="847" y="240.3198">Body: a</text><line style="stroke: #A80036; stroke-width: 1.0;" x1="842" x2="946" y1="246.9141" y2="246.9141"/><text fill="#000000" font-family="sans-serif" font-size="11" font-weight="bold" lengthAdjust="spacingAndGlyphs" textLength="31" x="847" y="261.1245">code</text><text fill="#000000" font-family="sans-serif" font-size="11" lengthAdjust="spacingAndGlyphs" textLength="29" x="878" y="261.1245">: 200</text><text fill="#000000" font-family="sans-serif" font-size="11" font-weight="bold" lengthAdjust="spacingAndGlyphs" textLength="57" x="847" y="273.9292">message</text><text fill="#000000" font-family="sans-serif" font-size="11" lengthAdjust="spacingAndGlyphs" textLength="24" x="904" y="273.9292">: OK</text><text fill="#000000" font-family="sans-serif" font-size="11" lengthAdjust="spacingAndGlyphs" textLength="0" x="851" y="286.7339"/><!--class ApiResponse--><rect fill="#FEFECE" filter="url(#f1nxfponf3h0en)" height="99.2188" id="ApiResponse" style="stroke: #A80036; stroke-width: 1.5;" width="123" x="599.5" y="396"/><ellipse cx="614.5" cy="412" fill="#A9DCDF" rx="11" ry="11" style="stroke: #A80036; stroke-width: 1.0;"/><path d="M616.0781,413.8125 L612.0313,413.8125 L611.6406,414.7969 L612.0313,414.7969 C612.4844,414.7969 612.625,414.8281 612.7969,414.9531 C613.0156,415.125 613.1406,415.375 613.1406,415.6563 C613.1406,415.9375 613,416.2344 612.7344,416.375 C612.6094,416.4688 612.3906,416.5 612.0313,416.5 L609.7656,416.5 C609.0156,416.5 608.6406,416.2188 608.6406,415.6563 C608.6406,415.3594 608.7969,415.0781 609.0469,414.9219 C609.2031,414.8125 609.3594,414.7969 609.7813,414.7969 L612.4219,408.2813 L611.3438,408.2813 C610.9063,408.2813 610.7344,408.25 610.5625,408.1406 C610.3438,407.9688 610.2031,407.7188 610.2031,407.4375 C610.2031,407.1563 610.3594,406.875 610.6094,406.7031 C610.7656,406.6094 610.8906,406.5938 611.3438,406.5938 L615.0156,406.5938 L618.4063,414.7969 C618.875,414.7969 619.0313,414.8281 619.2031,414.9688 C619.4219,415.125 619.5625,415.375 619.5625,415.6563 C619.5625,415.9375 619.4063,416.2344 619.1563,416.375 C619.0156,416.4688 618.7969,416.5 618.4375,416.5 L616.0781,416.5 C615.6563,416.5 615.4531,416.4531 615.3125,416.3281 C615.0938,416.1719 614.9531,415.9219 614.9531,415.6563 C614.9531,415.3594 615.1094,415.0781 615.3594,414.9219 C615.5156,414.8125 615.625,414.7969 616.0781,414.7969 L616.4688,414.7969 Z M615.375,412.1094 L614.0469,408.8438 L612.7031,412.1094 Z "/><text fill="#000000" font-family="sans-serif" font-size="12" font-style="italic" lengthAdjust="spacingAndGlyphs" textLength="91" x="628.5" y="416.1543">ApiResponse a</text><line style="stroke: #A80036; stroke-width: 1.5;" x1="600.5" x2="721.5" y1="428" y2="428"/><text fill="#000000" font-family="sans-serif" font-size="11" lengthAdjust="spacingAndGlyphs" textLength="50" x="605.5" y="442.2104">Error401</text><text fill="#000000" font-family="sans-serif" font-size="11" lengthAdjust="spacingAndGlyphs" textLength="50" x="605.5" y="455.0151">Error404</text><text fill="#000000" font-family="sans-serif" font-size="11" lengthAdjust="spacingAndGlyphs" textLength="50" x="605.5" y="467.8198">Error500</text><text fill="#000000" font-family="sans-serif" font-size="11" lengthAdjust="spacingAndGlyphs" textLength="67" x="605.5" y="480.6245">Response a</text><line style="stroke: #A80036; stroke-width: 1.5;" x1="600.5" x2="721.5" y1="487.2188" y2="487.2188"/><!--class CustomerResponse--><rect fill="#FEFECE" filter="url(#f1nxfponf3h0en)" height="99.2188" id="CustomerResponse" style="stroke: #A80036; stroke-width: 1.5;" width="155" x="244.5" y="396"/><ellipse cx="259.5" cy="412" fill="#A9DCDF" rx="11" ry="11" style="stroke: #A80036; stroke-width: 1.0;"/><path d="M261.0781,413.8125 L257.0313,413.8125 L256.6406,414.7969 L257.0313,414.7969 C257.4844,414.7969 257.625,414.8281 257.7969,414.9531 C258.0156,415.125 258.1406,415.375 258.1406,415.6563 C258.1406,415.9375 258,416.2344 257.7344,416.375 C257.6094,416.4688 257.3906,416.5 257.0313,416.5 L254.7656,416.5 C254.0156,416.5 253.6406,416.2188 253.6406,415.6563 C253.6406,415.3594 253.7969,415.0781 254.0469,414.9219 C254.2031,414.8125 254.3594,414.7969 254.7813,414.7969 L257.4219,408.2813 L256.3438,408.2813 C255.9063,408.2813 255.7344,408.25 255.5625,408.1406 C255.3438,407.9688 255.2031,407.7188 255.2031,407.4375 C255.2031,407.1563 255.3594,406.875 255.6094,406.7031 C255.7656,406.6094 255.8906,406.5938 256.3438,406.5938 L260.0156,406.5938 L263.4063,414.7969 C263.875,414.7969 264.0313,414.8281 264.2031,414.9688 C264.4219,415.125 264.5625,415.375 264.5625,415.6563 C264.5625,415.9375 264.4063,416.2344 264.1563,416.375 C264.0156,416.4688 263.7969,416.5 263.4375,416.5 L261.0781,416.5 C260.6563,416.5 260.4531,416.4531 260.3125,416.3281 C260.0938,416.1719 259.9531,415.9219 259.9531,415.6563 C259.9531,415.3594 260.1094,415.0781 260.3594,414.9219 C260.5156,414.8125 260.625,414.7969 261.0781,414.7969 L261.4688,414.7969 Z M260.375,412.1094 L259.0469,408.8438 L257.7031,412.1094 Z "/><text fill="#000000" font-family="sans-serif" font-size="12" font-style="italic" lengthAdjust="spacingAndGlyphs" textLength="119" x="273.5" y="416.1543">CustomerResponse</text><line style="stroke: #A80036; stroke-width: 1.5;" x1="245.5" x2="398.5" y1="428" y2="428"/><text fill="#000000" font-family="sans-serif" font-size="11" lengthAdjust="spacingAndGlyphs" textLength="50" x="250.5" y="442.2104">Error401</text><text fill="#000000" font-family="sans-serif" font-size="11" lengthAdjust="spacingAndGlyphs" textLength="50" x="250.5" y="455.0151">Error404</text><text fill="#000000" font-family="sans-serif" font-size="11" lengthAdjust="spacingAndGlyphs" textLength="50" x="250.5" y="467.8198">Error500</text><text fill="#000000" font-family="sans-serif" font-size="11" lengthAdjust="spacingAndGlyphs" textLength="116" x="250.5" y="480.6245">Response Customer</text><line style="stroke: #A80036; stroke-width: 1.5;" x1="245.5" x2="398.5" y1="487.2188" y2="487.2188"/><!--link Error to Error404--><path d="M423.798,82.133 C396.698,104.798 360.893,134.744 328.595,161.757 " fill="none" id="Error-Error404" style="stroke: #A80036; stroke-width: 1.0;"/><polygon fill="none" points="332.907,167.276,313.075,174.737,323.925,156.537,332.907,167.276" style="stroke: #A80036; stroke-width: 1.0;"/><!--link Error to Error401--><path d="M467,82.352 C467,103.075 467,129.831 467,154.862 " fill="none" id="Error-Error401" style="stroke: #A80036; stroke-width: 1.0;"/><polygon fill="none" points="474,154.864,467,174.864,460,154.864,474,154.864" style="stroke: #A80036; stroke-width: 1.0;"/><!--link Error to Error500--><path d="M511.184,82.133 C538.9,104.798 575.519,134.744 608.551,161.757 " fill="none" id="Error-Error500" style="stroke: #A80036; stroke-width: 1.0;"/><polygon fill="none" points="613.373,156.658,624.423,174.737,604.51,167.495,613.373,156.658" style="stroke: #A80036; stroke-width: 1.0;"/><!--link Error401 to ApiResponse--><path d="M517.372,287.035 C535.261,306.592 555.536,328.771 574,349 C586.715,362.93 600.464,378.014 613.197,391.99 " fill="none" id="Error401-ApiResponse" style="stroke: #A80036; stroke-width: 1.0;"/><polygon fill="#A80036" points="616.759,395.9002,613.6563,386.5528,613.3923,392.2035,607.7416,391.9396,616.759,395.9002" style="stroke: #A80036; stroke-width: 1.0;"/><text fill="#000000" font-family="sans-serif" font-size="13" lengthAdjust="spacingAndGlyphs" textLength="55" x="590" y="362.0669">Error401</text><!--link Error404 to ApiResponse--><path d="M307.285,287.084 C322.657,298.976 339.739,310.511 357,319 C406.331,343.262 425.679,329.292 477,349 C492.034,354.773 494.734,358.527 509,366 C536.979,380.656 567.944,396.6826 594.584,410.4114 " fill="none" id="Error404-ApiResponse" style="stroke: #A80036; stroke-width: 1.0;"/><polygon fill="#A80036" points="599.163,412.7703,592.9945,405.0925,594.7182,410.4803,589.3304,412.2041,599.163,412.7703" style="stroke: #A80036; stroke-width: 1.0;"/><text fill="#000000" font-family="sans-serif" font-size="13" lengthAdjust="spacingAndGlyphs" textLength="55" x="510" y="362.0669">Error404</text><!--link Error500 to ApiResponse--><path d="M683.976,287 C679.311,318.984 673.456,359.116 668.825,390.864 " fill="none" id="Error500-ApiResponse" style="stroke: #A80036; stroke-width: 1.0;"/><polygon fill="#A80036" points="668.092,395.8846,673.3509,387.5573,668.8147,390.9371,665.4349,386.4009,668.092,395.8846" style="stroke: #A80036; stroke-width: 1.0;"/><text fill="#000000" font-family="sans-serif" font-size="13" lengthAdjust="spacingAndGlyphs" textLength="55" x="676" y="362.0669">Error500</text><!--link Response to ApiResponse--><path d="M896.776,293.502 C894.86,318.421 888.481,345.978 872,366 C836.65,408.9463 775.396,428.4034 727.962,437.215 " fill="none" id="Response-ApiResponse" style="stroke: #A80036; stroke-width: 1.0;"/><polygon fill="#A80036" points="722.834,438.1365,732.3996,440.4817,727.7552,437.2522,730.9847,432.6078,722.834,438.1365" style="stroke: #A80036; stroke-width: 1.0;"/><text fill="#000000" font-family="sans-serif" font-size="13" lengthAdjust="spacingAndGlyphs" textLength="62" x="883" y="362.0669">Response</text><!--link Error401 to CustomerResponse--><path d="M397.472,287.005 C384.045,297.624 370.086,308.659 357,319 C340.117,332.341 328.384,329.636 319,349 C312.879,361.63 311.132,376.343 311.536,390.383 " fill="none" id="Error401-CustomerResponse" style="stroke: #A80036; stroke-width: 1.0;"/><polygon fill="#A80036" points="311.778,395.5203,315.3493,386.3417,311.5423,390.5259,307.3581,386.7189,311.778,395.5203" style="stroke: #A80036; stroke-width: 1.0;"/><text fill="#000000" font-family="sans-serif" font-size="13" lengthAdjust="spacingAndGlyphs" textLength="55" x="320" y="362.0669">Error401</text><!--link Error404 to CustomerResponse--><path d="M221.668,287.226 C213.901,312.256 210.15,341.632 222,366 C226.645,375.552 233.078,384.287 240.462,392.175 " fill="none" id="Error404-CustomerResponse" style="stroke: #A80036; stroke-width: 1.0;"/><polygon fill="#A80036" points="244.16,395.9783,240.753,386.7375,240.6741,392.3938,235.0178,392.315,244.16,395.9783" style="stroke: #A80036; stroke-width: 1.0;"/><text fill="#000000" font-family="sans-serif" font-size="13" lengthAdjust="spacingAndGlyphs" textLength="55" x="223" y="362.0669">Error404</text><!--link Error500 to CustomerResponse--><path d="M629.954,287.121 C613.647,299.233 595.435,310.857 577,319 C510.419,348.41 480.265,314.824 416,349 C396.118,359.573 377.832,375.805 362.778,391.903 " fill="none" id="Error500-CustomerResponse" style="stroke: #A80036; stroke-width: 1.0;"/><polygon fill="#A80036" points="359.021,395.9897,368.0575,392.0728,362.4056,392.3094,362.169,386.6575,359.021,395.9897" style="stroke: #A80036; stroke-width: 1.0;"/><text fill="#000000" font-family="sans-serif" font-size="13" lengthAdjust="spacingAndGlyphs" textLength="55" x="417" y="362.0669">Error500</text><!--link Response to CustomerResponse--><path d="M840.896,293.379 C813.664,320.53 778.213,349.903 740,366 C738.057,366.818 525.949,406.4583 404.671,429.086 " fill="none" id="Response-CustomerResponse" style="stroke: #A80036; stroke-width: 1.0;"/><polygon fill="#A80036" points="399.681,430.017,409.262,432.2983,404.5962,429.0999,407.7946,424.434,399.681,430.017" style="stroke: #A80036; stroke-width: 1.0;"/><text fill="#000000" font-family="sans-serif" font-size="13" lengthAdjust="spacingAndGlyphs" textLength="62" x="771" y="362.0669">Response</text><!--link Customer to CustomerResponse--><path d="M55.7697,319.266 C59.7207,336.307 66.567,352.922 78,366 C114.569,407.8318 173.512,427.5319 224.303,436.7379 " fill="none" id="Customer-CustomerResponse" style="stroke: #A80036; stroke-width: 1.0; stroke-dasharray: 7.0,7.0;"/><polygon fill="none" points="225.734,429.8773,244.389,439.9263,223.539,443.7042,225.734,429.8773" style="stroke: #A80036; stroke-width: 1.0;"/><text fill="#000000" font-family="sans-serif" font-size="13" lengthAdjust="spacingAndGlyphs" textLength="62" x="79" y="362.0669">Response</text><text fill="#000000" font-family="sans-serif" font-size="13" font-style="italic" lengthAdjust="spacingAndGlyphs" textLength="63" x="145" y="362.0669">Customer</text><!--
@startuml
class "Customer" as Customer  {
	CustomerId: Id 
}
class "Customer" as Customer  {
	CustomerId: Id 
}
class "Customer" as Customer  {
	CustomerId: Id 
}
class "Customer" as Customer  {
	CustomerId: Id 
}
class "Customer" as Customer  {
	CustomerId: Id 
}
class "Customer" as Customer  {
	CustomerId: Id 
}
class "Customer" as Customer  {
	CustomerId: Id 
}
class "Customer" as Customer  {
	CustomerId: Id 
}
class "Customer" as Customer  {
	CustomerId: Id 
}
class "Customer" as Customer  {
	CustomerId: Id 
}
class "Error" as Error  {
	HttpCode: Number 
	Message: String 
}
class "Error404 " as Error404  {
	HttpCode: Number  <i>from Error</i>
	Message: String  <i>from Error</i>
- -
  <b>code</b>: 404
<b>message</b>: Not Found
    
}
Error - -|> Error404
class "Error401 " as Error401  {
	HttpCode: Number  <i>from Error</i>
	Message: String  <i>from Error</i>
- -
  <b>code</b>: 401
<b>message</b>: Unauthorised
    
}
Error - -|> Error401
class "Error500 " as Error500  {
	HttpCode: Number  <i>from Error</i>
	Message: String  <i>from Error</i>
- -
  <b>code</b>: 500
<b>message</b>: Internal Server Error
    
}
Error - -|> Error500
class "Response a" as Response << (T,orchid) >> {
	Code: Number 
	Message: String 
	Body: a 
- -
  <b>code</b>: 200
<b>message</b>: OK
    
}
abstract "ApiResponse a" as ApiResponse {
	Error401 
	Error404 
	Error500 
	Response a
}
Error401 - -> ApiResponse : Error401
Error404 - -> ApiResponse : Error404
Error500 - -> ApiResponse : Error500
Response - -> ApiResponse : Response
abstract "CustomerResponse " as CustomerResponse {
	Error401 
	Error404 
	Error500 
	Response Customer
}
Error401 - -> CustomerResponse : Error401
Error404 - -> CustomerResponse : Error404
Error500 - -> CustomerResponse : Error500
Response - -> CustomerResponse : Response
Customer ..|> CustomerResponse : Response <i>Customer</i>
@enduml

PlantUML version 1.2019.03(Sun Mar 10 11:04:44 UTC 2019)
(GPL source distribution)
Java Runtime: Java(TM) SE Runtime Environment
JVM: Java HotSpot(TM) 64-Bit Server VM
Java Version: 1.7.0_25-b15
Operating System: Linux
Default Encoding: UTF-8
Language: en
Country: US
--></g></svg>