<?xml version="1.0" encoding="UTF-8" standalone="no"?><svg xmlns="http://www.w3.org/2000/svg" xmlns:xlink="http://www.w3.org/1999/xlink" contentScriptType="application/ecmascript" contentStyleType="text/css" height="444px" preserveAspectRatio="none" style="width:388px;height:444px;" version="1.1" viewBox="0 0 388 444" width="388px" zoomAndPan="magnify"><defs><filter height="300%" id="fi3go8sz8gr23" width="300%" x="-1" y="-1"><feGaussianBlur result="blurOut" stdDeviation="2.0"/><feColorMatrix in="blurOut" result="blurOut2" type="matrix" values="0 0 0 0 0 0 0 0 0 0 0 0 0 0 0 0 0 0 .4 0"/><feOffset dx="4.0" dy="4.0" in="blurOut2" result="blurOut3"/><feBlend in="SourceGraphic" in2="blurOut3" mode="normal"/></filter></defs><g><!--class Envelope--><rect fill="#FEFECE" filter="url(#fi3go8sz8gr23)" height="99.2188" id="Envelope" style="stroke: #A80036; stroke-width: 1.5;" width="109" x="204" y="334"/><ellipse cx="228" cy="350" fill="#A9DCDF" rx="11" ry="11" style="stroke: #A80036; stroke-width: 1.0;"/><path d="M229.5781,351.8125 L225.5313,351.8125 L225.1406,352.7969 L225.5313,352.7969 C225.9844,352.7969 226.125,352.8281 226.2969,352.9531 C226.5156,353.125 226.6406,353.375 226.6406,353.6563 C226.6406,353.9375 226.5,354.2344 226.2344,354.375 C226.1094,354.4688 225.8906,354.5 225.5313,354.5 L223.2656,354.5 C222.5156,354.5 222.1406,354.2188 222.1406,353.6563 C222.1406,353.3594 222.2969,353.0781 222.5469,352.9219 C222.7031,352.8125 222.8594,352.7969 223.2813,352.7969 L225.9219,346.2813 L224.8438,346.2813 C224.4063,346.2813 224.2344,346.25 224.0625,346.1406 C223.8438,345.9688 223.7031,345.7188 223.7031,345.4375 C223.7031,345.1563 223.8594,344.875 224.1094,344.7031 C224.2656,344.6094 224.3906,344.5938 224.8438,344.5938 L228.5156,344.5938 L231.9063,352.7969 C232.375,352.7969 232.5313,352.8281 232.7031,352.9688 C232.9219,353.125 233.0625,353.375 233.0625,353.6563 C233.0625,353.9375 232.9063,354.2344 232.6563,354.375 C232.5156,354.4688 232.2969,354.5 231.9375,354.5 L229.5781,354.5 C229.1563,354.5 228.9531,354.4531 228.8125,354.3281 C228.5938,354.1719 228.4531,353.9219 228.4531,353.6563 C228.4531,353.3594 228.6094,353.0781 228.8594,352.9219 C229.0156,352.8125 229.125,352.7969 229.5781,352.7969 L229.9688,352.7969 Z M228.875,350.1094 L227.5469,346.8438 L226.2031,350.1094 Z "/><text fill="#000000" font-family="sans-serif" font-size="12" font-style="italic" lengthAdjust="spacingAndGlyphs" textLength="57" x="244" y="354.1543">Envelope</text><line style="stroke: #A80036; stroke-width: 1.5;" x1="205" x2="312" y1="366" y2="366"/><text fill="#000000" font-family="sans-serif" font-size="11" lengthAdjust="spacingAndGlyphs" textLength="68" x="210" y="380.2104">ApiMessage</text><text fill="#000000" font-family="sans-serif" font-size="11" lengthAdjust="spacingAndGlyphs" textLength="29" x="210" y="393.0151">Error</text><text fill="#000000" font-family="sans-serif" font-size="11" lengthAdjust="spacingAndGlyphs" textLength="12" x="210" y="405.8198">---</text><text fill="#000000" font-family="sans-serif" font-size="11" font-weight="bold" lengthAdjust="spacingAndGlyphs" textLength="72" x="210" y="418.6245">description</text><text fill="#000000" font-family="sans-serif" font-size="11" lengthAdjust="spacingAndGlyphs" textLength="25" x="282" y="418.6245">: api</text><line style="stroke: #A80036; stroke-width: 1.5;" x1="205" x2="312" y1="425.2188" y2="425.2188"/><!--class ApiMessage--><rect fill="#FEFECE" filter="url(#fi3go8sz8gr23)" height="86.4141" id="ApiMessage" style="stroke: #A80036; stroke-width: 1.5;" width="165" x="60" y="171"/><ellipse cx="75" cy="187" fill="#ADD1B2" rx="11" ry="11" style="stroke: #A80036; stroke-width: 1.0;"/><path d="M77.3438,182.6719 L77.5156,182.75 C77.7344,182.4375 77.9375,182.3438 78.2344,182.3438 C78.5313,182.3438 78.8125,182.4844 78.9688,182.75 C79.0625,182.9063 79.0781,183.0313 79.0781,183.4688 L79.0781,184.8906 C79.0781,185.3125 79.0469,185.5 78.9375,185.6563 C78.7656,185.875 78.5,186.0156 78.2344,186.0156 C78.0156,186.0156 77.7813,185.9063 77.6406,185.7656 C77.5,185.6406 77.4688,185.5156 77.4063,185.1094 C77.3125,184.7031 77.1406,184.4844 76.6563,184.2031 C76.1875,183.9531 75.5781,183.7969 75,183.7969 C73.2656,183.7969 72.0156,185.1094 72.0156,186.8906 L72.0156,187.9844 C72.0156,189.6875 73.3125,190.7813 75.3594,190.7813 C76.125,190.7813 76.8125,190.6563 77.2344,190.3906 C77.4219,190.2969 77.4219,190.2969 77.875,189.8125 C78.0625,189.625 78.2656,189.5469 78.4844,189.5469 C78.9531,189.5469 79.3438,189.9375 79.3438,190.3906 C79.3438,190.7813 79.0156,191.2344 78.4375,191.6406 C77.6875,192.1875 76.5313,192.4844 75.3125,192.4844 C72.4219,192.4844 70.3125,190.5938 70.3125,188.0156 L70.3125,186.8906 C70.3125,184.1719 72.3125,182.0938 74.9375,182.0938 C75.8125,182.0938 76.4063,182.2344 77.3438,182.6719 Z "/><text fill="#000000" font-family="sans-serif" font-size="12" lengthAdjust="spacingAndGlyphs" textLength="75" x="89" y="191.1543">ApiMessage</text><rect fill="#FFFFFF" height="15.9688" style="stroke: #000000; stroke-width: 1.0; stroke-dasharray: 2.0,2.0;" width="56" x="172" y="168"/><text fill="#000000" font-family="sans-serif" font-size="12" font-style="italic" lengthAdjust="spacingAndGlyphs" textLength="54" x="173" y="180.1387">Message</text><line style="stroke: #A80036; stroke-width: 1.5;" x1="61" x2="224" y1="203" y2="203"/><text fill="#000000" font-family="sans-serif" font-size="11" lengthAdjust="spacingAndGlyphs" textLength="105" x="66" y="217.2104">HttpCode: Number</text><text fill="#000000" font-family="sans-serif" font-size="11" lengthAdjust="spacingAndGlyphs" textLength="93" x="66" y="230.0151">Message: String</text><text fill="#000000" font-family="sans-serif" font-size="11" lengthAdjust="spacingAndGlyphs" textLength="124" x="66" y="242.8198">Body: OtherCustomer</text><line style="stroke: #A80036; stroke-width: 1.5;" x1="61" x2="224" y1="249.4141" y2="249.4141"/><!--class Error--><rect fill="#FEFECE" filter="url(#fi3go8sz8gr23)" height="73.6094" id="Error" style="stroke: #A80036; stroke-width: 1.5;" width="117" x="260" y="177"/><ellipse cx="299.3" cy="193" fill="#ADD1B2" rx="11" ry="11" style="stroke: #A80036; stroke-width: 1.0;"/><path d="M301.6438,188.6719 L301.8156,188.75 C302.0344,188.4375 302.2375,188.3438 302.5344,188.3438 C302.8313,188.3438 303.1125,188.4844 303.2688,188.75 C303.3625,188.9063 303.3781,189.0313 303.3781,189.4688 L303.3781,190.8906 C303.3781,191.3125 303.3469,191.5 303.2375,191.6563 C303.0656,191.875 302.8,192.0156 302.5344,192.0156 C302.3156,192.0156 302.0813,191.9063 301.9406,191.7656 C301.8,191.6406 301.7688,191.5156 301.7063,191.1094 C301.6125,190.7031 301.4406,190.4844 300.9563,190.2031 C300.4875,189.9531 299.8781,189.7969 299.3,189.7969 C297.5656,189.7969 296.3156,191.1094 296.3156,192.8906 L296.3156,193.9844 C296.3156,195.6875 297.6125,196.7813 299.6594,196.7813 C300.425,196.7813 301.1125,196.6563 301.5344,196.3906 C301.7219,196.2969 301.7219,196.2969 302.175,195.8125 C302.3625,195.625 302.5656,195.5469 302.7844,195.5469 C303.2531,195.5469 303.6438,195.9375 303.6438,196.3906 C303.6438,196.7813 303.3156,197.2344 302.7375,197.6406 C301.9875,198.1875 300.8313,198.4844 299.6125,198.4844 C296.7219,198.4844 294.6125,196.5938 294.6125,194.0156 L294.6125,192.8906 C294.6125,190.1719 296.6125,188.0938 299.2375,188.0938 C300.1125,188.0938 300.7063,188.2344 301.6438,188.6719 Z "/><text fill="#000000" font-family="sans-serif" font-size="12" lengthAdjust="spacingAndGlyphs" textLength="31" x="318.7" y="197.1543">Error</text><line style="stroke: #A80036; stroke-width: 1.5;" x1="261" x2="376" y1="209" y2="209"/><text fill="#000000" font-family="sans-serif" font-size="11" lengthAdjust="spacingAndGlyphs" textLength="105" x="266" y="223.2104">HttpCode: Number</text><text fill="#000000" font-family="sans-serif" font-size="11" lengthAdjust="spacingAndGlyphs" textLength="93" x="266" y="236.0151">Message: String</text><line style="stroke: #A80036; stroke-width: 1.5;" x1="261" x2="376" y1="242.6094" y2="242.6094"/><!--class Message--><rect fill="#FEFECE" filter="url(#fi3go8sz8gr23)" height="86.4141" id="Message" style="stroke: #A80036; stroke-width: 1.5;" width="117" x="6" y="8"/><ellipse cx="28.65" cy="24" fill="#DA70D6" rx="11" ry="11" style="stroke: #A80036; stroke-width: 1.0;"/><path d="M29.0875,21.5313 L29.0875,28.0469 L30.2125,28.0469 C30.6656,28.0469 30.8063,28.0781 30.9625,28.2031 C31.1969,28.375 31.3219,28.625 31.3219,28.9063 C31.3219,29.1875 31.1813,29.4844 30.9156,29.625 C30.8063,29.7031 30.5406,29.75 30.2125,29.75 L26.275,29.75 C25.8844,29.75 25.6656,29.7031 25.5094,29.5781 C25.2906,29.4219 25.15,29.1563 25.15,28.9063 C25.15,28.6094 25.3063,28.3281 25.5563,28.1719 C25.7125,28.0625 25.8375,28.0469 26.275,28.0469 L27.3844,28.0469 L27.3844,21.5313 L25.5563,21.5313 L25.5563,23.125 C25.5563,23.5781 25.525,23.7188 25.4156,23.8906 C25.2438,24.1094 24.9938,24.2344 24.7125,24.2344 C24.4313,24.2344 24.1344,24.0938 23.9781,23.8281 C23.9,23.6875 23.8688,23.5156 23.8688,23.125 L23.8688,19.8438 L32.6344,19.8438 L32.6344,23.125 C32.6344,23.5938 32.6188,23.7188 32.4781,23.8906 C32.3063,24.1094 32.0563,24.2344 31.7906,24.2344 C31.4938,24.2344 31.2125,24.0781 31.0563,23.8281 C30.9625,23.6875 30.9313,23.5156 30.9313,23.125 L30.9313,21.5313 Z "/><text fill="#000000" font-family="sans-serif" font-size="12" lengthAdjust="spacingAndGlyphs" textLength="68" x="44.35" y="28.1543">Message a</text><line style="stroke: #A80036; stroke-width: 1.5;" x1="7" x2="122" y1="40" y2="40"/><text fill="#000000" font-family="sans-serif" font-size="11" lengthAdjust="spacingAndGlyphs" textLength="105" x="12" y="54.2104">HttpCode: Number</text><text fill="#000000" font-family="sans-serif" font-size="11" lengthAdjust="spacingAndGlyphs" textLength="93" x="12" y="67.0151">Message: String</text><text fill="#000000" font-family="sans-serif" font-size="11" lengthAdjust="spacingAndGlyphs" textLength="43" x="12" y="79.8198">Body: a</text><line style="stroke: #A80036; stroke-width: 1.5;" x1="7" x2="122" y1="86.4141" y2="86.4141"/><!--class OtherCustomer--><rect fill="#FEFECE" filter="url(#fi3go8sz8gr23)" height="73.6094" id="OtherCustomer" style="stroke: #A80036; stroke-width: 1.5;" width="127" x="158" y="14"/><ellipse cx="173" cy="30" fill="#ADD1B2" rx="11" ry="11" style="stroke: #A80036; stroke-width: 1.0;"/><path d="M175.3438,25.6719 L175.5156,25.75 C175.7344,25.4375 175.9375,25.3438 176.2344,25.3438 C176.5313,25.3438 176.8125,25.4844 176.9688,25.75 C177.0625,25.9063 177.0781,26.0313 177.0781,26.4688 L177.0781,27.8906 C177.0781,28.3125 177.0469,28.5 176.9375,28.6563 C176.7656,28.875 176.5,29.0156 176.2344,29.0156 C176.0156,29.0156 175.7813,28.9063 175.6406,28.7656 C175.5,28.6406 175.4688,28.5156 175.4063,28.1094 C175.3125,27.7031 175.1406,27.4844 174.6563,27.2031 C174.1875,26.9531 173.5781,26.7969 173,26.7969 C171.2656,26.7969 170.0156,28.1094 170.0156,29.8906 L170.0156,30.9844 C170.0156,32.6875 171.3125,33.7813 173.3594,33.7813 C174.125,33.7813 174.8125,33.6563 175.2344,33.3906 C175.4219,33.2969 175.4219,33.2969 175.875,32.8125 C176.0625,32.625 176.2656,32.5469 176.4844,32.5469 C176.9531,32.5469 177.3438,32.9375 177.3438,33.3906 C177.3438,33.7813 177.0156,34.2344 176.4375,34.6406 C175.6875,35.1875 174.5313,35.4844 173.3125,35.4844 C170.4219,35.4844 168.3125,33.5938 168.3125,31.0156 L168.3125,29.8906 C168.3125,27.1719 170.3125,25.0938 172.9375,25.0938 C173.8125,25.0938 174.4063,25.2344 175.3438,25.6719 Z "/><text fill="#000000" font-family="sans-serif" font-size="12" lengthAdjust="spacingAndGlyphs" textLength="95" x="187" y="34.1543">OtherCustomer</text><line style="stroke: #A80036; stroke-width: 1.5;" x1="159" x2="284" y1="46" y2="46"/><text fill="#000000" font-family="sans-serif" font-size="11" lengthAdjust="spacingAndGlyphs" textLength="103" x="164" y="60.2104">Something: String</text><text fill="#000000" font-family="sans-serif" font-size="11" lengthAdjust="spacingAndGlyphs" textLength="84" x="164" y="73.0151">CustomerId: Id</text><line style="stroke: #A80036; stroke-width: 1.5;" x1="159" x2="284" y1="79.6094" y2="79.6094"/><!--link ApiMessage to Envelope--><path d="M168.542,257.08 C178.045,272.053 189.033,288.93 199.5,304 C205.351,312.423 211.709,321.223 218.015,329.756 " fill="none" id="ApiMessage-Envelope" style="stroke: #A80036; stroke-width: 1.0;"/><polygon fill="#A80036" points="221.103,333.9208,218.9557,324.3089,218.125,329.9044,212.5295,329.0737,221.103,333.9208" style="stroke: #A80036; stroke-width: 1.0;"/><text fill="#000000" font-family="sans-serif" font-size="13" lengthAdjust="spacingAndGlyphs" textLength="77" x="200.5" y="300.0669">ApiMessage</text><!--link Error to Envelope--><path d="M305.481,251.345 C297.371,273.986 286.792,303.519 277.726,328.827 " fill="none" id="Error-Envelope" style="stroke: #A80036; stroke-width: 1.0;"/><polygon fill="#A80036" points="275.934,333.8288,282.7342,326.7043,277.6198,329.1215,275.2026,324.0071,275.934,333.8288" style="stroke: #A80036; stroke-width: 1.0;"/><text fill="#000000" font-family="sans-serif" font-size="13" lengthAdjust="spacingAndGlyphs" textLength="31" x="292.5" y="300.0669">Error</text><!--link OtherCustomer to ApiMessage--><path d="M203.771,88.132 C192.465,111.173 177.698,141.268 165.494,166.139 " fill="none" id="OtherCustomer-ApiMessage" style="stroke: #A80036; stroke-width: 1.0;"/><polygon fill="#A80036" points="163.247,170.719,170.803,164.4018,165.4499,166.2304,163.6213,160.8773,163.247,170.719" style="stroke: #A80036; stroke-width: 1.0;"/><text fill="#000000" font-family="sans-serif" font-size="13" lengthAdjust="spacingAndGlyphs" textLength="32" x="185.5" y="137.0669">Body</text><!--link Message to ApiMessage--><path d="M84.9936,94.301 C94.6222,114.175 106.21,138.094 116.453,159.236 " fill="none" id="Message-ApiMessage" style="stroke: #A80036; stroke-width: 1.0;"/><polygon fill="#A80036" points="122.143,170.982,123.1274,163.8384,116.9119,160.1822,115.9275,167.3258,122.143,170.982" style="stroke: #A80036; stroke-width: 1.0;"/><text fill="#000000" font-family="sans-serif" font-size="13" lengthAdjust="spacingAndGlyphs" textLength="37" x="107.5" y="137.0669">ALIAS</text><!--
@startuml
abstract "Envelope" as Envelope {
	ApiMessage 
	Error 
  - - -
  <b>description</b>: api
    
}
ApiMessage - -> Envelope : ApiMessage
Error - -> Envelope : Error
class "Message a" as Message << (T,orchid) >> {
	HttpCode: Number 
	Message: String 
	Body: a 
}
class "OtherCustomer" as OtherCustomer  {
	Something: String 
	CustomerId: Id 
}
class "ApiMessage " as ApiMessage <Message> {
	HttpCode: Number 
	Message: String 
	Body: OtherCustomer 
}
OtherCustomer - -> ApiMessage : Body
Message - -* ApiMessage: ALIAS
class "Error" as Error  {
	HttpCode: Number 
	Message: String 
}
@enduml

PlantUML version 1.2019.03(Sun Mar 10 11:04:44 UTC 2019)
(GPL source distribution)
Java Runtime: Java(TM) SE Runtime Environment
JVM: Java HotSpot(TM) 64-Bit Server VM
Java Version: 1.7.0_25-b15
Operating System: Linux
Default Encoding: UTF-8
Language: en
Country: US
--></g></svg>