<?xml version="1.0" encoding="UTF-8" standalone="no"?><svg xmlns="http://www.w3.org/2000/svg" xmlns:xlink="http://www.w3.org/1999/xlink" contentScriptType="application/ecmascript" contentStyleType="text/css" height="444px" preserveAspectRatio="none" style="width:519px;height:444px;" version="1.1" viewBox="0 0 519 444" width="519px" zoomAndPan="magnify"><defs><filter height="300%" id="fpsct4ofkh89k" width="300%" x="-1" y="-1"><feGaussianBlur result="blurOut" stdDeviation="2.0"/><feColorMatrix in="blurOut" result="blurOut2" type="matrix" values="0 0 0 0 0 0 0 0 0 0 0 0 0 0 0 0 0 0 .4 0"/><feOffset dx="4.0" dy="4.0" in="blurOut2" result="blurOut3"/><feBlend in="SourceGraphic" in2="blurOut3" mode="normal"/></filter></defs><g><!--class Customer--><rect fill="#FEFECE" filter="url(#fpsct4ofkh89k)" height="60.8047" id="Customer" style="stroke: #A80036; stroke-width: 1.5;" width="96" x="6" y="20.5"/><ellipse cx="22.8" cy="36.5" fill="#ADD1B2" rx="11" ry="11" style="stroke: #A80036; stroke-width: 1.0;"/><path d="M25.1438,32.1719 L25.3156,32.25 C25.5344,31.9375 25.7375,31.8438 26.0344,31.8438 C26.3313,31.8438 26.6125,31.9844 26.7688,32.25 C26.8625,32.4063 26.8781,32.5313 26.8781,32.9688 L26.8781,34.3906 C26.8781,34.8125 26.8469,35 26.7375,35.1563 C26.5656,35.375 26.3,35.5156 26.0344,35.5156 C25.8156,35.5156 25.5813,35.4063 25.4406,35.2656 C25.3,35.1406 25.2688,35.0156 25.2063,34.6094 C25.1125,34.2031 24.9406,33.9844 24.4563,33.7031 C23.9875,33.4531 23.3781,33.2969 22.8,33.2969 C21.0656,33.2969 19.8156,34.6094 19.8156,36.3906 L19.8156,37.4844 C19.8156,39.1875 21.1125,40.2813 23.1594,40.2813 C23.925,40.2813 24.6125,40.1563 25.0344,39.8906 C25.2219,39.7969 25.2219,39.7969 25.675,39.3125 C25.8625,39.125 26.0656,39.0469 26.2844,39.0469 C26.7531,39.0469 27.1438,39.4375 27.1438,39.8906 C27.1438,40.2813 26.8156,40.7344 26.2375,41.1406 C25.4875,41.6875 24.3313,41.9844 23.1125,41.9844 C20.2219,41.9844 18.1125,40.0938 18.1125,37.5156 L18.1125,36.3906 C18.1125,33.6719 20.1125,31.5938 22.7375,31.5938 C23.6125,31.5938 24.2063,31.7344 25.1438,32.1719 Z "/><text fill="#000000" font-family="sans-serif" font-size="12" lengthAdjust="spacingAndGlyphs" textLength="60" x="37.2" y="40.6543">Customer</text><line style="stroke: #A80036; stroke-width: 1.5;" x1="7" x2="101" y1="52.5" y2="52.5"/><text fill="#000000" font-family="sans-serif" font-size="11" lengthAdjust="spacingAndGlyphs" textLength="84" x="12" y="66.7104">CustomerId: Id</text><line style="stroke: #A80036; stroke-width: 1.5;" x1="7" x2="101" y1="73.3047" y2="73.3047"/><!--class Envelope--><rect fill="#FEFECE" filter="url(#fpsct4ofkh89k)" height="99.2188" id="Envelope" style="stroke: #A80036; stroke-width: 1.5;" width="109" x="335.5" y="334"/><ellipse cx="359.5" cy="350" fill="#A9DCDF" rx="11" ry="11" style="stroke: #A80036; stroke-width: 1.0;"/><path d="M361.0781,351.8125 L357.0313,351.8125 L356.6406,352.7969 L357.0313,352.7969 C357.4844,352.7969 357.625,352.8281 357.7969,352.9531 C358.0156,353.125 358.1406,353.375 358.1406,353.6563 C358.1406,353.9375 358,354.2344 357.7344,354.375 C357.6094,354.4688 357.3906,354.5 357.0313,354.5 L354.7656,354.5 C354.0156,354.5 353.6406,354.2188 353.6406,353.6563 C353.6406,353.3594 353.7969,353.0781 354.0469,352.9219 C354.2031,352.8125 354.3594,352.7969 354.7813,352.7969 L357.4219,346.2813 L356.3438,346.2813 C355.9063,346.2813 355.7344,346.25 355.5625,346.1406 C355.3438,345.9688 355.2031,345.7188 355.2031,345.4375 C355.2031,345.1563 355.3594,344.875 355.6094,344.7031 C355.7656,344.6094 355.8906,344.5938 356.3438,344.5938 L360.0156,344.5938 L363.4063,352.7969 C363.875,352.7969 364.0313,352.8281 364.2031,352.9688 C364.4219,353.125 364.5625,353.375 364.5625,353.6563 C364.5625,353.9375 364.4063,354.2344 364.1563,354.375 C364.0156,354.4688 363.7969,354.5 363.4375,354.5 L361.0781,354.5 C360.6563,354.5 360.4531,354.4531 360.3125,354.3281 C360.0938,354.1719 359.9531,353.9219 359.9531,353.6563 C359.9531,353.3594 360.1094,353.0781 360.3594,352.9219 C360.5156,352.8125 360.625,352.7969 361.0781,352.7969 L361.4688,352.7969 Z M360.375,350.1094 L359.0469,346.8438 L357.7031,350.1094 Z "/><text fill="#000000" font-family="sans-serif" font-size="12" font-style="italic" lengthAdjust="spacingAndGlyphs" textLength="57" x="375.5" y="354.1543">Envelope</text><line style="stroke: #A80036; stroke-width: 1.5;" x1="336.5" x2="443.5" y1="366" y2="366"/><text fill="#000000" font-family="sans-serif" font-size="11" lengthAdjust="spacingAndGlyphs" textLength="68" x="341.5" y="380.2104">ApiMessage</text><text fill="#000000" font-family="sans-serif" font-size="11" lengthAdjust="spacingAndGlyphs" textLength="29" x="341.5" y="393.0151">Error</text><text fill="#000000" font-family="sans-serif" font-size="11" lengthAdjust="spacingAndGlyphs" textLength="12" x="341.5" y="405.8198">---</text><text fill="#000000" font-family="sans-serif" font-size="11" font-weight="bold" lengthAdjust="spacingAndGlyphs" textLength="72" x="341.5" y="418.6245">description</text><text fill="#000000" font-family="sans-serif" font-size="11" lengthAdjust="spacingAndGlyphs" textLength="25" x="413.5" y="418.6245">: api</text><line style="stroke: #A80036; stroke-width: 1.5;" x1="336.5" x2="443.5" y1="425.2188" y2="425.2188"/><!--class ApiMessage--><rect fill="#FEFECE" filter="url(#fpsct4ofkh89k)" height="86.4141" id="ApiMessage" style="stroke: #A80036; stroke-width: 1.5;" width="165" x="191.5" y="171"/><ellipse cx="206.5" cy="187" fill="#ADD1B2" rx="11" ry="11" style="stroke: #A80036; stroke-width: 1.0;"/><path d="M208.8438,182.6719 L209.0156,182.75 C209.2344,182.4375 209.4375,182.3438 209.7344,182.3438 C210.0313,182.3438 210.3125,182.4844 210.4688,182.75 C210.5625,182.9063 210.5781,183.0313 210.5781,183.4688 L210.5781,184.8906 C210.5781,185.3125 210.5469,185.5 210.4375,185.6563 C210.2656,185.875 210,186.0156 209.7344,186.0156 C209.5156,186.0156 209.2813,185.9063 209.1406,185.7656 C209,185.6406 208.9688,185.5156 208.9063,185.1094 C208.8125,184.7031 208.6406,184.4844 208.1563,184.2031 C207.6875,183.9531 207.0781,183.7969 206.5,183.7969 C204.7656,183.7969 203.5156,185.1094 203.5156,186.8906 L203.5156,187.9844 C203.5156,189.6875 204.8125,190.7813 206.8594,190.7813 C207.625,190.7813 208.3125,190.6563 208.7344,190.3906 C208.9219,190.2969 208.9219,190.2969 209.375,189.8125 C209.5625,189.625 209.7656,189.5469 209.9844,189.5469 C210.4531,189.5469 210.8438,189.9375 210.8438,190.3906 C210.8438,190.7813 210.5156,191.2344 209.9375,191.6406 C209.1875,192.1875 208.0313,192.4844 206.8125,192.4844 C203.9219,192.4844 201.8125,190.5938 201.8125,188.0156 L201.8125,186.8906 C201.8125,184.1719 203.8125,182.0938 206.4375,182.0938 C207.3125,182.0938 207.9063,182.2344 208.8438,182.6719 Z "/><text fill="#000000" font-family="sans-serif" font-size="12" lengthAdjust="spacingAndGlyphs" textLength="75" x="220.5" y="191.1543">ApiMessage</text><rect fill="#FFFFFF" height="15.9688" style="stroke: #000000; stroke-width: 1.0; stroke-dasharray: 2.0,2.0;" width="56" x="303.5" y="168"/><text fill="#000000" font-family="sans-serif" font-size="12" font-style="italic" lengthAdjust="spacingAndGlyphs" textLength="54" x="304.5" y="180.1387">Message</text><line style="stroke: #A80036; stroke-width: 1.5;" x1="192.5" x2="355.5" y1="203" y2="203"/><text fill="#000000" font-family="sans-serif" font-size="11" lengthAdjust="spacingAndGlyphs" textLength="105" x="197.5" y="217.2104">HttpCode: Number</text><text fill="#000000" font-family="sans-serif" font-size="11" lengthAdjust="spacingAndGlyphs" textLength="93" x="197.5" y="230.0151">Message: String</text><text fill="#000000" font-family="sans-serif" font-size="11" lengthAdjust="spacingAndGlyphs" textLength="124" x="197.5" y="242.8198">Body: OtherCustomer</text><line style="stroke: #A80036; stroke-width: 1.5;" x1="192.5" x2="355.5" y1="249.4141" y2="249.4141"/><!--class Error--><rect fill="#FEFECE" filter="url(#fpsct4ofkh89k)" height="73.6094" id="Error" style="stroke: #A80036; stroke-width: 1.5;" width="117" x="391.5" y="177"/><ellipse cx="430.8" cy="193" fill="#ADD1B2" rx="11" ry="11" style="stroke: #A80036; stroke-width: 1.0;"/><path d="M433.1438,188.6719 L433.3156,188.75 C433.5344,188.4375 433.7375,188.3438 434.0344,188.3438 C434.3313,188.3438 434.6125,188.4844 434.7688,188.75 C434.8625,188.9063 434.8781,189.0313 434.8781,189.4688 L434.8781,190.8906 C434.8781,191.3125 434.8469,191.5 434.7375,191.6563 C434.5656,191.875 434.3,192.0156 434.0344,192.0156 C433.8156,192.0156 433.5813,191.9063 433.4406,191.7656 C433.3,191.6406 433.2688,191.5156 433.2063,191.1094 C433.1125,190.7031 432.9406,190.4844 432.4563,190.2031 C431.9875,189.9531 431.3781,189.7969 430.8,189.7969 C429.0656,189.7969 427.8156,191.1094 427.8156,192.8906 L427.8156,193.9844 C427.8156,195.6875 429.1125,196.7813 431.1594,196.7813 C431.925,196.7813 432.6125,196.6563 433.0344,196.3906 C433.2219,196.2969 433.2219,196.2969 433.675,195.8125 C433.8625,195.625 434.0656,195.5469 434.2844,195.5469 C434.7531,195.5469 435.1438,195.9375 435.1438,196.3906 C435.1438,196.7813 434.8156,197.2344 434.2375,197.6406 C433.4875,198.1875 432.3313,198.4844 431.1125,198.4844 C428.2219,198.4844 426.1125,196.5938 426.1125,194.0156 L426.1125,192.8906 C426.1125,190.1719 428.1125,188.0938 430.7375,188.0938 C431.6125,188.0938 432.2063,188.2344 433.1438,188.6719 Z "/><text fill="#000000" font-family="sans-serif" font-size="12" lengthAdjust="spacingAndGlyphs" textLength="31" x="450.2" y="197.1543">Error</text><line style="stroke: #A80036; stroke-width: 1.5;" x1="392.5" x2="507.5" y1="209" y2="209"/><text fill="#000000" font-family="sans-serif" font-size="11" lengthAdjust="spacingAndGlyphs" textLength="105" x="397.5" y="223.2104">HttpCode: Number</text><text fill="#000000" font-family="sans-serif" font-size="11" lengthAdjust="spacingAndGlyphs" textLength="93" x="397.5" y="236.0151">Message: String</text><line style="stroke: #A80036; stroke-width: 1.5;" x1="392.5" x2="507.5" y1="242.6094" y2="242.6094"/><!--class Message--><rect fill="#FEFECE" filter="url(#fpsct4ofkh89k)" height="86.4141" id="Message" style="stroke: #A80036; stroke-width: 1.5;" width="117" x="137.5" y="8"/><ellipse cx="165.55" cy="24" fill="#DA70D6" rx="11" ry="11" style="stroke: #A80036; stroke-width: 1.0;"/><path d="M165.9875,21.5313 L165.9875,28.0469 L167.1125,28.0469 C167.5656,28.0469 167.7063,28.0781 167.8625,28.2031 C168.0969,28.375 168.2219,28.625 168.2219,28.9063 C168.2219,29.1875 168.0813,29.4844 167.8156,29.625 C167.7063,29.7031 167.4406,29.75 167.1125,29.75 L163.175,29.75 C162.7844,29.75 162.5656,29.7031 162.4094,29.5781 C162.1906,29.4219 162.05,29.1563 162.05,28.9063 C162.05,28.6094 162.2063,28.3281 162.4563,28.1719 C162.6125,28.0625 162.7375,28.0469 163.175,28.0469 L164.2844,28.0469 L164.2844,21.5313 L162.4563,21.5313 L162.4563,23.125 C162.4563,23.5781 162.425,23.7188 162.3156,23.8906 C162.1438,24.1094 161.8938,24.2344 161.6125,24.2344 C161.3313,24.2344 161.0344,24.0938 160.8781,23.8281 C160.8,23.6875 160.7688,23.5156 160.7688,23.125 L160.7688,19.8438 L169.5344,19.8438 L169.5344,23.125 C169.5344,23.5938 169.5188,23.7188 169.3781,23.8906 C169.2063,24.1094 168.9563,24.2344 168.6906,24.2344 C168.3938,24.2344 168.1125,24.0781 167.9563,23.8281 C167.8625,23.6875 167.8313,23.5156 167.8313,23.125 L167.8313,21.5313 Z "/><text fill="#000000" font-family="sans-serif" font-size="12" lengthAdjust="spacingAndGlyphs" textLength="56" x="182.45" y="28.1543">Message</text><line style="stroke: #A80036; stroke-width: 1.5;" x1="138.5" x2="253.5" y1="40" y2="40"/><text fill="#000000" font-family="sans-serif" font-size="11" lengthAdjust="spacingAndGlyphs" textLength="105" x="143.5" y="54.2104">HttpCode: Number</text><text fill="#000000" font-family="sans-serif" font-size="11" lengthAdjust="spacingAndGlyphs" textLength="93" x="143.5" y="67.0151">Message: String</text><text fill="#000000" font-family="sans-serif" font-size="11" lengthAdjust="spacingAndGlyphs" textLength="43" x="143.5" y="79.8198">Body: a</text><line style="stroke: #A80036; stroke-width: 1.5;" x1="138.5" x2="253.5" y1="86.4141" y2="86.4141"/><!--class OtherCustomer--><rect fill="#FEFECE" filter="url(#fpsct4ofkh89k)" height="73.6094" id="OtherCustomer" style="stroke: #A80036; stroke-width: 1.5;" width="127" x="289.5" y="14"/><ellipse cx="304.5" cy="30" fill="#ADD1B2" rx="11" ry="11" style="stroke: #A80036; stroke-width: 1.0;"/><path d="M306.8438,25.6719 L307.0156,25.75 C307.2344,25.4375 307.4375,25.3438 307.7344,25.3438 C308.0313,25.3438 308.3125,25.4844 308.4688,25.75 C308.5625,25.9063 308.5781,26.0313 308.5781,26.4688 L308.5781,27.8906 C308.5781,28.3125 308.5469,28.5 308.4375,28.6563 C308.2656,28.875 308,29.0156 307.7344,29.0156 C307.5156,29.0156 307.2813,28.9063 307.1406,28.7656 C307,28.6406 306.9688,28.5156 306.9063,28.1094 C306.8125,27.7031 306.6406,27.4844 306.1563,27.2031 C305.6875,26.9531 305.0781,26.7969 304.5,26.7969 C302.7656,26.7969 301.5156,28.1094 301.5156,29.8906 L301.5156,30.9844 C301.5156,32.6875 302.8125,33.7813 304.8594,33.7813 C305.625,33.7813 306.3125,33.6563 306.7344,33.3906 C306.9219,33.2969 306.9219,33.2969 307.375,32.8125 C307.5625,32.625 307.7656,32.5469 307.9844,32.5469 C308.4531,32.5469 308.8438,32.9375 308.8438,33.3906 C308.8438,33.7813 308.5156,34.2344 307.9375,34.6406 C307.1875,35.1875 306.0313,35.4844 304.8125,35.4844 C301.9219,35.4844 299.8125,33.5938 299.8125,31.0156 L299.8125,29.8906 C299.8125,27.1719 301.8125,25.0938 304.4375,25.0938 C305.3125,25.0938 305.9063,25.2344 306.8438,25.6719 Z "/><text fill="#000000" font-family="sans-serif" font-size="12" lengthAdjust="spacingAndGlyphs" textLength="95" x="318.5" y="34.1543">OtherCustomer</text><line style="stroke: #A80036; stroke-width: 1.5;" x1="290.5" x2="415.5" y1="46" y2="46"/><text fill="#000000" font-family="sans-serif" font-size="11" lengthAdjust="spacingAndGlyphs" textLength="103" x="295.5" y="60.2104">Something: String</text><text fill="#000000" font-family="sans-serif" font-size="11" lengthAdjust="spacingAndGlyphs" textLength="84" x="295.5" y="73.0151">CustomerId: Id</text><line style="stroke: #A80036; stroke-width: 1.5;" x1="290.5" x2="415.5" y1="79.6094" y2="79.6094"/><!--link ApiMessage to Envelope--><path d="M300.042,257.08 C309.545,272.053 320.533,288.93 331,304 C336.851,312.423 343.209,321.223 349.515,329.756 " fill="none" id="ApiMessage-Envelope" style="stroke: #A80036; stroke-width: 1.0;"/><polygon fill="#A80036" points="352.603,333.9208,350.4557,324.3089,349.625,329.9044,344.0295,329.0737,352.603,333.9208" style="stroke: #A80036; stroke-width: 1.0;"/><text fill="#000000" font-family="sans-serif" font-size="13" lengthAdjust="spacingAndGlyphs" textLength="77" x="332" y="300.0669">ApiMessage</text><!--link Error to Envelope--><path d="M436.981,251.345 C428.871,273.986 418.292,303.519 409.226,328.827 " fill="none" id="Error-Envelope" style="stroke: #A80036; stroke-width: 1.0;"/><polygon fill="#A80036" points="407.434,333.8288,414.2342,326.7043,409.1198,329.1215,406.7026,324.0071,407.434,333.8288" style="stroke: #A80036; stroke-width: 1.0;"/><text fill="#000000" font-family="sans-serif" font-size="13" lengthAdjust="spacingAndGlyphs" textLength="31" x="424" y="300.0669">Error</text><!--link OtherCustomer to ApiMessage--><path d="M335.271,88.132 C323.965,111.173 309.198,141.268 296.994,166.139 " fill="none" id="OtherCustomer-ApiMessage" style="stroke: #A80036; stroke-width: 1.0;"/><polygon fill="#A80036" points="294.747,170.719,302.303,164.4018,296.9499,166.2304,295.1213,160.8773,294.747,170.719" style="stroke: #A80036; stroke-width: 1.0;"/><text fill="#000000" font-family="sans-serif" font-size="13" lengthAdjust="spacingAndGlyphs" textLength="32" x="316" y="137.0669">Body</text><!--link Message to ApiMessage--><path d="M216.494,94.301 C226.122,114.175 237.71,138.094 247.953,159.236 " fill="none" id="Message-ApiMessage" style="stroke: #A80036; stroke-width: 1.0;"/><polygon fill="#A80036" points="253.643,170.982,254.6274,163.8384,248.4119,160.1822,247.4275,167.3258,253.643,170.982" style="stroke: #A80036; stroke-width: 1.0;"/><text fill="#000000" font-family="sans-serif" font-size="13" lengthAdjust="spacingAndGlyphs" textLength="37" x="238" y="137.0669">ALIAS</text><!--
@startuml
class Customer {
	CustomerId: Id 
}
abstract Envelope {
	ApiMessage
	Error
  - - -
  <b>description</b>: api
    
}
ApiMessage - -> Envelope : ApiMessage
Error - -> Envelope : Error
class Message<< (T,orchid) >> {
	HttpCode: Number 
	Message: String 
	Body: a 
}
class OtherCustomer {
	Something: String 
	CustomerId: Id 
}
class ApiMessage<Message> {
	HttpCode: Number 
	Message: String 
	Body: OtherCustomer 
}
OtherCustomer - -> ApiMessage : Body
Message - -* ApiMessage: ALIAS
class Error {
	HttpCode: Number 
	Message: String 
}
@enduml

PlantUML version 1.2019.03(Sun Mar 10 11:04:44 UTC 2019)
(GPL source distribution)
Java Runtime: Java(TM) SE Runtime Environment
JVM: Java HotSpot(TM) 64-Bit Server VM
Java Version: 1.7.0_25-b15
Operating System: Linux
Default Encoding: UTF-8
Language: en
Country: US
--></g></svg>