<?xml version="1.0" encoding="UTF-8" standalone="no"?><svg xmlns="http://www.w3.org/2000/svg" xmlns:xlink="http://www.w3.org/1999/xlink" contentScriptType="application/ecmascript" contentStyleType="text/css" height="455px" preserveAspectRatio="none" style="width:958px;height:455px;" version="1.1" viewBox="0 0 958 455" width="958px" zoomAndPan="magnify"><defs><filter height="300%" id="f8h00jtk5q4zh" width="300%" x="-1" y="-1"><feGaussianBlur result="blurOut" stdDeviation="2.0"/><feColorMatrix in="blurOut" result="blurOut2" type="matrix" values="0 0 0 0 0 0 0 0 0 0 0 0 0 0 0 0 0 0 .4 0"/><feOffset dx="4.0" dy="4.0" in="blurOut2" result="blurOut3"/><feBlend in="SourceGraphic" in2="blurOut3" mode="normal"/></filter></defs><g><!--class Customer--><rect fill="#FEFECE" filter="url(#f8h00jtk5q4zh)" height="60.8047" id="Customer" style="stroke: #A80036; stroke-width: 1.5;" width="96" x="6" y="175"/><ellipse cx="22.8" cy="191" fill="#ADD1B2" rx="11" ry="11" style="stroke: #A80036; stroke-width: 1.0;"/><path d="M25.1438,186.6719 L25.3156,186.75 C25.5344,186.4375 25.7375,186.3438 26.0344,186.3438 C26.3313,186.3438 26.6125,186.4844 26.7688,186.75 C26.8625,186.9063 26.8781,187.0313 26.8781,187.4688 L26.8781,188.8906 C26.8781,189.3125 26.8469,189.5 26.7375,189.6563 C26.5656,189.875 26.3,190.0156 26.0344,190.0156 C25.8156,190.0156 25.5813,189.9063 25.4406,189.7656 C25.3,189.6406 25.2688,189.5156 25.2063,189.1094 C25.1125,188.7031 24.9406,188.4844 24.4563,188.2031 C23.9875,187.9531 23.3781,187.7969 22.8,187.7969 C21.0656,187.7969 19.8156,189.1094 19.8156,190.8906 L19.8156,191.9844 C19.8156,193.6875 21.1125,194.7813 23.1594,194.7813 C23.925,194.7813 24.6125,194.6563 25.0344,194.3906 C25.2219,194.2969 25.2219,194.2969 25.675,193.8125 C25.8625,193.625 26.0656,193.5469 26.2844,193.5469 C26.7531,193.5469 27.1438,193.9375 27.1438,194.3906 C27.1438,194.7813 26.8156,195.2344 26.2375,195.6406 C25.4875,196.1875 24.3313,196.4844 23.1125,196.4844 C20.2219,196.4844 18.1125,194.5938 18.1125,192.0156 L18.1125,190.8906 C18.1125,188.1719 20.1125,186.0938 22.7375,186.0938 C23.6125,186.0938 24.2063,186.2344 25.1438,186.6719 Z "/><text fill="#000000" font-family="sans-serif" font-size="12" lengthAdjust="spacingAndGlyphs" textLength="60" x="37.2" y="195.1543">Customer</text><line style="stroke: #A80036; stroke-width: 1.5;" x1="7" x2="101" y1="207" y2="207"/><text fill="#000000" font-family="sans-serif" font-size="11" lengthAdjust="spacingAndGlyphs" textLength="84" x="12" y="221.2104">CustomerId: Id</text><line style="stroke: #A80036; stroke-width: 1.5;" x1="7" x2="101" y1="227.8047" y2="227.8047"/><!--class Error--><rect fill="#FEFECE" filter="url(#f8h00jtk5q4zh)" height="73.6094" id="Error" style="stroke: #A80036; stroke-width: 1.5;" width="117" x="408.5" y="8"/><ellipse cx="447.8" cy="24" fill="#ADD1B2" rx="11" ry="11" style="stroke: #A80036; stroke-width: 1.0;"/><path d="M450.1438,19.6719 L450.3156,19.75 C450.5344,19.4375 450.7375,19.3438 451.0344,19.3438 C451.3313,19.3438 451.6125,19.4844 451.7688,19.75 C451.8625,19.9063 451.8781,20.0313 451.8781,20.4688 L451.8781,21.8906 C451.8781,22.3125 451.8469,22.5 451.7375,22.6563 C451.5656,22.875 451.3,23.0156 451.0344,23.0156 C450.8156,23.0156 450.5813,22.9063 450.4406,22.7656 C450.3,22.6406 450.2688,22.5156 450.2063,22.1094 C450.1125,21.7031 449.9406,21.4844 449.4563,21.2031 C448.9875,20.9531 448.3781,20.7969 447.8,20.7969 C446.0656,20.7969 444.8156,22.1094 444.8156,23.8906 L444.8156,24.9844 C444.8156,26.6875 446.1125,27.7813 448.1594,27.7813 C448.925,27.7813 449.6125,27.6563 450.0344,27.3906 C450.2219,27.2969 450.2219,27.2969 450.675,26.8125 C450.8625,26.625 451.0656,26.5469 451.2844,26.5469 C451.7531,26.5469 452.1438,26.9375 452.1438,27.3906 C452.1438,27.7813 451.8156,28.2344 451.2375,28.6406 C450.4875,29.1875 449.3313,29.4844 448.1125,29.4844 C445.2219,29.4844 443.1125,27.5938 443.1125,25.0156 L443.1125,23.8906 C443.1125,21.1719 445.1125,19.0938 447.7375,19.0938 C448.6125,19.0938 449.2063,19.2344 450.1438,19.6719 Z "/><text fill="#000000" font-family="sans-serif" font-size="12" lengthAdjust="spacingAndGlyphs" textLength="31" x="467.2" y="28.1543">Error</text><line style="stroke: #A80036; stroke-width: 1.5;" x1="409.5" x2="524.5" y1="40" y2="40"/><text fill="#000000" font-family="sans-serif" font-size="11" lengthAdjust="spacingAndGlyphs" textLength="105" x="414.5" y="54.2104">HttpCode: Number</text><text fill="#000000" font-family="sans-serif" font-size="11" lengthAdjust="spacingAndGlyphs" textLength="93" x="414.5" y="67.0151">Message: String</text><line style="stroke: #A80036; stroke-width: 1.5;" x1="409.5" x2="524.5" y1="73.6094" y2="73.6094"/><!--class Error404--><rect fill="#FEFECE" filter="url(#f8h00jtk5q4zh)" height="112.0234" id="Error404" style="stroke: #A80036; stroke-width: 1.5;" width="185" x="154.5" y="149.5"/><ellipse cx="213.25" cy="165.5" fill="#ADD1B2" rx="11" ry="11" style="stroke: #A80036; stroke-width: 1.0;"/><path d="M215.5938,161.1719 L215.7656,161.25 C215.9844,160.9375 216.1875,160.8438 216.4844,160.8438 C216.7813,160.8438 217.0625,160.9844 217.2188,161.25 C217.3125,161.4063 217.3281,161.5313 217.3281,161.9688 L217.3281,163.3906 C217.3281,163.8125 217.2969,164 217.1875,164.1563 C217.0156,164.375 216.75,164.5156 216.4844,164.5156 C216.2656,164.5156 216.0313,164.4063 215.8906,164.2656 C215.75,164.1406 215.7188,164.0156 215.6563,163.6094 C215.5625,163.2031 215.3906,162.9844 214.9063,162.7031 C214.4375,162.4531 213.8281,162.2969 213.25,162.2969 C211.5156,162.2969 210.2656,163.6094 210.2656,165.3906 L210.2656,166.4844 C210.2656,168.1875 211.5625,169.2813 213.6094,169.2813 C214.375,169.2813 215.0625,169.1563 215.4844,168.8906 C215.6719,168.7969 215.6719,168.7969 216.125,168.3125 C216.3125,168.125 216.5156,168.0469 216.7344,168.0469 C217.2031,168.0469 217.5938,168.4375 217.5938,168.8906 C217.5938,169.2813 217.2656,169.7344 216.6875,170.1406 C215.9375,170.6875 214.7813,170.9844 213.5625,170.9844 C210.6719,170.9844 208.5625,169.0938 208.5625,166.5156 L208.5625,165.3906 C208.5625,162.6719 210.5625,160.5938 213.1875,160.5938 C214.0625,160.5938 214.6563,160.7344 215.5938,161.1719 Z "/><text fill="#000000" font-family="sans-serif" font-size="12" lengthAdjust="spacingAndGlyphs" textLength="55" x="233.75" y="169.6543">Error404</text><line style="stroke: #A80036; stroke-width: 1.5;" x1="155.5" x2="338.5" y1="181.5" y2="181.5"/><text fill="#000000" font-family="sans-serif" font-size="11" lengthAdjust="spacingAndGlyphs" textLength="105" x="160.5" y="195.7104">HttpCode: Number</text><text fill="#000000" font-family="sans-serif" font-size="11" font-style="italic" lengthAdjust="spacingAndGlyphs" textLength="60" x="273.5" y="195.7104">from Error</text><text fill="#000000" font-family="sans-serif" font-size="11" lengthAdjust="spacingAndGlyphs" textLength="93" x="160.5" y="208.5151">Message: String</text><text fill="#000000" font-family="sans-serif" font-size="11" font-style="italic" lengthAdjust="spacingAndGlyphs" textLength="60" x="261.5" y="208.5151">from Error</text><line style="stroke: #A80036; stroke-width: 1.0;" x1="155.5" x2="338.5" y1="215.1094" y2="215.1094"/><text fill="#000000" font-family="sans-serif" font-size="11" font-weight="bold" lengthAdjust="spacingAndGlyphs" textLength="31" x="160.5" y="229.3198">code</text><text fill="#000000" font-family="sans-serif" font-size="11" lengthAdjust="spacingAndGlyphs" textLength="29" x="191.5" y="229.3198">: 404</text><text fill="#000000" font-family="sans-serif" font-size="11" font-weight="bold" lengthAdjust="spacingAndGlyphs" textLength="57" x="160.5" y="242.1245">message</text><text fill="#000000" font-family="sans-serif" font-size="11" lengthAdjust="spacingAndGlyphs" textLength="65" x="217.5" y="242.1245">: Not Found</text><text fill="#000000" font-family="sans-serif" font-size="11" lengthAdjust="spacingAndGlyphs" textLength="0" x="164.5" y="254.9292"/><!--class Error401--><rect fill="#FEFECE" filter="url(#f8h00jtk5q4zh)" height="112.0234" id="Error401" style="stroke: #A80036; stroke-width: 1.5;" width="185" x="374.5" y="149.5"/><ellipse cx="433.25" cy="165.5" fill="#ADD1B2" rx="11" ry="11" style="stroke: #A80036; stroke-width: 1.0;"/><path d="M435.5938,161.1719 L435.7656,161.25 C435.9844,160.9375 436.1875,160.8438 436.4844,160.8438 C436.7813,160.8438 437.0625,160.9844 437.2188,161.25 C437.3125,161.4063 437.3281,161.5313 437.3281,161.9688 L437.3281,163.3906 C437.3281,163.8125 437.2969,164 437.1875,164.1563 C437.0156,164.375 436.75,164.5156 436.4844,164.5156 C436.2656,164.5156 436.0313,164.4063 435.8906,164.2656 C435.75,164.1406 435.7188,164.0156 435.6563,163.6094 C435.5625,163.2031 435.3906,162.9844 434.9063,162.7031 C434.4375,162.4531 433.8281,162.2969 433.25,162.2969 C431.5156,162.2969 430.2656,163.6094 430.2656,165.3906 L430.2656,166.4844 C430.2656,168.1875 431.5625,169.2813 433.6094,169.2813 C434.375,169.2813 435.0625,169.1563 435.4844,168.8906 C435.6719,168.7969 435.6719,168.7969 436.125,168.3125 C436.3125,168.125 436.5156,168.0469 436.7344,168.0469 C437.2031,168.0469 437.5938,168.4375 437.5938,168.8906 C437.5938,169.2813 437.2656,169.7344 436.6875,170.1406 C435.9375,170.6875 434.7813,170.9844 433.5625,170.9844 C430.6719,170.9844 428.5625,169.0938 428.5625,166.5156 L428.5625,165.3906 C428.5625,162.6719 430.5625,160.5938 433.1875,160.5938 C434.0625,160.5938 434.6563,160.7344 435.5938,161.1719 Z "/><text fill="#000000" font-family="sans-serif" font-size="12" lengthAdjust="spacingAndGlyphs" textLength="55" x="453.75" y="169.6543">Error401</text><line style="stroke: #A80036; stroke-width: 1.5;" x1="375.5" x2="558.5" y1="181.5" y2="181.5"/><text fill="#000000" font-family="sans-serif" font-size="11" lengthAdjust="spacingAndGlyphs" textLength="105" x="380.5" y="195.7104">HttpCode: Number</text><text fill="#000000" font-family="sans-serif" font-size="11" font-style="italic" lengthAdjust="spacingAndGlyphs" textLength="60" x="493.5" y="195.7104">from Error</text><text fill="#000000" font-family="sans-serif" font-size="11" lengthAdjust="spacingAndGlyphs" textLength="93" x="380.5" y="208.5151">Message: String</text><text fill="#000000" font-family="sans-serif" font-size="11" font-style="italic" lengthAdjust="spacingAndGlyphs" textLength="60" x="481.5" y="208.5151">from Error</text><line style="stroke: #A80036; stroke-width: 1.0;" x1="375.5" x2="558.5" y1="215.1094" y2="215.1094"/><text fill="#000000" font-family="sans-serif" font-size="11" font-weight="bold" lengthAdjust="spacingAndGlyphs" textLength="31" x="380.5" y="229.3198">code</text><text fill="#000000" font-family="sans-serif" font-size="11" lengthAdjust="spacingAndGlyphs" textLength="29" x="411.5" y="229.3198">: 401</text><text fill="#000000" font-family="sans-serif" font-size="11" font-weight="bold" lengthAdjust="spacingAndGlyphs" textLength="57" x="380.5" y="242.1245">message</text><text fill="#000000" font-family="sans-serif" font-size="11" lengthAdjust="spacingAndGlyphs" textLength="84" x="437.5" y="242.1245">: Unauthorised</text><text fill="#000000" font-family="sans-serif" font-size="11" lengthAdjust="spacingAndGlyphs" textLength="0" x="384.5" y="254.9292"/><!--class Error500--><rect fill="#FEFECE" filter="url(#f8h00jtk5q4zh)" height="112.0234" id="Error500" style="stroke: #A80036; stroke-width: 1.5;" width="195" x="594.5" y="149.5"/><ellipse cx="658.25" cy="165.5" fill="#ADD1B2" rx="11" ry="11" style="stroke: #A80036; stroke-width: 1.0;"/><path d="M660.5938,161.1719 L660.7656,161.25 C660.9844,160.9375 661.1875,160.8438 661.4844,160.8438 C661.7813,160.8438 662.0625,160.9844 662.2188,161.25 C662.3125,161.4063 662.3281,161.5313 662.3281,161.9688 L662.3281,163.3906 C662.3281,163.8125 662.2969,164 662.1875,164.1563 C662.0156,164.375 661.75,164.5156 661.4844,164.5156 C661.2656,164.5156 661.0313,164.4063 660.8906,164.2656 C660.75,164.1406 660.7188,164.0156 660.6563,163.6094 C660.5625,163.2031 660.3906,162.9844 659.9063,162.7031 C659.4375,162.4531 658.8281,162.2969 658.25,162.2969 C656.5156,162.2969 655.2656,163.6094 655.2656,165.3906 L655.2656,166.4844 C655.2656,168.1875 656.5625,169.2813 658.6094,169.2813 C659.375,169.2813 660.0625,169.1563 660.4844,168.8906 C660.6719,168.7969 660.6719,168.7969 661.125,168.3125 C661.3125,168.125 661.5156,168.0469 661.7344,168.0469 C662.2031,168.0469 662.5938,168.4375 662.5938,168.8906 C662.5938,169.2813 662.2656,169.7344 661.6875,170.1406 C660.9375,170.6875 659.7813,170.9844 658.5625,170.9844 C655.6719,170.9844 653.5625,169.0938 653.5625,166.5156 L653.5625,165.3906 C653.5625,162.6719 655.5625,160.5938 658.1875,160.5938 C659.0625,160.5938 659.6563,160.7344 660.5938,161.1719 Z "/><text fill="#000000" font-family="sans-serif" font-size="12" lengthAdjust="spacingAndGlyphs" textLength="55" x="678.75" y="169.6543">Error500</text><line style="stroke: #A80036; stroke-width: 1.5;" x1="595.5" x2="788.5" y1="181.5" y2="181.5"/><text fill="#000000" font-family="sans-serif" font-size="11" lengthAdjust="spacingAndGlyphs" textLength="105" x="600.5" y="195.7104">HttpCode: Number</text><text fill="#000000" font-family="sans-serif" font-size="11" font-style="italic" lengthAdjust="spacingAndGlyphs" textLength="60" x="713.5" y="195.7104">from Error</text><text fill="#000000" font-family="sans-serif" font-size="11" lengthAdjust="spacingAndGlyphs" textLength="93" x="600.5" y="208.5151">Message: String</text><text fill="#000000" font-family="sans-serif" font-size="11" font-style="italic" lengthAdjust="spacingAndGlyphs" textLength="60" x="701.5" y="208.5151">from Error</text><line style="stroke: #A80036; stroke-width: 1.0;" x1="595.5" x2="788.5" y1="215.1094" y2="215.1094"/><text fill="#000000" font-family="sans-serif" font-size="11" font-weight="bold" lengthAdjust="spacingAndGlyphs" textLength="31" x="600.5" y="229.3198">code</text><text fill="#000000" font-family="sans-serif" font-size="11" lengthAdjust="spacingAndGlyphs" textLength="29" x="631.5" y="229.3198">: 500</text><text fill="#000000" font-family="sans-serif" font-size="11" font-weight="bold" lengthAdjust="spacingAndGlyphs" textLength="57" x="600.5" y="242.1245">message</text><text fill="#000000" font-family="sans-serif" font-size="11" lengthAdjust="spacingAndGlyphs" textLength="126" x="657.5" y="242.1245">: Internal Server Error</text><text fill="#000000" font-family="sans-serif" font-size="11" lengthAdjust="spacingAndGlyphs" textLength="0" x="604.5" y="254.9292"/><!--class Response--><rect fill="#FEFECE" filter="url(#f8h00jtk5q4zh)" height="124.8281" id="Response" style="stroke: #A80036; stroke-width: 1.5;" width="106" x="841" y="143"/><ellipse cx="856" cy="159" fill="#DA70D6" rx="11" ry="11" style="stroke: #A80036; stroke-width: 1.0;"/><path d="M856.4375,156.5313 L856.4375,163.0469 L857.5625,163.0469 C858.0156,163.0469 858.1563,163.0781 858.3125,163.2031 C858.5469,163.375 858.6719,163.625 858.6719,163.9063 C858.6719,164.1875 858.5313,164.4844 858.2656,164.625 C858.1563,164.7031 857.8906,164.75 857.5625,164.75 L853.625,164.75 C853.2344,164.75 853.0156,164.7031 852.8594,164.5781 C852.6406,164.4219 852.5,164.1563 852.5,163.9063 C852.5,163.6094 852.6563,163.3281 852.9063,163.1719 C853.0625,163.0625 853.1875,163.0469 853.625,163.0469 L854.7344,163.0469 L854.7344,156.5313 L852.9063,156.5313 L852.9063,158.125 C852.9063,158.5781 852.875,158.7188 852.7656,158.8906 C852.5938,159.1094 852.3438,159.2344 852.0625,159.2344 C851.7813,159.2344 851.4844,159.0938 851.3281,158.8281 C851.25,158.6875 851.2188,158.5156 851.2188,158.125 L851.2188,154.8438 L859.9844,154.8438 L859.9844,158.125 C859.9844,158.5938 859.9688,158.7188 859.8281,158.8906 C859.6563,159.1094 859.4063,159.2344 859.1406,159.2344 C858.8438,159.2344 858.5625,159.0781 858.4063,158.8281 C858.3125,158.6875 858.2813,158.5156 858.2813,158.125 L858.2813,156.5313 Z "/><text fill="#000000" font-family="sans-serif" font-size="12" lengthAdjust="spacingAndGlyphs" textLength="74" x="870" y="163.1543">Response a</text><line style="stroke: #A80036; stroke-width: 1.5;" x1="842" x2="946" y1="175" y2="175"/><text fill="#000000" font-family="sans-serif" font-size="11" lengthAdjust="spacingAndGlyphs" textLength="82" x="847" y="189.2104">Code: Number</text><text fill="#000000" font-family="sans-serif" font-size="11" lengthAdjust="spacingAndGlyphs" textLength="93" x="847" y="202.0151">Message: String</text><text fill="#000000" font-family="sans-serif" font-size="11" lengthAdjust="spacingAndGlyphs" textLength="43" x="847" y="214.8198">Body: a</text><line style="stroke: #A80036; stroke-width: 1.0;" x1="842" x2="946" y1="221.4141" y2="221.4141"/><text fill="#000000" font-family="sans-serif" font-size="11" font-weight="bold" lengthAdjust="spacingAndGlyphs" textLength="31" x="847" y="235.6245">code</text><text fill="#000000" font-family="sans-serif" font-size="11" lengthAdjust="spacingAndGlyphs" textLength="29" x="878" y="235.6245">: 200</text><text fill="#000000" font-family="sans-serif" font-size="11" font-weight="bold" lengthAdjust="spacingAndGlyphs" textLength="57" x="847" y="248.4292">message</text><text fill="#000000" font-family="sans-serif" font-size="11" lengthAdjust="spacingAndGlyphs" textLength="24" x="904" y="248.4292">: OK</text><text fill="#000000" font-family="sans-serif" font-size="11" lengthAdjust="spacingAndGlyphs" textLength="0" x="851" y="261.2339"/><!--class ApiResponse--><rect fill="#FEFECE" filter="url(#f8h00jtk5q4zh)" height="99.2188" id="ApiResponse" style="stroke: #A80036; stroke-width: 1.5;" width="123" x="599.5" y="345"/><ellipse cx="614.5" cy="361" fill="#A9DCDF" rx="11" ry="11" style="stroke: #A80036; stroke-width: 1.0;"/><path d="M616.0781,362.8125 L612.0313,362.8125 L611.6406,363.7969 L612.0313,363.7969 C612.4844,363.7969 612.625,363.8281 612.7969,363.9531 C613.0156,364.125 613.1406,364.375 613.1406,364.6563 C613.1406,364.9375 613,365.2344 612.7344,365.375 C612.6094,365.4688 612.3906,365.5 612.0313,365.5 L609.7656,365.5 C609.0156,365.5 608.6406,365.2188 608.6406,364.6563 C608.6406,364.3594 608.7969,364.0781 609.0469,363.9219 C609.2031,363.8125 609.3594,363.7969 609.7813,363.7969 L612.4219,357.2813 L611.3438,357.2813 C610.9063,357.2813 610.7344,357.25 610.5625,357.1406 C610.3438,356.9688 610.2031,356.7188 610.2031,356.4375 C610.2031,356.1563 610.3594,355.875 610.6094,355.7031 C610.7656,355.6094 610.8906,355.5938 611.3438,355.5938 L615.0156,355.5938 L618.4063,363.7969 C618.875,363.7969 619.0313,363.8281 619.2031,363.9688 C619.4219,364.125 619.5625,364.375 619.5625,364.6563 C619.5625,364.9375 619.4063,365.2344 619.1563,365.375 C619.0156,365.4688 618.7969,365.5 618.4375,365.5 L616.0781,365.5 C615.6563,365.5 615.4531,365.4531 615.3125,365.3281 C615.0938,365.1719 614.9531,364.9219 614.9531,364.6563 C614.9531,364.3594 615.1094,364.0781 615.3594,363.9219 C615.5156,363.8125 615.625,363.7969 616.0781,363.7969 L616.4688,363.7969 Z M615.375,361.1094 L614.0469,357.8438 L612.7031,361.1094 Z "/><text fill="#000000" font-family="sans-serif" font-size="12" font-style="italic" lengthAdjust="spacingAndGlyphs" textLength="91" x="628.5" y="365.1543">ApiResponse a</text><line style="stroke: #A80036; stroke-width: 1.5;" x1="600.5" x2="721.5" y1="377" y2="377"/><text fill="#000000" font-family="sans-serif" font-size="11" lengthAdjust="spacingAndGlyphs" textLength="50" x="605.5" y="391.2104">Error401</text><text fill="#000000" font-family="sans-serif" font-size="11" lengthAdjust="spacingAndGlyphs" textLength="50" x="605.5" y="404.0151">Error404</text><text fill="#000000" font-family="sans-serif" font-size="11" lengthAdjust="spacingAndGlyphs" textLength="50" x="605.5" y="416.8198">Error500</text><text fill="#000000" font-family="sans-serif" font-size="11" lengthAdjust="spacingAndGlyphs" textLength="67" x="605.5" y="429.6245">Response a</text><line style="stroke: #A80036; stroke-width: 1.5;" x1="600.5" x2="721.5" y1="436.2188" y2="436.2188"/><!--class CustomerResponse--><rect fill="#FEFECE" filter="url(#f8h00jtk5q4zh)" height="99.2188" id="CustomerResponse" style="stroke: #A80036; stroke-width: 1.5;" width="155" x="244.5" y="345"/><ellipse cx="259.5" cy="361" fill="#A9DCDF" rx="11" ry="11" style="stroke: #A80036; stroke-width: 1.0;"/><path d="M261.0781,362.8125 L257.0313,362.8125 L256.6406,363.7969 L257.0313,363.7969 C257.4844,363.7969 257.625,363.8281 257.7969,363.9531 C258.0156,364.125 258.1406,364.375 258.1406,364.6563 C258.1406,364.9375 258,365.2344 257.7344,365.375 C257.6094,365.4688 257.3906,365.5 257.0313,365.5 L254.7656,365.5 C254.0156,365.5 253.6406,365.2188 253.6406,364.6563 C253.6406,364.3594 253.7969,364.0781 254.0469,363.9219 C254.2031,363.8125 254.3594,363.7969 254.7813,363.7969 L257.4219,357.2813 L256.3438,357.2813 C255.9063,357.2813 255.7344,357.25 255.5625,357.1406 C255.3438,356.9688 255.2031,356.7188 255.2031,356.4375 C255.2031,356.1563 255.3594,355.875 255.6094,355.7031 C255.7656,355.6094 255.8906,355.5938 256.3438,355.5938 L260.0156,355.5938 L263.4063,363.7969 C263.875,363.7969 264.0313,363.8281 264.2031,363.9688 C264.4219,364.125 264.5625,364.375 264.5625,364.6563 C264.5625,364.9375 264.4063,365.2344 264.1563,365.375 C264.0156,365.4688 263.7969,365.5 263.4375,365.5 L261.0781,365.5 C260.6563,365.5 260.4531,365.4531 260.3125,365.3281 C260.0938,365.1719 259.9531,364.9219 259.9531,364.6563 C259.9531,364.3594 260.1094,364.0781 260.3594,363.9219 C260.5156,363.8125 260.625,363.7969 261.0781,363.7969 L261.4688,363.7969 Z M260.375,361.1094 L259.0469,357.8438 L257.7031,361.1094 Z "/><text fill="#000000" font-family="sans-serif" font-size="12" font-style="italic" lengthAdjust="spacingAndGlyphs" textLength="119" x="273.5" y="365.1543">CustomerResponse</text><line style="stroke: #A80036; stroke-width: 1.5;" x1="245.5" x2="398.5" y1="377" y2="377"/><text fill="#000000" font-family="sans-serif" font-size="11" lengthAdjust="spacingAndGlyphs" textLength="50" x="250.5" y="391.2104">Error401</text><text fill="#000000" font-family="sans-serif" font-size="11" lengthAdjust="spacingAndGlyphs" textLength="50" x="250.5" y="404.0151">Error404</text><text fill="#000000" font-family="sans-serif" font-size="11" lengthAdjust="spacingAndGlyphs" textLength="50" x="250.5" y="416.8198">Error500</text><text fill="#000000" font-family="sans-serif" font-size="11" lengthAdjust="spacingAndGlyphs" textLength="116" x="250.5" y="429.6245">Response Customer</text><line style="stroke: #A80036; stroke-width: 1.5;" x1="245.5" x2="398.5" y1="436.2188" y2="436.2188"/><!--link Error to Error404--><path d="M416.803,82.164 C394.121,98.506 366.565,118.359 340.308,137.276 " fill="none" id="Error-Error404" style="stroke: #A80036; stroke-width: 1.0;"/><polygon fill="none" points="344.065,143.197,323.746,149.208,335.881,131.838,344.065,143.197" style="stroke: #A80036; stroke-width: 1.0;"/><!--link Error to Error401--><path d="M467,82.363 C467,96.386 467,112.971 467,129.325 " fill="none" id="Error-Error401" style="stroke: #A80036; stroke-width: 1.0;"/><polygon fill="none" points="474,129.336,467,149.336,460,129.336,474,129.336" style="stroke: #A80036; stroke-width: 1.0;"/><!--link Error to Error500--><path d="M518.338,82.164 C541.645,98.583 569.985,118.547 596.953,137.545 " fill="none" id="Error-Error500" style="stroke: #A80036; stroke-width: 1.0;"/><polygon fill="none" points="601.191,131.968,613.51,149.208,593.128,143.413,601.191,131.968" style="stroke: #A80036; stroke-width: 1.0;"/><!--link Error401 to ApiResponse--><path d="M534.066,261.623 C547.564,273.332 561.45,285.838 574,298 C587.839,311.411 602.188,326.578 615.147,340.811 " fill="none" id="Error401-ApiResponse" style="stroke: #A80036; stroke-width: 1.0;"/><polygon fill="#A80036" points="618.764,344.7982,615.6821,335.444,615.4055,341.094,609.7555,340.8175,618.764,344.7982" style="stroke: #A80036; stroke-width: 1.0;"/><text fill="#000000" font-family="sans-serif" font-size="13" lengthAdjust="spacingAndGlyphs" textLength="55" x="590" y="311.0669">Error401</text><!--link Error404 to ApiResponse--><path d="M339.788,260.582 C345.54,263.243 351.305,265.743 357,268 C408.106,288.258 425.679,278.292 477,298 C492.034,303.773 494.734,307.527 509,315 C536.979,329.656 567.944,345.6826 594.584,359.4114 " fill="none" id="Error404-ApiResponse" style="stroke: #A80036; stroke-width: 1.0;"/><polygon fill="#A80036" points="599.163,361.7703,592.9945,354.0925,594.7182,359.4803,589.3304,361.2041,599.163,361.7703" style="stroke: #A80036; stroke-width: 1.0;"/><text fill="#000000" font-family="sans-serif" font-size="13" lengthAdjust="spacingAndGlyphs" textLength="55" x="510" y="311.0669">Error404</text><!--link Error500 to ApiResponse--><path d="M682.867,261.595 C678.782,286.237 673.982,315.187 669.922,339.678 " fill="none" id="Error500-ApiResponse" style="stroke: #A80036; stroke-width: 1.0;"/><polygon fill="#A80036" points="669.068,344.8333,674.4874,336.6095,669.8865,339.9008,666.5953,335.2999,669.068,344.8333" style="stroke: #A80036; stroke-width: 1.0;"/><text fill="#000000" font-family="sans-serif" font-size="13" lengthAdjust="spacingAndGlyphs" textLength="55" x="678" y="311.0669">Error500</text><!--link Response to ApiResponse--><path d="M892.319,268.177 C889.161,284.922 883.116,301.998 872,315 C835.978,357.1358 775.104,376.6781 727.972,385.7283 " fill="none" id="Response-ApiResponse" style="stroke: #A80036; stroke-width: 1.0;"/><polygon fill="#A80036" points="722.877,386.6764,732.4573,388.9606,727.7924,385.7607,730.9923,381.0959,722.877,386.6764" style="stroke: #A80036; stroke-width: 1.0;"/><text fill="#000000" font-family="sans-serif" font-size="13" lengthAdjust="spacingAndGlyphs" textLength="62" x="883" y="311.0669">Response</text><!--link Error401 to CustomerResponse--><path d="M374.426,258.939 C346.771,275.535 322.732,291.305 319,298 C312.094,310.388 310.136,325.154 310.591,339.327 " fill="none" id="Error401-CustomerResponse" style="stroke: #A80036; stroke-width: 1.0;"/><polygon fill="#A80036" points="310.863,344.5169,314.3869,335.3201,310.6016,339.5237,306.3979,335.7384,310.863,344.5169" style="stroke: #A80036; stroke-width: 1.0;"/><text fill="#000000" font-family="sans-serif" font-size="13" lengthAdjust="spacingAndGlyphs" textLength="55" x="320" y="311.0669">Error401</text><!--link Error404 to CustomerResponse--><path d="M220.244,261.669 C215.341,279.286 213.969,298.485 222,315 C226.645,324.552 233.078,333.287 240.462,341.175 " fill="none" id="Error404-CustomerResponse" style="stroke: #A80036; stroke-width: 1.0;"/><polygon fill="#A80036" points="244.16,344.9783,240.753,335.7375,240.6741,341.3938,235.0178,341.315,244.16,344.9783" style="stroke: #A80036; stroke-width: 1.0;"/><text fill="#000000" font-family="sans-serif" font-size="13" lengthAdjust="spacingAndGlyphs" textLength="55" x="223" y="311.0669">Error404</text><!--link Error500 to CustomerResponse--><path d="M594.414,261.231 C588.598,263.693 582.768,265.975 577,268 C508.323,292.113 480.265,263.824 416,298 C396.118,308.573 377.832,324.805 362.778,340.903 " fill="none" id="Error500-CustomerResponse" style="stroke: #A80036; stroke-width: 1.0;"/><polygon fill="#A80036" points="359.021,344.9897,368.0575,341.0728,362.4056,341.3094,362.169,335.6575,359.021,344.9897" style="stroke: #A80036; stroke-width: 1.0;"/><text fill="#000000" font-family="sans-serif" font-size="13" lengthAdjust="spacingAndGlyphs" textLength="55" x="417" y="311.0669">Error500</text><!--link Response to CustomerResponse--><path d="M840.848,253.206 C813.139,275.179 777.65,299.828 742,315 C741.512,315.208 527.186,355.2162 404.932,378.0281 " fill="none" id="Response-CustomerResponse" style="stroke: #A80036; stroke-width: 1.0;"/><polygon fill="#A80036" points="399.902,378.9666,409.483,381.2479,404.8172,378.0495,408.0156,373.3836,399.902,378.9666" style="stroke: #A80036; stroke-width: 1.0;"/><text fill="#000000" font-family="sans-serif" font-size="13" lengthAdjust="spacingAndGlyphs" textLength="62" x="775" y="311.0669">Response</text><!--link Customer to CustomerResponse--><path d="M52.9305,236.38 C53.6917,260.477 58.6469,293.746 78,315 C115.276,355.9384 173.955,375.6259 224.427,385.049 " fill="none" id="Customer-CustomerResponse" style="stroke: #A80036; stroke-width: 1.0; stroke-dasharray: 7.0,7.0;"/><polygon fill="none" points="225.787,378.1786,244.384,388.3364,223.512,391.9924,225.787,378.1786" style="stroke: #A80036; stroke-width: 1.0;"/><text fill="#000000" font-family="sans-serif" font-size="13" lengthAdjust="spacingAndGlyphs" textLength="62" x="79" y="311.0669">Response</text><text fill="#000000" font-family="sans-serif" font-size="13" font-style="italic" lengthAdjust="spacingAndGlyphs" textLength="63" x="145" y="311.0669">Customer</text><!--
@startuml
class "Customer" as Customer  {
	CustomerId: Id 
}
class "Error" as Error  {
	HttpCode: Number 
	Message: String 
}
class "Error404 " as Error404  {
	HttpCode: Number  <i>from Error</i>
	Message: String  <i>from Error</i>
- -
  <b>code</b>: 404
<b>message</b>: Not Found
    
}
Error - -|> Error404
class "Error401 " as Error401  {
	HttpCode: Number  <i>from Error</i>
	Message: String  <i>from Error</i>
- -
  <b>code</b>: 401
<b>message</b>: Unauthorised
    
}
Error - -|> Error401
class "Error500 " as Error500  {
	HttpCode: Number  <i>from Error</i>
	Message: String  <i>from Error</i>
- -
  <b>code</b>: 500
<b>message</b>: Internal Server Error
    
}
Error - -|> Error500
class "Response a" as Response << (T,orchid) >> {
	Code: Number 
	Message: String 
	Body: a 
- -
  <b>code</b>: 200
<b>message</b>: OK
    
}
abstract "ApiResponse a" as ApiResponse {
	Error401 
	Error404 
	Error500 
	Response a
}
Error401 - -> ApiResponse : Error401
Error404 - -> ApiResponse : Error404
Error500 - -> ApiResponse : Error500
Response - -> ApiResponse : Response
abstract "CustomerResponse " as CustomerResponse {
	Error401 
	Error404 
	Error500 
	Response Customer
}
Error401 - -> CustomerResponse : Error401
Error404 - -> CustomerResponse : Error404
Error500 - -> CustomerResponse : Error500
Response - -> CustomerResponse : Response
Customer ..|> CustomerResponse : Response <i>Customer</i>
@enduml

PlantUML version 1.2019.03(Sun Mar 10 11:04:44 UTC 2019)
(GPL source distribution)
Java Runtime: Java(TM) SE Runtime Environment
JVM: Java HotSpot(TM) 64-Bit Server VM
Java Version: 1.7.0_25-b15
Operating System: Linux
Default Encoding: UTF-8
Language: en
Country: US
--></g></svg>