<?xml version="1.0" encoding="UTF-8" standalone="no"?><svg xmlns="http://www.w3.org/2000/svg" xmlns:xlink="http://www.w3.org/1999/xlink" contentScriptType="application/ecmascript" contentStyleType="text/css" height="444px" preserveAspectRatio="none" style="width:525px;height:444px;" version="1.1" viewBox="0 0 525 444" width="525px" zoomAndPan="magnify"><defs><filter height="300%" id="f1h4b1puo5nn9i" width="300%" x="-1" y="-1"><feGaussianBlur result="blurOut" stdDeviation="2.0"/><feColorMatrix in="blurOut" result="blurOut2" type="matrix" values="0 0 0 0 0 0 0 0 0 0 0 0 0 0 0 0 0 0 .4 0"/><feOffset dx="4.0" dy="4.0" in="blurOut2" result="blurOut3"/><feBlend in="SourceGraphic" in2="blurOut3" mode="normal"/></filter></defs><g><!--class Customer--><rect fill="#FEFECE" filter="url(#f1h4b1puo5nn9i)" height="60.8047" id="Customer" style="stroke: #A80036; stroke-width: 1.5;" width="96" x="6" y="20.5"/><ellipse cx="22.8" cy="36.5" fill="#ADD1B2" rx="11" ry="11" style="stroke: #A80036; stroke-width: 1.0;"/><path d="M25.1438,32.1719 L25.3156,32.25 C25.5344,31.9375 25.7375,31.8438 26.0344,31.8438 C26.3313,31.8438 26.6125,31.9844 26.7688,32.25 C26.8625,32.4063 26.8781,32.5313 26.8781,32.9688 L26.8781,34.3906 C26.8781,34.8125 26.8469,35 26.7375,35.1563 C26.5656,35.375 26.3,35.5156 26.0344,35.5156 C25.8156,35.5156 25.5813,35.4063 25.4406,35.2656 C25.3,35.1406 25.2688,35.0156 25.2063,34.6094 C25.1125,34.2031 24.9406,33.9844 24.4563,33.7031 C23.9875,33.4531 23.3781,33.2969 22.8,33.2969 C21.0656,33.2969 19.8156,34.6094 19.8156,36.3906 L19.8156,37.4844 C19.8156,39.1875 21.1125,40.2813 23.1594,40.2813 C23.925,40.2813 24.6125,40.1563 25.0344,39.8906 C25.2219,39.7969 25.2219,39.7969 25.675,39.3125 C25.8625,39.125 26.0656,39.0469 26.2844,39.0469 C26.7531,39.0469 27.1438,39.4375 27.1438,39.8906 C27.1438,40.2813 26.8156,40.7344 26.2375,41.1406 C25.4875,41.6875 24.3313,41.9844 23.1125,41.9844 C20.2219,41.9844 18.1125,40.0938 18.1125,37.5156 L18.1125,36.3906 C18.1125,33.6719 20.1125,31.5938 22.7375,31.5938 C23.6125,31.5938 24.2063,31.7344 25.1438,32.1719 Z "/><text fill="#000000" font-family="sans-serif" font-size="12" lengthAdjust="spacingAndGlyphs" textLength="60" x="37.2" y="40.6543">Customer</text><line style="stroke: #A80036; stroke-width: 1.5;" x1="7" x2="101" y1="52.5" y2="52.5"/><text fill="#000000" font-family="sans-serif" font-size="11" lengthAdjust="spacingAndGlyphs" textLength="84" x="12" y="66.7104">CustomerId: Id</text><line style="stroke: #A80036; stroke-width: 1.5;" x1="7" x2="101" y1="73.3047" y2="73.3047"/><!--class Envelope--><rect fill="#FEFECE" filter="url(#f1h4b1puo5nn9i)" height="99.2188" id="Envelope" style="stroke: #A80036; stroke-width: 1.5;" width="109" x="319.5" y="334"/><ellipse cx="343.5" cy="350" fill="#A9DCDF" rx="11" ry="11" style="stroke: #A80036; stroke-width: 1.0;"/><path d="M345.0781,351.8125 L341.0313,351.8125 L340.6406,352.7969 L341.0313,352.7969 C341.4844,352.7969 341.625,352.8281 341.7969,352.9531 C342.0156,353.125 342.1406,353.375 342.1406,353.6563 C342.1406,353.9375 342,354.2344 341.7344,354.375 C341.6094,354.4688 341.3906,354.5 341.0313,354.5 L338.7656,354.5 C338.0156,354.5 337.6406,354.2188 337.6406,353.6563 C337.6406,353.3594 337.7969,353.0781 338.0469,352.9219 C338.2031,352.8125 338.3594,352.7969 338.7813,352.7969 L341.4219,346.2813 L340.3438,346.2813 C339.9063,346.2813 339.7344,346.25 339.5625,346.1406 C339.3438,345.9688 339.2031,345.7188 339.2031,345.4375 C339.2031,345.1563 339.3594,344.875 339.6094,344.7031 C339.7656,344.6094 339.8906,344.5938 340.3438,344.5938 L344.0156,344.5938 L347.4063,352.7969 C347.875,352.7969 348.0313,352.8281 348.2031,352.9688 C348.4219,353.125 348.5625,353.375 348.5625,353.6563 C348.5625,353.9375 348.4063,354.2344 348.1563,354.375 C348.0156,354.4688 347.7969,354.5 347.4375,354.5 L345.0781,354.5 C344.6563,354.5 344.4531,354.4531 344.3125,354.3281 C344.0938,354.1719 343.9531,353.9219 343.9531,353.6563 C343.9531,353.3594 344.1094,353.0781 344.3594,352.9219 C344.5156,352.8125 344.625,352.7969 345.0781,352.7969 L345.4688,352.7969 Z M344.375,350.1094 L343.0469,346.8438 L341.7031,350.1094 Z "/><text fill="#000000" font-family="sans-serif" font-size="12" font-style="italic" lengthAdjust="spacingAndGlyphs" textLength="57" x="359.5" y="354.1543">Envelope</text><line style="stroke: #A80036; stroke-width: 1.5;" x1="320.5" x2="427.5" y1="366" y2="366"/><text fill="#000000" font-family="sans-serif" font-size="11" lengthAdjust="spacingAndGlyphs" textLength="68" x="325.5" y="380.2104">ApiMessage</text><text fill="#000000" font-family="sans-serif" font-size="11" lengthAdjust="spacingAndGlyphs" textLength="29" x="325.5" y="393.0151">Error</text><text fill="#000000" font-family="sans-serif" font-size="11" lengthAdjust="spacingAndGlyphs" textLength="12" x="325.5" y="405.8198">---</text><text fill="#000000" font-family="sans-serif" font-size="11" font-weight="bold" lengthAdjust="spacingAndGlyphs" textLength="72" x="325.5" y="418.6245">description</text><text fill="#000000" font-family="sans-serif" font-size="11" lengthAdjust="spacingAndGlyphs" textLength="25" x="397.5" y="418.6245">: api</text><line style="stroke: #A80036; stroke-width: 1.5;" x1="320.5" x2="427.5" y1="425.2188" y2="425.2188"/><!--class ApiMessage--><rect fill="#FEFECE" filter="url(#f1h4b1puo5nn9i)" height="86.4141" id="ApiMessage" style="stroke: #A80036; stroke-width: 1.5;" width="165" x="175.5" y="171"/><ellipse cx="190.5" cy="187" fill="#ADD1B2" rx="11" ry="11" style="stroke: #A80036; stroke-width: 1.0;"/><path d="M192.8438,182.6719 L193.0156,182.75 C193.2344,182.4375 193.4375,182.3438 193.7344,182.3438 C194.0313,182.3438 194.3125,182.4844 194.4688,182.75 C194.5625,182.9063 194.5781,183.0313 194.5781,183.4688 L194.5781,184.8906 C194.5781,185.3125 194.5469,185.5 194.4375,185.6563 C194.2656,185.875 194,186.0156 193.7344,186.0156 C193.5156,186.0156 193.2813,185.9063 193.1406,185.7656 C193,185.6406 192.9688,185.5156 192.9063,185.1094 C192.8125,184.7031 192.6406,184.4844 192.1563,184.2031 C191.6875,183.9531 191.0781,183.7969 190.5,183.7969 C188.7656,183.7969 187.5156,185.1094 187.5156,186.8906 L187.5156,187.9844 C187.5156,189.6875 188.8125,190.7813 190.8594,190.7813 C191.625,190.7813 192.3125,190.6563 192.7344,190.3906 C192.9219,190.2969 192.9219,190.2969 193.375,189.8125 C193.5625,189.625 193.7656,189.5469 193.9844,189.5469 C194.4531,189.5469 194.8438,189.9375 194.8438,190.3906 C194.8438,190.7813 194.5156,191.2344 193.9375,191.6406 C193.1875,192.1875 192.0313,192.4844 190.8125,192.4844 C187.9219,192.4844 185.8125,190.5938 185.8125,188.0156 L185.8125,186.8906 C185.8125,184.1719 187.8125,182.0938 190.4375,182.0938 C191.3125,182.0938 191.9063,182.2344 192.8438,182.6719 Z "/><text fill="#000000" font-family="sans-serif" font-size="12" lengthAdjust="spacingAndGlyphs" textLength="75" x="204.5" y="191.1543">ApiMessage</text><rect fill="#FFFFFF" height="15.9688" style="stroke: #000000; stroke-width: 1.0; stroke-dasharray: 2.0,2.0;" width="56" x="287.5" y="168"/><text fill="#000000" font-family="sans-serif" font-size="12" font-style="italic" lengthAdjust="spacingAndGlyphs" textLength="54" x="288.5" y="180.1387">Message</text><line style="stroke: #A80036; stroke-width: 1.5;" x1="176.5" x2="339.5" y1="203" y2="203"/><text fill="#000000" font-family="sans-serif" font-size="11" lengthAdjust="spacingAndGlyphs" textLength="105" x="181.5" y="217.2104">HttpCode: Number</text><text fill="#000000" font-family="sans-serif" font-size="11" lengthAdjust="spacingAndGlyphs" textLength="93" x="181.5" y="230.0151">Message: String</text><text fill="#000000" font-family="sans-serif" font-size="11" lengthAdjust="spacingAndGlyphs" textLength="124" x="181.5" y="242.8198">Body: OtherCustomer</text><line style="stroke: #A80036; stroke-width: 1.5;" x1="176.5" x2="339.5" y1="249.4141" y2="249.4141"/><!--class Error--><rect fill="#FEFECE" filter="url(#f1h4b1puo5nn9i)" height="73.6094" id="Error" style="stroke: #A80036; stroke-width: 1.5;" width="117" x="375.5" y="177"/><ellipse cx="414.8" cy="193" fill="#ADD1B2" rx="11" ry="11" style="stroke: #A80036; stroke-width: 1.0;"/><path d="M417.1438,188.6719 L417.3156,188.75 C417.5344,188.4375 417.7375,188.3438 418.0344,188.3438 C418.3313,188.3438 418.6125,188.4844 418.7688,188.75 C418.8625,188.9063 418.8781,189.0313 418.8781,189.4688 L418.8781,190.8906 C418.8781,191.3125 418.8469,191.5 418.7375,191.6563 C418.5656,191.875 418.3,192.0156 418.0344,192.0156 C417.8156,192.0156 417.5813,191.9063 417.4406,191.7656 C417.3,191.6406 417.2688,191.5156 417.2063,191.1094 C417.1125,190.7031 416.9406,190.4844 416.4563,190.2031 C415.9875,189.9531 415.3781,189.7969 414.8,189.7969 C413.0656,189.7969 411.8156,191.1094 411.8156,192.8906 L411.8156,193.9844 C411.8156,195.6875 413.1125,196.7813 415.1594,196.7813 C415.925,196.7813 416.6125,196.6563 417.0344,196.3906 C417.2219,196.2969 417.2219,196.2969 417.675,195.8125 C417.8625,195.625 418.0656,195.5469 418.2844,195.5469 C418.7531,195.5469 419.1438,195.9375 419.1438,196.3906 C419.1438,196.7813 418.8156,197.2344 418.2375,197.6406 C417.4875,198.1875 416.3313,198.4844 415.1125,198.4844 C412.2219,198.4844 410.1125,196.5938 410.1125,194.0156 L410.1125,192.8906 C410.1125,190.1719 412.1125,188.0938 414.7375,188.0938 C415.6125,188.0938 416.2063,188.2344 417.1438,188.6719 Z "/><text fill="#000000" font-family="sans-serif" font-size="12" lengthAdjust="spacingAndGlyphs" textLength="31" x="434.2" y="197.1543">Error</text><line style="stroke: #A80036; stroke-width: 1.5;" x1="376.5" x2="491.5" y1="209" y2="209"/><text fill="#000000" font-family="sans-serif" font-size="11" lengthAdjust="spacingAndGlyphs" textLength="105" x="381.5" y="223.2104">HttpCode: Number</text><text fill="#000000" font-family="sans-serif" font-size="11" lengthAdjust="spacingAndGlyphs" textLength="93" x="381.5" y="236.0151">Message: String</text><line style="stroke: #A80036; stroke-width: 1.5;" x1="376.5" x2="491.5" y1="242.6094" y2="242.6094"/><!--class Message--><rect fill="#FEFECE" filter="url(#f1h4b1puo5nn9i)" height="86.4141" id="Message" style="stroke: #A80036; stroke-width: 1.5;" width="117" x="137.5" y="8"/><ellipse cx="165.55" cy="24" fill="#DA70D6" rx="11" ry="11" style="stroke: #A80036; stroke-width: 1.0;"/><path d="M165.9875,21.5313 L165.9875,28.0469 L167.1125,28.0469 C167.5656,28.0469 167.7063,28.0781 167.8625,28.2031 C168.0969,28.375 168.2219,28.625 168.2219,28.9063 C168.2219,29.1875 168.0813,29.4844 167.8156,29.625 C167.7063,29.7031 167.4406,29.75 167.1125,29.75 L163.175,29.75 C162.7844,29.75 162.5656,29.7031 162.4094,29.5781 C162.1906,29.4219 162.05,29.1563 162.05,28.9063 C162.05,28.6094 162.2063,28.3281 162.4563,28.1719 C162.6125,28.0625 162.7375,28.0469 163.175,28.0469 L164.2844,28.0469 L164.2844,21.5313 L162.4563,21.5313 L162.4563,23.125 C162.4563,23.5781 162.425,23.7188 162.3156,23.8906 C162.1438,24.1094 161.8938,24.2344 161.6125,24.2344 C161.3313,24.2344 161.0344,24.0938 160.8781,23.8281 C160.8,23.6875 160.7688,23.5156 160.7688,23.125 L160.7688,19.8438 L169.5344,19.8438 L169.5344,23.125 C169.5344,23.5938 169.5188,23.7188 169.3781,23.8906 C169.2063,24.1094 168.9563,24.2344 168.6906,24.2344 C168.3938,24.2344 168.1125,24.0781 167.9563,23.8281 C167.8625,23.6875 167.8313,23.5156 167.8313,23.125 L167.8313,21.5313 Z "/><text fill="#000000" font-family="sans-serif" font-size="12" lengthAdjust="spacingAndGlyphs" textLength="56" x="182.45" y="28.1543">Message</text><line style="stroke: #A80036; stroke-width: 1.5;" x1="138.5" x2="253.5" y1="40" y2="40"/><text fill="#000000" font-family="sans-serif" font-size="11" lengthAdjust="spacingAndGlyphs" textLength="105" x="143.5" y="54.2104">HttpCode: Number</text><text fill="#000000" font-family="sans-serif" font-size="11" lengthAdjust="spacingAndGlyphs" textLength="93" x="143.5" y="67.0151">Message: String</text><text fill="#000000" font-family="sans-serif" font-size="11" lengthAdjust="spacingAndGlyphs" textLength="43" x="143.5" y="79.8198">Body: a</text><line style="stroke: #A80036; stroke-width: 1.5;" x1="138.5" x2="253.5" y1="86.4141" y2="86.4141"/><!--class OtherCustomer--><rect fill="#FEFECE" filter="url(#f1h4b1puo5nn9i)" height="73.6094" id="OtherCustomer" style="stroke: #A80036; stroke-width: 1.5;" width="127" x="387.5" y="14"/><ellipse cx="402.5" cy="30" fill="#ADD1B2" rx="11" ry="11" style="stroke: #A80036; stroke-width: 1.0;"/><path d="M404.8438,25.6719 L405.0156,25.75 C405.2344,25.4375 405.4375,25.3438 405.7344,25.3438 C406.0313,25.3438 406.3125,25.4844 406.4688,25.75 C406.5625,25.9063 406.5781,26.0313 406.5781,26.4688 L406.5781,27.8906 C406.5781,28.3125 406.5469,28.5 406.4375,28.6563 C406.2656,28.875 406,29.0156 405.7344,29.0156 C405.5156,29.0156 405.2813,28.9063 405.1406,28.7656 C405,28.6406 404.9688,28.5156 404.9063,28.1094 C404.8125,27.7031 404.6406,27.4844 404.1563,27.2031 C403.6875,26.9531 403.0781,26.7969 402.5,26.7969 C400.7656,26.7969 399.5156,28.1094 399.5156,29.8906 L399.5156,30.9844 C399.5156,32.6875 400.8125,33.7813 402.8594,33.7813 C403.625,33.7813 404.3125,33.6563 404.7344,33.3906 C404.9219,33.2969 404.9219,33.2969 405.375,32.8125 C405.5625,32.625 405.7656,32.5469 405.9844,32.5469 C406.4531,32.5469 406.8438,32.9375 406.8438,33.3906 C406.8438,33.7813 406.5156,34.2344 405.9375,34.6406 C405.1875,35.1875 404.0313,35.4844 402.8125,35.4844 C399.9219,35.4844 397.8125,33.5938 397.8125,31.0156 L397.8125,29.8906 C397.8125,27.1719 399.8125,25.0938 402.4375,25.0938 C403.3125,25.0938 403.9063,25.2344 404.8438,25.6719 Z "/><text fill="#000000" font-family="sans-serif" font-size="12" lengthAdjust="spacingAndGlyphs" textLength="95" x="416.5" y="34.1543">OtherCustomer</text><line style="stroke: #A80036; stroke-width: 1.5;" x1="388.5" x2="513.5" y1="46" y2="46"/><text fill="#000000" font-family="sans-serif" font-size="11" lengthAdjust="spacingAndGlyphs" textLength="103" x="393.5" y="60.2104">Something: String</text><text fill="#000000" font-family="sans-serif" font-size="11" lengthAdjust="spacingAndGlyphs" textLength="84" x="393.5" y="73.0151">CustomerId: Id</text><line style="stroke: #A80036; stroke-width: 1.5;" x1="388.5" x2="513.5" y1="79.6094" y2="79.6094"/><!--class Body--><rect fill="#FEFECE" filter="url(#f1h4b1puo5nn9i)" height="48" id="Body" style="stroke: #A80036; stroke-width: 1.5;" width="62" x="290" y="27"/><ellipse cx="305" cy="43" fill="#ADD1B2" rx="11" ry="11" style="stroke: #A80036; stroke-width: 1.0;"/><path d="M307.3438,38.6719 L307.5156,38.75 C307.7344,38.4375 307.9375,38.3438 308.2344,38.3438 C308.5313,38.3438 308.8125,38.4844 308.9688,38.75 C309.0625,38.9063 309.0781,39.0313 309.0781,39.4688 L309.0781,40.8906 C309.0781,41.3125 309.0469,41.5 308.9375,41.6563 C308.7656,41.875 308.5,42.0156 308.2344,42.0156 C308.0156,42.0156 307.7813,41.9063 307.6406,41.7656 C307.5,41.6406 307.4688,41.5156 307.4063,41.1094 C307.3125,40.7031 307.1406,40.4844 306.6563,40.2031 C306.1875,39.9531 305.5781,39.7969 305,39.7969 C303.2656,39.7969 302.0156,41.1094 302.0156,42.8906 L302.0156,43.9844 C302.0156,45.6875 303.3125,46.7813 305.3594,46.7813 C306.125,46.7813 306.8125,46.6563 307.2344,46.3906 C307.4219,46.2969 307.4219,46.2969 307.875,45.8125 C308.0625,45.625 308.2656,45.5469 308.4844,45.5469 C308.9531,45.5469 309.3438,45.9375 309.3438,46.3906 C309.3438,46.7813 309.0156,47.2344 308.4375,47.6406 C307.6875,48.1875 306.5313,48.4844 305.3125,48.4844 C302.4219,48.4844 300.3125,46.5938 300.3125,44.0156 L300.3125,42.8906 C300.3125,40.1719 302.3125,38.0938 304.9375,38.0938 C305.8125,38.0938 306.4063,38.2344 307.3438,38.6719 Z "/><text fill="#000000" font-family="sans-serif" font-size="12" lengthAdjust="spacingAndGlyphs" textLength="30" x="319" y="47.1543">Body</text><line style="stroke: #A80036; stroke-width: 1.5;" x1="291" x2="351" y1="59" y2="59"/><line style="stroke: #A80036; stroke-width: 1.5;" x1="291" x2="351" y1="67" y2="67"/><!--link ApiMessage to Envelope--><path d="M284.042,257.08 C293.545,272.053 304.533,288.93 315,304 C320.851,312.423 327.209,321.223 333.515,329.756 " fill="none" id="ApiMessage-Envelope" style="stroke: #A80036; stroke-width: 1.0;"/><polygon fill="#A80036" points="336.603,333.9208,334.4557,324.3089,333.625,329.9044,328.0295,329.0737,336.603,333.9208" style="stroke: #A80036; stroke-width: 1.0;"/><text fill="#000000" font-family="sans-serif" font-size="13" lengthAdjust="spacingAndGlyphs" textLength="77" x="316" y="300.0669">ApiMessage</text><!--link Error to Envelope--><path d="M420.981,251.345 C412.871,273.986 402.292,303.519 393.226,328.827 " fill="none" id="Error-Envelope" style="stroke: #A80036; stroke-width: 1.0;"/><polygon fill="#A80036" points="391.434,333.8288,398.2342,326.7043,393.1198,329.1215,390.7026,324.0071,391.434,333.8288" style="stroke: #A80036; stroke-width: 1.0;"/><text fill="#000000" font-family="sans-serif" font-size="13" lengthAdjust="spacingAndGlyphs" textLength="31" x="408" y="300.0669">Error</text><!--link Body to ApiMessage--><path d="M311.974,75.067 C302.705,98.755 288.019,136.285 276.305,166.221 " fill="none" id="Body-ApiMessage" style="stroke: #A80036; stroke-width: 1.0;"/><polygon fill="#A80036" points="274.452,170.957,281.4579,164.0348,276.2749,166.3011,274.0086,161.1181,274.452,170.957" style="stroke: #A80036; stroke-width: 1.0;"/><text fill="#000000" font-family="sans-serif" font-size="13" lengthAdjust="spacingAndGlyphs" textLength="32" x="292" y="137.0669">Body</text><!--link Message to ApiMessage--><path d="M212.29,94.301 C219.872,113.99 228.983,137.649 237.068,158.646 " fill="none" id="Message-ApiMessage" style="stroke: #A80036; stroke-width: 1.0;"/><polygon fill="#A80036" points="241.819,170.982,243.3957,163.9454,237.5068,159.7836,235.9301,166.8202,241.819,170.982" style="stroke: #A80036; stroke-width: 1.0;"/><text fill="#000000" font-family="sans-serif" font-size="13" lengthAdjust="spacingAndGlyphs" textLength="37" x="229" y="137.0669">ALIAS</text><!--
@startuml
class Customer {
	CustomerId: Id 
}
abstract Envelope {
	ApiMessage
	Error
  - - -
  <b>description</b>: api
    
}
ApiMessage - -> Envelope : ApiMessage
Error - -> Envelope : Error
class Message<< (T,orchid) >> {
	HttpCode: Number 
	Message: String 
	Body: a 
}
class OtherCustomer {
	Something: String 
	CustomerId: Id 
}
class ApiMessage<Message> {
	HttpCode: Number 
	Message: String 
	Body: OtherCustomer 
}
Body - -> ApiMessage : Body
Message - -* ApiMessage: ALIAS
class Error {
	HttpCode: Number 
	Message: String 
}
@enduml

PlantUML version 1.2019.03(Sun Mar 10 11:04:44 UTC 2019)
(GPL source distribution)
Java Runtime: Java(TM) SE Runtime Environment
JVM: Java HotSpot(TM) 64-Bit Server VM
Java Version: 1.7.0_25-b15
Operating System: Linux
Default Encoding: UTF-8
Language: en
Country: US
--></g></svg>