<?xml version="1.0" encoding="UTF-8" standalone="no"?><svg xmlns="http://www.w3.org/2000/svg" xmlns:xlink="http://www.w3.org/1999/xlink" contentScriptType="application/ecmascript" contentStyleType="text/css" height="79px" preserveAspectRatio="none" style="width:104px;height:79px;" version="1.1" viewBox="0 0 104 79" width="104px" zoomAndPan="magnify"><defs><filter height="300%" id="f1gxz64a836fom" width="300%" x="-1" y="-1"><feGaussianBlur result="blurOut" stdDeviation="2.0"/><feColorMatrix in="blurOut" result="blurOut2" type="matrix" values="0 0 0 0 0 0 0 0 0 0 0 0 0 0 0 0 0 0 .4 0"/><feOffset dx="4.0" dy="4.0" in="blurOut2" result="blurOut3"/><feBlend in="SourceGraphic" in2="blurOut3" mode="normal"/></filter></defs><g><!--class Person--><rect fill="#FEFECE" filter="url(#f1gxz64a836fom)" height="60.8047" id="Person" style="stroke: #A80036; stroke-width: 1.5;" width="87" x="6" y="8"/><ellipse cx="25.95" cy="24" fill="#ADD1B2" rx="11" ry="11" style="stroke: #A80036; stroke-width: 1.0;"/><path d="M28.2938,19.6719 L28.4656,19.75 C28.6844,19.4375 28.8875,19.3438 29.1844,19.3438 C29.4813,19.3438 29.7625,19.4844 29.9188,19.75 C30.0125,19.9063 30.0281,20.0313 30.0281,20.4688 L30.0281,21.8906 C30.0281,22.3125 29.9969,22.5 29.8875,22.6563 C29.7156,22.875 29.45,23.0156 29.1844,23.0156 C28.9656,23.0156 28.7313,22.9063 28.5906,22.7656 C28.45,22.6406 28.4188,22.5156 28.3563,22.1094 C28.2625,21.7031 28.0906,21.4844 27.6063,21.2031 C27.1375,20.9531 26.5281,20.7969 25.95,20.7969 C24.2156,20.7969 22.9656,22.1094 22.9656,23.8906 L22.9656,24.9844 C22.9656,26.6875 24.2625,27.7813 26.3094,27.7813 C27.075,27.7813 27.7625,27.6563 28.1844,27.3906 C28.3719,27.2969 28.3719,27.2969 28.825,26.8125 C29.0125,26.625 29.2156,26.5469 29.4344,26.5469 C29.9031,26.5469 30.2938,26.9375 30.2938,27.3906 C30.2938,27.7813 29.9656,28.2344 29.3875,28.6406 C28.6375,29.1875 27.4813,29.4844 26.2625,29.4844 C23.3719,29.4844 21.2625,27.5938 21.2625,25.0156 L21.2625,23.8906 C21.2625,21.1719 23.2625,19.0938 25.8875,19.0938 C26.7625,19.0938 27.3563,19.2344 28.2938,19.6719 Z "/><text fill="#000000" font-family="sans-serif" font-size="12" lengthAdjust="spacingAndGlyphs" textLength="44" x="41.05" y="28.1543">Person</text><line style="stroke: #A80036; stroke-width: 1.5;" x1="7" x2="92" y1="40" y2="40"/><text fill="#000000" font-family="sans-serif" font-size="11" lengthAdjust="spacingAndGlyphs" textLength="75" x="12" y="54.2104">Name: String</text><line style="stroke: #A80036; stroke-width: 1.5;" x1="7" x2="92" y1="60.8047" y2="60.8047"/><!--
@startuml
class "Person" as Person  {
	Name: String 
}
@enduml

PlantUML version 1.2019.07beta1(Unknown compile time)
(GPL source distribution)
Java Runtime: Java(TM) SE Runtime Environment
JVM: Java HotSpot(TM) 64-Bit Server VM
Java Version: 1.7.0_25-b15
Operating System: Linux
Default Encoding: UTF-8
Language: en
Country: US
--></g></svg>