<?xml version="1.0" encoding="UTF-8" standalone="no"?><svg xmlns="http://www.w3.org/2000/svg" xmlns:xlink="http://www.w3.org/1999/xlink" contentScriptType="application/ecmascript" contentStyleType="text/css" height="409px" preserveAspectRatio="none" style="width:684px;height:409px;" version="1.1" viewBox="0 0 684 409" width="684px" zoomAndPan="magnify"><defs><filter height="300%" id="fvduqva7580zv" width="300%" x="-1" y="-1"><feGaussianBlur result="blurOut" stdDeviation="2.0"/><feColorMatrix in="blurOut" result="blurOut2" type="matrix" values="0 0 0 0 0 0 0 0 0 0 0 0 0 0 0 0 0 0 .4 0"/><feOffset dx="4.0" dy="4.0" in="blurOut2" result="blurOut3"/><feBlend in="SourceGraphic" in2="blurOut3" mode="normal"/></filter></defs><g><!--class Maybe--><rect fill="#FEFECE" filter="url(#fvduqva7580zv)" height="73.6094" id="Maybe" style="stroke: #A80036; stroke-width: 1.5;" width="85" x="6" y="78"/><ellipse cx="21" cy="94" fill="#A9DCDF" rx="11" ry="11" style="stroke: #A80036; stroke-width: 1.0;"/><path d="M22.5781,95.8125 L18.5313,95.8125 L18.1406,96.7969 L18.5313,96.7969 C18.9844,96.7969 19.125,96.8281 19.2969,96.9531 C19.5156,97.125 19.6406,97.375 19.6406,97.6563 C19.6406,97.9375 19.5,98.2344 19.2344,98.375 C19.1094,98.4688 18.8906,98.5 18.5313,98.5 L16.2656,98.5 C15.5156,98.5 15.1406,98.2188 15.1406,97.6563 C15.1406,97.3594 15.2969,97.0781 15.5469,96.9219 C15.7031,96.8125 15.8594,96.7969 16.2813,96.7969 L18.9219,90.2813 L17.8438,90.2813 C17.4063,90.2813 17.2344,90.25 17.0625,90.1406 C16.8438,89.9688 16.7031,89.7188 16.7031,89.4375 C16.7031,89.1563 16.8594,88.875 17.1094,88.7031 C17.2656,88.6094 17.3906,88.5938 17.8438,88.5938 L21.5156,88.5938 L24.9063,96.7969 C25.375,96.7969 25.5313,96.8281 25.7031,96.9688 C25.9219,97.125 26.0625,97.375 26.0625,97.6563 C26.0625,97.9375 25.9063,98.2344 25.6563,98.375 C25.5156,98.4688 25.2969,98.5 24.9375,98.5 L22.5781,98.5 C22.1563,98.5 21.9531,98.4531 21.8125,98.3281 C21.5938,98.1719 21.4531,97.9219 21.4531,97.6563 C21.4531,97.3594 21.6094,97.0781 21.8594,96.9219 C22.0156,96.8125 22.125,96.7969 22.5781,96.7969 L22.9688,96.7969 Z M21.875,94.1094 L20.5469,90.8438 L19.2031,94.1094 Z "/><text fill="#000000" font-family="sans-serif" font-size="12" font-style="italic" lengthAdjust="spacingAndGlyphs" textLength="53" x="35" y="98.1543">Maybe a</text><line style="stroke: #A80036; stroke-width: 1.5;" x1="7" x2="90" y1="110" y2="110"/><text fill="#000000" font-family="sans-serif" font-size="11" lengthAdjust="spacingAndGlyphs" textLength="32" x="12" y="124.2104">Just a</text><text fill="#000000" font-family="sans-serif" font-size="11" lengthAdjust="spacingAndGlyphs" textLength="43" x="12" y="137.0151">Nothing</text><line style="stroke: #A80036; stroke-width: 1.5;" x1="7" x2="90" y1="143.6094" y2="143.6094"/><!--class Gender--><rect fill="#FEFECE" filter="url(#fvduqva7580zv)" height="86.4141" id="Gender" style="stroke: #A80036; stroke-width: 1.5;" width="78" x="126.5" y="72"/><ellipse cx="141.5" cy="88" fill="#EB937F" rx="11" ry="11" style="stroke: #A80036; stroke-width: 1.0;"/><path d="M139.7969,88.875 L139.7969,91.2969 L144.1563,91.2969 L144.1563,90.4219 C144.1563,89.9375 144.1875,89.7969 144.2969,89.6406 C144.4688,89.3906 144.7344,89.2813 145,89.2813 C145.2813,89.2813 145.5625,89.4375 145.7344,89.6875 C145.8125,89.8438 145.8438,89.9844 145.8438,90.4219 L145.8438,93 L137.8438,93 C137.4531,93 137.2188,92.9531 137.0781,92.8281 C136.8594,92.6719 136.7188,92.4219 136.7188,92.1563 C136.7188,91.8594 136.875,91.5938 137.125,91.4219 C137.2813,91.3125 137.4375,91.2969 137.8438,91.2969 L138.0938,91.2969 L138.0938,84.7813 L137.8438,84.7813 C137.4219,84.7813 137.2344,84.75 137.0781,84.6406 C136.8594,84.4688 136.7188,84.2188 136.7188,83.9375 C136.7188,83.6563 136.875,83.3594 137.125,83.2031 C137.2813,83.1094 137.4063,83.0938 137.8438,83.0938 L145.4688,83.0938 L145.4688,85.6406 C145.4688,86.1094 145.4375,86.25 145.3281,86.4219 C145.1563,86.6406 144.8906,86.7813 144.625,86.7813 C144.3438,86.7813 144.0625,86.625 143.8906,86.375 C143.8125,86.2188 143.7813,86.0469 143.7813,85.6406 L143.7813,84.7813 L139.7969,84.7813 L139.7969,87.1875 L141.25,87.1875 L141.25,87.0625 C141.25,86.6094 141.2813,86.4531 141.3906,86.2813 C141.5625,86.0625 141.8281,85.9219 142.0781,85.9219 C142.5313,85.9219 142.8438,86.2344 142.9063,86.7031 C142.9219,86.8594 142.9219,86.9063 142.9219,87.0625 L142.9219,88.9844 C142.9219,89.4375 142.8906,89.5938 142.7656,89.75 C142.6094,89.9688 142.3438,90.1094 142.0938,90.1094 C141.7969,90.1094 141.5156,89.9531 141.3594,89.7031 C141.2813,89.5469 141.25,89.3906 141.25,88.9844 L141.25,88.875 Z "/><text fill="#000000" font-family="sans-serif" font-size="12" lengthAdjust="spacingAndGlyphs" textLength="46" x="155.5" y="92.1543">Gender</text><line style="stroke: #A80036; stroke-width: 1.5;" x1="127.5" x2="203.5" y1="104" y2="104"/><text fill="#000000" font-family="sans-serif" font-size="11" lengthAdjust="spacingAndGlyphs" textLength="26" x="132.5" y="118.2104">Male</text><text fill="#000000" font-family="sans-serif" font-size="11" lengthAdjust="spacingAndGlyphs" textLength="41" x="132.5" y="131.0151">Female</text><text fill="#000000" font-family="sans-serif" font-size="11" lengthAdjust="spacingAndGlyphs" textLength="32" x="132.5" y="143.8198">Other</text><line style="stroke: #A80036; stroke-width: 1.5;" x1="127.5" x2="203.5" y1="150.4141" y2="150.4141"/><!--class Address--><rect fill="#FEFECE" filter="url(#fvduqva7580zv)" height="214.4609" id="Address" style="stroke: #A80036; stroke-width: 1.5;" width="227" x="240" y="8"/><ellipse cx="323.75" cy="24" fill="#ADD1B2" rx="11" ry="11" style="stroke: #A80036; stroke-width: 1.0;"/><path d="M326.0938,19.6719 L326.2656,19.75 C326.4844,19.4375 326.6875,19.3438 326.9844,19.3438 C327.2813,19.3438 327.5625,19.4844 327.7188,19.75 C327.8125,19.9063 327.8281,20.0313 327.8281,20.4688 L327.8281,21.8906 C327.8281,22.3125 327.7969,22.5 327.6875,22.6563 C327.5156,22.875 327.25,23.0156 326.9844,23.0156 C326.7656,23.0156 326.5313,22.9063 326.3906,22.7656 C326.25,22.6406 326.2188,22.5156 326.1563,22.1094 C326.0625,21.7031 325.8906,21.4844 325.4063,21.2031 C324.9375,20.9531 324.3281,20.7969 323.75,20.7969 C322.0156,20.7969 320.7656,22.1094 320.7656,23.8906 L320.7656,24.9844 C320.7656,26.6875 322.0625,27.7813 324.1094,27.7813 C324.875,27.7813 325.5625,27.6563 325.9844,27.3906 C326.1719,27.2969 326.1719,27.2969 326.625,26.8125 C326.8125,26.625 327.0156,26.5469 327.2344,26.5469 C327.7031,26.5469 328.0938,26.9375 328.0938,27.3906 C328.0938,27.7813 327.7656,28.2344 327.1875,28.6406 C326.4375,29.1875 325.2813,29.4844 324.0625,29.4844 C321.1719,29.4844 319.0625,27.5938 319.0625,25.0156 L319.0625,23.8906 C319.0625,21.1719 321.0625,19.0938 323.6875,19.0938 C324.5625,19.0938 325.1563,19.2344 326.0938,19.6719 Z "/><text fill="#000000" font-family="sans-serif" font-size="12" lengthAdjust="spacingAndGlyphs" textLength="51" x="344.25" y="28.1543">Address</text><line style="stroke: #A80036; stroke-width: 1.5;" x1="241" x2="466" y1="40" y2="40"/><text fill="#000000" font-family="sans-serif" font-size="11" lengthAdjust="spacingAndGlyphs" textLength="77" x="246" y="54.2104">Street: String</text><text fill="#000000" font-family="sans-serif" font-size="11" lengthAdjust="spacingAndGlyphs" textLength="106" x="246" y="67.0151">PostalCode: String</text><text fill="#000000" font-family="sans-serif" font-size="11" lengthAdjust="spacingAndGlyphs" textLength="134" x="246" y="79.8198">HouseNumber: Number</text><text fill="#000000" font-family="sans-serif" font-size="11" lengthAdjust="spacingAndGlyphs" textLength="178" x="246" y="92.6245">HouseNumberExtension: String</text><text fill="#000000" font-family="sans-serif" font-size="11" lengthAdjust="spacingAndGlyphs" textLength="63" x="246" y="105.4292">City: String</text><text fill="#000000" font-family="sans-serif" font-size="11" lengthAdjust="spacingAndGlyphs" textLength="115" x="246" y="118.2339">CountryCode: String</text><text fill="#000000" font-family="sans-serif" font-size="11" lengthAdjust="spacingAndGlyphs" textLength="86" x="246" y="131.0386">Country: String</text><line style="stroke: #A80036; stroke-width: 1.0;" x1="241" x2="466" y1="137.6328" y2="137.6328"/><text fill="#000000" font-family="sans-serif" font-size="11" font-weight="bold" lengthAdjust="spacingAndGlyphs" textLength="72" x="246" y="151.8433">description</text><text fill="#000000" font-family="sans-serif" font-size="11" lengthAdjust="spacingAndGlyphs" textLength="106" x="318" y="151.8433">: The address of a</text><text fill="#000000" font-family="sans-serif" font-size="11" lengthAdjust="spacingAndGlyphs" textLength="167" x="246" y="164.6479">person. This is the functional</text><text fill="#000000" font-family="sans-serif" font-size="11" lengthAdjust="spacingAndGlyphs" textLength="215" x="246" y="177.4526">location of where a person lives. This</text><text fill="#000000" font-family="sans-serif" font-size="11" lengthAdjust="spacingAndGlyphs" textLength="194" x="246" y="190.2573">type is of course designed for the</text><text fill="#000000" font-family="sans-serif" font-size="11" lengthAdjust="spacingAndGlyphs" textLength="133" x="246" y="203.062">Dutch address system.</text><text fill="#000000" font-family="sans-serif" font-size="11" lengthAdjust="spacingAndGlyphs" textLength="0" x="250" y="215.8667"/><!--class Person--><rect fill="#FEFECE" filter="url(#fvduqva7580zv)" height="99.2188" id="Person" style="stroke: #A80036; stroke-width: 1.5;" width="190" x="258.5" y="299"/><ellipse cx="325.25" cy="315" fill="#ADD1B2" rx="11" ry="11" style="stroke: #A80036; stroke-width: 1.0;"/><path d="M327.5938,310.6719 L327.7656,310.75 C327.9844,310.4375 328.1875,310.3438 328.4844,310.3438 C328.7813,310.3438 329.0625,310.4844 329.2188,310.75 C329.3125,310.9063 329.3281,311.0313 329.3281,311.4688 L329.3281,312.8906 C329.3281,313.3125 329.2969,313.5 329.1875,313.6563 C329.0156,313.875 328.75,314.0156 328.4844,314.0156 C328.2656,314.0156 328.0313,313.9063 327.8906,313.7656 C327.75,313.6406 327.7188,313.5156 327.6563,313.1094 C327.5625,312.7031 327.3906,312.4844 326.9063,312.2031 C326.4375,311.9531 325.8281,311.7969 325.25,311.7969 C323.5156,311.7969 322.2656,313.1094 322.2656,314.8906 L322.2656,315.9844 C322.2656,317.6875 323.5625,318.7813 325.6094,318.7813 C326.375,318.7813 327.0625,318.6563 327.4844,318.3906 C327.6719,318.2969 327.6719,318.2969 328.125,317.8125 C328.3125,317.625 328.5156,317.5469 328.7344,317.5469 C329.2031,317.5469 329.5938,317.9375 329.5938,318.3906 C329.5938,318.7813 329.2656,319.2344 328.6875,319.6406 C327.9375,320.1875 326.7813,320.4844 325.5625,320.4844 C322.6719,320.4844 320.5625,318.5938 320.5625,316.0156 L320.5625,314.8906 C320.5625,312.1719 322.5625,310.0938 325.1875,310.0938 C326.0625,310.0938 326.6563,310.2344 327.5938,310.6719 Z "/><text fill="#000000" font-family="sans-serif" font-size="12" lengthAdjust="spacingAndGlyphs" textLength="44" x="345.75" y="319.1543">Person</text><line style="stroke: #A80036; stroke-width: 1.5;" x1="259.5" x2="447.5" y1="331" y2="331"/><text fill="#000000" font-family="sans-serif" font-size="11" lengthAdjust="spacingAndGlyphs" textLength="140" x="264.5" y="345.2104">FirstName: Maybe String</text><text fill="#000000" font-family="sans-serif" font-size="11" lengthAdjust="spacingAndGlyphs" textLength="99" x="264.5" y="358.0151">LastName: String</text><text fill="#000000" font-family="sans-serif" font-size="11" lengthAdjust="spacingAndGlyphs" textLength="102" x="264.5" y="370.8198">Address: Address</text><text fill="#000000" font-family="sans-serif" font-size="11" lengthAdjust="spacingAndGlyphs" textLength="84" x="264.5" y="383.6245">CustomerId: Id</text><text fill="#000000" font-family="sans-serif" font-size="11" font-style="italic" lengthAdjust="spacingAndGlyphs" textLength="86" x="356.5" y="383.6245">from Customer</text><line style="stroke: #A80036; stroke-width: 1.5;" x1="259.5" x2="447.5" y1="390.2188" y2="390.2188"/><!--class Customer--><rect fill="#FEFECE" filter="url(#fvduqva7580zv)" height="60.8047" id="Customer" style="stroke: #A80036; stroke-width: 1.5;" width="96" x="516.5" y="84.5"/><ellipse cx="533.3" cy="100.5" fill="#ADD1B2" rx="11" ry="11" style="stroke: #A80036; stroke-width: 1.0;"/><path d="M535.6438,96.1719 L535.8156,96.25 C536.0344,95.9375 536.2375,95.8438 536.5344,95.8438 C536.8313,95.8438 537.1125,95.9844 537.2688,96.25 C537.3625,96.4063 537.3781,96.5313 537.3781,96.9688 L537.3781,98.3906 C537.3781,98.8125 537.3469,99 537.2375,99.1563 C537.0656,99.375 536.8,99.5156 536.5344,99.5156 C536.3156,99.5156 536.0813,99.4063 535.9406,99.2656 C535.8,99.1406 535.7688,99.0156 535.7063,98.6094 C535.6125,98.2031 535.4406,97.9844 534.9563,97.7031 C534.4875,97.4531 533.8781,97.2969 533.3,97.2969 C531.5656,97.2969 530.3156,98.6094 530.3156,100.3906 L530.3156,101.4844 C530.3156,103.1875 531.6125,104.2813 533.6594,104.2813 C534.425,104.2813 535.1125,104.1563 535.5344,103.8906 C535.7219,103.7969 535.7219,103.7969 536.175,103.3125 C536.3625,103.125 536.5656,103.0469 536.7844,103.0469 C537.2531,103.0469 537.6438,103.4375 537.6438,103.8906 C537.6438,104.2813 537.3156,104.7344 536.7375,105.1406 C535.9875,105.6875 534.8313,105.9844 533.6125,105.9844 C530.7219,105.9844 528.6125,104.0938 528.6125,101.5156 L528.6125,100.3906 C528.6125,97.6719 530.6125,95.5938 533.2375,95.5938 C534.1125,95.5938 534.7063,95.7344 535.6438,96.1719 Z "/><text fill="#000000" font-family="sans-serif" font-size="12" lengthAdjust="spacingAndGlyphs" textLength="60" x="547.7" y="104.6543">Customer</text><line style="stroke: #A80036; stroke-width: 1.5;" x1="517.5" x2="611.5" y1="116.5" y2="116.5"/><text fill="#000000" font-family="sans-serif" font-size="11" lengthAdjust="spacingAndGlyphs" textLength="84" x="522.5" y="130.7104">CustomerId: Id</text><line style="stroke: #A80036; stroke-width: 1.5;" x1="517.5" x2="611.5" y1="137.3047" y2="137.3047"/><!--class Company--><rect fill="#FEFECE" filter="url(#fvduqva7580zv)" height="73.6094" id="Company" style="stroke: #A80036; stroke-width: 1.5;" width="190" x="483.5" y="311.5"/><ellipse cx="543.75" cy="327.5" fill="#ADD1B2" rx="11" ry="11" style="stroke: #A80036; stroke-width: 1.0;"/><path d="M546.0938,323.1719 L546.2656,323.25 C546.4844,322.9375 546.6875,322.8438 546.9844,322.8438 C547.2813,322.8438 547.5625,322.9844 547.7188,323.25 C547.8125,323.4063 547.8281,323.5313 547.8281,323.9688 L547.8281,325.3906 C547.8281,325.8125 547.7969,326 547.6875,326.1563 C547.5156,326.375 547.25,326.5156 546.9844,326.5156 C546.7656,326.5156 546.5313,326.4063 546.3906,326.2656 C546.25,326.1406 546.2188,326.0156 546.1563,325.6094 C546.0625,325.2031 545.8906,324.9844 545.4063,324.7031 C544.9375,324.4531 544.3281,324.2969 543.75,324.2969 C542.0156,324.2969 540.7656,325.6094 540.7656,327.3906 L540.7656,328.4844 C540.7656,330.1875 542.0625,331.2813 544.1094,331.2813 C544.875,331.2813 545.5625,331.1563 545.9844,330.8906 C546.1719,330.7969 546.1719,330.7969 546.625,330.3125 C546.8125,330.125 547.0156,330.0469 547.2344,330.0469 C547.7031,330.0469 548.0938,330.4375 548.0938,330.8906 C548.0938,331.2813 547.7656,331.7344 547.1875,332.1406 C546.4375,332.6875 545.2813,332.9844 544.0625,332.9844 C541.1719,332.9844 539.0625,331.0938 539.0625,328.5156 L539.0625,327.3906 C539.0625,324.6719 541.0625,322.5938 543.6875,322.5938 C544.5625,322.5938 545.1563,322.7344 546.0938,323.1719 Z "/><text fill="#000000" font-family="sans-serif" font-size="12" lengthAdjust="spacingAndGlyphs" textLength="57" x="564.25" y="331.6543">Company</text><line style="stroke: #A80036; stroke-width: 1.5;" x1="484.5" x2="672.5" y1="343.5" y2="343.5"/><text fill="#000000" font-family="sans-serif" font-size="11" lengthAdjust="spacingAndGlyphs" textLength="148" x="489.5" y="357.7104">OrganisationName: String</text><text fill="#000000" font-family="sans-serif" font-size="11" lengthAdjust="spacingAndGlyphs" textLength="84" x="489.5" y="370.5151">CustomerId: Id</text><text fill="#000000" font-family="sans-serif" font-size="11" font-style="italic" lengthAdjust="spacingAndGlyphs" textLength="86" x="581.5" y="370.5151">from Customer</text><line style="stroke: #A80036; stroke-width: 1.5;" x1="484.5" x2="672.5" y1="377.1094" y2="377.1094"/><!--link Address to Person--><path d="M353.5,222.264 C353.5,247.023 353.5,272.365 353.5,293.718 " fill="none" id="Address-Person" style="stroke: #A80036; stroke-width: 1.0;"/><polygon fill="#A80036" points="353.5,298.7738,357.5,289.7738,353.5,293.7738,349.5,289.7738,353.5,298.7738" style="stroke: #A80036; stroke-width: 1.0;"/><text fill="#000000" font-family="sans-serif" font-size="13" lengthAdjust="spacingAndGlyphs" textLength="52" x="354.5" y="265.0669">Address</text><!--link Customer to Person--><path d="M543.976,145.783 C528.487,167.594 506.251,197.531 484.5,222 C465.388,243.499 443.24,265.632 422.653,285.209 " fill="none" id="Customer-Person" style="stroke: #A80036; stroke-width: 1.0;"/><polygon fill="none" points="427.376,290.378,408.005,298.9679,417.791,280.173,427.376,290.378" style="stroke: #A80036; stroke-width: 1.0;"/><!--link Customer to Company--><path d="M566.302,145.791 C568.519,182.455 572.33,245.48 575.104,291.342 " fill="none" id="Customer-Company" style="stroke: #A80036; stroke-width: 1.0;"/><polygon fill="none" points="582.094,290.973,576.314,311.3589,568.12,291.818,582.094,290.973" style="stroke: #A80036; stroke-width: 1.0;"/><!--
@startuml
abstract "Maybe a" as Maybe {
	Just a
	Nothing 
}
enum Gender {
	Male
	Female
	Other
}
class "Address" as Address  {
	Street: String 
	PostalCode: String 
	HouseNumber: Number 
	HouseNumberExtension: String 
	City: String 
	CountryCode: String 
	Country: String 
- -
  <b>description</b>: The address of a
 person. This is the functional
 location of where a person lives. This
 type is of course designed for the
 Dutch address system.
    
}
class "Person " as Person  {
	FirstName: Maybe String
	LastName: String 
	Address: Address 
	CustomerId: Id  <i>from Customer</i>
}
Address - -> Person : Address
Customer - -|> Person
class "Company " as Company  {
	OrganisationName: String 
	CustomerId: Id  <i>from Customer</i>
}
Customer - -|> Company
class "Customer" as Customer  {
	CustomerId: Id 
}
@enduml

PlantUML version 1.2019.03(Sun Mar 10 11:04:44 UTC 2019)
(GPL source distribution)
Java Runtime: Java(TM) SE Runtime Environment
JVM: Java HotSpot(TM) 64-Bit Server VM
Java Version: 1.7.0_25-b15
Operating System: Linux
Default Encoding: UTF-8
Language: en
Country: US
--></g></svg>