<?xml version="1.0" encoding="UTF-8" standalone="no"?><svg xmlns="http://www.w3.org/2000/svg" xmlns:xlink="http://www.w3.org/1999/xlink" contentScriptType="application/ecmascript" contentStyleType="text/css" height="320px" preserveAspectRatio="none" style="width:731px;height:320px;" version="1.1" viewBox="0 0 731 320" width="731px" zoomAndPan="magnify"><defs><filter height="300%" id="f1hv514kdpdst1" width="300%" x="-1" y="-1"><feGaussianBlur result="blurOut" stdDeviation="2.0"/><feColorMatrix in="blurOut" result="blurOut2" type="matrix" values="0 0 0 0 0 0 0 0 0 0 0 0 0 0 0 0 0 0 .4 0"/><feOffset dx="4.0" dy="4.0" in="blurOut2" result="blurOut3"/><feBlend in="SourceGraphic" in2="blurOut3" mode="normal"/></filter></defs><g><!--class Maybe--><rect fill="#FEFECE" filter="url(#f1hv514kdpdst1)" height="73.6094" id="Maybe" style="stroke: #A80036; stroke-width: 1.5;" width="73" x="366.5" y="229"/><ellipse cx="381.5" cy="245" fill="#A9DCDF" rx="11" ry="11" style="stroke: #A80036; stroke-width: 1.0;"/><path d="M383.0781,246.8125 L379.0313,246.8125 L378.6406,247.7969 L379.0313,247.7969 C379.4844,247.7969 379.625,247.8281 379.7969,247.9531 C380.0156,248.125 380.1406,248.375 380.1406,248.6563 C380.1406,248.9375 380,249.2344 379.7344,249.375 C379.6094,249.4688 379.3906,249.5 379.0313,249.5 L376.7656,249.5 C376.0156,249.5 375.6406,249.2188 375.6406,248.6563 C375.6406,248.3594 375.7969,248.0781 376.0469,247.9219 C376.2031,247.8125 376.3594,247.7969 376.7813,247.7969 L379.4219,241.2813 L378.3438,241.2813 C377.9063,241.2813 377.7344,241.25 377.5625,241.1406 C377.3438,240.9688 377.2031,240.7188 377.2031,240.4375 C377.2031,240.1563 377.3594,239.875 377.6094,239.7031 C377.7656,239.6094 377.8906,239.5938 378.3438,239.5938 L382.0156,239.5938 L385.4063,247.7969 C385.875,247.7969 386.0313,247.8281 386.2031,247.9688 C386.4219,248.125 386.5625,248.375 386.5625,248.6563 C386.5625,248.9375 386.4063,249.2344 386.1563,249.375 C386.0156,249.4688 385.7969,249.5 385.4375,249.5 L383.0781,249.5 C382.6563,249.5 382.4531,249.4531 382.3125,249.3281 C382.0938,249.1719 381.9531,248.9219 381.9531,248.6563 C381.9531,248.3594 382.1094,248.0781 382.3594,247.9219 C382.5156,247.8125 382.625,247.7969 383.0781,247.7969 L383.4688,247.7969 Z M382.375,245.1094 L381.0469,241.8438 L379.7031,245.1094 Z "/><text fill="#000000" font-family="sans-serif" font-size="12" font-style="italic" lengthAdjust="spacingAndGlyphs" textLength="41" x="395.5" y="249.1543">Maybe</text><line style="stroke: #A80036; stroke-width: 1.5;" x1="367.5" x2="438.5" y1="261" y2="261"/><text fill="#000000" font-family="sans-serif" font-size="11" lengthAdjust="spacingAndGlyphs" textLength="21" x="372.5" y="275.2104">Just</text><text fill="#000000" font-family="sans-serif" font-size="11" lengthAdjust="spacingAndGlyphs" textLength="43" x="372.5" y="288.0151">Nothing</text><line style="stroke: #A80036; stroke-width: 1.5;" x1="367.5" x2="438.5" y1="294.6094" y2="294.6094"/><!--class Just--><rect fill="#FEFECE" filter="url(#f1hv514kdpdst1)" height="48" id="Just" style="stroke: #A80036; stroke-width: 1.5;" width="55" x="323.5" y="53"/><ellipse cx="338.5" cy="69" fill="#ADD1B2" rx="11" ry="11" style="stroke: #A80036; stroke-width: 1.0;"/><path d="M340.8438,64.6719 L341.0156,64.75 C341.2344,64.4375 341.4375,64.3438 341.7344,64.3438 C342.0313,64.3438 342.3125,64.4844 342.4688,64.75 C342.5625,64.9063 342.5781,65.0313 342.5781,65.4688 L342.5781,66.8906 C342.5781,67.3125 342.5469,67.5 342.4375,67.6563 C342.2656,67.875 342,68.0156 341.7344,68.0156 C341.5156,68.0156 341.2813,67.9063 341.1406,67.7656 C341,67.6406 340.9688,67.5156 340.9063,67.1094 C340.8125,66.7031 340.6406,66.4844 340.1563,66.2031 C339.6875,65.9531 339.0781,65.7969 338.5,65.7969 C336.7656,65.7969 335.5156,67.1094 335.5156,68.8906 L335.5156,69.9844 C335.5156,71.6875 336.8125,72.7813 338.8594,72.7813 C339.625,72.7813 340.3125,72.6563 340.7344,72.3906 C340.9219,72.2969 340.9219,72.2969 341.375,71.8125 C341.5625,71.625 341.7656,71.5469 341.9844,71.5469 C342.4531,71.5469 342.8438,71.9375 342.8438,72.3906 C342.8438,72.7813 342.5156,73.2344 341.9375,73.6406 C341.1875,74.1875 340.0313,74.4844 338.8125,74.4844 C335.9219,74.4844 333.8125,72.5938 333.8125,70.0156 L333.8125,68.8906 C333.8125,66.1719 335.8125,64.0938 338.4375,64.0938 C339.3125,64.0938 339.9063,64.2344 340.8438,64.6719 Z "/><text fill="#000000" font-family="sans-serif" font-size="12" lengthAdjust="spacingAndGlyphs" textLength="23" x="352.5" y="73.1543">Just</text><line style="stroke: #A80036; stroke-width: 1.5;" x1="324.5" x2="377.5" y1="85" y2="85"/><line style="stroke: #A80036; stroke-width: 1.5;" x1="324.5" x2="377.5" y1="93" y2="93"/><!--class Nothing--><rect fill="#FEFECE" filter="url(#f1hv514kdpdst1)" height="48" id="Nothing" style="stroke: #A80036; stroke-width: 1.5;" width="81" x="413.5" y="53"/><ellipse cx="428.5" cy="69" fill="#ADD1B2" rx="11" ry="11" style="stroke: #A80036; stroke-width: 1.0;"/><path d="M430.8438,64.6719 L431.0156,64.75 C431.2344,64.4375 431.4375,64.3438 431.7344,64.3438 C432.0313,64.3438 432.3125,64.4844 432.4688,64.75 C432.5625,64.9063 432.5781,65.0313 432.5781,65.4688 L432.5781,66.8906 C432.5781,67.3125 432.5469,67.5 432.4375,67.6563 C432.2656,67.875 432,68.0156 431.7344,68.0156 C431.5156,68.0156 431.2813,67.9063 431.1406,67.7656 C431,67.6406 430.9688,67.5156 430.9063,67.1094 C430.8125,66.7031 430.6406,66.4844 430.1563,66.2031 C429.6875,65.9531 429.0781,65.7969 428.5,65.7969 C426.7656,65.7969 425.5156,67.1094 425.5156,68.8906 L425.5156,69.9844 C425.5156,71.6875 426.8125,72.7813 428.8594,72.7813 C429.625,72.7813 430.3125,72.6563 430.7344,72.3906 C430.9219,72.2969 430.9219,72.2969 431.375,71.8125 C431.5625,71.625 431.7656,71.5469 431.9844,71.5469 C432.4531,71.5469 432.8438,71.9375 432.8438,72.3906 C432.8438,72.7813 432.5156,73.2344 431.9375,73.6406 C431.1875,74.1875 430.0313,74.4844 428.8125,74.4844 C425.9219,74.4844 423.8125,72.5938 423.8125,70.0156 L423.8125,68.8906 C423.8125,66.1719 425.8125,64.0938 428.4375,64.0938 C429.3125,64.0938 429.9063,64.2344 430.8438,64.6719 Z "/><text fill="#000000" font-family="sans-serif" font-size="12" lengthAdjust="spacingAndGlyphs" textLength="49" x="442.5" y="73.1543">Nothing</text><line style="stroke: #A80036; stroke-width: 1.5;" x1="414.5" x2="493.5" y1="85" y2="85"/><line style="stroke: #A80036; stroke-width: 1.5;" x1="414.5" x2="493.5" y1="93" y2="93"/><!--class Address--><rect fill="#FEFECE" filter="url(#f1hv514kdpdst1)" height="137.6328" id="Address" style="stroke: #A80036; stroke-width: 1.5;" width="190" x="530" y="8"/><ellipse cx="595.25" cy="24" fill="#ADD1B2" rx="11" ry="11" style="stroke: #A80036; stroke-width: 1.0;"/><path d="M597.5938,19.6719 L597.7656,19.75 C597.9844,19.4375 598.1875,19.3438 598.4844,19.3438 C598.7813,19.3438 599.0625,19.4844 599.2188,19.75 C599.3125,19.9063 599.3281,20.0313 599.3281,20.4688 L599.3281,21.8906 C599.3281,22.3125 599.2969,22.5 599.1875,22.6563 C599.0156,22.875 598.75,23.0156 598.4844,23.0156 C598.2656,23.0156 598.0313,22.9063 597.8906,22.7656 C597.75,22.6406 597.7188,22.5156 597.6563,22.1094 C597.5625,21.7031 597.3906,21.4844 596.9063,21.2031 C596.4375,20.9531 595.8281,20.7969 595.25,20.7969 C593.5156,20.7969 592.2656,22.1094 592.2656,23.8906 L592.2656,24.9844 C592.2656,26.6875 593.5625,27.7813 595.6094,27.7813 C596.375,27.7813 597.0625,27.6563 597.4844,27.3906 C597.6719,27.2969 597.6719,27.2969 598.125,26.8125 C598.3125,26.625 598.5156,26.5469 598.7344,26.5469 C599.2031,26.5469 599.5938,26.9375 599.5938,27.3906 C599.5938,27.7813 599.2656,28.2344 598.6875,28.6406 C597.9375,29.1875 596.7813,29.4844 595.5625,29.4844 C592.6719,29.4844 590.5625,27.5938 590.5625,25.0156 L590.5625,23.8906 C590.5625,21.1719 592.5625,19.0938 595.1875,19.0938 C596.0625,19.0938 596.6563,19.2344 597.5938,19.6719 Z "/><text fill="#000000" font-family="sans-serif" font-size="12" lengthAdjust="spacingAndGlyphs" textLength="51" x="615.75" y="28.1543">Address</text><line style="stroke: #A80036; stroke-width: 1.5;" x1="531" x2="719" y1="40" y2="40"/><text fill="#000000" font-family="sans-serif" font-size="11" lengthAdjust="spacingAndGlyphs" textLength="77" x="536" y="54.2104">Street: String</text><text fill="#000000" font-family="sans-serif" font-size="11" lengthAdjust="spacingAndGlyphs" textLength="106" x="536" y="67.0151">PostalCode: String</text><text fill="#000000" font-family="sans-serif" font-size="11" lengthAdjust="spacingAndGlyphs" textLength="134" x="536" y="79.8198">HouseNumber: Number</text><text fill="#000000" font-family="sans-serif" font-size="11" lengthAdjust="spacingAndGlyphs" textLength="178" x="536" y="92.6245">HouseNumberExtension: String</text><text fill="#000000" font-family="sans-serif" font-size="11" lengthAdjust="spacingAndGlyphs" textLength="63" x="536" y="105.4292">City: String</text><text fill="#000000" font-family="sans-serif" font-size="11" lengthAdjust="spacingAndGlyphs" textLength="115" x="536" y="118.2339">CountryCode: String</text><text fill="#000000" font-family="sans-serif" font-size="11" lengthAdjust="spacingAndGlyphs" textLength="86" x="536" y="131.0386">Country: String</text><line style="stroke: #A80036; stroke-width: 1.5;" x1="531" x2="719" y1="137.6328" y2="137.6328"/><!--class Person--><rect fill="#FEFECE" filter="url(#f1hv514kdpdst1)" height="86.4141" id="Person" style="stroke: #A80036; stroke-width: 1.5;" width="152" x="549" y="223"/><ellipse cx="598.75" cy="239" fill="#ADD1B2" rx="11" ry="11" style="stroke: #A80036; stroke-width: 1.0;"/><path d="M601.0938,234.6719 L601.2656,234.75 C601.4844,234.4375 601.6875,234.3438 601.9844,234.3438 C602.2813,234.3438 602.5625,234.4844 602.7188,234.75 C602.8125,234.9063 602.8281,235.0313 602.8281,235.4688 L602.8281,236.8906 C602.8281,237.3125 602.7969,237.5 602.6875,237.6563 C602.5156,237.875 602.25,238.0156 601.9844,238.0156 C601.7656,238.0156 601.5313,237.9063 601.3906,237.7656 C601.25,237.6406 601.2188,237.5156 601.1563,237.1094 C601.0625,236.7031 600.8906,236.4844 600.4063,236.2031 C599.9375,235.9531 599.3281,235.7969 598.75,235.7969 C597.0156,235.7969 595.7656,237.1094 595.7656,238.8906 L595.7656,239.9844 C595.7656,241.6875 597.0625,242.7813 599.1094,242.7813 C599.875,242.7813 600.5625,242.6563 600.9844,242.3906 C601.1719,242.2969 601.1719,242.2969 601.625,241.8125 C601.8125,241.625 602.0156,241.5469 602.2344,241.5469 C602.7031,241.5469 603.0938,241.9375 603.0938,242.3906 C603.0938,242.7813 602.7656,243.2344 602.1875,243.6406 C601.4375,244.1875 600.2813,244.4844 599.0625,244.4844 C596.1719,244.4844 594.0625,242.5938 594.0625,240.0156 L594.0625,238.8906 C594.0625,236.1719 596.0625,234.0938 598.6875,234.0938 C599.5625,234.0938 600.1563,234.2344 601.0938,234.6719 Z "/><text fill="#000000" font-family="sans-serif" font-size="12" lengthAdjust="spacingAndGlyphs" textLength="44" x="619.25" y="243.1543">Person</text><line style="stroke: #A80036; stroke-width: 1.5;" x1="550" x2="700" y1="255" y2="255"/><text fill="#000000" font-family="sans-serif" font-size="11" lengthAdjust="spacingAndGlyphs" textLength="140" x="555" y="269.2104">FirstName: Maybe String</text><text fill="#000000" font-family="sans-serif" font-size="11" lengthAdjust="spacingAndGlyphs" textLength="99" x="555" y="282.0151">LastName: String</text><text fill="#000000" font-family="sans-serif" font-size="11" lengthAdjust="spacingAndGlyphs" textLength="102" x="555" y="294.8198">Address: Address</text><line style="stroke: #A80036; stroke-width: 1.5;" x1="550" x2="700" y1="301.4141" y2="301.4141"/><!--class Gender--><rect fill="#FEFECE" filter="url(#f1hv514kdpdst1)" height="86.4141" id="Gender" style="stroke: #A80036; stroke-width: 1.5;" width="78" x="15" y="34"/><ellipse cx="30" cy="50" fill="#EB937F" rx="11" ry="11" style="stroke: #A80036; stroke-width: 1.0;"/><path d="M28.2969,50.875 L28.2969,53.2969 L32.6563,53.2969 L32.6563,52.4219 C32.6563,51.9375 32.6875,51.7969 32.7969,51.6406 C32.9688,51.3906 33.2344,51.2813 33.5,51.2813 C33.7813,51.2813 34.0625,51.4375 34.2344,51.6875 C34.3125,51.8438 34.3438,51.9844 34.3438,52.4219 L34.3438,55 L26.3438,55 C25.9531,55 25.7188,54.9531 25.5781,54.8281 C25.3594,54.6719 25.2188,54.4219 25.2188,54.1563 C25.2188,53.8594 25.375,53.5938 25.625,53.4219 C25.7813,53.3125 25.9375,53.2969 26.3438,53.2969 L26.5938,53.2969 L26.5938,46.7813 L26.3438,46.7813 C25.9219,46.7813 25.7344,46.75 25.5781,46.6406 C25.3594,46.4688 25.2188,46.2188 25.2188,45.9375 C25.2188,45.6563 25.375,45.3594 25.625,45.2031 C25.7813,45.1094 25.9063,45.0938 26.3438,45.0938 L33.9688,45.0938 L33.9688,47.6406 C33.9688,48.1094 33.9375,48.25 33.8281,48.4219 C33.6563,48.6406 33.3906,48.7813 33.125,48.7813 C32.8438,48.7813 32.5625,48.625 32.3906,48.375 C32.3125,48.2188 32.2813,48.0469 32.2813,47.6406 L32.2813,46.7813 L28.2969,46.7813 L28.2969,49.1875 L29.75,49.1875 L29.75,49.0625 C29.75,48.6094 29.7813,48.4531 29.8906,48.2813 C30.0625,48.0625 30.3281,47.9219 30.5781,47.9219 C31.0313,47.9219 31.3438,48.2344 31.4063,48.7031 C31.4219,48.8594 31.4219,48.9063 31.4219,49.0625 L31.4219,50.9844 C31.4219,51.4375 31.3906,51.5938 31.2656,51.75 C31.1094,51.9688 30.8438,52.1094 30.5938,52.1094 C30.2969,52.1094 30.0156,51.9531 29.8594,51.7031 C29.7813,51.5469 29.75,51.3906 29.75,50.9844 L29.75,50.875 Z "/><text fill="#000000" font-family="sans-serif" font-size="12" lengthAdjust="spacingAndGlyphs" textLength="46" x="44" y="54.1543">Gender</text><line style="stroke: #A80036; stroke-width: 1.5;" x1="16" x2="92" y1="66" y2="66"/><text fill="#000000" font-family="sans-serif" font-size="11" lengthAdjust="spacingAndGlyphs" textLength="26" x="21" y="80.2104">Male</text><text fill="#000000" font-family="sans-serif" font-size="11" lengthAdjust="spacingAndGlyphs" textLength="41" x="21" y="93.0151">Female</text><text fill="#000000" font-family="sans-serif" font-size="11" lengthAdjust="spacingAndGlyphs" textLength="32" x="21" y="105.8198">Other</text><line style="stroke: #A80036; stroke-width: 1.5;" x1="16" x2="92" y1="112.4141" y2="112.4141"/><!--class Company--><rect fill="#FEFECE" filter="url(#f1hv514kdpdst1)" height="60.8047" id="Company" style="stroke: #A80036; stroke-width: 1.5;" width="160" x="128" y="46.5"/><ellipse cx="175.25" cy="62.5" fill="#ADD1B2" rx="11" ry="11" style="stroke: #A80036; stroke-width: 1.0;"/><path d="M177.5938,58.1719 L177.7656,58.25 C177.9844,57.9375 178.1875,57.8438 178.4844,57.8438 C178.7813,57.8438 179.0625,57.9844 179.2188,58.25 C179.3125,58.4063 179.3281,58.5313 179.3281,58.9688 L179.3281,60.3906 C179.3281,60.8125 179.2969,61 179.1875,61.1563 C179.0156,61.375 178.75,61.5156 178.4844,61.5156 C178.2656,61.5156 178.0313,61.4063 177.8906,61.2656 C177.75,61.1406 177.7188,61.0156 177.6563,60.6094 C177.5625,60.2031 177.3906,59.9844 176.9063,59.7031 C176.4375,59.4531 175.8281,59.2969 175.25,59.2969 C173.5156,59.2969 172.2656,60.6094 172.2656,62.3906 L172.2656,63.4844 C172.2656,65.1875 173.5625,66.2813 175.6094,66.2813 C176.375,66.2813 177.0625,66.1563 177.4844,65.8906 C177.6719,65.7969 177.6719,65.7969 178.125,65.3125 C178.3125,65.125 178.5156,65.0469 178.7344,65.0469 C179.2031,65.0469 179.5938,65.4375 179.5938,65.8906 C179.5938,66.2813 179.2656,66.7344 178.6875,67.1406 C177.9375,67.6875 176.7813,67.9844 175.5625,67.9844 C172.6719,67.9844 170.5625,66.0938 170.5625,63.5156 L170.5625,62.3906 C170.5625,59.6719 172.5625,57.5938 175.1875,57.5938 C176.0625,57.5938 176.6563,57.7344 177.5938,58.1719 Z "/><text fill="#000000" font-family="sans-serif" font-size="12" lengthAdjust="spacingAndGlyphs" textLength="57" x="195.75" y="66.6543">Company</text><line style="stroke: #A80036; stroke-width: 1.5;" x1="129" x2="287" y1="78.5" y2="78.5"/><text fill="#000000" font-family="sans-serif" font-size="11" lengthAdjust="spacingAndGlyphs" textLength="148" x="134" y="92.7104">OrganisationName: String</text><line style="stroke: #A80036; stroke-width: 1.5;" x1="129" x2="287" y1="99.3047" y2="99.3047"/><!--class Customer--><rect fill="#FEFECE" filter="url(#f1hv514kdpdst1)" height="60.8047" id="Customer" style="stroke: #A80036; stroke-width: 1.5;" width="96" x="6" y="235.5"/><ellipse cx="22.8" cy="251.5" fill="#ADD1B2" rx="11" ry="11" style="stroke: #A80036; stroke-width: 1.0;"/><path d="M25.1438,247.1719 L25.3156,247.25 C25.5344,246.9375 25.7375,246.8438 26.0344,246.8438 C26.3313,246.8438 26.6125,246.9844 26.7688,247.25 C26.8625,247.4063 26.8781,247.5313 26.8781,247.9688 L26.8781,249.3906 C26.8781,249.8125 26.8469,250 26.7375,250.1563 C26.5656,250.375 26.3,250.5156 26.0344,250.5156 C25.8156,250.5156 25.5813,250.4063 25.4406,250.2656 C25.3,250.1406 25.2688,250.0156 25.2063,249.6094 C25.1125,249.2031 24.9406,248.9844 24.4563,248.7031 C23.9875,248.4531 23.3781,248.2969 22.8,248.2969 C21.0656,248.2969 19.8156,249.6094 19.8156,251.3906 L19.8156,252.4844 C19.8156,254.1875 21.1125,255.2813 23.1594,255.2813 C23.925,255.2813 24.6125,255.1563 25.0344,254.8906 C25.2219,254.7969 25.2219,254.7969 25.675,254.3125 C25.8625,254.125 26.0656,254.0469 26.2844,254.0469 C26.7531,254.0469 27.1438,254.4375 27.1438,254.8906 C27.1438,255.2813 26.8156,255.7344 26.2375,256.1406 C25.4875,256.6875 24.3313,256.9844 23.1125,256.9844 C20.2219,256.9844 18.1125,255.0938 18.1125,252.5156 L18.1125,251.3906 C18.1125,248.6719 20.1125,246.5938 22.7375,246.5938 C23.6125,246.5938 24.2063,246.7344 25.1438,247.1719 Z "/><text fill="#000000" font-family="sans-serif" font-size="12" lengthAdjust="spacingAndGlyphs" textLength="60" x="37.2" y="255.6543">Customer</text><line style="stroke: #A80036; stroke-width: 1.5;" x1="7" x2="101" y1="267.5" y2="267.5"/><text fill="#000000" font-family="sans-serif" font-size="11" lengthAdjust="spacingAndGlyphs" textLength="84" x="12" y="281.7104">CustomerId: Id</text><line style="stroke: #A80036; stroke-width: 1.5;" x1="7" x2="101" y1="288.3047" y2="288.3047"/><!--link Just to Maybe--><path d="M357.481,101.306 C366.001,131.946 381.112,186.286 391.573,223.9067 " fill="none" id="Just-Maybe" style="stroke: #A80036; stroke-width: 1.0;"/><polygon fill="#A80036" points="392.953,228.8692,394.3952,219.1265,391.6133,224.052,386.6878,221.2701,392.953,228.8692" style="stroke: #A80036; stroke-width: 1.0;"/><text fill="#000000" font-family="sans-serif" font-size="13" lengthAdjust="spacingAndGlyphs" textLength="23" x="383" y="189.0669">Just</text><!--link Nothing to Maybe--><path d="M447.644,101.306 C439.288,131.946 424.467,186.286 414.207,223.9067 " fill="none" id="Nothing-Maybe" style="stroke: #A80036; stroke-width: 1.0;"/><polygon fill="#A80036" points="412.854,228.8692,419.0811,221.2388,414.1696,224.0454,411.363,219.1339,412.854,228.8692" style="stroke: #A80036; stroke-width: 1.0;"/><text fill="#000000" font-family="sans-serif" font-size="13" lengthAdjust="spacingAndGlyphs" textLength="50" x="428" y="189.0669">Nothing</text><!--link Address to Person--><path d="M625,146.04 C625,169.823 625,195.985 625,217.7043 " fill="none" id="Address-Person" style="stroke: #A80036; stroke-width: 1.0;"/><polygon fill="#A80036" points="625,222.8387,629,213.8387,625,217.8387,621,213.8387,625,222.8387" style="stroke: #A80036; stroke-width: 1.0;"/><text fill="#000000" font-family="sans-serif" font-size="13" lengthAdjust="spacingAndGlyphs" textLength="52" x="626" y="189.0669">Address</text><!--link Gender to Company--><!--link Gender to Customer--><!--
@startuml
abstract Maybe {
	Just
	Nothing
}
Just - -> Maybe : Just
Nothing - -> Maybe : Nothing
class Address {
	Street: String 
	PostalCode: String 
	HouseNumber: Number 
	HouseNumberExtension: String 
	City: String 
	CountryCode: String 
	Country: String 
}
class Person {
	FirstName: Maybe String
	LastName: String 
	Address: Address 
}
Address - -> Person : Address
enum Gender {
	Male
	Female
	Other
}
class Company {
	OrganisationName: String 
}
class Customer {
	CustomerId: Id 
}
@enduml

PlantUML version 1.2019.03(Sun Mar 10 11:04:44 UTC 2019)
(GPL source distribution)
Java Runtime: Java(TM) SE Runtime Environment
JVM: Java HotSpot(TM) 64-Bit Server VM
Java Version: 1.7.0_25-b15
Operating System: Linux
Default Encoding: UTF-8
Language: en
Country: US
--></g></svg>