<?xml version="1.0" encoding="UTF-8" standalone="no"?><svg xmlns="http://www.w3.org/2000/svg" xmlns:xlink="http://www.w3.org/1999/xlink" contentScriptType="application/ecmascript" contentStyleType="text/css" height="396px" preserveAspectRatio="none" style="width:561px;height:396px;" version="1.1" viewBox="0 0 561 396" width="561px" zoomAndPan="magnify"><defs><filter height="300%" id="f1jpiee5nb8y54" width="300%" x="-1" y="-1"><feGaussianBlur result="blurOut" stdDeviation="2.0"/><feColorMatrix in="blurOut" result="blurOut2" type="matrix" values="0 0 0 0 0 0 0 0 0 0 0 0 0 0 0 0 0 0 .4 0"/><feOffset dx="4.0" dy="4.0" in="blurOut2" result="blurOut3"/><feBlend in="SourceGraphic" in2="blurOut3" mode="normal"/></filter></defs><g><!--class Address--><rect fill="#FEFECE" filter="url(#f1jpiee5nb8y54)" height="214.4609" id="Address" style="stroke: #A80036; stroke-width: 1.5;" width="227" x="323.5" y="8"/><ellipse cx="407.25" cy="24" fill="#ADD1B2" rx="11" ry="11" style="stroke: #A80036; stroke-width: 1.0;"/><path d="M409.5938,19.6719 L409.7656,19.75 C409.9844,19.4375 410.1875,19.3438 410.4844,19.3438 C410.7813,19.3438 411.0625,19.4844 411.2188,19.75 C411.3125,19.9063 411.3281,20.0313 411.3281,20.4688 L411.3281,21.8906 C411.3281,22.3125 411.2969,22.5 411.1875,22.6563 C411.0156,22.875 410.75,23.0156 410.4844,23.0156 C410.2656,23.0156 410.0313,22.9063 409.8906,22.7656 C409.75,22.6406 409.7188,22.5156 409.6563,22.1094 C409.5625,21.7031 409.3906,21.4844 408.9063,21.2031 C408.4375,20.9531 407.8281,20.7969 407.25,20.7969 C405.5156,20.7969 404.2656,22.1094 404.2656,23.8906 L404.2656,24.9844 C404.2656,26.6875 405.5625,27.7813 407.6094,27.7813 C408.375,27.7813 409.0625,27.6563 409.4844,27.3906 C409.6719,27.2969 409.6719,27.2969 410.125,26.8125 C410.3125,26.625 410.5156,26.5469 410.7344,26.5469 C411.2031,26.5469 411.5938,26.9375 411.5938,27.3906 C411.5938,27.7813 411.2656,28.2344 410.6875,28.6406 C409.9375,29.1875 408.7813,29.4844 407.5625,29.4844 C404.6719,29.4844 402.5625,27.5938 402.5625,25.0156 L402.5625,23.8906 C402.5625,21.1719 404.5625,19.0938 407.1875,19.0938 C408.0625,19.0938 408.6563,19.2344 409.5938,19.6719 Z "/><text fill="#000000" font-family="sans-serif" font-size="12" lengthAdjust="spacingAndGlyphs" textLength="51" x="427.75" y="28.1543">Address</text><line style="stroke: #A80036; stroke-width: 1.5;" x1="324.5" x2="549.5" y1="40" y2="40"/><text fill="#000000" font-family="sans-serif" font-size="11" lengthAdjust="spacingAndGlyphs" textLength="77" x="329.5" y="54.2104">Street: String</text><text fill="#000000" font-family="sans-serif" font-size="11" lengthAdjust="spacingAndGlyphs" textLength="106" x="329.5" y="67.0151">PostalCode: String</text><text fill="#000000" font-family="sans-serif" font-size="11" lengthAdjust="spacingAndGlyphs" textLength="134" x="329.5" y="79.8198">HouseNumber: Number</text><text fill="#000000" font-family="sans-serif" font-size="11" lengthAdjust="spacingAndGlyphs" textLength="178" x="329.5" y="92.6245">HouseNumberExtension: String</text><text fill="#000000" font-family="sans-serif" font-size="11" lengthAdjust="spacingAndGlyphs" textLength="63" x="329.5" y="105.4292">City: String</text><text fill="#000000" font-family="sans-serif" font-size="11" lengthAdjust="spacingAndGlyphs" textLength="115" x="329.5" y="118.2339">CountryCode: String</text><text fill="#000000" font-family="sans-serif" font-size="11" lengthAdjust="spacingAndGlyphs" textLength="86" x="329.5" y="131.0386">Country: String</text><line style="stroke: #A80036; stroke-width: 1.0;" x1="324.5" x2="549.5" y1="137.6328" y2="137.6328"/><text fill="#000000" font-family="sans-serif" font-size="11" font-weight="bold" lengthAdjust="spacingAndGlyphs" textLength="72" x="329.5" y="151.8433">description</text><text fill="#000000" font-family="sans-serif" font-size="11" lengthAdjust="spacingAndGlyphs" textLength="106" x="401.5" y="151.8433">: The address of a</text><text fill="#000000" font-family="sans-serif" font-size="11" lengthAdjust="spacingAndGlyphs" textLength="167" x="329.5" y="164.6479">person. This is the functional</text><text fill="#000000" font-family="sans-serif" font-size="11" lengthAdjust="spacingAndGlyphs" textLength="215" x="329.5" y="177.4526">location of where a person lives. This</text><text fill="#000000" font-family="sans-serif" font-size="11" lengthAdjust="spacingAndGlyphs" textLength="194" x="329.5" y="190.2573">type is of course designed for the</text><text fill="#000000" font-family="sans-serif" font-size="11" lengthAdjust="spacingAndGlyphs" textLength="133" x="329.5" y="203.062">Dutch address system.</text><text fill="#000000" font-family="sans-serif" font-size="11" lengthAdjust="spacingAndGlyphs" textLength="0" x="333.5" y="215.8667"/><!--class Person--><rect fill="#FEFECE" filter="url(#f1jpiee5nb8y54)" height="86.4141" id="Person" style="stroke: #A80036; stroke-width: 1.5;" width="152" x="361" y="299"/><ellipse cx="410.75" cy="315" fill="#ADD1B2" rx="11" ry="11" style="stroke: #A80036; stroke-width: 1.0;"/><path d="M413.0938,310.6719 L413.2656,310.75 C413.4844,310.4375 413.6875,310.3438 413.9844,310.3438 C414.2813,310.3438 414.5625,310.4844 414.7188,310.75 C414.8125,310.9063 414.8281,311.0313 414.8281,311.4688 L414.8281,312.8906 C414.8281,313.3125 414.7969,313.5 414.6875,313.6563 C414.5156,313.875 414.25,314.0156 413.9844,314.0156 C413.7656,314.0156 413.5313,313.9063 413.3906,313.7656 C413.25,313.6406 413.2188,313.5156 413.1563,313.1094 C413.0625,312.7031 412.8906,312.4844 412.4063,312.2031 C411.9375,311.9531 411.3281,311.7969 410.75,311.7969 C409.0156,311.7969 407.7656,313.1094 407.7656,314.8906 L407.7656,315.9844 C407.7656,317.6875 409.0625,318.7813 411.1094,318.7813 C411.875,318.7813 412.5625,318.6563 412.9844,318.3906 C413.1719,318.2969 413.1719,318.2969 413.625,317.8125 C413.8125,317.625 414.0156,317.5469 414.2344,317.5469 C414.7031,317.5469 415.0938,317.9375 415.0938,318.3906 C415.0938,318.7813 414.7656,319.2344 414.1875,319.6406 C413.4375,320.1875 412.2813,320.4844 411.0625,320.4844 C408.1719,320.4844 406.0625,318.5938 406.0625,316.0156 L406.0625,314.8906 C406.0625,312.1719 408.0625,310.0938 410.6875,310.0938 C411.5625,310.0938 412.1563,310.2344 413.0938,310.6719 Z "/><text fill="#000000" font-family="sans-serif" font-size="12" lengthAdjust="spacingAndGlyphs" textLength="44" x="431.25" y="319.1543">Person</text><line style="stroke: #A80036; stroke-width: 1.5;" x1="362" x2="512" y1="331" y2="331"/><text fill="#000000" font-family="sans-serif" font-size="11" lengthAdjust="spacingAndGlyphs" textLength="140" x="367" y="345.2104">FirstName: Maybe String</text><text fill="#000000" font-family="sans-serif" font-size="11" lengthAdjust="spacingAndGlyphs" textLength="99" x="367" y="358.0151">LastName: String</text><text fill="#000000" font-family="sans-serif" font-size="11" lengthAdjust="spacingAndGlyphs" textLength="102" x="367" y="370.8198">Address: Address</text><line style="stroke: #A80036; stroke-width: 1.5;" x1="362" x2="512" y1="377.4141" y2="377.4141"/><!--class Gender--><rect fill="#FEFECE" filter="url(#f1jpiee5nb8y54)" height="86.4141" id="Gender" style="stroke: #A80036; stroke-width: 1.5;" width="78" x="15" y="72"/><ellipse cx="30" cy="88" fill="#EB937F" rx="11" ry="11" style="stroke: #A80036; stroke-width: 1.0;"/><path d="M28.2969,88.875 L28.2969,91.2969 L32.6563,91.2969 L32.6563,90.4219 C32.6563,89.9375 32.6875,89.7969 32.7969,89.6406 C32.9688,89.3906 33.2344,89.2813 33.5,89.2813 C33.7813,89.2813 34.0625,89.4375 34.2344,89.6875 C34.3125,89.8438 34.3438,89.9844 34.3438,90.4219 L34.3438,93 L26.3438,93 C25.9531,93 25.7188,92.9531 25.5781,92.8281 C25.3594,92.6719 25.2188,92.4219 25.2188,92.1563 C25.2188,91.8594 25.375,91.5938 25.625,91.4219 C25.7813,91.3125 25.9375,91.2969 26.3438,91.2969 L26.5938,91.2969 L26.5938,84.7813 L26.3438,84.7813 C25.9219,84.7813 25.7344,84.75 25.5781,84.6406 C25.3594,84.4688 25.2188,84.2188 25.2188,83.9375 C25.2188,83.6563 25.375,83.3594 25.625,83.2031 C25.7813,83.1094 25.9063,83.0938 26.3438,83.0938 L33.9688,83.0938 L33.9688,85.6406 C33.9688,86.1094 33.9375,86.25 33.8281,86.4219 C33.6563,86.6406 33.3906,86.7813 33.125,86.7813 C32.8438,86.7813 32.5625,86.625 32.3906,86.375 C32.3125,86.2188 32.2813,86.0469 32.2813,85.6406 L32.2813,84.7813 L28.2969,84.7813 L28.2969,87.1875 L29.75,87.1875 L29.75,87.0625 C29.75,86.6094 29.7813,86.4531 29.8906,86.2813 C30.0625,86.0625 30.3281,85.9219 30.5781,85.9219 C31.0313,85.9219 31.3438,86.2344 31.4063,86.7031 C31.4219,86.8594 31.4219,86.9063 31.4219,87.0625 L31.4219,88.9844 C31.4219,89.4375 31.3906,89.5938 31.2656,89.75 C31.1094,89.9688 30.8438,90.1094 30.5938,90.1094 C30.2969,90.1094 30.0156,89.9531 29.8594,89.7031 C29.7813,89.5469 29.75,89.3906 29.75,88.9844 L29.75,88.875 Z "/><text fill="#000000" font-family="sans-serif" font-size="12" lengthAdjust="spacingAndGlyphs" textLength="46" x="44" y="92.1543">Gender</text><line style="stroke: #A80036; stroke-width: 1.5;" x1="16" x2="92" y1="104" y2="104"/><text fill="#000000" font-family="sans-serif" font-size="11" lengthAdjust="spacingAndGlyphs" textLength="26" x="21" y="118.2104">Male</text><text fill="#000000" font-family="sans-serif" font-size="11" lengthAdjust="spacingAndGlyphs" textLength="41" x="21" y="131.0151">Female</text><text fill="#000000" font-family="sans-serif" font-size="11" lengthAdjust="spacingAndGlyphs" textLength="32" x="21" y="143.8198">Other</text><line style="stroke: #A80036; stroke-width: 1.5;" x1="16" x2="92" y1="150.4141" y2="150.4141"/><!--class Company--><rect fill="#FEFECE" filter="url(#f1jpiee5nb8y54)" height="60.8047" id="Company" style="stroke: #A80036; stroke-width: 1.5;" width="160" x="128" y="84.5"/><ellipse cx="175.25" cy="100.5" fill="#ADD1B2" rx="11" ry="11" style="stroke: #A80036; stroke-width: 1.0;"/><path d="M177.5938,96.1719 L177.7656,96.25 C177.9844,95.9375 178.1875,95.8438 178.4844,95.8438 C178.7813,95.8438 179.0625,95.9844 179.2188,96.25 C179.3125,96.4063 179.3281,96.5313 179.3281,96.9688 L179.3281,98.3906 C179.3281,98.8125 179.2969,99 179.1875,99.1563 C179.0156,99.375 178.75,99.5156 178.4844,99.5156 C178.2656,99.5156 178.0313,99.4063 177.8906,99.2656 C177.75,99.1406 177.7188,99.0156 177.6563,98.6094 C177.5625,98.2031 177.3906,97.9844 176.9063,97.7031 C176.4375,97.4531 175.8281,97.2969 175.25,97.2969 C173.5156,97.2969 172.2656,98.6094 172.2656,100.3906 L172.2656,101.4844 C172.2656,103.1875 173.5625,104.2813 175.6094,104.2813 C176.375,104.2813 177.0625,104.1563 177.4844,103.8906 C177.6719,103.7969 177.6719,103.7969 178.125,103.3125 C178.3125,103.125 178.5156,103.0469 178.7344,103.0469 C179.2031,103.0469 179.5938,103.4375 179.5938,103.8906 C179.5938,104.2813 179.2656,104.7344 178.6875,105.1406 C177.9375,105.6875 176.7813,105.9844 175.5625,105.9844 C172.6719,105.9844 170.5625,104.0938 170.5625,101.5156 L170.5625,100.3906 C170.5625,97.6719 172.5625,95.5938 175.1875,95.5938 C176.0625,95.5938 176.6563,95.7344 177.5938,96.1719 Z "/><text fill="#000000" font-family="sans-serif" font-size="12" lengthAdjust="spacingAndGlyphs" textLength="57" x="195.75" y="104.6543">Company</text><line style="stroke: #A80036; stroke-width: 1.5;" x1="129" x2="287" y1="116.5" y2="116.5"/><text fill="#000000" font-family="sans-serif" font-size="11" lengthAdjust="spacingAndGlyphs" textLength="148" x="134" y="130.7104">OrganisationName: String</text><line style="stroke: #A80036; stroke-width: 1.5;" x1="129" x2="287" y1="137.3047" y2="137.3047"/><!--class Customer--><rect fill="#FEFECE" filter="url(#f1jpiee5nb8y54)" height="60.8047" id="Customer" style="stroke: #A80036; stroke-width: 1.5;" width="96" x="6" y="311.5"/><ellipse cx="22.8" cy="327.5" fill="#ADD1B2" rx="11" ry="11" style="stroke: #A80036; stroke-width: 1.0;"/><path d="M25.1438,323.1719 L25.3156,323.25 C25.5344,322.9375 25.7375,322.8438 26.0344,322.8438 C26.3313,322.8438 26.6125,322.9844 26.7688,323.25 C26.8625,323.4063 26.8781,323.5313 26.8781,323.9688 L26.8781,325.3906 C26.8781,325.8125 26.8469,326 26.7375,326.1563 C26.5656,326.375 26.3,326.5156 26.0344,326.5156 C25.8156,326.5156 25.5813,326.4063 25.4406,326.2656 C25.3,326.1406 25.2688,326.0156 25.2063,325.6094 C25.1125,325.2031 24.9406,324.9844 24.4563,324.7031 C23.9875,324.4531 23.3781,324.2969 22.8,324.2969 C21.0656,324.2969 19.8156,325.6094 19.8156,327.3906 L19.8156,328.4844 C19.8156,330.1875 21.1125,331.2813 23.1594,331.2813 C23.925,331.2813 24.6125,331.1563 25.0344,330.8906 C25.2219,330.7969 25.2219,330.7969 25.675,330.3125 C25.8625,330.125 26.0656,330.0469 26.2844,330.0469 C26.7531,330.0469 27.1438,330.4375 27.1438,330.8906 C27.1438,331.2813 26.8156,331.7344 26.2375,332.1406 C25.4875,332.6875 24.3313,332.9844 23.1125,332.9844 C20.2219,332.9844 18.1125,331.0938 18.1125,328.5156 L18.1125,327.3906 C18.1125,324.6719 20.1125,322.5938 22.7375,322.5938 C23.6125,322.5938 24.2063,322.7344 25.1438,323.1719 Z "/><text fill="#000000" font-family="sans-serif" font-size="12" lengthAdjust="spacingAndGlyphs" textLength="60" x="37.2" y="331.6543">Customer</text><line style="stroke: #A80036; stroke-width: 1.5;" x1="7" x2="101" y1="343.5" y2="343.5"/><text fill="#000000" font-family="sans-serif" font-size="11" lengthAdjust="spacingAndGlyphs" textLength="84" x="12" y="357.7104">CustomerId: Id</text><line style="stroke: #A80036; stroke-width: 1.5;" x1="7" x2="101" y1="364.3047" y2="364.3047"/><!--link Address to Person--><path d="M437,222.241 C437,247.31 437,272.796 437,293.6967 " fill="none" id="Address-Person" style="stroke: #A80036; stroke-width: 1.0;"/><polygon fill="#A80036" points="437,298.9087,441,289.9087,437,293.9087,433,289.9087,437,298.9087" style="stroke: #A80036; stroke-width: 1.0;"/><text fill="#000000" font-family="sans-serif" font-size="13" lengthAdjust="spacingAndGlyphs" textLength="52" x="438" y="265.0669">Address</text><!--link Gender to Company--><!--link Gender to Customer--><!--
@startuml
class "Address" as Address  {
	Street: String 
	PostalCode: String 
	HouseNumber: Number 
	HouseNumberExtension: String 
	City: String 
	CountryCode: String 
	Country: String 
- -
  <b>description</b>: The address of a
 person. This is the functional
 location of where a person lives. This
 type is of course designed for the
 Dutch address system.
    
}
class "Person" as Person  {
	FirstName: Maybe String
	LastName: String 
	Address: Address 
}
Address - -> Person : Address
enum Gender {
	Male
	Female
	Other
}
class "Company" as Company  {
	OrganisationName: String 
}
class "Customer" as Customer  {
	CustomerId: Id 
}
@enduml

PlantUML version 1.2019.03(Sun Mar 10 11:04:44 UTC 2019)
(GPL source distribution)
Java Runtime: Java(TM) SE Runtime Environment
JVM: Java HotSpot(TM) 64-Bit Server VM
Java Version: 1.7.0_25-b15
Operating System: Linux
Default Encoding: UTF-8
Language: en
Country: US
--></g></svg>