<?xml version="1.0" encoding="UTF-8" standalone="no"?><svg xmlns="http://www.w3.org/2000/svg" xmlns:xlink="http://www.w3.org/1999/xlink" contentScriptType="application/ecmascript" contentStyleType="text/css" height="320px" preserveAspectRatio="none" style="width:524px;height:320px;" version="1.1" viewBox="0 0 524 320" width="524px" zoomAndPan="magnify"><defs><filter height="300%" id="f1fb6h0v8pcnu0" width="300%" x="-1" y="-1"><feGaussianBlur result="blurOut" stdDeviation="2.0"/><feColorMatrix in="blurOut" result="blurOut2" type="matrix" values="0 0 0 0 0 0 0 0 0 0 0 0 0 0 0 0 0 0 .4 0"/><feOffset dx="4.0" dy="4.0" in="blurOut2" result="blurOut3"/><feBlend in="SourceGraphic" in2="blurOut3" mode="normal"/></filter></defs><g><!--class Address--><rect fill="#FEFECE" filter="url(#f1fb6h0v8pcnu0)" height="137.6328" id="Address" style="stroke: #A80036; stroke-width: 1.5;" width="190" x="323" y="8"/><ellipse cx="388.25" cy="24" fill="#ADD1B2" rx="11" ry="11" style="stroke: #A80036; stroke-width: 1.0;"/><path d="M390.5938,19.6719 L390.7656,19.75 C390.9844,19.4375 391.1875,19.3438 391.4844,19.3438 C391.7813,19.3438 392.0625,19.4844 392.2188,19.75 C392.3125,19.9063 392.3281,20.0313 392.3281,20.4688 L392.3281,21.8906 C392.3281,22.3125 392.2969,22.5 392.1875,22.6563 C392.0156,22.875 391.75,23.0156 391.4844,23.0156 C391.2656,23.0156 391.0313,22.9063 390.8906,22.7656 C390.75,22.6406 390.7188,22.5156 390.6563,22.1094 C390.5625,21.7031 390.3906,21.4844 389.9063,21.2031 C389.4375,20.9531 388.8281,20.7969 388.25,20.7969 C386.5156,20.7969 385.2656,22.1094 385.2656,23.8906 L385.2656,24.9844 C385.2656,26.6875 386.5625,27.7813 388.6094,27.7813 C389.375,27.7813 390.0625,27.6563 390.4844,27.3906 C390.6719,27.2969 390.6719,27.2969 391.125,26.8125 C391.3125,26.625 391.5156,26.5469 391.7344,26.5469 C392.2031,26.5469 392.5938,26.9375 392.5938,27.3906 C392.5938,27.7813 392.2656,28.2344 391.6875,28.6406 C390.9375,29.1875 389.7813,29.4844 388.5625,29.4844 C385.6719,29.4844 383.5625,27.5938 383.5625,25.0156 L383.5625,23.8906 C383.5625,21.1719 385.5625,19.0938 388.1875,19.0938 C389.0625,19.0938 389.6563,19.2344 390.5938,19.6719 Z "/><text fill="#000000" font-family="sans-serif" font-size="12" lengthAdjust="spacingAndGlyphs" textLength="51" x="408.75" y="28.1543">Address</text><line style="stroke: #A80036; stroke-width: 1.5;" x1="324" x2="512" y1="40" y2="40"/><text fill="#000000" font-family="sans-serif" font-size="11" lengthAdjust="spacingAndGlyphs" textLength="77" x="329" y="54.2104">Street: String</text><text fill="#000000" font-family="sans-serif" font-size="11" lengthAdjust="spacingAndGlyphs" textLength="106" x="329" y="67.0151">PostalCode: String</text><text fill="#000000" font-family="sans-serif" font-size="11" lengthAdjust="spacingAndGlyphs" textLength="134" x="329" y="79.8198">HouseNumber: Number</text><text fill="#000000" font-family="sans-serif" font-size="11" lengthAdjust="spacingAndGlyphs" textLength="178" x="329" y="92.6245">HouseNumberExtension: String</text><text fill="#000000" font-family="sans-serif" font-size="11" lengthAdjust="spacingAndGlyphs" textLength="63" x="329" y="105.4292">City: String</text><text fill="#000000" font-family="sans-serif" font-size="11" lengthAdjust="spacingAndGlyphs" textLength="115" x="329" y="118.2339">CountryCode: String</text><text fill="#000000" font-family="sans-serif" font-size="11" lengthAdjust="spacingAndGlyphs" textLength="86" x="329" y="131.0386">Country: String</text><line style="stroke: #A80036; stroke-width: 1.5;" x1="324" x2="512" y1="137.6328" y2="137.6328"/><!--class Person--><rect fill="#FEFECE" filter="url(#f1fb6h0v8pcnu0)" height="86.4141" id="Person" style="stroke: #A80036; stroke-width: 1.5;" width="152" x="342" y="223"/><ellipse cx="391.75" cy="239" fill="#ADD1B2" rx="11" ry="11" style="stroke: #A80036; stroke-width: 1.0;"/><path d="M394.0938,234.6719 L394.2656,234.75 C394.4844,234.4375 394.6875,234.3438 394.9844,234.3438 C395.2813,234.3438 395.5625,234.4844 395.7188,234.75 C395.8125,234.9063 395.8281,235.0313 395.8281,235.4688 L395.8281,236.8906 C395.8281,237.3125 395.7969,237.5 395.6875,237.6563 C395.5156,237.875 395.25,238.0156 394.9844,238.0156 C394.7656,238.0156 394.5313,237.9063 394.3906,237.7656 C394.25,237.6406 394.2188,237.5156 394.1563,237.1094 C394.0625,236.7031 393.8906,236.4844 393.4063,236.2031 C392.9375,235.9531 392.3281,235.7969 391.75,235.7969 C390.0156,235.7969 388.7656,237.1094 388.7656,238.8906 L388.7656,239.9844 C388.7656,241.6875 390.0625,242.7813 392.1094,242.7813 C392.875,242.7813 393.5625,242.6563 393.9844,242.3906 C394.1719,242.2969 394.1719,242.2969 394.625,241.8125 C394.8125,241.625 395.0156,241.5469 395.2344,241.5469 C395.7031,241.5469 396.0938,241.9375 396.0938,242.3906 C396.0938,242.7813 395.7656,243.2344 395.1875,243.6406 C394.4375,244.1875 393.2813,244.4844 392.0625,244.4844 C389.1719,244.4844 387.0625,242.5938 387.0625,240.0156 L387.0625,238.8906 C387.0625,236.1719 389.0625,234.0938 391.6875,234.0938 C392.5625,234.0938 393.1563,234.2344 394.0938,234.6719 Z "/><text fill="#000000" font-family="sans-serif" font-size="12" lengthAdjust="spacingAndGlyphs" textLength="44" x="412.25" y="243.1543">Person</text><line style="stroke: #A80036; stroke-width: 1.5;" x1="343" x2="493" y1="255" y2="255"/><text fill="#000000" font-family="sans-serif" font-size="11" lengthAdjust="spacingAndGlyphs" textLength="140" x="348" y="269.2104">FirstName: Maybe String</text><text fill="#000000" font-family="sans-serif" font-size="11" lengthAdjust="spacingAndGlyphs" textLength="99" x="348" y="282.0151">LastName: String</text><text fill="#000000" font-family="sans-serif" font-size="11" lengthAdjust="spacingAndGlyphs" textLength="102" x="348" y="294.8198">Address: Address</text><line style="stroke: #A80036; stroke-width: 1.5;" x1="343" x2="493" y1="301.4141" y2="301.4141"/><!--class Gender--><rect fill="#FEFECE" filter="url(#f1fb6h0v8pcnu0)" height="86.4141" id="Gender" style="stroke: #A80036; stroke-width: 1.5;" width="78" x="15" y="34"/><ellipse cx="30" cy="50" fill="#EB937F" rx="11" ry="11" style="stroke: #A80036; stroke-width: 1.0;"/><path d="M28.2969,50.875 L28.2969,53.2969 L32.6563,53.2969 L32.6563,52.4219 C32.6563,51.9375 32.6875,51.7969 32.7969,51.6406 C32.9688,51.3906 33.2344,51.2813 33.5,51.2813 C33.7813,51.2813 34.0625,51.4375 34.2344,51.6875 C34.3125,51.8438 34.3438,51.9844 34.3438,52.4219 L34.3438,55 L26.3438,55 C25.9531,55 25.7188,54.9531 25.5781,54.8281 C25.3594,54.6719 25.2188,54.4219 25.2188,54.1563 C25.2188,53.8594 25.375,53.5938 25.625,53.4219 C25.7813,53.3125 25.9375,53.2969 26.3438,53.2969 L26.5938,53.2969 L26.5938,46.7813 L26.3438,46.7813 C25.9219,46.7813 25.7344,46.75 25.5781,46.6406 C25.3594,46.4688 25.2188,46.2188 25.2188,45.9375 C25.2188,45.6563 25.375,45.3594 25.625,45.2031 C25.7813,45.1094 25.9063,45.0938 26.3438,45.0938 L33.9688,45.0938 L33.9688,47.6406 C33.9688,48.1094 33.9375,48.25 33.8281,48.4219 C33.6563,48.6406 33.3906,48.7813 33.125,48.7813 C32.8438,48.7813 32.5625,48.625 32.3906,48.375 C32.3125,48.2188 32.2813,48.0469 32.2813,47.6406 L32.2813,46.7813 L28.2969,46.7813 L28.2969,49.1875 L29.75,49.1875 L29.75,49.0625 C29.75,48.6094 29.7813,48.4531 29.8906,48.2813 C30.0625,48.0625 30.3281,47.9219 30.5781,47.9219 C31.0313,47.9219 31.3438,48.2344 31.4063,48.7031 C31.4219,48.8594 31.4219,48.9063 31.4219,49.0625 L31.4219,50.9844 C31.4219,51.4375 31.3906,51.5938 31.2656,51.75 C31.1094,51.9688 30.8438,52.1094 30.5938,52.1094 C30.2969,52.1094 30.0156,51.9531 29.8594,51.7031 C29.7813,51.5469 29.75,51.3906 29.75,50.9844 L29.75,50.875 Z "/><text fill="#000000" font-family="sans-serif" font-size="12" lengthAdjust="spacingAndGlyphs" textLength="46" x="44" y="54.1543">Gender</text><line style="stroke: #A80036; stroke-width: 1.5;" x1="16" x2="92" y1="66" y2="66"/><text fill="#000000" font-family="sans-serif" font-size="11" lengthAdjust="spacingAndGlyphs" textLength="26" x="21" y="80.2104">Male</text><text fill="#000000" font-family="sans-serif" font-size="11" lengthAdjust="spacingAndGlyphs" textLength="41" x="21" y="93.0151">Female</text><text fill="#000000" font-family="sans-serif" font-size="11" lengthAdjust="spacingAndGlyphs" textLength="32" x="21" y="105.8198">Other</text><line style="stroke: #A80036; stroke-width: 1.5;" x1="16" x2="92" y1="112.4141" y2="112.4141"/><!--class Company--><rect fill="#FEFECE" filter="url(#f1fb6h0v8pcnu0)" height="60.8047" id="Company" style="stroke: #A80036; stroke-width: 1.5;" width="160" x="128" y="46.5"/><ellipse cx="175.25" cy="62.5" fill="#ADD1B2" rx="11" ry="11" style="stroke: #A80036; stroke-width: 1.0;"/><path d="M177.5938,58.1719 L177.7656,58.25 C177.9844,57.9375 178.1875,57.8438 178.4844,57.8438 C178.7813,57.8438 179.0625,57.9844 179.2188,58.25 C179.3125,58.4063 179.3281,58.5313 179.3281,58.9688 L179.3281,60.3906 C179.3281,60.8125 179.2969,61 179.1875,61.1563 C179.0156,61.375 178.75,61.5156 178.4844,61.5156 C178.2656,61.5156 178.0313,61.4063 177.8906,61.2656 C177.75,61.1406 177.7188,61.0156 177.6563,60.6094 C177.5625,60.2031 177.3906,59.9844 176.9063,59.7031 C176.4375,59.4531 175.8281,59.2969 175.25,59.2969 C173.5156,59.2969 172.2656,60.6094 172.2656,62.3906 L172.2656,63.4844 C172.2656,65.1875 173.5625,66.2813 175.6094,66.2813 C176.375,66.2813 177.0625,66.1563 177.4844,65.8906 C177.6719,65.7969 177.6719,65.7969 178.125,65.3125 C178.3125,65.125 178.5156,65.0469 178.7344,65.0469 C179.2031,65.0469 179.5938,65.4375 179.5938,65.8906 C179.5938,66.2813 179.2656,66.7344 178.6875,67.1406 C177.9375,67.6875 176.7813,67.9844 175.5625,67.9844 C172.6719,67.9844 170.5625,66.0938 170.5625,63.5156 L170.5625,62.3906 C170.5625,59.6719 172.5625,57.5938 175.1875,57.5938 C176.0625,57.5938 176.6563,57.7344 177.5938,58.1719 Z "/><text fill="#000000" font-family="sans-serif" font-size="12" lengthAdjust="spacingAndGlyphs" textLength="57" x="195.75" y="66.6543">Company</text><line style="stroke: #A80036; stroke-width: 1.5;" x1="129" x2="287" y1="78.5" y2="78.5"/><text fill="#000000" font-family="sans-serif" font-size="11" lengthAdjust="spacingAndGlyphs" textLength="148" x="134" y="92.7104">OrganisationName: String</text><line style="stroke: #A80036; stroke-width: 1.5;" x1="129" x2="287" y1="99.3047" y2="99.3047"/><!--class Customer--><rect fill="#FEFECE" filter="url(#f1fb6h0v8pcnu0)" height="60.8047" id="Customer" style="stroke: #A80036; stroke-width: 1.5;" width="96" x="6" y="235.5"/><ellipse cx="22.8" cy="251.5" fill="#ADD1B2" rx="11" ry="11" style="stroke: #A80036; stroke-width: 1.0;"/><path d="M25.1438,247.1719 L25.3156,247.25 C25.5344,246.9375 25.7375,246.8438 26.0344,246.8438 C26.3313,246.8438 26.6125,246.9844 26.7688,247.25 C26.8625,247.4063 26.8781,247.5313 26.8781,247.9688 L26.8781,249.3906 C26.8781,249.8125 26.8469,250 26.7375,250.1563 C26.5656,250.375 26.3,250.5156 26.0344,250.5156 C25.8156,250.5156 25.5813,250.4063 25.4406,250.2656 C25.3,250.1406 25.2688,250.0156 25.2063,249.6094 C25.1125,249.2031 24.9406,248.9844 24.4563,248.7031 C23.9875,248.4531 23.3781,248.2969 22.8,248.2969 C21.0656,248.2969 19.8156,249.6094 19.8156,251.3906 L19.8156,252.4844 C19.8156,254.1875 21.1125,255.2813 23.1594,255.2813 C23.925,255.2813 24.6125,255.1563 25.0344,254.8906 C25.2219,254.7969 25.2219,254.7969 25.675,254.3125 C25.8625,254.125 26.0656,254.0469 26.2844,254.0469 C26.7531,254.0469 27.1438,254.4375 27.1438,254.8906 C27.1438,255.2813 26.8156,255.7344 26.2375,256.1406 C25.4875,256.6875 24.3313,256.9844 23.1125,256.9844 C20.2219,256.9844 18.1125,255.0938 18.1125,252.5156 L18.1125,251.3906 C18.1125,248.6719 20.1125,246.5938 22.7375,246.5938 C23.6125,246.5938 24.2063,246.7344 25.1438,247.1719 Z "/><text fill="#000000" font-family="sans-serif" font-size="12" lengthAdjust="spacingAndGlyphs" textLength="60" x="37.2" y="255.6543">Customer</text><line style="stroke: #A80036; stroke-width: 1.5;" x1="7" x2="101" y1="267.5" y2="267.5"/><text fill="#000000" font-family="sans-serif" font-size="11" lengthAdjust="spacingAndGlyphs" textLength="84" x="12" y="281.7104">CustomerId: Id</text><line style="stroke: #A80036; stroke-width: 1.5;" x1="7" x2="101" y1="288.3047" y2="288.3047"/><!--link Address to Person--><path d="M418,146.04 C418,169.823 418,195.985 418,217.7043 " fill="none" id="Address-Person" style="stroke: #A80036; stroke-width: 1.0;"/><polygon fill="#A80036" points="418,222.8387,422,213.8387,418,217.8387,414,213.8387,418,222.8387" style="stroke: #A80036; stroke-width: 1.0;"/><text fill="#000000" font-family="sans-serif" font-size="13" lengthAdjust="spacingAndGlyphs" textLength="52" x="419" y="189.0669">Address</text><!--link Gender to Company--><!--link Gender to Customer--><!--
@startuml
class "Address" as Address  {
	Street: String 
	PostalCode: String 
	HouseNumber: Number 
	HouseNumberExtension: String 
	City: String 
	CountryCode: String 
	Country: String 
}
class "Person" as Person  {
	FirstName: Maybe String
	LastName: String 
	Address: Address 
}
Address - -> Person : Address
enum Gender {
	Male
	Female
	Other
}
class "Company" as Company  {
	OrganisationName: String 
}
class "Customer" as Customer  {
	CustomerId: Id 
}
@enduml

PlantUML version 1.2019.03(Sun Mar 10 11:04:44 UTC 2019)
(GPL source distribution)
Java Runtime: Java(TM) SE Runtime Environment
JVM: Java HotSpot(TM) 64-Bit Server VM
Java Version: 1.7.0_25-b15
Operating System: Linux
Default Encoding: UTF-8
Language: en
Country: US
--></g></svg>