<?xml version="1.0" encoding="UTF-8" standalone="no"?><svg xmlns="http://www.w3.org/2000/svg" xmlns:xlink="http://www.w3.org/1999/xlink" contentScriptType="application/ecmascript" contentStyleType="text/css" height="419px" preserveAspectRatio="none" style="width:293px;height:419px;" version="1.1" viewBox="0 0 293 419" width="293px" zoomAndPan="magnify"><defs><filter height="300%" id="f5tby7v6to3h" width="300%" x="-1" y="-1"><feGaussianBlur result="blurOut" stdDeviation="2.0"/><feColorMatrix in="blurOut" result="blurOut2" type="matrix" values="0 0 0 0 0 0 0 0 0 0 0 0 0 0 0 0 0 0 .4 0"/><feOffset dx="4.0" dy="4.0" in="blurOut2" result="blurOut3"/><feBlend in="SourceGraphic" in2="blurOut3" mode="normal"/></filter></defs><g><!--class List--><rect fill="#FEFECE" filter="url(#f5tby7v6to3h)" height="48" id="List" style="stroke: #A80036; stroke-width: 1.5;" width="53" x="6" y="40"/><ellipse cx="21" cy="56" fill="#ADD1B2" rx="11" ry="11" style="stroke: #A80036; stroke-width: 1.0;"/><path d="M23.3438,51.6719 L23.5156,51.75 C23.7344,51.4375 23.9375,51.3438 24.2344,51.3438 C24.5313,51.3438 24.8125,51.4844 24.9688,51.75 C25.0625,51.9063 25.0781,52.0313 25.0781,52.4688 L25.0781,53.8906 C25.0781,54.3125 25.0469,54.5 24.9375,54.6563 C24.7656,54.875 24.5,55.0156 24.2344,55.0156 C24.0156,55.0156 23.7813,54.9063 23.6406,54.7656 C23.5,54.6406 23.4688,54.5156 23.4063,54.1094 C23.3125,53.7031 23.1406,53.4844 22.6563,53.2031 C22.1875,52.9531 21.5781,52.7969 21,52.7969 C19.2656,52.7969 18.0156,54.1094 18.0156,55.8906 L18.0156,56.9844 C18.0156,58.6875 19.3125,59.7813 21.3594,59.7813 C22.125,59.7813 22.8125,59.6563 23.2344,59.3906 C23.4219,59.2969 23.4219,59.2969 23.875,58.8125 C24.0625,58.625 24.2656,58.5469 24.4844,58.5469 C24.9531,58.5469 25.3438,58.9375 25.3438,59.3906 C25.3438,59.7813 25.0156,60.2344 24.4375,60.6406 C23.6875,61.1875 22.5313,61.4844 21.3125,61.4844 C18.4219,61.4844 16.3125,59.5938 16.3125,57.0156 L16.3125,55.8906 C16.3125,53.1719 18.3125,51.0938 20.9375,51.0938 C21.8125,51.0938 22.4063,51.2344 23.3438,51.6719 Z "/><text fill="#000000" font-family="sans-serif" font-size="12" lengthAdjust="spacingAndGlyphs" textLength="21" x="35" y="60.1543">List</text><line style="stroke: #A80036; stroke-width: 1.5;" x1="7" x2="58" y1="72" y2="72"/><line style="stroke: #A80036; stroke-width: 1.5;" x1="7" x2="58" y1="80" y2="80"/><!--class FileInfo--><rect fill="#FEFECE" filter="url(#f5tby7v6to3h)" height="112.0234" id="FileInfo" style="stroke: #A80036; stroke-width: 1.5;" width="125" x="94" y="8"/><ellipse cx="131.05" cy="24" fill="#ADD1B2" rx="11" ry="11" style="stroke: #A80036; stroke-width: 1.0;"/><path d="M133.3938,19.6719 L133.5656,19.75 C133.7844,19.4375 133.9875,19.3438 134.2844,19.3438 C134.5813,19.3438 134.8625,19.4844 135.0188,19.75 C135.1125,19.9063 135.1281,20.0313 135.1281,20.4688 L135.1281,21.8906 C135.1281,22.3125 135.0969,22.5 134.9875,22.6563 C134.8156,22.875 134.55,23.0156 134.2844,23.0156 C134.0656,23.0156 133.8313,22.9063 133.6906,22.7656 C133.55,22.6406 133.5188,22.5156 133.4563,22.1094 C133.3625,21.7031 133.1906,21.4844 132.7063,21.2031 C132.2375,20.9531 131.6281,20.7969 131.05,20.7969 C129.3156,20.7969 128.0656,22.1094 128.0656,23.8906 L128.0656,24.9844 C128.0656,26.6875 129.3625,27.7813 131.4094,27.7813 C132.175,27.7813 132.8625,27.6563 133.2844,27.3906 C133.4719,27.2969 133.4719,27.2969 133.925,26.8125 C134.1125,26.625 134.3156,26.5469 134.5344,26.5469 C135.0031,26.5469 135.3938,26.9375 135.3938,27.3906 C135.3938,27.7813 135.0656,28.2344 134.4875,28.6406 C133.7375,29.1875 132.5813,29.4844 131.3625,29.4844 C128.4719,29.4844 126.3625,27.5938 126.3625,25.0156 L126.3625,23.8906 C126.3625,21.1719 128.3625,19.0938 130.9875,19.0938 C131.8625,19.0938 132.4563,19.2344 133.3938,19.6719 Z "/><text fill="#000000" font-family="sans-serif" font-size="12" lengthAdjust="spacingAndGlyphs" textLength="44" x="149.95" y="28.1543">FileInfo</text><line style="stroke: #A80036; stroke-width: 1.5;" x1="95" x2="218" y1="40" y2="40"/><text fill="#000000" font-family="sans-serif" font-size="11" lengthAdjust="spacingAndGlyphs" textLength="76" x="100" y="54.2104">Size: Number</text><text fill="#000000" font-family="sans-serif" font-size="11" lengthAdjust="spacingAndGlyphs" textLength="113" x="100" y="67.0151">LastModified: String</text><text fill="#000000" font-family="sans-serif" font-size="11" lengthAdjust="spacingAndGlyphs" textLength="86" x="100" y="79.8198">FullPath: String</text><text fill="#000000" font-family="sans-serif" font-size="11" lengthAdjust="spacingAndGlyphs" textLength="104" x="100" y="92.6245">CreatedBy: Author</text><text fill="#000000" font-family="sans-serif" font-size="11" lengthAdjust="spacingAndGlyphs" textLength="106" x="100" y="105.4292">ModifiedBy: Author</text><line style="stroke: #A80036; stroke-width: 1.5;" x1="95" x2="218" y1="112.0234" y2="112.0234"/><!--class DirectoryInfo--><rect fill="#FEFECE" filter="url(#f5tby7v6to3h)" height="60.8047" id="DirectoryInfo" style="stroke: #A80036; stroke-width: 1.5;" width="174" x="69.5" y="348"/><ellipse cx="112.85" cy="364" fill="#ADD1B2" rx="11" ry="11" style="stroke: #A80036; stroke-width: 1.0;"/><path d="M115.1938,359.6719 L115.3656,359.75 C115.5844,359.4375 115.7875,359.3438 116.0844,359.3438 C116.3813,359.3438 116.6625,359.4844 116.8188,359.75 C116.9125,359.9063 116.9281,360.0313 116.9281,360.4688 L116.9281,361.8906 C116.9281,362.3125 116.8969,362.5 116.7875,362.6563 C116.6156,362.875 116.35,363.0156 116.0844,363.0156 C115.8656,363.0156 115.6313,362.9063 115.4906,362.7656 C115.35,362.6406 115.3188,362.5156 115.2563,362.1094 C115.1625,361.7031 114.9906,361.4844 114.5063,361.2031 C114.0375,360.9531 113.4281,360.7969 112.85,360.7969 C111.1156,360.7969 109.8656,362.1094 109.8656,363.8906 L109.8656,364.9844 C109.8656,366.6875 111.1625,367.7813 113.2094,367.7813 C113.975,367.7813 114.6625,367.6563 115.0844,367.3906 C115.2719,367.2969 115.2719,367.2969 115.725,366.8125 C115.9125,366.625 116.1156,366.5469 116.3344,366.5469 C116.8031,366.5469 117.1938,366.9375 117.1938,367.3906 C117.1938,367.7813 116.8656,368.2344 116.2875,368.6406 C115.5375,369.1875 114.3813,369.4844 113.1625,369.4844 C110.2719,369.4844 108.1625,367.5938 108.1625,365.0156 L108.1625,363.8906 C108.1625,361.1719 110.1625,359.0938 112.7875,359.0938 C113.6625,359.0938 114.2563,359.2344 115.1938,359.6719 Z "/><text fill="#000000" font-family="sans-serif" font-size="12" lengthAdjust="spacingAndGlyphs" textLength="79" x="133.15" y="368.1543">DirectoryInfo</text><line style="stroke: #A80036; stroke-width: 1.5;" x1="70.5" x2="242.5" y1="380" y2="380"/><text fill="#000000" font-family="sans-serif" font-size="11" lengthAdjust="spacingAndGlyphs" textLength="162" x="75.5" y="394.2104">Children: List FileSystemInfo</text><line style="stroke: #A80036; stroke-width: 1.5;" x1="70.5" x2="242.5" y1="400.8047" y2="400.8047"/><!--class FileSystemInfo--><rect fill="#FEFECE" filter="url(#f5tby7v6to3h)" height="73.6094" id="FileSystemInfo" style="stroke: #A80036; stroke-width: 1.5;" width="122" x="95.5" y="197"/><ellipse cx="110.5" cy="213" fill="#A9DCDF" rx="11" ry="11" style="stroke: #A80036; stroke-width: 1.0;"/><path d="M112.0781,214.8125 L108.0313,214.8125 L107.6406,215.7969 L108.0313,215.7969 C108.4844,215.7969 108.625,215.8281 108.7969,215.9531 C109.0156,216.125 109.1406,216.375 109.1406,216.6563 C109.1406,216.9375 109,217.2344 108.7344,217.375 C108.6094,217.4688 108.3906,217.5 108.0313,217.5 L105.7656,217.5 C105.0156,217.5 104.6406,217.2188 104.6406,216.6563 C104.6406,216.3594 104.7969,216.0781 105.0469,215.9219 C105.2031,215.8125 105.3594,215.7969 105.7813,215.7969 L108.4219,209.2813 L107.3438,209.2813 C106.9063,209.2813 106.7344,209.25 106.5625,209.1406 C106.3438,208.9688 106.2031,208.7188 106.2031,208.4375 C106.2031,208.1563 106.3594,207.875 106.6094,207.7031 C106.7656,207.6094 106.8906,207.5938 107.3438,207.5938 L111.0156,207.5938 L114.4063,215.7969 C114.875,215.7969 115.0313,215.8281 115.2031,215.9688 C115.4219,216.125 115.5625,216.375 115.5625,216.6563 C115.5625,216.9375 115.4063,217.2344 115.1563,217.375 C115.0156,217.4688 114.7969,217.5 114.4375,217.5 L112.0781,217.5 C111.6563,217.5 111.4531,217.4531 111.3125,217.3281 C111.0938,217.1719 110.9531,216.9219 110.9531,216.6563 C110.9531,216.3594 111.1094,216.0781 111.3594,215.9219 C111.5156,215.8125 111.625,215.7969 112.0781,215.7969 L112.4688,215.7969 Z M111.375,213.1094 L110.0469,209.8438 L108.7031,213.1094 Z "/><text fill="#000000" font-family="sans-serif" font-size="12" font-style="italic" lengthAdjust="spacingAndGlyphs" textLength="90" x="124.5" y="217.1543">FileSystemInfo</text><line style="stroke: #A80036; stroke-width: 1.5;" x1="96.5" x2="216.5" y1="229" y2="229"/><text fill="#000000" font-family="sans-serif" font-size="11" lengthAdjust="spacingAndGlyphs" textLength="40" x="101.5" y="243.2104">FileInfo</text><text fill="#000000" font-family="sans-serif" font-size="11" lengthAdjust="spacingAndGlyphs" textLength="72" x="101.5" y="256.0151">DirectoryInfo</text><line style="stroke: #A80036; stroke-width: 1.5;" x1="96.5" x2="216.5" y1="262.6094" y2="262.6094"/><!--link FileSystemInfo to DirectoryInfo--><path d="M95.2715,266.517 C76.6472,280.591 63.4459,298.422 73.5,318 C78.6507,328.0298 86.3642,336.7482 95.0495,344.1879 " fill="none" id="FileSystemInfo-DirectoryInfo" style="stroke: #A80036; stroke-width: 1.0;"/><polygon fill="#A80036" points="99.3843,347.7375,94.9554,338.9406,95.5159,344.5696,89.8869,345.1301,99.3843,347.7375" style="stroke: #A80036; stroke-width: 1.0;"/><text fill="#000000" font-family="sans-serif" font-size="13" lengthAdjust="spacingAndGlyphs" textLength="119" x="74.5" y="314.0669">List FileSystemInfo</text><text fill="#000000" font-family="sans-serif" font-size="13" lengthAdjust="spacingAndGlyphs" textLength="8" x="79.3218" y="266.6647">0</text><text fill="#000000" font-family="sans-serif" font-size="13" lengthAdjust="spacingAndGlyphs" textLength="7" x="79.8823" y="336.9466">*</text><!--link DirectoryInfo to FileSystemInfo--><path d="M182.674,347.9608 C189.119,338.9505 195.134,328.6055 198.5,318 C203.065,303.617 198.702,288.677 191.321,275.501 " fill="none" id="DirectoryInfo-FileSystemInfo" style="stroke: #A80036; stroke-width: 1.0;"/><polygon fill="#A80036" points="188.711,271.104,189.866,280.8849,191.2635,275.4034,196.745,276.8009,188.711,271.104" style="stroke: #A80036; stroke-width: 1.0;"/><text fill="#000000" font-family="sans-serif" font-size="13" lengthAdjust="spacingAndGlyphs" textLength="81" x="200.5" y="314.0669">DirectoryInfo</text><!--link FileInfo to FileSystemInfo--><path d="M156.5,120.009 C156.5,143.398 156.5,170.204 156.5,191.836 " fill="none" id="FileInfo-FileSystemInfo" style="stroke: #A80036; stroke-width: 1.0;"/><polygon fill="#A80036" points="156.5,196.934,160.5,187.934,156.5,191.934,152.5,187.934,156.5,196.934" style="stroke: #A80036; stroke-width: 1.0;"/><text fill="#000000" font-family="sans-serif" font-size="13" lengthAdjust="spacingAndGlyphs" textLength="44" x="157.5" y="163.0669">FileInfo</text><!--
@startuml
class List {
}
class FileInfo {
	Size: Number 
	LastModified: String 
	FullPath: String 
	CreatedBy: Author 
	ModifiedBy: Author 
}
class DirectoryInfo {
	Children: List FileSystemInfo
}
FileSystemInfo "0" - -> "*" DirectoryInfo : List FileSystemInfo
abstract FileSystemInfo {
	FileInfo
	DirectoryInfo
}
FileInfo - -> FileSystemInfo : FileInfo
DirectoryInfo - -> FileSystemInfo : DirectoryInfo
@enduml

PlantUML version 1.2019.03(Sun Mar 10 11:04:44 UTC 2019)
(GPL source distribution)
Java Runtime: Java(TM) SE Runtime Environment
JVM: Java HotSpot(TM) 64-Bit Server VM
Java Version: 1.7.0_25-b15
Operating System: Linux
Default Encoding: UTF-8
Language: en
Country: US
--></g></svg>