<?xml version="1.0" encoding="UTF-8" standalone="no"?><svg xmlns="http://www.w3.org/2000/svg" xmlns:xlink="http://www.w3.org/1999/xlink" contentScriptType="application/ecmascript" contentStyleType="text/css" height="470px" preserveAspectRatio="none" style="width:1037px;height:470px;" version="1.1" viewBox="0 0 1037 470" width="1037px" zoomAndPan="magnify"><defs><filter height="300%" id="fsedm9qy2slr6" width="300%" x="-1" y="-1"><feGaussianBlur result="blurOut" stdDeviation="2.0"/><feColorMatrix in="blurOut" result="blurOut2" type="matrix" values="0 0 0 0 0 0 0 0 0 0 0 0 0 0 0 0 0 0 .4 0"/><feOffset dx="4.0" dy="4.0" in="blurOut2" result="blurOut3"/><feBlend in="SourceGraphic" in2="blurOut3" mode="normal"/></filter></defs><g><!--class List--><rect fill="#FEFECE" filter="url(#fsedm9qy2slr6)" height="48" id="List" style="stroke: #A80036; stroke-width: 1.5;" width="53" x="6" y="40"/><ellipse cx="21" cy="56" fill="#DA70D6" rx="11" ry="11" style="stroke: #A80036; stroke-width: 1.0;"/><path d="M21.4375,53.5313 L21.4375,60.0469 L22.5625,60.0469 C23.0156,60.0469 23.1563,60.0781 23.3125,60.2031 C23.5469,60.375 23.6719,60.625 23.6719,60.9063 C23.6719,61.1875 23.5313,61.4844 23.2656,61.625 C23.1563,61.7031 22.8906,61.75 22.5625,61.75 L18.625,61.75 C18.2344,61.75 18.0156,61.7031 17.8594,61.5781 C17.6406,61.4219 17.5,61.1563 17.5,60.9063 C17.5,60.6094 17.6563,60.3281 17.9063,60.1719 C18.0625,60.0625 18.1875,60.0469 18.625,60.0469 L19.7344,60.0469 L19.7344,53.5313 L17.9063,53.5313 L17.9063,55.125 C17.9063,55.5781 17.875,55.7188 17.7656,55.8906 C17.5938,56.1094 17.3438,56.2344 17.0625,56.2344 C16.7813,56.2344 16.4844,56.0938 16.3281,55.8281 C16.25,55.6875 16.2188,55.5156 16.2188,55.125 L16.2188,51.8438 L24.9844,51.8438 L24.9844,55.125 C24.9844,55.5938 24.9688,55.7188 24.8281,55.8906 C24.6563,56.1094 24.4063,56.2344 24.1406,56.2344 C23.8438,56.2344 23.5625,56.0781 23.4063,55.8281 C23.3125,55.6875 23.2813,55.5156 23.2813,55.125 L23.2813,53.5313 Z "/><text fill="#000000" font-family="sans-serif" font-size="12" lengthAdjust="spacingAndGlyphs" textLength="21" x="35" y="60.1543">List</text><line style="stroke: #A80036; stroke-width: 1.5;" x1="7" x2="58" y1="72" y2="72"/><line style="stroke: #A80036; stroke-width: 1.5;" x1="7" x2="58" y1="80" y2="80"/><!--class FileInfo--><rect fill="#FEFECE" filter="url(#fsedm9qy2slr6)" height="112.0234" id="FileInfo" style="stroke: #A80036; stroke-width: 1.5;" width="125" x="94" y="8"/><ellipse cx="131.05" cy="24" fill="#ADD1B2" rx="11" ry="11" style="stroke: #A80036; stroke-width: 1.0;"/><path d="M133.3938,19.6719 L133.5656,19.75 C133.7844,19.4375 133.9875,19.3438 134.2844,19.3438 C134.5813,19.3438 134.8625,19.4844 135.0188,19.75 C135.1125,19.9063 135.1281,20.0313 135.1281,20.4688 L135.1281,21.8906 C135.1281,22.3125 135.0969,22.5 134.9875,22.6563 C134.8156,22.875 134.55,23.0156 134.2844,23.0156 C134.0656,23.0156 133.8313,22.9063 133.6906,22.7656 C133.55,22.6406 133.5188,22.5156 133.4563,22.1094 C133.3625,21.7031 133.1906,21.4844 132.7063,21.2031 C132.2375,20.9531 131.6281,20.7969 131.05,20.7969 C129.3156,20.7969 128.0656,22.1094 128.0656,23.8906 L128.0656,24.9844 C128.0656,26.6875 129.3625,27.7813 131.4094,27.7813 C132.175,27.7813 132.8625,27.6563 133.2844,27.3906 C133.4719,27.2969 133.4719,27.2969 133.925,26.8125 C134.1125,26.625 134.3156,26.5469 134.5344,26.5469 C135.0031,26.5469 135.3938,26.9375 135.3938,27.3906 C135.3938,27.7813 135.0656,28.2344 134.4875,28.6406 C133.7375,29.1875 132.5813,29.4844 131.3625,29.4844 C128.4719,29.4844 126.3625,27.5938 126.3625,25.0156 L126.3625,23.8906 C126.3625,21.1719 128.3625,19.0938 130.9875,19.0938 C131.8625,19.0938 132.4563,19.2344 133.3938,19.6719 Z "/><text fill="#000000" font-family="sans-serif" font-size="12" lengthAdjust="spacingAndGlyphs" textLength="44" x="149.95" y="28.1543">FileInfo</text><line style="stroke: #A80036; stroke-width: 1.5;" x1="95" x2="218" y1="40" y2="40"/><text fill="#000000" font-family="sans-serif" font-size="11" lengthAdjust="spacingAndGlyphs" textLength="76" x="100" y="54.2104">Size: Number</text><text fill="#000000" font-family="sans-serif" font-size="11" lengthAdjust="spacingAndGlyphs" textLength="113" x="100" y="67.0151">LastModified: String</text><text fill="#000000" font-family="sans-serif" font-size="11" lengthAdjust="spacingAndGlyphs" textLength="86" x="100" y="79.8198">FullPath: String</text><text fill="#000000" font-family="sans-serif" font-size="11" lengthAdjust="spacingAndGlyphs" textLength="104" x="100" y="92.6245">CreatedBy: Author</text><text fill="#000000" font-family="sans-serif" font-size="11" lengthAdjust="spacingAndGlyphs" textLength="106" x="100" y="105.4292">ModifiedBy: Author</text><line style="stroke: #A80036; stroke-width: 1.5;" x1="95" x2="218" y1="112.0234" y2="112.0234"/><!--class DirectoryInfo--><rect fill="#FEFECE" filter="url(#fsedm9qy2slr6)" height="60.8047" id="DirectoryInfo" style="stroke: #A80036; stroke-width: 1.5;" width="174" x="70.5" y="379"/><ellipse cx="113.85" cy="395" fill="#ADD1B2" rx="11" ry="11" style="stroke: #A80036; stroke-width: 1.0;"/><path d="M116.1938,390.6719 L116.3656,390.75 C116.5844,390.4375 116.7875,390.3438 117.0844,390.3438 C117.3813,390.3438 117.6625,390.4844 117.8188,390.75 C117.9125,390.9063 117.9281,391.0313 117.9281,391.4688 L117.9281,392.8906 C117.9281,393.3125 117.8969,393.5 117.7875,393.6563 C117.6156,393.875 117.35,394.0156 117.0844,394.0156 C116.8656,394.0156 116.6313,393.9063 116.4906,393.7656 C116.35,393.6406 116.3188,393.5156 116.2563,393.1094 C116.1625,392.7031 115.9906,392.4844 115.5063,392.2031 C115.0375,391.9531 114.4281,391.7969 113.85,391.7969 C112.1156,391.7969 110.8656,393.1094 110.8656,394.8906 L110.8656,395.9844 C110.8656,397.6875 112.1625,398.7813 114.2094,398.7813 C114.975,398.7813 115.6625,398.6563 116.0844,398.3906 C116.2719,398.2969 116.2719,398.2969 116.725,397.8125 C116.9125,397.625 117.1156,397.5469 117.3344,397.5469 C117.8031,397.5469 118.1938,397.9375 118.1938,398.3906 C118.1938,398.7813 117.8656,399.2344 117.2875,399.6406 C116.5375,400.1875 115.3813,400.4844 114.1625,400.4844 C111.2719,400.4844 109.1625,398.5938 109.1625,396.0156 L109.1625,394.8906 C109.1625,392.1719 111.1625,390.0938 113.7875,390.0938 C114.6625,390.0938 115.2563,390.2344 116.1938,390.6719 Z "/><text fill="#000000" font-family="sans-serif" font-size="12" lengthAdjust="spacingAndGlyphs" textLength="79" x="134.15" y="399.1543">DirectoryInfo</text><line style="stroke: #A80036; stroke-width: 1.5;" x1="71.5" x2="243.5" y1="411" y2="411"/><text fill="#000000" font-family="sans-serif" font-size="11" lengthAdjust="spacingAndGlyphs" textLength="162" x="76.5" y="425.2104">Children: List FileSystemInfo</text><line style="stroke: #A80036; stroke-width: 1.5;" x1="71.5" x2="243.5" y1="431.8047" y2="431.8047"/><!--class FileSystemInfo--><rect fill="#FEFECE" filter="url(#fsedm9qy2slr6)" height="73.6094" id="FileSystemInfo" style="stroke: #A80036; stroke-width: 1.5;" width="122" x="95.5" y="203"/><ellipse cx="110.5" cy="219" fill="#A9DCDF" rx="11" ry="11" style="stroke: #A80036; stroke-width: 1.0;"/><path d="M112.0781,220.8125 L108.0313,220.8125 L107.6406,221.7969 L108.0313,221.7969 C108.4844,221.7969 108.625,221.8281 108.7969,221.9531 C109.0156,222.125 109.1406,222.375 109.1406,222.6563 C109.1406,222.9375 109,223.2344 108.7344,223.375 C108.6094,223.4688 108.3906,223.5 108.0313,223.5 L105.7656,223.5 C105.0156,223.5 104.6406,223.2188 104.6406,222.6563 C104.6406,222.3594 104.7969,222.0781 105.0469,221.9219 C105.2031,221.8125 105.3594,221.7969 105.7813,221.7969 L108.4219,215.2813 L107.3438,215.2813 C106.9063,215.2813 106.7344,215.25 106.5625,215.1406 C106.3438,214.9688 106.2031,214.7188 106.2031,214.4375 C106.2031,214.1563 106.3594,213.875 106.6094,213.7031 C106.7656,213.6094 106.8906,213.5938 107.3438,213.5938 L111.0156,213.5938 L114.4063,221.7969 C114.875,221.7969 115.0313,221.8281 115.2031,221.9688 C115.4219,222.125 115.5625,222.375 115.5625,222.6563 C115.5625,222.9375 115.4063,223.2344 115.1563,223.375 C115.0156,223.4688 114.7969,223.5 114.4375,223.5 L112.0781,223.5 C111.6563,223.5 111.4531,223.4531 111.3125,223.3281 C111.0938,223.1719 110.9531,222.9219 110.9531,222.6563 C110.9531,222.3594 111.1094,222.0781 111.3594,221.9219 C111.5156,221.8125 111.625,221.7969 112.0781,221.7969 L112.4688,221.7969 Z M111.375,219.1094 L110.0469,215.8438 L108.7031,219.1094 Z "/><text fill="#000000" font-family="sans-serif" font-size="12" font-style="italic" lengthAdjust="spacingAndGlyphs" textLength="90" x="124.5" y="223.1543">FileSystemInfo</text><line style="stroke: #A80036; stroke-width: 1.5;" x1="96.5" x2="216.5" y1="235" y2="235"/><text fill="#000000" font-family="sans-serif" font-size="11" lengthAdjust="spacingAndGlyphs" textLength="40" x="101.5" y="249.2104">FileInfo</text><text fill="#000000" font-family="sans-serif" font-size="11" lengthAdjust="spacingAndGlyphs" textLength="72" x="101.5" y="262.0151">DirectoryInfo</text><line style="stroke: #A80036; stroke-width: 1.5;" x1="96.5" x2="216.5" y1="268.6094" y2="268.6094"/><!--class Gender--><rect fill="#FEFECE" filter="url(#fsedm9qy2slr6)" height="86.4141" id="Gender" style="stroke: #A80036; stroke-width: 1.5;" width="78" x="308.5" y="21"/><ellipse cx="323.5" cy="37" fill="#EB937F" rx="11" ry="11" style="stroke: #A80036; stroke-width: 1.0;"/><path d="M321.7969,37.875 L321.7969,40.2969 L326.1563,40.2969 L326.1563,39.4219 C326.1563,38.9375 326.1875,38.7969 326.2969,38.6406 C326.4688,38.3906 326.7344,38.2813 327,38.2813 C327.2813,38.2813 327.5625,38.4375 327.7344,38.6875 C327.8125,38.8438 327.8438,38.9844 327.8438,39.4219 L327.8438,42 L319.8438,42 C319.4531,42 319.2188,41.9531 319.0781,41.8281 C318.8594,41.6719 318.7188,41.4219 318.7188,41.1563 C318.7188,40.8594 318.875,40.5938 319.125,40.4219 C319.2813,40.3125 319.4375,40.2969 319.8438,40.2969 L320.0938,40.2969 L320.0938,33.7813 L319.8438,33.7813 C319.4219,33.7813 319.2344,33.75 319.0781,33.6406 C318.8594,33.4688 318.7188,33.2188 318.7188,32.9375 C318.7188,32.6563 318.875,32.3594 319.125,32.2031 C319.2813,32.1094 319.4063,32.0938 319.8438,32.0938 L327.4688,32.0938 L327.4688,34.6406 C327.4688,35.1094 327.4375,35.25 327.3281,35.4219 C327.1563,35.6406 326.8906,35.7813 326.625,35.7813 C326.3438,35.7813 326.0625,35.625 325.8906,35.375 C325.8125,35.2188 325.7813,35.0469 325.7813,34.6406 L325.7813,33.7813 L321.7969,33.7813 L321.7969,36.1875 L323.25,36.1875 L323.25,36.0625 C323.25,35.6094 323.2813,35.4531 323.3906,35.2813 C323.5625,35.0625 323.8281,34.9219 324.0781,34.9219 C324.5313,34.9219 324.8438,35.2344 324.9063,35.7031 C324.9219,35.8594 324.9219,35.9063 324.9219,36.0625 L324.9219,37.9844 C324.9219,38.4375 324.8906,38.5938 324.7656,38.75 C324.6094,38.9688 324.3438,39.1094 324.0938,39.1094 C323.7969,39.1094 323.5156,38.9531 323.3594,38.7031 C323.2813,38.5469 323.25,38.3906 323.25,37.9844 L323.25,37.875 Z "/><text fill="#000000" font-family="sans-serif" font-size="12" lengthAdjust="spacingAndGlyphs" textLength="46" x="337.5" y="41.1543">Gender</text><line style="stroke: #A80036; stroke-width: 1.5;" x1="309.5" x2="385.5" y1="53" y2="53"/><text fill="#000000" font-family="sans-serif" font-size="11" lengthAdjust="spacingAndGlyphs" textLength="26" x="314.5" y="67.2104">Male</text><text fill="#000000" font-family="sans-serif" font-size="11" lengthAdjust="spacingAndGlyphs" textLength="41" x="314.5" y="80.0151">Female</text><text fill="#000000" font-family="sans-serif" font-size="11" lengthAdjust="spacingAndGlyphs" textLength="32" x="314.5" y="92.8198">Other</text><line style="stroke: #A80036; stroke-width: 1.5;" x1="309.5" x2="385.5" y1="99.4141" y2="99.4141"/><!--class Person--><rect fill="#FEFECE" filter="url(#fsedm9qy2slr6)" height="86.4141" id="Person" style="stroke: #A80036; stroke-width: 1.5;" width="190" x="252.5" y="197"/><ellipse cx="321.25" cy="213" fill="#ADD1B2" rx="11" ry="11" style="stroke: #A80036; stroke-width: 1.0;"/><path d="M323.5938,208.6719 L323.7656,208.75 C323.9844,208.4375 324.1875,208.3438 324.4844,208.3438 C324.7813,208.3438 325.0625,208.4844 325.2188,208.75 C325.3125,208.9063 325.3281,209.0313 325.3281,209.4688 L325.3281,210.8906 C325.3281,211.3125 325.2969,211.5 325.1875,211.6563 C325.0156,211.875 324.75,212.0156 324.4844,212.0156 C324.2656,212.0156 324.0313,211.9063 323.8906,211.7656 C323.75,211.6406 323.7188,211.5156 323.6563,211.1094 C323.5625,210.7031 323.3906,210.4844 322.9063,210.2031 C322.4375,209.9531 321.8281,209.7969 321.25,209.7969 C319.5156,209.7969 318.2656,211.1094 318.2656,212.8906 L318.2656,213.9844 C318.2656,215.6875 319.5625,216.7813 321.6094,216.7813 C322.375,216.7813 323.0625,216.6563 323.4844,216.3906 C323.6719,216.2969 323.6719,216.2969 324.125,215.8125 C324.3125,215.625 324.5156,215.5469 324.7344,215.5469 C325.2031,215.5469 325.5938,215.9375 325.5938,216.3906 C325.5938,216.7813 325.2656,217.2344 324.6875,217.6406 C323.9375,218.1875 322.7813,218.4844 321.5625,218.4844 C318.6719,218.4844 316.5625,216.5938 316.5625,214.0156 L316.5625,212.8906 C316.5625,210.1719 318.5625,208.0938 321.1875,208.0938 C322.0625,208.0938 322.6563,208.2344 323.5938,208.6719 Z "/><text fill="#000000" font-family="sans-serif" font-size="12" lengthAdjust="spacingAndGlyphs" textLength="44" x="341.75" y="217.1543">Person</text><line style="stroke: #A80036; stroke-width: 1.5;" x1="253.5" x2="441.5" y1="229" y2="229"/><text fill="#000000" font-family="sans-serif" font-size="11" lengthAdjust="spacingAndGlyphs" textLength="100" x="258.5" y="243.2104">FirstName: String</text><text fill="#000000" font-family="sans-serif" font-size="11" lengthAdjust="spacingAndGlyphs" textLength="92" x="258.5" y="256.0151">Gender: Gender</text><text fill="#000000" font-family="sans-serif" font-size="11" lengthAdjust="spacingAndGlyphs" textLength="84" x="258.5" y="268.8198">CustomerId: Id</text><text fill="#000000" font-family="sans-serif" font-size="11" font-style="italic" lengthAdjust="spacingAndGlyphs" textLength="86" x="350.5" y="268.8198">from Customer</text><line style="stroke: #A80036; stroke-width: 1.5;" x1="253.5" x2="441.5" y1="275.4141" y2="275.4141"/><!--class Customer--><rect fill="#FEFECE" filter="url(#fsedm9qy2slr6)" height="60.8047" id="Customer" style="stroke: #A80036; stroke-width: 1.5;" width="96" x="452.5" y="33.5"/><ellipse cx="469.3" cy="49.5" fill="#ADD1B2" rx="11" ry="11" style="stroke: #A80036; stroke-width: 1.0;"/><path d="M471.6438,45.1719 L471.8156,45.25 C472.0344,44.9375 472.2375,44.8438 472.5344,44.8438 C472.8313,44.8438 473.1125,44.9844 473.2688,45.25 C473.3625,45.4063 473.3781,45.5313 473.3781,45.9688 L473.3781,47.3906 C473.3781,47.8125 473.3469,48 473.2375,48.1563 C473.0656,48.375 472.8,48.5156 472.5344,48.5156 C472.3156,48.5156 472.0813,48.4063 471.9406,48.2656 C471.8,48.1406 471.7688,48.0156 471.7063,47.6094 C471.6125,47.2031 471.4406,46.9844 470.9563,46.7031 C470.4875,46.4531 469.8781,46.2969 469.3,46.2969 C467.5656,46.2969 466.3156,47.6094 466.3156,49.3906 L466.3156,50.4844 C466.3156,52.1875 467.6125,53.2813 469.6594,53.2813 C470.425,53.2813 471.1125,53.1563 471.5344,52.8906 C471.7219,52.7969 471.7219,52.7969 472.175,52.3125 C472.3625,52.125 472.5656,52.0469 472.7844,52.0469 C473.2531,52.0469 473.6438,52.4375 473.6438,52.8906 C473.6438,53.2813 473.3156,53.7344 472.7375,54.1406 C471.9875,54.6875 470.8313,54.9844 469.6125,54.9844 C466.7219,54.9844 464.6125,53.0938 464.6125,50.5156 L464.6125,49.3906 C464.6125,46.6719 466.6125,44.5938 469.2375,44.5938 C470.1125,44.5938 470.7063,44.7344 471.6438,45.1719 Z "/><text fill="#000000" font-family="sans-serif" font-size="12" lengthAdjust="spacingAndGlyphs" textLength="60" x="483.7" y="53.6543">Customer</text><line style="stroke: #A80036; stroke-width: 1.5;" x1="453.5" x2="547.5" y1="65.5" y2="65.5"/><text fill="#000000" font-family="sans-serif" font-size="11" lengthAdjust="spacingAndGlyphs" textLength="84" x="458.5" y="79.7104">CustomerId: Id</text><line style="stroke: #A80036; stroke-width: 1.5;" x1="453.5" x2="547.5" y1="86.3047" y2="86.3047"/><!--class Company--><rect fill="#FEFECE" filter="url(#fsedm9qy2slr6)" height="73.6094" id="Company" style="stroke: #A80036; stroke-width: 1.5;" width="190" x="477.5" y="203"/><ellipse cx="539.75" cy="219" fill="#ADD1B2" rx="11" ry="11" style="stroke: #A80036; stroke-width: 1.0;"/><path d="M542.0938,214.6719 L542.2656,214.75 C542.4844,214.4375 542.6875,214.3438 542.9844,214.3438 C543.2813,214.3438 543.5625,214.4844 543.7188,214.75 C543.8125,214.9063 543.8281,215.0313 543.8281,215.4688 L543.8281,216.8906 C543.8281,217.3125 543.7969,217.5 543.6875,217.6563 C543.5156,217.875 543.25,218.0156 542.9844,218.0156 C542.7656,218.0156 542.5313,217.9063 542.3906,217.7656 C542.25,217.6406 542.2188,217.5156 542.1563,217.1094 C542.0625,216.7031 541.8906,216.4844 541.4063,216.2031 C540.9375,215.9531 540.3281,215.7969 539.75,215.7969 C538.0156,215.7969 536.7656,217.1094 536.7656,218.8906 L536.7656,219.9844 C536.7656,221.6875 538.0625,222.7813 540.1094,222.7813 C540.875,222.7813 541.5625,222.6563 541.9844,222.3906 C542.1719,222.2969 542.1719,222.2969 542.625,221.8125 C542.8125,221.625 543.0156,221.5469 543.2344,221.5469 C543.7031,221.5469 544.0938,221.9375 544.0938,222.3906 C544.0938,222.7813 543.7656,223.2344 543.1875,223.6406 C542.4375,224.1875 541.2813,224.4844 540.0625,224.4844 C537.1719,224.4844 535.0625,222.5938 535.0625,220.0156 L535.0625,218.8906 C535.0625,216.1719 537.0625,214.0938 539.6875,214.0938 C540.5625,214.0938 541.1563,214.2344 542.0938,214.6719 Z "/><text fill="#000000" font-family="sans-serif" font-size="12" lengthAdjust="spacingAndGlyphs" textLength="57" x="560.25" y="223.1543">Company</text><line style="stroke: #A80036; stroke-width: 1.5;" x1="478.5" x2="666.5" y1="235" y2="235"/><text fill="#000000" font-family="sans-serif" font-size="11" lengthAdjust="spacingAndGlyphs" textLength="148" x="483.5" y="249.2104">OrganisationName: String</text><text fill="#000000" font-family="sans-serif" font-size="11" lengthAdjust="spacingAndGlyphs" textLength="84" x="483.5" y="262.0151">CustomerId: Id</text><text fill="#000000" font-family="sans-serif" font-size="11" font-style="italic" lengthAdjust="spacingAndGlyphs" textLength="86" x="575.5" y="262.0151">from Customer</text><line style="stroke: #A80036; stroke-width: 1.5;" x1="478.5" x2="666.5" y1="268.6094" y2="268.6094"/><!--class Envelope--><rect fill="#FEFECE" filter="url(#fsedm9qy2slr6)" height="99.2188" id="Envelope" style="stroke: #A80036; stroke-width: 1.5;" width="109" x="853" y="360"/><ellipse cx="877" cy="376" fill="#A9DCDF" rx="11" ry="11" style="stroke: #A80036; stroke-width: 1.0;"/><path d="M878.5781,377.8125 L874.5313,377.8125 L874.1406,378.7969 L874.5313,378.7969 C874.9844,378.7969 875.125,378.8281 875.2969,378.9531 C875.5156,379.125 875.6406,379.375 875.6406,379.6563 C875.6406,379.9375 875.5,380.2344 875.2344,380.375 C875.1094,380.4688 874.8906,380.5 874.5313,380.5 L872.2656,380.5 C871.5156,380.5 871.1406,380.2188 871.1406,379.6563 C871.1406,379.3594 871.2969,379.0781 871.5469,378.9219 C871.7031,378.8125 871.8594,378.7969 872.2813,378.7969 L874.9219,372.2813 L873.8438,372.2813 C873.4063,372.2813 873.2344,372.25 873.0625,372.1406 C872.8438,371.9688 872.7031,371.7188 872.7031,371.4375 C872.7031,371.1563 872.8594,370.875 873.1094,370.7031 C873.2656,370.6094 873.3906,370.5938 873.8438,370.5938 L877.5156,370.5938 L880.9063,378.7969 C881.375,378.7969 881.5313,378.8281 881.7031,378.9688 C881.9219,379.125 882.0625,379.375 882.0625,379.6563 C882.0625,379.9375 881.9063,380.2344 881.6563,380.375 C881.5156,380.4688 881.2969,380.5 880.9375,380.5 L878.5781,380.5 C878.1563,380.5 877.9531,380.4531 877.8125,380.3281 C877.5938,380.1719 877.4531,379.9219 877.4531,379.6563 C877.4531,379.3594 877.6094,379.0781 877.8594,378.9219 C878.0156,378.8125 878.125,378.7969 878.5781,378.7969 L878.9688,378.7969 Z M877.875,376.1094 L876.5469,372.8438 L875.2031,376.1094 Z "/><text fill="#000000" font-family="sans-serif" font-size="12" font-style="italic" lengthAdjust="spacingAndGlyphs" textLength="57" x="893" y="380.1543">Envelope</text><line style="stroke: #A80036; stroke-width: 1.5;" x1="854" x2="961" y1="392" y2="392"/><text fill="#000000" font-family="sans-serif" font-size="11" lengthAdjust="spacingAndGlyphs" textLength="68" x="859" y="406.2104">ApiMessage</text><text fill="#000000" font-family="sans-serif" font-size="11" lengthAdjust="spacingAndGlyphs" textLength="29" x="859" y="419.0151">Error</text><text fill="#000000" font-family="sans-serif" font-size="11" lengthAdjust="spacingAndGlyphs" textLength="12" x="859" y="431.8198">---</text><text fill="#000000" font-family="sans-serif" font-size="11" font-weight="bold" lengthAdjust="spacingAndGlyphs" textLength="72" x="859" y="444.6245">description</text><text fill="#000000" font-family="sans-serif" font-size="11" lengthAdjust="spacingAndGlyphs" textLength="25" x="931" y="444.6245">: api</text><line style="stroke: #A80036; stroke-width: 1.5;" x1="854" x2="961" y1="451.2188" y2="451.2188"/><!--class ApiMessage--><rect fill="#FEFECE" filter="url(#fsedm9qy2slr6)" height="86.4141" id="ApiMessage" style="stroke: #A80036; stroke-width: 1.5;" width="165" x="709" y="197"/><ellipse cx="724" cy="213" fill="#ADD1B2" rx="11" ry="11" style="stroke: #A80036; stroke-width: 1.0;"/><path d="M726.3438,208.6719 L726.5156,208.75 C726.7344,208.4375 726.9375,208.3438 727.2344,208.3438 C727.5313,208.3438 727.8125,208.4844 727.9688,208.75 C728.0625,208.9063 728.0781,209.0313 728.0781,209.4688 L728.0781,210.8906 C728.0781,211.3125 728.0469,211.5 727.9375,211.6563 C727.7656,211.875 727.5,212.0156 727.2344,212.0156 C727.0156,212.0156 726.7813,211.9063 726.6406,211.7656 C726.5,211.6406 726.4688,211.5156 726.4063,211.1094 C726.3125,210.7031 726.1406,210.4844 725.6563,210.2031 C725.1875,209.9531 724.5781,209.7969 724,209.7969 C722.2656,209.7969 721.0156,211.1094 721.0156,212.8906 L721.0156,213.9844 C721.0156,215.6875 722.3125,216.7813 724.3594,216.7813 C725.125,216.7813 725.8125,216.6563 726.2344,216.3906 C726.4219,216.2969 726.4219,216.2969 726.875,215.8125 C727.0625,215.625 727.2656,215.5469 727.4844,215.5469 C727.9531,215.5469 728.3438,215.9375 728.3438,216.3906 C728.3438,216.7813 728.0156,217.2344 727.4375,217.6406 C726.6875,218.1875 725.5313,218.4844 724.3125,218.4844 C721.4219,218.4844 719.3125,216.5938 719.3125,214.0156 L719.3125,212.8906 C719.3125,210.1719 721.3125,208.0938 723.9375,208.0938 C724.8125,208.0938 725.4063,208.2344 726.3438,208.6719 Z "/><text fill="#000000" font-family="sans-serif" font-size="12" lengthAdjust="spacingAndGlyphs" textLength="75" x="738" y="217.1543">ApiMessage</text><rect fill="#FFFFFF" height="15.9688" style="stroke: #000000; stroke-width: 1.0; stroke-dasharray: 2.0,2.0;" width="56" x="821" y="194"/><text fill="#000000" font-family="sans-serif" font-size="12" font-style="italic" lengthAdjust="spacingAndGlyphs" textLength="54" x="822" y="206.1387">Message</text><line style="stroke: #A80036; stroke-width: 1.5;" x1="710" x2="873" y1="229" y2="229"/><text fill="#000000" font-family="sans-serif" font-size="11" lengthAdjust="spacingAndGlyphs" textLength="105" x="715" y="243.2104">HttpCode: Number</text><text fill="#000000" font-family="sans-serif" font-size="11" lengthAdjust="spacingAndGlyphs" textLength="93" x="715" y="256.0151">Message: String</text><text fill="#000000" font-family="sans-serif" font-size="11" lengthAdjust="spacingAndGlyphs" textLength="124" x="715" y="268.8198">Body: OtherCustomer</text><line style="stroke: #A80036; stroke-width: 1.5;" x1="710" x2="873" y1="275.4141" y2="275.4141"/><!--class Error--><rect fill="#FEFECE" filter="url(#fsedm9qy2slr6)" height="73.6094" id="Error" style="stroke: #A80036; stroke-width: 1.5;" width="117" x="909" y="203"/><ellipse cx="948.3" cy="219" fill="#ADD1B2" rx="11" ry="11" style="stroke: #A80036; stroke-width: 1.0;"/><path d="M950.6438,214.6719 L950.8156,214.75 C951.0344,214.4375 951.2375,214.3438 951.5344,214.3438 C951.8313,214.3438 952.1125,214.4844 952.2688,214.75 C952.3625,214.9063 952.3781,215.0313 952.3781,215.4688 L952.3781,216.8906 C952.3781,217.3125 952.3469,217.5 952.2375,217.6563 C952.0656,217.875 951.8,218.0156 951.5344,218.0156 C951.3156,218.0156 951.0813,217.9063 950.9406,217.7656 C950.8,217.6406 950.7688,217.5156 950.7063,217.1094 C950.6125,216.7031 950.4406,216.4844 949.9563,216.2031 C949.4875,215.9531 948.8781,215.7969 948.3,215.7969 C946.5656,215.7969 945.3156,217.1094 945.3156,218.8906 L945.3156,219.9844 C945.3156,221.6875 946.6125,222.7813 948.6594,222.7813 C949.425,222.7813 950.1125,222.6563 950.5344,222.3906 C950.7219,222.2969 950.7219,222.2969 951.175,221.8125 C951.3625,221.625 951.5656,221.5469 951.7844,221.5469 C952.2531,221.5469 952.6438,221.9375 952.6438,222.3906 C952.6438,222.7813 952.3156,223.2344 951.7375,223.6406 C950.9875,224.1875 949.8313,224.4844 948.6125,224.4844 C945.7219,224.4844 943.6125,222.5938 943.6125,220.0156 L943.6125,218.8906 C943.6125,216.1719 945.6125,214.0938 948.2375,214.0938 C949.1125,214.0938 949.7063,214.2344 950.6438,214.6719 Z "/><text fill="#000000" font-family="sans-serif" font-size="12" lengthAdjust="spacingAndGlyphs" textLength="31" x="967.7" y="223.1543">Error</text><line style="stroke: #A80036; stroke-width: 1.5;" x1="910" x2="1025" y1="235" y2="235"/><text fill="#000000" font-family="sans-serif" font-size="11" lengthAdjust="spacingAndGlyphs" textLength="105" x="915" y="249.2104">HttpCode: Number</text><text fill="#000000" font-family="sans-serif" font-size="11" lengthAdjust="spacingAndGlyphs" textLength="93" x="915" y="262.0151">Message: String</text><line style="stroke: #A80036; stroke-width: 1.5;" x1="910" x2="1025" y1="268.6094" y2="268.6094"/><!--class Message--><rect fill="#FEFECE" filter="url(#fsedm9qy2slr6)" height="86.4141" id="Message" style="stroke: #A80036; stroke-width: 1.5;" width="117" x="611" y="21"/><ellipse cx="639.05" cy="37" fill="#DA70D6" rx="11" ry="11" style="stroke: #A80036; stroke-width: 1.0;"/><path d="M639.4875,34.5313 L639.4875,41.0469 L640.6125,41.0469 C641.0656,41.0469 641.2063,41.0781 641.3625,41.2031 C641.5969,41.375 641.7219,41.625 641.7219,41.9063 C641.7219,42.1875 641.5813,42.4844 641.3156,42.625 C641.2063,42.7031 640.9406,42.75 640.6125,42.75 L636.675,42.75 C636.2844,42.75 636.0656,42.7031 635.9094,42.5781 C635.6906,42.4219 635.55,42.1563 635.55,41.9063 C635.55,41.6094 635.7063,41.3281 635.9563,41.1719 C636.1125,41.0625 636.2375,41.0469 636.675,41.0469 L637.7844,41.0469 L637.7844,34.5313 L635.9563,34.5313 L635.9563,36.125 C635.9563,36.5781 635.925,36.7188 635.8156,36.8906 C635.6438,37.1094 635.3938,37.2344 635.1125,37.2344 C634.8313,37.2344 634.5344,37.0938 634.3781,36.8281 C634.3,36.6875 634.2688,36.5156 634.2688,36.125 L634.2688,32.8438 L643.0344,32.8438 L643.0344,36.125 C643.0344,36.5938 643.0188,36.7188 642.8781,36.8906 C642.7063,37.1094 642.4563,37.2344 642.1906,37.2344 C641.8938,37.2344 641.6125,37.0781 641.4563,36.8281 C641.3625,36.6875 641.3313,36.5156 641.3313,36.125 L641.3313,34.5313 Z "/><text fill="#000000" font-family="sans-serif" font-size="12" lengthAdjust="spacingAndGlyphs" textLength="56" x="655.95" y="41.1543">Message</text><line style="stroke: #A80036; stroke-width: 1.5;" x1="612" x2="727" y1="53" y2="53"/><text fill="#000000" font-family="sans-serif" font-size="11" lengthAdjust="spacingAndGlyphs" textLength="105" x="617" y="67.2104">HttpCode: Number</text><text fill="#000000" font-family="sans-serif" font-size="11" lengthAdjust="spacingAndGlyphs" textLength="93" x="617" y="80.0151">Message: String</text><text fill="#000000" font-family="sans-serif" font-size="11" lengthAdjust="spacingAndGlyphs" textLength="43" x="617" y="92.8198">Body: a</text><line style="stroke: #A80036; stroke-width: 1.5;" x1="612" x2="727" y1="99.4141" y2="99.4141"/><!--class OtherCustomer--><rect fill="#FEFECE" filter="url(#fsedm9qy2slr6)" height="86.4141" id="OtherCustomer" style="stroke: #A80036; stroke-width: 1.5;" width="127" x="861" y="21"/><ellipse cx="876" cy="37" fill="#ADD1B2" rx="11" ry="11" style="stroke: #A80036; stroke-width: 1.0;"/><path d="M878.3438,32.6719 L878.5156,32.75 C878.7344,32.4375 878.9375,32.3438 879.2344,32.3438 C879.5313,32.3438 879.8125,32.4844 879.9688,32.75 C880.0625,32.9063 880.0781,33.0313 880.0781,33.4688 L880.0781,34.8906 C880.0781,35.3125 880.0469,35.5 879.9375,35.6563 C879.7656,35.875 879.5,36.0156 879.2344,36.0156 C879.0156,36.0156 878.7813,35.9063 878.6406,35.7656 C878.5,35.6406 878.4688,35.5156 878.4063,35.1094 C878.3125,34.7031 878.1406,34.4844 877.6563,34.2031 C877.1875,33.9531 876.5781,33.7969 876,33.7969 C874.2656,33.7969 873.0156,35.1094 873.0156,36.8906 L873.0156,37.9844 C873.0156,39.6875 874.3125,40.7813 876.3594,40.7813 C877.125,40.7813 877.8125,40.6563 878.2344,40.3906 C878.4219,40.2969 878.4219,40.2969 878.875,39.8125 C879.0625,39.625 879.2656,39.5469 879.4844,39.5469 C879.9531,39.5469 880.3438,39.9375 880.3438,40.3906 C880.3438,40.7813 880.0156,41.2344 879.4375,41.6406 C878.6875,42.1875 877.5313,42.4844 876.3125,42.4844 C873.4219,42.4844 871.3125,40.5938 871.3125,38.0156 L871.3125,36.8906 C871.3125,34.1719 873.3125,32.0938 875.9375,32.0938 C876.8125,32.0938 877.4063,32.2344 878.3438,32.6719 Z "/><text fill="#000000" font-family="sans-serif" font-size="12" lengthAdjust="spacingAndGlyphs" textLength="95" x="890" y="41.1543">OtherCustomer</text><line style="stroke: #A80036; stroke-width: 1.5;" x1="862" x2="987" y1="53" y2="53"/><text fill="#000000" font-family="sans-serif" font-size="11" lengthAdjust="spacingAndGlyphs" textLength="103" x="867" y="67.2104">Something: String</text><text fill="#000000" font-family="sans-serif" font-size="11" lengthAdjust="spacingAndGlyphs" textLength="84" x="867" y="80.0151">CustomerId: Id</text><text fill="#000000" font-family="sans-serif" font-size="11" lengthAdjust="spacingAndGlyphs" textLength="76" x="867" y="92.8198">Size: Number</text><line style="stroke: #A80036; stroke-width: 1.5;" x1="862" x2="987" y1="99.4141" y2="99.4141"/><!--class Body--><rect fill="#FEFECE" filter="url(#fsedm9qy2slr6)" height="48" id="Body" style="stroke: #A80036; stroke-width: 1.5;" width="62" x="763.5" y="40"/><ellipse cx="778.5" cy="56" fill="#ADD1B2" rx="11" ry="11" style="stroke: #A80036; stroke-width: 1.0;"/><path d="M780.8438,51.6719 L781.0156,51.75 C781.2344,51.4375 781.4375,51.3438 781.7344,51.3438 C782.0313,51.3438 782.3125,51.4844 782.4688,51.75 C782.5625,51.9063 782.5781,52.0313 782.5781,52.4688 L782.5781,53.8906 C782.5781,54.3125 782.5469,54.5 782.4375,54.6563 C782.2656,54.875 782,55.0156 781.7344,55.0156 C781.5156,55.0156 781.2813,54.9063 781.1406,54.7656 C781,54.6406 780.9688,54.5156 780.9063,54.1094 C780.8125,53.7031 780.6406,53.4844 780.1563,53.2031 C779.6875,52.9531 779.0781,52.7969 778.5,52.7969 C776.7656,52.7969 775.5156,54.1094 775.5156,55.8906 L775.5156,56.9844 C775.5156,58.6875 776.8125,59.7813 778.8594,59.7813 C779.625,59.7813 780.3125,59.6563 780.7344,59.3906 C780.9219,59.2969 780.9219,59.2969 781.375,58.8125 C781.5625,58.625 781.7656,58.5469 781.9844,58.5469 C782.4531,58.5469 782.8438,58.9375 782.8438,59.3906 C782.8438,59.7813 782.5156,60.2344 781.9375,60.6406 C781.1875,61.1875 780.0313,61.4844 778.8125,61.4844 C775.9219,61.4844 773.8125,59.5938 773.8125,57.0156 L773.8125,55.8906 C773.8125,53.1719 775.8125,51.0938 778.4375,51.0938 C779.3125,51.0938 779.9063,51.2344 780.8438,51.6719 Z "/><text fill="#000000" font-family="sans-serif" font-size="12" lengthAdjust="spacingAndGlyphs" textLength="30" x="792.5" y="60.1543">Body</text><line style="stroke: #A80036; stroke-width: 1.5;" x1="764.5" x2="824.5" y1="72" y2="72"/><line style="stroke: #A80036; stroke-width: 1.5;" x1="764.5" x2="824.5" y1="80" y2="80"/><!--link FileSystemInfo to DirectoryInfo--><path d="M95.4739,275.49 C77.3983,290.49 64.5388,309.36 73.5,330 C81.1294,347.572 94.8449,363.0023 109.011,375.4264 " fill="none" id="FileSystemInfo-DirectoryInfo" style="stroke: #A80036; stroke-width: 1.0;"/><polygon fill="#A80036" points="113.013,378.8502,108.7737,369.9604,109.2134,375.6002,103.5736,376.0398,113.013,378.8502" style="stroke: #A80036; stroke-width: 1.0;"/><text fill="#000000" font-family="sans-serif" font-size="13" lengthAdjust="spacingAndGlyphs" textLength="119" x="74.5" y="326.0669">List FileSystemInfo</text><text fill="#000000" font-family="sans-serif" font-size="13" lengthAdjust="spacingAndGlyphs" textLength="8" x="79.5488" y="276.0001">0</text><text fill="#000000" font-family="sans-serif" font-size="13" lengthAdjust="spacingAndGlyphs" textLength="7" x="96.1157" y="368.0825">*</text><!--link DirectoryInfo to FileSystemInfo--><path d="M181.692,378.7487 C193.788,360.29 204.669,335.817 198.5,313 C195.585,302.218 190.61,291.393 185.083,281.531 " fill="none" id="DirectoryInfo-FileSystemInfo" style="stroke: #A80036; stroke-width: 1.0;"/><polygon fill="#A80036" points="182.509,277.071,183.5436,286.8654,185.0084,281.4015,190.4723,282.8663,182.509,277.071" style="stroke: #A80036; stroke-width: 1.0;"/><text fill="#000000" font-family="sans-serif" font-size="13" lengthAdjust="spacingAndGlyphs" textLength="81" x="201.5" y="326.0669">DirectoryInfo</text><!--link FileInfo to FileSystemInfo--><path d="M156.5,120.055 C156.5,145.232 156.5,174.554 156.5,197.785 " fill="none" id="FileInfo-FileSystemInfo" style="stroke: #A80036; stroke-width: 1.0;"/><polygon fill="#A80036" points="156.5,202.947,160.5,193.947,156.5,197.947,152.5,193.947,156.5,202.947" style="stroke: #A80036; stroke-width: 1.0;"/><text fill="#000000" font-family="sans-serif" font-size="13" lengthAdjust="spacingAndGlyphs" textLength="44" x="157.5" y="163.0669">FileInfo</text><!--link Gender to Person--><path d="M347.5,107.121 C347.5,132.674 347.5,165.34 347.5,191.768 " fill="none" id="Gender-Person" style="stroke: #A80036; stroke-width: 1.0;"/><polygon fill="#A80036" points="347.5,196.966,351.5,187.966,347.5,191.966,343.5,187.966,347.5,196.966" style="stroke: #A80036; stroke-width: 1.0;"/><text fill="#000000" font-family="sans-serif" font-size="13" lengthAdjust="spacingAndGlyphs" textLength="47" x="348.5" y="163.0669">Gender</text><!--link Customer to Person--><path d="M474.546,94.517 C453.588,118.351 423.469,152.604 397.816,181.777 " fill="none" id="Customer-Person" style="stroke: #A80036; stroke-width: 1.0;"/><polygon fill="none" points="402.961,186.527,384.497,196.925,392.447,177.283,402.961,186.527" style="stroke: #A80036; stroke-width: 1.0;"/><!--link Customer to Company--><path d="M512.714,94.517 C522.851,119.014 537.542,154.517 549.824,184.199 " fill="none" id="Customer-Company" style="stroke: #A80036; stroke-width: 1.0;"/><polygon fill="none" points="556.296,181.533,557.475,202.689,543.36,186.886,556.296,181.533" style="stroke: #A80036; stroke-width: 1.0;"/><!--link ApiMessage to Envelope--><path d="M817.542,283.08 C827.045,298.053 838.033,314.93 848.5,330 C854.351,338.423 860.709,347.223 867.015,355.756 " fill="none" id="ApiMessage-Envelope" style="stroke: #A80036; stroke-width: 1.0;"/><polygon fill="#A80036" points="870.103,359.9208,867.9557,350.3089,867.125,355.9044,861.5295,355.0737,870.103,359.9208" style="stroke: #A80036; stroke-width: 1.0;"/><text fill="#000000" font-family="sans-serif" font-size="13" lengthAdjust="spacingAndGlyphs" textLength="77" x="849.5" y="326.0669">ApiMessage</text><!--link Error to Envelope--><path d="M954.481,277.345 C946.371,299.986 935.792,329.519 926.726,354.827 " fill="none" id="Error-Envelope" style="stroke: #A80036; stroke-width: 1.0;"/><polygon fill="#A80036" points="924.934,359.8288,931.7342,352.7043,926.6198,355.1215,924.2026,350.0071,924.934,359.8288" style="stroke: #A80036; stroke-width: 1.0;"/><text fill="#000000" font-family="sans-serif" font-size="13" lengthAdjust="spacingAndGlyphs" textLength="31" x="941.5" y="326.0669">Error</text><!--link Body to ApiMessage--><path d="M794.102,88.106 C793.649,114.343 792.899,157.859 792.32,191.435 " fill="none" id="Body-ApiMessage" style="stroke: #A80036; stroke-width: 1.0;"/><polygon fill="#A80036" points="792.229,196.735,796.3852,187.8061,792.3161,191.7358,788.3864,187.6667,792.229,196.735" style="stroke: #A80036; stroke-width: 1.0;"/><text fill="#000000" font-family="sans-serif" font-size="13" lengthAdjust="spacingAndGlyphs" textLength="32" x="793.5" y="163.0669">Body</text><!--link Message to ApiMessage--><path d="M699.033,107.121 C715.68,130.864 736.633,160.748 754.383,186.063 " fill="none" id="Message-ApiMessage" style="stroke: #A80036; stroke-width: 1.0;"/><polygon fill="#A80036" points="762.028,196.966,761.8588,189.7569,755.1391,187.1404,755.3083,194.3495,762.028,196.966" style="stroke: #A80036; stroke-width: 1.0;"/><text fill="#000000" font-family="sans-serif" font-size="13" lengthAdjust="spacingAndGlyphs" textLength="37" x="738.5" y="163.0669">ALIAS</text><!--
@startuml
class List<< (T,orchid) >> {
}
class FileInfo {
	Size: Number 
	LastModified: String 
	FullPath: String 
	CreatedBy: Author 
	ModifiedBy: Author 
}
class DirectoryInfo {
	Children: List FileSystemInfo
}
FileSystemInfo "0" - -> "*" DirectoryInfo : List FileSystemInfo
abstract FileSystemInfo {
	FileInfo
	DirectoryInfo
}
FileInfo - -> FileSystemInfo : FileInfo
DirectoryInfo - -> FileSystemInfo : DirectoryInfo
enum Gender {
	Male
	Female
	Other
}
class Person {
	FirstName: String 
	Gender: Gender 
	CustomerId: Id  <i>from Customer</i>
}
Gender - -> Person : Gender
Customer - -|> Person
class Company {
	OrganisationName: String 
	CustomerId: Id  <i>from Customer</i>
}
Customer - -|> Company
class Customer {
	CustomerId: Id 
}
abstract Envelope {
	ApiMessage
	Error
  - - -
  <b>description</b>: api
    
}
ApiMessage - -> Envelope : ApiMessage
Error - -> Envelope : Error
class Message<< (T,orchid) >> {
	HttpCode: Number 
	Message: String 
	Body: a 
}
class OtherCustomer {
	Something: String 
	CustomerId: Id 
	Size: Number 
}
class ApiMessage<Message> {
	HttpCode: Number 
	Message: String 
	Body: OtherCustomer 
}
Body - -> ApiMessage : Body
Message - -* ApiMessage: ALIAS
class Error {
	HttpCode: Number 
	Message: String 
}
@enduml

PlantUML version 1.2019.03(Sun Mar 10 11:04:44 UTC 2019)
(GPL source distribution)
Java Runtime: Java(TM) SE Runtime Environment
JVM: Java HotSpot(TM) 64-Bit Server VM
Java Version: 1.7.0_25-b15
Operating System: Linux
Default Encoding: UTF-8
Language: en
Country: US
--></g></svg>