<?xml version="1.0" encoding="UTF-8" standalone="no"?><svg xmlns="http://www.w3.org/2000/svg" xmlns:xlink="http://www.w3.org/1999/xlink" contentScriptType="application/ecmascript" contentStyleType="text/css" height="444px" preserveAspectRatio="none" style="width:1075px;height:444px;" version="1.1" viewBox="0 0 1075 444" width="1075px" zoomAndPan="magnify"><defs><filter height="300%" id="f1mt93a7vrveo7" width="300%" x="-1" y="-1"><feGaussianBlur result="blurOut" stdDeviation="2.0"/><feColorMatrix in="blurOut" result="blurOut2" type="matrix" values="0 0 0 0 0 0 0 0 0 0 0 0 0 0 0 0 0 0 .4 0"/><feOffset dx="4.0" dy="4.0" in="blurOut2" result="blurOut3"/><feBlend in="SourceGraphic" in2="blurOut3" mode="normal"/></filter></defs><g><!--class List--><rect fill="#FEFECE" filter="url(#f1mt93a7vrveo7)" height="48" id="List" style="stroke: #A80036; stroke-width: 1.5;" width="53" x="43" y="40"/><ellipse cx="58" cy="56" fill="#ADD1B2" rx="11" ry="11" style="stroke: #A80036; stroke-width: 1.0;"/><path d="M60.3438,51.6719 L60.5156,51.75 C60.7344,51.4375 60.9375,51.3438 61.2344,51.3438 C61.5313,51.3438 61.8125,51.4844 61.9688,51.75 C62.0625,51.9063 62.0781,52.0313 62.0781,52.4688 L62.0781,53.8906 C62.0781,54.3125 62.0469,54.5 61.9375,54.6563 C61.7656,54.875 61.5,55.0156 61.2344,55.0156 C61.0156,55.0156 60.7813,54.9063 60.6406,54.7656 C60.5,54.6406 60.4688,54.5156 60.4063,54.1094 C60.3125,53.7031 60.1406,53.4844 59.6563,53.2031 C59.1875,52.9531 58.5781,52.7969 58,52.7969 C56.2656,52.7969 55.0156,54.1094 55.0156,55.8906 L55.0156,56.9844 C55.0156,58.6875 56.3125,59.7813 58.3594,59.7813 C59.125,59.7813 59.8125,59.6563 60.2344,59.3906 C60.4219,59.2969 60.4219,59.2969 60.875,58.8125 C61.0625,58.625 61.2656,58.5469 61.4844,58.5469 C61.9531,58.5469 62.3438,58.9375 62.3438,59.3906 C62.3438,59.7813 62.0156,60.2344 61.4375,60.6406 C60.6875,61.1875 59.5313,61.4844 58.3125,61.4844 C55.4219,61.4844 53.3125,59.5938 53.3125,57.0156 L53.3125,55.8906 C53.3125,53.1719 55.3125,51.0938 57.9375,51.0938 C58.8125,51.0938 59.4063,51.2344 60.3438,51.6719 Z "/><text fill="#000000" font-family="sans-serif" font-size="12" lengthAdjust="spacingAndGlyphs" textLength="21" x="72" y="60.1543">List</text><line style="stroke: #A80036; stroke-width: 1.5;" x1="44" x2="95" y1="72" y2="72"/><line style="stroke: #A80036; stroke-width: 1.5;" x1="44" x2="95" y1="80" y2="80"/><!--class FileInfo--><rect fill="#FEFECE" filter="url(#f1mt93a7vrveo7)" height="112.0234" id="FileInfo" style="stroke: #A80036; stroke-width: 1.5;" width="125" x="283" y="8"/><ellipse cx="320.05" cy="24" fill="#ADD1B2" rx="11" ry="11" style="stroke: #A80036; stroke-width: 1.0;"/><path d="M322.3938,19.6719 L322.5656,19.75 C322.7844,19.4375 322.9875,19.3438 323.2844,19.3438 C323.5813,19.3438 323.8625,19.4844 324.0188,19.75 C324.1125,19.9063 324.1281,20.0313 324.1281,20.4688 L324.1281,21.8906 C324.1281,22.3125 324.0969,22.5 323.9875,22.6563 C323.8156,22.875 323.55,23.0156 323.2844,23.0156 C323.0656,23.0156 322.8313,22.9063 322.6906,22.7656 C322.55,22.6406 322.5188,22.5156 322.4563,22.1094 C322.3625,21.7031 322.1906,21.4844 321.7063,21.2031 C321.2375,20.9531 320.6281,20.7969 320.05,20.7969 C318.3156,20.7969 317.0656,22.1094 317.0656,23.8906 L317.0656,24.9844 C317.0656,26.6875 318.3625,27.7813 320.4094,27.7813 C321.175,27.7813 321.8625,27.6563 322.2844,27.3906 C322.4719,27.2969 322.4719,27.2969 322.925,26.8125 C323.1125,26.625 323.3156,26.5469 323.5344,26.5469 C324.0031,26.5469 324.3938,26.9375 324.3938,27.3906 C324.3938,27.7813 324.0656,28.2344 323.4875,28.6406 C322.7375,29.1875 321.5813,29.4844 320.3625,29.4844 C317.4719,29.4844 315.3625,27.5938 315.3625,25.0156 L315.3625,23.8906 C315.3625,21.1719 317.3625,19.0938 319.9875,19.0938 C320.8625,19.0938 321.4563,19.2344 322.3938,19.6719 Z "/><text fill="#000000" font-family="sans-serif" font-size="12" lengthAdjust="spacingAndGlyphs" textLength="44" x="338.95" y="28.1543">FileInfo</text><line style="stroke: #A80036; stroke-width: 1.5;" x1="284" x2="407" y1="40" y2="40"/><text fill="#000000" font-family="sans-serif" font-size="11" lengthAdjust="spacingAndGlyphs" textLength="76" x="289" y="54.2104">Size: Number</text><text fill="#000000" font-family="sans-serif" font-size="11" lengthAdjust="spacingAndGlyphs" textLength="113" x="289" y="67.0151">LastModified: String</text><text fill="#000000" font-family="sans-serif" font-size="11" lengthAdjust="spacingAndGlyphs" textLength="86" x="289" y="79.8198">FullPath: String</text><text fill="#000000" font-family="sans-serif" font-size="11" lengthAdjust="spacingAndGlyphs" textLength="104" x="289" y="92.6245">CreatedBy: Author</text><text fill="#000000" font-family="sans-serif" font-size="11" lengthAdjust="spacingAndGlyphs" textLength="106" x="289" y="105.4292">ModifiedBy: Author</text><line style="stroke: #A80036; stroke-width: 1.5;" x1="284" x2="407" y1="112.0234" y2="112.0234"/><!--class DirectoryInfo--><rect fill="#FEFECE" filter="url(#f1mt93a7vrveo7)" height="60.8047" id="DirectoryInfo" style="stroke: #A80036; stroke-width: 1.5;" width="174" x="258.5" y="373"/><ellipse cx="301.85" cy="389" fill="#ADD1B2" rx="11" ry="11" style="stroke: #A80036; stroke-width: 1.0;"/><path d="M304.1938,384.6719 L304.3656,384.75 C304.5844,384.4375 304.7875,384.3438 305.0844,384.3438 C305.3813,384.3438 305.6625,384.4844 305.8188,384.75 C305.9125,384.9063 305.9281,385.0313 305.9281,385.4688 L305.9281,386.8906 C305.9281,387.3125 305.8969,387.5 305.7875,387.6563 C305.6156,387.875 305.35,388.0156 305.0844,388.0156 C304.8656,388.0156 304.6313,387.9063 304.4906,387.7656 C304.35,387.6406 304.3188,387.5156 304.2563,387.1094 C304.1625,386.7031 303.9906,386.4844 303.5063,386.2031 C303.0375,385.9531 302.4281,385.7969 301.85,385.7969 C300.1156,385.7969 298.8656,387.1094 298.8656,388.8906 L298.8656,389.9844 C298.8656,391.6875 300.1625,392.7813 302.2094,392.7813 C302.975,392.7813 303.6625,392.6563 304.0844,392.3906 C304.2719,392.2969 304.2719,392.2969 304.725,391.8125 C304.9125,391.625 305.1156,391.5469 305.3344,391.5469 C305.8031,391.5469 306.1938,391.9375 306.1938,392.3906 C306.1938,392.7813 305.8656,393.2344 305.2875,393.6406 C304.5375,394.1875 303.3813,394.4844 302.1625,394.4844 C299.2719,394.4844 297.1625,392.5938 297.1625,390.0156 L297.1625,388.8906 C297.1625,386.1719 299.1625,384.0938 301.7875,384.0938 C302.6625,384.0938 303.2563,384.2344 304.1938,384.6719 Z "/><text fill="#000000" font-family="sans-serif" font-size="12" lengthAdjust="spacingAndGlyphs" textLength="79" x="322.15" y="393.1543">DirectoryInfo</text><line style="stroke: #A80036; stroke-width: 1.5;" x1="259.5" x2="431.5" y1="405" y2="405"/><text fill="#000000" font-family="sans-serif" font-size="11" lengthAdjust="spacingAndGlyphs" textLength="162" x="264.5" y="419.2104">Children: List FileSystemInfo</text><line style="stroke: #A80036; stroke-width: 1.5;" x1="259.5" x2="431.5" y1="425.8047" y2="425.8047"/><!--class FileSystemInfo--><rect fill="#FEFECE" filter="url(#f1mt93a7vrveo7)" height="73.6094" id="FileSystemInfo" style="stroke: #A80036; stroke-width: 1.5;" width="122" x="284.5" y="209.5"/><ellipse cx="299.5" cy="225.5" fill="#A9DCDF" rx="11" ry="11" style="stroke: #A80036; stroke-width: 1.0;"/><path d="M301.0781,227.3125 L297.0313,227.3125 L296.6406,228.2969 L297.0313,228.2969 C297.4844,228.2969 297.625,228.3281 297.7969,228.4531 C298.0156,228.625 298.1406,228.875 298.1406,229.1563 C298.1406,229.4375 298,229.7344 297.7344,229.875 C297.6094,229.9688 297.3906,230 297.0313,230 L294.7656,230 C294.0156,230 293.6406,229.7188 293.6406,229.1563 C293.6406,228.8594 293.7969,228.5781 294.0469,228.4219 C294.2031,228.3125 294.3594,228.2969 294.7813,228.2969 L297.4219,221.7813 L296.3438,221.7813 C295.9063,221.7813 295.7344,221.75 295.5625,221.6406 C295.3438,221.4688 295.2031,221.2188 295.2031,220.9375 C295.2031,220.6563 295.3594,220.375 295.6094,220.2031 C295.7656,220.1094 295.8906,220.0938 296.3438,220.0938 L300.0156,220.0938 L303.4063,228.2969 C303.875,228.2969 304.0313,228.3281 304.2031,228.4688 C304.4219,228.625 304.5625,228.875 304.5625,229.1563 C304.5625,229.4375 304.4063,229.7344 304.1563,229.875 C304.0156,229.9688 303.7969,230 303.4375,230 L301.0781,230 C300.6563,230 300.4531,229.9531 300.3125,229.8281 C300.0938,229.6719 299.9531,229.4219 299.9531,229.1563 C299.9531,228.8594 300.1094,228.5781 300.3594,228.4219 C300.5156,228.3125 300.625,228.2969 301.0781,228.2969 L301.4688,228.2969 Z M300.375,225.6094 L299.0469,222.3438 L297.7031,225.6094 Z "/><text fill="#000000" font-family="sans-serif" font-size="12" font-style="italic" lengthAdjust="spacingAndGlyphs" textLength="90" x="313.5" y="229.6543">FileSystemInfo</text><line style="stroke: #A80036; stroke-width: 1.5;" x1="285.5" x2="405.5" y1="241.5" y2="241.5"/><text fill="#000000" font-family="sans-serif" font-size="11" lengthAdjust="spacingAndGlyphs" textLength="40" x="290.5" y="255.7104">FileInfo</text><text fill="#000000" font-family="sans-serif" font-size="11" lengthAdjust="spacingAndGlyphs" textLength="72" x="290.5" y="268.5151">DirectoryInfo</text><line style="stroke: #A80036; stroke-width: 1.5;" x1="285.5" x2="405.5" y1="275.1094" y2="275.1094"/><!--class Gender--><rect fill="#FEFECE" filter="url(#f1mt93a7vrveo7)" height="86.4141" id="Gender" style="stroke: #A80036; stroke-width: 1.5;" width="78" x="497.5" y="21"/><ellipse cx="512.5" cy="37" fill="#EB937F" rx="11" ry="11" style="stroke: #A80036; stroke-width: 1.0;"/><path d="M510.7969,37.875 L510.7969,40.2969 L515.1563,40.2969 L515.1563,39.4219 C515.1563,38.9375 515.1875,38.7969 515.2969,38.6406 C515.4688,38.3906 515.7344,38.2813 516,38.2813 C516.2813,38.2813 516.5625,38.4375 516.7344,38.6875 C516.8125,38.8438 516.8438,38.9844 516.8438,39.4219 L516.8438,42 L508.8438,42 C508.4531,42 508.2188,41.9531 508.0781,41.8281 C507.8594,41.6719 507.7188,41.4219 507.7188,41.1563 C507.7188,40.8594 507.875,40.5938 508.125,40.4219 C508.2813,40.3125 508.4375,40.2969 508.8438,40.2969 L509.0938,40.2969 L509.0938,33.7813 L508.8438,33.7813 C508.4219,33.7813 508.2344,33.75 508.0781,33.6406 C507.8594,33.4688 507.7188,33.2188 507.7188,32.9375 C507.7188,32.6563 507.875,32.3594 508.125,32.2031 C508.2813,32.1094 508.4063,32.0938 508.8438,32.0938 L516.4688,32.0938 L516.4688,34.6406 C516.4688,35.1094 516.4375,35.25 516.3281,35.4219 C516.1563,35.6406 515.8906,35.7813 515.625,35.7813 C515.3438,35.7813 515.0625,35.625 514.8906,35.375 C514.8125,35.2188 514.7813,35.0469 514.7813,34.6406 L514.7813,33.7813 L510.7969,33.7813 L510.7969,36.1875 L512.25,36.1875 L512.25,36.0625 C512.25,35.6094 512.2813,35.4531 512.3906,35.2813 C512.5625,35.0625 512.8281,34.9219 513.0781,34.9219 C513.5313,34.9219 513.8438,35.2344 513.9063,35.7031 C513.9219,35.8594 513.9219,35.9063 513.9219,36.0625 L513.9219,37.9844 C513.9219,38.4375 513.8906,38.5938 513.7656,38.75 C513.6094,38.9688 513.3438,39.1094 513.0938,39.1094 C512.7969,39.1094 512.5156,38.9531 512.3594,38.7031 C512.2813,38.5469 512.25,38.3906 512.25,37.9844 L512.25,37.875 Z "/><text fill="#000000" font-family="sans-serif" font-size="12" lengthAdjust="spacingAndGlyphs" textLength="46" x="526.5" y="41.1543">Gender</text><line style="stroke: #A80036; stroke-width: 1.5;" x1="498.5" x2="574.5" y1="53" y2="53"/><text fill="#000000" font-family="sans-serif" font-size="11" lengthAdjust="spacingAndGlyphs" textLength="26" x="503.5" y="67.2104">Male</text><text fill="#000000" font-family="sans-serif" font-size="11" lengthAdjust="spacingAndGlyphs" textLength="41" x="503.5" y="80.0151">Female</text><text fill="#000000" font-family="sans-serif" font-size="11" lengthAdjust="spacingAndGlyphs" textLength="32" x="503.5" y="92.8198">Other</text><line style="stroke: #A80036; stroke-width: 1.5;" x1="498.5" x2="574.5" y1="99.4141" y2="99.4141"/><!--class Person--><rect fill="#FEFECE" filter="url(#f1mt93a7vrveo7)" height="86.4141" id="Person" style="stroke: #A80036; stroke-width: 1.5;" width="190" x="441.5" y="203.5"/><ellipse cx="510.25" cy="219.5" fill="#ADD1B2" rx="11" ry="11" style="stroke: #A80036; stroke-width: 1.0;"/><path d="M512.5938,215.1719 L512.7656,215.25 C512.9844,214.9375 513.1875,214.8438 513.4844,214.8438 C513.7813,214.8438 514.0625,214.9844 514.2188,215.25 C514.3125,215.4063 514.3281,215.5313 514.3281,215.9688 L514.3281,217.3906 C514.3281,217.8125 514.2969,218 514.1875,218.1563 C514.0156,218.375 513.75,218.5156 513.4844,218.5156 C513.2656,218.5156 513.0313,218.4063 512.8906,218.2656 C512.75,218.1406 512.7188,218.0156 512.6563,217.6094 C512.5625,217.2031 512.3906,216.9844 511.9063,216.7031 C511.4375,216.4531 510.8281,216.2969 510.25,216.2969 C508.5156,216.2969 507.2656,217.6094 507.2656,219.3906 L507.2656,220.4844 C507.2656,222.1875 508.5625,223.2813 510.6094,223.2813 C511.375,223.2813 512.0625,223.1563 512.4844,222.8906 C512.6719,222.7969 512.6719,222.7969 513.125,222.3125 C513.3125,222.125 513.5156,222.0469 513.7344,222.0469 C514.2031,222.0469 514.5938,222.4375 514.5938,222.8906 C514.5938,223.2813 514.2656,223.7344 513.6875,224.1406 C512.9375,224.6875 511.7813,224.9844 510.5625,224.9844 C507.6719,224.9844 505.5625,223.0938 505.5625,220.5156 L505.5625,219.3906 C505.5625,216.6719 507.5625,214.5938 510.1875,214.5938 C511.0625,214.5938 511.6563,214.7344 512.5938,215.1719 Z "/><text fill="#000000" font-family="sans-serif" font-size="12" lengthAdjust="spacingAndGlyphs" textLength="44" x="530.75" y="223.6543">Person</text><line style="stroke: #A80036; stroke-width: 1.5;" x1="442.5" x2="630.5" y1="235.5" y2="235.5"/><text fill="#000000" font-family="sans-serif" font-size="11" lengthAdjust="spacingAndGlyphs" textLength="100" x="447.5" y="249.7104">FirstName: String</text><text fill="#000000" font-family="sans-serif" font-size="11" lengthAdjust="spacingAndGlyphs" textLength="92" x="447.5" y="262.5151">Gender: Gender</text><text fill="#000000" font-family="sans-serif" font-size="11" lengthAdjust="spacingAndGlyphs" textLength="84" x="447.5" y="275.3198">CustomerId: Id</text><text fill="#000000" font-family="sans-serif" font-size="11" font-style="italic" lengthAdjust="spacingAndGlyphs" textLength="86" x="539.5" y="275.3198">from Customer</text><line style="stroke: #A80036; stroke-width: 1.5;" x1="442.5" x2="630.5" y1="281.9141" y2="281.9141"/><!--class Customer--><rect fill="#FEFECE" filter="url(#f1mt93a7vrveo7)" height="60.8047" id="Customer" style="stroke: #A80036; stroke-width: 1.5;" width="96" x="645.5" y="33.5"/><ellipse cx="662.3" cy="49.5" fill="#ADD1B2" rx="11" ry="11" style="stroke: #A80036; stroke-width: 1.0;"/><path d="M664.6438,45.1719 L664.8156,45.25 C665.0344,44.9375 665.2375,44.8438 665.5344,44.8438 C665.8313,44.8438 666.1125,44.9844 666.2688,45.25 C666.3625,45.4063 666.3781,45.5313 666.3781,45.9688 L666.3781,47.3906 C666.3781,47.8125 666.3469,48 666.2375,48.1563 C666.0656,48.375 665.8,48.5156 665.5344,48.5156 C665.3156,48.5156 665.0813,48.4063 664.9406,48.2656 C664.8,48.1406 664.7688,48.0156 664.7063,47.6094 C664.6125,47.2031 664.4406,46.9844 663.9563,46.7031 C663.4875,46.4531 662.8781,46.2969 662.3,46.2969 C660.5656,46.2969 659.3156,47.6094 659.3156,49.3906 L659.3156,50.4844 C659.3156,52.1875 660.6125,53.2813 662.6594,53.2813 C663.425,53.2813 664.1125,53.1563 664.5344,52.8906 C664.7219,52.7969 664.7219,52.7969 665.175,52.3125 C665.3625,52.125 665.5656,52.0469 665.7844,52.0469 C666.2531,52.0469 666.6438,52.4375 666.6438,52.8906 C666.6438,53.2813 666.3156,53.7344 665.7375,54.1406 C664.9875,54.6875 663.8313,54.9844 662.6125,54.9844 C659.7219,54.9844 657.6125,53.0938 657.6125,50.5156 L657.6125,49.3906 C657.6125,46.6719 659.6125,44.5938 662.2375,44.5938 C663.1125,44.5938 663.7063,44.7344 664.6438,45.1719 Z "/><text fill="#000000" font-family="sans-serif" font-size="12" lengthAdjust="spacingAndGlyphs" textLength="60" x="676.7" y="53.6543">Customer</text><line style="stroke: #A80036; stroke-width: 1.5;" x1="646.5" x2="740.5" y1="65.5" y2="65.5"/><text fill="#000000" font-family="sans-serif" font-size="11" lengthAdjust="spacingAndGlyphs" textLength="84" x="651.5" y="79.7104">CustomerId: Id</text><line style="stroke: #A80036; stroke-width: 1.5;" x1="646.5" x2="740.5" y1="86.3047" y2="86.3047"/><!--class Company--><rect fill="#FEFECE" filter="url(#f1mt93a7vrveo7)" height="73.6094" id="Company" style="stroke: #A80036; stroke-width: 1.5;" width="190" x="666.5" y="209.5"/><ellipse cx="728.75" cy="225.5" fill="#ADD1B2" rx="11" ry="11" style="stroke: #A80036; stroke-width: 1.0;"/><path d="M731.0938,221.1719 L731.2656,221.25 C731.4844,220.9375 731.6875,220.8438 731.9844,220.8438 C732.2813,220.8438 732.5625,220.9844 732.7188,221.25 C732.8125,221.4063 732.8281,221.5313 732.8281,221.9688 L732.8281,223.3906 C732.8281,223.8125 732.7969,224 732.6875,224.1563 C732.5156,224.375 732.25,224.5156 731.9844,224.5156 C731.7656,224.5156 731.5313,224.4063 731.3906,224.2656 C731.25,224.1406 731.2188,224.0156 731.1563,223.6094 C731.0625,223.2031 730.8906,222.9844 730.4063,222.7031 C729.9375,222.4531 729.3281,222.2969 728.75,222.2969 C727.0156,222.2969 725.7656,223.6094 725.7656,225.3906 L725.7656,226.4844 C725.7656,228.1875 727.0625,229.2813 729.1094,229.2813 C729.875,229.2813 730.5625,229.1563 730.9844,228.8906 C731.1719,228.7969 731.1719,228.7969 731.625,228.3125 C731.8125,228.125 732.0156,228.0469 732.2344,228.0469 C732.7031,228.0469 733.0938,228.4375 733.0938,228.8906 C733.0938,229.2813 732.7656,229.7344 732.1875,230.1406 C731.4375,230.6875 730.2813,230.9844 729.0625,230.9844 C726.1719,230.9844 724.0625,229.0938 724.0625,226.5156 L724.0625,225.3906 C724.0625,222.6719 726.0625,220.5938 728.6875,220.5938 C729.5625,220.5938 730.1563,220.7344 731.0938,221.1719 Z "/><text fill="#000000" font-family="sans-serif" font-size="12" lengthAdjust="spacingAndGlyphs" textLength="57" x="749.25" y="229.6543">Company</text><line style="stroke: #A80036; stroke-width: 1.5;" x1="667.5" x2="855.5" y1="241.5" y2="241.5"/><text fill="#000000" font-family="sans-serif" font-size="11" lengthAdjust="spacingAndGlyphs" textLength="148" x="672.5" y="255.7104">OrganisationName: String</text><text fill="#000000" font-family="sans-serif" font-size="11" lengthAdjust="spacingAndGlyphs" textLength="84" x="672.5" y="268.5151">CustomerId: Id</text><text fill="#000000" font-family="sans-serif" font-size="11" font-style="italic" lengthAdjust="spacingAndGlyphs" textLength="86" x="764.5" y="268.5151">from Customer</text><line style="stroke: #A80036; stroke-width: 1.5;" x1="667.5" x2="855.5" y1="275.1094" y2="275.1094"/><!--class Envelope--><rect fill="#FEFECE" filter="url(#f1mt93a7vrveo7)" height="99.2188" id="Envelope" style="stroke: #A80036; stroke-width: 1.5;" width="109" x="922" y="197"/><ellipse cx="946" cy="213" fill="#A9DCDF" rx="11" ry="11" style="stroke: #A80036; stroke-width: 1.0;"/><path d="M947.5781,214.8125 L943.5313,214.8125 L943.1406,215.7969 L943.5313,215.7969 C943.9844,215.7969 944.125,215.8281 944.2969,215.9531 C944.5156,216.125 944.6406,216.375 944.6406,216.6563 C944.6406,216.9375 944.5,217.2344 944.2344,217.375 C944.1094,217.4688 943.8906,217.5 943.5313,217.5 L941.2656,217.5 C940.5156,217.5 940.1406,217.2188 940.1406,216.6563 C940.1406,216.3594 940.2969,216.0781 940.5469,215.9219 C940.7031,215.8125 940.8594,215.7969 941.2813,215.7969 L943.9219,209.2813 L942.8438,209.2813 C942.4063,209.2813 942.2344,209.25 942.0625,209.1406 C941.8438,208.9688 941.7031,208.7188 941.7031,208.4375 C941.7031,208.1563 941.8594,207.875 942.1094,207.7031 C942.2656,207.6094 942.3906,207.5938 942.8438,207.5938 L946.5156,207.5938 L949.9063,215.7969 C950.375,215.7969 950.5313,215.8281 950.7031,215.9688 C950.9219,216.125 951.0625,216.375 951.0625,216.6563 C951.0625,216.9375 950.9063,217.2344 950.6563,217.375 C950.5156,217.4688 950.2969,217.5 949.9375,217.5 L947.5781,217.5 C947.1563,217.5 946.9531,217.4531 946.8125,217.3281 C946.5938,217.1719 946.4531,216.9219 946.4531,216.6563 C946.4531,216.3594 946.6094,216.0781 946.8594,215.9219 C947.0156,215.8125 947.125,215.7969 947.5781,215.7969 L947.9688,215.7969 Z M946.875,213.1094 L945.5469,209.8438 L944.2031,213.1094 Z "/><text fill="#000000" font-family="sans-serif" font-size="12" font-style="italic" lengthAdjust="spacingAndGlyphs" textLength="57" x="962" y="217.1543">Envelope</text><line style="stroke: #A80036; stroke-width: 1.5;" x1="923" x2="1030" y1="229" y2="229"/><text fill="#000000" font-family="sans-serif" font-size="11" lengthAdjust="spacingAndGlyphs" textLength="68" x="928" y="243.2104">ApiMessage</text><text fill="#000000" font-family="sans-serif" font-size="11" lengthAdjust="spacingAndGlyphs" textLength="29" x="928" y="256.0151">Error</text><text fill="#000000" font-family="sans-serif" font-size="11" lengthAdjust="spacingAndGlyphs" textLength="12" x="928" y="268.8198">---</text><text fill="#000000" font-family="sans-serif" font-size="11" font-weight="bold" lengthAdjust="spacingAndGlyphs" textLength="72" x="928" y="281.6245">description</text><text fill="#000000" font-family="sans-serif" font-size="11" lengthAdjust="spacingAndGlyphs" textLength="25" x="1000" y="281.6245">: api</text><line style="stroke: #A80036; stroke-width: 1.5;" x1="923" x2="1030" y1="288.2188" y2="288.2188"/><!--class ApiMessage--><rect fill="#FEFECE" filter="url(#f1mt93a7vrveo7)" height="48" id="ApiMessage" style="stroke: #A80036; stroke-width: 1.5;" width="107" x="805" y="40"/><ellipse cx="820" cy="56" fill="#ADD1B2" rx="11" ry="11" style="stroke: #A80036; stroke-width: 1.0;"/><path d="M822.3438,51.6719 L822.5156,51.75 C822.7344,51.4375 822.9375,51.3438 823.2344,51.3438 C823.5313,51.3438 823.8125,51.4844 823.9688,51.75 C824.0625,51.9063 824.0781,52.0313 824.0781,52.4688 L824.0781,53.8906 C824.0781,54.3125 824.0469,54.5 823.9375,54.6563 C823.7656,54.875 823.5,55.0156 823.2344,55.0156 C823.0156,55.0156 822.7813,54.9063 822.6406,54.7656 C822.5,54.6406 822.4688,54.5156 822.4063,54.1094 C822.3125,53.7031 822.1406,53.4844 821.6563,53.2031 C821.1875,52.9531 820.5781,52.7969 820,52.7969 C818.2656,52.7969 817.0156,54.1094 817.0156,55.8906 L817.0156,56.9844 C817.0156,58.6875 818.3125,59.7813 820.3594,59.7813 C821.125,59.7813 821.8125,59.6563 822.2344,59.3906 C822.4219,59.2969 822.4219,59.2969 822.875,58.8125 C823.0625,58.625 823.2656,58.5469 823.4844,58.5469 C823.9531,58.5469 824.3438,58.9375 824.3438,59.3906 C824.3438,59.7813 824.0156,60.2344 823.4375,60.6406 C822.6875,61.1875 821.5313,61.4844 820.3125,61.4844 C817.4219,61.4844 815.3125,59.5938 815.3125,57.0156 L815.3125,55.8906 C815.3125,53.1719 817.3125,51.0938 819.9375,51.0938 C820.8125,51.0938 821.4063,51.2344 822.3438,51.6719 Z "/><text fill="#000000" font-family="sans-serif" font-size="12" lengthAdjust="spacingAndGlyphs" textLength="75" x="834" y="60.1543">ApiMessage</text><line style="stroke: #A80036; stroke-width: 1.5;" x1="806" x2="911" y1="72" y2="72"/><line style="stroke: #A80036; stroke-width: 1.5;" x1="806" x2="911" y1="80" y2="80"/><!--class Error--><rect fill="#FEFECE" filter="url(#f1mt93a7vrveo7)" height="73.6094" id="Error" style="stroke: #A80036; stroke-width: 1.5;" width="117" x="947" y="27"/><ellipse cx="986.3" cy="43" fill="#ADD1B2" rx="11" ry="11" style="stroke: #A80036; stroke-width: 1.0;"/><path d="M988.6438,38.6719 L988.8156,38.75 C989.0344,38.4375 989.2375,38.3438 989.5344,38.3438 C989.8313,38.3438 990.1125,38.4844 990.2688,38.75 C990.3625,38.9063 990.3781,39.0313 990.3781,39.4688 L990.3781,40.8906 C990.3781,41.3125 990.3469,41.5 990.2375,41.6563 C990.0656,41.875 989.8,42.0156 989.5344,42.0156 C989.3156,42.0156 989.0813,41.9063 988.9406,41.7656 C988.8,41.6406 988.7688,41.5156 988.7063,41.1094 C988.6125,40.7031 988.4406,40.4844 987.9563,40.2031 C987.4875,39.9531 986.8781,39.7969 986.3,39.7969 C984.5656,39.7969 983.3156,41.1094 983.3156,42.8906 L983.3156,43.9844 C983.3156,45.6875 984.6125,46.7813 986.6594,46.7813 C987.425,46.7813 988.1125,46.6563 988.5344,46.3906 C988.7219,46.2969 988.7219,46.2969 989.175,45.8125 C989.3625,45.625 989.5656,45.5469 989.7844,45.5469 C990.2531,45.5469 990.6438,45.9375 990.6438,46.3906 C990.6438,46.7813 990.3156,47.2344 989.7375,47.6406 C988.9875,48.1875 987.8313,48.4844 986.6125,48.4844 C983.7219,48.4844 981.6125,46.5938 981.6125,44.0156 L981.6125,42.8906 C981.6125,40.1719 983.6125,38.0938 986.2375,38.0938 C987.1125,38.0938 987.7063,38.2344 988.6438,38.6719 Z "/><text fill="#000000" font-family="sans-serif" font-size="12" lengthAdjust="spacingAndGlyphs" textLength="31" x="1005.7" y="47.1543">Error</text><line style="stroke: #A80036; stroke-width: 1.5;" x1="948" x2="1063" y1="59" y2="59"/><text fill="#000000" font-family="sans-serif" font-size="11" lengthAdjust="spacingAndGlyphs" textLength="105" x="953" y="73.2104">HttpCode: Number</text><text fill="#000000" font-family="sans-serif" font-size="11" lengthAdjust="spacingAndGlyphs" textLength="93" x="953" y="86.0151">Message: String</text><line style="stroke: #A80036; stroke-width: 1.5;" x1="948" x2="1063" y1="92.6094" y2="92.6094"/><!--class Message--><rect fill="#FEFECE" filter="url(#f1mt93a7vrveo7)" height="86.4141" id="Message" style="stroke: #A80036; stroke-width: 1.5;" width="117" x="131" y="21"/><ellipse cx="159.05" cy="37" fill="#ADD1B2" rx="11" ry="11" style="stroke: #A80036; stroke-width: 1.0;"/><path d="M161.3938,32.6719 L161.5656,32.75 C161.7844,32.4375 161.9875,32.3438 162.2844,32.3438 C162.5813,32.3438 162.8625,32.4844 163.0188,32.75 C163.1125,32.9063 163.1281,33.0313 163.1281,33.4688 L163.1281,34.8906 C163.1281,35.3125 163.0969,35.5 162.9875,35.6563 C162.8156,35.875 162.55,36.0156 162.2844,36.0156 C162.0656,36.0156 161.8313,35.9063 161.6906,35.7656 C161.55,35.6406 161.5188,35.5156 161.4563,35.1094 C161.3625,34.7031 161.1906,34.4844 160.7063,34.2031 C160.2375,33.9531 159.6281,33.7969 159.05,33.7969 C157.3156,33.7969 156.0656,35.1094 156.0656,36.8906 L156.0656,37.9844 C156.0656,39.6875 157.3625,40.7813 159.4094,40.7813 C160.175,40.7813 160.8625,40.6563 161.2844,40.3906 C161.4719,40.2969 161.4719,40.2969 161.925,39.8125 C162.1125,39.625 162.3156,39.5469 162.5344,39.5469 C163.0031,39.5469 163.3938,39.9375 163.3938,40.3906 C163.3938,40.7813 163.0656,41.2344 162.4875,41.6406 C161.7375,42.1875 160.5813,42.4844 159.3625,42.4844 C156.4719,42.4844 154.3625,40.5938 154.3625,38.0156 L154.3625,36.8906 C154.3625,34.1719 156.3625,32.0938 158.9875,32.0938 C159.8625,32.0938 160.4563,32.2344 161.3938,32.6719 Z "/><text fill="#000000" font-family="sans-serif" font-size="12" lengthAdjust="spacingAndGlyphs" textLength="56" x="175.95" y="41.1543">Message</text><line style="stroke: #A80036; stroke-width: 1.5;" x1="132" x2="247" y1="53" y2="53"/><text fill="#000000" font-family="sans-serif" font-size="11" lengthAdjust="spacingAndGlyphs" textLength="105" x="137" y="67.2104">HttpCode: Number</text><text fill="#000000" font-family="sans-serif" font-size="11" lengthAdjust="spacingAndGlyphs" textLength="93" x="137" y="80.0151">Message: String</text><text fill="#000000" font-family="sans-serif" font-size="11" lengthAdjust="spacingAndGlyphs" textLength="43" x="137" y="92.8198">Body: a</text><line style="stroke: #A80036; stroke-width: 1.5;" x1="132" x2="247" y1="99.4141" y2="99.4141"/><!--class OtherCustomer--><rect fill="#FEFECE" filter="url(#f1mt93a7vrveo7)" height="86.4141" id="OtherCustomer" style="stroke: #A80036; stroke-width: 1.5;" width="127" x="6" y="203.5"/><ellipse cx="21" cy="219.5" fill="#ADD1B2" rx="11" ry="11" style="stroke: #A80036; stroke-width: 1.0;"/><path d="M23.3438,215.1719 L23.5156,215.25 C23.7344,214.9375 23.9375,214.8438 24.2344,214.8438 C24.5313,214.8438 24.8125,214.9844 24.9688,215.25 C25.0625,215.4063 25.0781,215.5313 25.0781,215.9688 L25.0781,217.3906 C25.0781,217.8125 25.0469,218 24.9375,218.1563 C24.7656,218.375 24.5,218.5156 24.2344,218.5156 C24.0156,218.5156 23.7813,218.4063 23.6406,218.2656 C23.5,218.1406 23.4688,218.0156 23.4063,217.6094 C23.3125,217.2031 23.1406,216.9844 22.6563,216.7031 C22.1875,216.4531 21.5781,216.2969 21,216.2969 C19.2656,216.2969 18.0156,217.6094 18.0156,219.3906 L18.0156,220.4844 C18.0156,222.1875 19.3125,223.2813 21.3594,223.2813 C22.125,223.2813 22.8125,223.1563 23.2344,222.8906 C23.4219,222.7969 23.4219,222.7969 23.875,222.3125 C24.0625,222.125 24.2656,222.0469 24.4844,222.0469 C24.9531,222.0469 25.3438,222.4375 25.3438,222.8906 C25.3438,223.2813 25.0156,223.7344 24.4375,224.1406 C23.6875,224.6875 22.5313,224.9844 21.3125,224.9844 C18.4219,224.9844 16.3125,223.0938 16.3125,220.5156 L16.3125,219.3906 C16.3125,216.6719 18.3125,214.5938 20.9375,214.5938 C21.8125,214.5938 22.4063,214.7344 23.3438,215.1719 Z "/><text fill="#000000" font-family="sans-serif" font-size="12" lengthAdjust="spacingAndGlyphs" textLength="95" x="35" y="223.6543">OtherCustomer</text><line style="stroke: #A80036; stroke-width: 1.5;" x1="7" x2="132" y1="235.5" y2="235.5"/><text fill="#000000" font-family="sans-serif" font-size="11" lengthAdjust="spacingAndGlyphs" textLength="103" x="12" y="249.7104">Something: String</text><text fill="#000000" font-family="sans-serif" font-size="11" lengthAdjust="spacingAndGlyphs" textLength="84" x="12" y="262.5151">CustomerId: Id</text><text fill="#000000" font-family="sans-serif" font-size="11" lengthAdjust="spacingAndGlyphs" textLength="76" x="12" y="275.3198">Size: Number</text><line style="stroke: #A80036; stroke-width: 1.5;" x1="7" x2="132" y1="281.9141" y2="281.9141"/><!--link FileSystemInfo to DirectoryInfo--><path d="M285.325,283.607 C265.614,300.287 251.311,321.212 262.5,343 C267.651,353.0298 275.364,361.7482 284.05,369.1879 " fill="none" id="FileSystemInfo-DirectoryInfo" style="stroke: #A80036; stroke-width: 1.0;"/><polygon fill="#A80036" points="288.384,372.7375,283.9541,363.9411,284.5152,369.5701,278.8863,370.1312,288.384,372.7375" style="stroke: #A80036; stroke-width: 1.0;"/><text fill="#000000" font-family="sans-serif" font-size="13" lengthAdjust="spacingAndGlyphs" textLength="119" x="263.5" y="339.0669">List FileSystemInfo</text><text fill="#000000" font-family="sans-serif" font-size="13" lengthAdjust="spacingAndGlyphs" textLength="8" x="268.3004" y="301.9836">0</text><text fill="#000000" font-family="sans-serif" font-size="13" lengthAdjust="spacingAndGlyphs" textLength="7" x="268.882" y="361.9466">*</text><!--link DirectoryInfo to FileSystemInfo--><path d="M371.674,372.9608 C378.119,363.9505 384.134,353.6055 387.5,343 C393.36,324.537 386.994,304.834 377.594,288.148 " fill="none" id="DirectoryInfo-FileSystemInfo" style="stroke: #A80036; stroke-width: 1.0;"/><polygon fill="#A80036" points="374.87,283.526,375.9924,293.3107,377.4082,287.8339,382.885,289.2496,374.87,283.526" style="stroke: #A80036; stroke-width: 1.0;"/><text fill="#000000" font-family="sans-serif" font-size="13" lengthAdjust="spacingAndGlyphs" textLength="81" x="391.5" y="339.0669">DirectoryInfo</text><!--link FileInfo to FileSystemInfo--><path d="M345.5,120.137 C345.5,147.238 345.5,179.344 345.5,204.28 " fill="none" id="FileInfo-FileSystemInfo" style="stroke: #A80036; stroke-width: 1.0;"/><polygon fill="#A80036" points="345.5,209.488,349.5,200.488,345.5,204.488,341.5,200.488,345.5,209.488" style="stroke: #A80036; stroke-width: 1.0;"/><text fill="#000000" font-family="sans-serif" font-size="13" lengthAdjust="spacingAndGlyphs" textLength="44" x="346.5" y="163.0669">FileInfo</text><!--link Gender to Person--><path d="M536.5,107.319 C536.5,134.589 536.5,170.085 536.5,198.272 " fill="none" id="Gender-Person" style="stroke: #A80036; stroke-width: 1.0;"/><polygon fill="#A80036" points="536.5,203.446,540.5,194.446,536.5,198.446,532.5,194.446,536.5,203.446" style="stroke: #A80036; stroke-width: 1.0;"/><text fill="#000000" font-family="sans-serif" font-size="13" lengthAdjust="spacingAndGlyphs" textLength="47" x="537.5" y="163.0669">Gender</text><!--link Customer to Person--><path d="M667.575,94.806 C645.521,120.161 613.221,157.296 586.203,188.357 " fill="none" id="Customer-Person" style="stroke: #A80036; stroke-width: 1.0;"/><polygon fill="none" points="591.444,192.998,573.037,203.494,580.881,183.81,591.444,192.998" style="stroke: #A80036; stroke-width: 1.0;"/><!--link Customer to Company--><path d="M704.729,94.806 C714.492,120.72 728.89,158.94 740.743,190.403 " fill="none" id="Customer-Company" style="stroke: #A80036; stroke-width: 1.0;"/><polygon fill="none" points="747.41,188.244,747.91,209.427,734.309,193.179,747.41,188.244" style="stroke: #A80036; stroke-width: 1.0;"/><!--link ApiMessage to Envelope--><path d="M865.831,88.025 C873.249,109.483 885.973,141.86 902.5,167 C908.247,175.742 915.01,184.407 922.071,192.611 " fill="none" id="ApiMessage-Envelope" style="stroke: #A80036; stroke-width: 1.0;"/><polygon fill="#A80036" points="925.558,196.6,922.6451,187.1918,922.2668,192.836,916.6226,192.4577,925.558,196.6" style="stroke: #A80036; stroke-width: 1.0;"/><text fill="#000000" font-family="sans-serif" font-size="13" lengthAdjust="spacingAndGlyphs" textLength="77" x="903.5" y="163.0669">ApiMessage</text><!--link Error to Envelope--><path d="M999.701,101.093 C995.529,127.06 989.832,162.518 985.128,191.8 " fill="none" id="Error-Envelope" style="stroke: #A80036; stroke-width: 1.0;"/><polygon fill="#A80036" points="984.322,196.817,989.7008,188.5666,985.1162,191.8805,981.8023,187.2959,984.322,196.817" style="stroke: #A80036; stroke-width: 1.0;"/><text fill="#000000" font-family="sans-serif" font-size="13" lengthAdjust="spacingAndGlyphs" textLength="31" x="992.5" y="163.0669">Error</text><!--link List to Message--><!--link List to OtherCustomer--><!--
@startuml
class List {
}
class FileInfo {
	Size: Number 
	LastModified: String 
	FullPath: String 
	CreatedBy: Author 
	ModifiedBy: Author 
}
class DirectoryInfo {
	Children: List FileSystemInfo
}
FileSystemInfo "0" - -> "*" DirectoryInfo : List FileSystemInfo
abstract FileSystemInfo {
	FileInfo
	DirectoryInfo
}
FileInfo - -> FileSystemInfo : FileInfo
DirectoryInfo - -> FileSystemInfo : DirectoryInfo
enum Gender {
	Male
	Female
	Other
}
class Person {
	FirstName: String 
	Gender: Gender 
	CustomerId: Id  <i>from Customer</i>
}
Gender - -> Person : Gender
Customer - -|> Person
class Company {
	OrganisationName: String 
	CustomerId: Id  <i>from Customer</i>
}
Customer - -|> Company
class Customer {
	CustomerId: Id 
}
abstract Envelope {
	ApiMessage
	Error
  - - -
  <b>description</b>: api
    
}
ApiMessage - -> Envelope : ApiMessage
Error - -> Envelope : Error
class Message {
	HttpCode: Number 
	Message: String 
	Body: a 
}
class OtherCustomer {
	Something: String 
	CustomerId: Id 
	Size: Number 
}
class Error {
	HttpCode: Number 
	Message: String 
}
@enduml

PlantUML version 1.2019.03(Sun Mar 10 11:04:44 UTC 2019)
(GPL source distribution)
Java Runtime: Java(TM) SE Runtime Environment
JVM: Java HotSpot(TM) 64-Bit Server VM
Java Version: 1.7.0_25-b15
Operating System: Linux
Default Encoding: UTF-8
Language: en
Country: US
--></g></svg>