<?xml version="1.0" encoding="UTF-8" standalone="no"?><svg xmlns="http://www.w3.org/2000/svg" xmlns:xlink="http://www.w3.org/1999/xlink" contentScriptType="application/ecmascript" contentStyleType="text/css" height="419px" preserveAspectRatio="none" style="width:305px;height:419px;" version="1.1" viewBox="0 0 305 419" width="305px" zoomAndPan="magnify"><defs><filter height="300%" id="fj7tfh0jjht60" width="300%" x="-1" y="-1"><feGaussianBlur result="blurOut" stdDeviation="2.0"/><feColorMatrix in="blurOut" result="blurOut2" type="matrix" values="0 0 0 0 0 0 0 0 0 0 0 0 0 0 0 0 0 0 .4 0"/><feOffset dx="4.0" dy="4.0" in="blurOut2" result="blurOut3"/><feBlend in="SourceGraphic" in2="blurOut3" mode="normal"/></filter></defs><g><!--class List--><rect fill="#FEFECE" filter="url(#fj7tfh0jjht60)" height="48" id="List" style="stroke: #A80036; stroke-width: 1.5;" width="65" x="6" y="40"/><ellipse cx="21" cy="56" fill="#DA70D6" rx="11" ry="11" style="stroke: #A80036; stroke-width: 1.0;"/><path d="M21.4375,53.5313 L21.4375,60.0469 L22.5625,60.0469 C23.0156,60.0469 23.1563,60.0781 23.3125,60.2031 C23.5469,60.375 23.6719,60.625 23.6719,60.9063 C23.6719,61.1875 23.5313,61.4844 23.2656,61.625 C23.1563,61.7031 22.8906,61.75 22.5625,61.75 L18.625,61.75 C18.2344,61.75 18.0156,61.7031 17.8594,61.5781 C17.6406,61.4219 17.5,61.1563 17.5,60.9063 C17.5,60.6094 17.6563,60.3281 17.9063,60.1719 C18.0625,60.0625 18.1875,60.0469 18.625,60.0469 L19.7344,60.0469 L19.7344,53.5313 L17.9063,53.5313 L17.9063,55.125 C17.9063,55.5781 17.875,55.7188 17.7656,55.8906 C17.5938,56.1094 17.3438,56.2344 17.0625,56.2344 C16.7813,56.2344 16.4844,56.0938 16.3281,55.8281 C16.25,55.6875 16.2188,55.5156 16.2188,55.125 L16.2188,51.8438 L24.9844,51.8438 L24.9844,55.125 C24.9844,55.5938 24.9688,55.7188 24.8281,55.8906 C24.6563,56.1094 24.4063,56.2344 24.1406,56.2344 C23.8438,56.2344 23.5625,56.0781 23.4063,55.8281 C23.3125,55.6875 23.2813,55.5156 23.2813,55.125 L23.2813,53.5313 Z "/><text fill="#000000" font-family="sans-serif" font-size="12" lengthAdjust="spacingAndGlyphs" textLength="33" x="35" y="60.1543">List a</text><line style="stroke: #A80036; stroke-width: 1.5;" x1="7" x2="70" y1="72" y2="72"/><line style="stroke: #A80036; stroke-width: 1.5;" x1="7" x2="70" y1="80" y2="80"/><!--class FileInfo--><rect fill="#FEFECE" filter="url(#fj7tfh0jjht60)" height="112.0234" id="FileInfo" style="stroke: #A80036; stroke-width: 1.5;" width="125" x="106" y="8"/><ellipse cx="143.05" cy="24" fill="#ADD1B2" rx="11" ry="11" style="stroke: #A80036; stroke-width: 1.0;"/><path d="M145.3938,19.6719 L145.5656,19.75 C145.7844,19.4375 145.9875,19.3438 146.2844,19.3438 C146.5813,19.3438 146.8625,19.4844 147.0188,19.75 C147.1125,19.9063 147.1281,20.0313 147.1281,20.4688 L147.1281,21.8906 C147.1281,22.3125 147.0969,22.5 146.9875,22.6563 C146.8156,22.875 146.55,23.0156 146.2844,23.0156 C146.0656,23.0156 145.8313,22.9063 145.6906,22.7656 C145.55,22.6406 145.5188,22.5156 145.4563,22.1094 C145.3625,21.7031 145.1906,21.4844 144.7063,21.2031 C144.2375,20.9531 143.6281,20.7969 143.05,20.7969 C141.3156,20.7969 140.0656,22.1094 140.0656,23.8906 L140.0656,24.9844 C140.0656,26.6875 141.3625,27.7813 143.4094,27.7813 C144.175,27.7813 144.8625,27.6563 145.2844,27.3906 C145.4719,27.2969 145.4719,27.2969 145.925,26.8125 C146.1125,26.625 146.3156,26.5469 146.5344,26.5469 C147.0031,26.5469 147.3938,26.9375 147.3938,27.3906 C147.3938,27.7813 147.0656,28.2344 146.4875,28.6406 C145.7375,29.1875 144.5813,29.4844 143.3625,29.4844 C140.4719,29.4844 138.3625,27.5938 138.3625,25.0156 L138.3625,23.8906 C138.3625,21.1719 140.3625,19.0938 142.9875,19.0938 C143.8625,19.0938 144.4563,19.2344 145.3938,19.6719 Z "/><text fill="#000000" font-family="sans-serif" font-size="12" lengthAdjust="spacingAndGlyphs" textLength="44" x="161.95" y="28.1543">FileInfo</text><line style="stroke: #A80036; stroke-width: 1.5;" x1="107" x2="230" y1="40" y2="40"/><text fill="#000000" font-family="sans-serif" font-size="11" lengthAdjust="spacingAndGlyphs" textLength="76" x="112" y="54.2104">Size: Number</text><text fill="#000000" font-family="sans-serif" font-size="11" lengthAdjust="spacingAndGlyphs" textLength="113" x="112" y="67.0151">LastModified: String</text><text fill="#000000" font-family="sans-serif" font-size="11" lengthAdjust="spacingAndGlyphs" textLength="86" x="112" y="79.8198">FullPath: String</text><text fill="#000000" font-family="sans-serif" font-size="11" lengthAdjust="spacingAndGlyphs" textLength="104" x="112" y="92.6245">CreatedBy: Author</text><text fill="#000000" font-family="sans-serif" font-size="11" lengthAdjust="spacingAndGlyphs" textLength="106" x="112" y="105.4292">ModifiedBy: Author</text><line style="stroke: #A80036; stroke-width: 1.5;" x1="107" x2="230" y1="112.0234" y2="112.0234"/><!--class DirectoryInfo--><rect fill="#FEFECE" filter="url(#fj7tfh0jjht60)" height="60.8047" id="DirectoryInfo" style="stroke: #A80036; stroke-width: 1.5;" width="174" x="81.5" y="348"/><ellipse cx="124.85" cy="364" fill="#ADD1B2" rx="11" ry="11" style="stroke: #A80036; stroke-width: 1.0;"/><path d="M127.1938,359.6719 L127.3656,359.75 C127.5844,359.4375 127.7875,359.3438 128.0844,359.3438 C128.3813,359.3438 128.6625,359.4844 128.8188,359.75 C128.9125,359.9063 128.9281,360.0313 128.9281,360.4688 L128.9281,361.8906 C128.9281,362.3125 128.8969,362.5 128.7875,362.6563 C128.6156,362.875 128.35,363.0156 128.0844,363.0156 C127.8656,363.0156 127.6313,362.9063 127.4906,362.7656 C127.35,362.6406 127.3188,362.5156 127.2563,362.1094 C127.1625,361.7031 126.9906,361.4844 126.5063,361.2031 C126.0375,360.9531 125.4281,360.7969 124.85,360.7969 C123.1156,360.7969 121.8656,362.1094 121.8656,363.8906 L121.8656,364.9844 C121.8656,366.6875 123.1625,367.7813 125.2094,367.7813 C125.975,367.7813 126.6625,367.6563 127.0844,367.3906 C127.2719,367.2969 127.2719,367.2969 127.725,366.8125 C127.9125,366.625 128.1156,366.5469 128.3344,366.5469 C128.8031,366.5469 129.1938,366.9375 129.1938,367.3906 C129.1938,367.7813 128.8656,368.2344 128.2875,368.6406 C127.5375,369.1875 126.3813,369.4844 125.1625,369.4844 C122.2719,369.4844 120.1625,367.5938 120.1625,365.0156 L120.1625,363.8906 C120.1625,361.1719 122.1625,359.0938 124.7875,359.0938 C125.6625,359.0938 126.2563,359.2344 127.1938,359.6719 Z "/><text fill="#000000" font-family="sans-serif" font-size="12" lengthAdjust="spacingAndGlyphs" textLength="79" x="145.15" y="368.1543">DirectoryInfo</text><line style="stroke: #A80036; stroke-width: 1.5;" x1="82.5" x2="254.5" y1="380" y2="380"/><text fill="#000000" font-family="sans-serif" font-size="11" lengthAdjust="spacingAndGlyphs" textLength="162" x="87.5" y="394.2104">Children: List FileSystemInfo</text><line style="stroke: #A80036; stroke-width: 1.5;" x1="82.5" x2="254.5" y1="400.8047" y2="400.8047"/><!--class FileSystemInfo--><rect fill="#FEFECE" filter="url(#fj7tfh0jjht60)" height="73.6094" id="FileSystemInfo" style="stroke: #A80036; stroke-width: 1.5;" width="122" x="107.5" y="197"/><ellipse cx="122.5" cy="213" fill="#A9DCDF" rx="11" ry="11" style="stroke: #A80036; stroke-width: 1.0;"/><path d="M124.0781,214.8125 L120.0313,214.8125 L119.6406,215.7969 L120.0313,215.7969 C120.4844,215.7969 120.625,215.8281 120.7969,215.9531 C121.0156,216.125 121.1406,216.375 121.1406,216.6563 C121.1406,216.9375 121,217.2344 120.7344,217.375 C120.6094,217.4688 120.3906,217.5 120.0313,217.5 L117.7656,217.5 C117.0156,217.5 116.6406,217.2188 116.6406,216.6563 C116.6406,216.3594 116.7969,216.0781 117.0469,215.9219 C117.2031,215.8125 117.3594,215.7969 117.7813,215.7969 L120.4219,209.2813 L119.3438,209.2813 C118.9063,209.2813 118.7344,209.25 118.5625,209.1406 C118.3438,208.9688 118.2031,208.7188 118.2031,208.4375 C118.2031,208.1563 118.3594,207.875 118.6094,207.7031 C118.7656,207.6094 118.8906,207.5938 119.3438,207.5938 L123.0156,207.5938 L126.4063,215.7969 C126.875,215.7969 127.0313,215.8281 127.2031,215.9688 C127.4219,216.125 127.5625,216.375 127.5625,216.6563 C127.5625,216.9375 127.4063,217.2344 127.1563,217.375 C127.0156,217.4688 126.7969,217.5 126.4375,217.5 L124.0781,217.5 C123.6563,217.5 123.4531,217.4531 123.3125,217.3281 C123.0938,217.1719 122.9531,216.9219 122.9531,216.6563 C122.9531,216.3594 123.1094,216.0781 123.3594,215.9219 C123.5156,215.8125 123.625,215.7969 124.0781,215.7969 L124.4688,215.7969 Z M123.375,213.1094 L122.0469,209.8438 L120.7031,213.1094 Z "/><text fill="#000000" font-family="sans-serif" font-size="12" font-style="italic" lengthAdjust="spacingAndGlyphs" textLength="90" x="136.5" y="217.1543">FileSystemInfo</text><line style="stroke: #A80036; stroke-width: 1.5;" x1="108.5" x2="228.5" y1="229" y2="229"/><text fill="#000000" font-family="sans-serif" font-size="11" lengthAdjust="spacingAndGlyphs" textLength="40" x="113.5" y="243.2104">FileInfo</text><text fill="#000000" font-family="sans-serif" font-size="11" lengthAdjust="spacingAndGlyphs" textLength="72" x="113.5" y="256.0151">DirectoryInfo</text><line style="stroke: #A80036; stroke-width: 1.5;" x1="108.5" x2="228.5" y1="262.6094" y2="262.6094"/><!--link FileSystemInfo to DirectoryInfo--><path d="M107.272,266.517 C88.6472,280.591 75.4459,298.422 85.5,318 C90.6507,328.0298 98.3642,336.7482 107.05,344.1879 " fill="none" id="FileSystemInfo-DirectoryInfo" style="stroke: #A80036; stroke-width: 1.0;"/><polygon fill="#A80036" points="111.384,347.7375,106.9541,338.9411,107.5152,344.5701,101.8863,345.1312,111.384,347.7375" style="stroke: #A80036; stroke-width: 1.0;"/><text fill="#000000" font-family="sans-serif" font-size="13" lengthAdjust="spacingAndGlyphs" textLength="119" x="86.5" y="314.0669">List FileSystemInfo</text><text fill="#000000" font-family="sans-serif" font-size="13" lengthAdjust="spacingAndGlyphs" textLength="8" x="91.3218" y="266.6647">0</text><text fill="#000000" font-family="sans-serif" font-size="13" lengthAdjust="spacingAndGlyphs" textLength="7" x="91.8823" y="336.9466">*</text><!--link DirectoryInfo to FileSystemInfo--><path d="M194.674,347.9608 C201.119,338.9505 207.134,328.6055 210.5,318 C215.065,303.617 210.702,288.677 203.321,275.501 " fill="none" id="DirectoryInfo-FileSystemInfo" style="stroke: #A80036; stroke-width: 1.0;"/><polygon fill="#A80036" points="200.711,271.104,201.866,280.8849,203.2635,275.4034,208.745,276.8009,200.711,271.104" style="stroke: #A80036; stroke-width: 1.0;"/><text fill="#000000" font-family="sans-serif" font-size="13" lengthAdjust="spacingAndGlyphs" textLength="81" x="212.5" y="314.0669">DirectoryInfo</text><!--link FileInfo to FileSystemInfo--><path d="M168.5,120.009 C168.5,143.398 168.5,170.204 168.5,191.836 " fill="none" id="FileInfo-FileSystemInfo" style="stroke: #A80036; stroke-width: 1.0;"/><polygon fill="#A80036" points="168.5,196.934,172.5,187.934,168.5,191.934,164.5,187.934,168.5,196.934" style="stroke: #A80036; stroke-width: 1.0;"/><text fill="#000000" font-family="sans-serif" font-size="13" lengthAdjust="spacingAndGlyphs" textLength="44" x="169.5" y="163.0669">FileInfo</text><!--
@startuml
class "List a" as List << (T,orchid) >> {
}
class "FileInfo" as FileInfo  {
	Size: Number 
	LastModified: String 
	FullPath: String 
	CreatedBy: Author 
	ModifiedBy: Author 
}
class "DirectoryInfo" as DirectoryInfo  {
	Children: List FileSystemInfo
}
FileSystemInfo "0" - -> "*" DirectoryInfo : List FileSystemInfo
abstract "FileSystemInfo" as FileSystemInfo {
	FileInfo 
	DirectoryInfo 
}
FileInfo - -> FileSystemInfo : FileInfo
DirectoryInfo - -> FileSystemInfo : DirectoryInfo
@enduml

PlantUML version 1.2019.03(Sun Mar 10 11:04:44 UTC 2019)
(GPL source distribution)
Java Runtime: Java(TM) SE Runtime Environment
JVM: Java HotSpot(TM) 64-Bit Server VM
Java Version: 1.7.0_25-b15
Operating System: Linux
Default Encoding: UTF-8
Language: en
Country: US
--></g></svg>