<?xml version="1.0" encoding="UTF-8" standalone="no"?><svg xmlns="http://www.w3.org/2000/svg" xmlns:xlink="http://www.w3.org/1999/xlink" contentScriptType="application/ecmascript" contentStyleType="text/css" height="105px" preserveAspectRatio="none" style="width:234px;height:105px;" version="1.1" viewBox="0 0 234 105" width="234px" zoomAndPan="magnify"><defs><filter height="300%" id="fa2p3jw3ea5dn" width="300%" x="-1" y="-1"><feGaussianBlur result="blurOut" stdDeviation="2.0"/><feColorMatrix in="blurOut" result="blurOut2" type="matrix" values="0 0 0 0 0 0 0 0 0 0 0 0 0 0 0 0 0 0 .4 0"/><feOffset dx="4.0" dy="4.0" in="blurOut2" result="blurOut3"/><feBlend in="SourceGraphic" in2="blurOut3" mode="normal"/></filter></defs><g><!--class Company--><rect fill="#FEFECE" filter="url(#fa2p3jw3ea5dn)" height="86.4141" id="Company" style="stroke: #A80036; stroke-width: 1.5;" width="214" x="6" y="8"/><ellipse cx="47.1" cy="24" fill="#ADD1B2" rx="11" ry="11" style="stroke: #A80036; stroke-width: 1.0;"/><path d="M49.4438,19.6719 L49.6156,19.75 C49.8344,19.4375 50.0375,19.3438 50.3344,19.3438 C50.6313,19.3438 50.9125,19.4844 51.0688,19.75 C51.1625,19.9063 51.1781,20.0313 51.1781,20.4688 L51.1781,21.8906 C51.1781,22.3125 51.1469,22.5 51.0375,22.6563 C50.8656,22.875 50.6,23.0156 50.3344,23.0156 C50.1156,23.0156 49.8813,22.9063 49.7406,22.7656 C49.6,22.6406 49.5688,22.5156 49.5063,22.1094 C49.4125,21.7031 49.2406,21.4844 48.7563,21.2031 C48.2875,20.9531 47.6781,20.7969 47.1,20.7969 C45.3656,20.7969 44.1156,22.1094 44.1156,23.8906 L44.1156,24.9844 C44.1156,26.6875 45.4125,27.7813 47.4594,27.7813 C48.225,27.7813 48.9125,27.6563 49.3344,27.3906 C49.5219,27.2969 49.5219,27.2969 49.975,26.8125 C50.1625,26.625 50.3656,26.5469 50.5844,26.5469 C51.0531,26.5469 51.4438,26.9375 51.4438,27.3906 C51.4438,27.7813 51.1156,28.2344 50.5375,28.6406 C49.7875,29.1875 48.6313,29.4844 47.4125,29.4844 C44.5219,29.4844 42.4125,27.5938 42.4125,25.0156 L42.4125,23.8906 C42.4125,21.1719 44.4125,19.0938 47.0375,19.0938 C47.9125,19.0938 48.5063,19.2344 49.4438,19.6719 Z "/><text fill="#000000" font-family="sans-serif" font-size="12" lengthAdjust="spacingAndGlyphs" textLength="57" x="66.9" y="28.1543">Company</text><rect fill="#FFFFFF" height="15.9688" style="stroke: #000000; stroke-width: 1.0; stroke-dasharray: 2.0,2.0;" width="61" x="162" y="5"/><text fill="#000000" font-family="sans-serif" font-size="12" font-style="italic" lengthAdjust="spacingAndGlyphs" textLength="59" x="163" y="17.1387">Customer</text><line style="stroke: #A80036; stroke-width: 1.5;" x1="7" x2="219" y1="40" y2="40"/><text fill="#000000" font-family="sans-serif" font-size="11" lengthAdjust="spacingAndGlyphs" textLength="148" x="12" y="54.2104">OrganisationName: String</text><text fill="#000000" font-family="sans-serif" font-size="11" lengthAdjust="spacingAndGlyphs" textLength="84" x="12" y="67.0151">CustomerId: Id</text><text fill="#000000" font-family="sans-serif" font-size="11" font-style="italic" lengthAdjust="spacingAndGlyphs" textLength="86" x="104" y="67.0151">from Customer</text><text fill="#000000" font-family="sans-serif" font-size="11" lengthAdjust="spacingAndGlyphs" textLength="108" x="12" y="79.8198">VATNumber: String</text><text fill="#000000" font-family="sans-serif" font-size="11" font-style="italic" lengthAdjust="spacingAndGlyphs" textLength="86" x="128" y="79.8198">from Customer</text><line style="stroke: #A80036; stroke-width: 1.5;" x1="7" x2="219" y1="86.4141" y2="86.4141"/><!--
@startuml
class "Company " as Company <Customer> {
	OrganisationName: String 
	CustomerId: Id  <i>from Customer</i>
	VATNumber: String  <i>from Customer</i>
}
@enduml

PlantUML version 1.2019.07beta1(Unknown compile time)
(GPL source distribution)
Java Runtime: Java(TM) SE Runtime Environment
JVM: Java HotSpot(TM) 64-Bit Server VM
Java Version: 1.7.0_25-b15
Operating System: Linux
Default Encoding: UTF-8
Language: en
Country: US
--></g></svg>