<?xml version="1.0" encoding="UTF-8" standalone="no"?><svg xmlns="http://www.w3.org/2000/svg" xmlns:xlink="http://www.w3.org/1999/xlink" contentScriptType="application/ecmascript" contentStyleType="text/css" height="323px" preserveAspectRatio="none" style="width:483px;height:323px;" version="1.1" viewBox="0 0 483 323" width="483px" zoomAndPan="magnify"><defs><filter height="300%" id="f1e26xopnmywpu" width="300%" x="-1" y="-1"><feGaussianBlur result="blurOut" stdDeviation="2.0"/><feColorMatrix in="blurOut" result="blurOut2" type="matrix" values="0 0 0 0 0 0 0 0 0 0 0 0 0 0 0 0 0 0 .4 0"/><feOffset dx="4.0" dy="4.0" in="blurOut2" result="blurOut3"/><feBlend in="SourceGraphic" in2="blurOut3" mode="normal"/></filter></defs><g><text fill="#000000" font-family="sans-serif" font-size="18" lengthAdjust="spacingAndGlyphs" textLength="86" x="200.5" y="16.708">Customer</text><!--class Person--><rect fill="#FEFECE" filter="url(#f1e26xopnmywpu)" height="124.8281" id="Person" style="stroke: #A80036; stroke-width: 1.5;" width="214" x="6" y="187.9531"/><ellipse cx="53.25" cy="203.9531" fill="#ADD1B2" rx="11" ry="11" style="stroke: #A80036; stroke-width: 1.0;"/><path d="M55.5938,199.625 L55.7656,199.7031 C55.9844,199.3906 56.1875,199.2969 56.4844,199.2969 C56.7813,199.2969 57.0625,199.4375 57.2188,199.7031 C57.3125,199.8594 57.3281,199.9844 57.3281,200.4219 L57.3281,201.8438 C57.3281,202.2656 57.2969,202.4531 57.1875,202.6094 C57.0156,202.8281 56.75,202.9688 56.4844,202.9688 C56.2656,202.9688 56.0313,202.8594 55.8906,202.7188 C55.75,202.5938 55.7188,202.4688 55.6563,202.0625 C55.5625,201.6563 55.3906,201.4375 54.9063,201.1563 C54.4375,200.9063 53.8281,200.75 53.25,200.75 C51.5156,200.75 50.2656,202.0625 50.2656,203.8438 L50.2656,204.9375 C50.2656,206.6406 51.5625,207.7344 53.6094,207.7344 C54.375,207.7344 55.0625,207.6094 55.4844,207.3438 C55.6719,207.25 55.6719,207.25 56.125,206.7656 C56.3125,206.5781 56.5156,206.5 56.7344,206.5 C57.2031,206.5 57.5938,206.8906 57.5938,207.3438 C57.5938,207.7344 57.2656,208.1875 56.6875,208.5938 C55.9375,209.1406 54.7813,209.4375 53.5625,209.4375 C50.6719,209.4375 48.5625,207.5469 48.5625,204.9688 L48.5625,203.8438 C48.5625,201.125 50.5625,199.0469 53.1875,199.0469 C54.0625,199.0469 54.6563,199.1875 55.5938,199.625 Z "/><text fill="#000000" font-family="sans-serif" font-size="12" lengthAdjust="spacingAndGlyphs" textLength="44" x="73.75" y="208.1074">Person</text><rect fill="#FFFFFF" height="15.9688" style="stroke: #000000; stroke-width: 1.0; stroke-dasharray: 2.0,2.0;" width="61" x="162" y="184.9531"/><text fill="#000000" font-family="sans-serif" font-size="12" font-style="italic" lengthAdjust="spacingAndGlyphs" textLength="59" x="163" y="197.0918">Customer</text><line style="stroke: #A80036; stroke-width: 1.5;" x1="7" x2="219" y1="219.9531" y2="219.9531"/><text fill="#000000" font-family="sans-serif" font-size="11" lengthAdjust="spacingAndGlyphs" textLength="140" x="12" y="234.1636">FirstName: Maybe String</text><text fill="#000000" font-family="sans-serif" font-size="11" lengthAdjust="spacingAndGlyphs" textLength="99" x="12" y="246.9683">LastName: String</text><text fill="#000000" font-family="sans-serif" font-size="11" lengthAdjust="spacingAndGlyphs" textLength="102" x="12" y="259.7729">Address: Address</text><text fill="#000000" font-family="sans-serif" font-size="11" lengthAdjust="spacingAndGlyphs" textLength="92" x="12" y="272.5776">Gender: Gender</text><text fill="#000000" font-family="sans-serif" font-size="11" lengthAdjust="spacingAndGlyphs" textLength="84" x="12" y="285.3823">CustomerId: Id</text><text fill="#000000" font-family="sans-serif" font-size="11" font-style="italic" lengthAdjust="spacingAndGlyphs" textLength="86" x="104" y="285.3823">from Customer</text><text fill="#000000" font-family="sans-serif" font-size="11" lengthAdjust="spacingAndGlyphs" textLength="108" x="12" y="298.187">VATNumber: String</text><text fill="#000000" font-family="sans-serif" font-size="11" font-style="italic" lengthAdjust="spacingAndGlyphs" textLength="86" x="128" y="298.187">from Customer</text><line style="stroke: #A80036; stroke-width: 1.5;" x1="7" x2="219" y1="304.7813" y2="304.7813"/><!--class Customer--><rect fill="#FEFECE" filter="url(#f1e26xopnmywpu)" height="99.2188" id="Customer" style="stroke: #A80036; stroke-width: 1.5;" width="198" x="138" y="28.9531"/><ellipse cx="202.75" cy="44.9531" fill="#ADD1B2" rx="11" ry="11" style="stroke: #A80036; stroke-width: 1.0;"/><path d="M205.0938,40.625 L205.2656,40.7031 C205.4844,40.3906 205.6875,40.2969 205.9844,40.2969 C206.2813,40.2969 206.5625,40.4375 206.7188,40.7031 C206.8125,40.8594 206.8281,40.9844 206.8281,41.4219 L206.8281,42.8438 C206.8281,43.2656 206.7969,43.4531 206.6875,43.6094 C206.5156,43.8281 206.25,43.9688 205.9844,43.9688 C205.7656,43.9688 205.5313,43.8594 205.3906,43.7188 C205.25,43.5938 205.2188,43.4688 205.1563,43.0625 C205.0625,42.6563 204.8906,42.4375 204.4063,42.1563 C203.9375,41.9063 203.3281,41.75 202.75,41.75 C201.0156,41.75 199.7656,43.0625 199.7656,44.8438 L199.7656,45.9375 C199.7656,47.6406 201.0625,48.7344 203.1094,48.7344 C203.875,48.7344 204.5625,48.6094 204.9844,48.3438 C205.1719,48.25 205.1719,48.25 205.625,47.7656 C205.8125,47.5781 206.0156,47.5 206.2344,47.5 C206.7031,47.5 207.0938,47.8906 207.0938,48.3438 C207.0938,48.7344 206.7656,49.1875 206.1875,49.5938 C205.4375,50.1406 204.2813,50.4375 203.0625,50.4375 C200.1719,50.4375 198.0625,48.5469 198.0625,45.9688 L198.0625,44.8438 C198.0625,42.125 200.0625,40.0469 202.6875,40.0469 C203.5625,40.0469 204.1563,40.1875 205.0938,40.625 Z "/><text fill="#000000" font-family="sans-serif" font-size="12" lengthAdjust="spacingAndGlyphs" textLength="60" x="223.25" y="49.1074">Customer</text><line style="stroke: #A80036; stroke-width: 1.5;" x1="139" x2="335" y1="60.9531" y2="60.9531"/><text fill="#000000" font-family="sans-serif" font-size="11" lengthAdjust="spacingAndGlyphs" textLength="84" x="144" y="75.1636">CustomerId: Id</text><text fill="#000000" font-family="sans-serif" font-size="11" lengthAdjust="spacingAndGlyphs" textLength="108" x="144" y="87.9683">VATNumber: String</text><line style="stroke: #A80036; stroke-width: 1.0;" x1="139" x2="335" y1="94.5625" y2="94.5625"/><line style="stroke: #A80036; stroke-width: 1.0;" x1="139" x2="335" y1="96.5625" y2="96.5625"/><text fill="#000000" font-family="sans-serif" font-size="11" font-weight="bold" lengthAdjust="spacingAndGlyphs" textLength="72" x="144" y="108.7729">description</text><text fill="#000000" font-family="sans-serif" font-size="11" lengthAdjust="spacingAndGlyphs" textLength="114" x="216" y="108.7729">: Someone or some</text><text fill="#000000" font-family="sans-serif" font-size="11" lengthAdjust="spacingAndGlyphs" textLength="148" x="144" y="121.5776">company who buys things</text><!--class Company--><rect fill="#FEFECE" filter="url(#f1e26xopnmywpu)" height="86.4141" id="Company" style="stroke: #A80036; stroke-width: 1.5;" width="214" x="255" y="207.4531"/><ellipse cx="296.1" cy="223.4531" fill="#ADD1B2" rx="11" ry="11" style="stroke: #A80036; stroke-width: 1.0;"/><path d="M298.4438,219.125 L298.6156,219.2031 C298.8344,218.8906 299.0375,218.7969 299.3344,218.7969 C299.6313,218.7969 299.9125,218.9375 300.0688,219.2031 C300.1625,219.3594 300.1781,219.4844 300.1781,219.9219 L300.1781,221.3438 C300.1781,221.7656 300.1469,221.9531 300.0375,222.1094 C299.8656,222.3281 299.6,222.4688 299.3344,222.4688 C299.1156,222.4688 298.8813,222.3594 298.7406,222.2188 C298.6,222.0938 298.5688,221.9688 298.5063,221.5625 C298.4125,221.1563 298.2406,220.9375 297.7563,220.6563 C297.2875,220.4063 296.6781,220.25 296.1,220.25 C294.3656,220.25 293.1156,221.5625 293.1156,223.3438 L293.1156,224.4375 C293.1156,226.1406 294.4125,227.2344 296.4594,227.2344 C297.225,227.2344 297.9125,227.1094 298.3344,226.8438 C298.5219,226.75 298.5219,226.75 298.975,226.2656 C299.1625,226.0781 299.3656,226 299.5844,226 C300.0531,226 300.4438,226.3906 300.4438,226.8438 C300.4438,227.2344 300.1156,227.6875 299.5375,228.0938 C298.7875,228.6406 297.6313,228.9375 296.4125,228.9375 C293.5219,228.9375 291.4125,227.0469 291.4125,224.4688 L291.4125,223.3438 C291.4125,220.625 293.4125,218.5469 296.0375,218.5469 C296.9125,218.5469 297.5063,218.6875 298.4438,219.125 Z "/><text fill="#000000" font-family="sans-serif" font-size="12" lengthAdjust="spacingAndGlyphs" textLength="57" x="315.9" y="227.6074">Company</text><rect fill="#FFFFFF" height="15.9688" style="stroke: #000000; stroke-width: 1.0; stroke-dasharray: 2.0,2.0;" width="61" x="411" y="204.4531"/><text fill="#000000" font-family="sans-serif" font-size="12" font-style="italic" lengthAdjust="spacingAndGlyphs" textLength="59" x="412" y="216.5918">Customer</text><line style="stroke: #A80036; stroke-width: 1.5;" x1="256" x2="468" y1="239.4531" y2="239.4531"/><text fill="#000000" font-family="sans-serif" font-size="11" lengthAdjust="spacingAndGlyphs" textLength="148" x="261" y="253.6636">OrganisationName: String</text><text fill="#000000" font-family="sans-serif" font-size="11" lengthAdjust="spacingAndGlyphs" textLength="84" x="261" y="266.4683">CustomerId: Id</text><text fill="#000000" font-family="sans-serif" font-size="11" font-style="italic" lengthAdjust="spacingAndGlyphs" textLength="86" x="353" y="266.4683">from Customer</text><text fill="#000000" font-family="sans-serif" font-size="11" lengthAdjust="spacingAndGlyphs" textLength="108" x="261" y="279.2729">VATNumber: String</text><text fill="#000000" font-family="sans-serif" font-size="11" font-style="italic" lengthAdjust="spacingAndGlyphs" textLength="86" x="377" y="279.2729">from Customer</text><line style="stroke: #A80036; stroke-width: 1.5;" x1="256" x2="468" y1="285.8672" y2="285.8672"/><!--link Customer to Person--><path d="M201.467,128.1681 C191.639,141.6411 180.719,156.6121 170,171.3071 " fill="none" id="Customer-Person" style="stroke: #A80036; stroke-width: 1.0;"/><polygon fill="none" points="175.494,175.6541,158.052,187.6871,164.183,167.4041,175.494,175.6541" style="stroke: #A80036; stroke-width: 1.0;"/><!--link Customer to Company--><path d="M272.82,128.1681 C287.264,147.8121 304.049,170.6391 319.135,191.1561 " fill="none" id="Customer-Company" style="stroke: #A80036; stroke-width: 1.0;"/><polygon fill="none" points="324.846,187.1071,331.054,207.3671,313.567,195.4001,324.846,187.1071" style="stroke: #A80036; stroke-width: 1.0;"/><!--
@startuml
title: Customer

class "Person " as Person <Customer> {
	FirstName: Maybe String
	LastName: String 
	Address: Address 
	Gender: Gender 
	CustomerId: Id  <i>from Customer</i>
	VATNumber: String  <i>from Customer</i>
}
Customer - -|> Person
class "Company " as Company <Customer> {
	OrganisationName: String 
	CustomerId: Id  <i>from Customer</i>
	VATNumber: String  <i>from Customer</i>
}
Customer - -|> Company
class "Customer" as Customer  {
	CustomerId: Id 
	VATNumber: String 
===
  <b>description</b>: Someone or some
 company who buys things
}
@enduml

PlantUML version 1.2019.05(Sat Apr 20 16:45:36 UTC 2019)
(GPL source distribution)
Java Runtime: Java(TM) SE Runtime Environment
JVM: Java HotSpot(TM) 64-Bit Server VM
Java Version: 1.7.0_25-b15
Operating System: Linux
Default Encoding: UTF-8
Language: en
Country: US
--></g></svg>