<?xml version="1.0" encoding="UTF-8" standalone="no"?><svg xmlns="http://www.w3.org/2000/svg" xmlns:xlink="http://www.w3.org/1999/xlink" contentScriptType="application/ecmascript" contentStyleType="text/css" height="243px" preserveAspectRatio="none" style="width:279px;height:243px;" version="1.1" viewBox="0 0 279 243" width="279px" zoomAndPan="magnify"><defs><filter height="300%" id="fqvn998jn5pos" width="300%" x="-1" y="-1"><feGaussianBlur result="blurOut" stdDeviation="2.0"/><feColorMatrix in="blurOut" result="blurOut2" type="matrix" values="0 0 0 0 0 0 0 0 0 0 0 0 0 0 0 0 0 0 .4 0"/><feOffset dx="4.0" dy="4.0" in="blurOut2" result="blurOut3"/><feBlend in="SourceGraphic" in2="blurOut3" mode="normal"/></filter></defs><g><!--cluster Customer--><polygon fill="#FFFFFF" filter="url(#fqvn998jn5pos)" points="22,24,105,24,112,46.2969,257,46.2969,257,231,22,231,22,24" style="stroke: #000000; stroke-width: 1.5;"/><line style="stroke: #000000; stroke-width: 1.5;" x1="22" x2="112" y1="46.2969" y2="46.2969"/><text fill="#000000" font-family="sans-serif" font-size="14" font-weight="bold" lengthAdjust="spacingAndGlyphs" textLength="77" x="26" y="38.9951">Customer</text><!--class Customer.Customer--><rect fill="#FEFECE" filter="url(#fqvn998jn5pos)" height="48" id="Customer.Customer" style="stroke: #A80036; stroke-width: 1.5;" width="92" x="38" y="59"/><ellipse cx="53" cy="75" fill="#ADD1B2" rx="11" ry="11" style="stroke: #A80036; stroke-width: 1.0;"/><path d="M55.3438,70.6719 L55.5156,70.75 C55.7344,70.4375 55.9375,70.3438 56.2344,70.3438 C56.5313,70.3438 56.8125,70.4844 56.9688,70.75 C57.0625,70.9063 57.0781,71.0313 57.0781,71.4688 L57.0781,72.8906 C57.0781,73.3125 57.0469,73.5 56.9375,73.6563 C56.7656,73.875 56.5,74.0156 56.2344,74.0156 C56.0156,74.0156 55.7813,73.9063 55.6406,73.7656 C55.5,73.6406 55.4688,73.5156 55.4063,73.1094 C55.3125,72.7031 55.1406,72.4844 54.6563,72.2031 C54.1875,71.9531 53.5781,71.7969 53,71.7969 C51.2656,71.7969 50.0156,73.1094 50.0156,74.8906 L50.0156,75.9844 C50.0156,77.6875 51.3125,78.7813 53.3594,78.7813 C54.125,78.7813 54.8125,78.6563 55.2344,78.3906 C55.4219,78.2969 55.4219,78.2969 55.875,77.8125 C56.0625,77.625 56.2656,77.5469 56.4844,77.5469 C56.9531,77.5469 57.3438,77.9375 57.3438,78.3906 C57.3438,78.7813 57.0156,79.2344 56.4375,79.6406 C55.6875,80.1875 54.5313,80.4844 53.3125,80.4844 C50.4219,80.4844 48.3125,78.5938 48.3125,76.0156 L48.3125,74.8906 C48.3125,72.1719 50.3125,70.0938 52.9375,70.0938 C53.8125,70.0938 54.4063,70.2344 55.3438,70.6719 Z "/><text fill="#000000" font-family="sans-serif" font-size="12" lengthAdjust="spacingAndGlyphs" textLength="60" x="67" y="79.1543">Customer</text><line style="stroke: #A80036; stroke-width: 1.5;" x1="39" x2="129" y1="91" y2="91"/><line style="stroke: #A80036; stroke-width: 1.5;" x1="39" x2="129" y1="99" y2="99"/><!--class Customer.Person--><rect fill="#FEFECE" filter="url(#fqvn998jn5pos)" height="48" id="Customer.Person" style="stroke: #A80036; stroke-width: 1.5;" width="76" x="165" y="59"/><ellipse cx="180" cy="75" fill="#ADD1B2" rx="11" ry="11" style="stroke: #A80036; stroke-width: 1.0;"/><path d="M182.3438,70.6719 L182.5156,70.75 C182.7344,70.4375 182.9375,70.3438 183.2344,70.3438 C183.5313,70.3438 183.8125,70.4844 183.9688,70.75 C184.0625,70.9063 184.0781,71.0313 184.0781,71.4688 L184.0781,72.8906 C184.0781,73.3125 184.0469,73.5 183.9375,73.6563 C183.7656,73.875 183.5,74.0156 183.2344,74.0156 C183.0156,74.0156 182.7813,73.9063 182.6406,73.7656 C182.5,73.6406 182.4688,73.5156 182.4063,73.1094 C182.3125,72.7031 182.1406,72.4844 181.6563,72.2031 C181.1875,71.9531 180.5781,71.7969 180,71.7969 C178.2656,71.7969 177.0156,73.1094 177.0156,74.8906 L177.0156,75.9844 C177.0156,77.6875 178.3125,78.7813 180.3594,78.7813 C181.125,78.7813 181.8125,78.6563 182.2344,78.3906 C182.4219,78.2969 182.4219,78.2969 182.875,77.8125 C183.0625,77.625 183.2656,77.5469 183.4844,77.5469 C183.9531,77.5469 184.3438,77.9375 184.3438,78.3906 C184.3438,78.7813 184.0156,79.2344 183.4375,79.6406 C182.6875,80.1875 181.5313,80.4844 180.3125,80.4844 C177.4219,80.4844 175.3125,78.5938 175.3125,76.0156 L175.3125,74.8906 C175.3125,72.1719 177.3125,70.0938 179.9375,70.0938 C180.8125,70.0938 181.4063,70.2344 182.3438,70.6719 Z "/><text fill="#000000" font-family="sans-serif" font-size="12" lengthAdjust="spacingAndGlyphs" textLength="44" x="194" y="79.1543">Person</text><line style="stroke: #A80036; stroke-width: 1.5;" x1="166" x2="240" y1="91" y2="91"/><line style="stroke: #A80036; stroke-width: 1.5;" x1="166" x2="240" y1="99" y2="99"/><!--class Customer.Company--><rect fill="#FEFECE" filter="url(#fqvn998jn5pos)" height="48" id="Customer.Company" style="stroke: #A80036; stroke-width: 1.5;" width="89" x="39.5" y="167"/><ellipse cx="54.5" cy="183" fill="#ADD1B2" rx="11" ry="11" style="stroke: #A80036; stroke-width: 1.0;"/><path d="M56.8438,178.6719 L57.0156,178.75 C57.2344,178.4375 57.4375,178.3438 57.7344,178.3438 C58.0313,178.3438 58.3125,178.4844 58.4688,178.75 C58.5625,178.9063 58.5781,179.0313 58.5781,179.4688 L58.5781,180.8906 C58.5781,181.3125 58.5469,181.5 58.4375,181.6563 C58.2656,181.875 58,182.0156 57.7344,182.0156 C57.5156,182.0156 57.2813,181.9063 57.1406,181.7656 C57,181.6406 56.9688,181.5156 56.9063,181.1094 C56.8125,180.7031 56.6406,180.4844 56.1563,180.2031 C55.6875,179.9531 55.0781,179.7969 54.5,179.7969 C52.7656,179.7969 51.5156,181.1094 51.5156,182.8906 L51.5156,183.9844 C51.5156,185.6875 52.8125,186.7813 54.8594,186.7813 C55.625,186.7813 56.3125,186.6563 56.7344,186.3906 C56.9219,186.2969 56.9219,186.2969 57.375,185.8125 C57.5625,185.625 57.7656,185.5469 57.9844,185.5469 C58.4531,185.5469 58.8438,185.9375 58.8438,186.3906 C58.8438,186.7813 58.5156,187.2344 57.9375,187.6406 C57.1875,188.1875 56.0313,188.4844 54.8125,188.4844 C51.9219,188.4844 49.8125,186.5938 49.8125,184.0156 L49.8125,182.8906 C49.8125,180.1719 51.8125,178.0938 54.4375,178.0938 C55.3125,178.0938 55.9063,178.2344 56.8438,178.6719 Z "/><text fill="#000000" font-family="sans-serif" font-size="12" lengthAdjust="spacingAndGlyphs" textLength="57" x="68.5" y="187.1543">Company</text><line style="stroke: #A80036; stroke-width: 1.5;" x1="40.5" x2="127.5" y1="199" y2="199"/><line style="stroke: #A80036; stroke-width: 1.5;" x1="40.5" x2="127.5" y1="207" y2="207"/><!--link Customer.Customer to Customer.Person--><!--link Customer.Customer to Customer.Company--><!--
@startuml
namespace Customer {
    class Customer
    class Person
class Company
}
@enduml

PlantUML version 1.2019.05(Sat Apr 20 16:45:36 UTC 2019)
(GPL source distribution)
Java Runtime: Java(TM) SE Runtime Environment
JVM: Java HotSpot(TM) 64-Bit Server VM
Java Version: 1.7.0_25-b15
Operating System: Linux
Default Encoding: UTF-8
Language: en
Country: US
--></g></svg>