<?xml version="1.0" encoding="UTF-8" standalone="no"?><svg xmlns="http://www.w3.org/2000/svg" xmlns:xlink="http://www.w3.org/1999/xlink" contentScriptType="application/ecmascript" contentStyleType="text/css" height="264px" preserveAspectRatio="none" style="width:325px;height:264px;" version="1.1" viewBox="0 0 325 264" width="325px" zoomAndPan="magnify"><defs><filter height="300%" id="f1vq40aeenz81b" width="300%" x="-1" y="-1"><feGaussianBlur result="blurOut" stdDeviation="2.0"/><feColorMatrix in="blurOut" result="blurOut2" type="matrix" values="0 0 0 0 0 0 0 0 0 0 0 0 0 0 0 0 0 0 .4 0"/><feOffset dx="4.0" dy="4.0" in="blurOut2" result="blurOut3"/><feBlend in="SourceGraphic" in2="blurOut3" mode="normal"/></filter></defs><g><ellipse cx="32.3345" cy="50.5236" fill="#FEFECE" filter="url(#f1vq40aeenz81b)" rx="26.3345" ry="14.5236" style="stroke: #A80036; stroke-width: 1.5;"/><text fill="#000000" font-family="sans-serif" font-size="14" lengthAdjust="spacingAndGlyphs" textLength="33" x="15.8345" y="55.1721">Lead</text><ellipse cx="216.3406" cy="174.5236" fill="#FEFECE" filter="url(#f1vq40aeenz81b)" rx="46.8406" ry="14.5236" style="stroke: #A80036; stroke-width: 1.5;"/><text fill="#000000" font-family="sans-serif" font-size="14" lengthAdjust="spacingAndGlyphs" textLength="62" x="185.3406" y="179.1721">Prospect</text><ellipse cx="216.5833" cy="238.5236" fill="#FEFECE" filter="url(#f1vq40aeenz81b)" rx="51.0833" ry="14.5236" style="stroke: #A80036; stroke-width: 1.5;"/><text fill="#000000" font-family="sans-serif" font-size="14" lengthAdjust="spacingAndGlyphs" textLength="68" x="182.5833" y="243.1721">Customer</text><ellipse cx="216.711" cy="30.4422" fill="#FEFECE" filter="url(#f1vq40aeenz81b)" rx="97.711" ry="21.9422" style="stroke: #A80036; stroke-width: 1.5;"/><text fill="#000000" font-family="sans-serif" font-size="14" lengthAdjust="spacingAndGlyphs" textLength="171" x="131.211" y="35.0906">Temperature of the Lead</text><ellipse cx="216.5624" cy="106.5125" fill="#FEFECE" filter="url(#f1vq40aeenz81b)" rx="80.5624" ry="18.5125" style="stroke: #A80036; stroke-width: 1.5;"/><text fill="#000000" font-family="sans-serif" font-size="14" lengthAdjust="spacingAndGlyphs" textLength="132" x="150.5624" y="111.1609">Make Lead an Offer</text><ellipse cx="32.3345" cy="134.5236" fill="#FEFECE" filter="url(#f1vq40aeenz81b)" rx="26.3345" ry="14.5236" style="stroke: #A80036; stroke-width: 1.5;"/><text fill="#000000" font-family="sans-serif" font-size="14" lengthAdjust="spacingAndGlyphs" textLength="33" x="15.8345" y="139.1721">Offer</text><!--link Lead to Prospect--><path d="M54.5062,58.75 C70.3704,58.75 89,58.75 89,58.75 C89,58.75 89,169.6667 89,169.6667 C89,169.6667 166.907,169.6667 166.907,169.6667 " fill="none" id="Lead-Prospect" style="stroke: #A80036; stroke-width: 1.0;"/><polygon fill="#A80036" points="171.907,169.6667,162.907,165.6667,166.907,169.6667,162.907,173.6667,171.907,169.6667" style="stroke: #A80036; stroke-width: 1.0;"/><!--link Prospect to Customer--><path d="M217,189.0226 C217,189.0226 217,218.5907 217,218.5907 " fill="none" id="Prospect-Customer" style="stroke: #A80036; stroke-width: 1.0;"/><polygon fill="#A80036" points="217,223.5907,221,214.5907,217,218.5907,213,214.5907,217,223.5907" style="stroke: #A80036; stroke-width: 1.0;"/><!--link Temperature of the Lead to Make Lead an Offer--><path d="M217,52.891 C217,52.891 217,82.854 217,82.854 " fill="none" id="Temperature of the Lead-Make Lead an Offer" style="stroke: #A80036; stroke-width: 1.0;"/><polygon fill="#A80036" points="217,87.854,221,78.854,217,82.854,213,78.854,217,87.854" style="stroke: #A80036; stroke-width: 1.0;"/><!--link Make Lead an Offer to Prospect--><path d="M217,125.081 C217,125.081 217,154.5981 217,154.5981 " fill="none" id="Make Lead an Offer-Prospect" style="stroke: #A80036; stroke-width: 1.0;"/><polygon fill="#A80036" points="217,159.5981,221,150.5981,217,154.5981,213,150.5981,217,159.5981" style="stroke: #A80036; stroke-width: 1.0;"/><!--link Lead to Offer--><path d="M33,65.132 C33,65.132 33,114.754 33,114.754 " fill="none" id="Lead-Offer" style="stroke: #A80036; stroke-width: 1.0;"/><polygon fill="#A80036" points="33,119.754,37,110.754,33,114.754,29,110.754,33,119.754" style="stroke: #A80036; stroke-width: 1.0;"/><!--link Offer to Prospect--><path d="M33,149.18 C33,162.2554 33,179.3333 33,179.3333 C33,179.3333 167.08,179.3333 167.08,179.3333 " fill="none" id="Offer-Prospect" style="stroke: #A80036; stroke-width: 1.0;"/><polygon fill="#A80036" points="172.08,179.3333,163.08,175.3333,167.08,179.3333,163.08,183.3333,172.08,179.3333" style="stroke: #A80036; stroke-width: 1.0;"/><!--link Lead to Temperature of the Lead--><!--link Temperature of the Lead to Lead--><!--
@startuml
skinparam linetype ortho
left to right direction

(Lead) -> (Prospect)
(Prospect) -> (Customer)


(Temperature of the Lead) -> (Make Lead an Offer)
(Make Lead an Offer) -> (Prospect)


(Lead) -> (Offer)
(Offer) -> (Prospect)

(Lead) -[hidden]-> (Temperature of the Lead)
(Temperature of the Lead) -[hidden]-> (Lead)
@enduml

PlantUML version 1.2019.07beta1(Unknown compile time)
(GPL source distribution)
Java Runtime: Java(TM) SE Runtime Environment
JVM: Java HotSpot(TM) 64-Bit Server VM
Java Version: 1.7.0_25-b15
Operating System: Linux
Default Encoding: UTF-8
Language: en
Country: US
--></g></svg>