<?xml version="1.0" encoding="UTF-8" standalone="no"?><svg xmlns="http://www.w3.org/2000/svg" xmlns:xlink="http://www.w3.org/1999/xlink" contentScriptType="application/ecmascript" contentStyleType="text/css" height="370px" preserveAspectRatio="none" style="width:528px;height:370px;" version="1.1" viewBox="0 0 528 370" width="528px" zoomAndPan="magnify"><defs><filter height="300%" id="fbwcg4y0l4muq" width="300%" x="-1" y="-1"><feGaussianBlur result="blurOut" stdDeviation="2.0"/><feColorMatrix in="blurOut" result="blurOut2" type="matrix" values="0 0 0 0 0 0 0 0 0 0 0 0 0 0 0 0 0 0 .4 0"/><feOffset dx="4.0" dy="4.0" in="blurOut2" result="blurOut3"/><feBlend in="SourceGraphic" in2="blurOut3" mode="normal"/></filter></defs><g><!--cluster Aggregate: Customer--><rect fill="#FFFFFF" filter="url(#fbwcg4y0l4muq)" height="335" style="stroke: #000000; stroke-width: 1.5;" width="495" x="22" y="24"/><path d="M203,25 L203,33.2969 L193,43.2969 L22,43.2969 " fill="none" style="stroke: #000000; stroke-width: 1.5;"/><text fill="#000000" font-family="sans-serif" font-size="14" font-weight="bold" lengthAdjust="spacingAndGlyphs" textLength="171" x="25" y="37.9951">Aggregate: Customer</text><!--class Customer--><rect fill="#FEFECE" filter="url(#fbwcg4y0l4muq)" height="99.2188" id="Customer" style="stroke: #A80036; stroke-width: 1.5;" width="198" x="170" y="59"/><ellipse cx="234.75" cy="75" fill="#ADD1B2" rx="11" ry="11" style="stroke: #A80036; stroke-width: 1.0;"/><path d="M237.0938,70.6719 L237.2656,70.75 C237.4844,70.4375 237.6875,70.3438 237.9844,70.3438 C238.2813,70.3438 238.5625,70.4844 238.7188,70.75 C238.8125,70.9063 238.8281,71.0313 238.8281,71.4688 L238.8281,72.8906 C238.8281,73.3125 238.7969,73.5 238.6875,73.6563 C238.5156,73.875 238.25,74.0156 237.9844,74.0156 C237.7656,74.0156 237.5313,73.9063 237.3906,73.7656 C237.25,73.6406 237.2188,73.5156 237.1563,73.1094 C237.0625,72.7031 236.8906,72.4844 236.4063,72.2031 C235.9375,71.9531 235.3281,71.7969 234.75,71.7969 C233.0156,71.7969 231.7656,73.1094 231.7656,74.8906 L231.7656,75.9844 C231.7656,77.6875 233.0625,78.7813 235.1094,78.7813 C235.875,78.7813 236.5625,78.6563 236.9844,78.3906 C237.1719,78.2969 237.1719,78.2969 237.625,77.8125 C237.8125,77.625 238.0156,77.5469 238.2344,77.5469 C238.7031,77.5469 239.0938,77.9375 239.0938,78.3906 C239.0938,78.7813 238.7656,79.2344 238.1875,79.6406 C237.4375,80.1875 236.2813,80.4844 235.0625,80.4844 C232.1719,80.4844 230.0625,78.5938 230.0625,76.0156 L230.0625,74.8906 C230.0625,72.1719 232.0625,70.0938 234.6875,70.0938 C235.5625,70.0938 236.1563,70.2344 237.0938,70.6719 Z "/><text fill="#000000" font-family="sans-serif" font-size="12" lengthAdjust="spacingAndGlyphs" textLength="60" x="255.25" y="79.1543">Customer</text><line style="stroke: #A80036; stroke-width: 1.5;" x1="171" x2="367" y1="91" y2="91"/><text fill="#000000" font-family="sans-serif" font-size="11" lengthAdjust="spacingAndGlyphs" textLength="84" x="176" y="105.2104">CustomerId: Id</text><text fill="#000000" font-family="sans-serif" font-size="11" lengthAdjust="spacingAndGlyphs" textLength="108" x="176" y="118.0151">VATNumber: String</text><line style="stroke: #A80036; stroke-width: 1.0;" x1="171" x2="367" y1="124.6094" y2="124.6094"/><line style="stroke: #A80036; stroke-width: 1.0;" x1="171" x2="367" y1="126.6094" y2="126.6094"/><text fill="#000000" font-family="sans-serif" font-size="11" font-weight="bold" lengthAdjust="spacingAndGlyphs" textLength="72" x="176" y="138.8198">description</text><text fill="#000000" font-family="sans-serif" font-size="11" lengthAdjust="spacingAndGlyphs" textLength="114" x="248" y="138.8198">: Someone or some</text><text fill="#000000" font-family="sans-serif" font-size="11" lengthAdjust="spacingAndGlyphs" textLength="148" x="176" y="151.6245">company who buys things</text><!--class Person--><rect fill="#FEFECE" filter="url(#fbwcg4y0l4muq)" height="124.8281" id="Person" style="stroke: #A80036; stroke-width: 1.5;" width="214" x="38" y="218"/><ellipse cx="85.25" cy="234" fill="#ADD1B2" rx="11" ry="11" style="stroke: #A80036; stroke-width: 1.0;"/><path d="M87.5938,229.6719 L87.7656,229.75 C87.9844,229.4375 88.1875,229.3438 88.4844,229.3438 C88.7813,229.3438 89.0625,229.4844 89.2188,229.75 C89.3125,229.9063 89.3281,230.0313 89.3281,230.4688 L89.3281,231.8906 C89.3281,232.3125 89.2969,232.5 89.1875,232.6563 C89.0156,232.875 88.75,233.0156 88.4844,233.0156 C88.2656,233.0156 88.0313,232.9063 87.8906,232.7656 C87.75,232.6406 87.7188,232.5156 87.6563,232.1094 C87.5625,231.7031 87.3906,231.4844 86.9063,231.2031 C86.4375,230.9531 85.8281,230.7969 85.25,230.7969 C83.5156,230.7969 82.2656,232.1094 82.2656,233.8906 L82.2656,234.9844 C82.2656,236.6875 83.5625,237.7813 85.6094,237.7813 C86.375,237.7813 87.0625,237.6563 87.4844,237.3906 C87.6719,237.2969 87.6719,237.2969 88.125,236.8125 C88.3125,236.625 88.5156,236.5469 88.7344,236.5469 C89.2031,236.5469 89.5938,236.9375 89.5938,237.3906 C89.5938,237.7813 89.2656,238.2344 88.6875,238.6406 C87.9375,239.1875 86.7813,239.4844 85.5625,239.4844 C82.6719,239.4844 80.5625,237.5938 80.5625,235.0156 L80.5625,233.8906 C80.5625,231.1719 82.5625,229.0938 85.1875,229.0938 C86.0625,229.0938 86.6563,229.2344 87.5938,229.6719 Z "/><text fill="#000000" font-family="sans-serif" font-size="12" lengthAdjust="spacingAndGlyphs" textLength="44" x="105.75" y="238.1543">Person</text><rect fill="#FFFFFF" height="15.9688" style="stroke: #000000; stroke-width: 1.0; stroke-dasharray: 2.0,2.0;" width="61" x="194" y="215"/><text fill="#000000" font-family="sans-serif" font-size="12" font-style="italic" lengthAdjust="spacingAndGlyphs" textLength="59" x="195" y="227.1387">Customer</text><line style="stroke: #A80036; stroke-width: 1.5;" x1="39" x2="251" y1="250" y2="250"/><text fill="#000000" font-family="sans-serif" font-size="11" lengthAdjust="spacingAndGlyphs" textLength="140" x="44" y="264.2104">FirstName: Maybe String</text><text fill="#000000" font-family="sans-serif" font-size="11" lengthAdjust="spacingAndGlyphs" textLength="99" x="44" y="277.0151">LastName: String</text><text fill="#000000" font-family="sans-serif" font-size="11" lengthAdjust="spacingAndGlyphs" textLength="102" x="44" y="289.8198">Address: Address</text><text fill="#000000" font-family="sans-serif" font-size="11" lengthAdjust="spacingAndGlyphs" textLength="92" x="44" y="302.6245">Gender: Gender</text><text fill="#000000" font-family="sans-serif" font-size="11" lengthAdjust="spacingAndGlyphs" textLength="84" x="44" y="315.4292">CustomerId: Id</text><text fill="#000000" font-family="sans-serif" font-size="11" font-style="italic" lengthAdjust="spacingAndGlyphs" textLength="86" x="136" y="315.4292">from Customer</text><text fill="#000000" font-family="sans-serif" font-size="11" lengthAdjust="spacingAndGlyphs" textLength="108" x="44" y="328.2339">VATNumber: String</text><text fill="#000000" font-family="sans-serif" font-size="11" font-style="italic" lengthAdjust="spacingAndGlyphs" textLength="86" x="160" y="328.2339">from Customer</text><line style="stroke: #A80036; stroke-width: 1.5;" x1="39" x2="251" y1="334.8281" y2="334.8281"/><!--class Company--><rect fill="#FEFECE" filter="url(#fbwcg4y0l4muq)" height="86.4141" id="Company" style="stroke: #A80036; stroke-width: 1.5;" width="214" x="287" y="237.5"/><ellipse cx="328.1" cy="253.5" fill="#ADD1B2" rx="11" ry="11" style="stroke: #A80036; stroke-width: 1.0;"/><path d="M330.4438,249.1719 L330.6156,249.25 C330.8344,248.9375 331.0375,248.8438 331.3344,248.8438 C331.6313,248.8438 331.9125,248.9844 332.0688,249.25 C332.1625,249.4063 332.1781,249.5313 332.1781,249.9688 L332.1781,251.3906 C332.1781,251.8125 332.1469,252 332.0375,252.1563 C331.8656,252.375 331.6,252.5156 331.3344,252.5156 C331.1156,252.5156 330.8813,252.4063 330.7406,252.2656 C330.6,252.1406 330.5688,252.0156 330.5063,251.6094 C330.4125,251.2031 330.2406,250.9844 329.7563,250.7031 C329.2875,250.4531 328.6781,250.2969 328.1,250.2969 C326.3656,250.2969 325.1156,251.6094 325.1156,253.3906 L325.1156,254.4844 C325.1156,256.1875 326.4125,257.2813 328.4594,257.2813 C329.225,257.2813 329.9125,257.1563 330.3344,256.8906 C330.5219,256.7969 330.5219,256.7969 330.975,256.3125 C331.1625,256.125 331.3656,256.0469 331.5844,256.0469 C332.0531,256.0469 332.4438,256.4375 332.4438,256.8906 C332.4438,257.2813 332.1156,257.7344 331.5375,258.1406 C330.7875,258.6875 329.6313,258.9844 328.4125,258.9844 C325.5219,258.9844 323.4125,257.0938 323.4125,254.5156 L323.4125,253.3906 C323.4125,250.6719 325.4125,248.5938 328.0375,248.5938 C328.9125,248.5938 329.5063,248.7344 330.4438,249.1719 Z "/><text fill="#000000" font-family="sans-serif" font-size="12" lengthAdjust="spacingAndGlyphs" textLength="57" x="347.9" y="257.6543">Company</text><rect fill="#FFFFFF" height="15.9688" style="stroke: #000000; stroke-width: 1.0; stroke-dasharray: 2.0,2.0;" width="61" x="443" y="234.5"/><text fill="#000000" font-family="sans-serif" font-size="12" font-style="italic" lengthAdjust="spacingAndGlyphs" textLength="59" x="444" y="246.6387">Customer</text><line style="stroke: #A80036; stroke-width: 1.5;" x1="288" x2="500" y1="269.5" y2="269.5"/><text fill="#000000" font-family="sans-serif" font-size="11" lengthAdjust="spacingAndGlyphs" textLength="148" x="293" y="283.7104">OrganisationName: String</text><text fill="#000000" font-family="sans-serif" font-size="11" lengthAdjust="spacingAndGlyphs" textLength="84" x="293" y="296.5151">CustomerId: Id</text><text fill="#000000" font-family="sans-serif" font-size="11" font-style="italic" lengthAdjust="spacingAndGlyphs" textLength="86" x="385" y="296.5151">from Customer</text><text fill="#000000" font-family="sans-serif" font-size="11" lengthAdjust="spacingAndGlyphs" textLength="108" x="293" y="309.3198">VATNumber: String</text><text fill="#000000" font-family="sans-serif" font-size="11" font-style="italic" lengthAdjust="spacingAndGlyphs" textLength="86" x="409" y="309.3198">from Customer</text><line style="stroke: #A80036; stroke-width: 1.5;" x1="288" x2="500" y1="315.9141" y2="315.9141"/><!--link Customer to Person--><path d="M233.467,158.215 C223.639,171.688 212.719,186.659 202,201.354 " fill="none" id="Customer-Person" style="stroke: #A80036; stroke-width: 1.0;"/><polygon fill="none" points="207.494,205.701,190.052,217.734,196.183,197.451,207.494,205.701" style="stroke: #A80036; stroke-width: 1.0;"/><!--link Customer to Company--><path d="M304.82,158.215 C319.264,177.859 336.049,200.686 351.135,221.203 " fill="none" id="Customer-Company" style="stroke: #A80036; stroke-width: 1.0;"/><polygon fill="none" points="356.846,217.154,363.054,237.414,345.567,225.447,356.846,217.154" style="stroke: #A80036; stroke-width: 1.0;"/><!--
@startuml
package "Aggregate: Customer" <<frame>> {
    class "Customer" as Customer  {
	CustomerId: Id 
	VATNumber: String 
===
  <b>description</b>: Someone or some
 company who buys things
}
class "Person " as Person <Customer> {
	FirstName: Maybe String
	LastName: String 
	Address: Address 
	Gender: Gender 
	CustomerId: Id  <i>from Customer</i>
	VATNumber: String  <i>from Customer</i>
}
Customer - -|> Person
class "Company " as Company <Customer> {
	OrganisationName: String 
	CustomerId: Id  <i>from Customer</i>
	VATNumber: String  <i>from Customer</i>
}
Customer - -|> Company
}
@enduml

PlantUML version 1.2019.07beta1(Unknown compile time)
(GPL source distribution)
Java Runtime: Java(TM) SE Runtime Environment
JVM: Java HotSpot(TM) 64-Bit Server VM
Java Version: 1.7.0_25-b15
Operating System: Linux
Default Encoding: UTF-8
Language: en
Country: US
--></g></svg>