<?xml version="1.0" encoding="UTF-8" standalone="no"?><svg xmlns="http://www.w3.org/2000/svg" xmlns:xlink="http://www.w3.org/1999/xlink" contentScriptType="application/ecmascript" contentStyleType="text/css" height="422px" preserveAspectRatio="none" style="width:813px;height:422px;" version="1.1" viewBox="0 0 813 422" width="813px" zoomAndPan="magnify"><defs><filter height="300%" id="f1bjrdw4fnalry" width="300%" x="-1" y="-1"><feGaussianBlur result="blurOut" stdDeviation="2.0"/><feColorMatrix in="blurOut" result="blurOut2" type="matrix" values="0 0 0 0 0 0 0 0 0 0 0 0 0 0 0 0 0 0 .4 0"/><feOffset dx="4.0" dy="4.0" in="blurOut2" result="blurOut3"/><feBlend in="SourceGraphic" in2="blurOut3" mode="normal"/></filter></defs><g><!--class CreditCard--><rect fill="#FEFECE" filter="url(#f1bjrdw4fnalry)" height="73.6094" id="CreditCard" style="stroke: #A80036; stroke-width: 1.5;" width="128" x="13" y="72"/><ellipse cx="41.5" cy="88" fill="#ADD1B2" rx="11" ry="11" style="stroke: #A80036; stroke-width: 1.0;"/><path d="M43.8438,83.6719 L44.0156,83.75 C44.2344,83.4375 44.4375,83.3438 44.7344,83.3438 C45.0313,83.3438 45.3125,83.4844 45.4688,83.75 C45.5625,83.9063 45.5781,84.0313 45.5781,84.4688 L45.5781,85.8906 C45.5781,86.3125 45.5469,86.5 45.4375,86.6563 C45.2656,86.875 45,87.0156 44.7344,87.0156 C44.5156,87.0156 44.2813,86.9063 44.1406,86.7656 C44,86.6406 43.9688,86.5156 43.9063,86.1094 C43.8125,85.7031 43.6406,85.4844 43.1563,85.2031 C42.6875,84.9531 42.0781,84.7969 41.5,84.7969 C39.7656,84.7969 38.5156,86.1094 38.5156,87.8906 L38.5156,88.9844 C38.5156,90.6875 39.8125,91.7813 41.8594,91.7813 C42.625,91.7813 43.3125,91.6563 43.7344,91.3906 C43.9219,91.2969 43.9219,91.2969 44.375,90.8125 C44.5625,90.625 44.7656,90.5469 44.9844,90.5469 C45.4531,90.5469 45.8438,90.9375 45.8438,91.3906 C45.8438,91.7813 45.5156,92.2344 44.9375,92.6406 C44.1875,93.1875 43.0313,93.4844 41.8125,93.4844 C38.9219,93.4844 36.8125,91.5938 36.8125,89.0156 L36.8125,87.8906 C36.8125,85.1719 38.8125,83.0938 41.4375,83.0938 C42.3125,83.0938 42.9063,83.2344 43.8438,83.6719 Z "/><text fill="#000000" font-family="sans-serif" font-size="12" lengthAdjust="spacingAndGlyphs" textLength="66" x="58.5" y="92.1543">CreditCard</text><line style="stroke: #A80036; stroke-width: 1.5;" x1="14" x2="140" y1="104" y2="104"/><text fill="#000000" font-family="sans-serif" font-size="11" lengthAdjust="spacingAndGlyphs" textLength="87" x="19" y="118.2104">Number: String</text><text fill="#000000" font-family="sans-serif" font-size="11" lengthAdjust="spacingAndGlyphs" textLength="116" x="19" y="131.0151">ExpirationDate: Date</text><line style="stroke: #A80036; stroke-width: 1.5;" x1="14" x2="140" y1="137.6094" y2="137.6094"/><!--class Gender--><rect fill="#FEFECE" filter="url(#f1bjrdw4fnalry)" height="86.4141" id="Gender" style="stroke: #A80036; stroke-width: 1.5;" width="78" x="462" y="66"/><ellipse cx="477" cy="82" fill="#EB937F" rx="11" ry="11" style="stroke: #A80036; stroke-width: 1.0;"/><path d="M475.2969,82.875 L475.2969,85.2969 L479.6563,85.2969 L479.6563,84.4219 C479.6563,83.9375 479.6875,83.7969 479.7969,83.6406 C479.9688,83.3906 480.2344,83.2813 480.5,83.2813 C480.7813,83.2813 481.0625,83.4375 481.2344,83.6875 C481.3125,83.8438 481.3438,83.9844 481.3438,84.4219 L481.3438,87 L473.3438,87 C472.9531,87 472.7188,86.9531 472.5781,86.8281 C472.3594,86.6719 472.2188,86.4219 472.2188,86.1563 C472.2188,85.8594 472.375,85.5938 472.625,85.4219 C472.7813,85.3125 472.9375,85.2969 473.3438,85.2969 L473.5938,85.2969 L473.5938,78.7813 L473.3438,78.7813 C472.9219,78.7813 472.7344,78.75 472.5781,78.6406 C472.3594,78.4688 472.2188,78.2188 472.2188,77.9375 C472.2188,77.6563 472.375,77.3594 472.625,77.2031 C472.7813,77.1094 472.9063,77.0938 473.3438,77.0938 L480.9688,77.0938 L480.9688,79.6406 C480.9688,80.1094 480.9375,80.25 480.8281,80.4219 C480.6563,80.6406 480.3906,80.7813 480.125,80.7813 C479.8438,80.7813 479.5625,80.625 479.3906,80.375 C479.3125,80.2188 479.2813,80.0469 479.2813,79.6406 L479.2813,78.7813 L475.2969,78.7813 L475.2969,81.1875 L476.75,81.1875 L476.75,81.0625 C476.75,80.6094 476.7813,80.4531 476.8906,80.2813 C477.0625,80.0625 477.3281,79.9219 477.5781,79.9219 C478.0313,79.9219 478.3438,80.2344 478.4063,80.7031 C478.4219,80.8594 478.4219,80.9063 478.4219,81.0625 L478.4219,82.9844 C478.4219,83.4375 478.3906,83.5938 478.2656,83.75 C478.1094,83.9688 477.8438,84.1094 477.5938,84.1094 C477.2969,84.1094 477.0156,83.9531 476.8594,83.7031 C476.7813,83.5469 476.75,83.3906 476.75,82.9844 L476.75,82.875 Z "/><text fill="#000000" font-family="sans-serif" font-size="12" lengthAdjust="spacingAndGlyphs" textLength="46" x="491" y="86.1543">Gender</text><line style="stroke: #A80036; stroke-width: 1.5;" x1="463" x2="539" y1="98" y2="98"/><text fill="#000000" font-family="sans-serif" font-size="11" lengthAdjust="spacingAndGlyphs" textLength="26" x="468" y="112.2104">Male</text><text fill="#000000" font-family="sans-serif" font-size="11" lengthAdjust="spacingAndGlyphs" textLength="41" x="468" y="125.0151">Female</text><text fill="#000000" font-family="sans-serif" font-size="11" lengthAdjust="spacingAndGlyphs" textLength="32" x="468" y="137.8198">Other</text><line style="stroke: #A80036; stroke-width: 1.5;" x1="463" x2="539" y1="144.4141" y2="144.4141"/><!--class Address--><rect fill="#FEFECE" filter="url(#f1bjrdw4fnalry)" height="201.6563" id="Address" style="stroke: #A80036; stroke-width: 1.5;" width="227" x="575.5" y="8"/><ellipse cx="659.25" cy="24" fill="#ADD1B2" rx="11" ry="11" style="stroke: #A80036; stroke-width: 1.0;"/><path d="M661.5938,19.6719 L661.7656,19.75 C661.9844,19.4375 662.1875,19.3438 662.4844,19.3438 C662.7813,19.3438 663.0625,19.4844 663.2188,19.75 C663.3125,19.9063 663.3281,20.0313 663.3281,20.4688 L663.3281,21.8906 C663.3281,22.3125 663.2969,22.5 663.1875,22.6563 C663.0156,22.875 662.75,23.0156 662.4844,23.0156 C662.2656,23.0156 662.0313,22.9063 661.8906,22.7656 C661.75,22.6406 661.7188,22.5156 661.6563,22.1094 C661.5625,21.7031 661.3906,21.4844 660.9063,21.2031 C660.4375,20.9531 659.8281,20.7969 659.25,20.7969 C657.5156,20.7969 656.2656,22.1094 656.2656,23.8906 L656.2656,24.9844 C656.2656,26.6875 657.5625,27.7813 659.6094,27.7813 C660.375,27.7813 661.0625,27.6563 661.4844,27.3906 C661.6719,27.2969 661.6719,27.2969 662.125,26.8125 C662.3125,26.625 662.5156,26.5469 662.7344,26.5469 C663.2031,26.5469 663.5938,26.9375 663.5938,27.3906 C663.5938,27.7813 663.2656,28.2344 662.6875,28.6406 C661.9375,29.1875 660.7813,29.4844 659.5625,29.4844 C656.6719,29.4844 654.5625,27.5938 654.5625,25.0156 L654.5625,23.8906 C654.5625,21.1719 656.5625,19.0938 659.1875,19.0938 C660.0625,19.0938 660.6563,19.2344 661.5938,19.6719 Z "/><text fill="#000000" font-family="sans-serif" font-size="12" lengthAdjust="spacingAndGlyphs" textLength="51" x="679.75" y="28.1543">Address</text><line style="stroke: #A80036; stroke-width: 1.5;" x1="576.5" x2="801.5" y1="40" y2="40"/><text fill="#000000" font-family="sans-serif" font-size="11" lengthAdjust="spacingAndGlyphs" textLength="77" x="581.5" y="54.2104">Street: String</text><text fill="#000000" font-family="sans-serif" font-size="11" lengthAdjust="spacingAndGlyphs" textLength="106" x="581.5" y="67.0151">PostalCode: String</text><text fill="#000000" font-family="sans-serif" font-size="11" lengthAdjust="spacingAndGlyphs" textLength="134" x="581.5" y="79.8198">HouseNumber: Number</text><text fill="#000000" font-family="sans-serif" font-size="11" lengthAdjust="spacingAndGlyphs" textLength="178" x="581.5" y="92.6245">HouseNumberExtension: String</text><text fill="#000000" font-family="sans-serif" font-size="11" lengthAdjust="spacingAndGlyphs" textLength="63" x="581.5" y="105.4292">City: String</text><text fill="#000000" font-family="sans-serif" font-size="11" lengthAdjust="spacingAndGlyphs" textLength="115" x="581.5" y="118.2339">CountryCode: String</text><text fill="#000000" font-family="sans-serif" font-size="11" lengthAdjust="spacingAndGlyphs" textLength="126" x="581.5" y="131.0386">Country: Maybe String</text><line style="stroke: #A80036; stroke-width: 1.0;" x1="576.5" x2="801.5" y1="137.6328" y2="137.6328"/><line style="stroke: #A80036; stroke-width: 1.0;" x1="576.5" x2="801.5" y1="139.6328" y2="139.6328"/><text fill="#000000" font-family="sans-serif" font-size="11" font-weight="bold" lengthAdjust="spacingAndGlyphs" textLength="72" x="581.5" y="151.8433">description</text><text fill="#000000" font-family="sans-serif" font-size="11" lengthAdjust="spacingAndGlyphs" textLength="106" x="653.5" y="151.8433">: The address of a</text><text fill="#000000" font-family="sans-serif" font-size="11" lengthAdjust="spacingAndGlyphs" textLength="167" x="581.5" y="164.6479">person. This is the functional</text><text fill="#000000" font-family="sans-serif" font-size="11" lengthAdjust="spacingAndGlyphs" textLength="215" x="581.5" y="177.4526">location of where a person lives. This</text><text fill="#000000" font-family="sans-serif" font-size="11" lengthAdjust="spacingAndGlyphs" textLength="194" x="581.5" y="190.2573">type is of course designed for the</text><text fill="#000000" font-family="sans-serif" font-size="11" lengthAdjust="spacingAndGlyphs" textLength="133" x="581.5" y="203.062">Dutch address system.</text><!--class Person--><rect fill="#FEFECE" filter="url(#f1bjrdw4fnalry)" height="124.8281" id="Person" style="stroke: #A80036; stroke-width: 1.5;" width="214" x="432" y="287"/><ellipse cx="479.25" cy="303" fill="#ADD1B2" rx="11" ry="11" style="stroke: #A80036; stroke-width: 1.0;"/><path d="M481.5938,298.6719 L481.7656,298.75 C481.9844,298.4375 482.1875,298.3438 482.4844,298.3438 C482.7813,298.3438 483.0625,298.4844 483.2188,298.75 C483.3125,298.9063 483.3281,299.0313 483.3281,299.4688 L483.3281,300.8906 C483.3281,301.3125 483.2969,301.5 483.1875,301.6563 C483.0156,301.875 482.75,302.0156 482.4844,302.0156 C482.2656,302.0156 482.0313,301.9063 481.8906,301.7656 C481.75,301.6406 481.7188,301.5156 481.6563,301.1094 C481.5625,300.7031 481.3906,300.4844 480.9063,300.2031 C480.4375,299.9531 479.8281,299.7969 479.25,299.7969 C477.5156,299.7969 476.2656,301.1094 476.2656,302.8906 L476.2656,303.9844 C476.2656,305.6875 477.5625,306.7813 479.6094,306.7813 C480.375,306.7813 481.0625,306.6563 481.4844,306.3906 C481.6719,306.2969 481.6719,306.2969 482.125,305.8125 C482.3125,305.625 482.5156,305.5469 482.7344,305.5469 C483.2031,305.5469 483.5938,305.9375 483.5938,306.3906 C483.5938,306.7813 483.2656,307.2344 482.6875,307.6406 C481.9375,308.1875 480.7813,308.4844 479.5625,308.4844 C476.6719,308.4844 474.5625,306.5938 474.5625,304.0156 L474.5625,302.8906 C474.5625,300.1719 476.5625,298.0938 479.1875,298.0938 C480.0625,298.0938 480.6563,298.2344 481.5938,298.6719 Z "/><text fill="#000000" font-family="sans-serif" font-size="12" lengthAdjust="spacingAndGlyphs" textLength="44" x="499.75" y="307.1543">Person</text><rect fill="#FFFFFF" height="15.9688" style="stroke: #000000; stroke-width: 1.0; stroke-dasharray: 2.0,2.0;" width="61" x="588" y="284"/><text fill="#000000" font-family="sans-serif" font-size="12" font-style="italic" lengthAdjust="spacingAndGlyphs" textLength="59" x="589" y="296.1387">Customer</text><line style="stroke: #A80036; stroke-width: 1.5;" x1="433" x2="645" y1="319" y2="319"/><text fill="#000000" font-family="sans-serif" font-size="11" lengthAdjust="spacingAndGlyphs" textLength="140" x="438" y="333.2104">FirstName: Maybe String</text><text fill="#000000" font-family="sans-serif" font-size="11" lengthAdjust="spacingAndGlyphs" textLength="99" x="438" y="346.0151">LastName: String</text><text fill="#000000" font-family="sans-serif" font-size="11" lengthAdjust="spacingAndGlyphs" textLength="102" x="438" y="358.8198">Address: Address</text><text fill="#000000" font-family="sans-serif" font-size="11" lengthAdjust="spacingAndGlyphs" textLength="92" x="438" y="371.6245">Gender: Gender</text><text fill="#000000" font-family="sans-serif" font-size="11" lengthAdjust="spacingAndGlyphs" textLength="84" x="438" y="384.4292">CustomerId: Id</text><text fill="#000000" font-family="sans-serif" font-size="11" font-style="italic" lengthAdjust="spacingAndGlyphs" textLength="86" x="530" y="384.4292">from Customer</text><text fill="#000000" font-family="sans-serif" font-size="11" lengthAdjust="spacingAndGlyphs" textLength="108" x="438" y="397.2339">VATNumber: String</text><text fill="#000000" font-family="sans-serif" font-size="11" font-style="italic" lengthAdjust="spacingAndGlyphs" textLength="86" x="554" y="397.2339">from Customer</text><line style="stroke: #A80036; stroke-width: 1.5;" x1="433" x2="645" y1="403.8281" y2="403.8281"/><!--class Customer--><rect fill="#FEFECE" filter="url(#f1bjrdw4fnalry)" height="99.2188" id="Customer" style="stroke: #A80036; stroke-width: 1.5;" width="198" x="191" y="59.5"/><ellipse cx="255.75" cy="75.5" fill="#ADD1B2" rx="11" ry="11" style="stroke: #A80036; stroke-width: 1.0;"/><path d="M258.0938,71.1719 L258.2656,71.25 C258.4844,70.9375 258.6875,70.8438 258.9844,70.8438 C259.2813,70.8438 259.5625,70.9844 259.7188,71.25 C259.8125,71.4063 259.8281,71.5313 259.8281,71.9688 L259.8281,73.3906 C259.8281,73.8125 259.7969,74 259.6875,74.1563 C259.5156,74.375 259.25,74.5156 258.9844,74.5156 C258.7656,74.5156 258.5313,74.4063 258.3906,74.2656 C258.25,74.1406 258.2188,74.0156 258.1563,73.6094 C258.0625,73.2031 257.8906,72.9844 257.4063,72.7031 C256.9375,72.4531 256.3281,72.2969 255.75,72.2969 C254.0156,72.2969 252.7656,73.6094 252.7656,75.3906 L252.7656,76.4844 C252.7656,78.1875 254.0625,79.2813 256.1094,79.2813 C256.875,79.2813 257.5625,79.1563 257.9844,78.8906 C258.1719,78.7969 258.1719,78.7969 258.625,78.3125 C258.8125,78.125 259.0156,78.0469 259.2344,78.0469 C259.7031,78.0469 260.0938,78.4375 260.0938,78.8906 C260.0938,79.2813 259.7656,79.7344 259.1875,80.1406 C258.4375,80.6875 257.2813,80.9844 256.0625,80.9844 C253.1719,80.9844 251.0625,79.0938 251.0625,76.5156 L251.0625,75.3906 C251.0625,72.6719 253.0625,70.5938 255.6875,70.5938 C256.5625,70.5938 257.1563,70.7344 258.0938,71.1719 Z "/><text fill="#000000" font-family="sans-serif" font-size="12" lengthAdjust="spacingAndGlyphs" textLength="60" x="276.25" y="79.6543">Customer</text><line style="stroke: #A80036; stroke-width: 1.5;" x1="192" x2="388" y1="91.5" y2="91.5"/><text fill="#000000" font-family="sans-serif" font-size="11" lengthAdjust="spacingAndGlyphs" textLength="84" x="197" y="105.7104">CustomerId: Id</text><text fill="#000000" font-family="sans-serif" font-size="11" lengthAdjust="spacingAndGlyphs" textLength="108" x="197" y="118.5151">VATNumber: String</text><line style="stroke: #A80036; stroke-width: 1.0;" x1="192" x2="388" y1="125.1094" y2="125.1094"/><line style="stroke: #A80036; stroke-width: 1.0;" x1="192" x2="388" y1="127.1094" y2="127.1094"/><text fill="#000000" font-family="sans-serif" font-size="11" font-weight="bold" lengthAdjust="spacingAndGlyphs" textLength="72" x="197" y="139.3198">description</text><text fill="#000000" font-family="sans-serif" font-size="11" lengthAdjust="spacingAndGlyphs" textLength="114" x="269" y="139.3198">: Someone or some</text><text fill="#000000" font-family="sans-serif" font-size="11" lengthAdjust="spacingAndGlyphs" textLength="148" x="197" y="152.1245">company who buys things</text><!--class PaymentMethod--><rect fill="#FEFECE" filter="url(#f1bjrdw4fnalry)" height="73.6094" id="PaymentMethod" style="stroke: #A80036; stroke-width: 1.5;" width="142" x="6" y="312.5"/><ellipse cx="25.05" cy="328.5" fill="#ADD1B2" rx="11" ry="11" style="stroke: #A80036; stroke-width: 1.0;"/><path d="M27.3938,324.1719 L27.5656,324.25 C27.7844,323.9375 27.9875,323.8438 28.2844,323.8438 C28.5813,323.8438 28.8625,323.9844 29.0188,324.25 C29.1125,324.4063 29.1281,324.5313 29.1281,324.9688 L29.1281,326.3906 C29.1281,326.8125 29.0969,327 28.9875,327.1563 C28.8156,327.375 28.55,327.5156 28.2844,327.5156 C28.0656,327.5156 27.8313,327.4063 27.6906,327.2656 C27.55,327.1406 27.5188,327.0156 27.4563,326.6094 C27.3625,326.2031 27.1906,325.9844 26.7063,325.7031 C26.2375,325.4531 25.6281,325.2969 25.05,325.2969 C23.3156,325.2969 22.0656,326.6094 22.0656,328.3906 L22.0656,329.4844 C22.0656,331.1875 23.3625,332.2813 25.4094,332.2813 C26.175,332.2813 26.8625,332.1563 27.2844,331.8906 C27.4719,331.7969 27.4719,331.7969 27.925,331.3125 C28.1125,331.125 28.3156,331.0469 28.5344,331.0469 C29.0031,331.0469 29.3938,331.4375 29.3938,331.8906 C29.3938,332.2813 29.0656,332.7344 28.4875,333.1406 C27.7375,333.6875 26.5813,333.9844 25.3625,333.9844 C22.4719,333.9844 20.3625,332.0938 20.3625,329.5156 L20.3625,328.3906 C20.3625,325.6719 22.3625,323.5938 24.9875,323.5938 C25.8625,323.5938 26.4563,323.7344 27.3938,324.1719 Z "/><text fill="#000000" font-family="sans-serif" font-size="12" lengthAdjust="spacingAndGlyphs" textLength="101" x="39.95" y="332.6543">PaymentMethod</text><line style="stroke: #A80036; stroke-width: 1.5;" x1="7" x2="147" y1="344.5" y2="344.5"/><text fill="#000000" font-family="sans-serif" font-size="11" lengthAdjust="spacingAndGlyphs" textLength="120" x="12" y="358.7104">Customer: Customer</text><text fill="#000000" font-family="sans-serif" font-size="11" lengthAdjust="spacingAndGlyphs" textLength="130" x="12" y="371.5151">CreditCard: CreditCard</text><line style="stroke: #A80036; stroke-width: 1.5;" x1="7" x2="147" y1="378.1094" y2="378.1094"/><!--class Company--><rect fill="#FEFECE" filter="url(#f1bjrdw4fnalry)" height="86.4141" id="Company" style="stroke: #A80036; stroke-width: 1.5;" width="214" x="183" y="306.5"/><ellipse cx="224.1" cy="322.5" fill="#ADD1B2" rx="11" ry="11" style="stroke: #A80036; stroke-width: 1.0;"/><path d="M226.4438,318.1719 L226.6156,318.25 C226.8344,317.9375 227.0375,317.8438 227.3344,317.8438 C227.6313,317.8438 227.9125,317.9844 228.0688,318.25 C228.1625,318.4063 228.1781,318.5313 228.1781,318.9688 L228.1781,320.3906 C228.1781,320.8125 228.1469,321 228.0375,321.1563 C227.8656,321.375 227.6,321.5156 227.3344,321.5156 C227.1156,321.5156 226.8813,321.4063 226.7406,321.2656 C226.6,321.1406 226.5688,321.0156 226.5063,320.6094 C226.4125,320.2031 226.2406,319.9844 225.7563,319.7031 C225.2875,319.4531 224.6781,319.2969 224.1,319.2969 C222.3656,319.2969 221.1156,320.6094 221.1156,322.3906 L221.1156,323.4844 C221.1156,325.1875 222.4125,326.2813 224.4594,326.2813 C225.225,326.2813 225.9125,326.1563 226.3344,325.8906 C226.5219,325.7969 226.5219,325.7969 226.975,325.3125 C227.1625,325.125 227.3656,325.0469 227.5844,325.0469 C228.0531,325.0469 228.4438,325.4375 228.4438,325.8906 C228.4438,326.2813 228.1156,326.7344 227.5375,327.1406 C226.7875,327.6875 225.6313,327.9844 224.4125,327.9844 C221.5219,327.9844 219.4125,326.0938 219.4125,323.5156 L219.4125,322.3906 C219.4125,319.6719 221.4125,317.5938 224.0375,317.5938 C224.9125,317.5938 225.5063,317.7344 226.4438,318.1719 Z "/><text fill="#000000" font-family="sans-serif" font-size="12" lengthAdjust="spacingAndGlyphs" textLength="57" x="243.9" y="326.6543">Company</text><rect fill="#FFFFFF" height="15.9688" style="stroke: #000000; stroke-width: 1.0; stroke-dasharray: 2.0,2.0;" width="61" x="339" y="303.5"/><text fill="#000000" font-family="sans-serif" font-size="12" font-style="italic" lengthAdjust="spacingAndGlyphs" textLength="59" x="340" y="315.6387">Customer</text><line style="stroke: #A80036; stroke-width: 1.5;" x1="184" x2="396" y1="338.5" y2="338.5"/><text fill="#000000" font-family="sans-serif" font-size="11" lengthAdjust="spacingAndGlyphs" textLength="148" x="189" y="352.7104">OrganisationName: String</text><text fill="#000000" font-family="sans-serif" font-size="11" lengthAdjust="spacingAndGlyphs" textLength="84" x="189" y="365.5151">CustomerId: Id</text><text fill="#000000" font-family="sans-serif" font-size="11" font-style="italic" lengthAdjust="spacingAndGlyphs" textLength="86" x="281" y="365.5151">from Customer</text><text fill="#000000" font-family="sans-serif" font-size="11" lengthAdjust="spacingAndGlyphs" textLength="108" x="189" y="378.3198">VATNumber: String</text><text fill="#000000" font-family="sans-serif" font-size="11" font-style="italic" lengthAdjust="spacingAndGlyphs" textLength="86" x="305" y="378.3198">from Customer</text><line style="stroke: #A80036; stroke-width: 1.5;" x1="184" x2="396" y1="384.9141" y2="384.9141"/><!--link Address to Person--><path d="M626.038,210.109 C610.705,234.489 594.683,259.965 580.625,282.316 " fill="none" id="Address-Person" style="stroke: #A80036; stroke-width: 1.0;"/><polygon fill="#A80036" points="577.841,286.743,586.0191,281.255,580.5034,282.5108,579.2476,276.9951,577.841,286.743" style="stroke: #A80036; stroke-width: 1.0;"/><text fill="#000000" font-family="sans-serif" font-size="13" lengthAdjust="spacingAndGlyphs" textLength="52" x="606" y="253.0669">Address</text><!--link Gender to Person--><path d="M507.706,152.09 C513.419,187.943 521.729,240.102 528.351,281.661 " fill="none" id="Gender-Person" style="stroke: #A80036; stroke-width: 1.0;"/><polygon fill="#A80036" points="529.149,286.674,531.6825,277.1566,528.362,281.7363,523.7823,278.4158,529.149,286.674" style="stroke: #A80036; stroke-width: 1.0;"/><text fill="#000000" font-family="sans-serif" font-size="13" lengthAdjust="spacingAndGlyphs" textLength="47" x="524" y="253.0669">Gender</text><!--link Customer to Person--><path d="M355.347,172.591 C392.162,207.854 437.968,251.728 474.623,286.838 " fill="none" id="Customer-Person" style="stroke: #A80036; stroke-width: 1.0;"/><polygon fill="none" points="350.29,177.441,340.689,158.552,359.974,167.331,350.29,177.441" style="stroke: #A80036; stroke-width: 1.0;"/><!--link Customer to PaymentMethod--><path d="M246.64,158.552 C207.165,202.752 149.577,267.235 112.697,308.529 " fill="none" id="Customer-PaymentMethod" style="stroke: #A80036; stroke-width: 1.0;"/><polygon fill="#A80036" points="109.194,312.4515,118.1724,308.4034,112.5246,308.7223,112.2057,303.0744,109.194,312.4515" style="stroke: #A80036; stroke-width: 1.0;"/><text fill="#000000" font-family="sans-serif" font-size="13" lengthAdjust="spacingAndGlyphs" textLength="63" x="172" y="253.0669">Customer</text><!--link CreditCard to PaymentMethod--><path d="M77,146.223 C77,189.512 77,261.78 77,307.199 " fill="none" id="CreditCard-PaymentMethod" style="stroke: #A80036; stroke-width: 1.0;"/><polygon fill="#A80036" points="77,312.3276,81,303.3276,77,307.3276,73,303.3276,77,312.3276" style="stroke: #A80036; stroke-width: 1.0;"/><text fill="#000000" font-family="sans-serif" font-size="13" lengthAdjust="spacingAndGlyphs" textLength="68" x="78" y="253.0669">CreditCard</text><!--link Customer to Company--><path d="M290,178.776 C290,220.003 290,271.1 290,306.398 " fill="none" id="Customer-Company" style="stroke: #A80036; stroke-width: 1.0;"/><polygon fill="none" points="283,178.552,290,158.552,297,178.551,283,178.552" style="stroke: #A80036; stroke-width: 1.0;"/><!--
@startuml
class "CreditCard" as CreditCard  {
	Number: String 
	ExpirationDate: Date 
}
enum Gender {
	Male
	Female
	Other

}
class "Address" as Address  {
	Street: String 
	PostalCode: String 
	HouseNumber: Number 
	HouseNumberExtension: String 
	City: String 
	CountryCode: String 
	Country: Maybe String
===
  <b>description</b>: The address of a
 person. This is the functional
 location of where a person lives. This
 type is of course designed for the
 Dutch address system.
}
class "Person " as Person <Customer> {
	FirstName: Maybe String
	LastName: String 
	Address: Address 
	Gender: Gender 
	CustomerId: Id  <i>from Customer</i>
	VATNumber: String  <i>from Customer</i>
}
Address - -> Person : Address
Gender - -> Person : Gender
Customer <|- - Person
class "PaymentMethod" as PaymentMethod  {
	Customer: Customer 
	CreditCard: CreditCard 
}
Customer - -> PaymentMethod : Customer
CreditCard - -> PaymentMethod : CreditCard
class "Company " as Company <Customer> {
	OrganisationName: String 
	CustomerId: Id  <i>from Customer</i>
	VATNumber: String  <i>from Customer</i>
}
Customer <|- - Company
class "Customer" as Customer  {
	CustomerId: Id 
	VATNumber: String 
===
  <b>description</b>: Someone or some
 company who buys things
}
@enduml

PlantUML version 1.2019.07beta1(Unknown compile time)
(GPL source distribution)
Java Runtime: Java(TM) SE Runtime Environment
JVM: Java HotSpot(TM) 64-Bit Server VM
Java Version: 1.7.0_25-b15
Operating System: Linux
Default Encoding: UTF-8
Language: en
Country: US
--></g></svg>