<?xml version="1.0" encoding="UTF-8" standalone="no"?><svg xmlns="http://www.w3.org/2000/svg" xmlns:xlink="http://www.w3.org/1999/xlink" contentScriptType="application/ecmascript" contentStyleType="text/css" height="422px" preserveAspectRatio="none" style="width:797px;height:422px;" version="1.1" viewBox="0 0 797 422" width="797px" zoomAndPan="magnify"><defs><filter height="300%" id="fi6kofl54fwqf" width="300%" x="-1" y="-1"><feGaussianBlur result="blurOut" stdDeviation="2.0"/><feColorMatrix in="blurOut" result="blurOut2" type="matrix" values="0 0 0 0 0 0 0 0 0 0 0 0 0 0 0 0 0 0 .4 0"/><feOffset dx="4.0" dy="4.0" in="blurOut2" result="blurOut3"/><feBlend in="SourceGraphic" in2="blurOut3" mode="normal"/></filter></defs><g><!--class Gender--><rect fill="#FEFECE" filter="url(#fi6kofl54fwqf)" height="86.4141" id="Gender" style="stroke: #A80036; stroke-width: 1.5;" width="78" x="6" y="66"/><ellipse cx="21" cy="82" fill="#EB937F" rx="11" ry="11" style="stroke: #A80036; stroke-width: 1.0;"/><path d="M19.2969,82.875 L19.2969,85.2969 L23.6563,85.2969 L23.6563,84.4219 C23.6563,83.9375 23.6875,83.7969 23.7969,83.6406 C23.9688,83.3906 24.2344,83.2813 24.5,83.2813 C24.7813,83.2813 25.0625,83.4375 25.2344,83.6875 C25.3125,83.8438 25.3438,83.9844 25.3438,84.4219 L25.3438,87 L17.3438,87 C16.9531,87 16.7188,86.9531 16.5781,86.8281 C16.3594,86.6719 16.2188,86.4219 16.2188,86.1563 C16.2188,85.8594 16.375,85.5938 16.625,85.4219 C16.7813,85.3125 16.9375,85.2969 17.3438,85.2969 L17.5938,85.2969 L17.5938,78.7813 L17.3438,78.7813 C16.9219,78.7813 16.7344,78.75 16.5781,78.6406 C16.3594,78.4688 16.2188,78.2188 16.2188,77.9375 C16.2188,77.6563 16.375,77.3594 16.625,77.2031 C16.7813,77.1094 16.9063,77.0938 17.3438,77.0938 L24.9688,77.0938 L24.9688,79.6406 C24.9688,80.1094 24.9375,80.25 24.8281,80.4219 C24.6563,80.6406 24.3906,80.7813 24.125,80.7813 C23.8438,80.7813 23.5625,80.625 23.3906,80.375 C23.3125,80.2188 23.2813,80.0469 23.2813,79.6406 L23.2813,78.7813 L19.2969,78.7813 L19.2969,81.1875 L20.75,81.1875 L20.75,81.0625 C20.75,80.6094 20.7813,80.4531 20.8906,80.2813 C21.0625,80.0625 21.3281,79.9219 21.5781,79.9219 C22.0313,79.9219 22.3438,80.2344 22.4063,80.7031 C22.4219,80.8594 22.4219,80.9063 22.4219,81.0625 L22.4219,82.9844 C22.4219,83.4375 22.3906,83.5938 22.2656,83.75 C22.1094,83.9688 21.8438,84.1094 21.5938,84.1094 C21.2969,84.1094 21.0156,83.9531 20.8594,83.7031 C20.7813,83.5469 20.75,83.3906 20.75,82.9844 L20.75,82.875 Z "/><text fill="#000000" font-family="sans-serif" font-size="12" lengthAdjust="spacingAndGlyphs" textLength="46" x="35" y="86.1543">Gender</text><line style="stroke: #A80036; stroke-width: 1.5;" x1="7" x2="83" y1="98" y2="98"/><text fill="#000000" font-family="sans-serif" font-size="11" lengthAdjust="spacingAndGlyphs" textLength="26" x="12" y="112.2104">Male</text><text fill="#000000" font-family="sans-serif" font-size="11" lengthAdjust="spacingAndGlyphs" textLength="41" x="12" y="125.0151">Female</text><text fill="#000000" font-family="sans-serif" font-size="11" lengthAdjust="spacingAndGlyphs" textLength="32" x="12" y="137.8198">Other</text><line style="stroke: #A80036; stroke-width: 1.5;" x1="7" x2="83" y1="144.4141" y2="144.4141"/><!--class Address--><rect fill="#FEFECE" filter="url(#fi6kofl54fwqf)" height="201.6563" id="Address" style="stroke: #A80036; stroke-width: 1.5;" width="227" x="119.5" y="8"/><ellipse cx="203.25" cy="24" fill="#ADD1B2" rx="11" ry="11" style="stroke: #A80036; stroke-width: 1.0;"/><path d="M205.5938,19.6719 L205.7656,19.75 C205.9844,19.4375 206.1875,19.3438 206.4844,19.3438 C206.7813,19.3438 207.0625,19.4844 207.2188,19.75 C207.3125,19.9063 207.3281,20.0313 207.3281,20.4688 L207.3281,21.8906 C207.3281,22.3125 207.2969,22.5 207.1875,22.6563 C207.0156,22.875 206.75,23.0156 206.4844,23.0156 C206.2656,23.0156 206.0313,22.9063 205.8906,22.7656 C205.75,22.6406 205.7188,22.5156 205.6563,22.1094 C205.5625,21.7031 205.3906,21.4844 204.9063,21.2031 C204.4375,20.9531 203.8281,20.7969 203.25,20.7969 C201.5156,20.7969 200.2656,22.1094 200.2656,23.8906 L200.2656,24.9844 C200.2656,26.6875 201.5625,27.7813 203.6094,27.7813 C204.375,27.7813 205.0625,27.6563 205.4844,27.3906 C205.6719,27.2969 205.6719,27.2969 206.125,26.8125 C206.3125,26.625 206.5156,26.5469 206.7344,26.5469 C207.2031,26.5469 207.5938,26.9375 207.5938,27.3906 C207.5938,27.7813 207.2656,28.2344 206.6875,28.6406 C205.9375,29.1875 204.7813,29.4844 203.5625,29.4844 C200.6719,29.4844 198.5625,27.5938 198.5625,25.0156 L198.5625,23.8906 C198.5625,21.1719 200.5625,19.0938 203.1875,19.0938 C204.0625,19.0938 204.6563,19.2344 205.5938,19.6719 Z "/><text fill="#000000" font-family="sans-serif" font-size="12" lengthAdjust="spacingAndGlyphs" textLength="51" x="223.75" y="28.1543">Address</text><line style="stroke: #A80036; stroke-width: 1.5;" x1="120.5" x2="345.5" y1="40" y2="40"/><text fill="#000000" font-family="sans-serif" font-size="11" lengthAdjust="spacingAndGlyphs" textLength="77" x="125.5" y="54.2104">Street: String</text><text fill="#000000" font-family="sans-serif" font-size="11" lengthAdjust="spacingAndGlyphs" textLength="106" x="125.5" y="67.0151">PostalCode: String</text><text fill="#000000" font-family="sans-serif" font-size="11" lengthAdjust="spacingAndGlyphs" textLength="134" x="125.5" y="79.8198">HouseNumber: Number</text><text fill="#000000" font-family="sans-serif" font-size="11" lengthAdjust="spacingAndGlyphs" textLength="178" x="125.5" y="92.6245">HouseNumberExtension: String</text><text fill="#000000" font-family="sans-serif" font-size="11" lengthAdjust="spacingAndGlyphs" textLength="63" x="125.5" y="105.4292">City: String</text><text fill="#000000" font-family="sans-serif" font-size="11" lengthAdjust="spacingAndGlyphs" textLength="115" x="125.5" y="118.2339">CountryCode: String</text><text fill="#000000" font-family="sans-serif" font-size="11" lengthAdjust="spacingAndGlyphs" textLength="126" x="125.5" y="131.0386">Country: Maybe String</text><line style="stroke: #A80036; stroke-width: 1.0;" x1="120.5" x2="345.5" y1="137.6328" y2="137.6328"/><line style="stroke: #A80036; stroke-width: 1.0;" x1="120.5" x2="345.5" y1="139.6328" y2="139.6328"/><text fill="#000000" font-family="sans-serif" font-size="11" font-weight="bold" lengthAdjust="spacingAndGlyphs" textLength="72" x="125.5" y="151.8433">description</text><text fill="#000000" font-family="sans-serif" font-size="11" lengthAdjust="spacingAndGlyphs" textLength="106" x="197.5" y="151.8433">: The address of a</text><text fill="#000000" font-family="sans-serif" font-size="11" lengthAdjust="spacingAndGlyphs" textLength="167" x="125.5" y="164.6479">person. This is the functional</text><text fill="#000000" font-family="sans-serif" font-size="11" lengthAdjust="spacingAndGlyphs" textLength="215" x="125.5" y="177.4526">location of where a person lives. This</text><text fill="#000000" font-family="sans-serif" font-size="11" lengthAdjust="spacingAndGlyphs" textLength="194" x="125.5" y="190.2573">type is of course designed for the</text><text fill="#000000" font-family="sans-serif" font-size="11" lengthAdjust="spacingAndGlyphs" textLength="133" x="125.5" y="203.062">Dutch address system.</text><!--class Person--><rect fill="#FEFECE" filter="url(#fi6kofl54fwqf)" height="124.8281" id="Person" style="stroke: #A80036; stroke-width: 1.5;" width="214" x="126" y="287"/><ellipse cx="173.25" cy="303" fill="#ADD1B2" rx="11" ry="11" style="stroke: #A80036; stroke-width: 1.0;"/><path d="M175.5938,298.6719 L175.7656,298.75 C175.9844,298.4375 176.1875,298.3438 176.4844,298.3438 C176.7813,298.3438 177.0625,298.4844 177.2188,298.75 C177.3125,298.9063 177.3281,299.0313 177.3281,299.4688 L177.3281,300.8906 C177.3281,301.3125 177.2969,301.5 177.1875,301.6563 C177.0156,301.875 176.75,302.0156 176.4844,302.0156 C176.2656,302.0156 176.0313,301.9063 175.8906,301.7656 C175.75,301.6406 175.7188,301.5156 175.6563,301.1094 C175.5625,300.7031 175.3906,300.4844 174.9063,300.2031 C174.4375,299.9531 173.8281,299.7969 173.25,299.7969 C171.5156,299.7969 170.2656,301.1094 170.2656,302.8906 L170.2656,303.9844 C170.2656,305.6875 171.5625,306.7813 173.6094,306.7813 C174.375,306.7813 175.0625,306.6563 175.4844,306.3906 C175.6719,306.2969 175.6719,306.2969 176.125,305.8125 C176.3125,305.625 176.5156,305.5469 176.7344,305.5469 C177.2031,305.5469 177.5938,305.9375 177.5938,306.3906 C177.5938,306.7813 177.2656,307.2344 176.6875,307.6406 C175.9375,308.1875 174.7813,308.4844 173.5625,308.4844 C170.6719,308.4844 168.5625,306.5938 168.5625,304.0156 L168.5625,302.8906 C168.5625,300.1719 170.5625,298.0938 173.1875,298.0938 C174.0625,298.0938 174.6563,298.2344 175.5938,298.6719 Z "/><text fill="#000000" font-family="sans-serif" font-size="12" lengthAdjust="spacingAndGlyphs" textLength="44" x="193.75" y="307.1543">Person</text><rect fill="#FFFFFF" height="15.9688" style="stroke: #000000; stroke-width: 1.0; stroke-dasharray: 2.0,2.0;" width="61" x="282" y="284"/><text fill="#000000" font-family="sans-serif" font-size="12" font-style="italic" lengthAdjust="spacingAndGlyphs" textLength="59" x="283" y="296.1387">Customer</text><line style="stroke: #A80036; stroke-width: 1.5;" x1="127" x2="339" y1="319" y2="319"/><text fill="#000000" font-family="sans-serif" font-size="11" lengthAdjust="spacingAndGlyphs" textLength="140" x="132" y="333.2104">FirstName: Maybe String</text><text fill="#000000" font-family="sans-serif" font-size="11" lengthAdjust="spacingAndGlyphs" textLength="99" x="132" y="346.0151">LastName: String</text><text fill="#000000" font-family="sans-serif" font-size="11" lengthAdjust="spacingAndGlyphs" textLength="102" x="132" y="358.8198">Address: Address</text><text fill="#000000" font-family="sans-serif" font-size="11" lengthAdjust="spacingAndGlyphs" textLength="92" x="132" y="371.6245">Gender: Gender</text><text fill="#000000" font-family="sans-serif" font-size="11" lengthAdjust="spacingAndGlyphs" textLength="84" x="132" y="384.4292">CustomerId: Id</text><text fill="#000000" font-family="sans-serif" font-size="11" font-style="italic" lengthAdjust="spacingAndGlyphs" textLength="86" x="224" y="384.4292">from Customer</text><text fill="#000000" font-family="sans-serif" font-size="11" lengthAdjust="spacingAndGlyphs" textLength="108" x="132" y="397.2339">VATNumber: String</text><text fill="#000000" font-family="sans-serif" font-size="11" font-style="italic" lengthAdjust="spacingAndGlyphs" textLength="86" x="248" y="397.2339">from Customer</text><line style="stroke: #A80036; stroke-width: 1.5;" x1="127" x2="339" y1="403.8281" y2="403.8281"/><!--class Customer--><rect fill="#FEFECE" filter="url(#fi6kofl54fwqf)" height="99.2188" id="Customer" style="stroke: #A80036; stroke-width: 1.5;" width="198" x="382" y="59.5"/><ellipse cx="446.75" cy="75.5" fill="#ADD1B2" rx="11" ry="11" style="stroke: #A80036; stroke-width: 1.0;"/><path d="M449.0938,71.1719 L449.2656,71.25 C449.4844,70.9375 449.6875,70.8438 449.9844,70.8438 C450.2813,70.8438 450.5625,70.9844 450.7188,71.25 C450.8125,71.4063 450.8281,71.5313 450.8281,71.9688 L450.8281,73.3906 C450.8281,73.8125 450.7969,74 450.6875,74.1563 C450.5156,74.375 450.25,74.5156 449.9844,74.5156 C449.7656,74.5156 449.5313,74.4063 449.3906,74.2656 C449.25,74.1406 449.2188,74.0156 449.1563,73.6094 C449.0625,73.2031 448.8906,72.9844 448.4063,72.7031 C447.9375,72.4531 447.3281,72.2969 446.75,72.2969 C445.0156,72.2969 443.7656,73.6094 443.7656,75.3906 L443.7656,76.4844 C443.7656,78.1875 445.0625,79.2813 447.1094,79.2813 C447.875,79.2813 448.5625,79.1563 448.9844,78.8906 C449.1719,78.7969 449.1719,78.7969 449.625,78.3125 C449.8125,78.125 450.0156,78.0469 450.2344,78.0469 C450.7031,78.0469 451.0938,78.4375 451.0938,78.8906 C451.0938,79.2813 450.7656,79.7344 450.1875,80.1406 C449.4375,80.6875 448.2813,80.9844 447.0625,80.9844 C444.1719,80.9844 442.0625,79.0938 442.0625,76.5156 L442.0625,75.3906 C442.0625,72.6719 444.0625,70.5938 446.6875,70.5938 C447.5625,70.5938 448.1563,70.7344 449.0938,71.1719 Z "/><text fill="#000000" font-family="sans-serif" font-size="12" lengthAdjust="spacingAndGlyphs" textLength="60" x="467.25" y="79.6543">Customer</text><line style="stroke: #A80036; stroke-width: 1.5;" x1="383" x2="579" y1="91.5" y2="91.5"/><text fill="#000000" font-family="sans-serif" font-size="11" lengthAdjust="spacingAndGlyphs" textLength="84" x="388" y="105.7104">CustomerId: Id</text><text fill="#000000" font-family="sans-serif" font-size="11" lengthAdjust="spacingAndGlyphs" textLength="108" x="388" y="118.5151">VATNumber: String</text><line style="stroke: #A80036; stroke-width: 1.0;" x1="383" x2="579" y1="125.1094" y2="125.1094"/><line style="stroke: #A80036; stroke-width: 1.0;" x1="383" x2="579" y1="127.1094" y2="127.1094"/><text fill="#000000" font-family="sans-serif" font-size="11" font-weight="bold" lengthAdjust="spacingAndGlyphs" textLength="72" x="388" y="139.3198">description</text><text fill="#000000" font-family="sans-serif" font-size="11" lengthAdjust="spacingAndGlyphs" textLength="114" x="460" y="139.3198">: Someone or some</text><text fill="#000000" font-family="sans-serif" font-size="11" lengthAdjust="spacingAndGlyphs" textLength="148" x="388" y="152.1245">company who buys things</text><!--class PaymentMethod--><rect fill="#FEFECE" filter="url(#fi6kofl54fwqf)" height="73.6094" id="PaymentMethod" style="stroke: #A80036; stroke-width: 1.5;" width="142" x="392" y="312.5"/><ellipse cx="411.05" cy="328.5" fill="#ADD1B2" rx="11" ry="11" style="stroke: #A80036; stroke-width: 1.0;"/><path d="M413.3938,324.1719 L413.5656,324.25 C413.7844,323.9375 413.9875,323.8438 414.2844,323.8438 C414.5813,323.8438 414.8625,323.9844 415.0188,324.25 C415.1125,324.4063 415.1281,324.5313 415.1281,324.9688 L415.1281,326.3906 C415.1281,326.8125 415.0969,327 414.9875,327.1563 C414.8156,327.375 414.55,327.5156 414.2844,327.5156 C414.0656,327.5156 413.8313,327.4063 413.6906,327.2656 C413.55,327.1406 413.5188,327.0156 413.4563,326.6094 C413.3625,326.2031 413.1906,325.9844 412.7063,325.7031 C412.2375,325.4531 411.6281,325.2969 411.05,325.2969 C409.3156,325.2969 408.0656,326.6094 408.0656,328.3906 L408.0656,329.4844 C408.0656,331.1875 409.3625,332.2813 411.4094,332.2813 C412.175,332.2813 412.8625,332.1563 413.2844,331.8906 C413.4719,331.7969 413.4719,331.7969 413.925,331.3125 C414.1125,331.125 414.3156,331.0469 414.5344,331.0469 C415.0031,331.0469 415.3938,331.4375 415.3938,331.8906 C415.3938,332.2813 415.0656,332.7344 414.4875,333.1406 C413.7375,333.6875 412.5813,333.9844 411.3625,333.9844 C408.4719,333.9844 406.3625,332.0938 406.3625,329.5156 L406.3625,328.3906 C406.3625,325.6719 408.3625,323.5938 410.9875,323.5938 C411.8625,323.5938 412.4563,323.7344 413.3938,324.1719 Z "/><text fill="#000000" font-family="sans-serif" font-size="12" lengthAdjust="spacingAndGlyphs" textLength="101" x="425.95" y="332.6543">PaymentMethod</text><line style="stroke: #A80036; stroke-width: 1.5;" x1="393" x2="533" y1="344.5" y2="344.5"/><text fill="#000000" font-family="sans-serif" font-size="11" lengthAdjust="spacingAndGlyphs" textLength="120" x="398" y="358.7104">Customer: Customer</text><text fill="#000000" font-family="sans-serif" font-size="11" lengthAdjust="spacingAndGlyphs" textLength="130" x="398" y="371.5151">CreditCard: CreditCard</text><line style="stroke: #A80036; stroke-width: 1.5;" x1="393" x2="533" y1="378.1094" y2="378.1094"/><!--class Company--><rect fill="#FEFECE" filter="url(#fi6kofl54fwqf)" height="86.4141" id="Company" style="stroke: #A80036; stroke-width: 1.5;" width="214" x="569" y="306.5"/><ellipse cx="610.1" cy="322.5" fill="#ADD1B2" rx="11" ry="11" style="stroke: #A80036; stroke-width: 1.0;"/><path d="M612.4438,318.1719 L612.6156,318.25 C612.8344,317.9375 613.0375,317.8438 613.3344,317.8438 C613.6313,317.8438 613.9125,317.9844 614.0688,318.25 C614.1625,318.4063 614.1781,318.5313 614.1781,318.9688 L614.1781,320.3906 C614.1781,320.8125 614.1469,321 614.0375,321.1563 C613.8656,321.375 613.6,321.5156 613.3344,321.5156 C613.1156,321.5156 612.8813,321.4063 612.7406,321.2656 C612.6,321.1406 612.5688,321.0156 612.5063,320.6094 C612.4125,320.2031 612.2406,319.9844 611.7563,319.7031 C611.2875,319.4531 610.6781,319.2969 610.1,319.2969 C608.3656,319.2969 607.1156,320.6094 607.1156,322.3906 L607.1156,323.4844 C607.1156,325.1875 608.4125,326.2813 610.4594,326.2813 C611.225,326.2813 611.9125,326.1563 612.3344,325.8906 C612.5219,325.7969 612.5219,325.7969 612.975,325.3125 C613.1625,325.125 613.3656,325.0469 613.5844,325.0469 C614.0531,325.0469 614.4438,325.4375 614.4438,325.8906 C614.4438,326.2813 614.1156,326.7344 613.5375,327.1406 C612.7875,327.6875 611.6313,327.9844 610.4125,327.9844 C607.5219,327.9844 605.4125,326.0938 605.4125,323.5156 L605.4125,322.3906 C605.4125,319.6719 607.4125,317.5938 610.0375,317.5938 C610.9125,317.5938 611.5063,317.7344 612.4438,318.1719 Z "/><text fill="#000000" font-family="sans-serif" font-size="12" lengthAdjust="spacingAndGlyphs" textLength="57" x="629.9" y="326.6543">Company</text><rect fill="#FFFFFF" height="15.9688" style="stroke: #000000; stroke-width: 1.0; stroke-dasharray: 2.0,2.0;" width="61" x="725" y="303.5"/><text fill="#000000" font-family="sans-serif" font-size="12" font-style="italic" lengthAdjust="spacingAndGlyphs" textLength="59" x="726" y="315.6387">Customer</text><line style="stroke: #A80036; stroke-width: 1.5;" x1="570" x2="782" y1="338.5" y2="338.5"/><text fill="#000000" font-family="sans-serif" font-size="11" lengthAdjust="spacingAndGlyphs" textLength="148" x="575" y="352.7104">OrganisationName: String</text><text fill="#000000" font-family="sans-serif" font-size="11" lengthAdjust="spacingAndGlyphs" textLength="84" x="575" y="365.5151">CustomerId: Id</text><text fill="#000000" font-family="sans-serif" font-size="11" font-style="italic" lengthAdjust="spacingAndGlyphs" textLength="86" x="667" y="365.5151">from Customer</text><text fill="#000000" font-family="sans-serif" font-size="11" lengthAdjust="spacingAndGlyphs" textLength="108" x="575" y="378.3198">VATNumber: String</text><text fill="#000000" font-family="sans-serif" font-size="11" font-style="italic" lengthAdjust="spacingAndGlyphs" textLength="86" x="691" y="378.3198">from Customer</text><line style="stroke: #A80036; stroke-width: 1.5;" x1="570" x2="782" y1="384.9141" y2="384.9141"/><!--link Address to Person--><path d="M233,210.109 C233,234.184 233,259.328 233,281.476 " fill="none" id="Address-Person" style="stroke: #A80036; stroke-width: 1.0;"/><polygon fill="#A80036" points="233,286.743,237,277.743,233,281.743,229,277.743,233,286.743" style="stroke: #A80036; stroke-width: 1.0;"/><text fill="#000000" font-family="sans-serif" font-size="13" lengthAdjust="spacingAndGlyphs" textLength="52" x="234" y="253.0669">Address</text><!--link Gender to Person--><path d="M66.1657,152.258 C76.097,170.631 88.6731,192.019 102,210 C120.723,235.262 143.591,260.848 164.949,283.039 " fill="none" id="Gender-Person" style="stroke: #A80036; stroke-width: 1.0;"/><polygon fill="#A80036" points="168.639,286.856,165.2581,277.6056,165.1632,283.2617,159.5072,283.1668,168.639,286.856" style="stroke: #A80036; stroke-width: 1.0;"/><text fill="#000000" font-family="sans-serif" font-size="13" lengthAdjust="spacingAndGlyphs" textLength="47" x="140" y="253.0669">Gender</text><!--link Customer to Person--><path d="M430.515,158.552 C396.357,191.401 350.55,235.452 311.65,272.863 " fill="none" id="Customer-Person" style="stroke: #A80036; stroke-width: 1.0;"/><polygon fill="none" points="316.386,278.02,297.118,286.838,306.681,267.929,316.386,278.02" style="stroke: #A80036; stroke-width: 1.0;"/><!--link Customer to PaymentMethod--><path d="M477.336,158.552 C474.033,202.307 469.231,265.937 466.111,307.273 " fill="none" id="Customer-PaymentMethod" style="stroke: #A80036; stroke-width: 1.0;"/><polygon fill="#A80036" points="465.721,312.4515,470.386,303.7775,466.0967,307.4656,462.4086,303.1764,465.721,312.4515" style="stroke: #A80036; stroke-width: 1.0;"/><text fill="#000000" font-family="sans-serif" font-size="13" lengthAdjust="spacingAndGlyphs" textLength="63" x="472" y="253.0669">Customer</text><!--link Customer to Company--><path d="M520.696,158.552 C551.987,196.823 595.709,250.299 628.793,290.763 " fill="none" id="Customer-Company" style="stroke: #A80036; stroke-width: 1.0;"/><polygon fill="none" points="634.336,286.483,641.577,306.398,623.498,295.345,634.336,286.483" style="stroke: #A80036; stroke-width: 1.0;"/><!--
@startuml
enum Gender {
	Male
	Female
	Other

}
class "Address" as Address  {
	Street: String 
	PostalCode: String 
	HouseNumber: Number 
	HouseNumberExtension: String 
	City: String 
	CountryCode: String 
	Country: Maybe String
===
  <b>description</b>: The address of a
 person. This is the functional
 location of where a person lives. This
 type is of course designed for the
 Dutch address system.
}
class "Person " as Person <Customer> {
	FirstName: Maybe String
	LastName: String 
	Address: Address 
	Gender: Gender 
	CustomerId: Id  <i>from Customer</i>
	VATNumber: String  <i>from Customer</i>
}
Address - -> Person : Address
Gender - -> Person : Gender
Customer - -|> Person
class "PaymentMethod" as PaymentMethod  {
	Customer: Customer 
	CreditCard: CreditCard 
}
Customer - -> PaymentMethod : Customer
class "Company " as Company <Customer> {
	OrganisationName: String 
	CustomerId: Id  <i>from Customer</i>
	VATNumber: String  <i>from Customer</i>
}
Customer - -|> Company
class "Customer" as Customer  {
	CustomerId: Id 
	VATNumber: String 
===
  <b>description</b>: Someone or some
 company who buys things
}
@enduml

PlantUML version 1.2019.05(Sat Apr 20 16:45:36 UTC 2019)
(GPL source distribution)
Java Runtime: Java(TM) SE Runtime Environment
JVM: Java HotSpot(TM) 64-Bit Server VM
Java Version: 1.7.0_25-b15
Operating System: Linux
Default Encoding: UTF-8
Language: en
Country: US
--></g></svg>